<svg width="469" height="650" viewBox="0 0 469 650" fill="none" xmlns="http://www.w3.org/2000/svg">
<path d="M439.07 0.700195H29.1898C13.1198 0.700195 0.0898438 12.7602 0.0898438 27.6302V622.47C0.0898438 637.34 13.1198 649.4 29.1898 649.4H439.07C455.14 649.4 468.17 637.34 468.17 622.47V27.6302C468.17 12.7602 455.14 0.700195 439.07 0.700195Z" fill="url(#paint0_linear_145_1310)"/>
<path d="M234.129 291.73C218.709 263.33 179.399 274.33 179.399 302.49C179.399 334.04 220.149 345.2 233.919 374.57L234.129 374.98L234.339 374.57C248.099 345.2 288.859 334.05 288.859 302.49C288.859 274.33 249.549 263.32 234.129 291.73Z" fill="#EB3000"/>
<path d="M84.4597 88.1599L59.1796 23.6699H54.6497L30.6796 83.5299C29.4396 86.6399 28.0796 88.7598 26.6696 89.8198C25.2896 90.8598 23.3296 91.3899 20.8596 91.3899H19.8496V96.9398H47.1596V91.3899H43.7896C41.2996 91.3899 39.3897 90.9098 38.1497 89.9498C36.9697 89.0398 36.3997 88.0099 36.3997 86.7799C36.3997 85.5499 36.8096 83.8899 37.6096 81.7599L40.5996 73.9099H66.8297L72.3397 88.0698C72.5197 88.5498 72.6096 89.0099 72.6096 89.4199C72.6096 89.9699 72.4096 90.2999 71.9196 90.5599C71.1996 90.9399 69.6396 91.3899 66.2596 91.3899H63.0396V96.9398H92.8997V91.3899H89.7196C86.9996 91.3899 85.3396 90.3599 84.4696 88.1599H84.4597ZM42.9296 68.2198L53.9496 40.8599L64.6096 68.2198H42.9296Z" fill="#EB3000"/>
<path d="M383.15 561.86L408.43 626.35H412.96L436.93 566.49C438.17 563.38 439.53 561.26 440.94 560.2C442.32 559.16 444.28 558.63 446.75 558.63H447.76V553.08H420.45V558.63H423.82C426.31 558.63 428.22 559.11 429.46 560.07C430.64 560.98 431.21 562.01 431.21 563.24C431.21 564.47 430.8 566.13 430 568.26L427.01 576.11H400.78L395.27 561.95C395.09 561.47 395 561.01 395 560.6C395 560.05 395.2 559.72 395.69 559.46C396.41 559.08 397.97 558.63 401.35 558.63H404.57V553.08H374.71V558.63H377.89C380.61 558.63 382.27 559.66 383.14 561.86H383.15ZM424.68 581.8L413.66 609.16L403 581.8H424.68Z" fill="#EB3000"/>
<path d="M56.7299 114.63C50.1699 102.55 33.46 107.23 33.46 119.21C33.46 132.63 50.79 137.37 56.64 149.86L56.7299 150.04L56.8199 149.86C62.6699 137.37 80.0099 132.63 80.0099 119.21C80.0099 107.23 63.2899 102.55 56.7299 114.63Z" fill="#EB3000"/>
<path d="M412.45 535.55C419.01 547.63 435.72 542.95 435.72 530.97C435.72 517.55 418.39 512.81 412.54 500.32L412.45 500.14L412.36 500.32C406.51 512.81 389.17 517.55 389.17 530.97C389.17 542.95 405.89 547.63 412.45 535.55Z" fill="#EB3000"/>
<defs>
<linearGradient id="paint0_linear_145_1310" x1="380.13" y1="-103.45" x2="109.64" y2="690.42" gradientUnits="userSpaceOnUse">
<stop stop-color="#E1E1E1"/>
<stop offset="0.12" stop-color="#ECECEC"/>
<stop offset="0.32" stop-color="#FAFAFA"/>
<stop offset="0.49" stop-color="white"/>
<stop offset="0.7" stop-color="#FBFBFB"/>
<stop offset="0.85" stop-color="#F2F2F2"/>
<stop offset="0.99" stop-color="#E2E2E2"/>
<stop offset="1" stop-color="#E1E1E1"/>
</linearGradient>
</defs>
</svg>
