<svg width="469" height="650" viewBox="0 0 469 650" fill="none" xmlns="http://www.w3.org/2000/svg">
<path d="M439.03 0.609863H29.1499C13.0799 0.609863 0.0498047 12.6699 0.0498047 27.5399V622.38C0.0498047 637.25 13.0799 649.31 29.1499 649.31H439.03C455.1 649.31 468.13 637.25 468.13 622.38V27.5399C468.13 12.6699 455.1 0.609863 439.03 0.609863Z" fill="url(#paint0_linear_145_1692)"/>
<path d="M56.8799 114.63C50.3199 102.55 33.6099 107.23 33.6099 119.21C33.6099 132.63 50.94 137.37 56.79 149.86L56.8799 150.04L56.9702 149.86C62.8202 137.37 80.1602 132.63 80.1602 119.21C80.1602 107.23 63.4399 102.55 56.8799 114.63Z" fill="#EB3000"/>
<path d="M412.6 535.55C419.16 547.63 435.87 542.95 435.87 530.97C435.87 517.55 418.54 512.81 412.69 500.32L412.6 500.14L412.51 500.32C406.66 512.81 389.32 517.55 389.32 530.97C389.32 542.95 406.04 547.63 412.6 535.55Z" fill="#EB3000"/>
<path d="M234.28 136.97C218.86 108.57 179.55 119.57 179.55 147.73C179.55 179.28 220.3 190.44 234.07 219.81L234.28 220.22L234.49 219.81C248.25 190.44 289.01 179.29 289.01 147.73C289.01 119.57 249.7 108.56 234.28 136.97Z" fill="#EB3000"/>
<path d="M234.09 511.87C249.51 540.27 288.82 529.27 288.82 501.11C288.82 469.56 248.07 458.4 234.3 429.03L234.09 428.62L233.88 429.03C220.12 458.4 179.36 469.55 179.36 501.11C179.36 529.27 218.67 540.28 234.09 511.87Z" fill="#EB3000"/>
<path d="M329.5 578.64C344.92 607.04 384.23 596.04 384.23 567.88C384.23 536.33 343.48 525.17 329.71 495.8L329.5 495.39L329.29 495.8C315.53 525.17 274.77 536.32 274.77 567.88C274.77 596.04 314.08 607.05 329.5 578.64Z" fill="#EB3000"/>
<path d="M329.02 70.7C313.6 42.3 274.29 53.3 274.29 81.46C274.29 113.01 315.04 124.17 328.81 153.54L329.02 153.95L329.23 153.54C342.99 124.17 383.75 113.02 383.75 81.46C383.75 53.3 344.44 42.29 329.02 70.7Z" fill="#EB3000"/>
<path d="M139.64 578.64C155.06 607.04 194.37 596.04 194.37 567.88C194.37 536.33 153.62 525.17 139.85 495.8L139.64 495.39L139.43 495.8C125.67 525.17 84.9102 536.32 84.9102 567.88C84.9102 596.04 124.22 607.05 139.64 578.64Z" fill="#EB3000"/>
<path d="M329.5 436.25C344.92 464.65 384.23 453.65 384.23 425.49C384.23 393.94 343.48 382.78 329.71 353.41L329.5 353L329.29 353.41C315.53 382.78 274.77 393.93 274.77 425.49C274.77 453.65 314.08 464.66 329.5 436.25Z" fill="#EB3000"/>
<path d="M139.64 436.25C155.06 464.65 194.37 453.65 194.37 425.49C194.37 393.94 153.62 382.78 139.85 353.41L139.64 353L139.43 353.41C125.67 382.78 84.9102 393.93 84.9102 425.49C84.9102 453.65 124.22 464.66 139.64 436.25Z" fill="#EB3000"/>
<path d="M139.16 70.7C123.74 42.3 84.4302 53.3 84.4302 81.46C84.4302 113.01 125.18 124.17 138.95 153.54L139.16 153.95L139.37 153.54C153.13 124.17 193.89 113.02 193.89 81.46C193.89 53.3 154.58 42.29 139.16 70.7Z" fill="#EB3000"/>
<path d="M329.02 213.1C313.6 184.7 274.29 195.7 274.29 223.86C274.29 255.41 315.04 266.57 328.81 295.94L329.02 296.35L329.23 295.94C342.99 266.57 383.75 255.42 383.75 223.86C383.75 195.7 344.44 184.69 329.02 213.1Z" fill="#EB3000"/>
<path d="M139.16 213.1C123.74 184.7 84.4302 195.7 84.4302 223.86C84.4302 255.41 125.18 266.57 138.95 295.94L139.16 296.35L139.37 295.94C153.13 266.57 193.89 255.42 193.89 223.86C193.89 195.7 154.58 184.69 139.16 213.1Z" fill="#EB3000"/>
<path d="M63.6099 22.9697C57.5799 22.9697 52.68 25.8798 49.02 31.6298C44.67 38.4598 42.4702 47.7097 42.4702 59.0997C42.4702 71.0997 44.82 80.4697 49.46 86.9497C53.3 92.2897 58.1799 94.9998 63.9399 94.9998C69.6999 94.9998 75.08 91.7998 79.25 85.4998C83.31 79.3598 85.3701 70.4198 85.3701 58.9198C85.3701 46.5198 83.0001 37.0797 78.3301 30.8497C74.4301 25.6197 69.4801 22.9697 63.6201 22.9697H63.6099ZM70.6499 83.0498C69.0499 86.1898 66.8599 87.7097 63.9399 87.7097C61.0199 87.7097 58.78 86.0297 57 82.5697C55.07 78.8097 54.0898 70.9197 54.0898 59.0997C54.0898 44.0297 55.6101 37.8698 56.8901 35.3698C58.6001 32.0198 60.8701 30.3998 63.8501 30.3998C66.8301 30.3998 69.0301 32.1298 70.8501 35.6798C72.8201 39.5298 73.8198 47.5197 73.8198 59.4397C73.8198 71.3597 72.7501 78.8898 70.6401 83.0598L70.6499 83.0498Z" fill="#EB3000"/>
<path d="M34.6499 85.0302V24.1201H30.21L29.7202 24.5101C27.7602 26.0801 25.4298 27.3801 22.8198 28.3601C20.1498 29.3601 16.59 30.1802 12.25 30.7902L10.6401 31.0101V38.0502H22.0601C22.8401 38.0502 23.1999 38.3101 23.3999 38.5001C23.6999 38.7901 23.7598 39.0202 23.7598 39.2902V83.7902C23.7598 84.7702 23.4602 85.2001 23.2402 85.4401C22.7902 85.9201 21.89 86.0201 21.21 86.0201H12.21V93.5901H46.9502V86.0201H36.7402C35.9202 86.0201 35.2699 85.8201 34.6499 85.0101V85.0302Z" fill="#EB3000"/>
<path d="M405.12 626.82C411.15 626.82 416.05 623.91 419.71 618.16C424.06 611.33 426.26 602.08 426.26 590.69C426.26 578.69 423.91 569.32 419.27 562.84C415.43 557.5 410.55 554.79 404.79 554.79C399.03 554.79 393.65 557.99 389.48 564.29C385.42 570.43 383.36 579.37 383.36 590.87C383.36 603.27 385.73 612.71 390.4 618.94C394.3 624.17 399.25 626.82 405.11 626.82H405.12ZM398.08 566.74C399.68 563.6 401.87 562.08 404.79 562.08C407.71 562.08 409.95 563.76 411.73 567.22C413.66 570.98 414.64 578.87 414.64 590.69C414.64 605.76 413.12 611.92 411.84 614.42C410.13 617.77 407.86 619.39 404.88 619.39C401.9 619.39 399.7 617.66 397.88 614.11C395.91 610.26 394.91 602.27 394.91 590.35C394.91 578.43 395.98 570.9 398.09 566.73L398.08 566.74Z" fill="#EB3000"/>
<path d="M434.09 564.76V625.67H438.53L439.02 625.28C440.98 623.71 443.31 622.41 445.92 621.43C448.59 620.43 452.15 619.61 456.49 619L458.1 618.78V611.74H446.68C445.9 611.74 445.54 611.48 445.34 611.29C445.04 611 444.98 610.77 444.98 610.5V566C444.98 565.02 445.28 564.59 445.5 564.35C445.95 563.87 446.85 563.77 447.53 563.77H456.53V556.2H421.79V563.77H432C432.82 563.77 433.47 563.97 434.09 564.78V564.76Z" fill="#EB3000"/>
<defs>
<linearGradient id="paint0_linear_145_1692" x1="380.09" y1="-103.54" x2="109.61" y2="690.32" gradientUnits="userSpaceOnUse">
<stop stop-color="#E1E1E1"/>
<stop offset="0.12" stop-color="#ECECEC"/>
<stop offset="0.32" stop-color="#FAFAFA"/>
<stop offset="0.49" stop-color="white"/>
<stop offset="0.7" stop-color="#FBFBFB"/>
<stop offset="0.85" stop-color="#F2F2F2"/>
<stop offset="0.99" stop-color="#E2E2E2"/>
<stop offset="1" stop-color="#E1E1E1"/>
</linearGradient>
</defs>
</svg>
