<svg width="469" height="650" viewBox="0 0 469 650" fill="none" xmlns="http://www.w3.org/2000/svg">
<path d="M439.16 0.609863H29.2798C13.2098 0.609863 0.180176 12.6699 0.180176 27.5399V622.38C0.180176 637.25 13.2098 649.31 29.2798 649.31H439.16C455.23 649.31 468.26 637.25 468.26 622.38V27.5399C468.26 12.6699 455.23 0.609863 439.16 0.609863Z" fill="url(#paint0_linear_145_1764)"/>
<path d="M57.0098 114.63C50.4498 102.55 33.7402 107.23 33.7402 119.21C33.7402 132.63 51.0699 137.37 56.9199 149.86L57.0098 150.04L57.1001 149.86C62.9501 137.37 80.29 132.63 80.29 119.21C80.29 107.23 63.5698 102.55 57.0098 114.63Z" fill="#EB3000"/>
<path d="M412.73 535.55C419.29 547.63 436 542.95 436 530.97C436 517.55 418.67 512.81 412.82 500.32L412.73 500.14L412.64 500.32C406.79 512.81 389.45 517.55 389.45 530.97C389.45 542.95 406.17 547.63 412.73 535.55Z" fill="#EB3000"/>
<path d="M48.8599 29.3501H56.0498C58.2798 29.3501 59.2702 29.7401 59.7202 30.0701C60.0802 30.3401 60.5601 30.8301 60.5601 32.0201V76.7101C60.5601 81.3201 59.4999 84.9401 57.3999 87.4601C55.3199 89.9701 52.5201 91.1802 48.8701 91.1802C45.6601 91.1802 42.93 90.2801 40.75 88.5101C38.6 86.7601 37.5601 84.9101 37.5601 82.8501C37.5601 82.0401 37.7301 81.6701 37.8901 81.4501C38.0201 81.2701 38.1301 81.2101 38.3501 81.2101C38.3801 81.2101 38.66 81.2202 39.75 81.5402C40.87 81.8902 41.7302 82.0602 42.4102 82.0602C44.1802 82.0602 45.7398 81.3201 47.0698 79.8701C48.3698 78.4401 49.0298 76.6701 49.0298 74.5901C49.0298 72.2101 48.2299 70.2202 46.6499 68.6602C45.0799 67.1102 43.0602 66.3201 40.6602 66.3201C37.7502 66.3201 35.27 67.5001 33.29 69.8401C31.34 72.1201 30.3599 75.1901 30.3599 78.9401C30.3599 83.9601 32.2598 88.2601 36.0098 91.7401C39.7398 95.1901 44.5902 96.9401 50.4302 96.9401C54.6902 96.9401 58.58 96.0701 61.98 94.3601C65.41 92.6301 68.0498 90.2502 69.8398 87.2802C71.6298 84.3202 72.5298 80.9602 72.5298 77.3002V32.0502C72.5298 31.1602 72.7698 30.5101 73.2798 30.0801C73.6598 29.7601 74.4901 29.3801 76.3301 29.3801H81.73V23.8301H48.8501V29.3801L48.8599 29.3501Z" fill="#EB3000"/>
<path d="M419.32 620.939H412.13C409.9 620.939 408.91 620.549 408.46 620.219C408.1 619.949 407.62 619.46 407.62 618.27V573.58C407.62 568.97 408.68 565.35 410.78 562.83C412.86 560.33 415.66 559.11 419.31 559.11C422.52 559.11 425.25 560.01 427.43 561.78C429.58 563.53 430.62 565.379 430.62 567.439C430.62 568.249 430.45 568.62 430.29 568.84C430.16 569.02 430.05 569.08 429.83 569.08C429.8 569.08 429.52 569.07 428.43 568.75C427.31 568.4 426.45 568.229 425.77 568.229C424 568.229 422.44 568.969 421.11 570.419C419.81 571.849 419.15 573.619 419.15 575.699C419.15 578.079 419.95 580.069 421.53 581.629C423.1 583.179 425.12 583.969 427.52 583.969C430.43 583.969 432.91 582.789 434.89 580.449C436.84 578.169 437.82 575.1 437.82 571.35C437.82 566.33 435.92 562.03 432.17 558.55C428.44 555.1 423.59 553.35 417.75 553.35C413.49 553.35 409.6 554.219 406.2 555.929C402.77 557.659 400.13 560.04 398.34 563.01C396.55 565.97 395.65 569.33 395.65 572.99V618.24C395.65 619.13 395.41 619.779 394.9 620.209C394.52 620.529 393.69 620.909 391.85 620.909H386.45V626.459H419.33V620.909L419.32 620.939Z" fill="#EB3000"/>
<path d="M285.49 327.25C289 328.37 292.59 329.201 295.94 330.801C304.09 328.761 313.27 328.19 322.43 328.36C321.62 325.57 320.52 322.77 319.17 322.23C307.01 330.6 292.74 328.64 285.49 327.25Z" fill="#EB3000"/>
<path d="M102.32 526.51C109.73 526.51 115.75 532.53 115.75 539.94C115.75 545.15 112.85 549.55 108.68 551.87C109.49 554.88 109.95 558.12 109.95 561.48C109.95 567.73 108.33 573.64 105.55 578.85C128.02 566.46 143.19 542.6 143.19 515.28C143.19 487.96 128.02 464.21 105.67 451.7C108.22 456.68 109.61 462.36 109.61 468.26C109.61 472.2 109.03 476.02 107.87 479.61C111.23 482.04 113.43 486.09 113.43 490.61C113.43 498.02 107.41 504.04 99.8799 504.04C98.4899 504.04 97.0999 503.81 95.9399 503.46V528.13C97.7899 527.09 99.9901 526.51 102.31 526.51H102.32ZM122.67 496.76L122.72 496.66L122.77 496.76C126.13 503.92 136.07 506.65 136.07 514.34C136.07 521.21 126.48 523.89 122.72 516.97C118.96 523.9 109.37 521.21 109.37 514.34C109.37 506.64 119.31 503.92 122.67 496.76Z" fill="#BACBE4"/>
<path d="M86.23 502.66C85.65 502.89 84.9599 503.12 84.3799 503.36C80.5599 499.65 75.9201 496.87 70.8301 495.14C71.7601 498.38 72.5698 501.74 73.0298 505.21C73.4898 508.57 73.73 511.93 73.73 515.29C73.73 518.42 73.4999 521.54 73.1499 524.56C72.6899 528.26 71.8798 531.97 70.8398 535.44V535.56C76.2798 533.71 81.1501 530.58 85.0801 526.64C85.4301 526.76 85.7801 526.87 86.1201 527.1V503.13C86.1201 503.01 86.1202 502.78 86.2402 502.67L86.23 502.66Z" fill="#BACBE4"/>
<path d="M88.0801 529.99C87.6201 529.99 87.1601 529.76 86.8101 529.53V544.12H80.21L85.54 563.69L90.98 583.26L96.2998 563.69L101.74 544.12H95.02V529.65C94.79 529.88 94.32 530 93.98 530H88.0698L88.0801 529.99Z" fill="black"/>
<path d="M86.7998 501.61C87.1498 501.26 87.6098 501.15 88.0698 501.15H93.98C94.33 501.15 94.79 501.27 95.02 501.5V450.43C92.36 450.55 89.4598 450.43 86.7998 449.85V501.61Z" fill="black"/>
<path d="M337.63 340.07C322.11 336.83 306.13 338.8 295.59 341.81C290.15 352 284.94 366.94 284.59 382.46C284.47 393.23 288.53 404.34 295.94 413.61L318.64 442.1C335.32 433.18 355.35 432.02 372.84 438.63C370.29 420.1 375.85 400.88 388.36 386.64L365.55 358.04C358.14 348.78 348.29 342.4 337.64 340.09L337.63 340.07Z" fill="#FFBF49"/>
<path d="M402.36 387.32L373.87 351.54C369.62 346.19 364.56 341.76 359.1 338.15C356.1 337.66 353.03 337.55 350.08 336.95C347.07 336.37 343.94 335.68 341.63 333.71C340.25 332.64 339.31 331.15 338.43 329.66C333.35 328.73 327.88 328.48 322.42 328.37C313.26 328.2 304.08 328.78 295.93 330.81C294.42 331.27 293.04 331.62 291.65 332.08L288.76 332.78L287.37 334.98C282.39 343.55 278.45 353.97 276.25 364.51C275.32 368.79 274.63 373.08 274.28 377.25C274.16 378.99 274.05 380.61 274.05 382.23C273.94 395.55 278.68 408.98 287.72 420.21L306.36 443.6L306.94 444.3L316.2 456L320.14 453.45C337.4 442.45 359.86 442.1 377.35 452.41C383.49 454.03 385.69 451.6 385.22 446.04C379.08 426.7 384.41 404.93 399 390.57L402.36 387.33V387.32ZM372.83 438.62C355.34 432.02 335.31 433.18 318.63 442.09L295.93 413.6C288.52 404.34 284.47 393.22 284.58 382.45C284.93 366.93 290.14 351.99 295.58 341.8C306.12 338.79 322.1 336.82 337.62 340.06C348.27 342.37 358.12 348.75 365.53 358.01L388.34 386.61C375.83 400.85 370.28 420.07 372.82 438.6L372.83 438.62Z" fill="#DA751B"/>
<path d="M232.71 464.79V464.67L232.48 464.55C229.93 462 225.99 459.45 221.71 459.92C217.54 460.04 213.84 462.24 210.94 464.67C207.93 466.99 204.92 469.3 202.25 471.96C199.47 474.39 196.81 477.87 196.58 481.69C197.74 477.98 200.63 475.67 203.53 473.47L212.56 466.87C215.45 464.67 218.58 462.82 221.94 462.47C225.18 462.24 228.19 463.51 231.21 465.71C232.48 467.22 233.76 467.91 235.03 468.84L238.97 471.39L235.61 468.03C234.68 466.99 233.41 465.71 232.72 464.79H232.71Z" fill="black"/>
<path d="M235.72 487.95C236.88 485.52 235.72 482.16 232.01 481.7C228.3 481.35 225.41 484.94 227.26 487.95C232.12 486.45 235.71 487.95 235.71 487.95H235.72Z" fill="black"/>
<path d="M227.27 503.35C228.08 502.42 228.78 501.73 229.82 501.38C231.67 500.68 234.33 500.8 235.38 502.08C237.58 504.97 235.26 510.07 234.22 514.36L232.48 521.19C231.9 523.62 231.32 526.29 232.48 528.95C233.52 531.5 236.19 533.12 238.62 533.35C241.05 533.7 243.48 533.35 245.8 532.65C241.28 533 235.61 532.07 234.56 528.14C233.52 524.32 235.83 519.69 236.99 515.17C237.57 512.85 238.15 510.65 238.61 508.22C238.96 505.91 239.19 502.78 236.87 500.46C234.44 498.49 231.43 499.07 229.22 500.11C226.67 501.27 226.67 505.21 223.9 503.93C224.83 505.09 226.45 504.28 227.26 503.35H227.27Z" fill="black"/>
<path d="M204.34 532.42C204.92 534.27 206.42 536.13 208.51 536.82C210.59 537.75 212.79 537.52 214.88 537.05C218.82 535.89 222.29 533.69 224.61 530.45C220.9 531.84 217.55 533.58 214.07 534.27C210.71 535.43 207.47 534.97 204.34 532.42Z" fill="black"/>
<path d="M208.16 526.28C209.55 525.93 211.17 525.7 212.68 525.58C211.87 524.77 211.52 523.84 211.52 522.8C211.52 520.37 213.6 518.28 216.04 518.28C218.48 518.28 220.56 520.36 220.56 522.8C220.56 524.07 220.1 525.11 219.17 525.93C220.56 526.16 221.37 526.28 221.37 526.28C223.8 524.54 222.3 521.42 219.98 517.25C212.57 512.62 202.03 518.64 200.76 520.03C199.6 521.42 202.96 527.79 208.17 526.28H208.16Z" fill="#C7B299"/>
<path d="M216.04 518.29C213.61 518.29 211.52 520.37 211.52 522.81C211.52 523.85 211.87 524.78 212.68 525.59C214.99 525.59 217.43 525.71 219.05 525.94H219.17C220.1 525.13 220.56 524.09 220.56 522.81C220.56 520.38 218.47 518.29 216.04 518.29Z" fill="black"/>
<path d="M238.97 517.36C236.31 519.33 236.66 525.7 238.97 526.05C240.01 525.7 241.06 525.59 242.1 525.59C241.41 524.89 241.06 523.85 241.06 522.81C241.06 520.38 243.03 518.41 245.58 518.41C248.13 518.41 249.86 520.15 249.98 522.69V522.92C249.86 524.54 249.17 525.81 247.9 526.51C249.06 526.97 249.75 527.32 249.75 527.32C249.75 527.32 250.21 524.08 250.21 521.18V520.95C250.21 519.45 250.09 518.17 249.86 517.48C246.27 514.01 241.64 515.51 238.98 517.36H238.97Z" fill="#C7B299"/>
<path d="M249.97 522.69C249.85 520.14 248 518.41 245.57 518.41C243.02 518.41 241.05 520.38 241.05 522.81C241.05 523.85 241.4 524.89 242.09 525.59C244.29 525.59 246.49 526.05 247.88 526.52C249.15 525.82 249.85 524.55 249.96 522.93V522.7L249.97 522.69Z" fill="black"/>
<path d="M238.97 471.39C238.97 471.39 245.22 468.61 249.74 462.47C253.91 456.68 256.57 447.99 250.9 435.83C244.76 439.88 237.12 449.26 225.89 447.41C232.84 454.01 241.18 462.35 238.98 471.38L238.97 471.39Z" fill="white"/>
<path d="M280.54 453.44C278.92 452.98 276.83 452.74 275.44 453.79C274.63 454.37 274.17 455.18 273.47 455.87C271.73 457.72 268.72 457.84 266.17 457.61C263.62 457.38 260.85 457.03 258.53 458.31C257.37 459.01 256.45 460.05 255.29 460.86C253.78 462.02 251.7 462.6 249.73 462.48C245.22 468.62 238.96 471.4 238.96 471.4C238.96 471.4 246.37 476.96 247.41 481.24C248.34 485.41 250.3 485.99 251.93 490.74C249.61 485.41 242.32 485.64 238.96 486.8C235.6 487.84 237.22 491.32 233.86 492.82C230.62 494.21 228.42 491.9 225.87 487.96C223.32 484.03 214.41 484.6 209.77 487.27C205.72 489.7 206.99 493.64 207.34 494.56C207.46 494.33 208.27 493.4 211.39 491.43C216.72 487.95 222.39 493.74 224.13 497.1C225.75 500.57 230.85 498.61 230.85 498.61C230.85 498.61 232.7 496.99 235.37 498.03C238.03 500.11 239.65 495.94 240.93 492.93C242.32 489.92 246.25 490.04 248.11 490.85C249.85 491.55 251.93 490.85 251.93 490.85C251.93 491.08 252.05 491.31 252.16 491.66C253.9 497.22 251.23 512.39 249.84 517.48C250.07 518.18 250.19 519.45 250.19 520.95V521.18C250.19 524.07 249.73 527.32 249.73 527.32C249.73 527.32 250.31 535.08 248.57 540.29C249.15 540.52 249.49 540.98 249.73 541.56C250.54 541.68 251.35 541.56 252.16 541.33C253.78 540.98 255.4 539.71 255.75 538.09C255.87 537.28 255.75 536.47 255.98 535.66C256.44 534.04 258.18 533.11 258.87 531.61C260.49 528.48 257.25 524.66 258.06 521.19C258.4 519.22 260.14 517.83 260.95 515.98C261.87 513.9 261.53 511.47 262.57 509.38C263.73 507.41 265.93 506.14 266.97 504.06C268.71 500.35 266.05 495.72 267.78 492.13C269.05 489.47 272.41 487.96 272.76 485.07C272.88 484.03 272.53 482.87 273.11 481.94C273.69 481.01 274.85 480.9 275.77 480.43C277.97 479.27 278.55 476.38 278.32 473.83C278.2 473.02 278.2 471.98 278.78 471.4C279.13 470.94 279.59 470.82 280.05 470.59C283.18 469.43 285.84 467.12 287 464.1C288.04 460.97 287.35 457.27 284.69 455.3C284.34 455.07 283.99 454.84 283.65 454.72C283.3 454.37 282.72 454.26 282.26 454.02C281.68 453.79 281.1 453.67 280.52 453.44H280.54Z" fill="black"/>
<path d="M209.21 449.27C203.07 443.48 194.85 439.89 194.04 432.59C188.6 438.03 173.31 459.45 171.46 462.12C171.34 462.24 171.23 462.35 171.23 462.35L183.27 480.07C183.27 480.07 194.85 458.3 209.21 449.27Z" fill="white"/>
<path d="M225.88 447.42C225.88 447.42 219.74 443.37 209.21 449.27C194.85 458.3 183.27 480.07 183.27 480.07C189.06 486.09 186.4 496.05 185.82 504.39C185.24 512.61 190.22 515.28 190.22 515.28C190.22 515.28 196.36 522 194.85 529.29C193.46 535.78 197.05 542.14 198.21 543.77C198.33 544.11 198.44 544.23 198.44 544.23C198.44 544.23 224.73 553.15 246.38 544.23C247.19 543.54 247.77 542.61 248.23 541.45C248.35 541.1 248.58 540.64 248.58 540.29C250.32 535.08 249.74 527.32 249.74 527.32C249.74 527.32 249.05 526.97 247.89 526.51C246.5 526.05 244.3 525.58 242.1 525.58C241.06 525.58 240.02 525.7 238.97 526.04C236.66 525.69 236.31 519.32 238.97 517.35C241.63 515.5 246.26 513.99 249.85 517.47C251.24 512.37 253.9 497.2 252.17 491.65C252.05 491.3 251.94 491.07 251.94 490.84C251.94 490.84 249.85 491.54 248.12 490.84C246.27 490.03 242.33 489.91 240.94 492.92C239.67 495.93 238.04 500.1 235.38 498.02C232.72 496.98 230.86 498.6 230.86 498.6C230.86 498.6 225.76 500.57 224.14 497.09C222.4 493.73 216.73 487.94 211.4 491.42C208.27 493.39 207.46 494.31 207.35 494.55C207 493.62 205.73 489.69 209.78 487.26C214.41 484.59 223.33 484.02 225.88 487.95C228.43 491.89 230.63 494.2 233.87 492.81C237.23 491.31 235.61 487.83 238.97 486.79C242.33 485.63 249.62 485.4 251.94 490.73C250.32 485.98 248.35 485.4 247.42 481.23C246.38 476.95 238.97 471.39 238.97 471.39L235.03 468.84C233.76 467.92 232.48 467.22 231.21 465.71C228.2 463.51 225.19 462.24 221.94 462.47C218.58 462.82 215.46 464.67 212.56 466.87L203.53 473.47C200.64 475.67 197.74 477.99 196.58 481.69C196.81 477.87 199.47 474.4 202.25 471.96C204.92 469.3 207.93 466.98 210.94 464.67C213.83 462.24 217.54 460.04 221.71 459.92C225.99 459.46 229.93 462.01 232.48 464.55L232.71 464.67V464.79C233.41 465.72 234.68 466.99 235.6 468.03L238.96 471.39C241.16 462.36 232.82 454.02 225.87 447.42H225.88ZM232.02 481.7C235.73 482.16 236.88 485.52 235.73 487.95C235.73 487.95 232.14 486.45 227.28 487.95C225.43 484.94 228.32 481.35 232.03 481.7H232.02ZM214.88 537.05C212.8 537.51 210.6 537.75 208.51 536.82C206.42 536.13 204.92 534.27 204.34 532.42C207.47 534.97 210.71 535.43 214.07 534.27C217.55 533.57 220.9 531.84 224.61 530.45C222.29 533.69 218.82 535.89 214.88 537.05ZM229.24 500.11C231.44 499.07 234.45 498.49 236.89 500.46C239.2 502.78 238.97 505.9 238.63 508.22C238.17 510.65 237.59 512.85 237.01 515.17C235.85 519.69 233.53 524.32 234.58 528.14C235.62 532.08 241.3 533 245.82 532.65C243.5 533.35 241.07 533.69 238.64 533.35C236.21 533.12 233.54 531.5 232.5 528.95C231.34 526.29 231.92 523.63 232.5 521.19L234.24 514.36C235.28 510.08 237.6 504.98 235.4 502.08C234.36 500.81 231.69 500.69 229.84 501.38C228.8 501.73 228.1 502.42 227.29 503.35C226.48 504.28 224.86 505.09 223.93 503.93C226.71 505.2 226.71 501.26 229.25 500.11H229.24ZM200.76 520.03C202.03 518.64 212.57 512.62 219.98 517.25C222.29 521.42 223.8 524.55 221.37 526.28C221.37 526.28 220.56 526.16 219.17 525.93H219.05C217.43 525.7 215 525.58 212.68 525.58C211.17 525.7 209.55 525.93 208.16 526.28C202.95 527.79 199.59 521.42 200.75 520.03H200.76Z" fill="#FFDEB9"/>
<path d="M178.29 543.419C179.1 540.749 181.88 538.67 184.66 538.79C187.32 538.91 189.52 540.529 191.72 541.919C193.69 543.079 196 544.12 198.2 543.77C197.04 542.15 193.45 535.78 194.84 529.29C196.35 522 190.21 515.28 190.21 515.28C190.21 515.28 185.23 512.609 185.81 504.389C186.39 496.059 189.05 486.089 183.26 480.069L171.22 462.349C171.22 462.349 171.34 462.229 171.45 462.119C169.13 460.729 166.93 458.3 164.39 457.26C162.65 456.56 160.68 456.449 158.83 456.219C157.21 455.989 155.59 455.53 153.97 455.18C151.08 454.48 148.3 453.91 145.4 454.02C143.66 454.14 141.81 454.6 140.31 455.53C135.91 457.5 132.55 461.67 132.44 466.53C132.44 467.23 132.44 467.919 132.9 468.499C133.71 470.009 135.79 470.009 137.3 470.819C139.73 472.439 139.62 476.029 141.24 478.349C143.21 480.899 147.15 481.589 148.77 484.369C150.16 486.689 149.35 489.699 149.69 492.359C150.04 495.029 151.66 497.46 153.86 498.85C155.02 499.66 156.64 500.24 157.45 501.51C158.84 503.94 156.99 507.19 158.26 509.62C158.96 510.89 160.35 511.589 161.15 512.749C162.77 514.949 162.19 518.08 163.12 520.62C163.47 521.43 163.93 522.13 164.39 522.82C165.78 524.56 167.75 525.829 169.37 527.449C173.77 531.729 176.09 537.639 178.29 543.429V543.419Z" fill="black"/>
<path d="M248.23 541.45C247.77 542.61 247.19 543.54 246.38 544.23C224.73 553.15 198.44 544.23 198.44 544.23C198.44 544.23 198.32 544.11 198.21 543.77C196.01 544.11 193.69 543.07 191.73 541.92C189.53 540.53 187.33 538.91 184.67 538.79C181.89 538.67 179.11 540.76 178.3 543.42C178.18 544.11 178.3 544.92 178.65 545.39C179.92 546.9 181.54 547.94 183.4 548.86C189.88 551.99 196.95 553.72 204.01 555C216.29 557.43 229.02 558.71 241.41 556.85C243.38 556.5 245.35 556.16 247.2 555.23C248.94 554.3 250.56 552.8 251.14 550.83C251.37 550.02 251.49 549.09 251.49 548.28C251.49 547.58 251.37 547.01 251.37 546.31C251.14 544.69 250.67 542.95 249.75 541.56C249.52 540.98 249.17 540.52 248.59 540.29C248.59 540.63 248.36 541.1 248.24 541.45H248.23Z" fill="#F1922D"/>
<path d="M247.19 555.23C245.34 556.16 243.37 556.5 241.4 556.85C229.01 558.7 216.27 557.43 204 555C196.94 553.73 189.87 551.99 183.39 548.86C181.54 547.94 179.92 546.89 178.64 545.39C178.29 544.93 178.18 544.12 178.29 543.42C176.09 537.63 173.77 531.72 169.37 527.44C167.75 525.82 165.78 524.55 164.39 522.81C162.07 522.46 159.87 522.46 157.79 523.16C153.39 524.78 150.38 529.18 149.34 533.7C148.3 538.33 148.88 543.2 149.8 547.83C150.15 550.14 150.61 552.58 151.77 554.66C152.81 556.74 154.43 558.48 156.05 560.1C158.13 562.3 160.1 564.5 162.19 566.7C164.39 569.01 166.59 571.33 169.14 573.18C171.81 575.03 174.7 576.42 177.71 577.7C188.83 582.56 200.52 586.04 212.68 586.96C224.72 587.77 237.11 586.03 248 580.71C252.86 578.28 257.49 575.15 260.51 570.63C263.64 566.23 264.79 560.21 262.71 555.23C260.74 550.95 255.99 547.94 251.48 548.28C251.48 549.09 251.36 550.02 251.13 550.83C250.55 552.8 248.93 554.3 247.19 555.23Z" fill="#EB3000"/>
<path d="M287.72 420.21C278.69 408.98 273.94 395.54 274.05 382.23C274.05 380.61 274.17 378.99 274.28 377.25C274.63 373.08 275.32 368.8 276.25 364.51C272.54 366.6 266.75 369.03 261.31 368.56C260.96 368.68 260.61 368.79 260.27 368.91C255.52 370.53 252.74 373.66 252.74 373.66C252.74 373.66 252.74 373.78 252.86 374.12C253.56 378.52 259.23 412.33 252.4 431.9L250.89 435.84C256.57 448 253.9 456.68 249.73 462.48C251.7 462.6 253.78 462.02 255.29 460.86C256.45 460.05 257.38 459.01 258.53 458.31C260.85 457.04 263.63 457.38 266.17 457.61C268.72 457.84 271.73 457.73 273.47 455.87C274.16 455.18 274.63 454.37 275.44 453.79C276.83 452.75 278.91 452.98 280.54 453.44C281.12 453.67 281.7 453.79 282.28 454.02C282.74 454.25 283.32 454.37 283.67 454.72C295.25 451.48 303.01 446.85 306.95 444.3L306.37 443.6L287.73 420.21H287.72Z" fill="#EB3000"/>
<path d="M249.04 339.49C248.34 339.49 247.53 339.49 246.84 339.72C246.03 339.84 245.22 340.3 244.53 340.88C243.49 341.81 243.02 343.08 242.21 344.35C240.94 346.32 238.85 347.82 236.42 348.4C234.68 348.86 232.71 348.86 231.09 349.67C229.47 350.48 228.31 352.68 229.47 354.19C230.28 355.11 232.02 355.69 231.67 356.85H227.39C224.96 356.85 222.29 356.85 220.21 358.24C218.12 359.63 217.08 362.75 218.82 364.61C219.52 365.31 220.56 365.65 221.6 366C222.76 366.35 223.92 366.81 225.08 367.16C221.6 366.7 218.13 366.58 214.66 366.82C213.73 366.94 212.58 367.05 211.88 367.74C210.72 368.78 210.84 370.75 211.76 371.91C212.8 373.18 214.31 373.76 215.81 374.23C217.2 374.81 218.82 375.15 220.09 375.97C216.38 375.97 212.56 375.85 208.86 375.74C207.24 375.74 205.04 376.09 204.81 377.83C204.69 379.22 206.2 380.14 207.47 380.61C213.61 382.92 220.21 383.5 226.69 383.27C229.58 383.27 232.37 383.04 235.14 382.46C241.62 381.3 247.76 377.83 252.74 373.66C252.74 373.66 255.52 370.53 260.27 368.91C263.16 363.7 265.48 357.91 264.44 352C263.05 344.94 256.22 339.38 249.04 339.49Z" fill="#FFB6B6"/>
<path d="M285.24 327.22C281.77 329.89 278.06 332.08 274.12 333.82C269.72 331.15 265.67 327.45 260.57 327.57C258.37 327.69 256.17 328.5 254.09 329.31C253.8 329.43 253.49 329.47 253.19 329.57C251.67 330.68 250.14 331.81 249.16 333.25C247.89 335.22 246.96 337.42 246.84 339.73C247.54 339.5 248.35 339.5 249.04 339.5C256.22 339.38 263.05 344.94 264.44 352.01C265.48 357.92 263.17 363.71 260.27 368.92C260.62 368.8 260.97 368.69 261.31 368.57C266.75 369.03 272.54 366.6 276.25 364.52C278.45 353.98 282.39 343.56 287.37 334.99L288.76 332.79L291.65 332.09C293.04 331.63 294.43 331.28 295.93 330.82C292.59 329.22 288.99 328.38 285.48 327.27C285.41 327.26 285.29 327.25 285.22 327.23L285.24 327.22Z" fill="#F88933"/>
<path d="M122.73 516.97C126.49 523.9 136.08 521.21 136.08 514.34C136.08 506.64 126.14 503.92 122.78 496.76L122.73 496.66L122.68 496.76C119.32 503.92 109.38 506.65 109.38 514.34C109.38 521.21 118.97 523.89 122.73 516.97Z" fill="#EB3000"/>
<path d="M153.97 455.18C169.14 426.46 187.55 399.82 205.85 373.19C212.34 363.81 218.94 354.43 226.69 345.98C230.28 342.04 234.22 338.45 238.39 335.1C240.31 333.53 242.63 332.63 244.71 331.33C246.55 330.93 248.47 331.03 250.27 330.47C250.35 330.47 250.427 330.43 250.5 330.35C270.07 314.25 284.66 293.18 299.02 272.45C312.22 253.23 325.42 234.12 338.62 215.01C337.11 214.08 335.84 212.81 334.57 211.65C331.67 208.99 328.43 206.55 324.96 204.59C323.92 203.89 322.76 203.32 321.49 202.97C319.98 203.9 318.13 204.36 316.39 204.48C313.5 204.6 310.72 204.02 307.82 203.32C292.65 232.04 274.24 258.67 255.94 285.31C249.46 294.69 242.85 304.07 235.1 312.52C231.51 316.46 227.57 320.05 223.4 323.4C219.58 326.53 215.53 329.42 210.78 330.93C210.19 330.81 209.64 330.62 209.07 330.46C190.73 346.27 176.52 366.2 162.77 386.06C149.57 405.28 136.37 424.39 123.17 443.5C124.67 444.42 125.95 445.7 127.22 446.86C130.11 449.52 133.36 451.95 136.83 453.92C137.87 454.62 139.03 455.19 140.31 455.54C141.81 454.61 143.67 454.15 145.4 454.03C148.3 453.91 151.08 454.49 153.97 455.19V455.18Z" fill="#FBB03B"/>
<path d="M226.69 383.26C220.21 383.49 213.6 382.91 207.47 380.6C206.2 380.14 204.69 379.21 204.81 377.82C205.04 376.08 207.24 375.73 208.86 375.73C212.57 375.85 216.39 375.96 220.09 375.96C218.82 375.15 217.2 374.8 215.81 374.22C214.3 373.76 212.8 373.18 211.76 371.9C210.83 370.74 210.72 368.77 211.88 367.73C212.58 367.03 213.73 366.92 214.66 366.81C218.13 366.58 221.61 366.69 225.08 367.15C223.92 366.81 222.76 366.34 221.6 365.99C220.56 365.64 219.52 365.29 218.82 364.6C217.08 362.75 218.12 359.62 220.21 358.23C222.29 356.84 224.96 356.84 227.39 356.84H231.67C232.02 355.68 230.28 355.1 229.47 354.18C228.31 352.67 229.47 350.47 231.09 349.66C232.71 348.85 234.68 348.85 236.42 348.39C238.85 347.81 240.94 346.31 242.21 344.34C243.02 343.07 243.48 341.79 244.53 340.87C245.23 340.29 246.03 339.83 246.84 339.71C246.96 337.4 247.88 335.19 249.16 333.23C250.15 331.8 251.67 330.66 253.19 329.55C252.29 329.85 251.36 330.16 250.5 330.33C250.42 330.41 250.343 330.45 250.27 330.45C248.47 331.01 246.55 330.91 244.71 331.31C242.62 332.61 240.3 333.51 238.39 335.08C234.22 338.44 230.28 342.03 226.69 345.96C218.93 354.41 212.33 363.79 205.85 373.17C187.55 399.8 169.14 426.44 153.97 455.16C155.59 455.51 157.21 455.97 158.83 456.2C160.68 456.43 162.65 456.55 164.39 457.24C166.94 458.28 169.14 460.71 171.45 462.1C173.3 459.43 188.59 438.01 194.03 432.57C194.84 439.86 203.06 443.46 209.2 449.25C219.74 443.35 225.87 447.4 225.87 447.4C237.1 449.25 244.75 439.87 250.88 435.82L252.39 431.88C259.22 412.31 253.55 378.5 252.85 374.1C252.73 373.75 252.73 373.64 252.73 373.64C247.75 377.81 241.61 381.28 235.13 382.44C232.35 383.02 229.57 383.25 226.68 383.25L226.69 383.26ZM247.84 423.78C247.84 436.76 229.71 441.84 222.6 428.74C215.49 441.84 197.36 436.76 197.36 423.78C197.36 409.23 216.15 404.09 222.5 390.54L222.6 390.35L222.7 390.54C229.04 404.08 247.84 409.23 247.84 423.78Z" fill="#534741"/>
<path d="M222.71 390.54L222.61 390.35L222.51 390.54C216.16 404.08 197.37 409.23 197.37 423.78C197.37 436.76 215.5 441.84 222.61 428.74C229.72 441.84 247.85 436.76 247.85 423.78C247.85 409.23 229.06 404.09 222.71 390.54Z" fill="#EB3000"/>
<path d="M88.0801 501.15C87.6201 501.15 87.1601 501.27 86.8101 501.61C86.4601 501.84 86.23 502.19 86.23 502.65C86.11 502.77 86.1099 503 86.1099 503.11V528.01C86.1099 528.59 86.3401 529.05 86.8101 529.51C87.1601 529.74 87.6201 529.97 88.0801 529.97H93.9902C94.3402 529.97 94.7998 529.85 95.0298 529.62C95.6098 529.27 95.96 528.69 95.96 528.12V503.11C95.96 502.41 95.6098 501.84 95.0298 501.49C94.7998 501.26 94.3302 501.14 93.9902 501.14H88.0801V501.15Z" fill="#B3B3B3"/>
<path d="M319.69 489.21L319.5 488.84L319.31 489.21C307 515.47 270.56 525.44 270.56 553.66C270.56 578.84 305.71 588.68 319.5 563.28C333.29 588.68 368.43 578.84 368.43 553.66C368.43 525.45 331.99 515.47 319.68 489.21H319.69Z" fill="#EB3000"/>
<path d="M176.28 331.23C172.77 330.11 169.18 329.28 165.84 327.68C157.69 329.72 148.51 330.29 139.35 330.12C140.16 332.91 141.26 335.71 142.61 336.25C154.76 327.88 169.02 329.84 176.27 331.23H176.28Z" fill="#EB3000"/>
<path d="M209.07 330.45C208.52 330.29 207.93 330.17 207.42 330C206.72 330.47 206.03 330.81 205.34 331.16C204.76 331.51 204.07 331.74 203.49 331.97C197.24 334.63 189.94 334.86 183.22 333.59C180.89 333.19 178.76 332.02 176.51 331.31C175.61 331.88 174.8 332.45 174.01 333.13C171.23 335.44 168.69 337.99 166.14 340.54C157.34 349.46 148.77 358.61 141.71 368.8C137.31 375.17 133.6 382 129.78 388.72C126.65 394.4 123.41 399.95 120.05 405.51C119.7 405.97 119.47 406.55 119.12 407.13C116.36 411.58 113.33 415.87 110.3 420.14C109.39 421.42 108.6 422.8 107.66 424.06C107.77 424.4 107.78 424.74 107.78 425.08C107.78 425.54 107.66 425.89 107.43 426.24C107.08 426.47 106.62 426.47 106.16 426.47H105.93C105.58 427.05 105.12 427.51 104.77 427.97C104.94 428.18 105.14 428.35 105.31 428.56C106.1 428.85 106.87 429.2 107.43 429.82C107.96 430.31 108.11 431.06 108.25 431.78C109.91 433.64 111.48 435.56 113.34 437.35C115.08 438.97 116.93 440.59 119.13 441.63C120.29 442.21 121.68 442.56 122.84 443.25C122.96 443.37 123.07 443.37 123.19 443.48C136.39 424.37 149.59 405.26 162.79 386.04C176.54 366.19 190.74 346.25 209.09 330.44L209.07 330.45Z" fill="#DB782A"/>
<path d="M96.7598 426.46C98.3798 427.5 100.35 427.62 102.2 427.85C102.58 427.9 102.96 428.01 103.35 428.07C104.15 428.01 104.75 427.96 104.75 427.96C105.1 427.5 105.56 427.04 105.91 426.46H96.7598Z" fill="#754C24"/>
<path d="M142.62 336.25C142.62 336.25 135.67 338.8 127.91 343.66C122.47 347.13 116.68 351.65 112.51 357.21C112.16 357.67 111.81 358.14 111.58 358.6C111.93 358.83 112.39 359.18 112.74 359.41C113.2 359.76 113.67 360.11 113.9 360.57C114.6 361.61 114.48 363 114.25 364.16C113.55 368.56 112.63 373.31 109.27 376.09C106.96 377.83 104.06 378.52 101.4 379.68C99.4299 380.49 97.6898 381.65 96.0698 382.92C95.7298 383.15 95.3798 383.62 95.0298 383.96V387.43C95.8398 389.63 96.5298 391.95 96.5298 394.26C96.5298 396.57 95.9498 398.43 95.0298 400.4V407.35C96.4198 407.47 97.8102 407.81 99.2002 408.28C99.5502 408.4 99.9002 408.51 100.24 408.63C102.67 409.79 104.99 411.87 105.33 414.54C105.33 414.89 105.33 415.35 105.1 415.7C104.75 416.28 103.94 416.4 103.25 416.4H95.6099C96.6499 417.91 98.3902 418.72 100.24 419.29C101.05 419.52 101.74 419.75 102.55 419.99C104.75 420.57 107.07 421.96 107.65 424.04C108.58 422.79 109.38 421.42 110.29 420.14C113.33 415.87 116.35 411.58 119.11 407.13C119.46 406.55 119.69 405.97 120.04 405.51C123.4 399.95 126.64 394.39 129.77 388.72C133.59 382 137.3 375.17 141.7 368.8C148.77 358.61 157.33 349.46 166.13 340.54C168.68 337.99 171.23 335.44 174 333.13C174.8 332.45 175.6 331.88 176.5 331.31C176.42 331.29 176.35 331.26 176.28 331.23C169.03 329.85 154.77 327.88 142.62 336.25Z" fill="#EB3000"/>
<path d="M95.0298 387.43V323.74H86.8101V407.81C88.4301 407.58 89.9399 407.58 89.9399 407.58C91.5599 407.24 93.3 407.12 95.04 407.35V387.43H95.0298Z" fill="black"/>
<path d="M105.29 428.56C104.66 428.33 104.02 428.19 103.35 428.07C102.96 428.01 102.58 427.9 102.2 427.85C100.35 427.62 98.3796 427.51 96.7596 426.46H106.14C106.6 426.46 107.07 426.46 107.41 426.23C107.64 425.88 107.76 425.53 107.76 425.07C107.76 424.73 107.76 424.39 107.64 424.05V424.03C107.06 421.95 104.74 420.56 102.54 419.98C101.73 419.75 101.03 419.52 100.23 419.28C98.3798 418.7 96.64 417.89 95.6 416.39H103.24C103.94 416.39 104.74 416.27 105.09 415.69C105.32 415.34 105.32 414.88 105.32 414.53C104.97 411.86 102.66 409.78 100.23 408.62C99.8798 408.5 99.5298 408.39 99.1898 408.27C97.7998 407.81 96.4099 407.46 95.0199 407.34C93.2799 407.11 91.5498 407.23 89.9198 407.57C89.9198 407.57 88.4099 407.57 86.7899 407.8V380.7C84.1299 380.47 81.4598 380.47 78.9198 381.05C75.3298 381.75 71.8599 383.71 69.9999 386.96C69.5399 387.77 69.1898 388.58 68.9598 389.51C67.6898 393.68 68.73 398.54 69.89 402.94C71.63 410 72.5498 436.75 72.6698 437.45C73.2498 442.2 76.8401 446.14 81.2401 448.22C82.9801 449.03 84.9497 449.61 86.7997 449.84C89.4597 450.42 92.3599 450.54 95.0199 450.42H95.2499C97.4499 450.42 99.77 450.3 101.85 449.38C103.82 448.57 105.67 446.83 106.02 444.63C106.48 442.32 105.09 439.88 103.24 438.38C101.39 436.87 99.0699 436.06 96.7499 435.37C99.5299 435.25 102.31 435.14 104.97 435.14C105.78 435.14 106.59 435.02 107.29 434.68C108.29 434.11 108.44 432.94 108.22 431.77C108.09 431.05 107.93 430.3 107.4 429.81C106.83 429.19 106.07 428.84 105.28 428.55L105.29 428.56Z" fill="#FFA7A7"/>
<path d="M96.5298 394.27C96.5298 391.95 95.8398 389.639 95.0298 387.439V400.41C95.9598 398.44 96.5298 396.47 96.5298 394.27Z" fill="#FFA7A7"/>
<path d="M96.0698 382.92C97.6898 381.65 99.4299 380.49 101.4 379.68C104.06 378.52 106.96 377.83 109.27 376.09C112.63 373.31 113.55 368.56 114.25 364.16C114.48 363 114.6 361.61 113.9 360.57C113.67 360.11 113.2 359.76 112.74 359.41C112.4 359.18 111.93 358.83 111.58 358.6C106.48 354.89 101.04 351.53 95.02 350.96V383.96C95.37 383.61 95.7201 383.15 96.0601 382.92H96.0698Z" fill="#F79637"/>
<path d="M78.9303 381.07C81.4803 380.49 84.14 380.49 86.8 380.72V351.54C86.57 351.54 86.2204 351.66 85.9904 351.66C82.0504 352.47 78.1203 353.28 74.4103 354.67C72.3203 355.48 70.2403 356.52 68.3903 357.8C67.0003 358.73 65.73 359.77 64.57 361.04C63.18 362.55 62.1403 364.4 61.9103 366.37C61.6803 367.87 62.0303 369.5 62.3703 371C63.3003 374.47 64.68 377.95 64.8 381.54C64.92 383.28 64.68 385.13 65.38 386.75C66.08 388.14 67.3504 389.06 68.9704 389.53C69.2004 388.6 69.5499 387.79 70.0099 386.98C71.8599 383.74 75.3403 381.77 78.9303 381.07Z" fill="#F79637"/>
<path d="M374.99 156.88C374.64 157.22 374.18 157.34 373.72 157.34H367.82C367.47 157.34 367.01 157.22 366.78 157V212.97C369.44 212.85 372.34 212.97 375 213.55V156.89L374.99 156.88Z" fill="black"/>
<path d="M166.19 316.68C171.63 306.49 176.85 291.55 177.19 276.03C177.31 265.26 173.25 254.14 165.84 244.88L143.14 216.39C126.46 225.31 106.43 226.46 88.9502 219.86C91.5002 238.39 85.9402 257.61 73.4302 271.85L96.2402 300.45C103.65 309.71 113.49 316.08 124.15 318.4C139.67 321.64 155.65 319.67 166.18 316.66L166.19 316.68Z" fill="#FFBF49"/>
<path d="M123.35 328.84C128.44 329.77 133.9 330.02 139.36 330.13C148.52 330.3 157.7 329.72 165.85 327.69C167.35 327.23 168.74 326.88 170.13 326.42L173.03 325.73L174.42 323.53C179.4 314.96 183.34 304.54 185.54 294C186.46 289.72 187.16 285.43 187.51 281.26C187.63 279.52 187.74 277.9 187.74 276.28C187.86 262.96 183.11 249.53 174.07 238.3L155.43 214.91L154.85 214.21L145.59 202.51L141.65 205.06C124.4 216.06 101.93 216.41 84.4502 206.1C78.3102 204.48 76.1101 206.91 76.5801 212.47C82.7201 231.81 77.3898 253.58 62.7998 267.94L59.4399 271.18L87.9302 306.96C92.1802 312.31 97.2402 316.73 102.7 320.35C108.7 324.32 115.18 327.28 121.98 328.73C122.42 328.82 122.93 328.76 123.37 328.84H123.35ZM73.4399 271.87C85.9499 257.63 91.51 238.4 88.96 219.88C106.44 226.48 126.48 225.32 143.15 216.41L165.85 244.9C173.26 254.16 177.31 265.28 177.2 276.05C176.85 291.57 171.64 306.5 166.2 316.7C155.66 319.71 139.68 321.68 124.17 318.44C113.51 316.13 103.67 309.76 96.2598 300.49L73.4502 271.89L73.4399 271.87Z" fill="#DA751B"/>
<path d="M229.08 193.7V193.82L229.31 193.94C231.86 196.49 235.79 199.04 240.08 198.57C244.25 198.45 247.95 196.26 250.85 193.82C253.86 191.51 256.87 189.19 259.54 186.53C262.32 184.1 264.98 180.63 265.22 176.8C264.06 180.51 261.17 182.82 258.27 185.02L249.24 191.62C246.35 193.82 243.22 195.67 239.86 196.02C236.62 196.25 233.61 194.98 230.6 192.78C229.33 191.27 228.05 190.58 226.78 189.65L222.84 187.1L226.2 190.46C227.13 191.5 228.4 192.78 229.1 193.7H229.08Z" fill="black"/>
<path d="M226.07 170.54C224.91 172.97 226.07 176.33 229.78 176.79C233.49 177.14 236.38 173.55 234.53 170.54C229.67 172.05 226.08 170.54 226.08 170.54H226.07Z" fill="black"/>
<path d="M234.52 155.14C233.71 156.07 233.02 156.76 231.97 157.11C230.12 157.81 227.45 157.69 226.41 156.42C224.21 153.52 226.53 148.43 227.57 144.14L229.31 137.31C229.89 134.88 230.47 132.22 229.31 129.55C228.27 127 225.6 125.38 223.17 125.15C220.74 124.8 218.31 125.15 215.99 125.85C220.51 125.5 226.18 126.43 227.22 130.37C228.26 134.19 225.95 138.82 224.79 143.34C224.21 145.65 223.63 147.86 223.17 150.29C222.82 152.61 222.59 155.73 224.91 158.05C227.34 160.02 230.35 159.44 232.55 158.4C235.1 157.24 235.1 153.3 237.88 154.58C236.95 153.42 235.33 154.23 234.52 155.16V155.14Z" fill="black"/>
<path d="M257.45 126.07C256.87 124.22 255.36 122.36 253.28 121.67C251.19 120.75 249 120.97 246.91 121.44C242.97 122.6 239.5 124.8 237.18 128.04C240.89 126.65 244.24 124.91 247.72 124.22C251.08 123.06 254.32 123.52 257.45 126.07Z" fill="black"/>
<path d="M253.63 132.21C252.24 132.55 250.62 132.79 249.11 132.9C249.92 133.71 250.27 134.64 250.27 135.68C250.27 138.11 248.18 140.2 245.75 140.2C243.32 140.2 241.23 138.11 241.23 135.68C241.23 134.41 241.69 133.36 242.62 132.55C241.23 132.32 240.42 132.21 240.42 132.21C237.99 133.95 239.49 137.07 241.81 141.24C249.22 145.87 259.76 139.85 261.03 138.46C262.19 137.07 258.83 130.7 253.62 132.21H253.63Z" fill="#C7B299"/>
<path d="M245.75 140.2C248.18 140.2 250.27 138.11 250.27 135.68C250.27 134.64 249.92 133.71 249.11 132.9C246.79 132.9 244.36 132.78 242.74 132.55H242.62C241.69 133.36 241.23 134.4 241.23 135.68C241.23 138.11 243.31 140.2 245.75 140.2Z" fill="black"/>
<path d="M222.82 141.13C225.49 139.16 225.14 132.79 222.82 132.44C221.78 132.78 220.74 132.9 219.69 132.9C220.39 133.6 220.73 134.64 220.73 135.68C220.73 138.11 218.76 140.08 216.21 140.08C213.66 140.08 211.93 138.34 211.81 135.8V135.57C211.93 133.95 212.62 132.67 213.89 131.98C212.73 131.52 212.04 131.17 212.04 131.17C212.04 131.17 211.58 134.41 211.58 137.31V137.54C211.58 139.05 211.7 140.32 211.93 141.02C215.52 144.49 220.15 142.99 222.81 141.14L222.82 141.13Z" fill="#C7B299"/>
<path d="M211.82 135.8C211.94 138.35 213.79 140.08 216.22 140.08C218.65 140.08 220.74 138.11 220.74 135.68C220.74 134.64 220.39 133.59 219.7 132.9C217.5 132.9 215.3 132.44 213.91 131.98C212.64 132.67 211.94 133.95 211.83 135.57V135.8H211.82Z" fill="black"/>
<path d="M222.82 187.1C222.82 187.1 216.57 189.88 212.05 196.02C207.88 201.81 205.22 210.49 210.89 222.65C217.03 218.6 224.67 209.22 235.9 211.07C228.95 204.47 220.61 196.13 222.81 187.1H222.82Z" fill="white"/>
<path d="M181.25 205.05C182.87 205.51 184.96 205.74 186.34 204.7C187.15 204.12 187.61 203.31 188.31 202.61C190.05 200.76 193.06 200.64 195.6 200.87C198.15 201.1 200.93 201.45 203.24 200.17C204.4 199.47 205.33 198.43 206.48 197.62C207.99 196.46 210.07 195.88 212.04 196C216.56 189.86 222.81 187.08 222.81 187.08C222.81 187.08 215.4 181.52 214.36 177.24C213.43 173.07 211.46 172.49 209.84 167.74C212.15 173.06 219.45 172.84 222.81 171.68C226.17 170.64 224.55 167.16 227.91 165.66C231.15 164.27 233.35 166.59 235.9 170.52C238.45 174.46 247.36 173.88 252 171.22C256.05 168.79 254.78 164.85 254.43 163.93C254.32 164.16 253.51 165.09 250.38 167.06C245.05 170.53 239.38 164.75 237.64 161.39C236.02 157.91 230.92 159.88 230.92 159.88C230.92 159.88 229.07 161.5 226.4 160.46C223.74 158.37 222.12 162.54 220.84 165.55C219.45 168.56 215.51 168.45 213.66 167.64C211.92 166.94 209.84 167.64 209.84 167.64C209.84 167.41 209.72 167.18 209.61 166.83C207.87 161.27 210.53 146.1 211.92 141.01C211.69 140.31 211.57 139.04 211.57 137.53V137.3C211.57 134.41 212.03 131.16 212.03 131.16C212.03 131.16 211.45 123.4 213.19 118.19C212.61 117.96 212.26 117.49 212.03 116.92C211.22 116.8 210.41 116.92 209.6 117.15C207.98 117.5 206.36 118.77 206.01 120.39C205.89 121.2 206.01 122.01 205.78 122.82C205.32 124.44 203.58 125.37 202.88 126.87C201.26 130 204.5 133.82 203.69 137.29C203.34 139.26 201.61 140.65 200.8 142.5C199.87 144.59 200.22 147.02 199.18 149.1C198.02 151.07 195.82 152.34 194.78 154.42C193.04 158.13 195.71 162.76 193.97 166.35C192.7 169.02 189.34 170.52 188.99 173.41C188.87 174.45 189.22 175.61 188.64 176.54C188.06 177.46 186.9 177.58 185.97 178.04C183.77 179.2 183.19 182.09 183.42 184.64C183.54 185.45 183.54 186.49 182.96 187.07C182.61 187.53 182.15 187.65 181.69 187.88C178.56 189.04 175.9 191.35 174.74 194.36C173.7 197.49 174.39 201.19 177.06 203.16C177.41 203.39 177.75 203.62 178.1 203.74C178.45 204.09 179.03 204.2 179.49 204.44C180.07 204.67 180.65 204.79 181.23 205.02L181.25 205.05Z" fill="black"/>
<path d="M252.58 209.21C258.72 215 266.94 218.59 267.75 225.89C273.19 220.45 288.48 199.03 290.33 196.36C290.45 196.24 290.56 196.13 290.56 196.13L278.52 178.41C278.52 178.41 266.94 200.18 252.58 209.21Z" fill="white"/>
<path d="M235.91 211.07C235.91 211.07 242.05 215.12 252.59 209.22C266.95 200.19 278.53 178.42 278.53 178.42C272.74 172.4 275.4 162.44 275.98 154.1C276.56 145.88 271.58 143.22 271.58 143.22C271.58 143.22 265.44 136.5 266.95 129.21C268.34 122.73 264.75 116.36 263.59 114.74C263.47 114.39 263.36 114.28 263.36 114.28C263.36 114.28 237.07 105.36 215.42 114.28C214.61 114.98 214.03 115.9 213.57 117.06C213.45 117.41 213.22 117.87 213.22 118.22C211.48 123.43 212.06 131.19 212.06 131.19C212.06 131.19 212.76 131.54 213.91 132C215.3 132.46 217.5 132.92 219.7 132.92C220.74 132.92 221.78 132.8 222.83 132.46C225.15 132.8 225.5 139.18 222.83 141.15C220.17 143 215.54 144.51 211.95 141.03C210.56 146.12 207.9 161.3 209.64 166.85C209.76 167.2 209.87 167.43 209.87 167.66C209.87 167.66 211.95 166.96 213.69 167.66C215.54 168.47 219.48 168.59 220.87 165.57C222.14 162.56 223.76 158.39 226.43 160.48C229.1 161.52 230.95 159.9 230.95 159.9C230.95 159.9 236.05 157.93 237.67 161.41C239.41 164.77 245.08 170.56 250.41 167.08C253.54 165.11 254.35 164.19 254.46 163.95C254.81 164.88 256.08 168.81 252.03 171.24C247.4 173.9 238.48 174.48 235.93 170.54C233.38 166.6 231.18 164.29 227.94 165.68C224.58 167.19 226.2 170.66 222.84 171.7C219.48 172.86 212.19 173.09 209.87 167.76C211.49 172.51 213.46 173.08 214.39 177.26C215.43 181.54 222.84 187.1 222.84 187.1L226.78 189.65C228.05 190.57 229.33 191.27 230.6 192.78C233.61 194.98 236.62 196.25 239.86 196.02C243.22 195.67 246.35 193.82 249.24 191.62L258.27 185.02C261.16 182.82 264.06 180.5 265.22 176.8C264.99 180.62 262.32 184.1 259.54 186.53C256.88 189.19 253.87 191.51 250.85 193.82C247.96 196.25 244.25 198.45 240.08 198.57C235.8 199.03 231.86 196.49 229.31 193.94L229.08 193.82V193.7C228.38 192.78 227.11 191.5 226.18 190.46L222.82 187.1C220.62 196.13 228.96 204.47 235.91 211.07ZM229.77 176.79C226.06 176.33 224.91 172.97 226.06 170.54C226.06 170.54 229.65 172.05 234.51 170.54C236.36 173.55 233.47 177.14 229.76 176.79H229.77ZM246.91 121.44C249 120.98 251.19 120.75 253.28 121.67C255.36 122.37 256.87 124.22 257.45 126.07C254.32 123.52 251.08 123.06 247.72 124.22C244.25 124.91 240.89 126.65 237.18 128.04C239.49 124.8 242.97 122.6 246.91 121.44ZM232.55 158.38C230.35 159.42 227.34 160 224.91 158.03C222.59 155.72 222.82 152.59 223.17 150.27C223.63 147.84 224.21 145.64 224.79 143.32C225.95 138.8 228.26 134.17 227.22 130.35C226.18 126.41 220.5 125.49 215.99 125.83C218.3 125.13 220.74 124.79 223.17 125.13C225.6 125.36 228.27 126.98 229.31 129.53C230.47 132.2 229.89 134.86 229.31 137.29L227.57 144.12C226.53 148.4 224.21 153.5 226.41 156.4C227.45 157.67 230.12 157.79 231.97 157.09C233.01 156.75 233.71 156.05 234.52 155.12C235.33 154.19 236.95 153.38 237.88 154.54C235.1 153.27 235.1 157.2 232.55 158.36V158.38ZM261.04 138.46C259.77 139.85 249.23 145.87 241.82 141.24C239.5 137.07 238 133.95 240.43 132.21C240.43 132.21 241.24 132.33 242.63 132.55H242.75C244.37 132.78 246.8 132.9 249.12 132.9C250.63 132.78 252.25 132.55 253.64 132.21C258.85 130.7 262.21 137.07 261.05 138.46H261.04Z" fill="#FFDEB9"/>
<path d="M283.5 115.07C282.69 117.73 279.91 119.82 277.13 119.7C274.47 119.58 272.27 117.96 270.07 116.57C268.1 115.41 265.79 114.37 263.58 114.72C264.74 116.34 268.33 122.71 266.94 129.19C265.44 136.49 271.57 143.2 271.57 143.2C271.57 143.2 276.55 145.86 275.97 154.08C275.39 162.42 272.73 172.38 278.52 178.4L290.56 196.12C290.56 196.12 290.45 196.24 290.33 196.35C292.64 197.74 294.85 200.17 297.39 201.21C299.13 201.9 301.1 202.02 302.95 202.25C304.57 202.48 306.19 202.95 307.81 203.29C310.71 203.99 313.49 204.56 316.38 204.45C318.12 204.33 319.97 203.87 321.48 202.94C325.88 200.97 329.24 196.8 329.35 191.94C329.35 191.24 329.35 190.55 328.89 189.97C328.08 188.47 326 188.47 324.49 187.66C322.06 186.04 322.18 182.45 320.55 180.13C318.58 177.58 314.65 176.89 313.02 174.11C311.63 171.8 312.44 168.78 312.09 166.12C311.74 163.46 310.12 161.02 307.92 159.64C306.76 158.83 305.14 158.25 304.33 156.98C302.94 154.55 304.79 151.3 303.52 148.87C302.82 147.6 301.44 146.9 300.63 145.74C299.01 143.54 299.59 140.42 298.66 137.87C298.32 137.06 297.85 136.37 297.39 135.67C296 133.93 294.03 132.66 292.41 131.04C288.01 126.76 285.69 120.85 283.49 115.06L283.5 115.07Z" fill="black"/>
<path d="M213.56 117.04C214.02 115.88 214.6 114.96 215.41 114.26C237.07 105.34 263.35 114.26 263.35 114.26C263.35 114.26 263.47 114.38 263.58 114.72C265.78 114.37 268.1 115.42 270.07 116.57C272.27 117.96 274.47 119.58 277.13 119.7C279.91 119.82 282.69 117.73 283.5 115.07C283.62 114.37 283.5 113.56 283.15 113.1C281.88 111.6 280.26 110.55 278.4 109.63C271.91 106.5 264.85 104.77 257.79 103.49C245.51 101.06 232.78 99.78 220.39 101.64C218.42 101.99 216.45 102.34 214.6 103.26C212.86 104.19 211.24 105.69 210.66 107.66C210.43 108.47 210.31 109.4 210.31 110.21C210.31 110.91 210.43 111.48 210.43 112.18C210.66 113.8 211.13 115.54 212.05 116.93C212.28 117.51 212.63 117.97 213.21 118.2C213.21 117.85 213.44 117.39 213.56 117.04Z" fill="#F1922D"/>
<path d="M214.6 103.26C216.45 102.33 218.42 101.99 220.39 101.64C232.78 99.7902 245.52 101.06 257.79 103.49C264.85 104.76 271.92 106.5 278.4 109.63C280.25 110.56 281.87 111.6 283.15 113.1C283.5 113.56 283.61 114.37 283.5 115.07C285.7 120.86 288.02 126.77 292.42 131.05C294.04 132.67 296.01 133.94 297.4 135.68C299.71 136.03 301.92 136.03 304 135.33C308.4 133.71 311.41 129.31 312.45 124.79C313.49 120.16 312.91 115.3 311.99 110.66C311.64 108.35 311.18 105.91 310.02 103.83C308.98 101.74 307.35 100.01 305.74 98.3902C303.65 96.1902 301.69 93.9902 299.6 91.7902C297.4 89.4702 295.2 87.1602 292.65 85.3002C289.99 83.4502 287.09 82.0602 284.08 80.7802C272.96 75.9202 261.27 72.4402 249.11 71.5202C237.07 70.7102 224.68 72.4402 213.79 77.7702C208.93 80.2002 204.29 83.3302 201.28 87.8502C198.15 92.2502 197 98.2702 199.08 103.25C201.05 107.53 205.8 110.54 210.31 110.2C210.31 109.39 210.43 108.46 210.66 107.65C211.24 105.68 212.86 104.18 214.6 103.25V103.26Z" fill="#EB3000"/>
<path d="M174.07 238.28C183.1 249.52 187.85 262.95 187.74 276.26C187.74 277.88 187.62 279.5 187.51 281.24C187.16 285.41 186.47 289.69 185.54 293.98C189.25 291.9 195.03 289.47 200.48 289.93C200.83 289.81 201.18 289.7 201.52 289.58C206.27 287.96 209.05 284.83 209.05 284.83C209.05 284.83 209.05 284.71 208.93 284.37C208.23 279.97 202.56 246.15 209.39 226.58L210.89 222.64C205.22 210.48 207.88 201.8 212.05 196.01C210.08 195.89 208 196.47 206.49 197.63C205.33 198.44 204.41 199.48 203.25 200.18C200.94 201.45 198.15 201.11 195.61 200.88C193.06 200.65 190.05 200.76 188.32 202.62C187.62 203.32 187.16 204.13 186.35 204.71C184.96 205.75 182.88 205.52 181.26 205.06C180.68 204.83 180.1 204.71 179.52 204.48C179.06 204.25 178.48 204.13 178.13 203.78C166.55 207.02 158.79 211.65 154.85 214.2L155.43 214.9L174.07 238.29V238.28Z" fill="#EB3000"/>
<path d="M212.75 318.99C213.45 318.99 214.25 318.99 214.95 318.76C215.76 318.64 216.57 318.18 217.27 317.6C218.31 316.67 218.77 315.4 219.58 314.12C220.85 312.15 222.94 310.65 225.37 310.07C227.11 309.61 229.08 309.611 230.69 308.801C232.31 307.991 233.47 305.791 232.31 304.281C231.5 303.351 229.76 302.77 230.11 301.62H234.39C236.82 301.62 239.49 301.62 241.57 300.23C243.65 298.84 244.7 295.71 242.96 293.86C242.26 293.17 241.22 292.82 240.18 292.47C239.02 292.12 237.87 291.661 236.71 291.311C240.18 291.771 243.66 291.891 247.13 291.661C248.06 291.541 249.22 291.43 249.91 290.73C251.07 289.69 250.95 287.721 250.02 286.561C248.98 285.291 247.47 284.71 245.97 284.25C244.58 283.67 242.96 283.32 241.69 282.51C245.4 282.51 249.22 282.63 252.92 282.74C254.54 282.74 256.74 282.391 256.97 280.661C257.09 279.271 255.58 278.34 254.31 277.88C248.17 275.57 241.57 274.99 235.08 275.22C232.19 275.22 229.41 275.451 226.63 276.031C220.15 277.191 214.01 280.66 209.03 284.83C209.03 284.83 206.25 287.96 201.5 289.58C198.6 294.79 196.29 300.58 197.33 306.48C198.72 313.55 205.55 319.1 212.73 318.99H212.75Z" fill="#FFB6B6"/>
<path d="M212.63 325.25C213.9 323.28 214.83 321.08 214.94 318.76C214.24 318.99 213.44 318.99 212.74 318.99C205.56 319.11 198.73 313.55 197.34 306.48C196.3 300.58 198.61 294.78 201.51 289.58C201.16 289.7 200.81 289.81 200.47 289.93C195.03 289.47 189.24 291.9 185.53 293.98C183.33 304.52 179.39 314.94 174.41 323.51L173.02 325.71L170.12 326.4C168.73 326.86 167.34 327.21 165.84 327.67C169.18 329.27 172.77 330.1 176.28 331.22C176.35 331.24 176.42 331.27 176.5 331.3C178.76 332.01 180.89 333.18 183.21 333.58C189.93 334.85 197.22 334.62 203.48 331.96C204.06 331.73 204.75 331.5 205.33 331.15C206.02 330.8 206.72 330.46 207.41 329.99C209.5 328.72 211.35 327.1 212.62 325.24L212.63 325.25Z" fill="#F88933"/>
<path d="M339.06 141.52C335.3 134.59 325.71 137.28 325.71 144.14C325.71 151.84 335.65 154.56 339.01 161.73L339.06 161.83L339.11 161.73C342.47 154.57 352.41 151.85 352.41 144.14C352.41 137.27 342.82 134.59 339.06 141.52Z" fill="#EB3000"/>
<path d="M297.4 201.23C294.85 200.19 292.65 197.75 290.34 196.37C288.49 199.03 273.2 220.46 267.76 225.9C266.95 218.61 258.73 215.02 252.59 209.22C242.05 215.13 235.91 211.07 235.91 211.07C224.68 209.22 217.04 218.6 210.9 222.65L209.4 226.59C202.57 246.16 208.24 279.98 208.94 284.38C209.06 284.73 209.06 284.84 209.06 284.84C214.04 280.67 220.18 277.2 226.66 276.04C229.44 275.46 232.22 275.23 235.11 275.23C241.6 275 248.2 275.58 254.34 277.89C255.61 278.35 257.12 279.28 257 280.67C256.77 282.41 254.57 282.75 252.95 282.75C249.24 282.63 245.42 282.52 241.72 282.52C242.99 283.33 244.61 283.68 246 284.26C247.5 284.72 249.01 285.3 250.05 286.57C250.98 287.73 251.09 289.7 249.94 290.74C249.24 291.44 248.09 291.55 247.16 291.67C243.69 291.9 240.21 291.79 236.74 291.32C237.9 291.67 239.05 292.13 240.21 292.48C241.25 292.83 242.29 293.18 242.99 293.87C244.73 295.72 243.69 298.85 241.6 300.24C239.51 301.63 236.85 301.63 234.42 301.63H230.14C229.79 302.79 231.53 303.37 232.34 304.29C233.5 305.8 232.34 308 230.72 308.81C229.1 309.62 227.13 309.62 225.4 310.08C222.97 310.66 220.88 312.16 219.61 314.13C218.8 315.4 218.34 316.68 217.3 317.61C216.6 318.19 215.79 318.65 214.98 318.77C214.86 321.09 213.94 323.29 212.67 325.26C211.4 327.11 209.54 328.73 207.46 330.01C207.97 330.18 208.56 330.31 209.11 330.46C209.68 330.62 210.23 330.81 210.82 330.93C215.57 329.43 219.62 326.53 223.44 323.4C227.61 320.04 231.55 316.45 235.14 312.52C242.9 304.07 249.5 294.69 255.98 285.31C274.28 258.67 292.69 232.04 307.86 203.32C306.24 202.97 304.62 202.51 303 202.28C301.15 202.05 299.18 201.93 297.44 201.24L297.4 201.23ZM239.28 267.95L239.18 268.14L239.08 267.95C232.73 254.41 213.94 249.26 213.94 234.71C213.94 221.73 232.06 216.65 239.17 229.75C246.28 216.65 264.41 221.73 264.41 234.71C264.41 249.26 245.62 254.4 239.27 267.95H239.28Z" fill="#534741"/>
<path d="M239.18 229.75C232.07 216.65 213.95 221.73 213.95 234.71C213.95 249.26 232.74 254.4 239.09 267.95L239.19 268.14L239.29 267.95C245.63 254.41 264.43 249.26 264.43 234.71C264.43 221.73 246.31 216.65 239.19 229.75H239.18Z" fill="#EB3000"/>
<path d="M359.47 131.98C352.06 131.98 346.04 125.96 346.04 118.55C346.04 113.34 348.93 108.94 353.1 106.62C352.29 103.61 351.83 100.37 351.83 97.0101C351.83 90.7601 353.45 84.8501 356.23 79.6401C333.77 92.0301 318.6 115.89 318.6 143.21C318.6 170.53 333.77 194.28 356.12 206.78C353.57 201.8 352.18 196.13 352.18 190.22C352.18 186.28 352.76 182.46 353.92 178.87C350.56 176.44 348.36 172.39 348.36 167.87C348.36 160.46 354.38 154.44 361.91 154.44C363.3 154.44 364.69 154.67 365.85 155.02V130.35C364 131.39 361.8 131.97 359.48 131.97L359.47 131.98ZM339.11 161.73L339.06 161.83L339.01 161.73C335.65 154.57 325.71 151.85 325.71 144.14C325.71 137.27 335.3 134.59 339.06 141.52C342.82 134.59 352.41 137.28 352.41 144.14C352.41 151.84 342.46 154.56 339.11 161.73Z" fill="#BACBE4"/>
<path d="M375.57 155.83C376.15 155.6 376.84 155.37 377.42 155.13C381.24 158.84 385.87 161.61 390.97 163.35C390.04 160.11 389.23 156.75 388.77 153.27C388.31 149.91 388.07 146.55 388.07 143.2C388.07 140.07 388.3 136.95 388.65 133.93C389.11 130.22 389.92 126.52 390.97 123.05V122.93C385.53 124.78 380.66 127.91 376.73 131.85C376.38 131.73 376.03 131.62 375.69 131.39V155.36C375.69 155.48 375.69 155.71 375.57 155.82V155.83Z" fill="#BACBE4"/>
<path d="M373.71 128.5C374.17 128.5 374.64 128.73 374.98 128.96V114.37H381.58L376.25 94.8L370.81 75.23L365.48 94.8L360.04 114.37H366.76V128.85C366.99 128.62 367.45 128.5 367.8 128.5H373.7H373.71Z" fill="black"/>
<path d="M373.71 157.34C374.17 157.34 374.64 157.22 374.98 156.88C375.32 156.65 375.56 156.3 375.56 155.84C375.68 155.72 375.68 155.49 375.68 155.38V130.48C375.68 129.9 375.45 129.44 374.98 128.97C374.63 128.74 374.17 128.51 373.71 128.51H367.81C367.46 128.51 367 128.63 366.77 128.86C366.19 129.2 365.84 129.78 365.84 130.36V155.37C365.84 156.07 366.19 156.64 366.77 156.99C367 157.22 367.46 157.33 367.81 157.33H373.71V157.34Z" fill="#B3B3B3"/>
<path d="M142.1 169.28L142.29 169.65L142.48 169.28C154.78 143.02 191.23 133.05 191.23 104.83C191.23 79.6498 156.08 69.8098 142.29 95.2098C128.51 69.8098 93.3599 79.6498 93.3599 104.83C93.3599 133.04 129.8 143.02 142.11 169.28H142.1Z" fill="#EB3000"/>
<path d="M250.5 330.35C251.37 330.18 252.29 329.87 253.19 329.57C253.49 329.47 253.8 329.43 254.09 329.31C256.17 328.5 258.37 327.69 260.57 327.57C265.67 327.45 269.72 331.16 274.12 333.82C278.06 332.08 281.76 329.88 285.24 327.22C286.17 326.64 286.98 326.06 287.79 325.37C290.57 323.05 293.12 320.51 295.66 317.96C304.46 309.04 313.03 299.89 320.09 289.7C324.49 283.33 328.2 276.5 332.02 269.78C335.15 264.1 338.39 258.55 341.75 252.99C342.1 252.53 342.33 251.95 342.68 251.37C345.44 246.91 348.46 242.63 351.5 238.36C352.41 237.08 353.2 235.7 354.14 234.44C354.03 234.1 354.03 233.76 354.03 233.42C354.03 232.96 354.15 232.61 354.38 232.26C354.73 232.03 355.19 232.03 355.65 232.03H355.88C356.23 231.45 356.69 230.99 357.04 230.52C356.87 230.31 356.67 230.14 356.5 229.93C355.7 229.64 354.94 229.29 354.38 228.67C353.85 228.18 353.69 227.43 353.56 226.71C351.9 224.85 350.33 222.93 348.47 221.14C346.73 219.52 344.88 217.9 342.68 216.86C341.52 216.28 340.13 215.93 338.97 215.24C338.85 215.12 338.74 215.12 338.62 215.01C325.42 234.12 312.22 253.23 299.02 272.45C284.66 293.18 270.07 314.25 250.5 330.35Z" fill="#DB782A"/>
<path d="M365.03 232.03C363.41 230.99 361.44 230.87 359.59 230.64C359.22 230.59 358.83 230.48 358.45 230.42C357.65 230.48 357.05 230.53 357.05 230.53C356.7 230.99 356.24 231.46 355.89 232.04H365.04L365.03 232.03Z" fill="#754C24"/>
<path d="M319.17 322.24C319.17 322.24 326.12 319.69 333.88 314.83C339.32 311.36 345.11 306.84 349.28 301.28C349.63 300.82 349.98 300.35 350.21 299.89C349.86 299.66 349.4 299.31 349.05 299.08C348.59 298.73 348.12 298.38 347.89 297.92C347.19 296.88 347.31 295.49 347.55 294.33C348.24 289.93 349.17 285.18 352.53 282.4C354.85 280.66 357.74 279.97 360.4 278.81C362.37 278 364.11 276.84 365.73 275.57C366.08 275.34 366.43 274.87 366.77 274.53V271.06C365.96 268.86 365.26 266.54 365.26 264.23C365.26 261.92 365.84 260.06 366.77 258.09V251.14C365.38 251.02 363.99 250.68 362.6 250.21C362.25 250.09 361.9 249.98 361.56 249.86C359.13 248.7 356.81 246.62 356.46 243.96C356.46 243.61 356.46 243.15 356.69 242.8C357.04 242.22 357.85 242.1 358.54 242.1H366.18C365.14 240.6 363.4 239.79 361.55 239.21C360.74 238.98 360.04 238.75 359.24 238.51C357.04 237.93 354.72 236.54 354.14 234.46C353.2 235.71 352.41 237.08 351.49 238.36C348.45 242.62 345.43 246.91 342.67 251.37C342.32 251.95 342.09 252.53 341.74 252.99C338.38 258.55 335.14 264.11 332.01 269.78C328.19 276.5 324.48 283.33 320.08 289.7C313.02 299.89 304.45 309.04 295.65 317.96C293.1 320.51 290.55 323.05 287.78 325.37C286.97 326.07 286.16 326.64 285.23 327.22C285.3 327.23 285.42 327.24 285.49 327.26C292.74 328.65 307.01 330.61 319.17 322.24Z" fill="#EB3000"/>
<path d="M366.76 271.05V334.74H374.98V250.67C373.36 250.9 371.85 250.9 371.85 250.9C370.23 251.25 368.49 251.36 366.76 251.13V271.05Z" fill="black"/>
<path d="M356.5 229.93C357.13 230.16 357.77 230.3 358.44 230.41C358.83 230.47 359.21 230.59 359.58 230.63C361.43 230.86 363.4 230.98 365.02 232.02H355.64C355.18 232.02 354.71 232.02 354.37 232.25C354.14 232.6 354.02 232.95 354.02 233.41C354.02 233.75 354.02 234.09 354.13 234.43C354.13 234.43 354.13 234.44 354.13 234.45C354.71 236.54 357.02 237.92 359.23 238.5C360.04 238.73 360.73 238.96 361.54 239.2C363.39 239.78 365.13 240.59 366.17 242.09H358.53C357.83 242.09 357.02 242.21 356.68 242.79C356.45 243.14 356.45 243.6 356.45 243.95C356.8 246.61 359.12 248.7 361.55 249.85C361.9 249.97 362.25 250.08 362.59 250.2C363.98 250.66 365.37 251.01 366.76 251.13C368.5 251.36 370.23 251.25 371.85 250.9C371.85 250.9 373.36 250.9 374.98 250.67V277.77C377.64 278 380.3 278 382.85 277.42C386.44 276.72 389.91 274.75 391.77 271.51C392.23 270.7 392.58 269.89 392.81 268.96C394.08 264.79 393.04 259.93 391.88 255.53C390.14 248.47 389.33 226.62 389.22 225.92C388.64 221.17 385.05 217.23 380.65 215.15C378.91 214.34 376.94 213.76 375.09 213.53C372.42 212.95 369.53 212.83 366.87 212.95H366.64C364.44 212.95 362.12 213.07 360.04 213.99C358.07 214.8 356.22 216.54 355.87 218.74C355.41 221.06 357.92 221.6 357.92 221.6C361.14 221.79 365.25 221.6 365.01 223.11C362.23 223.23 359.45 223.34 356.79 223.34C355.98 223.34 355.17 223.46 354.48 223.8C353.48 224.37 353.33 225.54 353.54 226.71C353.67 227.43 353.83 228.18 354.36 228.67C354.92 229.29 355.69 229.64 356.48 229.93H356.5Z" fill="#FFA7A7"/>
<path d="M365.26 264.22C365.26 266.53 365.96 268.85 366.77 271.05V258.08C365.84 260.05 365.26 262.02 365.26 264.22Z" fill="#FFA7A7"/>
<path d="M365.72 275.57C364.1 276.84 362.36 278 360.39 278.81C357.73 279.97 354.83 280.66 352.52 282.4C349.16 285.18 348.24 289.93 347.54 294.33C347.31 295.49 347.19 296.88 347.88 297.92C348.11 298.38 348.58 298.73 349.04 299.08C349.39 299.31 349.85 299.66 350.2 299.89C355.3 303.6 360.74 306.95 366.76 307.53V274.53C366.41 274.88 366.06 275.34 365.72 275.57Z" fill="#F79637"/>
<path d="M382.86 277.42C380.31 278 377.65 278 374.99 277.77V306.95C375.22 306.95 375.57 306.83 375.8 306.83C379.73 306.02 383.67 305.21 387.38 303.82C389.46 303.01 391.55 301.97 393.4 300.69C394.79 299.76 396.07 298.72 397.22 297.45C398.61 295.94 399.65 294.09 399.88 292.12C400.11 290.61 399.77 288.99 399.42 287.49C398.49 284.02 397.1 280.54 396.99 276.95C396.87 275.21 397.11 273.36 396.41 271.74C395.71 270.35 394.44 269.43 392.82 268.96C392.59 269.88 392.24 270.7 391.78 271.51C389.93 274.75 386.45 276.72 382.86 277.42Z" fill="#F79637"/>
<path d="M375.8 306.84C375.57 306.84 375.22 306.96 374.99 306.96V334.75H366.77V307.54C360.75 306.96 355.31 303.6 350.21 299.9C349.98 300.36 349.63 300.83 349.28 301.29C345.11 306.85 339.32 311.36 333.88 314.84C333.42 319.82 335.5 324.92 338.16 329.32C338.23 329.45 338.36 329.54 338.44 329.67C339.31 331.16 340.25 332.65 341.64 333.72C343.95 335.69 347.08 336.38 350.09 336.96C353.04 337.56 356.11 337.67 359.11 338.16C363.04 338.8 366.93 339.74 370.93 339.74C373.59 339.74 376.37 339.51 378.8 338.47C380.65 337.77 382.39 336.62 383.89 335.34C389.1 330.94 392.81 324.8 394.2 318.2C395.47 312.52 395.24 306.39 393.39 300.71C391.54 301.98 389.45 303.02 387.37 303.84C383.66 305.23 379.72 306.04 375.79 306.85L375.8 306.84Z" fill="#EB3000"/>
<path d="M342.78 230.9C337.16 238.8 334.13 247.85 330.15 256.65C326.34 265.58 321.71 274.19 316.45 282.41C304.78 297.94 291.31 312.56 274.5 322.34C288.75 309.36 302.4 295.93 312.54 279.73C318.09 272.03 323.07 263.89 327.3 255.33C331.37 246.74 335.7 237.64 342.79 230.9H342.78Z" fill="#534741"/>
<path d="M318.73 215.01C311.77 224.4 308.03 235.17 303.1 245.64C298.38 256.26 292.66 266.5 286.14 276.27C271.7 294.74 255.02 312.13 234.22 323.75C251.86 308.31 268.75 292.34 281.3 273.08C288.17 263.92 294.33 254.24 299.56 244.06C304.6 233.85 309.96 223.03 318.73 215.01Z" fill="#534741"/>
<path d="M119.22 429.63C124.84 421.73 127.87 412.68 131.85 403.88C135.66 394.95 140.29 386.34 145.55 378.12C157.22 362.59 170.69 347.969 187.5 338.189C173.25 351.169 159.6 364.6 149.46 380.8C143.91 388.5 138.93 396.639 134.7 405.199C130.63 413.789 126.3 422.89 119.21 429.63H119.22Z" fill="#534741"/>
<path d="M143.27 445.52C150.23 436.13 153.97 425.36 158.9 414.89C163.62 404.27 169.34 394.03 175.86 384.26C190.3 365.79 206.98 348.4 227.78 336.78C210.14 352.22 193.25 368.19 180.7 387.45C173.83 396.61 167.67 406.29 162.44 416.47C157.4 426.68 152.04 437.5 143.27 445.52Z" fill="#534741"/>
<path d="M123.63 329.19C123.55 329.06 123.43 328.97 123.35 328.84C116.24 323.96 102.68 320.34 102.68 320.34C98.7504 319.7 94.86 318.76 90.86 318.76C88.19 318.76 85.4204 318.99 82.9904 320.03C81.1404 320.73 79.4003 321.88 77.8903 323.16C72.6803 327.56 68.9703 333.7 67.5803 340.3C66.3103 345.98 66.5403 352.11 68.3903 357.79C70.2403 356.52 72.3303 355.47 74.4103 354.66C78.1203 353.27 82.0504 352.46 85.9904 351.65C86.2204 351.65 86.57 351.53 86.8 351.53V323.74H95.0202V350.96C101.04 351.54 106.48 354.89 111.58 358.6C111.81 358.14 112.16 357.67 112.51 357.21C116.68 351.65 122.47 347.13 127.91 343.66C128.37 338.68 126.29 333.59 123.63 329.19Z" fill="#EB3000"/>
<defs>
<linearGradient id="paint0_linear_145_1764" x1="380.22" y1="-103.54" x2="109.73" y2="690.32" gradientUnits="userSpaceOnUse">
<stop stop-color="#E1E1E1"/>
<stop offset="0.12" stop-color="#ECECEC"/>
<stop offset="0.32" stop-color="#FAFAFA"/>
<stop offset="0.49" stop-color="white"/>
<stop offset="0.7" stop-color="#FBFBFB"/>
<stop offset="0.85" stop-color="#F2F2F2"/>
<stop offset="0.99" stop-color="#E2E2E2"/>
<stop offset="1" stop-color="#E1E1E1"/>
</linearGradient>
</defs>
</svg>
