<svg width="470" height="650" viewBox="0 0 470 650" fill="none" xmlns="http://www.w3.org/2000/svg">
<path d="M439.97 0.609863H30.0898C14.0198 0.609863 0.990234 12.6699 0.990234 27.5399V622.38C0.990234 637.25 14.0198 649.31 30.0898 649.31H439.97C456.04 649.31 469.07 637.25 469.07 622.38V27.5399C469.07 12.6699 456.04 0.609863 439.97 0.609863Z" fill="url(#paint0_linear_145_2457)"/>
<path d="M57.8301 123.3C51.2701 111.22 34.5601 115.9 34.5601 127.88C34.5601 141.3 51.8902 146.04 57.7402 158.53L57.8301 158.71L57.9199 158.53C63.7699 146.04 81.1099 141.3 81.1099 127.88C81.1099 115.9 64.3901 111.22 57.8301 123.3Z" fill="#EB3000"/>
<path d="M414.04 528.53C420.6 540.61 437.31 535.93 437.31 523.95C437.31 510.53 419.98 505.79 414.13 493.3L414.04 493.12L413.95 493.3C408.1 505.79 390.76 510.53 390.76 523.95C390.76 535.93 407.48 540.61 414.04 528.53Z" fill="#EB3000"/>
<path d="M85.96 98.1099C85.9 101.04 85.49 103.12 84.73 104.3C83.28 106.58 81.3301 106.23 79.8301 104.35C79.2001 103.57 78.1801 101.58 76.8501 96.5499C76.3201 94.6199 75.8499 93.0598 75.3999 91.8398C80.1699 87.7498 83.7398 83.2098 86.0098 78.3198C88.3798 73.2398 89.5801 67.3899 89.5801 60.9099C89.5801 53.8199 88.0498 47.3198 85.0298 41.5898C81.9998 35.8398 77.9101 31.3499 72.8701 28.2699C67.8201 25.1799 62.1701 23.6099 56.0601 23.6099C46.9401 23.6099 39.1898 27.0098 33.0498 33.6998C26.3298 41.0298 22.9199 49.9898 22.9199 60.3298C22.9199 67.5998 24.4199 74.2199 27.3999 80.0199C30.3799 85.8399 34.4798 90.3699 39.5698 93.4899C44.6698 96.6099 50.3001 98.1898 56.3101 98.1898C57.8301 98.1898 59.4401 98.0799 61.1201 97.8499C62.4301 97.6699 63.7899 97.4299 65.1899 97.1099C65.9099 104.1 67.2598 108.79 69.3198 111.42C71.5398 114.26 74.47 115.7 78.02 115.7C81.81 115.7 84.93 114.22 87.29 111.3C89.6 108.45 90.7898 104.02 90.8198 98.1299V97.1199H86L85.98 98.1099H85.96ZM61.0698 92.1099C57.5398 93.1099 53.2498 93.0299 49.5898 91.4899C47.5398 89.0999 46.5 86.5499 46.5 83.9199C46.5 81.2899 47.33 79.0198 49.04 77.3198C50.75 75.6098 52.8898 74.7799 55.5898 74.7799C58.9298 74.7799 61.3502 76.2199 62.9702 79.1699C64.2502 81.4699 64.9498 85.2599 65.0498 90.4299C63.7898 91.1499 62.4598 91.7099 61.0698 92.1099ZM71.9902 82.4799C70.3502 78.3499 68.62 75.4099 66.73 73.5299C63.78 70.6199 60.08 69.1499 55.73 69.1499C51.38 69.1499 47.8702 70.5098 45.1802 73.2098C42.6402 75.7698 41.2899 79.0099 41.1499 82.8799C39.9699 80.4099 39.0299 77.8398 38.3599 75.1998C37.3499 71.2498 36.8301 66.4299 36.8301 60.8799C36.8301 53.0199 37.6901 46.7398 39.3901 42.2098C41.0601 37.7498 43.3798 34.4499 46.2998 32.3699C49.2098 30.2999 52.5502 29.2599 56.2202 29.2599C59.8902 29.2599 63.3501 30.3099 66.3101 32.3799C69.2701 34.4499 71.61 37.7299 73.25 42.1199C74.93 46.5899 75.7798 52.7899 75.7798 60.5599C75.7798 66.0899 75.3901 70.7499 74.6201 74.3999C74.0201 77.2499 73.1402 79.9599 71.9902 82.4999V82.4799Z" fill="#EB3000"/>
<path d="M383.85 552.189C383.91 549.259 384.32 547.18 385.08 546C386.53 543.72 388.48 544.069 389.98 545.949C390.61 546.729 391.63 548.72 392.96 553.75C393.49 555.68 393.96 557.239 394.41 558.459C389.64 562.549 386.07 567.089 383.8 571.979C381.43 577.059 380.23 582.909 380.23 589.389C380.23 596.479 381.76 602.979 384.78 608.709C387.81 614.459 391.9 618.95 396.94 622.03C401.99 625.12 407.64 626.689 413.75 626.689C422.87 626.689 430.62 623.29 436.76 616.6C443.48 609.27 446.89 600.309 446.89 589.969C446.89 582.699 445.39 576.08 442.41 570.28C439.43 564.46 435.33 559.93 430.24 556.81C425.14 553.69 419.51 552.11 413.5 552.11C411.98 552.11 410.37 552.219 408.69 552.449C407.38 552.629 406.02 552.869 404.62 553.189C403.9 546.199 402.55 541.509 400.49 538.879C398.27 536.039 395.34 534.6 391.79 534.6C388 534.6 384.88 536.08 382.52 539C380.21 541.85 379.02 546.279 378.99 552.169V553.179H383.81L383.83 552.189H383.85ZM408.74 558.189C412.27 557.189 416.56 557.27 420.22 558.81C422.27 561.2 423.31 563.749 423.31 566.379C423.31 569.009 422.48 571.279 420.77 572.979C419.06 574.689 416.92 575.52 414.22 575.52C410.88 575.52 408.46 574.079 406.84 571.129C405.56 568.829 404.86 565.04 404.76 559.87C406.02 559.15 407.35 558.589 408.74 558.189ZM397.82 567.82C399.46 571.95 401.19 574.89 403.08 576.77C406.03 579.68 409.73 581.149 414.08 581.149C418.43 581.149 421.94 579.79 424.63 577.09C427.17 574.53 428.52 571.289 428.66 567.419C429.84 569.889 430.78 572.46 431.45 575.1C432.46 579.05 432.98 583.869 432.98 589.419C432.98 597.279 432.12 603.56 430.42 608.09C428.75 612.55 426.43 615.849 423.51 617.929C420.6 619.999 417.26 621.04 413.59 621.04C409.92 621.04 406.46 619.989 403.5 617.919C400.54 615.849 398.2 612.569 396.56 608.179C394.88 603.709 394.03 597.51 394.03 589.74C394.03 584.21 394.42 579.549 395.19 575.899C395.79 573.049 396.67 570.34 397.82 567.8V567.82Z" fill="#EB3000"/>
<path d="M325.82 493.181L325.63 492.811L325.44 493.181C313.13 519.441 276.69 529.41 276.69 557.63C276.69 582.81 311.84 592.65 325.63 567.25C339.42 592.65 374.57 582.81 374.57 557.63C374.57 529.42 338.13 519.441 325.82 493.181Z" fill="#EB3000"/>
<path d="M143.22 169.28L143.41 169.65L143.6 169.28C155.9 143.02 192.35 133.05 192.35 104.83C192.35 79.6498 157.2 69.8098 143.41 95.2098C129.63 69.8098 94.48 79.6498 94.48 104.83C94.48 133.04 130.92 143.02 143.23 169.28H143.22Z" fill="#EB3000"/>
<path d="M240.54 62.5202C240.72 62.7002 241.09 63.0702 241.27 63.2502C241.8 63.6002 242.15 63.7702 242.67 63.9202H242.84C243.87 64.2102 245.03 63.9001 245.82 63.2201C246.81 62.9301 247.75 62.0402 248.33 60.7802C248.89 59.3302 249.09 57.5102 248.62 55.7602C248.2 54.6002 247.25 53.2901 246.02 52.6101C243.54 51.0501 240.42 52.1402 239.13 55.0602C239.14 55.2602 238.84 55.6901 238.87 56.0801C238.63 57.3001 238.38 58.5302 238.97 59.6702C239.23 60.8402 239.8 61.7902 240.53 62.5202H240.54Z" fill="#C9CA54"/>
<path d="M272.75 81.8399C273.2 82.1399 273.68 81.68 274.18 81.79C275.42 82.04 276.72 82.3999 277.73 81.5899C278.37 81.1299 279.15 80.2599 279.57 79.2199C280.3 77.7499 280.33 75.95 279.88 74.4C279.44 73.04 278.68 71.92 277.43 71.03C274.95 69.47 271.66 70.5799 270.37 73.4999C270.4 73.8999 270.08 74.1299 270.13 74.7199C270.02 75.5299 269.73 76.1599 269.79 76.9499C269.82 77.3399 270.02 77.73 270.23 78.31C270.33 78.77 270.65 78.9699 270.84 79.3499C271.12 79.9399 271.32 80.6499 271.81 80.9699C271.97 81.3199 272.28 81.4999 272.75 81.8499V81.8399Z" fill="#C9CA54"/>
<path d="M248.67 86.0503C258.43 89.0303 265.83 92.5402 271.65 95.8802C272.75 96.4002 273.85 97.1103 274.96 98.1603C275.9 99.0403 276.85 99.7402 277.79 100.09C278.89 100.79 279.84 101.85 280.62 102.55C286.6 107.99 289.12 112.55 289.75 113.43L289.91 113.61L290.7 112.73L291.8 111.68L293.22 110.1L302.46 100.84C301.9 100.1 301.34 99.3502 300.91 98.1902C300.91 98.1902 300.91 98.1703 300.91 98.1603C296.66 98.8603 292.11 97.9803 288.02 95.1803C283.46 92.3703 279.52 87.1103 277.79 81.6703C276.77 82.4303 275.43 82.0703 274.18 81.8003C273.68 81.6903 273.2 82.1502 272.75 81.8502C272.28 81.5002 271.96 81.3202 271.81 80.9702C271.33 80.6502 271.13 79.9402 270.84 79.3502C270.66 78.9802 270.36 78.8102 270.23 78.3402C270.07 77.8102 269.76 77.2903 269.76 76.9303C265.19 77.9803 259.69 77.2803 254.96 74.3003C250.87 71.6703 247.72 68.3302 245.83 63.2402C245.04 63.9402 243.94 64.2902 242.84 63.9402H242.68L242.36 84.2903C244.56 84.9903 246.61 85.3402 248.5 86.2202L248.66 86.0503H248.67Z" fill="#BCA827"/>
<path d="M302.45 100.83L302.46 101.03C302.81 101.2 303.01 101.58 303.36 101.75C305.84 103.31 308.96 102.22 310.26 99.3001C310.99 97.8301 311.19 96.0101 310.55 94.2801C310.29 93.1001 309.35 91.7901 308.1 90.9101C305.62 89.3501 302.52 90.6401 301.22 93.5601C301.07 93.7701 300.93 94.1901 300.79 94.6001C300.71 95.8001 300.48 97.0101 300.89 98.1601C300.89 98.1601 300.89 98.18 300.89 98.19C301.32 99.35 301.88 100.09 302.44 100.84L302.45 100.83Z" fill="#C9CA54"/>
<path d="M160.05 294.86C159.73 294.34 159.42 293.81 159.11 293.46C156.12 299.07 151.4 303.29 145.89 305.57C140.54 307.68 134.56 307.85 129.05 305.75C129.52 313.47 130.31 321.37 130.31 329.09H179.73C177.21 325.93 175.48 322.07 173.59 318.39C169.66 310.14 165.09 302.24 160.05 294.87V294.86Z" fill="#C02828"/>
<path d="M314.77 247.31L314.61 247.13C310.83 244.5 306.9 237.66 303.59 230.11C295.25 234.67 287.22 238.01 279.82 240.29C280.61 250.99 278.88 268.72 262.82 286.97C252.27 299.08 250.07 314.7 251.01 329.08H245.63C246.1 341.54 250.51 358.56 258.06 376.63C265.93 395.58 261.68 412.25 257.43 422.08C264.36 425.59 269.86 429.45 273.8 432.61C280.41 420.33 294.58 388.04 276.48 367.16C263.57 352.24 255.55 339.79 251.14 329.08H268.16C279.65 321.71 289.41 311.53 296.81 302.76C298.86 300.48 300.59 298.37 302 296.27C308.14 288.37 311.6 282.58 311.6 282.58C311.6 282.58 320.57 261.17 317.27 251V250.82C316.8 249.42 316.01 248.19 314.75 247.31H314.77Z" fill="#FF2837"/>
<path d="M269.29 255.03C269.29 270.65 258.59 283.28 245.37 283.28C232.15 283.28 221.45 270.65 221.45 255.03C221.45 249.42 222.87 244.15 225.23 239.77C221.92 238.54 219.09 237.31 216.26 236.08C212.01 245.91 207.76 262.58 215.63 281.53C223.18 299.61 227.59 316.63 228.06 329.08H222.68C223.62 343.47 221.42 359.09 210.87 371.2C194.82 389.45 193.08 407.17 193.87 417.88C198.28 416.48 202.53 415.6 206.62 414.9C205.2 411.39 204.42 407.36 204.42 403.14C204.42 387.52 215.12 374.89 228.34 374.89C241.56 374.89 252.26 387.52 252.26 403.14C252.26 408.76 250.84 414.02 248.48 418.41C251.79 419.64 254.62 420.87 257.45 422.1C261.7 412.27 265.95 395.6 258.08 376.65C250.53 358.58 246.12 341.55 245.65 329.1H251.03C250.09 314.71 252.29 299.09 262.84 286.99C278.89 268.74 280.63 251.02 279.84 240.31C275.43 241.72 271.18 242.59 267.09 243.29C268.51 246.8 269.29 250.83 269.29 255.05V255.03Z" fill="#003965"/>
<path d="M245.36 283.28C258.58 283.28 269.28 270.65 269.28 255.03C269.28 250.82 268.49 246.78 267.08 243.27C250.55 246.08 236.54 243.8 225.21 239.76C222.85 244.15 221.43 249.41 221.43 255.02C221.43 270.64 232.13 283.27 245.35 283.27L245.36 283.28ZM244.89 251.8C250.75 242.34 262.85 247.73 261.88 257.69C260.81 268.85 247.5 271.25 242.13 281.11L242.05 281.25L242 281.1C238.64 270.19 226.09 264.7 227.16 253.54C228.12 243.58 240.96 241.18 244.89 251.81V251.8Z" fill="#D69ABF"/>
<path d="M222.85 113.78C222.85 113.78 222.85 113.6 223.01 113.6C223.01 113.6 230.72 105.53 260.79 111.67H260.95C263.62 112.19 266.61 112.72 269.76 113.6C277.16 119.57 277.16 122.9 277.16 122.9C277.16 122.9 277.79 136.06 283.14 140.97C285.97 148.87 296.52 194.84 295.89 202.91C295.89 204.31 296.2 206.42 296.83 209.05C297.93 214.14 299.82 220.63 302.34 227.12C302.81 228.17 303.13 229.05 303.6 230.1C306.91 237.65 310.84 244.49 314.62 247.12L314.78 247.3C316.04 248.18 316.83 249.41 317.3 250.81V250.99C323.28 258.01 339.02 272.05 367.82 265.9C367.51 264.32 367.19 262.74 366.72 261.34C358.69 235.02 342.48 214.66 342.48 214.66C342.48 214.66 315.88 190.09 313.99 177.99C312.26 165.88 289.91 113.59 289.91 113.59L289.75 113.41C289.12 112.53 286.6 107.97 280.62 102.53C279.83 101.83 278.89 100.78 277.79 100.07C276.85 99.7199 275.9 99.02 274.96 98.14C273.86 97.09 272.76 96.38 271.65 95.86C265.83 92.53 258.43 89.01 248.67 86.03L248.51 86.2C246.62 85.33 244.58 84.97 242.37 84.27C242.37 84.27 225.69 87.08 221.12 102.87C215.45 105.85 211.2 115.68 215.93 117.61C216.09 117.61 216.25 117.79 216.56 117.79C220.02 117.79 222.38 114.63 222.86 113.75L222.85 113.78Z" fill="#DAE5F1"/>
<path d="M302.03 296.27C300.61 298.38 298.88 300.48 296.84 302.76C307.54 308.9 332.1 319.61 367.04 315.74C367.35 313.46 367.98 311 368.46 308.19C336.04 315.39 312.9 303.8 302.04 296.26L302.03 296.27Z" fill="#004B98"/>
<path d="M296.83 302.76C289.43 311.53 279.67 321.71 268.18 329.08H251.16C255.57 339.78 263.59 352.24 276.5 367.16C294.6 388.04 280.43 420.33 273.82 432.61C274.61 433.31 275.08 433.84 275.71 434.19C275.71 434.37 275.87 434.37 275.87 434.37C275.87 434.37 276.66 434.73 277.6 434.02C285 432.26 290.19 424.02 292.24 415.77C292.87 413.66 293.34 411.21 293.5 408.93C293.82 407 293.98 405.07 293.98 403.14C293.98 393.49 291.3 383.84 291.3 374.19C291.3 367 292.56 359.45 290.2 352.61C288.15 347 283.59 342.78 280.76 337.52C279.34 334.71 278.4 331.91 277.14 329.1H343.41C343.41 336.82 344.2 344.72 344.67 352.44C344.83 353.67 344.83 354.9 344.98 356.13C345.92 355.43 346.87 354.72 347.97 354.02C350.49 352.09 353.01 349.63 355.21 347.18C357.41 344.9 359.3 342.44 360.72 339.63C362.45 336.3 363.24 332.79 363.55 329.1H363.73C364.67 325.77 365.78 321.38 367.04 315.76C332.1 319.62 307.54 308.92 296.84 302.78L296.83 302.76Z" fill="#949DFF"/>
<path d="M367.82 265.91C339.02 272.05 323.28 258.02 317.3 251C320.61 261.18 311.63 282.58 311.63 282.58C311.63 282.58 308.17 288.37 302.03 296.27C312.89 303.81 336.03 315.4 368.45 308.2C368.92 306.27 369.24 304.16 369.71 302.06C372.23 289.78 370.97 277.32 367.82 265.91Z" fill="#949DFF"/>
<path d="M283.14 140.97C277.79 136.06 277.16 122.9 277.16 122.9C277.16 122.9 277.16 119.57 269.76 113.6C266.61 112.72 263.62 112.19 260.95 111.67C262.84 113.25 264.25 115.53 264.88 117.99C266.45 124.13 263.78 131.33 267.08 136.42C268.18 138 269.76 139.23 270.7 140.81C273.06 144.85 271.02 150.11 269.13 154.32C267.4 158.53 265.67 163.97 268.5 167.66C269.29 168.71 270.55 169.59 271.33 170.99C273.85 175.73 267.24 182.57 270.54 186.78C271.95 188.71 274.63 188.71 276.36 190.47C278.09 192.4 277.93 195.38 278.41 198.19C278.73 201.35 280.14 204.16 282.19 206.26C283.29 207.66 284.71 208.72 286.28 209.42C286.44 209.59 286.75 209.59 286.91 209.77C290.06 211.18 293.83 210.82 296.83 209.07C296.2 206.44 295.89 204.33 295.89 202.93C296.52 194.86 285.97 148.88 283.14 140.99V140.97Z" fill="#0D0D0D"/>
<path d="M237.96 202.92C239.06 202.92 239.85 203.62 240.32 204.68H240.48C241.42 204.68 242.37 205.2 242.84 206.08H243.15C244.09 206.08 244.88 206.61 245.2 207.31C245.36 207.14 245.67 207.14 245.83 207.14C246.77 207.14 247.4 207.66 247.72 208.37H247.88C248.04 208.2 248.35 208.2 248.67 208.2C249.46 208.2 250.09 208.55 250.56 209.25C250.87 209.07 251.19 209.07 251.5 209.07C252.13 209.07 252.76 209.42 253.23 209.95C253.55 209.77 254.02 209.6 254.49 209.6C255.28 209.6 255.91 209.95 256.22 210.3C256.53 210.12 257.01 209.95 257.48 209.95C258.11 209.95 258.74 210.3 259.21 210.65C259.68 210.3 260.15 210.12 260.63 210.12C261.11 210.12 261.57 210.3 262.05 210.82C262.52 210.3 263.15 209.95 263.78 209.95C264.25 209.95 264.72 210.12 265.19 210.65C265.67 209.95 266.29 209.6 267.08 209.6C267.55 209.6 268.02 209.78 268.5 210.13C268.97 209.6 269.6 209.26 270.39 209.26C270.86 209.26 271.33 209.43 271.81 209.78C272.13 208.9 272.91 208.37 273.7 208.37C274.17 208.37 274.64 208.55 275.12 209.07C275.44 208.02 276.38 207.49 277.32 207.49C277.64 207.49 278.11 207.66 278.42 207.84C278.89 206.79 279.84 206.26 280.78 206.26C281.25 206.26 281.72 206.43 282.04 206.61C282.04 206.43 282.2 206.26 282.2 206.26C280.15 204.15 278.74 201.35 278.42 198.19C277.95 195.38 278.1 192.4 276.37 190.47C274.64 188.71 271.96 188.71 270.55 186.78C267.24 182.57 273.85 175.73 271.34 170.99C270.55 169.59 269.29 168.71 268.51 167.66C265.68 163.97 267.41 158.53 269.14 154.32C271.03 150.11 273.07 144.84 270.71 140.81C269.77 139.23 268.19 138 267.09 136.42C263.79 131.33 266.46 124.14 264.89 117.99C264.26 115.53 262.84 113.25 260.96 111.67H260.8C230.74 105.53 223.02 113.6 223.02 113.6C222.86 113.6 222.86 113.78 222.86 113.78C222.07 117.46 221.28 123.08 221.28 127.82C223.64 126.94 226.16 126.77 228.68 127.65C231.04 128.52 232.93 131.16 233.56 133.97C234.03 136.78 233.88 139.58 233.56 142.39C233.25 145.2 232.93 147.65 231.51 150.46C230.25 152.92 228.83 157.13 231.82 157.83C233.87 157.65 235.91 157.65 237.96 157.83C239.54 158 241.42 158.18 242.84 157.13C241.74 158.54 239.53 158.54 237.96 158.71C235.91 158.71 233.87 158.54 231.82 158.89H231.66C229.93 158.71 228.51 156.43 228.99 154.68C229.15 152.75 229.62 151.17 230.41 149.77V149.6C231.35 147.49 231.67 144.69 232.14 142.05C232.46 139.42 232.77 136.79 232.3 134.16C231.98 131.7 230.57 129.42 228.36 128.54C226.16 127.49 223.64 127.31 221.28 127.84V128.54C220.97 130.12 220.81 131.7 220.65 133.1C225.69 132.05 231.51 134.86 231.51 134.86C227.89 133.98 223.48 133.81 220.49 135.03C220.49 135.73 220.33 136.44 220.33 136.96C221.12 136.78 227.1 134.15 231.03 137.31C231.97 139.07 229.77 141.35 229.77 141.35C229.77 141.35 227.1 144.68 220.48 142.23C220.48 142.23 216.39 157.85 228.04 174.69C233.39 185.92 235.28 188.55 240 189.43C241.57 189.96 240.79 195.04 240.79 195.04C240.79 195.04 239.85 198.55 237.01 201.88C237.33 202.06 237.64 202.41 237.8 202.93H237.96V202.92ZM249.93 143.78C245.21 143.43 243.79 140.09 243.63 136.76V136.23C243.63 136.23 246.05 135.82 249.65 135.8C249.66 135.8 249.67 135.79 249.69 135.79C249.71 135.79 249.72 135.81 249.73 135.81C252.33 135.8 255.45 135.96 259.06 136.77C260.48 137.82 254.5 144.32 249.93 143.79V143.78ZM244.1 135.89C244.1 135.89 253.54 128.87 259.05 135.89C256.85 134.66 247.09 134.66 244.1 135.89ZM251.34 124.48C254.33 124.83 257.32 125.89 259.37 128.17C254.18 125.54 248.51 125.54 243.16 128.17C245.21 125.89 248.35 124.84 251.34 124.48ZM232.4 170.65C231.23 170.09 230.7 169.08 230.52 167.73C230.28 165.92 230.33 165.09 232.03 165.04C232.27 165.04 232.51 165.02 232.74 165.01C235.2 164.87 237.03 164.42 239.51 163.47C241.77 162.6 246.94 162.71 244.23 166.73C243.57 167.7 242.56 168.71 241.67 169.42C240.83 170.09 239.94 170.74 238.94 171C238.31 171.16 237.65 171.16 237.01 171.16C235.52 171.16 233.81 171.34 232.41 170.67L232.4 170.65ZM238.07 177.5C237.88 177.51 237.68 177.52 237.5 177.45C237.29 177.37 237.12 177.19 236.97 177C236.37 176.26 234.85 173.98 235.65 173.07C236.55 172.05 239.52 172.62 240.58 172.93C241.06 173.07 241.55 173.28 241.85 173.72C241.99 173.93 242.14 174.22 242.37 174.18C242.37 174.7 242.35 175.21 242.34 175.73C242.33 176.22 242.29 176.78 241.94 177.08C241.69 177.3 241.36 177.32 241.05 177.34C240.06 177.39 239.06 177.44 238.07 177.5Z" fill="#FFA9BA"/>
<path d="M201.92 222.04C201.92 222.04 201.92 222.22 201.76 222.22C202.7 222.22 203.33 222.39 203.81 222.74C205.38 223.79 204.6 226.43 206.64 228C208.53 229.58 210.1 227.65 212.94 229.05C215.62 230.28 215.3 232.38 217.51 233.44C217.67 233.61 217.82 233.79 217.98 233.79C220.66 234.84 221.92 232.39 224.75 233.44C227.42 234.32 227.11 236.6 229.79 237.65C232.62 238.7 233.57 236.42 237.03 236.95C240.5 237.65 240.5 239.93 243.8 240.46C246.95 240.99 247.42 239.05 251.04 239.05C255.45 239.23 256.23 242.21 259.7 241.51C262.69 240.99 262.53 238.88 265.68 238.35C269.3 237.65 270.56 240.81 273.7 239.76C276.22 238.88 276.06 236.43 278.89 235.55H279.21C281.73 234.85 282.67 236.6 285.03 235.73C288.02 234.68 287.86 231.52 290.7 230.81C292.9 230.29 293.53 232.04 295.42 231.34C297.62 230.46 297.47 228.18 299.51 227.13C300.14 226.78 300.93 226.61 302.34 227.13C299.82 220.64 297.93 214.15 296.83 209.06C293.84 210.81 290.06 211.17 286.91 209.76C286.75 209.58 286.44 209.58 286.28 209.41C285.81 210.11 285.18 210.46 284.39 210.46C283.92 210.46 283.45 210.28 283.13 210.11C282.66 211.16 281.87 211.87 280.77 211.87C280.3 211.87 279.83 211.69 279.51 211.34C279.03 212.22 278.25 212.92 277.31 212.92C276.84 212.92 276.37 212.75 275.89 212.4C275.57 213.45 274.63 213.98 273.69 213.98C273.22 213.98 272.9 213.8 272.43 213.45C271.95 214.15 271.33 214.68 270.38 214.68C269.91 214.68 269.44 214.51 268.96 214.15C268.33 214.85 267.7 215.2 267.07 215.2C266.6 215.2 266.13 215.02 265.66 214.5C265.18 215.2 264.56 215.55 263.77 215.55C263.14 215.55 262.51 215.37 262.19 214.85C261.88 215.37 261.25 215.55 260.62 215.55C259.99 215.55 259.36 215.2 258.89 214.67C258.42 215.2 257.95 215.37 257.47 215.37C256.84 215.37 256.21 215.02 255.9 214.49C255.43 214.84 254.96 215.01 254.48 215.01C253.69 215.01 253.06 214.66 252.75 214.13C252.44 214.31 251.96 214.48 251.49 214.48C250.86 214.48 250.23 214.13 249.76 213.43C249.44 213.61 249.13 213.78 248.66 213.78C247.87 213.78 247.09 213.25 246.77 212.55H246.61C246.45 212.73 246.14 212.73 245.82 212.73C245.03 212.73 244.24 212.2 243.93 211.32C243.77 211.5 243.46 211.5 243.14 211.5C242.2 211.5 241.25 210.97 240.94 209.92C240.78 210.09 240.62 210.09 240.47 210.09C239.53 210.09 238.74 209.56 238.27 208.51H237.95C236.85 208.51 235.9 207.81 235.59 206.58H235.43C234.49 206.58 233.86 206.05 233.38 205.35C231.65 206.58 229.29 207.46 226.61 207.81C221.26 208.33 215.75 210.44 211.03 213.42C210.24 213.95 209.46 214.47 208.67 215.18C205.99 216.94 203.79 219.22 201.9 221.85V222.03L201.92 222.04Z" fill="#FFA9BA"/>
<path d="M233.4 205.37C233.08 205.02 232.93 204.49 232.93 203.96C232.93 202.38 234.03 201.15 235.45 201.15C236.08 201.15 236.55 201.33 237.02 201.85C239.85 198.52 240.8 195.01 240.8 195.01C240.8 195.01 241.59 189.92 240.01 189.4C235.29 188.52 233.4 185.89 228.05 174.66C216.4 157.82 220.49 142.2 220.49 142.2C220.49 142.2 220.33 140.27 220.33 136.94C220.33 136.41 220.49 135.71 220.49 135.01C223.48 133.78 227.89 133.96 231.51 134.84C231.51 134.84 225.69 132.03 220.65 133.08C220.81 131.68 220.97 130.1 221.28 128.52V127.82C221.28 123.08 222.07 117.47 222.86 113.78C222.39 114.66 220.03 117.82 216.56 117.82C216.24 117.82 216.08 117.64 215.93 117.64C215.62 121.33 215.77 125.19 214.99 128.87C213.89 133.26 211.21 137.29 211.06 141.85C211.06 146.59 213.58 151.68 211.38 155.71C210.59 156.76 209.49 157.64 208.7 158.87C206.18 162.91 208.07 168.17 208.07 173.08C207.91 178.69 205.55 185.01 208.86 189.23C210.28 190.98 212.32 191.86 214.21 193.26C215.94 194.67 217.2 197.47 216.1 199.4C215.63 200.45 214.53 200.98 213.74 201.68C210.91 203.96 209.49 208.35 210.43 212.03C210.59 212.56 210.74 213.08 211.06 213.44C215.78 210.46 221.29 208.35 226.64 207.83C229.32 207.48 231.68 206.6 233.41 205.37H233.4Z" fill="#0D0D0D"/>
<path d="M232.3 134.13C232.77 136.76 232.46 139.39 232.14 142.02C231.67 144.65 231.35 147.46 230.41 149.57V149.74C229.62 151.15 229.15 152.72 228.99 154.65C228.51 156.41 229.93 158.69 231.66 158.86H231.82C233.87 158.51 235.91 158.68 237.96 158.68C239.54 158.51 241.74 158.51 242.84 157.1C241.42 158.15 239.53 157.98 237.96 157.8C235.91 157.62 233.87 157.62 231.82 157.8C228.83 157.1 230.25 152.89 231.51 150.43C232.93 147.62 233.24 145.17 233.56 142.36C233.88 139.55 234.03 136.74 233.56 133.94C232.93 131.13 231.04 128.5 228.68 127.62C226.16 126.74 223.64 126.92 221.28 127.79C223.64 127.26 226.16 127.44 228.36 128.49C230.56 129.37 231.98 131.65 232.3 134.11V134.13Z" fill="#0D0D0D"/>
<path opacity="0.26" d="M259.37 128.16C257.32 125.88 254.33 124.83 251.34 124.47C248.35 124.82 245.2 125.88 243.16 128.16C248.51 125.53 254.18 125.53 259.37 128.16Z" fill="#0D0D0D"/>
<path d="M244.1 135.89C247.09 134.66 256.85 134.66 259.05 135.89C253.54 128.87 244.1 135.89 244.1 135.89Z" fill="#0D0D0D"/>
<path d="M252.37 138.78C252.37 140.43 251.17 141.77 249.68 141.77C248.19 141.77 246.99 140.43 246.99 138.78C246.99 137.13 248.18 135.83 249.64 135.8C246.05 135.82 243.62 136.23 243.62 136.23V136.76C243.78 140.09 245.2 143.43 249.92 143.78C254.48 144.31 260.47 137.81 259.05 136.76C255.44 135.96 252.32 135.79 249.72 135.8C251.18 135.83 252.37 137.14 252.37 138.78Z" fill="#CCCCCC"/>
<path d="M229.78 141.32C229.78 141.32 231.98 139.04 231.04 137.28C227.11 134.12 221.12 136.75 220.34 136.93C220.34 140.26 220.5 142.19 220.5 142.19C227.11 144.65 229.79 141.31 229.79 141.31L229.78 141.32ZM224.11 142.02C224.11 142.02 224.1 141.99 224.08 141.99C224.06 141.99 224.06 142.04 224.04 142.04C222.56 142.04 221.36 140.7 221.36 139.05C221.36 137.4 222.56 136.06 224.04 136.06C224.06 136.06 224.05 136.1 224.07 136.1C224.09 136.1 224.08 136.06 224.1 136.06C225.52 136.06 226.78 137.46 226.78 139.04C226.78 140.62 225.52 142.02 224.1 142.02H224.11Z" fill="#CCCCCC"/>
<path d="M247 138.78C247 140.43 248.21 141.77 249.69 141.77C251.17 141.77 252.38 140.43 252.38 138.78C252.38 137.13 251.2 135.83 249.73 135.8C249.72 135.8 249.71 135.78 249.69 135.78C249.68 135.78 249.67 135.79 249.65 135.79C248.19 135.82 247 137.13 247 138.77V138.78Z" fill="black"/>
<path d="M224.08 136.1C224.08 136.1 224.07 136.06 224.05 136.06C222.57 136.06 221.37 137.4 221.37 139.05C221.37 140.7 222.57 142.04 224.05 142.04C224.07 142.04 224.07 141.99 224.09 141.99C225.54 141.94 226.73 140.67 226.73 139.05C226.73 137.43 225.53 136.13 224.08 136.09V136.1Z" fill="black"/>
<path d="M241.94 177.09C242.28 176.79 242.33 176.23 242.34 175.74C242.35 175.22 242.36 174.71 242.37 174.19C242.14 174.23 241.99 173.94 241.85 173.73C241.56 173.28 241.06 173.08 240.58 172.94C239.52 172.62 236.55 172.06 235.65 173.08C234.85 173.99 236.37 176.27 236.97 177.01C237.12 177.2 237.29 177.37 237.5 177.46C237.68 177.53 237.88 177.52 238.07 177.51C239.06 177.46 240.05 177.41 241.05 177.35C241.36 177.33 241.69 177.31 241.94 177.09Z" fill="#D69ABF"/>
<path d="M238.94 170.98C239.95 170.72 240.83 170.07 241.67 169.4C242.56 168.7 243.57 167.68 244.23 166.71C246.94 162.69 241.77 162.58 239.51 163.45C237.03 164.4 235.2 164.86 232.74 164.99C232.51 165 232.27 165.01 232.03 165.02C230.33 165.07 230.28 165.9 230.52 167.71C230.7 169.06 231.23 170.07 232.4 170.63C233.8 171.3 235.51 171.12 237 171.12C237.65 171.12 238.3 171.12 238.93 170.96L238.94 170.98Z" fill="#940025"/>
<path d="M169.81 285.39C171.54 286.44 173.12 287.85 174.53 289.43C183.5 300.31 184.92 317.15 194.21 327.86C194.52 328.39 195 328.74 195.47 329.09H196.57C195.31 326.28 194.37 323.48 192.95 320.67C190.12 315.41 185.55 311.19 183.51 305.58C181.15 298.74 182.41 291.19 182.41 284C182.41 274.35 179.73 264.7 179.73 255.05C179.73 253.12 179.89 251.19 180.2 249.26C178.15 250.49 176.58 252.07 175.16 254C172.96 257.16 171.54 260.67 169.81 264.18C166.19 271.37 161.94 278.22 156.74 284.36C161.15 283.31 165.71 283.13 169.81 285.41V285.39Z" fill="#004B98"/>
<path d="M155.96 287.14C156.59 289.6 157.85 291.529 159.11 293.459C159.43 293.809 159.74 294.34 160.05 294.86C165.09 302.23 169.65 310.13 173.59 318.38C175.48 322.07 177.21 325.919 179.73 329.079H195.47C195 328.729 194.53 328.38 194.21 327.85C184.92 317.15 183.51 300.3 174.53 289.42C173.12 287.84 171.54 286.44 169.81 285.38C165.72 283.1 161.15 283.279 156.74 284.329C156.27 284.329 155.95 284.51 155.64 284.68C155.64 285.03 155.64 285.38 155.8 285.56C155.8 286.09 155.8 286.61 155.96 287.14Z" fill="#EB3000"/>
<path d="M145.88 305.57C151.39 303.29 156.11 299.08 159.1 293.46C157.84 291.53 156.58 289.6 155.95 287.14C155.79 286.61 155.79 286.09 155.79 285.56C155.63 285.38 155.63 285.04 155.63 284.68C155.47 283.45 155.31 282.05 155 280.82C154.53 278.36 153.27 276.08 151.54 274.33C151.07 278.89 149.49 283.1 147.29 287.14C146.5 288.72 145.4 290.3 143.98 291.35C141.93 292.76 139.42 292.76 137.06 292.76C134.86 292.76 132.34 292.58 130.45 291.18C129.51 290.48 128.88 289.6 128.09 288.72C128.25 293.11 128.41 297.67 128.72 302.06C128.88 303.29 128.88 304.52 129.03 305.75C134.54 307.85 140.52 307.68 145.87 305.57H145.88Z" fill="#EDEFEC"/>
<path d="M225.21 239.771C236.54 243.811 250.55 246.091 267.08 243.281C271.17 242.581 275.42 241.701 279.83 240.301C287.23 238.021 295.26 234.69 303.6 230.12C303.13 229.07 302.81 228.191 302.34 227.141C300.92 226.621 300.14 226.791 299.51 227.141C297.46 228.191 297.62 230.47 295.42 231.35C293.53 232.05 292.9 230.3 290.7 230.82C287.87 231.52 288.02 234.68 285.03 235.74C282.67 236.61 281.72 234.861 279.21 235.561H278.89C276.06 236.441 276.22 238.891 273.7 239.771C270.55 240.821 269.29 237.66 265.68 238.36C262.53 238.89 262.69 240.991 259.7 241.521C256.24 242.221 255.45 239.241 251.04 239.061C247.42 239.061 246.95 240.99 243.8 240.47C240.49 239.94 240.49 237.66 237.03 236.96C233.57 236.44 232.62 238.721 229.79 237.661C227.12 236.611 227.43 234.33 224.75 233.45C221.92 232.4 220.66 234.851 217.98 233.801C217.82 233.801 217.67 233.62 217.51 233.45C215.31 232.4 215.62 230.291 212.94 229.061C210.11 227.651 208.53 229.58 206.64 228.01C204.59 226.43 205.38 223.8 203.81 222.75C203.34 222.4 202.71 222.23 201.76 222.23C200.97 222.4 199.87 222.75 198.61 223.63H198.45C198.29 223.63 197.98 223.631 197.82 223.801C197.82 223.801 197.98 223.8 197.98 223.98C198.61 224.33 199.08 224.861 199.87 225.561C203.8 228.721 209.31 232.58 216.24 236.09C219.07 237.32 221.91 238.551 225.21 239.781V239.771Z" fill="#DFE900"/>
<path d="M198.46 223.62C198.46 223.62 200.98 222.39 201.77 222.22C201.93 222.22 201.93 222.04 201.93 222.04V221.86C203.82 219.23 206.02 216.95 208.7 215.19C208.23 213.96 207.44 213.08 206.5 212.38C204.93 211.33 202.57 211.5 201.15 213.08C200.68 213.61 200.36 214.31 199.89 214.84C199.42 215.72 198.63 216.42 197.84 216.95C197.05 217.47 196.42 217.82 195.95 218.7C195.48 219.4 195.32 220.46 195.48 221.51C195.48 221.86 195.48 222.21 195.64 222.56C195.64 223.08 195.8 223.61 196.11 224.14C197.05 223.43 197.84 223.79 197.84 223.79C198 223.62 198.31 223.62 198.47 223.62H198.46Z" fill="#949DFF"/>
<path d="M282.04 206.6C281.72 206.42 281.25 206.25 280.78 206.25C279.84 206.25 278.89 206.77 278.42 207.83C278.1 207.65 277.63 207.48 277.32 207.48C276.38 207.48 275.43 208 275.12 209.06C274.65 208.53 274.18 208.36 273.7 208.36C272.91 208.36 272.13 208.89 271.81 209.77C271.34 209.42 270.87 209.25 270.39 209.25C269.6 209.25 268.97 209.6 268.5 210.12C268.03 209.77 267.56 209.59 267.08 209.59C266.29 209.59 265.67 209.94 265.19 210.64C264.72 210.11 264.25 209.94 263.78 209.94C263.15 209.94 262.52 210.29 262.05 210.81C261.58 210.29 261.11 210.11 260.63 210.11C260.15 210.11 259.69 210.29 259.21 210.64C258.74 210.29 258.11 209.94 257.48 209.94C257.01 209.94 256.54 210.11 256.22 210.29C255.9 209.94 255.28 209.59 254.49 209.59C254.02 209.59 253.55 209.77 253.23 209.94C252.76 209.41 252.13 209.06 251.5 209.06C251.18 209.06 250.87 209.06 250.56 209.24C250.09 208.54 249.46 208.19 248.67 208.19C248.35 208.19 248.04 208.19 247.88 208.36H247.72C247.4 207.66 246.78 207.13 245.83 207.13C245.67 207.13 245.36 207.13 245.2 207.3C244.88 206.6 244.1 206.07 243.15 206.07H242.84C242.36 205.19 241.42 204.67 240.48 204.67H240.32C239.85 203.62 239.06 202.91 237.96 202.91H237.8C237.64 202.38 237.33 202.03 237.01 201.86C236.54 201.34 236.07 201.16 235.44 201.16C234.02 201.16 232.92 202.39 232.92 203.97C232.92 204.5 233.08 205.02 233.39 205.38C233.86 206.08 234.49 206.61 235.44 206.61H235.6C235.92 207.84 236.86 208.54 237.96 208.54H238.28C238.75 209.59 239.54 210.12 240.48 210.12C240.64 210.12 240.79 210.12 240.95 209.95C241.26 211 242.21 211.53 243.15 211.53C243.47 211.53 243.78 211.53 243.94 211.35C244.25 212.23 245.04 212.76 245.83 212.76C246.15 212.76 246.46 212.76 246.62 212.58H246.78C247.1 213.28 247.88 213.81 248.67 213.81C249.14 213.81 249.46 213.64 249.77 213.46C250.24 214.16 250.87 214.51 251.5 214.51C251.97 214.51 252.44 214.33 252.76 214.16C253.08 214.69 253.7 215.04 254.49 215.04C254.96 215.04 255.43 214.87 255.91 214.52C256.23 215.04 256.85 215.4 257.48 215.4C257.95 215.4 258.42 215.23 258.9 214.7C259.37 215.23 260 215.58 260.63 215.58C261.26 215.58 261.89 215.4 262.2 214.88C262.52 215.4 263.14 215.58 263.78 215.58C264.57 215.58 265.19 215.23 265.67 214.53C266.14 215.05 266.61 215.23 267.08 215.23C267.71 215.23 268.34 214.88 268.97 214.18C269.44 214.53 269.91 214.71 270.39 214.71C271.33 214.71 271.96 214.18 272.44 213.48C272.91 213.83 273.23 214.01 273.7 214.01C274.64 214.01 275.59 213.48 275.9 212.43C276.37 212.78 276.84 212.95 277.32 212.95C278.26 212.95 279.05 212.25 279.52 211.37C279.83 211.72 280.31 211.9 280.78 211.9C281.88 211.9 282.67 211.2 283.14 210.14C283.46 210.32 283.93 210.49 284.4 210.49C285.19 210.49 285.82 210.14 286.29 209.44C284.71 208.74 283.3 207.68 282.2 206.28C282.2 206.28 282.04 206.45 282.04 206.63V206.6Z" fill="#DFE900"/>
<path d="M183.5 182.03C183.97 182.03 184.29 182.21 184.76 182.38H184.92C185.027 182.5 185.134 182.677 185.24 182.91C186.97 181.68 192.32 177.12 190.28 173.61C189.81 172.56 189.18 171.85 188.55 171.15C185.24 167.99 179.58 169.57 178 171.85H178.94C182.87 171.85 183.35 180.63 183.5 182.03Z" fill="#EB3C4E"/>
<path d="M185.23 182.91C185.54 183.09 185.86 183.61 186.02 184.14C186.18 184.31 186.18 184.49 186.33 184.67C188.38 185.02 195.15 185.54 195.77 181.51C195.93 180.99 195.93 180.63 195.93 180.28C196.25 175.02 191.52 171.51 188.53 171.16C189.16 171.86 189.79 172.56 190.26 173.62C192.31 177.13 186.96 181.69 185.22 182.92L185.23 182.91Z" fill="#FF5559"/>
<path d="M186.34 184.67C186.34 185.2 186.5 185.72 186.5 186.25C186.5 186.95 186.34 187.48 186.34 188L186.18 188.18C188.23 189.94 192.32 193.27 194.68 190.81L196.1 189.23C197.67 186.42 197.2 182.91 195.94 180.28C195.94 180.63 195.94 180.98 195.78 181.51C195.15 185.55 188.38 185.02 186.34 184.67Z" fill="#EB3C4E"/>
<path d="M186.18 188.18C185.86 188.88 185.55 189.41 185.08 189.76C184.76 190.11 184.29 190.46 183.82 190.46C184.29 193.09 185.87 199.41 189.17 199.06C189.49 199.06 189.64 199.06 189.96 198.89C194.52 198.01 196.41 192.75 196.1 189.24L194.68 190.82C192.32 193.28 188.23 189.95 186.18 188.19V188.18Z" fill="#FF5559"/>
<path d="M180.67 186.42V186.25C180.67 185.2 180.99 184.32 181.3 183.62C181.46 183.45 181.46 183.27 181.62 183.1C180.36 180.47 178.32 176.96 175.64 177.66C173.44 178.19 172.02 179.77 171.23 181.7C169.34 185.39 170.13 190.48 171.86 191C171.86 190.48 171.86 189.95 172.02 189.42C172.81 185.91 178.16 186.09 180.68 186.44L180.67 186.42Z" fill="#EB3C4E"/>
<path d="M181.61 183.09C181.93 182.74 182.24 182.39 182.55 182.39C182.87 182.22 183.18 182.04 183.49 182.04C183.33 180.64 182.86 171.86 178.93 171.86H177.99C172.95 172.21 170.59 178.35 171.22 181.69C172.01 179.76 173.42 178.18 175.63 177.65C178.31 176.95 180.35 180.46 181.61 183.09Z" fill="#FF5559"/>
<path d="M183.5 190.46H183.82C184.29 190.46 184.76 190.11 185.08 189.76C185.55 189.41 185.87 188.88 186.18 188.18C186.02 188 185.86 188 185.86 187.83C186.02 187.83 186.18 188 186.33 188C186.33 187.48 186.49 186.95 186.49 186.25C186.49 185.72 186.33 185.2 186.33 184.67C186.17 184.49 186.17 184.32 186.02 184.14C185.86 183.61 185.54 183.09 185.23 182.91C185.123 182.677 185.017 182.5 184.91 182.38H184.75C184.28 182.21 183.96 182.03 183.49 182.03C183.18 182.03 182.86 182.21 182.55 182.38C182.24 182.38 181.92 182.73 181.61 183.08C181.45 183.25 181.45 183.43 181.29 183.6C180.98 184.3 180.66 185.18 180.66 186.23V186.4C180.66 187.1 180.82 187.63 180.98 188.16C181.14 188.51 181.29 188.86 181.45 189.21C181.77 189.56 182.08 189.91 182.39 190.08C182.71 190.26 183.18 190.43 183.49 190.43L183.5 190.46Z" fill="white"/>
<path d="M186.18 188.18L186.34 188C186.18 188 186.03 187.83 185.87 187.83C185.87 188 186.03 188 186.19 188.18H186.18Z" fill="#FAD9A3"/>
<path d="M168.23 219.41C169.02 219.24 169.96 219.24 170.91 219.24C172.48 219.06 174.22 218.89 175.79 219.06C178.47 219.24 181.3 219.59 183.19 221.69C184.61 223.27 185.24 225.55 185.86 227.66C187.75 227.13 189.01 225.2 189.64 223.27C190.11 221.16 190.11 219.06 189.96 216.95C189.8 215.72 189.8 214.32 189.17 213.26C188.54 211.86 187.12 210.98 185.55 210.63C183.82 209.93 181.78 209.93 179.89 210.28C178.95 210.46 178 210.8 176.9 211.16C175.96 211.51 174.85 211.86 173.91 212.21L171.08 215.9C170.29 217.13 169.35 218.18 168.25 219.41H168.23Z" fill="#00503C"/>
<path d="M183.82 190.46H183.5C183.19 190.46 182.71 190.28 182.4 190.11C182.08 189.94 181.77 189.59 181.46 189.24C179.57 190.99 176.42 194.68 177.53 197.49C177.53 197.84 177.53 198.02 177.69 198.19C178.16 198.89 178.48 199.59 179.11 200.12C179.74 200.65 180.53 201.17 181.16 201.35C184.63 202.75 188.88 201 189.98 198.89C189.66 199.06 189.51 199.06 189.19 199.06C185.88 199.41 184.31 193.09 183.84 190.46H183.82Z" fill="#EB3C4E"/>
<path d="M177.68 198.18C177.52 198 177.52 197.83 177.52 197.48C176.42 194.67 179.57 190.99 181.45 189.23C181.29 188.88 181.13 188.53 180.98 188.18C180.82 187.65 180.66 187.13 180.66 186.42C178.14 186.07 172.79 185.9 172 189.4C171.84 189.93 171.84 190.45 171.84 190.98C171.52 194.84 173.89 197.82 176.4 199.23C177.34 199.76 178.29 200.11 179.08 200.11C178.45 199.58 178.14 198.88 177.66 198.18H177.68Z" fill="#FF5559"/>
<path d="M170.6 209.41C170.44 208.88 170.44 208.359 170.29 207.829C169.5 204.139 167.77 200.81 164.94 198.88C160.53 195.72 154.71 196.95 149.67 198.53C148.57 198.88 147.15 199.76 147.62 200.99C147.94 202.22 149.35 202.04 150.45 202.04C153.13 201.86 155.49 203.62 157.06 205.9C158.63 208.18 159.42 210.99 160.37 213.62C161.16 215.37 161.47 217.659 162.1 219.589H162.26C163.05 219.589 169.97 219.24 170.6 209.41Z" fill="#00503C"/>
<path d="M153.75 233.1C154.54 233.27 155.64 232.92 156.58 232.4C156.687 232.4 156.79 232.34 156.89 232.22C156.89 232.57 157.21 232.75 157.68 232.92C158 233.1 158.47 232.92 158.78 232.92C164.61 231.52 170.59 232.04 176.25 234.15C176.57 231.87 176.88 229.41 176.41 227.13C176.1 224.85 174.99 222.57 173.11 221.52C172.32 221 171.38 221 170.43 221C169.96 220.82 169.33 220.82 168.86 220.82C168.23 220.82 167.44 220.82 166.81 221.17H166.65C166.65 221.17 166.65 221.35 166.49 221.35C166.17 222.05 165.55 222.75 164.91 223.46C164.44 224.16 163.81 224.86 163.18 225.56C161.45 227.49 159.72 229.25 157.99 231.18C158.46 230.48 158.78 229.77 158.93 229.07C159.4 227.66 159.56 225.91 159.4 224.33C159.4 223.8 159.4 223.1 159.24 222.58C159.08 220.3 158.61 218.19 157.04 216.79C156.1 215.91 154.99 215.56 154.21 214.68C153.58 214.15 153.11 213.27 152.48 212.75C150.28 210.29 147.13 209.77 143.98 209.24C144.77 209.41 144.92 210.64 144.92 211.34C144.92 212.92 144.76 214.32 144.76 215.9C144.76 217.13 144.76 218.53 145.23 219.76C146.02 221.86 147.91 222.92 149.32 224.5C150.58 225.9 151.68 227.66 152.15 229.76C152.31 230.11 152.46 230.46 152.46 230.81C152.78 232.39 152.46 232.57 153.72 233.09L153.75 233.1Z" fill="#00503C"/>
<path d="M158.95 229.06C158.79 229.76 158.48 230.46 158.01 231.17C159.74 229.24 161.47 227.48 163.2 225.55C163.83 224.85 164.46 224.15 164.93 223.45C165.56 222.75 166.19 222.04 166.51 221.34C166.67 221.34 166.67 221.16 166.67 221.16H166.83C167.46 220.63 167.93 219.93 168.25 219.4C169.35 218.17 170.3 217.12 171.08 215.89L173.91 212.2C176.43 208.69 178.95 205.01 181.15 201.32C180.52 201.14 179.73 200.62 179.1 200.09C178.31 200.09 177.37 199.74 176.42 199.21C174.69 202.9 172.64 206.23 170.6 209.39C169.97 219.22 163.04 219.57 162.26 219.57H162.1C161.31 220.62 160.37 221.68 159.27 222.55C159.43 223.07 159.43 223.78 159.43 224.3C159.59 225.88 159.43 227.63 158.96 229.04L158.95 229.06Z" fill="#4D5F5C"/>
<path d="M134.87 249.59C132.98 246.43 130.31 244.68 127 244.15C125.42 243.62 123.54 243.1 122.43 241.52C122.12 241 122.12 240.47 121.96 239.94C122.43 241.34 123.54 242.75 125.74 243.27C129.99 244.67 131.41 243.8 135.03 249.41C135.07 249.49 135.18 249.55 135.25 249.62C136.09 250.64 136.93 250.31 137.7 250.05C137.98 249.95 138.33 250.12 138.56 249.93C139.26 249.28 139.78 248.37 139.43 247.82V247.65C140.69 248.35 141.63 248.53 142.42 248.35C143.52 247.82 144.46 246.77 144.62 244.67C144.62 244.03 144.61 242.89 144.47 241.5C144.31 240.62 144.15 239.57 143.99 238.52C143.99 238.35 143.83 238.17 143.83 238C143.49 236.73 142.96 235.49 142.34 234.29C142.13 233.89 141.87 233.53 141.62 233.15C140.86 232.02 140.01 230.93 138.8 230.1C133.13 226.24 131.4 234.31 131.4 234.31C126.99 233.26 124 233.78 122.74 234.83C123.06 231.5 123.84 222.9 120.85 221.85C117.23 220.45 116.76 224.83 116.76 224.83C116.76 224.83 115.5 231.67 113.93 234.66C112.35 237.82 111.57 242.03 114.56 246.24C117.39 250.28 122.27 253.26 122.59 258.35C122.59 258.35 123.38 263.79 124.32 270.28C127 264.66 129.67 259.22 132.66 253.08C133.29 251.85 134.08 250.8 134.86 249.57L134.87 249.59ZM136.61 238.61C136.89 239.05 137.49 239.12 137.71 239.59C138.5 241.34 138.81 243.28 138.97 245.2C138.81 244.85 138.81 244.32 138.65 243.97C138.27 242.29 137.6 240.33 136.61 238.6C135.44 236.76 134.07 234.92 132.04 234.49C134.09 235.13 135.54 236.72 136.61 238.6V238.61Z" fill="#FAD9A3"/>
<path d="M137.07 292.76C139.43 292.76 141.95 292.76 143.99 291.35C145.41 290.3 146.51 288.72 147.3 287.14C149.5 283.1 151.08 278.89 151.55 274.33C147.93 273.45 147.3 271.87 147.3 271H147.46C147.3 270.3 147.78 269.77 147.78 269.77C147.78 269.77 155.65 262.22 155.8 259.07C155.96 255.91 158.16 249.77 157.85 245.73C157.54 241.69 158.64 239.24 159.11 236.78C158.17 232.22 152.5 236.95 150.45 239.06C150.29 240.99 150.29 242.92 149.51 244.85C149.34 245.32 148.69 245.54 148.26 245.97C147.9 246.32 147.76 246.92 147.23 246.93C147.22 246.93 147.21 246.92 147.2 246.92C147.18 246.92 147.18 246.96 147.15 246.96C146.23 246.96 145.46 246.44 144.69 245.93C144.5 247.29 143.38 248.05 142.43 248.36C136.45 257.31 131.41 266.44 127.95 276.44C127.48 277.85 126.85 279.25 126.06 280.3V280.48C126.69 283.64 127.32 286.45 127.95 288.37L128.11 288.55V288.72C128.9 289.6 129.53 290.48 130.47 291.18C132.36 292.59 134.88 292.76 137.08 292.76H137.07ZM142.52 255.71C142.52 255.71 142.49 255.71 142.47 255.71C142.77 255.67 143.06 255.57 143.36 255.51C143.77 255.41 144.17 255.31 144.63 255.21C144.87 255.14 145.04 254.99 145.24 254.87C145.43 254.77 145.62 254.7 145.84 254.54C146.41 254.16 146.99 253.79 147.22 253.03C147.22 253.02 147.23 253.02 147.24 253.01C148.18 251.3 147.82 248.7 148.89 246.75C148.88 246.78 148.89 246.81 148.88 246.83V246.84C148.89 246.82 148.88 246.8 148.9 246.78C148.58 247.83 148.58 248.89 148.58 250.11C148.58 251.16 148.58 252.39 148.11 253.44C148.11 253.44 148.1 253.44 148.1 253.45C147.06 255.62 145.06 255.7 143.32 255.65C143.03 255.65 142.71 255.71 142.45 255.71C142.48 255.71 142.51 255.7 142.55 255.69L142.52 255.71Z" fill="#FAD9A3"/>
<path d="M141.01 232.19C140.89 232.03 140.72 231.88 140.58 231.73C140.88 232 141.19 232.32 141.47 232.63C141.79 233.01 142.13 233.33 142.41 233.75C142.5 233.89 142.66 234 142.74 234.15C143.23 234.98 143.55 236 143.85 237.04C143.94 237.34 144.15 237.58 144.22 237.89V237.92L144.31 238.02V238.34L144.36 238.55V238.49L144.66 241.49V241.51L144.63 244.7C144.68 245.02 144.79 245.32 145.06 245.57C146.66 246.83 148 246.17 148.88 244.44C149.76 242.77 150.14 240.72 150.45 238.72C150.29 236.79 149.98 234.51 149.19 232.58C148.88 231.18 148.25 230.12 147.46 229.07C143.53 224.51 138.8 230.12 138.8 230.12C139.64 230.62 140.3 231.45 141 232.2L141.01 232.19Z" fill="#FAD9A3"/>
<path d="M127.94 276.44C131.4 266.44 136.44 257.31 142.42 248.36C141.63 248.54 140.69 248.36 139.43 247.66V247.83C139.78 248.37 139.26 249.29 138.56 249.94C138.29 250.19 138.05 249.94 137.7 250.06C136.92 250.32 136.09 250.65 135.25 249.63C135.45 249.85 135.7 250.04 135.94 250.31C135.46 250.13 135.03 249.95 134.87 249.59C134.08 250.82 133.3 251.87 132.67 253.1C129.68 259.24 127 264.68 124.33 270.3C123.23 272.4 122.28 274.34 121.18 276.44C119.76 279.25 117.4 283.99 117.09 287.32C116.77 292.58 121.5 288.37 122.6 286.27C123.7 283.99 124.96 282.41 126.06 280.48V280.3C126.85 279.25 127.48 277.84 127.95 276.44H127.94Z" fill="#4D5F5C"/>
<path d="M156.59 232.4C155.65 232.92 154.54 233.269 153.76 233.099C152.5 232.569 152.82 232.399 152.5 230.819C152.5 230.469 152.34 230.12 152.19 229.77C151.25 230.65 150.14 231.699 149.2 232.579C149.99 234.509 150.3 236.789 150.46 238.719C152.35 236.609 154.55 234.51 156.6 232.4H156.59Z" fill="#4D5F5C"/>
<path d="M148.07 253.47C148.86 251.12 148.13 248.94 148.86 246.85V246.84C148.87 246.81 148.86 246.78 148.87 246.76C147.8 248.71 148.17 251.31 147.22 253.02C147.22 253.02 147.21 253.02 147.2 253.04C146.97 253.8 146.39 254.17 145.82 254.55C145.63 254.68 145.42 254.76 145.23 254.88C145.03 255 144.86 255.15 144.62 255.22C144.61 255.22 144.59 255.24 144.58 255.24C144.18 255.36 143.76 255.43 143.35 255.52C143.05 255.59 142.76 255.69 142.46 255.72C142.47 255.72 142.49 255.72 142.51 255.72C142.75 255.72 143.03 255.67 143.29 255.68C145.03 255.72 147.03 255.65 148.07 253.48V253.47Z" fill="#7F6800"/>
<path d="M125.74 243.28C123.54 242.75 122.43 241.35 121.96 239.95C122.12 240.48 122.12 241 122.43 241.53C123.53 243.11 125.42 243.64 127 244.16C130.31 244.68 132.98 246.44 134.87 249.6C135.03 249.95 135.46 250.14 135.94 250.32C135.7 250.05 135.45 249.87 135.25 249.64C135.19 249.57 135.07 249.51 135.03 249.43C131.41 243.82 129.99 244.69 125.74 243.29V243.28Z" fill="#7F6800"/>
<path d="M138.96 245.21C138.8 243.28 138.49 241.35 137.7 239.6C137.49 239.12 136.89 239.06 136.6 238.62C137.59 240.35 138.26 242.31 138.64 243.99C138.8 244.34 138.8 244.87 138.96 245.22V245.21Z" fill="#7F6800"/>
<path d="M132.04 234.5C134.07 234.92 135.44 236.77 136.61 238.61C135.54 236.74 134.09 235.14 132.04 234.5Z" fill="#7F6800"/>
<path d="M142.35 234.31C142.98 235.5 143.51 236.74 143.84 238.02C143.84 238.19 144 238.37 144 238.54C144.16 239.59 144.32 240.65 144.48 241.52C144.62 242.9 144.63 244.05 144.63 244.69C144.44 246.76 143.49 247.88 142.43 248.37C143.38 248.05 144.5 247.29 144.69 245.94C144.69 245.94 144.7 245.94 144.7 245.93C145.36 246.5 146.19 247.02 147.19 246.94C147.2 246.94 147.21 246.95 147.22 246.95C147.75 246.94 147.89 246.34 148.25 245.99C148.68 245.56 149.3 245.33 149.5 244.82C150.25 242.83 150.36 240.76 150.44 238.73C150.13 240.72 149.75 242.77 148.87 244.45C147.99 246.18 146.65 246.84 145.05 245.58C144.77 245.33 144.66 245.04 144.62 244.71L144.65 241.52V241.5L144.34 238.5V238.56L144.3 238.35L144.22 238.03V237.93L144.2 237.9C144.13 237.59 143.92 237.35 143.83 237.05C143.49 235.89 143.04 234.76 142.39 233.76C142.11 233.33 141.78 233.02 141.45 232.64C141.31 232.47 141.13 232.36 140.99 232.2C140.28 231.45 139.63 230.62 138.79 230.12C140 230.95 140.85 232.03 141.61 233.17C141.86 233.55 142.12 233.91 142.33 234.31H142.35Z" fill="#7F6800"/>
<path d="M242.05 281.25L242.13 281.11C247.5 271.25 260.81 268.85 261.88 257.69C262.84 247.73 250.75 242.34 244.89 251.8C240.97 241.17 228.12 243.57 227.16 253.53C226.08 264.69 238.63 270.18 242 281.09L242.05 281.24V281.25Z" fill="#EB3000"/>
<path d="M233.16 595.639C232.98 595.459 232.61 595.089 232.43 594.909C231.9 594.559 231.55 594.389 231.03 594.239H230.86C229.83 593.949 228.67 594.259 227.88 594.939C226.89 595.229 225.94 596.119 225.37 597.379C224.81 598.829 224.61 600.649 225.08 602.399C225.51 603.559 226.45 604.87 227.68 605.55C230.16 607.11 233.28 606.02 234.57 603.1C234.56 602.9 234.86 602.47 234.83 602.08C235.07 600.86 235.32 599.629 234.73 598.489C234.47 597.309 233.9 596.369 233.17 595.639H233.16Z" fill="#C9CA54"/>
<path d="M200.95 576.33C200.54 576.05 200.09 576.49 199.64 576.38C198.37 576.09 197.02 575.75 195.98 576.58C195.34 577.04 194.56 577.91 194.14 578.95C193.41 580.42 193.38 582.22 193.83 583.77C194.27 585.13 195.03 586.26 196.28 587.14C198.76 588.7 202.05 587.59 203.34 584.67C203.31 584.27 203.63 584.04 203.58 583.45C203.69 582.64 203.98 582.01 203.92 581.22C203.89 580.82 203.69 580.44 203.48 579.86C203.37 579.38 203.04 579.16 202.84 578.77C202.56 578.21 202.37 577.52 201.91 577.21C201.75 576.86 201.44 576.69 200.96 576.33H200.95Z" fill="#C9CA54"/>
<path d="M225.03 572.121C215.27 569.141 207.87 565.631 202.05 562.291C200.95 561.761 199.85 561.06 198.74 560.01C197.8 559.14 196.85 558.431 195.91 558.081C194.81 557.381 193.86 556.321 193.08 555.621C187.1 550.181 184.58 545.62 183.95 544.74L183.79 544.561L183 545.44L181.9 546.49L180.48 548.071L171.24 557.321C171.8 558.061 172.36 558.81 172.79 559.97C172.79 559.97 172.79 559.99 172.79 560C177.04 559.3 181.59 560.18 185.68 562.98C190.24 565.79 194.18 571.05 195.91 576.49C196.96 575.71 198.34 576.041 199.63 576.361C200.08 576.471 200.53 576.041 200.94 576.311C201.42 576.661 201.73 576.84 201.89 577.19C202.36 577.5 202.54 578.2 202.82 578.75C203.01 579.14 203.33 579.321 203.46 579.821C203.62 580.341 203.93 580.87 203.93 581.22C208.5 580.17 214 580.871 218.73 583.851C222.82 586.481 225.97 589.82 227.86 594.91C228.65 594.21 229.75 593.86 230.85 594.21H231.01L231.32 573.861C229.12 573.161 227.07 572.81 225.18 571.93L225.02 572.111L225.03 572.121Z" fill="#BCA827"/>
<path d="M171.25 557.33L171.24 557.13C170.89 556.96 170.69 556.58 170.34 556.42C167.86 554.86 164.74 555.95 163.44 558.87C162.71 560.34 162.51 562.16 163.15 563.89C163.41 565.06 164.35 566.37 165.6 567.25C168.08 568.82 171.18 567.53 172.48 564.6C172.63 564.39 172.77 563.97 172.91 563.56C172.99 562.36 173.21 561.15 172.81 560C172.81 560 172.81 559.98 172.81 559.97C172.38 558.81 171.82 558.07 171.26 557.32L171.25 557.33Z" fill="#C9CA54"/>
<path d="M313.65 363.3C313.97 363.83 314.28 364.35 314.59 364.71C317.58 359.09 322.3 354.88 327.81 352.6C333.16 350.49 339.14 350.32 344.65 352.43C344.18 344.71 343.39 336.81 343.39 329.09H293.97C296.49 332.25 298.22 336.11 300.11 339.79C304.04 348.04 308.61 355.93 313.65 363.3Z" fill="#C02828"/>
<path d="M210.87 371.2C221.42 359.09 223.62 343.47 222.68 329.08H228.06C227.58 316.62 223.18 299.6 215.63 281.53C207.76 262.58 212.01 245.91 216.26 236.08C209.33 232.57 203.83 228.71 199.89 225.55C193.28 237.83 179.11 270.12 197.21 291C210.12 305.91 218.14 318.37 222.55 329.08H205.53C194.04 336.45 184.28 346.63 176.88 355.4C174.83 357.68 173.1 359.79 171.69 361.89C165.55 369.78 162.09 375.58 162.09 375.58C162.09 375.58 153.12 396.99 156.42 407.16V407.34C156.89 408.75 157.68 409.97 158.94 410.85L159.1 411.03C162.88 413.66 166.81 420.51 170.12 428.05C178.46 423.49 186.49 420.16 193.89 417.87C193.1 407.17 194.83 389.44 210.89 371.19L210.87 371.2Z" fill="#FF2837"/>
<path d="M228.34 374.88C215.12 374.88 204.42 387.51 204.42 403.13C204.42 407.34 205.21 411.38 206.62 414.89C223.15 412.08 237.16 414.37 248.49 418.4C250.85 414.01 252.27 408.75 252.27 403.13C252.27 387.51 241.57 374.88 228.35 374.88H228.34ZM228.81 406.36C222.95 415.82 210.85 410.44 211.82 400.48C212.89 389.32 226.2 386.92 231.57 377.06L231.65 376.92L231.7 377.07C235.06 387.98 247.61 393.47 246.54 404.63C245.58 414.59 232.74 416.99 228.81 406.36Z" fill="#D69ABF"/>
<path d="M250.85 544.39C250.85 544.39 250.85 544.56 250.69 544.56C250.69 544.56 242.98 552.63 212.91 546.49H212.75C210.08 545.97 207.08 545.44 203.94 544.56C196.54 538.59 196.54 535.26 196.54 535.26C196.54 535.26 195.91 522.1 190.56 517.18C187.73 509.29 177.18 463.31 177.81 455.24C177.81 453.83 177.49 451.73 176.87 449.1C175.77 444.01 173.88 437.52 171.36 431.03C170.89 429.98 170.57 429.1 170.1 428.05C166.79 420.51 162.86 413.66 159.08 411.03L158.92 410.85C157.66 409.97 156.87 408.75 156.4 407.34V407.16C150.42 400.14 134.68 386.1 105.87 392.25C106.19 393.83 106.5 395.41 106.97 396.81C115 423.13 131.21 443.49 131.21 443.49C131.21 443.49 157.81 468.06 159.7 480.16C161.43 492.27 183.78 544.56 183.78 544.56L183.94 544.74C184.57 545.62 187.09 550.181 193.07 555.621C193.86 556.321 194.8 557.381 195.9 558.081C196.84 558.431 197.79 559.13 198.73 560.01C199.83 561.06 200.93 561.77 202.04 562.29C207.86 565.62 215.26 569.131 225.02 572.121L225.18 571.94C227.07 572.82 229.12 573.171 231.32 573.871C231.32 573.871 248 571.06 252.57 555.27C258.24 552.29 262.49 542.46 257.76 540.53C257.6 540.53 257.44 540.361 257.13 540.361C253.67 540.361 251.31 543.52 250.83 544.4L250.85 544.39Z" fill="#DAE5F1"/>
<path d="M171.67 361.9C173.09 359.79 174.82 357.69 176.86 355.41C166.16 349.27 141.6 338.56 106.66 342.42C106.35 344.7 105.72 347.16 105.24 349.97C137.66 342.77 160.8 354.36 171.66 361.9H171.67Z" fill="#004B98"/>
<path d="M176.87 355.41C184.27 346.63 194.03 336.46 205.52 329.09H222.54C218.13 318.39 210.11 305.93 197.2 291.01C179.1 270.13 193.27 237.84 199.88 225.56C199.09 224.86 197.04 223.45 196.1 224.16C188.7 225.91 183.51 234.16 181.46 242.41C180.83 244.52 180.36 246.97 180.2 249.25C179.89 251.18 179.73 253.11 179.73 255.04C179.73 264.69 182.41 274.34 182.41 283.99C182.41 291.18 181.15 298.73 183.51 305.57C185.56 311.18 190.12 315.4 192.95 320.66C194.37 323.47 195.31 326.27 196.57 329.08H130.3C130.3 321.36 129.51 313.46 129.04 305.74C128.88 304.51 128.88 303.28 128.73 302.05C127.79 302.75 126.84 303.45 125.74 304.15C123.22 306.08 120.7 308.54 118.5 311C116.3 313.28 114.41 315.74 112.99 318.54C111.26 321.87 110.47 325.38 110.16 329.07H109.98C109.04 332.4 107.93 336.79 106.67 342.41C141.61 338.55 166.17 349.25 176.87 355.4V355.41Z" fill="#949DFF"/>
<path d="M156.41 407.17C153.1 396.99 162.08 375.59 162.08 375.59C162.08 375.59 165.54 369.8 171.68 361.9C160.82 354.35 137.68 342.77 105.26 349.97C104.79 351.9 104.47 354.01 104 356.11C101.48 368.39 102.74 380.85 105.89 392.26C134.7 386.12 150.44 400.16 156.42 407.17H156.41Z" fill="#949DFF"/>
<path d="M190.56 517.19C195.91 522.11 196.54 535.27 196.54 535.27C196.54 535.27 196.54 538.6 203.94 544.57C207.09 545.45 210.08 545.98 212.75 546.5C210.86 544.92 209.45 542.64 208.82 540.18C207.25 534.04 209.92 526.84 206.62 521.75C205.52 520.17 203.94 518.94 203 517.36C200.64 513.32 202.68 508.06 204.57 503.85C206.3 499.64 208.03 494.2 205.2 490.51C204.41 489.46 203.15 488.58 202.37 487.18C199.85 482.44 206.46 475.6 203.16 471.39C201.74 469.46 199.07 469.46 197.34 467.7C195.61 465.77 195.77 462.79 195.29 459.98C194.97 456.82 193.56 454.01 191.51 451.91C190.41 450.5 188.99 449.45 187.42 448.75C187.26 448.58 186.95 448.58 186.79 448.4C183.64 447 179.86 447.35 176.87 449.1C177.5 451.73 177.81 453.84 177.81 455.24C177.18 463.31 187.73 509.29 190.56 517.18V517.19Z" fill="#0D0D0D"/>
<path d="M271.78 436.12C271.78 436.12 271.78 435.95 271.94 435.95C271 435.95 270.37 435.77 269.89 435.42C268.32 434.37 269.1 431.73 267.06 430.16C265.17 428.58 263.6 430.51 260.76 429.11C258.08 427.88 258.4 425.78 256.19 424.72C256.03 424.55 255.88 424.37 255.72 424.37C253.05 423.32 251.79 425.78 248.95 424.72C246.27 423.84 246.59 421.56 243.91 420.51C241.08 419.46 240.13 421.74 236.67 421.21C233.21 420.51 233.21 418.23 229.9 417.7C226.75 417.17 226.28 419.1 222.66 419.1C218.25 418.93 217.47 415.94 214 416.64C211.01 417.17 211.17 419.27 208.02 419.8C204.4 420.5 203.14 417.34 200 418.4C197.48 419.28 197.64 421.73 194.81 422.61H194.49C191.97 423.31 191.03 421.56 188.67 422.44C185.68 423.49 185.84 426.65 183 427.35C180.8 427.88 180.17 426.12 178.28 426.82C176.08 427.7 176.23 429.98 174.19 431.03C173.56 431.38 172.77 431.55 171.36 431.03C173.88 437.52 175.77 444.01 176.87 449.1C179.86 447.35 183.64 447 186.79 448.4C186.95 448.58 187.26 448.58 187.42 448.75C187.89 448.05 188.52 447.7 189.31 447.7C189.78 447.7 190.25 447.87 190.57 448.05C191.04 447 191.83 446.29 192.93 446.29C193.4 446.29 193.87 446.47 194.19 446.82C194.67 445.94 195.45 445.24 196.39 445.24C196.86 445.24 197.33 445.42 197.81 445.77C198.13 444.72 199.07 444.19 200.01 444.19C200.48 444.19 200.8 444.36 201.27 444.71C201.74 444.01 202.37 443.48 203.32 443.48C203.79 443.48 204.26 443.66 204.74 444.01C205.37 443.31 206 442.96 206.63 442.96C207.1 442.96 207.57 443.13 208.04 443.66C208.52 442.96 209.14 442.61 209.93 442.61C210.56 442.61 211.19 442.79 211.51 443.31C211.82 442.78 212.45 442.61 213.08 442.61C213.71 442.61 214.34 442.96 214.81 443.49C215.28 442.97 215.75 442.79 216.23 442.79C216.86 442.79 217.49 443.14 217.8 443.67C218.27 443.32 218.74 443.14 219.22 443.14C220.01 443.14 220.64 443.49 220.95 444.02C221.27 443.84 221.74 443.67 222.21 443.67C222.84 443.67 223.47 444.02 223.94 444.72C224.26 444.55 224.57 444.37 225.04 444.37C225.83 444.37 226.61 444.9 226.93 445.6H227.09C227.25 445.43 227.56 445.43 227.88 445.43C228.67 445.43 229.46 445.95 229.77 446.83C229.93 446.65 230.24 446.65 230.56 446.65C231.5 446.65 232.45 447.18 232.76 448.23C232.92 448.05 233.08 448.05 233.23 448.05C234.17 448.05 234.96 448.58 235.43 449.63H235.74C236.84 449.63 237.79 450.33 238.1 451.56H238.26C239.2 451.56 239.83 452.09 240.31 452.79C242.04 451.56 244.4 450.68 247.08 450.33C252.43 449.81 257.94 447.7 262.66 444.72C263.45 444.2 264.23 443.67 265.02 442.97C267.7 441.21 269.9 438.93 271.79 436.3V436.12H271.78Z" fill="#FFA9BA"/>
<path d="M235.73 455.25C234.63 455.25 233.84 454.55 233.37 453.49H233.21C232.27 453.49 231.32 452.96 230.85 452.08H230.54C229.6 452.08 228.81 451.55 228.49 450.85C228.33 451.03 228.02 451.03 227.86 451.03C226.92 451.03 226.29 450.5 225.97 449.8H225.81C225.65 449.97 225.34 449.97 225.02 449.97C224.23 449.97 223.6 449.62 223.13 448.92C222.81 449.09 222.5 449.09 222.19 449.09C221.56 449.09 220.93 448.74 220.46 448.21C220.14 448.38 219.67 448.56 219.2 448.56C218.41 448.56 217.78 448.21 217.47 447.86C217.16 448.04 216.68 448.21 216.21 448.21C215.58 448.21 214.95 447.86 214.48 447.51C214.01 447.86 213.54 448.03 213.06 448.03C212.58 448.03 212.12 447.85 211.64 447.33C211.17 447.85 210.54 448.21 209.91 448.21C209.44 448.21 208.97 448.03 208.5 447.51C208.02 448.21 207.4 448.56 206.61 448.56C206.13 448.56 205.67 448.38 205.19 448.03C204.72 448.56 204.09 448.91 203.3 448.91C202.83 448.91 202.36 448.73 201.88 448.38C201.56 449.26 200.78 449.79 199.99 449.79C199.52 449.79 199.05 449.61 198.57 449.09C198.25 450.14 197.31 450.67 196.37 450.67C196.05 450.67 195.58 450.49 195.27 450.32C194.8 451.37 193.85 451.9 192.91 451.9C192.44 451.9 191.97 451.72 191.65 451.55C191.65 451.73 191.49 451.9 191.49 451.9C193.54 454.01 194.95 456.81 195.27 459.97C195.74 462.78 195.58 465.76 197.32 467.69C199.05 469.45 201.73 469.45 203.14 471.38C206.45 475.59 199.83 482.44 202.35 487.17C203.14 488.58 204.4 489.45 205.18 490.5C208.01 494.19 206.28 499.62 204.55 503.84C202.66 508.05 200.62 513.32 202.98 517.35C203.92 518.93 205.5 520.16 206.6 521.74C209.9 526.83 207.23 534.02 208.8 540.17C209.43 542.63 210.85 544.91 212.73 546.49H212.89C242.95 552.63 250.67 544.56 250.67 544.56C250.83 544.56 250.83 544.39 250.83 544.39C251.62 540.7 252.4 535.09 252.4 530.35C250.04 531.23 247.52 531.4 245 530.53C242.64 529.65 240.75 527.02 240.12 524.21C239.65 521.4 239.8 518.6 240.12 515.79C240.43 512.98 240.75 510.53 242.17 507.72C243.43 505.26 244.85 501.05 241.85 500.35C239.8 500.52 237.76 500.52 235.71 500.35C234.14 500.17 232.25 500 230.83 501.05C231.93 499.64 234.14 499.64 235.71 499.47C237.76 499.47 239.8 499.64 241.85 499.29H242.01C243.74 499.47 245.16 501.75 244.68 503.5C244.52 505.43 244.05 507.01 243.26 508.41V508.59C242.32 510.69 242 513.5 241.53 516.13C241.21 518.76 240.9 521.39 241.37 524.03C241.69 526.49 243.1 528.77 245.31 529.64C247.51 530.69 250.03 530.87 252.39 530.34V529.64C252.71 528.06 252.87 526.48 253.02 525.08C247.98 526.13 242.16 523.32 242.16 523.32C245.78 524.2 250.19 524.37 253.18 523.15C253.18 522.45 253.34 521.74 253.34 521.22C252.55 521.4 246.57 524.03 242.64 520.87C241.7 519.12 243.9 516.83 243.9 516.83C243.9 516.83 246.57 513.5 253.19 515.95C253.19 515.95 257.28 500.33 245.63 483.49C240.28 472.26 238.39 469.63 233.67 468.75C232.1 468.23 232.88 463.14 232.88 463.14C232.88 463.14 233.82 459.63 236.65 456.3C236.34 456.12 236.02 455.77 235.86 455.25H235.7H235.73ZM223.77 514.38C228.49 514.73 229.91 518.07 230.07 521.4V521.93C230.07 521.93 227.65 522.34 224.05 522.36C224.04 522.36 224.03 522.38 224.01 522.38C223.99 522.38 223.98 522.36 223.97 522.36C221.37 522.37 218.25 522.21 214.64 521.4C213.22 520.35 219.21 513.86 223.77 514.38ZM229.6 522.28C229.6 522.28 220.16 529.3 214.65 522.28C216.85 523.51 226.61 523.51 229.6 522.28ZM222.36 533.69C219.37 533.34 216.38 532.28 214.33 530C219.52 532.63 225.19 532.63 230.54 530C228.49 532.28 225.35 533.33 222.36 533.69ZM241.3 487.52C242.47 488.08 243 489.09 243.18 490.44C243.42 492.25 243.37 493.08 241.67 493.13C241.43 493.13 241.19 493.15 240.96 493.16C238.5 493.3 236.67 493.75 234.19 494.7C231.93 495.57 226.76 495.46 229.48 491.44C230.13 490.47 231.15 489.46 232.04 488.75C232.88 488.09 233.77 487.43 234.77 487.17C235.4 487.01 236.06 487.01 236.7 487.01C238.19 487.01 239.9 486.83 241.3 487.5V487.52ZM235.63 480.67C235.82 480.66 236.02 480.65 236.2 480.72C236.41 480.8 236.58 480.99 236.73 481.17C237.33 481.91 238.85 484.19 238.05 485.1C237.15 486.12 234.18 485.55 233.12 485.24C232.64 485.1 232.15 484.89 231.85 484.44C231.71 484.23 231.56 483.94 231.33 483.98C231.34 483.46 231.35 482.95 231.36 482.44C231.37 481.95 231.41 481.39 231.76 481.08C232.01 480.87 232.34 480.84 232.65 480.82C233.64 480.77 234.63 480.72 235.63 480.66V480.67Z" fill="#FFA9BA"/>
<path d="M240.3 452.79C240.62 453.14 240.77 453.66 240.77 454.19C240.77 455.77 239.67 457 238.25 457C237.62 457 237.15 456.82 236.67 456.3C233.84 459.63 232.9 463.14 232.9 463.14C232.9 463.14 232.11 468.23 233.69 468.75C238.41 469.63 240.3 472.26 245.65 483.49C257.3 500.34 253.21 515.95 253.21 515.95C253.21 515.95 253.37 517.88 253.37 521.21C253.37 521.74 253.21 522.44 253.21 523.14C250.22 524.37 245.81 524.19 242.19 523.31C242.19 523.31 248.01 526.12 253.05 525.07C252.89 526.48 252.73 528.05 252.42 529.63V530.33C252.42 535.07 251.63 540.68 250.85 544.37C251.32 543.49 253.68 540.33 257.15 540.33C257.47 540.33 257.62 540.5 257.78 540.5C258.09 536.81 257.94 532.96 258.72 529.27C259.82 524.88 262.5 520.85 262.65 516.29C262.65 511.55 260.13 506.46 262.33 502.43C263.12 501.38 264.22 500.5 265.01 499.27C267.53 495.23 265.64 489.97 265.64 485.06C265.8 479.45 268.16 473.13 264.85 468.92C263.43 467.16 261.39 466.29 259.5 464.88C257.77 463.47 256.51 460.67 257.61 458.74C258.08 457.69 259.19 457.16 259.97 456.46C262.8 454.18 264.22 449.79 263.28 446.11C263.12 445.58 262.96 445.06 262.65 444.7C257.93 447.68 252.42 449.79 247.07 450.31C244.4 450.66 242.03 451.54 240.3 452.77V452.79Z" fill="#0D0D0D"/>
<path d="M241.4 524.04C240.93 521.41 241.24 518.78 241.56 516.14C242.03 513.51 242.35 510.7 243.29 508.6V508.42C244.08 507.01 244.55 505.44 244.71 503.51C245.18 501.75 243.77 499.47 242.04 499.3H241.88C239.83 499.65 237.79 499.48 235.74 499.48C234.17 499.65 231.97 499.65 230.86 501.06C232.28 500.01 234.17 500.18 235.74 500.36C237.79 500.53 239.83 500.53 241.88 500.36C244.87 501.06 243.46 505.27 242.2 507.73C240.78 510.54 240.47 512.99 240.15 515.8C239.83 518.61 239.68 521.41 240.15 524.22C240.78 527.03 242.67 529.66 245.03 530.54C247.55 531.42 250.07 531.24 252.43 530.36C250.07 530.89 247.55 530.71 245.35 529.66C243.15 528.78 241.73 526.5 241.41 524.05L241.4 524.04Z" fill="#0D0D0D"/>
<path opacity="0.26" d="M214.33 530C216.38 532.28 219.37 533.33 222.36 533.69C225.35 533.34 228.5 532.28 230.54 530C225.19 532.63 219.52 532.63 214.33 530Z" fill="#0D0D0D"/>
<path d="M229.6 522.28C226.61 523.51 216.85 523.51 214.65 522.28C220.16 529.3 229.6 522.28 229.6 522.28Z" fill="#0D0D0D"/>
<path d="M221.33 519.38C221.33 517.73 222.53 516.39 224.02 516.39C225.51 516.39 226.7 517.73 226.7 519.38C226.7 521.03 225.52 522.33 224.05 522.36C227.64 522.34 230.07 521.93 230.07 521.93V521.4C229.91 518.07 228.49 514.73 223.77 514.38C219.21 513.86 213.22 520.35 214.64 521.4C218.25 522.21 221.37 522.37 223.97 522.36C222.51 522.33 221.32 521.02 221.32 519.38H221.33Z" fill="#CCCCCC"/>
<path d="M243.92 516.841C243.92 516.841 241.72 519.12 242.66 520.88C246.59 524.04 252.58 521.41 253.36 521.23C253.36 517.9 253.2 515.97 253.2 515.97C246.59 513.51 243.91 516.851 243.91 516.851L243.92 516.841ZM249.59 516.14C249.59 516.14 249.59 516.17 249.61 516.17C249.63 516.17 249.63 516.121 249.65 516.121C251.13 516.121 252.34 517.461 252.34 519.111C252.34 520.761 251.14 522.111 249.65 522.111C249.63 522.111 249.64 522.071 249.62 522.071C249.6 522.071 249.61 522.111 249.59 522.111C248.17 522.111 246.91 520.7 246.91 519.13C246.91 517.56 248.17 516.15 249.59 516.15V516.14Z" fill="#CCCCCC"/>
<path d="M226.7 519.38C226.7 517.73 225.5 516.39 224.02 516.39C222.54 516.39 221.33 517.73 221.33 519.38C221.33 521.03 222.51 522.33 223.98 522.36C223.99 522.36 224 522.38 224.02 522.38C224.03 522.38 224.04 522.36 224.06 522.36C225.52 522.33 226.71 521.02 226.71 519.38H226.7Z" fill="black"/>
<path d="M249.62 522.07C249.62 522.07 249.63 522.11 249.65 522.11C251.13 522.11 252.34 520.77 252.34 519.11C252.34 517.45 251.14 516.12 249.65 516.12C249.63 516.12 249.63 516.17 249.61 516.17C248.16 516.21 246.97 517.49 246.97 519.12C246.97 520.75 248.16 522.04 249.62 522.08V522.07Z" fill="black"/>
<path d="M231.76 481.08C231.42 481.38 231.37 481.94 231.36 482.44C231.35 482.95 231.34 483.47 231.33 483.98C231.56 483.94 231.71 484.23 231.85 484.44C232.14 484.89 232.64 485.09 233.12 485.24C234.18 485.55 237.15 486.12 238.05 485.1C238.85 484.19 237.33 481.91 236.73 481.17C236.58 480.99 236.41 480.81 236.2 480.72C236.02 480.65 235.82 480.66 235.63 480.67C234.64 480.72 233.65 480.77 232.65 480.83C232.34 480.85 232.01 480.87 231.76 481.09V481.08Z" fill="#D69ABF"/>
<path d="M234.76 487.18C233.75 487.44 232.87 488.09 232.03 488.76C231.14 489.46 230.12 490.479 229.47 491.449C226.76 495.469 231.92 495.579 234.18 494.709C236.66 493.759 238.49 493.3 240.95 493.17C241.18 493.16 241.42 493.15 241.66 493.14C243.36 493.09 243.41 492.259 243.17 490.449C242.99 489.099 242.46 488.09 241.29 487.53C239.88 486.86 238.18 487.04 236.69 487.04C236.04 487.04 235.39 487.039 234.76 487.199V487.18Z" fill="#940025"/>
<path d="M303.89 372.78C302.16 371.73 300.58 370.32 299.17 368.74C290.2 357.86 288.78 341.01 279.49 330.31C279.18 329.78 278.7 329.43 278.23 329.08H277.13C278.39 331.89 279.33 334.69 280.75 337.5C283.58 342.76 288.15 346.98 290.19 352.59C292.55 359.44 291.29 366.98 291.29 374.17C291.29 383.82 293.97 393.47 293.97 403.12C293.97 405.05 293.81 406.98 293.49 408.91C295.54 407.68 297.11 406.1 298.53 404.17C300.73 401.01 302.15 397.5 303.88 393.99C307.5 386.79 311.75 379.95 316.95 373.81C312.54 374.86 307.98 375.04 303.88 372.76L303.89 372.78Z" fill="#004B98"/>
<path d="M317.74 371.02C317.11 368.56 315.85 366.63 314.59 364.7C314.27 364.35 313.96 363.82 313.65 363.29C308.61 355.92 304.05 348.02 300.11 339.78C298.22 336.09 296.49 332.23 293.97 329.08H278.23C278.7 329.43 279.17 329.78 279.49 330.31C288.78 341.01 290.19 357.86 299.17 368.74C300.58 370.32 302.16 371.72 303.89 372.78C307.98 375.06 312.55 374.89 316.96 373.83C317.43 373.83 317.75 373.66 318.06 373.48C318.06 373.13 318.06 372.78 317.9 372.6C317.9 372.07 317.9 371.55 317.74 371.02Z" fill="#EB3000"/>
<path d="M327.82 352.6C322.31 354.88 317.59 359.09 314.6 364.71C315.86 366.64 317.12 368.57 317.75 371.03C317.91 371.56 317.91 372.08 317.91 372.61C318.07 372.79 318.07 373.14 318.07 373.49C318.23 374.72 318.39 376.12 318.7 377.35C319.17 379.8 320.43 382.09 322.16 383.84C322.64 379.28 324.21 375.06 326.41 371.03C327.2 369.45 328.3 367.87 329.72 366.82C331.77 365.42 334.28 365.42 336.64 365.42C338.84 365.42 341.36 365.59 343.25 367C344.19 367.7 344.82 368.58 345.61 369.46C345.45 365.07 345.29 360.51 344.98 356.12C344.82 354.89 344.82 353.66 344.67 352.43C339.16 350.32 333.18 350.5 327.83 352.6H327.82Z" fill="#EDEFEC"/>
<path d="M248.48 418.4C237.15 414.36 223.14 412.08 206.61 414.89C202.52 415.59 198.27 416.47 193.86 417.87C186.46 420.15 178.43 423.49 170.09 428.05C170.56 429.1 170.88 429.98 171.35 431.03C172.77 431.55 173.55 431.38 174.18 431.03C176.23 429.98 176.07 427.7 178.27 426.82C180.16 426.12 180.79 427.87 182.99 427.35C185.82 426.65 185.67 423.49 188.66 422.44C191.02 421.56 191.97 423.32 194.48 422.61H194.8C197.63 421.74 197.47 419.28 199.99 418.4C203.14 417.35 204.4 420.51 208.01 419.8C211.16 419.28 211 417.17 213.99 416.64C217.45 415.94 218.24 418.92 222.65 419.1C226.27 419.1 226.74 417.17 229.89 417.7C233.2 418.22 233.2 420.51 236.66 421.21C240.12 421.74 241.07 419.45 243.9 420.51C246.57 421.56 246.26 423.84 248.94 424.72C251.77 425.77 253.03 423.32 255.71 424.37C255.87 424.37 256.03 424.55 256.18 424.72C258.38 425.77 258.07 427.88 260.75 429.11C263.58 430.52 265.16 428.59 267.05 430.16C269.1 431.74 268.31 434.37 269.88 435.42C270.35 435.77 270.98 435.95 271.93 435.95C272.72 435.77 273.82 435.42 275.08 434.54H275.24C275.4 434.54 275.71 434.54 275.87 434.37C275.87 434.37 275.71 434.37 275.71 434.19C275.08 433.84 274.61 433.31 273.82 432.61C269.89 429.45 264.38 425.59 257.45 422.08C254.62 420.85 251.78 419.62 248.48 418.39V418.4Z" fill="#DFE900"/>
<path d="M275.09 434.54C273.83 435.42 272.73 435.769 271.94 435.949C271.78 435.949 271.78 436.12 271.78 436.12V436.3C269.89 438.93 267.69 441.209 265.01 442.969C265.48 444.199 266.27 445.07 267.21 445.78C268.79 446.83 271.15 446.649 272.56 445.079C273.03 444.559 273.35 443.849 273.82 443.329C274.29 442.449 275.08 441.749 275.87 441.219C276.66 440.689 277.29 440.339 277.76 439.459C278.24 438.759 278.39 437.71 278.24 436.65C278.24 436.3 278.24 435.949 278.08 435.599C278.08 435.079 277.92 434.55 277.61 434.02C276.67 434.73 275.88 434.37 275.88 434.37C275.72 434.54 275.25 434.54 275.09 434.54Z" fill="#949DFF"/>
<path d="M191.66 451.56C191.98 451.74 192.45 451.91 192.92 451.91C193.86 451.91 194.81 451.38 195.28 450.33C195.59 450.51 196.07 450.68 196.38 450.68C197.32 450.68 198.27 450.15 198.58 449.1C199.05 449.63 199.52 449.8 200 449.8C200.79 449.8 201.57 449.27 201.89 448.39C202.36 448.74 202.83 448.92 203.31 448.92C204.1 448.92 204.73 448.57 205.2 448.04C205.67 448.39 206.14 448.57 206.62 448.57C207.41 448.57 208.03 448.22 208.51 447.52C208.98 448.04 209.45 448.22 209.92 448.22C210.55 448.22 211.18 447.87 211.65 447.34C212.12 447.86 212.59 448.04 213.07 448.04C213.55 448.04 214.01 447.86 214.49 447.52C214.96 447.87 215.59 448.22 216.22 448.22C216.69 448.22 217.16 448.04 217.48 447.87C217.8 448.22 218.42 448.57 219.21 448.57C219.68 448.57 220.15 448.39 220.47 448.22C220.94 448.74 221.57 449.1 222.2 449.1C222.52 449.1 222.83 449.1 223.14 448.93C223.61 449.63 224.24 449.98 225.03 449.98C225.35 449.98 225.66 449.98 225.82 449.81H225.98C226.3 450.51 226.92 451.04 227.87 451.04C228.03 451.04 228.34 451.04 228.5 450.86C228.82 451.56 229.6 452.09 230.55 452.09H230.86C231.33 452.97 232.28 453.5 233.22 453.5H233.38C233.85 454.55 234.64 455.26 235.74 455.26H235.9C236.06 455.78 236.37 456.13 236.69 456.31C237.17 456.83 237.63 457.01 238.27 457.01C239.69 457.01 240.79 455.78 240.79 454.2C240.79 453.67 240.63 453.15 240.32 452.8C239.85 452.1 239.22 451.57 238.27 451.57H238.11C237.79 450.34 236.85 449.64 235.75 449.64H235.44C234.97 448.59 234.18 448.06 233.24 448.06C233.08 448.06 232.93 448.06 232.77 448.24C232.45 447.19 231.51 446.66 230.57 446.66C230.25 446.66 229.94 446.66 229.78 446.84C229.47 445.96 228.68 445.44 227.89 445.44C227.57 445.44 227.26 445.44 227.1 445.61H226.94C226.62 444.91 225.84 444.38 225.05 444.38C224.58 444.38 224.26 444.56 223.95 444.73C223.48 444.03 222.85 443.68 222.22 443.68C221.75 443.68 221.28 443.85 220.96 444.03C220.65 443.5 220.02 443.15 219.23 443.15C218.76 443.15 218.29 443.33 217.81 443.68C217.49 443.15 216.87 442.8 216.24 442.8C215.77 442.8 215.3 442.98 214.82 443.5C214.35 442.98 213.72 442.62 213.09 442.62C212.46 442.62 211.83 442.8 211.52 443.32C211.2 442.79 210.58 442.62 209.94 442.62C209.15 442.62 208.53 442.97 208.05 443.67C207.58 443.14 207.11 442.97 206.64 442.97C206.01 442.97 205.38 443.32 204.75 444.02C204.28 443.67 203.81 443.49 203.33 443.49C202.39 443.49 201.75 444.02 201.28 444.72C200.81 444.37 200.49 444.2 200.02 444.2C199.08 444.2 198.13 444.72 197.82 445.78C197.35 445.43 196.88 445.25 196.4 445.25C195.46 445.25 194.67 445.95 194.2 446.83C193.89 446.48 193.41 446.3 192.94 446.3C191.84 446.3 191.05 447 190.58 448.06C190.26 447.88 189.79 447.71 189.32 447.71C188.53 447.71 187.9 448.06 187.43 448.76C189.01 449.46 190.42 450.52 191.52 451.92C191.52 451.92 191.68 451.74 191.68 451.57L191.66 451.56Z" fill="#DFE900"/>
<path d="M290.2 476.13C289.73 476.13 289.41 475.96 288.94 475.78H288.78C288.673 475.66 288.567 475.483 288.46 475.25C286.73 476.48 281.38 481.04 283.42 484.55C283.89 485.6 284.52 486.3 285.15 487.01C288.46 490.17 294.12 488.59 295.7 486.31H294.76C290.83 486.31 290.35 477.54 290.2 476.13Z" fill="#EB3C4E"/>
<path d="M288.46 475.25C288.14 475.08 287.83 474.55 287.67 474.02C287.51 473.85 287.51 473.67 287.36 473.5C285.31 473.15 278.54 472.62 277.92 476.66C277.76 477.19 277.76 477.54 277.76 477.89C277.45 483.15 282.17 486.66 285.16 487.02C284.53 486.32 283.9 485.61 283.43 484.56C281.38 481.05 286.73 476.49 288.47 475.26L288.46 475.25Z" fill="#FF5559"/>
<path d="M287.36 473.5C287.36 472.97 287.2 472.45 287.2 471.92C287.2 471.22 287.36 470.69 287.36 470.17L287.52 469.99C285.47 468.24 281.38 464.9 279.02 467.36L277.6 468.94C276.03 471.75 276.5 475.26 277.76 477.89C277.76 477.54 277.76 477.19 277.92 476.66C278.55 472.62 285.32 473.15 287.36 473.5Z" fill="#EB3C4E"/>
<path d="M287.52 469.99C287.84 469.29 288.15 468.76 288.62 468.41C288.94 468.06 289.41 467.71 289.88 467.71C289.41 465.08 287.83 458.76 284.53 459.11C284.21 459.11 284.06 459.11 283.74 459.29C279.18 460.16 277.29 465.43 277.6 468.94L279.02 467.36C281.38 464.9 285.47 468.24 287.52 469.99Z" fill="#FF5559"/>
<path d="M293.03 471.74V471.91C293.03 472.96 292.71 473.84 292.4 474.54C292.24 474.72 292.24 474.89 292.09 475.07C293.35 477.7 295.39 481.21 298.07 480.51C300.27 479.98 301.69 478.4 302.48 476.47C304.37 472.79 303.58 467.7 301.85 467.17C301.85 467.7 301.85 468.22 301.69 468.75C300.9 472.26 295.55 472.08 293.03 471.73V471.74Z" fill="#EB3C4E"/>
<path d="M292.09 475.08C291.77 475.43 291.46 475.78 291.15 475.78C290.83 475.96 290.52 476.13 290.21 476.13C290.37 477.54 290.84 486.31 294.77 486.31H295.71C300.75 485.96 303.11 479.82 302.48 476.48C301.69 478.41 300.28 479.99 298.07 480.52C295.39 481.22 293.35 477.71 292.09 475.08Z" fill="#FF5559"/>
<path d="M290.2 467.71H289.88C289.41 467.71 288.94 468.06 288.62 468.41C288.15 468.76 287.83 469.29 287.52 469.99C287.68 470.17 287.84 470.17 287.84 470.34C287.68 470.34 287.52 470.17 287.37 470.17C287.37 470.69 287.21 471.22 287.21 471.92C287.21 472.45 287.37 472.97 287.37 473.5C287.53 473.67 287.53 473.85 287.68 474.02C287.84 474.55 288.15 475.07 288.47 475.25C288.577 475.483 288.683 475.66 288.79 475.78H288.95C289.42 475.96 289.74 476.13 290.21 476.13C290.52 476.13 290.84 475.96 291.15 475.78C291.46 475.78 291.78 475.43 292.09 475.08C292.25 474.9 292.25 474.73 292.4 474.55C292.72 473.85 293.03 472.97 293.03 471.92V471.75C293.03 471.05 292.87 470.52 292.71 469.99C292.55 469.64 292.39 469.29 292.24 468.94C291.92 468.59 291.61 468.24 291.3 468.06C290.98 467.88 290.51 467.71 290.2 467.71Z" fill="white"/>
<path d="M287.52 469.99L287.36 470.17C287.52 470.17 287.67 470.34 287.83 470.34C287.83 470.17 287.67 470.17 287.51 469.99H287.52Z" fill="#FAD9A3"/>
<path d="M305.46 438.76C304.67 438.93 303.73 438.93 302.78 438.93C301.21 439.11 299.47 439.28 297.9 439.11C295.22 438.93 292.39 438.58 290.5 436.48C289.08 434.9 288.45 432.62 287.83 430.51C285.94 431.04 284.68 432.97 284.05 434.9C283.58 437.01 283.58 439.11 283.73 441.22C283.89 442.45 283.89 443.85 284.52 444.91C285.15 446.31 286.57 447.19 288.14 447.54C289.87 448.24 291.92 448.24 293.81 447.89C294.75 447.72 295.7 447.37 296.8 447.02C297.74 446.67 298.85 446.32 299.79 445.97L302.62 442.28C303.41 441.05 304.35 440 305.45 438.77L305.46 438.76Z" fill="#00503C"/>
<path d="M289.88 467.71H290.2C290.51 467.71 290.99 467.88 291.3 468.06C291.62 468.24 291.93 468.59 292.24 468.94C294.13 467.18 297.28 463.5 296.17 460.69C296.17 460.34 296.17 460.16 296.01 459.99C295.54 459.29 295.22 458.58 294.59 458.06C293.96 457.53 293.17 457.01 292.54 456.83C289.08 455.43 284.83 457.18 283.73 459.29C284.05 459.11 284.2 459.11 284.52 459.11C287.83 458.76 289.4 465.08 289.87 467.71H289.88Z" fill="#EB3C4E"/>
<path d="M296.02 459.99C296.18 460.16 296.18 460.34 296.18 460.69C297.28 463.5 294.13 467.18 292.25 468.94C292.41 469.29 292.56 469.64 292.72 469.99C292.88 470.52 293.04 471.04 293.04 471.75C295.56 472.1 300.91 472.28 301.7 468.77C301.86 468.25 301.86 467.72 301.86 467.19C302.18 463.33 299.81 460.35 297.3 458.94C296.36 458.42 295.41 458.07 294.62 458.07C295.25 458.59 295.56 459.3 296.04 460L296.02 459.99Z" fill="#FF5559"/>
<path d="M303.1 448.76C303.26 449.29 303.26 449.81 303.41 450.34C304.2 454.03 305.93 457.36 308.76 459.29C313.17 462.45 318.99 461.22 324.02 459.64C325.12 459.29 326.54 458.41 326.07 457.18C325.75 455.95 324.34 456.13 323.24 456.13C320.56 456.31 318.2 454.55 316.63 452.27C315.06 449.99 314.27 447.18 313.32 444.55C312.53 442.79 312.22 440.51 311.59 438.58H311.43C310.64 438.58 303.72 438.93 303.09 448.76H303.1Z" fill="#00503C"/>
<path d="M319.94 425.07C319.15 424.9 318.05 425.25 317.11 425.77C317.003 425.77 316.897 425.826 316.79 425.94C316.79 425.59 316.48 425.42 316 425.24C315.68 425.06 315.21 425.24 314.9 425.24C309.07 426.65 303.09 426.12 297.43 424.01C297.11 426.29 296.8 428.75 297.27 431.03C297.58 433.31 298.68 435.59 300.57 436.64C301.36 437.17 302.3 437.17 303.25 437.17C303.72 437.34 304.35 437.34 304.82 437.34C305.45 437.34 306.24 437.34 306.87 436.99H307.03C307.03 436.99 307.03 436.81 307.19 436.81C307.51 436.11 308.13 435.41 308.77 434.71C309.24 434.01 309.87 433.3 310.5 432.6C312.23 430.67 313.96 428.91 315.69 426.99C315.22 427.69 314.9 428.39 314.75 429.09C314.28 430.5 314.12 432.25 314.28 433.83C314.28 434.36 314.28 435.06 314.44 435.58C314.6 437.86 315.07 439.97 316.64 441.37C317.58 442.25 318.69 442.6 319.47 443.48C320.1 444.01 320.57 444.89 321.2 445.41C323.4 447.86 326.55 448.39 329.7 448.92C328.91 448.74 328.76 447.52 328.76 446.81C328.76 445.23 328.92 443.83 328.92 442.25C328.92 441.02 328.92 439.62 328.45 438.39C327.66 436.28 325.77 435.23 324.36 433.65C323.1 432.25 322 430.49 321.53 428.39C321.37 428.04 321.22 427.69 321.22 427.34C320.9 425.76 321.22 425.58 319.96 425.06L319.94 425.07Z" fill="#00503C"/>
<path d="M314.75 429.1C314.91 428.4 315.22 427.7 315.69 427C313.96 428.93 312.23 430.69 310.5 432.61C309.87 433.31 309.24 434.02 308.77 434.72C308.14 435.42 307.51 436.12 307.19 436.82C307.03 436.82 307.03 437 307.03 437H306.87C306.24 437.53 305.77 438.23 305.45 438.76C304.35 439.99 303.4 441.04 302.62 442.27L299.79 445.96C297.27 449.47 294.75 453.15 292.55 456.84C293.18 457.02 293.97 457.54 294.6 458.07C295.39 458.07 296.33 458.42 297.28 458.94C299.01 455.26 301.05 451.92 303.1 448.76C303.73 438.93 310.66 438.58 311.44 438.58H311.6C312.39 437.53 313.33 436.48 314.43 435.6C314.27 435.08 314.27 434.37 314.27 433.85C314.11 432.27 314.27 430.52 314.74 429.11L314.75 429.1Z" fill="#4D5F5C"/>
<path d="M338.83 408.57C340.72 411.73 343.4 413.48 346.7 414.01C348.27 414.53 350.16 415.06 351.27 416.64C351.58 417.17 351.58 417.69 351.74 418.22C351.27 416.82 350.16 415.41 347.96 414.89C343.71 413.49 342.29 414.37 338.67 408.75C338.63 408.66 338.52 408.61 338.45 408.53C337.61 407.51 336.78 407.84 336 408.1C335.72 408.2 335.37 408.02 335.14 408.22C334.44 408.87 333.92 409.78 334.26 410.33V410.5C333 409.8 332.06 409.62 331.27 409.8C330.17 410.33 329.23 411.38 329.07 413.48C329.07 414.12 329.08 415.26 329.22 416.65C329.38 417.53 329.54 418.58 329.7 419.63C329.7 419.8 329.86 419.98 329.86 420.16C330.2 421.43 330.73 422.67 331.35 423.86C331.56 424.26 331.82 424.62 332.07 425C332.83 426.13 333.67 427.22 334.89 428.05C340.56 431.91 342.29 423.84 342.29 423.84C346.7 424.89 349.69 424.37 350.95 423.32C350.63 426.65 349.85 435.25 352.84 436.3C356.46 437.71 356.93 433.32 356.93 433.32C356.93 433.32 358.19 426.48 359.76 423.5C361.34 420.34 362.12 416.13 359.13 411.92C356.3 407.88 351.42 404.9 351.1 399.81C351.1 399.81 350.31 394.37 349.37 387.88C346.69 393.49 344.02 398.94 341.03 405.07C340.4 406.3 339.61 407.35 338.83 408.58V408.57ZM337.09 419.55C336.81 419.11 336.21 419.04 336 418.57C335.21 416.82 334.9 414.88 334.74 412.96C334.9 413.31 334.9 413.84 335.06 414.19C335.44 415.88 336.11 417.83 337.1 419.56C338.27 421.39 339.64 423.24 341.67 423.67C339.62 423.03 338.17 421.43 337.1 419.56L337.09 419.55Z" fill="#FAD9A3"/>
<path d="M336.63 365.41C334.27 365.41 331.75 365.41 329.71 366.81C328.29 367.86 327.19 369.44 326.4 371.02C324.2 375.06 322.62 379.27 322.15 383.83C325.77 384.71 326.4 386.28 326.4 387.16H326.24C326.4 387.86 325.92 388.39 325.92 388.39C325.92 388.39 318.05 395.93 317.9 399.09C317.74 402.25 315.54 408.39 315.85 412.43C316.16 416.47 315.06 418.92 314.59 421.38C315.53 425.94 321.2 421.21 323.25 419.1C323.41 417.17 323.41 415.24 324.19 413.31C324.35 412.86 325 412.65 325.4 412.23C325.76 411.86 325.92 411.25 326.47 411.23C326.48 411.23 326.49 411.24 326.5 411.24C326.52 411.24 326.52 411.2 326.54 411.2C327.46 411.2 328.23 411.71 329 412.23C329.19 410.87 330.31 410.11 331.26 409.8C337.24 400.85 342.28 391.72 345.74 381.72C346.21 380.31 346.84 378.91 347.63 377.86V377.69C347 374.53 346.37 371.72 345.74 369.79L345.58 369.62V369.44C344.79 368.56 344.16 367.68 343.22 366.98C341.33 365.57 338.81 365.4 336.61 365.4L336.63 365.41ZM331.17 402.46C331.17 402.46 331.21 402.46 331.23 402.46C330.9 402.5 330.57 402.61 330.23 402.69C329.86 402.78 329.49 402.88 329.07 402.97C328.86 403.03 328.7 403.17 328.52 403.27C328.31 403.38 328.1 403.46 327.86 403.64C327.29 404.02 326.71 404.39 326.48 405.15C326.48 405.16 326.47 405.16 326.46 405.17C325.52 406.88 325.88 409.48 324.81 411.43C324.82 411.4 324.81 411.37 324.82 411.35V411.34C324.81 411.36 324.82 411.38 324.8 411.4C325.12 410.35 325.12 409.29 325.12 408.07C325.12 407.02 325.12 405.79 325.59 404.74C325.59 404.74 325.6 404.74 325.6 404.73C326.61 402.61 328.53 402.5 330.24 402.53C330.58 402.53 330.94 402.46 331.25 402.46C331.21 402.46 331.18 402.48 331.14 402.49L331.17 402.46Z" fill="#FAD9A3"/>
<path d="M332.69 425.97C332.81 426.13 332.98 426.28 333.11 426.43C332.81 426.16 332.5 425.84 332.22 425.53C331.9 425.14 331.56 424.83 331.28 424.41C331.19 424.27 331.03 424.16 330.95 424.01C330.46 423.18 330.14 422.16 329.84 421.12C329.75 420.82 329.53 420.58 329.47 420.27V420.24L329.38 420.14V419.82L329.33 419.61V419.67L329.03 416.67V416.65L329.06 413.46C329.01 413.14 328.9 412.84 328.63 412.59C327.03 411.33 325.69 411.99 324.81 413.72C323.93 415.39 323.55 417.44 323.24 419.43C323.4 421.36 323.71 423.64 324.5 425.57C324.81 426.98 325.44 428.03 326.23 429.08C330.16 433.64 334.89 428.03 334.89 428.03C334.05 427.53 333.39 426.7 332.69 425.95V425.97Z" fill="#FAD9A3"/>
<path d="M345.76 381.73C342.3 391.73 337.26 400.861 331.28 409.811C332.07 409.631 333.01 409.81 334.27 410.51V410.34C333.92 409.8 334.44 408.88 335.15 408.23C335.42 407.98 335.67 408.23 336.01 408.11C336.79 407.85 337.62 407.52 338.46 408.54C338.26 408.32 338.01 408.13 337.77 407.86C338.25 408.04 338.68 408.23 338.83 408.58C339.62 407.35 340.41 406.3 341.03 405.07C344.02 398.93 346.7 393.49 349.37 387.88C350.47 385.77 351.42 383.84 352.52 381.74C353.94 378.93 356.3 374.19 356.61 370.86C356.92 365.59 352.2 369.81 351.1 371.91C350 374.19 348.74 375.77 347.64 377.7V377.87C346.85 378.92 346.22 380.33 345.75 381.73H345.76Z" fill="#4D5F5C"/>
<path d="M317.11 425.77C318.05 425.24 319.16 424.89 319.94 425.07C321.2 425.6 320.88 425.77 321.2 427.35C321.2 427.7 321.36 428.05 321.51 428.4C322.45 427.52 323.56 426.47 324.5 425.59C323.71 423.66 323.4 421.38 323.24 419.45C321.35 421.56 319.15 423.66 317.1 425.77H317.11Z" fill="#4D5F5C"/>
<path d="M325.63 404.7C324.84 407.05 325.57 409.23 324.84 411.32V411.33C324.83 411.36 324.84 411.39 324.83 411.41C325.89 409.47 325.53 406.86 326.48 405.15C326.48 405.15 326.49 405.15 326.5 405.13C326.73 404.37 327.31 404 327.88 403.62C328.09 403.48 328.33 403.38 328.54 403.25C328.72 403.15 328.87 403.01 329.09 402.95C329.1 402.95 329.11 402.93 329.13 402.93C329.5 402.82 329.87 402.76 330.25 402.67C330.58 402.59 330.91 402.48 331.25 402.44C331.23 402.44 331.21 402.44 331.19 402.44C330.91 402.43 330.59 402.49 330.29 402.49C328.58 402.46 326.66 402.57 325.65 404.68L325.63 404.7Z" fill="#7F6800"/>
<path d="M347.96 414.89C350.16 415.42 351.27 416.82 351.74 418.22C351.58 417.7 351.58 417.17 351.27 416.64C350.17 415.06 348.28 414.53 346.7 414.01C343.39 413.48 340.72 411.73 338.83 408.57C338.67 408.22 338.24 408.03 337.77 407.85C338.01 408.12 338.25 408.3 338.46 408.53C338.53 408.6 338.64 408.66 338.68 408.75C342.3 414.36 343.72 413.49 347.97 414.89H347.96Z" fill="#7F6800"/>
<path d="M334.74 412.96C334.9 414.89 335.21 416.82 336 418.57C336.21 419.05 336.81 419.11 337.09 419.55C336.1 417.82 335.43 415.87 335.05 414.18C334.89 413.83 334.89 413.3 334.73 412.95L334.74 412.96Z" fill="#7F6800"/>
<path d="M341.66 423.66C339.63 423.23 338.26 421.39 337.09 419.55C338.16 421.42 339.62 423.02 341.66 423.66Z" fill="#7F6800"/>
<path d="M331.35 423.86C330.72 422.67 330.19 421.43 329.86 420.16C329.86 419.98 329.7 419.81 329.7 419.63C329.54 418.58 329.38 417.52 329.22 416.65C329.08 415.27 329.07 414.13 329.07 413.48C329.26 411.41 330.21 410.3 331.27 409.8C330.32 410.12 329.2 410.88 329.01 412.23C329.01 412.23 329 412.23 329 412.24C328.34 411.68 327.5 411.16 326.51 411.24C326.5 411.24 326.49 411.23 326.48 411.23C325.93 411.25 325.78 411.86 325.41 412.23C325 412.65 324.4 412.87 324.19 413.36C323.44 415.35 323.33 417.42 323.25 419.45C323.56 417.46 323.94 415.41 324.82 413.74C325.7 412.01 327.04 411.35 328.64 412.61C328.92 412.86 329.03 413.15 329.07 413.48L329.04 416.67V416.69L329.35 419.69V419.63L329.39 419.84L329.47 420.16V420.26L329.49 420.29C329.55 420.6 329.77 420.84 329.86 421.14C330.2 422.3 330.65 423.43 331.3 424.43C331.58 424.86 331.91 425.17 332.24 425.55C332.38 425.72 332.56 425.83 332.7 425.99C333.41 426.74 334.06 427.57 334.9 428.07C333.69 427.24 332.84 426.15 332.08 425.02C331.83 424.64 331.57 424.28 331.36 423.88L331.35 423.86Z" fill="#7F6800"/>
<path d="M231.65 376.92L231.57 377.06C226.2 386.92 212.9 389.32 211.82 400.48C210.86 410.44 222.95 415.83 228.81 406.36C232.73 416.99 245.58 414.59 246.54 404.63C247.62 393.47 235.07 387.98 231.7 377.07L231.65 376.92Z" fill="#EB3000"/>
<defs>
<linearGradient id="paint0_linear_145_2457" x1="381.03" y1="-103.54" x2="110.55" y2="690.32" gradientUnits="userSpaceOnUse">
<stop stop-color="#E1E1E1"/>
<stop offset="0.12" stop-color="#ECECEC"/>
<stop offset="0.32" stop-color="#FAFAFA"/>
<stop offset="0.49" stop-color="white"/>
<stop offset="0.7" stop-color="#FBFBFB"/>
<stop offset="0.85" stop-color="#F2F2F2"/>
<stop offset="0.99" stop-color="#E2E2E2"/>
<stop offset="1" stop-color="#E1E1E1"/>
</linearGradient>
</defs>
</svg>
