<svg width="469" height="650" viewBox="0 0 469 650" fill="none" xmlns="http://www.w3.org/2000/svg">
<path d="M439.41 0.609863H29.5293C13.4593 0.609863 0.429688 12.6699 0.429688 27.5399V622.38C0.429688 637.25 13.4593 649.31 29.5293 649.31H439.41C455.48 649.31 468.509 637.25 468.509 622.38V27.5399C468.509 12.6699 455.48 0.609863 439.41 0.609863Z" fill="url(#paint0_linear_145_2600)"/>
<path d="M57.27 114.63C50.71 102.55 34 107.23 34 119.21C34 132.63 51.3302 137.37 57.1802 149.86L57.27 150.04L57.3599 149.86C63.2099 137.37 80.5498 132.63 80.5498 119.21C80.5498 107.23 63.83 102.55 57.27 114.63Z" fill="#EB3000"/>
<path d="M412.99 535.55C419.55 547.63 436.26 542.95 436.26 530.97C436.26 517.55 418.93 512.81 413.08 500.32L412.99 500.14L412.9 500.32C407.05 512.81 389.71 517.55 389.71 530.97C389.71 542.95 406.43 547.63 412.99 535.55Z" fill="#EB3000"/>
<path d="M85.7095 88.7899C84.4695 88.0699 83.2293 86.7999 82.0293 85.0099L59.3394 51.5599L74.9395 35.2699C76.7995 33.3499 78.8496 31.8299 81.0396 30.7599C83.1796 29.6999 85.1594 29.1599 86.9194 29.1599H90.1396V23.6099H59.4795V29.1599H62.4194C65.0894 29.1599 66.3595 29.6299 66.9595 30.0299C67.7095 30.5299 68.0693 31.1199 68.0693 31.8799C68.0693 33.0599 67.3996 34.3898 66.0796 35.8198L41.5293 62.0299V32.1699C41.5293 31.2899 41.8094 30.5799 42.3994 30.0199C42.9994 29.4499 43.8593 29.1699 45.0493 29.1699H52.8496V23.6199H18.9395V29.1699H25.1396C27.3696 29.1699 28.3794 29.5699 28.8394 29.8999C29.4194 30.3199 29.6997 30.8799 29.6997 31.6499V87.3799C29.6997 88.1299 29.4594 88.6899 28.9194 89.1399C28.3494 89.6199 27.3996 89.8699 26.0796 89.8699H18.9395V95.4199H52.8496V89.8699H45.0493C43.8793 89.8699 42.8994 89.5698 42.0894 88.9598C41.9494 88.8498 41.5195 88.5099 41.5195 87.3899V70.6099L51.3496 60.0898L69.8594 87.3099C70.1394 87.7499 70.2695 88.1599 70.2695 88.5599C70.2695 88.8699 69.8595 89.1399 69.5195 89.3099C69.1195 89.5099 67.9593 89.8599 64.7593 89.8599H60.1694V95.4099H93.6597V89.8599H90.0996C88.3996 89.8599 86.9197 89.4999 85.6997 88.7899H85.7095Z" fill="#EB3000"/>
<path d="M382.979 561.51C384.219 562.23 385.46 563.5 386.66 565.29L409.35 598.74L393.75 615.03C391.89 616.95 389.839 618.47 387.649 619.54C385.509 620.6 383.53 621.14 381.77 621.14H378.549V626.69H409.209V621.14H406.27C403.6 621.14 402.329 620.67 401.729 620.27C400.969 619.77 400.62 619.18 400.62 618.42C400.62 617.24 401.289 615.92 402.609 614.48L427.16 588.27V618.13C427.16 619.01 426.88 619.72 426.29 620.28C425.69 620.85 424.83 621.13 423.64 621.13H415.839V626.68H449.75V621.13H443.549C441.319 621.13 440.31 620.73 439.85 620.4C439.27 619.98 438.99 619.42 438.99 618.65V562.92C438.99 562.17 439.23 561.61 439.77 561.16C440.34 560.68 441.289 560.43 442.609 560.43H449.75V554.88H415.839V560.43H423.64C424.81 560.43 425.79 560.73 426.6 561.34C426.74 561.45 427.169 561.79 427.169 562.91V579.69L417.339 590.21L398.83 562.99C398.55 562.55 398.419 562.14 398.419 561.74C398.419 561.43 398.829 561.16 399.169 560.99C399.569 560.79 400.73 560.44 403.93 560.44H408.52V554.89H375.029V560.44H378.589C380.289 560.44 381.77 560.8 382.99 561.51H382.979Z" fill="#EB3000"/>
<path d="M324.94 493.181L324.75 492.811L324.561 493.181C312.251 519.441 275.811 529.41 275.811 557.63C275.811 582.81 310.96 592.65 324.75 567.25C338.54 592.65 373.681 582.81 373.681 557.63C373.681 529.42 337.241 519.441 324.931 493.181H324.94Z" fill="#EB3000"/>
<path d="M142.35 169.28L142.54 169.65L142.729 169.28C155.029 143.02 191.479 133.05 191.479 104.83C191.479 79.6498 156.33 69.8098 142.54 95.2098C128.76 69.8098 93.6094 79.6498 93.6094 104.83C93.6094 133.04 130.049 143.02 142.359 169.28H142.35Z" fill="#EB3000"/>
<path d="M308.48 203.62C300.09 197.64 300.09 193.71 290.54 202.08C281.13 210.28 268.83 208.74 268.83 208.74C268.83 208.74 250.31 203.28 240.32 208.74C230.34 214.03 226.86 205.15 217.6 191.83C208.34 178.51 206.31 192.85 199.08 199.35C194.59 203.28 192.71 203.96 189.24 203.45C196.04 219.51 215.14 267.16 221.8 313.62H270.28C278.67 262.38 301.68 219.17 310.07 204.48C309.49 204.31 308.91 203.97 308.48 203.63V203.62ZM248.14 226.51C237.29 202.94 209.5 211.99 209.5 235.39C209.5 261.69 238.3 270.92 247.99 295.34L248.13 295.68L248.27 295.34C257.96 270.92 286.62 261.69 286.62 235.39C286.62 211.99 258.98 202.94 248.13 226.51H248.14Z" fill="#7FFFE4"/>
<path d="M179.03 330.171H86C84.57 304.061 96.9199 284.6 96.9199 284.6C96.9199 284.6 103.57 276.53 112.58 253.75C119.23 230.96 135.36 211.98 143.91 202.96V202.48C145.34 203.43 146.76 204.38 147.71 204.38C148.19 204.86 148.19 205.33 148.66 205.33C149.61 207.7 151.03 211.03 152.46 214.82C154.84 221.94 158.63 231.43 161.95 241.88L162.43 242.83C162.43 244.26 162.91 245.21 163.38 246.63C163.38 247.11 163.85 248.061 163.85 248.531C164.33 249.481 164.33 249.961 164.8 250.911C168.12 262.301 171.45 274.64 174.29 286.51C174.77 288.881 175.24 291.26 175.24 293.63C176.19 298.38 177.14 303.121 177.61 307.401C178.09 309.771 178.09 312.151 178.56 314.521C179.03 320.221 179.03 325.441 179.03 330.181V330.171Z" fill="#DF0401"/>
<path d="M223.641 330.17H179.021C179.021 325.42 179.02 320.2 178.55 314.51C178.07 312.14 178.071 309.76 177.601 307.39C177.121 303.12 176.17 298.37 175.23 293.62C175.23 291.25 174.75 288.87 174.28 286.5C171.43 274.63 168.111 262.29 164.791 250.9C164.311 249.95 164.31 249.47 163.84 248.52C163.84 248.05 163.371 247.1 163.371 246.62C162.891 245.2 162.42 244.25 162.42 242.82L161.94 241.87C158.62 231.43 154.821 221.93 152.451 214.81C151.031 211.01 149.6 207.69 148.65 205.32C153.87 207.69 156.721 204.84 162.411 203.42C169.061 201.99 167.16 198.67 179.5 201.04C184.25 201.99 186.621 202.94 188.991 203.42H189.471C196.121 219.56 215.1 267.02 221.75 313.54C222.7 319.24 223.17 324.46 223.65 330.15L223.641 330.17Z" fill="#F6F3F6"/>
<path d="M271.149 64.7601L275.64 67.6602C275.93 69.7102 275.209 73.3002 269.129 78.9302C263.339 74.8302 262.76 71.4101 263.2 69.3701L267.979 65.1001L259.149 57.2401L250.609 67.4901L255.39 70.3901C255.82 72.2701 255.389 75.3401 250.759 80.4701C243.519 75.5201 242.509 71.4202 242.799 69.0302L248.589 63.5602L236.29 53.1401L226.45 66.4601L232.959 70.2201C233.679 72.6101 233.539 76.8801 227.609 83.7101C221.969 79.9501 220.95 76.8801 221.1 75.0001L225.149 70.9001L214.879 63.2101L207.79 73.1201L213.29 76.2001C214.01 77.9101 214.16 81.4901 209.24 86.9601C202.29 83.0301 200.85 79.7901 200.85 77.7401L204.609 73.6401L193.609 65.9501L196.359 76.5402L197.66 81.1501L199.109 86.6201L205.33 89.6901L200.99 93.4501L201.569 96.0101L228.339 92.4202L278.41 85.5901L278.549 83.0302L273.629 80.4701L278.979 75.8601L279.41 70.2201L279.7 65.2701L280.419 54.3401L271.16 64.7601H271.149ZM218.479 83.7201L212.689 88.6702L219.35 92.0901L225.14 86.9701L218.479 83.7201ZM239.029 80.9901L233.1 85.9401L239.759 89.1901L245.689 84.2401L239.029 80.9901ZM259.29 78.2601L253.359 83.2101L260.02 86.6301L265.95 81.5101L259.29 78.2601Z" fill="#FFA500"/>
<path d="M267.24 94.4797C267.38 94.4797 267.379 94.6498 267.379 94.6498C271.289 94.6498 275.049 94.8198 278.959 95.1598L278.529 87.2998L201.689 97.7197L202.27 105.58C210.95 102.51 219.629 99.9397 228.169 98.2397C241.339 95.3397 254.36 94.1397 267.24 94.4797Z" fill="#FFA500"/>
<path d="M278.38 85.6001L278.35 85.6101L228.31 92.3901L201.54 96.0201L201.69 97.7301L278.53 87.3102L278.38 85.6001Z" fill="#862D26"/>
<path d="M212.689 88.71L219.33 92.02L225.169 87.04L218.529 83.73L212.689 88.71Z" fill="#862D26"/>
<path d="M233.15 85.96L239.8 89.27L245.641 84.28L239 80.98L233.15 85.96Z" fill="#862D26"/>
<path d="M253.41 83.24L260.05 86.55L265.89 81.5601L259.25 78.25L253.41 83.24Z" fill="#862D26"/>
<path d="M199.061 86.5498L200.32 91.3397L200.9 93.4998L205.371 89.6897L199.061 86.5498Z" fill="#862D26"/>
<path d="M278.53 83.0099L278.69 80.8099L279.01 75.8599L273.55 80.5299L278.53 83.0099Z" fill="#862D26"/>
<path d="M329.609 195.43C328.739 186.04 324.979 172.2 316.149 165.71C305.589 158.02 294.009 154.27 291.259 140.94C288.509 127.62 291.119 123.86 287.499 117.71C283.879 111.56 278.959 95.1599 278.959 95.1599C275.049 94.8199 271.289 94.6499 267.379 94.6499C268.389 94.8199 269.409 95.3299 270.269 96.3599C271.719 97.5599 272.729 99.6098 272.879 101.83C273.169 104.39 272.589 106.95 273.459 109.17H272.45C272.45 109.17 262.9 107.29 261.16 109.17C259.42 111.05 261.16 112.07 261.16 112.07C261.16 112.07 273.169 111.73 273.599 111.56C273.599 111.39 274.179 111.22 274.759 110.88C275.769 112.08 276.789 112.93 277.359 114.3C278.659 117.55 276.64 120.96 276.2 124.38C275.91 126.94 276.489 129.5 276.779 132.07C277.359 137.02 276.349 142.15 275.479 147.1C274.899 150 274.32 153.08 273.74 155.98C271.86 154.96 271.139 152.39 269.539 151.03C267.799 149.66 265.489 149.66 263.319 150.18C261.289 150.69 259.119 151.55 257.099 151.38C255.799 151.21 254.499 150.7 253.339 150.53C249.869 149.68 246.249 150.53 243.359 152.75C241.769 153.77 240.469 155.31 238.729 156.34C237.139 157.36 235.109 157.88 233.519 156.68C231.059 154.97 230.919 150.53 228.459 148.82C226.869 147.8 224.989 148.14 223.249 147.8C221.079 147.29 219.049 145.41 218.189 143.02C217.179 140.46 217.469 137.55 218.769 135.16C219.059 134.65 219.49 133.97 219.64 133.28C219.93 132.6 219.93 131.74 219.93 130.89C219.79 127.64 219.789 124.57 219.789 121.33C219.649 120.48 219.65 119.62 219.93 118.77C220.07 117.75 220.649 116.89 221.229 116.21C222.969 112.96 223.109 106.47 224.559 102.55C224.849 101.53 225.28 100.67 225.72 100.16C226.44 99.3099 227.31 98.7899 228.18 98.2799C219.64 99.9899 210.959 102.55 202.279 105.62C201.989 105.62 200.98 106.3 195.91 118.43C189.98 132.44 185.06 144.05 179.41 149.17C173.76 154.29 165.079 150.02 161.029 162.32C156.979 174.62 151.049 174.62 148.009 177.69C144.829 180.94 133.969 194.77 143.379 202.11C143.519 202.11 143.519 202.28 143.669 202.28C143.809 202.45 143.959 202.62 144.099 202.62C153.069 209.11 155.529 205.18 162.189 203.64C168.989 202.1 167.4 198.86 179.41 201.25C184.04 202.1 186.789 203.13 189.099 203.47H189.24C192.71 203.98 194.589 203.3 199.079 199.37C206.319 192.88 208.339 178.53 217.599 191.85C226.859 205.17 230.329 214.05 240.319 208.76C250.299 203.3 268.829 208.76 268.829 208.76C268.829 208.76 281.129 210.3 290.539 202.1C300.089 193.73 300.089 197.66 308.479 203.64C308.909 203.98 309.489 204.32 310.069 204.49C318.319 209.27 329.899 208.25 329.899 200.22C329.899 198.85 329.759 197.32 329.609 195.44V195.43ZM268.829 161.27C267.819 159.9 267.089 158.54 265.499 158.37C264.049 158.03 261.739 158.54 260.289 158.88C258.699 159.05 258.549 159.22 257.109 158.71C256.239 158.54 255.519 158.03 254.799 157.86C252.769 157.35 250.75 158.03 248.87 158.71C245.54 159.91 244.379 161.78 244.819 166.05C244.819 166.39 244.819 166.73 245.109 166.9C245.399 167.41 245.98 167.58 246.41 167.58C249.01 167.75 251.619 167.41 254.079 166.9C259.149 166.05 263.779 167.07 268.549 165.02C269.419 164.51 269.269 162.29 268.839 161.26L268.829 161.27Z" fill="black"/>
<path d="M277.37 114.3C276.79 112.93 275.78 112.08 274.77 110.88C274.19 111.22 273.61 111.39 273.61 111.56C273.18 111.73 261.17 112.07 261.17 112.07C261.17 112.07 259.43 111.05 261.17 109.17C262.91 107.29 272.46 109.17 272.46 109.17H273.47C272.6 106.95 273.18 104.39 272.89 101.83C272.75 99.6102 271.73 97.5602 270.28 96.3602C269.41 95.3402 268.4 94.8203 267.39 94.6503C267.39 94.6503 267.39 94.4802 267.25 94.4802C254.37 94.1402 241.35 95.3302 228.18 98.2402C227.31 98.7502 226.44 99.2603 225.72 100.12C225.29 100.63 224.85 101.49 224.56 102.51C223.11 106.44 222.97 112.93 221.23 116.17C220.65 116.85 220.07 117.71 219.93 118.73C219.64 119.58 219.64 120.44 219.79 121.29C219.79 124.54 219.79 127.61 219.93 130.85C219.93 131.7 219.93 132.56 219.64 133.24C219.5 133.92 219.06 134.61 218.77 135.12C217.47 137.51 217.18 140.41 218.19 142.98C219.06 145.37 221.08 147.25 223.25 147.76C224.99 148.1 226.87 147.76 228.46 148.78C230.92 150.49 231.06 154.93 233.52 156.64C235.11 157.84 237.14 157.32 238.73 156.3C240.47 155.28 241.77 153.74 243.36 152.71C246.25 150.49 249.87 149.64 253.34 150.49C254.5 150.66 255.8 151.17 257.1 151.34C259.13 151.51 261.3 150.66 263.32 150.14C265.49 149.63 267.81 149.63 269.54 150.99C271.13 152.36 271.86 154.92 273.74 155.94C274.32 153.04 274.9 149.96 275.48 147.06C276.35 142.11 277.36 136.98 276.78 132.03C276.49 129.47 275.91 126.91 276.2 124.34C276.63 120.92 278.66 117.51 277.36 114.26L277.37 114.3ZM226.58 110.03C226.58 110.03 224.7 112.42 228.03 112.25C233.96 110.54 252.34 113.1 252.34 113.1C252.34 113.1 254.8 112.59 254.66 110.03C247.86 104.05 226.59 110.03 226.59 110.03H226.58ZM244.67 118.91C244.24 119.08 242.64 119.25 240.76 119.25H239.89L235.55 119.08C232.66 119.08 230.05 118.91 230.05 118.91C228.89 122.16 233.09 126.43 237 127.11C240.76 127.79 245.97 122.84 246.26 121.82C246.69 120.8 246.4 118.06 244.67 118.92V118.91ZM259.72 131.89V131.72C259.29 131.04 259.14 129.33 259.14 127.96C259.14 126.42 259.28 124.89 259.43 123.35C259.72 120.28 260.01 117.2 260.44 114.3C259.57 117.2 258.85 120.11 258.27 123.18C257.98 124.72 257.84 126.25 257.69 127.79C257.69 129.5 257.4 130.86 258.41 132.91C259.86 135.47 262.46 137.35 262.61 139.57C262.61 142.13 262.18 145.21 261.02 147.09C260.01 149.14 257.69 148.46 255.38 147.09C252.92 146.07 250.46 145.55 248 145.38C246.84 144.53 245.54 143.33 245.25 141.79V141.28C245.25 140.77 245.39 140.26 245.68 139.74C245.82 139.23 246.11 138.72 246.55 138.2C245.54 139.05 244.52 140.25 244.52 141.96C244.66 144.01 245.97 145.72 247.41 146.74H247.7C250.02 147.25 252.62 147.76 254.65 148.96C256.39 150.33 260.44 152.21 262.75 148.79C264.63 145.71 264.78 142.64 264.63 139.23C263.76 135.13 261.01 134.11 259.71 131.88L259.72 131.89ZM269.27 118.74H268.4C266.66 118.91 265.51 118.91 264.64 118.91C262.47 118.91 262.04 118.74 262.04 118.74C262.04 118.74 260.88 126.94 266.96 126.43C273.18 126.09 274.92 122.84 274.92 122.84C274.92 122.84 274.05 118.91 269.28 118.74H269.27Z" fill="#FB898C"/>
<path d="M245.029 166.95C245.319 167.47 245.929 167.58 246.459 167.62C249.029 167.78 251.589 167.34 254.129 166.9C259.189 166.03 263.799 167.13 268.569 164.95C269.369 164.58 269.229 162.21 268.799 161.33C267.789 159.97 267.029 158.6 265.519 158.34C264.009 158.08 261.759 158.6 260.249 158.83C258.669 159.08 258.619 159.14 257.079 158.68C256.299 158.45 255.569 158.03 254.799 157.81C252.839 157.25 250.789 157.98 248.859 158.7C245.519 159.95 244.379 161.85 244.809 166.01C244.839 166.34 244.879 166.67 245.029 166.95Z" fill="#9C5F59"/>
<path d="M252.34 113.11C252.34 113.11 254.84 112.57 254.61 110.03C247.91 104 226.58 110.03 226.58 110.03C226.58 110.03 224.76 112.44 228.05 112.17C233.97 110.58 252.34 113.11 252.34 113.11Z" fill="black"/>
<path d="M246.33 121.82C246.67 120.75 246.44 118.07 244.72 118.87C244.13 119.15 242.16 119.23 239.89 119.22L240.759 119.25C241.339 119.93 241.629 120.79 241.629 121.81C241.629 124.03 240.04 125.91 238.16 125.91C236.28 125.91 234.689 124.03 234.689 121.81C234.689 120.8 234.99 119.81 235.54 119.13C232.61 119.02 230.1 118.87 230.1 118.87C228.97 122.09 233.159 126.37 236.999 127.04C240.829 127.71 245.99 122.89 246.33 121.82Z" fill="#CCCCCC"/>
<path d="M238.15 125.91C240.03 125.91 241.62 124.03 241.62 121.81C241.62 120.79 241.33 119.93 240.75 119.25L239.88 119.22L235.54 119.08C235.54 119.08 235.54 119.12 235.52 119.13C234.96 119.81 234.67 120.81 234.67 121.81C234.67 124.03 236.26 125.91 238.14 125.91H238.15Z" fill="black"/>
<path d="M266.95 126.42C273.17 126.08 274.91 122.83 274.91 122.83C274.91 122.83 274.04 118.9 269.27 118.73C269.99 119.58 270.43 120.61 270.43 121.8C270.43 124.02 268.84 125.9 266.96 125.9C265.08 125.9 263.63 124.02 263.63 121.8C263.63 120.78 263.92 119.75 264.64 118.9C262.47 118.9 262.04 118.73 262.04 118.73C262.04 118.73 260.88 126.93 266.96 126.42H266.95Z" fill="#CCCCCC"/>
<path d="M266.95 125.91C268.83 125.91 270.42 124.03 270.42 121.81C270.42 120.61 269.99 119.59 269.26 118.74H268.39C266.65 118.91 265.5 118.91 264.63 118.91C263.91 119.76 263.62 120.79 263.62 121.81C263.62 124.03 265.07 125.91 266.95 125.91Z" fill="black"/>
<path d="M259.671 131.76C259.231 131.08 259.101 129.35 259.121 127.93C259.121 126.44 259.261 124.91 259.421 123.4C259.651 120.35 259.981 117.27 260.441 114.22C259.611 117.16 258.83 120.13 258.26 123.19C258.03 124.73 257.821 126.28 257.741 127.87C257.741 129.48 257.461 131.07 258.491 133.01L258.451 132.95C259.881 135.55 262.481 137.41 262.571 139.57C262.601 142.07 262.141 145.26 261.081 147.17C259.961 149.15 257.751 148.5 255.401 147.09C252.941 145.98 250.461 145.57 247.941 145.34C246.811 144.48 245.58 143.34 245.3 141.81C245.02 140.19 246.161 138.56 247.361 137.48C246.071 138.33 244.551 139.68 244.571 141.89C244.691 144.05 246.001 145.63 247.391 146.69L247.481 146.76L247.661 146.79C250.081 147.16 252.581 147.77 254.731 148.94C256.471 150.29 260.49 152.22 262.78 148.73C264.66 145.73 264.781 142.58 264.611 139.23C263.781 135.2 261.011 134.16 259.731 131.81L259.691 131.75L259.671 131.76Z" fill="black"/>
<path d="M221.8 313.62C222.52 319.09 223.1 324.55 223.54 330.02H268.11C268.69 324.55 269.41 319.09 270.28 313.62H221.8Z" fill="#4000FF"/>
<path d="M340.32 330.02H320.641C321.801 321.14 323.391 311.74 325.271 302.18C325.271 301.84 325.411 301.33 325.411 300.98C327.291 291.24 329.46 281.68 331.78 272.29L336.851 272.8C338.731 272.97 340.181 274.85 340.181 277.07V277.24C339.601 277.24 338.88 277.41 338.3 277.41C338.01 277.58 337.721 277.58 337.431 277.75C337.291 277.92 337.14 278.26 337 278.43C336.71 279.63 336.42 280.65 336.71 281.85C337 283.39 337.72 284.58 338.88 285.27C339.31 285.44 339.751 285.61 340.181 285.78V287.15C339.751 286.98 339.461 286.98 339.021 286.81C338.011 286.47 336.85 286.3 335.84 286.47C334.83 286.64 333.81 287.32 333.53 288.52C333.1 290.4 333.391 292.45 334.541 293.64C335.701 294.49 337.87 295.86 339.17 296.54C339.6 296.71 339.891 296.88 340.181 297.05V299.61C338.441 298.59 336.711 297.56 334.831 297.22C334.111 297.05 333.38 297.22 332.8 297.73C331.5 298.41 331.501 301.32 332.221 302.68C333.091 304.05 334.39 304.73 335.55 305.41C337.14 306.26 338.881 306.95 340.181 308.14V311.04C339.461 310.53 338.88 309.84 338.3 309.16C336.71 307.28 334.391 306.43 332.081 306.26C331.791 306.26 331.5 306.43 331.21 306.6C331.07 306.77 330.92 307.11 330.78 307.28C330.06 309.5 330.64 312.06 331.94 313.94C333.24 315.82 334.981 317.01 336.721 317.87C337.881 318.55 339.03 319.07 340.19 319.58V321.12C339.47 322.32 339.03 323.68 339.03 325.39C339.03 327.27 339.611 328.64 340.331 330L340.32 330.02Z" fill="#DF0401"/>
<path d="M366.22 261.33C366.62 260.73 367.15 260.36 367.66 259.94C367.63 259.87 367.52 259.65 367.52 259.65C364.48 246.83 359.16 235.26 353.2 225.45C352.75 241.91 352.339 255.13 352.189 259.96L366.22 261.33Z" fill="#DF0401"/>
<path d="M352.04 330.021H350.59C350.88 329.511 351.17 329 351.31 328.48C351.6 328.99 351.74 329.501 352.03 330.021H352.04Z" fill="#DF0401"/>
<path d="M338.541 259.96C338.461 257.59 338.331 253.08 338.161 247.32C338.111 247.51 338.06 247.68 338.01 247.86C337.47 249.77 336.94 251.85 336.4 253.87C335.85 255.97 335.29 258.15 334.73 260.32L338.541 259.95V259.96Z" fill="#DF0401"/>
<path d="M325.45 300.92C327.34 291.32 329.5 281.64 331.77 272.33L324.589 271.59C324.589 271.59 324.57 271.63 324.56 271.65C323.4 273.4 321.699 274.4 319.689 274.4C316.199 274.4 313.339 270.9 313.339 266.53C313.339 262.16 316.199 258.66 319.689 258.66C321.659 258.66 323.319 259.64 324.479 261.33L334.669 260.33C335.249 258.12 335.819 256.04 336.399 253.87C336.939 251.85 337.469 249.77 338.009 247.86C338.059 247.7 338.099 247.51 338.149 247.35V247.18V247.16C337.829 236.22 337.389 220.37 336.979 203.29C334.229 200.05 331.63 197.48 329.6 195.43C329.74 197.31 329.89 198.85 329.89 200.21C329.89 208.24 318.31 209.26 310.06 204.48C301.67 219.17 278.66 262.38 270.27 313.62C269.4 319.09 268.68 324.55 268.1 330.02H320.629C321.759 321.14 323.35 311.71 325.2 302.21C325.28 301.78 325.349 301.36 325.439 300.93L325.45 300.92Z" fill="#F6F3F6"/>
<path d="M338.16 247.32C338.33 253.08 338.47 257.59 338.54 259.96L345.42 259.34C344.62 203.99 344.49 148.64 345.01 93.28C345.81 148.63 345.95 203.98 345.42 259.34L352.19 259.96C352.34 255.13 352.75 241.92 353.2 225.45C354.31 184.86 355.67 123.93 354.09 115.94C351.13 100.7 345.41 65.23 345.41 65.23C345.41 65.23 339.59 100.7 336.63 115.94C335.38 122.57 336.09 165.62 336.98 203.29C337.39 220.37 337.83 236.22 338.15 247.16C338.15 247.21 338.15 247.27 338.15 247.33L338.16 247.32Z" fill="#A19FE5"/>
<path d="M341.04 319.77C340.75 320.11 340.46 320.45 340.17 320.97V319.6C340.46 319.77 340.75 319.77 341.04 319.77Z" fill="black"/>
<path d="M345.96 312.77C344.51 313.45 343.21 312.94 341.76 312.09C341.18 311.75 340.6 311.41 340.17 311.07V308.17C340.31 308.34 340.46 308.34 340.6 308.51C342.19 310.22 343.49 310.05 344.36 310.73C345.23 311.58 345.95 311.41 345.95 312.78L345.96 312.77Z" fill="black"/>
<path d="M349.43 300.64C349.29 301.49 349.429 303.03 348.709 303.03C347.839 303.2 346.829 303.2 346.109 302.86C344.079 302.18 342.06 300.81 340.18 299.61V297.05C341.92 297.73 343.22 298.42 345.25 298.42C346.26 298.42 347.56 298.59 348.43 299.1C349.3 299.61 349.879 299.61 349.439 300.64H349.43Z" fill="black"/>
<path d="M350.74 289.02C351.03 289.53 351.03 290.04 350.74 290.39C350.6 290.9 350.16 291.07 349.58 291.07C348.86 291.07 348.28 290.56 347.7 290.22C345.38 288.85 342.78 288 340.18 287.15V285.78C341.19 286.12 342.35 286.46 343.22 286.46C344.81 286.63 346.109 287.14 347.709 287.14C348.719 287.31 350.02 287.65 350.6 288.68C350.693 288.794 350.74 288.907 350.74 289.02Z" fill="black"/>
<path d="M364.63 266.48C364.63 268.53 365.21 270.24 366.22 271.6L354.07 272.79C352.19 272.96 350.74 274.84 350.74 277.06V278.26C350.31 278.26 349.87 278.09 349.29 277.92C347.41 277.41 345.53 277.07 343.65 276.9C342.49 276.9 341.34 277.07 340.18 277.24V277.07C340.18 274.85 338.73 272.97 336.85 272.8L331.78 272.29L324.54 271.61C325.55 270.24 326.13 268.53 326.13 266.49C326.13 264.61 325.55 262.73 324.54 261.37L334.67 260.35L338.58 260.01L345.38 259.33L352.18 260.01L366.22 261.38C365.21 262.75 364.63 264.45 364.63 266.5V266.48Z" fill="black"/>
<path d="M324.56 261.4C324.56 261.4 324.5 261.36 324.48 261.33C323.32 259.64 321.66 258.66 319.69 258.66C316.2 258.66 313.34 262.16 313.34 266.53C313.34 270.9 316.2 274.4 319.69 274.4C321.7 274.4 323.39 273.4 324.56 271.65C324.57 271.63 324.58 271.61 324.59 271.59C325.62 270.22 326.15 268.5 326.15 266.53C326.15 264.56 325.62 262.78 324.56 261.41V261.4Z" fill="#E17254"/>
<path d="M351.31 328.479C351.17 328.989 350.879 329.5 350.589 330.02H340.319C339.599 328.65 339.02 327.29 339.02 325.41C339.02 323.7 339.45 322.34 340.18 321.14V320.969C340.47 320.459 340.759 320.12 341.049 319.77C341.769 320.11 342.35 320.45 343.08 320.62C344.82 321.13 346.549 321.639 347.859 322.839C349.309 324.029 350.169 325.74 350.899 327.62C351.039 327.96 351.19 328.129 351.33 328.469L351.31 328.479Z" fill="#E17254"/>
<path d="M366.22 261.33C365.16 262.7 364.63 264.45 364.63 266.45C364.63 268.45 365.16 270.2 366.22 271.57C367.38 273.32 369.07 274.31 370.98 274.31C372.14 274.31 373.16 273.85 374.09 273.22C376.06 271.88 377.44 269.41 377.44 266.44C377.44 262.07 374.58 258.57 370.98 258.57C369.73 258.57 368.64 259.13 367.66 259.93C367.15 260.34 366.62 260.72 366.22 261.32V261.33Z" fill="#E17254"/>
<path d="M345.009 93.2803C344.479 148.63 344.609 203.99 345.419 259.34C345.949 203.99 345.809 148.63 345.009 93.2803Z" fill="#797BC3"/>
<path d="M248.11 226.48C237.25 202.86 209.561 212.01 209.561 235.43C209.561 261.67 238.271 270.94 247.971 295.36L248.121 295.7L248.271 295.36C257.961 270.94 286.681 261.67 286.681 235.43C286.681 212.01 258.991 202.86 248.121 226.48H248.11Z" fill="#EB3000"/>
<path d="M380.69 285.95C378.95 282.71 376.35 277.92 374.04 273.31C373.17 273.82 372.16 274.34 371 274.34C369.12 274.34 367.38 273.31 366.22 271.61L354.07 272.8C352.19 272.97 350.74 274.85 350.74 277.07V278.27C352.04 278.61 353.34 278.95 354.65 279.29C356.68 279.8 369.24 281.71 369.94 295.11C370.28 301.59 369.35 307.08 370.08 313.4C370.65 318.82 375.34 325.58 378.24 330.02H384.04C389.1 310.04 384.62 292.62 380.71 285.95H380.69Z" fill="#DF0401"/>
<path d="M369.93 295.11C369.23 281.71 356.67 279.8 354.64 279.29C353.34 278.95 352.04 278.61 350.73 278.27C350.3 278.27 349.86 278.1 349.28 277.93C347.4 277.42 345.52 277.08 343.64 276.9C342.48 276.9 341.33 277.07 340.17 277.24C339.59 277.24 338.87 277.41 338.29 277.41C338 277.58 337.71 277.58 337.42 277.75C337.28 277.92 337.13 278.26 336.99 278.43C336.7 279.62 336.41 280.65 336.7 281.85C336.99 283.39 337.71 284.58 338.87 285.27C339.3 285.44 339.74 285.61 340.17 285.78C341.18 286.12 342.34 286.46 343.21 286.46C344.8 286.63 346.1 287.14 347.69 287.14C348.7 287.31 350 287.66 350.58 288.68C350.674 288.794 350.72 288.907 350.72 289.02C351.01 289.53 351.01 290.05 350.72 290.39C350.58 290.9 350.14 291.07 349.56 291.07C348.84 291.07 348.26 290.56 347.68 290.22C345.37 288.85 342.76 288 340.16 287.14C339.73 286.97 339.44 286.97 339 286.8C337.99 286.46 336.83 286.29 335.82 286.46C334.81 286.63 333.79 287.31 333.51 288.51C333.08 290.39 333.37 292.44 334.52 293.63C335.68 294.48 337.85 295.85 339.15 296.53C339.58 296.7 339.87 296.87 340.16 297.04C341.9 297.72 343.2 298.4 345.22 298.4C346.23 298.4 347.53 298.57 348.4 299.08C349.27 299.59 349.85 299.59 349.41 300.62C349.27 301.47 349.41 303.01 348.69 303.01C347.82 303.18 346.81 303.18 346.09 302.84C344.06 302.16 342.04 300.79 340.16 299.6C338.42 298.57 336.69 297.55 334.81 297.21C334.09 297.04 333.36 297.21 332.78 297.72C331.48 298.4 331.48 301.31 332.2 302.67C333.07 304.04 334.37 304.72 335.53 305.4C337.12 306.25 338.86 306.94 340.16 308.13C340.3 308.3 340.45 308.3 340.59 308.47C342.18 310.18 343.48 310.01 344.35 310.69C345.22 311.54 345.94 311.37 345.94 312.74C344.49 313.42 343.19 312.91 341.74 312.06C341.16 311.72 340.58 311.38 340.15 311.03C339.43 310.52 338.85 309.84 338.27 309.15C336.68 307.27 334.36 306.42 332.05 306.24C331.76 306.24 331.47 306.41 331.18 306.58C331.04 306.75 330.89 307.09 330.75 307.26C330.03 309.48 330.61 312.04 331.91 313.92C333.21 315.8 334.95 317 336.68 317.85C337.84 318.53 338.99 319.05 340.15 319.56C340.44 319.73 340.73 319.73 341.02 319.73C341.74 320.07 342.32 320.41 343.05 320.58C344.79 321.09 346.52 321.61 347.82 322.8C349.27 324 350.13 325.7 350.86 327.58C351 327.92 351.15 328.09 351.29 328.43C351.58 328.94 351.72 329.45 352.01 329.97L378.28 330.1C378.28 330.1 378.22 330.01 378.2 329.97C375.3 325.53 370.62 318.77 370.04 313.35C369.32 307.03 370.24 301.54 369.9 295.06L369.93 295.11Z" fill="#FFA8B8"/>
<path d="M207.51 291.25C207.51 295.05 207.03 298.37 206.08 301.69C205.6 304.54 204.66 307.39 203.23 309.76C198.96 318.781 191.84 325.901 183.3 330.171H149.12C143.42 327.321 138.2 323.05 133.93 317.83C132.5 315.93 131.08 313.561 130.13 311.181H129.65C127.28 306.911 125.85 301.69 125.38 296.47C124.91 295.05 124.91 293.62 124.91 291.72V289.35C125.86 270.84 137.72 255.171 153.86 250.431C157.18 249.001 160.51 248.531 163.83 248.531C164.31 248.061 165.26 248.061 165.73 248.061H166.21C185.19 248.061 201.33 261.82 206.08 280.34C206.56 282.24 207.03 284.61 207.03 286.98C207.51 288.41 207.51 289.83 207.51 291.25Z" fill="#FFE500"/>
<path d="M156.43 244.28C157.84 244.47 159.38 244.47 160.83 243.75C161.42 243.5 161.85 243.26 162.41 242.83L162.11 240.32L161.55 235.68L172.48 234.36L171.4 225.4L160.47 226.72L158.93 214L151.49 214.9L153.03 227.62L142.25 228.92L143.33 237.88L154.11 236.58L154.67 241.22L154.97 243.73C155.47 244.03 155.95 244.16 156.42 244.28H156.43Z" fill="#FFA500"/>
<path d="M159.98 253.301C163.32 252.901 165.99 250.751 165.71 248.421L165.56 247.171L165.08 243.23C165.21 244.31 164.73 245.45 163.73 246.12C163.45 246.34 163.17 246.551 162.88 246.771C162.6 246.991 162.45 247 162.16 247.22C161.29 247.69 160.4 247.98 159.34 248.11C158.43 248.22 157.5 248.151 156.69 247.891C156.21 247.771 155.74 247.64 155.41 247.5C155.11 247.54 154.78 247.39 154.61 247.23C153.48 246.82 152.75 245.82 152.62 244.74L153.12 248.86L153.27 250.11C153.7 252.42 156.63 253.701 159.97 253.301H159.98Z" fill="#FFA500"/>
<path d="M154.63 247.22C154.8 247.38 155.13 247.52 155.43 247.49C155.76 247.63 156.23 247.76 156.71 247.88C157.51 248.15 158.44 248.22 159.36 248.1C160.42 247.97 161.31 247.68 162.18 247.21C162.46 246.99 162.61 246.98 162.9 246.76C163.18 246.54 163.46 246.33 163.75 246.11C164.75 245.44 165.23 244.3 165.1 243.22C164.95 241.97 163.73 240.841 162.13 240.311L162.43 242.82C161.87 243.25 161.43 243.49 160.85 243.74C159.4 244.46 157.86 244.471 156.45 244.271C155.97 244.151 155.5 244.02 155 243.72L154.7 241.21C153.27 242.11 152.51 243.47 152.66 244.73C152.79 245.81 153.53 246.81 154.65 247.22H154.63Z" fill="#AA8100"/>
<path d="M207.19 287.14C195.93 290.17 184.01 292.649 172.1 293.939L169.07 294.37C164.52 294.8 160.19 295.239 155.65 295.449C154.78 295.669 153.92 295.67 153.05 295.67C143.96 296.32 134.44 296.3 125.13 296.3C124.79 296.65 124.34 290.31 124.86 289.37C132.44 289.37 140.28 289.399 147.64 288.959C167.77 287.659 187.42 285.03 206.04 280.27C206.69 282.43 207.05 284.8 207.19 287.14Z" fill="#E9B100"/>
<path d="M206.07 301.85C205.76 304.72 204.73 307.44 203.28 309.75C193.11 312.35 182.72 314.3 172.11 315.59L169.08 316.02C164.53 316.45 160.2 316.89 155.66 317.1C154.79 317.32 153.93 317.32 153.06 317.32C146.78 317.75 140.07 317.89 133.57 317.68C131.64 315.72 130.35 313.47 129.5 311.1C135.56 311.1 141.8 311.04 147.65 310.61C167.78 309.31 187.45 306.61 206.07 301.85Z" fill="#E9B100"/>
<path d="M134.85 297.33C132.27 297.64 130.48 300.36 130.85 303.4C131.22 306.44 133.6 308.65 136.18 308.34C138.76 308.03 140.55 305.31 140.18 302.27C139.81 299.23 137.43 297.02 134.85 297.33Z" fill="#E9B100"/>
<path d="M159.5 296.57C156.92 296.88 155.13 299.6 155.5 302.64C155.87 305.68 158.26 307.89 160.83 307.58C163.41 307.27 165.2 304.55 164.83 301.51C164.46 298.47 162.08 296.26 159.5 296.57Z" fill="#E9B100"/>
<path d="M186.319 304.42C188.929 304.1 190.75 301.35 190.37 298.27C190 295.19 187.58 292.94 184.97 293.26C182.36 293.58 180.539 296.33 180.919 299.41C181.289 302.49 183.709 304.74 186.319 304.42Z" fill="#E9B100"/>
<path d="M147.2 300.26C146.03 300.4 145.21 301.64 145.38 303.02C145.55 304.41 146.64 305.41 147.81 305.27C148.98 305.13 149.8 303.89 149.63 302.51C149.46 301.13 148.38 300.12 147.2 300.26Z" fill="#E9B100"/>
<path d="M199.14 297.88C200.23 297.75 200.98 296.6 200.83 295.32C200.68 294.04 199.67 293.1 198.58 293.23C197.49 293.36 196.74 294.51 196.89 295.79C197.04 297.07 198.05 298.01 199.14 297.87V297.88Z" fill="#E9B100"/>
<path d="M170.89 300.87C171.05 302.2 172.09 303.16 173.22 303.03C174.34 302.89 175.13 301.71 174.96 300.38C174.8 299.05 173.76 298.09 172.63 298.22C171.51 298.36 170.72 299.54 170.88 300.87H170.89Z" fill="#E9B100"/>
<path d="M194.17 330.02H186.65L191.141 322.85C191.141 322.85 200.261 319.26 194.181 330.02H194.17Z" fill="#FFA8B8"/>
<path d="M144.53 330.02H134.11C132.66 326.09 130.49 318.41 132.37 311.57C133.09 305.08 130.49 302.01 130.49 302.01C130.49 302.01 130.78 300.81 131.5 299.96C131.64 299.45 132.08 298.94 132.51 298.94C133.52 298.26 134.82 298.77 136.56 302.01C136.7 302.18 136.7 302.35 136.85 302.52C137.14 303.03 137.43 303.54 137.57 304.06C138.87 306.62 139.89 309.01 140.32 311.06C142.06 315.5 142.64 318.92 142.49 321.31C142.49 321.82 142.49 322.33 142.63 322.85C142.77 325.24 143.79 328.14 144.51 330.02H144.53Z" fill="#FFA8B8"/>
<path d="M167.97 306.28C168.26 307.13 168.26 307.99 167.97 308.67C167.68 309.52 167.1 310.89 166.38 312.77C164.35 317.55 161.17 324.73 157.99 330.02H145.83C146.41 329.17 147.13 328.14 147.71 327.12C150.75 322.85 154.37 317.21 157.12 312.43C158.57 310.04 159.72 307.82 160.45 306.11C160.74 305.6 160.88 305.09 161.03 304.74C161.17 304.4 161.32 304.06 161.61 303.71C162.19 302.34 162.91 301.66 163.64 301.49C165.52 301.15 167.69 303.88 167.98 306.27L167.97 306.28Z" fill="#FFA8B8"/>
<path d="M183.02 305.93C182.88 306.44 182.59 307.13 182.3 307.81C181.58 309.01 180.85 310.54 179.98 312.42C177.81 317.54 175.21 324.55 170.86 330.01H160.01C162.47 326.94 168.11 319.42 171.44 312.76C172.6 310.37 173.47 308.15 173.9 306.1C174.04 305.42 174.04 304.73 174.04 304.05C174.33 301.15 178.24 300.8 180.7 302.17C181.42 302.51 182 302.85 182.44 303.71H182.58C182.87 304.39 183.01 305.08 183.01 305.93H183.02Z" fill="#FFA8B8"/>
<path d="M193.15 318.4C192.14 320.28 190.98 321.99 189.68 323.69C188.09 326.08 186.35 328.3 184.76 330.01H175.5C178.39 325.74 183.6 318.05 185.34 312.08C185.48 311.57 185.63 311.06 185.77 310.54C186.78 306.44 193.15 307.121 194.45 311.561C195.03 313.271 194.88 315.49 193.15 318.39V318.4Z" fill="#FFA8B8"/>
<path d="M161.439 456.73C169.829 462.71 169.829 466.641 179.379 458.271C188.789 450.071 201.089 451.61 201.089 451.61C201.089 451.61 219.61 457.07 229.6 451.61C239.58 446.32 243.059 455.201 252.319 468.521C261.579 481.841 263.609 467.5 270.839 461C275.329 457.07 277.21 456.391 280.68 456.901C273.88 440.841 254.78 393.19 248.12 346.73H199.64C191.25 397.97 168.24 441.18 159.85 455.87C160.43 456.04 161.009 456.38 161.439 456.72V456.73ZM221.779 433.84C232.629 457.41 260.419 448.36 260.419 424.96C260.419 398.66 231.62 389.43 221.93 365.01L221.79 364.671L221.649 365.01C211.959 389.43 183.299 398.66 183.299 424.96C183.299 448.36 210.94 457.41 221.79 433.84H221.779Z" fill="#7FFFE4"/>
<path d="M290.9 330.18H383.931C385.361 356.29 373.01 375.75 373.01 375.75C373.01 375.75 366.361 383.82 357.351 406.6C350.701 429.39 334.571 448.37 326.021 457.39V457.87C324.591 456.92 323.171 455.97 322.221 455.97C321.741 455.49 321.741 455.02 321.271 455.02C320.321 452.65 318.901 449.32 317.471 445.53C315.091 438.41 311.3 428.92 307.98 418.47L307.5 417.52C307.5 416.09 307.02 415.14 306.55 413.72C306.55 413.24 306.081 412.29 306.081 411.82C305.601 410.87 305.6 410.39 305.13 409.44C301.81 398.05 298.481 385.71 295.641 373.84C295.161 371.47 294.69 369.09 294.69 366.72C293.74 361.97 292.79 357.23 292.32 352.95C291.84 350.58 291.841 348.2 291.371 345.83C290.901 340.13 290.9 334.91 290.9 330.17V330.18Z" fill="#DF0401"/>
<path d="M246.279 330.18H290.899C290.899 334.93 290.9 340.15 291.37 345.84C291.85 348.21 291.849 350.59 292.319 352.96C292.799 357.23 293.749 361.98 294.689 366.73C294.689 369.1 295.17 371.48 295.64 373.85C298.49 385.72 301.809 398.06 305.129 409.45C305.609 410.4 305.61 410.88 306.08 411.83C306.08 412.3 306.549 413.25 306.549 413.73C307.029 415.15 307.5 416.1 307.5 417.53L307.979 418.48C311.299 428.92 315.1 438.42 317.47 445.54C318.89 449.34 320.32 452.66 321.27 455.03C316.05 452.66 313.199 455.51 307.509 456.93C300.859 458.36 302.759 461.68 290.419 459.31C285.669 458.36 283.3 457.41 280.93 456.93H280.45C273.8 440.79 254.819 393.33 248.169 346.81C247.219 341.11 246.75 335.89 246.27 330.2L246.279 330.18Z" fill="#F6F3F6"/>
<path d="M198.78 595.59L194.29 592.69C194 590.64 194.72 587.05 200.8 581.42C206.59 585.52 207.17 588.94 206.73 590.98L201.95 595.25L210.78 603.11L219.32 592.86L214.54 589.96C214.11 588.08 214.54 585.01 219.17 579.88C226.41 584.83 227.42 588.93 227.13 591.32L221.34 596.79L233.64 607.21L243.48 593.89L236.97 590.13C236.25 587.74 236.39 583.47 242.32 576.64C247.96 580.4 248.98 583.47 248.83 585.35L244.78 589.45L255.05 597.14L262.14 587.23L256.64 584.15C255.92 582.44 255.77 578.86 260.69 573.39C267.64 577.32 269.08 580.56 269.08 582.61L265.32 586.71L276.32 594.4L273.57 583.81L272.27 579.2L270.82 573.73L264.6 570.66L268.94 566.9L268.36 564.34L241.59 567.93L191.52 574.76L191.38 577.32L196.3 579.88L190.95 584.49L190.52 590.13L190.23 595.08L189.51 606.01L198.77 595.59H198.78ZM251.45 576.63L257.24 571.68L250.58 568.26L244.79 573.38L251.45 576.63ZM230.9 579.36L236.83 574.41L230.17 571.16L224.24 576.11L230.9 579.36ZM210.64 582.09L216.57 577.14L209.91 573.72L203.98 578.84L210.64 582.09Z" fill="#FFA500"/>
<path d="M202.68 565.87C202.54 565.87 202.54 565.699 202.54 565.699C198.63 565.699 194.87 565.529 190.96 565.189L191.39 573.05L268.23 562.629L267.65 554.77C258.97 557.84 250.29 560.41 241.75 562.11C228.58 565.01 215.56 566.21 202.68 565.87Z" fill="#FFA500"/>
<path d="M191.541 574.75L191.57 574.74L241.61 567.96L268.38 564.33L268.23 562.62L191.4 573.04L191.541 574.75Z" fill="#862D26"/>
<path d="M257.24 571.64L250.6 568.33L244.75 573.32L251.4 576.62L257.24 571.64Z" fill="#862D26"/>
<path d="M236.77 574.39L230.129 571.08L224.279 576.07L230.93 579.38L236.77 574.39Z" fill="#862D26"/>
<path d="M216.509 577.11L209.87 573.8L204.029 578.79L210.669 582.1L216.509 577.11Z" fill="#862D26"/>
<path d="M270.871 573.8L269.601 569.01L269.021 566.85L264.561 570.659L270.871 573.8Z" fill="#862D26"/>
<path d="M191.4 577.34L191.24 579.54L190.91 584.49L196.38 579.82L191.4 577.34Z" fill="#862D26"/>
<path d="M140.319 464.921C141.189 474.311 144.949 488.151 153.779 494.641C164.339 502.331 175.919 506.08 178.669 519.41C181.419 532.73 178.81 536.49 182.43 542.64C186.05 548.79 190.97 565.19 190.97 565.19C194.88 565.53 198.639 565.7 202.549 565.7C201.539 565.53 200.52 565.021 199.66 563.991C198.21 562.791 197.199 560.741 197.049 558.521C196.759 555.961 197.34 553.4 196.47 551.18H197.479C197.479 551.18 207.03 553.06 208.77 551.18C210.51 549.3 208.77 548.281 208.77 548.281C208.77 548.281 196.76 548.621 196.33 548.791C196.33 548.961 195.749 549.131 195.169 549.471C194.159 548.271 193.139 547.421 192.569 546.051C191.269 542.801 193.289 539.391 193.729 535.971C194.019 533.411 193.439 530.851 193.149 528.281C192.569 523.331 193.58 518.201 194.45 513.251C195.03 510.351 195.609 507.271 196.189 504.371C198.069 505.391 198.79 507.961 200.39 509.321C202.13 510.691 204.439 510.69 206.609 510.17C208.639 509.66 210.81 508.801 212.83 508.971C214.13 509.141 215.429 509.651 216.589 509.821C220.059 510.671 223.679 509.821 226.569 507.601C228.159 506.581 229.46 505.041 231.2 504.011C232.79 502.991 234.82 502.47 236.41 503.67C238.87 505.38 239.01 509.821 241.47 511.531C243.06 512.551 244.94 512.211 246.68 512.551C248.85 513.061 250.88 514.941 251.74 517.331C252.75 519.891 252.46 522.8 251.16 525.19C250.87 525.7 250.44 526.381 250.29 527.071C250 527.751 250 528.611 250 529.461C250.14 532.711 250.14 535.781 250.14 539.021C250.28 539.871 250.28 540.731 250 541.581C249.86 542.601 249.28 543.46 248.7 544.14C246.96 547.39 246.82 553.881 245.37 557.801C245.08 558.821 244.649 559.68 244.209 560.19C243.489 561.04 242.62 561.561 241.75 562.071C250.29 560.361 258.969 557.801 267.649 554.731C267.939 554.731 268.95 554.05 274.02 541.92C279.95 527.91 284.87 516.3 290.52 511.18C296.17 506.06 304.849 510.331 308.899 498.031C312.949 485.731 318.879 485.731 321.919 482.661C325.099 479.411 335.959 465.581 326.549 458.241C326.409 458.241 326.409 458.07 326.259 458.07C326.119 457.9 325.97 457.731 325.83 457.731C316.86 451.241 314.4 455.171 307.74 456.711C300.94 458.251 302.53 461.491 290.52 459.101C285.89 458.251 283.14 457.221 280.83 456.881H280.689C277.219 456.371 275.34 457.051 270.85 460.981C263.61 467.471 261.59 481.821 252.33 468.501C243.07 455.181 239.599 446.301 229.609 451.591C219.629 457.051 201.1 451.591 201.1 451.591C201.1 451.591 188.8 450.051 179.39 458.251C169.84 466.621 169.84 462.691 161.45 456.711C161.02 456.371 160.439 456.031 159.859 455.861C151.609 451.081 140.029 452.101 140.029 460.131C140.029 461.501 140.169 463.031 140.319 464.911V464.921ZM201.1 499.081C202.11 500.451 202.84 501.811 204.43 501.981C205.88 502.321 208.19 501.811 209.64 501.471C211.23 501.301 211.379 501.13 212.819 501.64C213.689 501.81 214.409 502.321 215.129 502.491C217.159 503.001 219.18 502.32 221.06 501.64C224.39 500.44 225.549 498.571 225.109 494.301C225.109 493.961 225.109 493.62 224.819 493.45C224.529 492.94 223.95 492.771 223.52 492.771C220.92 492.601 218.31 492.94 215.85 493.45C210.78 494.3 206.149 493.281 201.379 495.331C200.509 495.841 200.659 498.061 201.089 499.091L201.1 499.081Z" fill="black"/>
<path d="M192.549 546.05C193.129 547.42 194.139 548.27 195.149 549.47C195.729 549.13 196.31 548.96 196.31 548.79C196.74 548.62 208.75 548.28 208.75 548.28C208.75 548.28 210.49 549.3 208.75 551.18C207.01 553.06 197.46 551.18 197.46 551.18H196.45C197.32 553.4 196.739 555.96 197.029 558.52C197.169 560.74 198.19 562.79 199.64 563.99C200.51 565.01 201.519 565.53 202.529 565.7C202.529 565.7 202.53 565.87 202.67 565.87C215.55 566.21 228.57 565.02 241.74 562.11C242.61 561.6 243.48 561.09 244.2 560.23C244.63 559.72 245.069 558.86 245.359 557.84C246.809 553.91 246.95 547.42 248.69 544.18C249.27 543.5 249.85 542.64 249.99 541.62C250.28 540.77 250.279 539.91 250.129 539.06C250.129 535.81 250.13 532.74 249.99 529.5C249.99 528.65 249.989 527.79 250.279 527.11C250.419 526.43 250.859 525.74 251.149 525.23C252.449 522.84 252.74 519.94 251.73 517.37C250.86 514.98 248.84 513.1 246.67 512.59C244.93 512.25 243.05 512.59 241.46 511.57C239 509.86 238.859 505.42 236.399 503.71C234.809 502.51 232.78 503.03 231.19 504.05C229.45 505.07 228.15 506.61 226.56 507.64C223.67 509.86 220.05 510.71 216.58 509.86C215.42 509.69 214.119 509.18 212.819 509.01C210.789 508.84 208.62 509.69 206.6 510.21C204.43 510.72 202.109 510.72 200.379 509.36C198.789 507.99 198.06 505.43 196.18 504.41C195.6 507.31 195.02 510.39 194.44 513.29C193.57 518.24 192.56 523.37 193.14 528.32C193.43 530.88 194.01 533.44 193.72 536.01C193.29 539.43 191.26 542.84 192.56 546.09L192.549 546.05ZM243.339 550.32C243.339 550.32 245.22 547.93 241.89 548.1C235.96 549.81 217.58 547.25 217.58 547.25C217.58 547.25 215.119 547.76 215.259 550.32C222.059 556.3 243.33 550.32 243.33 550.32H243.339ZM225.25 541.44C225.68 541.27 227.28 541.1 229.16 541.1H230.029L234.37 541.27C237.26 541.27 239.87 541.44 239.87 541.44C241.03 538.19 236.83 533.92 232.92 533.24C229.16 532.56 223.95 537.51 223.66 538.53C223.23 539.55 223.52 542.29 225.25 541.43V541.44ZM210.2 528.46V528.63C210.63 529.31 210.779 531.02 210.779 532.39C210.779 533.93 210.64 535.46 210.49 537C210.2 540.07 209.91 543.15 209.48 546.05C210.35 543.15 211.069 540.24 211.649 537.17C211.939 535.63 212.08 534.1 212.23 532.56C212.23 530.85 212.519 529.49 211.509 527.44C210.059 524.88 207.46 523 207.31 520.78C207.31 518.22 207.739 515.14 208.899 513.26C209.909 511.21 212.23 511.89 214.54 513.26C217 514.28 219.46 514.8 221.92 514.97C223.08 515.82 224.38 517.02 224.67 518.56V519.07C224.67 519.58 224.53 520.09 224.24 520.61C224.1 521.12 223.81 521.63 223.37 522.15C224.38 521.3 225.399 520.1 225.399 518.39C225.259 516.34 223.949 514.63 222.509 513.61H222.22C219.9 513.1 217.3 512.59 215.27 511.39C213.53 510.02 209.48 508.14 207.17 511.56C205.29 514.64 205.14 517.71 205.29 521.12C206.16 525.22 208.91 526.24 210.21 528.47L210.2 528.46ZM200.649 541.61H201.52C203.26 541.44 204.409 541.44 205.279 541.44C207.449 541.44 207.879 541.61 207.879 541.61C207.879 541.61 209.04 533.41 202.96 533.92C196.74 534.26 195 537.51 195 537.51C195 537.51 195.87 541.44 200.64 541.61H200.649Z" fill="#FB898C"/>
<path d="M224.89 493.4C224.6 492.88 223.99 492.77 223.46 492.73C220.89 492.57 218.33 493.01 215.79 493.45C210.73 494.32 206.12 493.22 201.35 495.4C200.55 495.77 200.69 498.14 201.12 499.02C202.13 500.38 202.89 501.75 204.4 502.01C205.91 502.27 208.16 501.75 209.67 501.52C211.25 501.27 211.3 501.21 212.84 501.67C213.62 501.9 214.35 502.32 215.12 502.54C217.08 503.1 219.13 502.37 221.06 501.65C224.4 500.4 225.54 498.5 225.11 494.34C225.08 494.01 225.04 493.68 224.89 493.4Z" fill="#9C5F59"/>
<path d="M217.58 547.24C217.58 547.24 215.08 547.78 215.31 550.32C222.01 556.35 243.34 550.32 243.34 550.32C243.34 550.32 245.16 547.91 241.87 548.18C235.95 549.77 217.58 547.24 217.58 547.24Z" fill="black"/>
<path d="M223.601 538.53C223.261 539.6 223.49 542.28 225.21 541.48C225.8 541.2 227.771 541.12 230.041 541.13L229.17 541.1C228.59 540.42 228.3 539.56 228.3 538.54C228.3 536.32 229.89 534.44 231.77 534.44C233.65 534.44 235.241 536.32 235.241 538.54C235.241 539.55 234.941 540.54 234.391 541.22C237.321 541.33 239.831 541.48 239.831 541.48C240.961 538.26 236.771 533.98 232.931 533.31C229.101 532.64 223.941 537.46 223.601 538.53Z" fill="#CCCCCC"/>
<path d="M231.77 534.439C229.89 534.439 228.3 536.32 228.3 538.54C228.3 539.56 228.59 540.42 229.17 541.1L230.04 541.129L234.38 541.27C234.38 541.27 234.38 541.229 234.4 541.219C234.96 540.539 235.25 539.54 235.25 538.54C235.25 536.32 233.66 534.439 231.78 534.439H231.77Z" fill="black"/>
<path d="M202.97 533.93C196.75 534.27 195.01 537.52 195.01 537.52C195.01 537.52 195.88 541.45 200.65 541.62C199.93 540.77 199.49 539.74 199.49 538.55C199.49 536.33 201.08 534.45 202.96 534.45C204.84 534.45 206.29 536.33 206.29 538.55C206.29 539.57 206 540.6 205.28 541.45C207.45 541.45 207.88 541.62 207.88 541.62C207.88 541.62 209.04 533.42 202.96 533.93H202.97Z" fill="#CCCCCC"/>
<path d="M202.97 534.439C201.09 534.439 199.5 536.32 199.5 538.54C199.5 539.74 199.93 540.76 200.66 541.61H201.53C203.27 541.44 204.42 541.439 205.29 541.439C206.01 540.589 206.3 539.56 206.3 538.54C206.3 536.32 204.85 534.439 202.97 534.439Z" fill="black"/>
<path d="M210.259 528.59C210.699 529.27 210.829 531 210.809 532.42C210.809 533.91 210.669 535.44 210.509 536.95C210.279 540 209.95 543.08 209.49 546.13C210.32 543.19 211.099 540.22 211.669 537.16C211.899 535.62 212.109 534.07 212.189 532.48C212.189 530.87 212.469 529.28 211.439 527.34L211.479 527.4C210.049 524.8 207.449 522.94 207.359 520.78C207.329 518.28 207.789 515.09 208.849 513.18C209.969 511.2 212.179 511.85 214.529 513.26C216.989 514.37 219.47 514.78 221.99 515.01C223.13 515.87 224.349 517.01 224.629 518.54C224.909 520.16 223.769 521.79 222.569 522.87C223.859 522.02 225.379 520.67 225.359 518.46C225.239 516.3 223.929 514.72 222.539 513.66L222.45 513.59L222.269 513.56C219.849 513.19 217.35 512.58 215.2 511.41C213.46 510.06 209.439 508.13 207.149 511.62C205.269 514.62 205.149 517.77 205.319 521.12C206.149 525.15 208.92 526.19 210.2 528.54L210.24 528.6L210.259 528.59Z" fill="black"/>
<path d="M248.121 346.73C247.401 341.26 246.82 335.8 246.38 330.33H201.811C201.231 335.8 200.511 341.26 199.641 346.73H248.121Z" fill="#4000FF"/>
<path d="M129.609 330.33H149.29C148.13 339.21 146.54 348.61 144.66 358.17C144.66 358.51 144.52 359.02 144.52 359.37C142.64 369.11 140.469 378.67 138.149 388.06L133.08 387.55C131.2 387.38 129.75 385.5 129.75 383.28V383.11C130.33 383.11 131.049 382.94 131.629 382.94C131.919 382.77 132.21 382.77 132.5 382.6C132.64 382.43 132.79 382.09 132.93 381.92C133.22 380.72 133.51 379.7 133.22 378.5C132.93 376.96 132.209 375.77 131.049 375.08C130.619 374.91 130.18 374.74 129.75 374.57V373.2C130.18 373.37 130.47 373.37 130.91 373.54C131.92 373.88 133.079 374.05 134.089 373.88C135.099 373.71 136.119 373.03 136.399 371.83C136.829 369.95 136.54 367.9 135.39 366.71C134.23 365.86 132.059 364.49 130.759 363.81C130.329 363.64 130.04 363.47 129.75 363.3V360.74C131.49 361.76 133.22 362.79 135.1 363.13C135.82 363.3 136.549 363.13 137.129 362.62C138.429 361.94 138.429 359.03 137.709 357.67C136.839 356.3 135.539 355.62 134.379 354.94C132.789 354.09 131.05 353.4 129.75 352.21V349.31C130.47 349.82 131.049 350.51 131.629 351.19C133.219 353.07 135.54 353.92 137.85 354.09C138.14 354.09 138.43 353.92 138.72 353.75C138.86 353.58 139.009 353.24 139.149 353.07C139.869 350.85 139.29 348.29 137.99 346.41C136.69 344.53 134.949 343.34 133.209 342.48C132.049 341.8 130.9 341.28 129.74 340.77V339.23C130.46 338.03 130.899 336.67 130.899 334.96C130.899 333.08 130.32 331.71 129.6 330.35L129.609 330.33Z" fill="#DF0401"/>
<path d="M103.7 399.02C103.3 399.62 102.77 399.99 102.26 400.41C102.29 400.48 102.4 400.699 102.4 400.699C105.44 413.519 110.76 425.09 116.72 434.9C117.17 418.44 117.58 405.22 117.73 400.39L103.7 399.02Z" fill="#DF0401"/>
<path d="M117.891 330.33H119.34C119.05 330.84 118.761 331.35 118.621 331.87C118.331 331.36 118.19 330.85 117.9 330.33H117.891Z" fill="#DF0401"/>
<path d="M131.38 400.39C131.46 402.76 131.59 407.27 131.76 413.03C131.81 412.84 131.86 412.67 131.91 412.49C132.45 410.58 132.98 408.5 133.52 406.48C134.07 404.38 134.63 402.2 135.19 400.03L131.38 400.4V400.39Z" fill="#DF0401"/>
<path d="M144.479 359.43C142.589 369.03 140.43 378.71 138.16 388.02L145.339 388.76C145.339 388.76 145.36 388.72 145.37 388.7C146.53 386.95 148.23 385.95 150.24 385.95C153.73 385.95 156.589 389.45 156.589 393.82C156.589 398.19 153.73 401.69 150.24 401.69C148.27 401.69 146.61 400.71 145.45 399.02L135.259 400.02C134.679 402.23 134.109 404.31 133.529 406.48C132.989 408.5 132.459 410.58 131.919 412.49C131.869 412.65 131.829 412.84 131.779 413V413.17V413.19C132.099 424.14 132.54 439.98 132.95 457.06C135.7 460.3 138.3 462.87 140.33 464.91C140.19 463.03 140.04 461.49 140.04 460.13C140.04 452.1 151.62 451.08 159.87 455.86C168.26 441.17 191.27 397.96 199.66 346.72C200.53 341.25 201.25 335.79 201.83 330.32H149.299C148.169 339.2 146.579 348.63 144.729 358.13C144.649 358.56 144.58 358.98 144.49 359.41L144.479 359.43Z" fill="#F6F3F6"/>
<path d="M131.77 413.03C131.6 407.27 131.46 402.76 131.39 400.39L124.509 401.01C125.309 456.36 125.44 511.71 124.92 567.07C124.12 511.72 123.979 456.37 124.509 401.01L117.74 400.39C117.59 405.22 117.18 418.43 116.73 434.9C115.62 475.49 114.259 536.42 115.839 544.41C118.799 559.65 124.52 595.12 124.52 595.12C124.52 595.12 130.339 559.65 133.299 544.41C134.549 537.78 133.84 494.73 132.95 457.06C132.54 439.98 132.099 424.13 131.779 413.19C131.779 413.14 131.779 413.08 131.779 413.02L131.77 413.03Z" fill="#A19FE5"/>
<path d="M128.88 340.58C129.17 340.24 129.46 339.9 129.75 339.38V340.75C129.46 340.58 129.17 340.58 128.88 340.58Z" fill="black"/>
<path d="M123.96 347.58C125.41 346.9 126.71 347.41 128.16 348.26C128.74 348.6 129.32 348.94 129.75 349.28V352.18C129.61 352.01 129.46 352.01 129.32 351.84C127.73 350.13 126.43 350.3 125.56 349.62C124.69 348.77 123.97 348.94 123.97 347.57L123.96 347.58Z" fill="black"/>
<path d="M120.49 359.71C120.63 358.86 120.49 357.32 121.21 357.32C122.08 357.15 123.09 357.15 123.81 357.49C125.84 358.17 127.86 359.54 129.74 360.74V363.3C128 362.62 126.7 361.93 124.67 361.93C123.66 361.93 122.36 361.76 121.49 361.25C120.62 360.74 120.04 360.74 120.48 359.71H120.49Z" fill="black"/>
<path d="M119.19 371.33C118.9 370.82 118.9 370.31 119.19 369.96C119.33 369.45 119.77 369.28 120.35 369.28C121.07 369.28 121.65 369.79 122.23 370.13C124.55 371.5 127.15 372.35 129.75 373.2V374.57C128.74 374.23 127.58 373.89 126.71 373.89C125.12 373.72 123.82 373.21 122.22 373.21C121.21 373.04 119.91 372.7 119.33 371.67C119.237 371.557 119.19 371.444 119.19 371.33Z" fill="black"/>
<path d="M105.3 393.87C105.3 391.82 104.72 390.11 103.71 388.75L115.86 387.56C117.74 387.39 119.19 385.51 119.19 383.29V382.09C119.62 382.09 120.06 382.26 120.64 382.43C122.52 382.94 124.4 383.28 126.28 383.45C127.44 383.45 128.59 383.28 129.75 383.11V383.28C129.75 385.5 131.2 387.38 133.08 387.55L138.15 388.06L145.39 388.74C144.38 390.11 143.8 391.82 143.8 393.86C143.8 395.74 144.38 397.62 145.39 398.98L135.26 400L131.35 400.34L124.55 401.02L117.75 400.34L103.71 398.97C104.72 397.6 105.3 395.9 105.3 393.85V393.87Z" fill="black"/>
<path d="M145.37 398.95C145.37 398.95 145.43 398.99 145.45 399.02C146.61 400.71 148.27 401.69 150.24 401.69C153.73 401.69 156.589 398.19 156.589 393.82C156.589 389.45 153.73 385.95 150.24 385.95C148.23 385.95 146.54 386.95 145.37 388.7C145.36 388.72 145.349 388.74 145.339 388.76C144.309 390.13 143.779 391.85 143.779 393.82C143.779 395.79 144.31 397.57 145.37 398.94V398.95Z" fill="#E17254"/>
<path d="M118.61 331.87C118.75 331.36 119.04 330.85 119.33 330.33H129.6C130.32 331.7 130.9 333.06 130.9 334.94C130.9 336.65 130.47 338.01 129.74 339.21V339.38C129.45 339.89 129.16 340.23 128.87 340.58C128.15 340.24 127.57 339.9 126.84 339.73C125.1 339.22 123.37 338.71 122.06 337.51C120.61 336.32 119.75 334.61 119.02 332.73C118.88 332.39 118.73 332.22 118.59 331.88L118.61 331.87Z" fill="#E17254"/>
<path d="M103.71 399.02C104.77 397.65 105.3 395.9 105.3 393.9C105.3 391.9 104.77 390.15 103.71 388.78C102.55 387.03 100.86 386.04 98.9502 386.04C97.7902 386.04 96.7698 386.5 95.8398 387.13C93.8698 388.47 92.4902 390.94 92.4902 393.91C92.4902 398.28 95.3502 401.78 98.9502 401.78C100.2 401.78 101.29 401.21 102.27 400.42C102.78 400.01 103.31 399.63 103.71 399.03V399.02Z" fill="#E17254"/>
<path d="M124.911 567.08C125.441 511.73 125.311 456.37 124.501 401.02C123.971 456.37 124.111 511.73 124.911 567.08Z" fill="#797BC3"/>
<path d="M221.82 433.87C232.68 457.49 260.37 448.34 260.37 424.92C260.37 398.68 231.66 389.41 221.96 364.99L221.81 364.65L221.66 364.99C211.97 389.41 183.25 398.68 183.25 424.92C183.25 448.34 210.94 457.49 221.81 433.87H221.82Z" fill="#EB3000"/>
<path d="M89.2401 374.4C90.9801 377.64 93.58 382.43 95.89 387.04C96.76 386.53 97.7701 386.01 98.9301 386.01C100.81 386.01 102.55 387.04 103.71 388.74L115.86 387.55C117.74 387.38 119.19 385.5 119.19 383.28V382.08C117.89 381.74 116.59 381.4 115.28 381.06C113.25 380.55 100.69 378.64 99.9901 365.24C99.6501 358.76 100.58 353.27 99.85 346.95C99.28 341.53 94.5898 334.77 91.6898 330.33H85.89C80.83 350.31 85.3101 367.73 89.2201 374.39L89.2401 374.4Z" fill="#DF0401"/>
<path d="M100 365.25C100.7 378.65 113.261 380.56 115.291 381.07C116.591 381.41 117.891 381.75 119.201 382.09C119.631 382.09 120.07 382.26 120.65 382.43C122.53 382.94 124.411 383.28 126.291 383.46C127.451 383.46 128.6 383.29 129.76 383.12C130.34 383.12 131.061 382.95 131.641 382.95C131.931 382.78 132.22 382.78 132.51 382.61C132.65 382.44 132.8 382.1 132.94 381.93C133.23 380.74 133.52 379.71 133.23 378.51C132.94 376.97 132.221 375.78 131.061 375.09C130.631 374.92 130.19 374.75 129.76 374.58C128.75 374.24 127.591 373.9 126.721 373.9C125.131 373.73 123.831 373.22 122.241 373.22C121.231 373.05 119.931 372.7 119.351 371.68C119.257 371.566 119.21 371.453 119.21 371.34C118.92 370.83 118.92 370.31 119.21 369.97C119.35 369.46 119.791 369.29 120.371 369.29C121.091 369.29 121.67 369.8 122.25 370.14C124.56 371.51 127.171 372.36 129.771 373.22C130.201 373.39 130.491 373.39 130.931 373.56C131.941 373.9 133.1 374.07 134.11 373.9C135.12 373.73 136.14 373.05 136.42 371.85C136.85 369.97 136.561 367.92 135.411 366.73C134.251 365.88 132.08 364.51 130.78 363.83C130.35 363.66 130.061 363.49 129.771 363.32C128.031 362.64 126.73 361.96 124.71 361.96C123.7 361.96 122.4 361.79 121.53 361.28C120.66 360.77 120.081 360.77 120.521 359.74C120.661 358.89 120.521 357.35 121.241 357.35C122.111 357.18 123.12 357.18 123.84 357.52C125.87 358.2 127.891 359.57 129.771 360.76C131.511 361.79 133.241 362.81 135.121 363.15C135.841 363.32 136.57 363.15 137.15 362.64C138.45 361.96 138.45 359.05 137.73 357.69C136.86 356.32 135.56 355.64 134.4 354.96C132.81 354.11 131.071 353.42 129.771 352.23C129.631 352.06 129.48 352.06 129.34 351.89C127.75 350.18 126.451 350.35 125.581 349.67C124.711 348.82 123.991 348.99 123.991 347.62C125.441 346.94 126.74 347.45 128.19 348.3C128.77 348.64 129.35 348.98 129.78 349.33C130.5 349.84 131.081 350.52 131.661 351.21C133.251 353.09 135.57 353.94 137.88 354.12C138.17 354.12 138.46 353.95 138.75 353.78C138.89 353.61 139.041 353.27 139.181 353.1C139.901 350.88 139.321 348.32 138.021 346.44C136.721 344.56 134.98 343.36 133.25 342.51C132.09 341.83 130.94 341.31 129.78 340.8C129.49 340.63 129.201 340.63 128.911 340.63C128.191 340.29 127.61 339.95 126.88 339.78C125.14 339.27 123.41 338.75 122.11 337.56C120.66 336.36 119.8 334.66 119.07 332.78C118.93 332.44 118.781 332.27 118.641 331.93C118.351 331.42 118.21 330.91 117.92 330.39L91.6504 330.26C91.6504 330.26 91.7105 330.35 91.7305 330.39C94.6305 334.83 99.3106 341.59 99.8906 347.01C100.611 353.33 99.6903 358.82 100.03 365.3L100 365.25Z" fill="#FFA8B8"/>
<path d="M262.42 369.1C262.42 365.3 262.9 361.98 263.85 358.66C264.33 355.81 265.27 352.96 266.7 350.59C270.97 341.57 278.09 334.45 286.64 330.18H320.82C326.52 333.03 331.74 337.3 336.01 342.52C337.44 344.42 338.86 346.79 339.81 349.17H340.29C342.66 353.44 344.09 358.66 344.56 363.88C345.03 365.3 345.03 366.73 345.03 368.63V371C344.08 389.51 332.22 405.18 316.08 409.92C312.76 411.35 309.43 411.82 306.11 411.82C305.63 412.29 304.68 412.29 304.21 412.29H303.73C284.75 412.29 268.61 398.53 263.86 380.01C263.38 378.11 262.91 375.74 262.91 373.37C262.43 371.94 262.43 370.52 262.43 369.1H262.42Z" fill="#FFE500"/>
<path d="M313.5 416.07C312.09 415.88 310.55 415.88 309.1 416.6C308.51 416.85 308.08 417.09 307.52 417.52L307.82 420.03L308.38 424.67L297.45 425.99L298.53 434.95L309.46 433.63L311 446.35L318.44 445.45L316.9 432.73L327.68 431.43L326.6 422.47L315.82 423.77L315.26 419.13L314.96 416.62C314.46 416.32 313.98 416.19 313.51 416.07H313.5Z" fill="#FFA500"/>
<path d="M309.94 407.05C306.6 407.45 303.93 409.6 304.21 411.93L304.36 413.18L304.84 417.12C304.71 416.05 305.19 414.9 306.19 414.23C306.47 414.01 306.75 413.8 307.04 413.58C307.32 413.36 307.469 413.35 307.759 413.13C308.629 412.66 309.52 412.37 310.58 412.24C311.49 412.13 312.42 412.2 313.23 412.46C313.71 412.58 314.179 412.71 314.509 412.85C314.809 412.81 315.14 412.96 315.31 413.12C316.44 413.53 317.169 414.53 317.299 415.61L316.799 411.49L316.65 410.24C316.22 407.93 313.29 406.65 309.95 407.05H309.94Z" fill="#FFA500"/>
<path d="M315.299 413.13C315.129 412.97 314.799 412.83 314.499 412.86C314.169 412.72 313.7 412.59 313.22 412.47C312.42 412.2 311.489 412.13 310.569 412.25C309.509 412.38 308.619 412.67 307.749 413.14C307.469 413.36 307.319 413.37 307.029 413.59C306.749 413.81 306.47 414.02 306.18 414.24C305.18 414.91 304.699 416.05 304.829 417.13C304.979 418.38 306.199 419.51 307.799 420.04L307.499 417.53C308.059 417.1 308.499 416.86 309.079 416.61C310.529 415.89 312.069 415.88 313.479 416.08C313.959 416.2 314.43 416.33 314.93 416.63L315.229 419.14C316.659 418.24 317.419 416.88 317.269 415.62C317.139 414.54 316.399 413.54 315.279 413.13H315.299Z" fill="#AA8100"/>
<path d="M262.73 373.21C273.99 370.18 285.91 367.7 297.82 366.41L300.851 365.98C305.401 365.55 309.731 365.11 314.271 364.9C315.141 364.68 316.001 364.68 316.871 364.68C325.961 364.03 335.481 364.05 344.791 364.05C345.131 363.7 345.581 370.04 345.061 370.98C337.481 370.98 329.64 370.95 322.28 371.39C302.15 372.69 282.5 375.32 263.88 380.08C263.23 377.92 262.87 375.55 262.73 373.21Z" fill="#E9B100"/>
<path d="M263.859 358.5C264.169 355.63 265.199 352.91 266.649 350.6C276.819 348 287.209 346.06 297.819 344.76L300.85 344.33C305.4 343.9 309.73 343.46 314.27 343.25C315.14 343.03 316 343.03 316.87 343.03C323.15 342.6 329.859 342.46 336.359 342.67C338.289 344.63 339.58 346.88 340.43 349.25C334.37 349.25 328.129 349.31 322.279 349.74C302.149 351.04 282.479 353.74 263.859 358.5Z" fill="#E9B100"/>
<path d="M335.069 363.019C337.649 362.709 339.439 359.989 339.069 356.949C338.699 353.909 336.32 351.699 333.74 352.009C331.16 352.319 329.37 355.039 329.74 358.079C330.11 361.119 332.489 363.329 335.069 363.019Z" fill="#E9B100"/>
<path d="M310.42 363.78C313 363.47 314.79 360.75 314.42 357.71C314.05 354.67 311.659 352.46 309.089 352.77C306.509 353.08 304.719 355.8 305.089 358.84C305.459 361.88 307.84 364.09 310.42 363.78Z" fill="#E9B100"/>
<path d="M283.6 355.93C280.99 356.25 279.17 359 279.55 362.08C279.92 365.16 282.341 367.41 284.951 367.09C287.561 366.77 289.38 364.02 289 360.94C288.63 357.86 286.21 355.61 283.6 355.93Z" fill="#E9B100"/>
<path d="M322.73 360.089C323.9 359.949 324.72 358.709 324.55 357.329C324.38 355.939 323.3 354.939 322.12 355.079C320.95 355.219 320.13 356.459 320.3 357.839C320.47 359.219 321.55 360.229 322.73 360.089Z" fill="#E9B100"/>
<path d="M270.779 362.48C269.689 362.61 268.939 363.76 269.089 365.04C269.249 366.32 270.249 367.26 271.339 367.12C272.429 366.99 273.179 365.84 273.029 364.56C272.869 363.28 271.869 362.34 270.779 362.48Z" fill="#E9B100"/>
<path d="M299.03 359.48C298.87 358.15 297.831 357.19 296.701 357.32C295.581 357.46 294.791 358.64 294.961 359.97C295.121 361.3 296.161 362.26 297.291 362.13C298.411 361.99 299.201 360.81 299.041 359.48H299.03Z" fill="#E9B100"/>
<path d="M275.76 330.33H283.28L278.79 337.5C278.79 337.5 269.67 341.09 275.75 330.33H275.76Z" fill="#FFA8B8"/>
<path d="M325.391 330.33H335.811C337.261 334.26 339.43 341.94 337.55 348.78C336.83 355.27 339.431 358.34 339.431 358.34C339.431 358.34 339.14 359.54 338.42 360.39C338.28 360.9 337.841 361.41 337.411 361.41C336.401 362.09 335.1 361.58 333.36 358.34C333.22 358.17 333.22 358 333.07 357.83C332.78 357.32 332.491 356.81 332.351 356.29C331.051 353.73 330.031 351.34 329.601 349.29C327.861 344.85 327.281 341.43 327.431 339.04C327.431 338.53 327.431 338.02 327.291 337.5C327.151 335.11 326.131 332.21 325.411 330.33H325.391Z" fill="#FFA8B8"/>
<path d="M301.95 354.08C301.66 353.23 301.66 352.37 301.95 351.69C302.24 350.84 302.82 349.47 303.54 347.59C305.57 342.81 308.75 335.63 311.93 330.34H324.09C323.51 331.19 322.79 332.22 322.21 333.24C319.17 337.51 315.55 343.15 312.8 347.93C311.35 350.32 310.2 352.54 309.47 354.25C309.18 354.76 309.04 355.27 308.89 355.62C308.75 355.96 308.6 356.3 308.31 356.65C307.73 358.02 307.01 358.7 306.28 358.87C304.4 359.21 302.23 356.48 301.94 354.09L301.95 354.08Z" fill="#FFA8B8"/>
<path d="M286.9 354.42C287.04 353.91 287.331 353.22 287.621 352.54C288.341 351.34 289.07 349.81 289.94 347.93C292.11 342.81 294.711 335.8 299.061 330.34H309.911C307.451 333.41 301.81 340.93 298.48 347.59C297.32 349.98 296.451 352.2 296.021 354.25C295.881 354.93 295.88 355.62 295.88 356.3C295.59 359.2 291.681 359.55 289.221 358.18C288.501 357.84 287.92 357.5 287.48 356.64H287.34C287.05 355.96 286.911 355.27 286.911 354.42H286.9Z" fill="#FFA8B8"/>
<path d="M276.77 341.95C277.78 340.07 278.94 338.36 280.24 336.66C281.83 334.27 283.57 332.05 285.16 330.34H294.42C291.53 334.61 286.32 342.3 284.58 348.27C284.44 348.78 284.29 349.29 284.15 349.81C283.14 353.91 276.77 353.23 275.47 348.79C274.89 347.08 275.04 344.86 276.77 341.96V341.95Z" fill="#FFA8B8"/>
<defs>
<linearGradient id="paint0_linear_145_2600" x1="380.479" y1="-103.54" x2="109.989" y2="690.32" gradientUnits="userSpaceOnUse">
<stop stop-color="#E1E1E1"/>
<stop offset="0.12" stop-color="#ECECEC"/>
<stop offset="0.32" stop-color="#FAFAFA"/>
<stop offset="0.49" stop-color="white"/>
<stop offset="0.7" stop-color="#FBFBFB"/>
<stop offset="0.85" stop-color="#F2F2F2"/>
<stop offset="0.99" stop-color="#E2E2E2"/>
<stop offset="1" stop-color="#E1E1E1"/>
</linearGradient>
</defs>
</svg>
