<svg width="469" height="649" viewBox="0 0 469 649" fill="none" xmlns="http://www.w3.org/2000/svg">
<path d="M439.87 0.0200195H29.9901C13.9201 0.0200195 0.890137 12.08 0.890137 26.95V621.79C0.890137 636.66 13.9201 648.72 29.9901 648.72H439.87C455.94 648.72 468.97 636.66 468.97 621.79V26.95C468.97 12.08 455.94 0.0200195 439.87 0.0200195Z" fill="url(#paint0_linear_145_1296)"/>
<path d="M290.26 322.85C276.09 315.49 243.81 283.21 236.45 269.04C235.82 267.82 234.06 267.82 233.42 269.04C226.06 283.21 193.78 315.49 179.61 322.85C178.39 323.48 178.39 325.24 179.61 325.88C193.78 333.24 226.06 365.52 233.42 379.69C234.06 380.91 235.81 380.91 236.45 379.69C243.81 365.52 276.09 333.24 290.26 325.88C291.48 325.25 291.48 323.49 290.26 322.85Z" fill="#EB3000"/>
<path d="M85.4601 87.1799L60.1801 22.6899H55.6501L31.6801 82.5499C30.4401 85.6599 29.0801 87.7799 27.6701 88.8399C26.2901 89.8799 24.3301 90.4099 21.8601 90.4099H20.8501V95.9599H48.1601V90.4099H44.7901C42.3001 90.4099 40.3901 89.9299 39.1501 88.9699C37.9701 88.0599 37.4001 87.0299 37.4001 85.7999C37.4001 84.5699 37.8101 82.9099 38.6101 80.7799L41.6001 72.9299H67.8301L73.3401 87.0899C73.5201 87.5699 73.6101 88.0299 73.6101 88.4399C73.6101 88.9899 73.4101 89.3199 72.9201 89.5799C72.2001 89.9599 70.6401 90.4099 67.2601 90.4099H64.0401V95.9599H93.9001V90.4099H90.7201C88.0001 90.4099 86.3401 89.3799 85.4701 87.1799H85.4601ZM43.9301 67.2399L54.9501 39.8799L65.6101 67.2399H43.9301Z" fill="#EB3000"/>
<path d="M80.2901 130.05C74.2701 126.92 60.5401 113.19 57.4101 107.17C57.1401 106.65 56.3901 106.65 56.1201 107.17C52.9901 113.19 39.2601 126.92 33.2401 130.05C32.7201 130.32 32.7201 131.07 33.2401 131.34C39.2601 134.47 52.9901 148.2 56.1201 154.22C56.3901 154.74 57.1401 154.74 57.4101 154.22C60.5401 148.2 74.2701 134.47 80.2901 131.34C80.8101 131.07 80.8101 130.32 80.2901 130.05Z" fill="#EB3000"/>
<path d="M384.15 560.87L409.43 625.36H413.96L437.93 565.5C439.17 562.39 440.53 560.27 441.94 559.21C443.32 558.17 445.28 557.64 447.75 557.64H448.76V552.09H421.45V557.64H424.82C427.31 557.64 429.22 558.12 430.46 559.08C431.64 559.99 432.21 561.02 432.21 562.25C432.21 563.48 431.8 565.14 431 567.27L428.01 575.12H401.78L396.27 560.96C396.09 560.48 396 560.02 396 559.61C396 559.06 396.2 558.73 396.69 558.47C397.41 558.09 398.97 557.64 402.35 557.64H405.57V552.09H375.71V557.64H378.89C381.61 557.64 383.27 558.67 384.14 560.87H384.15ZM425.68 580.81L414.66 608.17L404 580.81H425.68Z" fill="#EB3000"/>
<path d="M389.32 518C395.34 521.13 409.07 534.86 412.2 540.88C412.47 541.4 413.22 541.4 413.49 540.88C416.62 534.86 430.35 521.13 436.37 518C436.89 517.73 436.89 516.98 436.37 516.71C430.35 513.58 416.62 499.85 413.49 493.83C413.22 493.31 412.47 493.31 412.2 493.83C409.07 499.85 395.34 513.58 389.32 516.71C388.8 516.98 388.8 517.73 389.32 518Z" fill="#EB3000"/>
<defs>
<linearGradient id="paint0_linear_145_1296" x1="380.94" y1="-104.14" x2="110.45" y2="689.73" gradientUnits="userSpaceOnUse">
<stop stop-color="#E1E1E1"/>
<stop offset="0.12" stop-color="#ECECEC"/>
<stop offset="0.32" stop-color="#FAFAFA"/>
<stop offset="0.49" stop-color="white"/>
<stop offset="0.7" stop-color="#FBFBFB"/>
<stop offset="0.85" stop-color="#F2F2F2"/>
<stop offset="0.99" stop-color="#E2E2E2"/>
<stop offset="1" stop-color="#E1E1E1"/>
</linearGradient>
</defs>
</svg>
