<svg width="469" height="650" viewBox="0 0 469 650" fill="none" xmlns="http://www.w3.org/2000/svg">
<path d="M439.48 0.899902H29.6C13.53 0.899902 0.5 12.9599 0.5 27.8299V622.67C0.5 637.54 13.53 649.6 29.6 649.6H439.48C455.55 649.6 468.58 637.54 468.58 622.67V27.8399C468.58 12.9699 455.55 0.909912 439.48 0.909912V0.899902Z" fill="url(#paint0_linear_145_1324)"/>
<path d="M72.4901 72.5699C70.8301 79.7099 69.8201 81.4998 69.4501 81.9498C68.8601 82.6798 67.7001 83.0499 65.9801 83.0499C54.4301 83.0499 49.5002 82.5298 47.4102 82.1098C48.7402 80.6598 50.5402 78.9799 52.8002 77.0798L65.2301 66.6098C68.1601 64.1598 71.0701 61.1599 73.8501 57.6898C75.5501 55.5898 76.8601 53.2898 77.7501 50.8398C78.6501 48.3898 79.1001 45.9398 79.1001 43.5398C79.1001 40.0298 78.1701 36.7398 76.3501 33.7798C74.5301 30.8098 71.7801 28.3898 68.2001 26.5898C61.1301 23.0398 52.2202 23.0399 45.0402 26.6599C41.3802 28.4999 38.6001 30.9199 36.7601 33.8499C34.9101 36.7899 33.9801 40.0998 33.9801 43.6798C33.9801 46.9998 34.8601 49.7799 36.6001 51.9099C40.0501 56.1299 45.6001 56.2499 48.7401 53.1599C50.2001 51.7199 50.9401 49.8899 50.9401 47.7399C50.9401 43.8499 48.7001 41.1798 44.6501 40.2199C43.4701 39.9299 43.1601 39.6899 43.1101 39.2999C43.1101 37.6799 44.2001 36.0298 46.3701 34.3898C48.7101 32.6298 51.8301 31.7298 55.6301 31.7298C58.8901 31.7298 61.3401 32.6199 63.1001 34.4399C64.8801 36.2899 65.7401 38.8198 65.7401 42.1798C65.7401 44.2698 65.2701 46.6599 64.3501 49.2699C63.4101 51.9199 61.8802 54.7298 59.8002 57.6098C58.3102 59.6698 53.7301 64.8798 46.1501 73.1198L31.9102 89.3098V94.6299H78.0502L79.9001 71.0199H72.8701L72.5101 72.5798L72.4901 72.5699Z" fill="#EB3000"/>
<path d="M289.39 537.06C275.22 529.7 242.94 497.42 235.58 483.25C234.94 482.03 233.19 482.03 232.55 483.25C225.19 497.42 192.91 529.7 178.74 537.06C177.52 537.69 177.52 539.45 178.74 540.09C192.91 547.45 225.19 579.73 232.55 593.9C233.19 595.12 234.94 595.12 235.58 593.9C242.94 579.73 275.22 547.45 289.39 540.09C290.61 539.46 290.61 537.7 289.39 537.06Z" fill="#EB3000"/>
<path d="M289.86 109.87C275.69 102.51 243.41 70.23 236.05 56.06C235.41 54.84 233.66 54.84 233.02 56.06C225.66 70.23 193.38 102.51 179.21 109.87C177.99 110.5 177.99 112.26 179.21 112.9C193.38 120.26 225.66 152.54 233.02 166.71C233.66 167.93 235.41 167.93 236.05 166.71C243.41 152.54 275.69 120.26 289.86 112.9C291.08 112.27 291.08 110.51 289.86 109.87Z" fill="#EB3000"/>
<path d="M79.42 131.05C73.4 127.92 59.67 114.19 56.54 108.17C56.27 107.65 55.52 107.65 55.25 108.17C52.12 114.19 38.39 127.92 32.37 131.05C31.85 131.32 31.85 132.07 32.37 132.34C38.39 135.47 52.12 149.2 55.25 155.22C55.52 155.74 56.27 155.74 56.54 155.22C59.67 149.2 73.4 135.47 79.42 132.34C79.94 132.07 79.94 131.32 79.42 131.05Z" fill="#EB3000"/>
<path d="M388.45 519C394.47 522.13 408.2 535.86 411.33 541.88C411.6 542.4 412.35 542.4 412.62 541.88C415.75 535.86 429.48 522.13 435.5 519C436.02 518.73 436.02 517.98 435.5 517.71C429.48 514.58 415.75 500.85 412.62 494.83C412.35 494.31 411.6 494.31 411.33 494.83C408.2 500.85 394.47 514.58 388.45 517.71C387.93 517.98 387.93 518.73 388.45 519Z" fill="#EB3000"/>
<path d="M395.37 578.08C397.03 570.94 398.04 569.15 398.41 568.7C399 567.97 400.16 567.6 401.88 567.6C413.43 567.6 418.36 568.12 420.45 568.54C419.12 569.99 417.32 571.67 415.06 573.57L402.63 584.04C399.7 586.49 396.79 589.49 394.01 592.96C392.31 595.06 391 597.36 390.11 599.81C389.21 602.26 388.76 604.71 388.76 607.11C388.76 610.62 389.69 613.91 391.51 616.87C393.33 619.84 396.08 622.26 399.66 624.06C406.73 627.61 415.64 627.61 422.82 623.99C426.48 622.15 429.26 619.73 431.1 616.8C432.95 613.86 433.88 610.55 433.88 606.97C433.88 603.65 433 600.87 431.26 598.74C427.81 594.52 422.26 594.4 419.12 597.49C417.66 598.93 416.92 600.76 416.92 602.91C416.92 606.8 419.16 609.47 423.21 610.43C424.39 610.72 424.7 610.96 424.75 611.35C424.75 612.97 423.66 614.62 421.49 616.26C419.15 618.02 416.03 618.92 412.23 618.92C408.97 618.92 406.52 618.03 404.76 616.21C402.98 614.36 402.12 611.83 402.12 608.47C402.12 606.38 402.59 603.99 403.51 601.38C404.45 598.73 405.98 595.92 408.06 593.04C409.55 590.98 414.13 585.77 421.71 577.53L435.95 561.34V556.02H389.81L387.96 579.63H394.99L395.35 578.07L395.37 578.08Z" fill="#EB3000"/>
<defs>
<linearGradient id="paint0_linear_145_1324" x1="380.54" y1="-103.25" x2="110.06" y2="690.62" gradientUnits="userSpaceOnUse">
<stop stop-color="#E1E1E1"/>
<stop offset="0.12" stop-color="#ECECEC"/>
<stop offset="0.32" stop-color="#FAFAFA"/>
<stop offset="0.49" stop-color="white"/>
<stop offset="0.7" stop-color="#FBFBFB"/>
<stop offset="0.85" stop-color="#F2F2F2"/>
<stop offset="0.99" stop-color="#E2E2E2"/>
<stop offset="1" stop-color="#E1E1E1"/>
</linearGradient>
</defs>
</svg>
