<svg width="469" height="649" viewBox="0 0 469 649" fill="none" xmlns="http://www.w3.org/2000/svg">
<path d="M439.13 0.0200195H29.2499C13.1799 0.0200195 0.149902 12.08 0.149902 26.95V621.79C0.149902 636.66 13.1799 648.72 29.2499 648.72H439.13C455.2 648.72 468.23 636.66 468.23 621.79V26.95C468.23 12.08 455.2 0.0200195 439.13 0.0200195Z" fill="url(#paint0_linear_145_1366)"/>
<path d="M289.51 322.85C275.34 315.49 243.06 283.21 235.7 269.04C235.06 267.82 233.31 267.82 232.67 269.04C225.31 283.21 193.03 315.49 178.86 322.85C177.64 323.48 177.64 325.24 178.86 325.88C193.03 333.24 225.31 365.52 232.67 379.69C233.31 380.91 235.06 380.91 235.7 379.69C243.06 365.52 275.34 333.24 289.51 325.88C290.73 325.25 290.73 323.49 289.51 322.85Z" fill="#EB3000"/>
<path d="M289.51 108.87C275.34 101.51 243.06 69.23 235.7 55.06C235.06 53.84 233.31 53.84 232.67 55.06C225.31 69.23 193.03 101.51 178.86 108.87C177.64 109.5 177.64 111.26 178.86 111.9C193.03 119.26 225.31 151.54 232.67 165.71C233.31 166.93 235.06 166.93 235.7 165.71C243.06 151.54 275.34 119.26 289.51 111.9C290.73 111.27 290.73 109.51 289.51 108.87Z" fill="#EB3000"/>
<path d="M289.51 536.06C275.34 528.7 243.06 496.42 235.7 482.25C235.06 481.03 233.31 481.03 232.67 482.25C225.31 496.42 193.03 528.7 178.86 536.06C177.64 536.69 177.64 538.45 178.86 539.09C193.03 546.45 225.31 578.73 232.67 592.9C233.31 594.12 235.06 594.12 235.7 592.9C243.06 578.73 275.34 546.45 289.51 539.09C290.73 538.46 290.73 536.7 289.51 536.06Z" fill="#EB3000"/>
<path d="M79.5499 130.05C73.5299 126.92 59.7999 113.19 56.6699 107.17C56.3999 106.65 55.6499 106.65 55.3799 107.17C52.2499 113.19 38.5199 126.92 32.4999 130.05C31.9799 130.32 31.9799 131.07 32.4999 131.34C38.5199 134.47 52.2499 148.2 55.3799 154.22C55.6499 154.74 56.3999 154.74 56.6699 154.22C59.7999 148.2 73.5299 134.47 79.5499 131.34C80.0699 131.07 80.0699 130.32 79.5499 130.05Z" fill="#EB3000"/>
<path d="M388.57 518C394.59 521.13 408.32 534.86 411.45 540.88C411.72 541.4 412.47 541.4 412.74 540.88C415.87 534.86 429.6 521.13 435.62 518C436.14 517.73 436.14 516.98 435.62 516.71C429.6 513.58 415.87 499.85 412.74 493.83C412.47 493.31 411.72 493.31 411.45 493.83C408.32 499.85 394.59 513.58 388.57 516.71C388.05 516.98 388.05 517.73 388.57 518Z" fill="#EB3000"/>
<path d="M67.5502 56.0999C70.1902 54.6099 72.2001 52.9699 73.6101 51.1499C75.7901 48.3499 76.8901 44.9899 76.8901 41.1899C76.8901 35.9299 74.8801 31.4599 70.9401 27.8999C67.0501 24.3899 61.8401 22.6099 55.4401 22.6099C48.5701 22.6099 43.1601 24.6699 39.3801 28.7299C36.6401 31.6799 35.2601 35.1299 35.2601 38.9699C35.2601 41.5799 35.9101 43.6999 37.2101 45.2599C39.8401 48.4299 44.8501 48.4899 47.6101 45.9199C48.9501 44.6699 49.6702 43.0399 49.6702 41.1999C49.6702 38.9299 48.5901 36.7799 46.5101 34.8599C45.6501 34.0299 45.4001 33.5799 45.3401 33.5499C45.4201 33.3899 45.8101 32.7799 47.4701 31.7699C49.2201 30.7099 51.6902 30.1799 54.7802 30.1799C57.8702 30.1799 60.3201 31.0399 61.8401 32.7999C63.4301 34.6299 64.2301 37.9499 64.2301 42.6699C64.2301 46.3699 63.4102 49.0799 61.7902 50.7199C60.1802 52.3599 57.6202 53.1899 54.2902 53.1899L49.3401 52.9999C47.7801 52.9999 46.6101 53.3099 45.7501 53.9399C44.7601 54.6799 44.2101 55.7999 44.2101 57.0899C44.2101 58.3099 44.7702 59.4099 45.7802 60.1799C46.6602 60.8399 47.8001 61.1799 49.1901 61.1799C49.8201 61.1799 50.8402 61.0899 52.2902 60.8699C53.7702 60.6399 55.0001 60.5199 55.9901 60.5199C59.4001 60.5199 61.8601 61.4599 63.4901 63.3799C65.1901 65.3699 66.0502 68.9699 66.0502 74.0799C66.0502 78.8899 65.0402 82.3699 63.0602 84.3999C61.0902 86.4199 57.8802 87.4499 53.5302 87.4499C50.9302 87.4499 48.7701 87.1399 47.1401 86.5199C45.6101 85.9399 44.4701 85.1999 43.7401 84.2999C42.9701 83.3599 42.8001 82.7799 42.6901 82.7799C42.7801 82.6799 43.0701 82.4399 43.7401 82.0799C45.3201 81.2099 46.4301 80.2499 47.1201 79.1399C47.8301 78.0199 48.1802 76.6599 48.1802 75.1199C48.1802 72.7799 47.5102 70.8699 46.1802 69.4299C43.3402 66.3699 37.8701 66.4799 34.9001 69.9999C33.4301 71.7499 32.6802 74.0899 32.6802 76.9599C32.6802 80.2899 33.5501 83.3399 35.2601 86.0199C36.9701 88.6999 39.5601 90.8399 42.9401 92.3799C46.2301 93.8799 50.1701 94.6399 54.6501 94.6399C62.1301 94.6399 68.3202 92.5699 73.0402 88.4999C77.3302 84.8399 79.5001 79.9399 79.5001 73.9399C79.5001 68.6299 77.6801 64.0999 74.1001 60.4899C72.3401 58.7099 70.1401 57.2399 67.5201 56.0999H67.5502Z" fill="#EB3000"/>
<path d="M401.66 591.59C399.02 593.08 397.01 594.72 395.6 596.54C393.42 599.34 392.32 602.7 392.32 606.5C392.32 611.76 394.33 616.23 398.27 619.79C402.16 623.3 407.37 625.08 413.77 625.08C420.64 625.08 426.05 623.02 429.83 618.96C432.57 616.01 433.95 612.56 433.95 608.72C433.95 606.11 433.3 603.99 432 602.43C429.37 599.26 424.36 599.2 421.6 601.77C420.26 603.02 419.54 604.65 419.54 606.49C419.54 608.76 420.62 610.91 422.7 612.83C423.56 613.66 423.81 614.11 423.87 614.14C423.79 614.3 423.4 614.91 421.74 615.92C419.99 616.98 417.52 617.51 414.43 617.51C411.34 617.51 408.89 616.65 407.37 614.89C405.78 613.06 404.98 609.74 404.98 605.02C404.98 601.32 405.8 598.61 407.42 596.97C409.03 595.33 411.59 594.5 414.92 594.5L419.87 594.69C421.43 594.69 422.6 594.38 423.46 593.75C424.45 593.01 425 591.89 425 590.6C425 589.38 424.44 588.28 423.43 587.51C422.55 586.85 421.41 586.51 420.02 586.51C419.39 586.51 418.37 586.6 416.92 586.82C415.44 587.05 414.21 587.17 413.22 587.17C409.81 587.17 407.35 586.23 405.72 584.31C404.02 582.32 403.16 578.72 403.16 573.61C403.16 568.8 404.17 565.32 406.15 563.29C408.12 561.27 411.33 560.24 415.68 560.24C418.28 560.24 420.44 560.55 422.07 561.17C423.6 561.75 424.74 562.49 425.47 563.39C426.24 564.33 426.41 564.91 426.52 564.91C426.43 565.01 426.14 565.25 425.47 565.61C423.89 566.48 422.78 567.44 422.09 568.55C421.38 569.67 421.03 571.03 421.03 572.57C421.03 574.91 421.7 576.82 423.03 578.26C425.87 581.32 431.34 581.21 434.31 577.69C435.78 575.94 436.53 573.6 436.53 570.73C436.53 567.4 435.66 564.35 433.95 561.67C432.24 558.99 429.65 556.85 426.27 555.31C422.98 553.81 419.04 553.05 414.56 553.05C407.08 553.05 400.89 555.12 396.17 559.19C391.88 562.85 389.71 567.75 389.71 573.75C389.71 579.06 391.53 583.59 395.11 587.2C396.87 588.98 399.07 590.45 401.69 591.59H401.66Z" fill="#EB3000"/>
<defs>
<linearGradient id="paint0_linear_145_1366" x1="380.19" y1="-104.14" x2="109.71" y2="689.73" gradientUnits="userSpaceOnUse">
<stop stop-color="#E1E1E1"/>
<stop offset="0.12" stop-color="#ECECEC"/>
<stop offset="0.32" stop-color="#FAFAFA"/>
<stop offset="0.49" stop-color="white"/>
<stop offset="0.7" stop-color="#FBFBFB"/>
<stop offset="0.85" stop-color="#F2F2F2"/>
<stop offset="0.99" stop-color="#E2E2E2"/>
<stop offset="1" stop-color="#E1E1E1"/>
</linearGradient>
</defs>
</svg>
