<svg width="469" height="649" viewBox="0 0 469 649" fill="none" xmlns="http://www.w3.org/2000/svg">
<path d="M439.26 0.0200195H29.3799C13.3099 0.0200195 0.280029 12.08 0.280029 26.95V621.79C0.280029 636.66 13.3099 648.72 29.3799 648.72H439.26C455.33 648.72 468.36 636.66 468.36 621.79V26.95C468.36 12.08 455.33 0.0200195 439.26 0.0200195Z" fill="url(#paint0_linear_145_1392)"/>
<path d="M384.57 108.87C370.4 101.51 338.12 69.23 330.76 55.06C330.13 53.84 328.37 53.84 327.73 55.06C320.37 69.23 288.09 101.51 273.92 108.87C272.7 109.5 272.7 111.26 273.92 111.9C288.09 119.26 320.37 151.54 327.73 165.71C328.37 166.93 330.12 166.93 330.76 165.71C338.12 151.54 370.4 119.26 384.57 111.9C385.79 111.27 385.79 109.51 384.57 108.87Z" fill="#EB3000"/>
<path d="M194.71 108.87C180.54 101.51 148.26 69.23 140.9 55.06C140.26 53.84 138.51 53.84 137.87 55.06C130.51 69.23 98.23 101.51 84.06 108.87C82.84 109.5 82.84 111.26 84.06 111.9C98.23 119.26 130.51 151.54 137.87 165.71C138.51 166.93 140.26 166.93 140.9 165.71C148.26 151.54 180.54 119.26 194.71 111.9C195.93 111.27 195.93 109.51 194.71 108.87Z" fill="#EB3000"/>
<path d="M384.57 536.06C370.4 528.7 338.12 496.42 330.76 482.25C330.13 481.03 328.37 481.03 327.73 482.25C320.37 496.42 288.09 528.7 273.92 536.06C272.7 536.69 272.7 538.45 273.92 539.09C288.09 546.45 320.37 578.73 327.73 592.9C328.37 594.12 330.12 594.12 330.76 592.9C338.12 578.73 370.4 546.45 384.57 539.09C385.79 538.46 385.79 536.7 384.57 536.06Z" fill="#EB3000"/>
<path d="M194.71 536.06C180.54 528.7 148.26 496.42 140.9 482.25C140.26 481.03 138.51 481.03 137.87 482.25C130.51 496.42 98.23 528.7 84.06 536.06C82.84 536.69 82.84 538.45 84.06 539.09C98.23 546.45 130.51 578.73 137.87 592.9C138.51 594.12 140.26 594.12 140.9 592.9C148.26 578.73 180.54 546.45 194.71 539.09C195.93 538.46 195.93 536.7 194.71 536.06Z" fill="#EB3000"/>
<path d="M79.67 130.05C73.65 126.92 59.9201 113.19 56.7901 107.17C56.5201 106.65 55.7701 106.65 55.5001 107.17C52.3701 113.19 38.6402 126.92 32.6202 130.05C32.1002 130.32 32.1002 131.07 32.6202 131.34C38.6402 134.47 52.3701 148.2 55.5001 154.22C55.7701 154.74 56.5201 154.74 56.7901 154.22C59.9201 148.2 73.65 134.47 79.67 131.34C80.19 131.07 80.19 130.32 79.67 130.05Z" fill="#EB3000"/>
<path d="M388.7 518C394.72 521.13 408.45 534.86 411.58 540.88C411.85 541.4 412.6 541.4 412.87 540.88C416 534.86 429.73 521.13 435.75 518C436.27 517.73 436.27 516.98 435.75 516.71C429.73 513.58 416 499.85 412.87 493.83C412.6 493.31 411.85 493.31 411.58 493.83C408.45 499.85 394.72 513.58 388.7 516.71C388.18 516.98 388.18 517.73 388.7 518Z" fill="#EB3000"/>
<path d="M62.45 22.6101H56.3401L23.6899 68.1001V75.2801H50.3999V82.4701C50.3999 83.5601 50.0299 83.8801 49.9099 83.9901C49.6899 84.1901 49.1099 84.5101 47.6399 84.5101H40.77V92.0801H70.99V84.5101H64.97C64.07 84.5101 63.32 84.2801 62.71 83.8501C62.51 83.7001 62.45 83.5801 62.45 83.3201V75.2801H73.3V67.2401H62.45V22.6001V22.6101ZM50.3999 67.2501H33.53L50.3999 43.6201V67.2501Z" fill="#EB3000"/>
<path d="M405.93 625.71H412.04L444.69 580.22V573.04H417.98V565.85C417.98 564.76 418.35 564.44 418.47 564.33C418.69 564.13 419.27 563.81 420.74 563.81H427.61V556.24H397.39V563.81H403.41C404.31 563.81 405.06 564.04 405.67 564.47C405.87 564.62 405.93 564.74 405.93 565V573.04H395.08V581.08H405.93V625.72V625.71ZM417.98 581.07H434.85L417.98 604.7V581.07Z" fill="#EB3000"/>
<defs>
<linearGradient id="paint0_linear_145_1392" x1="380.32" y1="-104.14" x2="109.84" y2="689.73" gradientUnits="userSpaceOnUse">
<stop stop-color="#E1E1E1"/>
<stop offset="0.12" stop-color="#ECECEC"/>
<stop offset="0.32" stop-color="#FAFAFA"/>
<stop offset="0.49" stop-color="white"/>
<stop offset="0.7" stop-color="#FBFBFB"/>
<stop offset="0.85" stop-color="#F2F2F2"/>
<stop offset="0.99" stop-color="#E2E2E2"/>
<stop offset="1" stop-color="#E1E1E1"/>
</linearGradient>
</defs>
</svg>
