<svg width="469" height="649" viewBox="0 0 469 649" fill="none" xmlns="http://www.w3.org/2000/svg">
<path d="M439.39 0.0200195H29.51C13.44 0.0200195 0.409912 12.08 0.409912 26.95V621.79C0.409912 636.66 13.44 648.72 29.51 648.72H439.39C455.46 648.72 468.49 636.66 468.49 621.79V26.95C468.49 12.08 455.46 0.0200195 439.39 0.0200195Z" fill="url(#paint0_linear_145_1432)"/>
<path d="M289.77 322.85C275.6 315.49 243.32 283.21 235.96 269.04C235.33 267.82 233.57 267.82 232.93 269.04C225.57 283.21 193.29 315.49 179.12 322.85C177.9 323.48 177.9 325.24 179.12 325.88C193.29 333.24 225.57 365.52 232.93 379.69C233.57 380.91 235.32 380.91 235.96 379.69C243.32 365.52 275.6 333.24 289.77 325.88C290.99 325.25 290.99 323.49 289.77 322.85Z" fill="#EB3000"/>
<path d="M79.8002 130.05C73.7802 126.92 60.05 113.19 56.92 107.17C56.65 106.65 55.9 106.65 55.63 107.17C52.5 113.19 38.7701 126.92 32.7501 130.05C32.2301 130.32 32.2301 131.07 32.7501 131.34C38.7701 134.47 52.5 148.2 55.63 154.22C55.9 154.74 56.65 154.74 56.92 154.22C60.05 148.2 73.7802 134.47 79.8002 131.34C80.3202 131.07 80.3202 130.32 79.8002 130.05Z" fill="#EB3000"/>
<path d="M388.83 518C394.85 521.13 408.58 534.86 411.71 540.88C411.98 541.4 412.73 541.4 413 540.88C416.13 534.86 429.86 521.13 435.88 518C436.4 517.73 436.4 516.98 435.88 516.71C429.86 513.58 416.13 499.85 413 493.83C412.73 493.31 411.98 493.31 411.71 493.83C408.58 499.85 394.85 513.58 388.83 516.71C388.31 516.98 388.31 517.73 388.83 518Z" fill="#EB3000"/>
<path d="M384.7 108.87C370.53 101.51 338.25 69.23 330.89 55.06C330.26 53.84 328.5 53.84 327.86 55.06C320.5 69.23 288.22 101.51 274.05 108.87C272.83 109.5 272.83 111.26 274.05 111.9C288.22 119.26 320.5 151.54 327.86 165.71C328.5 166.93 330.25 166.93 330.89 165.71C338.25 151.54 370.53 119.26 384.7 111.9C385.92 111.27 385.92 109.51 384.7 108.87Z" fill="#EB3000"/>
<path d="M194.84 108.87C180.67 101.51 148.39 69.23 141.03 55.06C140.4 53.84 138.64 53.84 138 55.06C130.64 69.23 98.3599 101.51 84.1899 108.87C82.9699 109.5 82.9699 111.26 84.1899 111.9C98.3599 119.26 130.64 151.54 138 165.71C138.64 166.93 140.39 166.93 141.03 165.71C148.39 151.54 180.67 119.26 194.84 111.9C196.06 111.27 196.06 109.51 194.84 108.87Z" fill="#EB3000"/>
<path d="M384.7 536.06C370.53 528.7 338.25 496.42 330.89 482.25C330.26 481.03 328.5 481.03 327.86 482.25C320.5 496.42 288.22 528.7 274.05 536.06C272.83 536.69 272.83 538.45 274.05 539.09C288.22 546.45 320.5 578.73 327.86 592.9C328.5 594.12 330.25 594.12 330.89 592.9C338.25 578.73 370.53 546.45 384.7 539.09C385.92 538.46 385.92 536.7 384.7 536.06Z" fill="#EB3000"/>
<path d="M194.84 536.06C180.67 528.7 148.39 496.42 141.03 482.25C140.4 481.03 138.64 481.03 138 482.25C130.64 496.42 98.3599 528.7 84.1899 536.06C82.9699 536.69 82.9699 538.45 84.1899 539.09C98.3599 546.45 130.64 578.73 138 592.9C138.64 594.12 140.39 594.12 141.03 592.9C148.39 578.73 180.67 546.45 194.84 539.09C196.06 538.46 196.06 536.7 194.84 536.06Z" fill="#EB3000"/>
<path d="M55.6699 46.6499C53.5499 46.6499 51.3 46.9799 48.96 47.6199C47.66 47.9799 46.33 48.4399 44.95 48.9999L46 36.6699C54.84 38.4099 61.3801 38.4599 66.5901 36.1699C69.3301 34.9699 71.5299 33.3099 73.1499 31.2499C74.8899 29.0199 75.7 27.2399 75.7 25.6399C75.7 23.8499 74.45 22.9199 73.21 22.9199C72.68 22.9199 72.1399 23.0999 71.1699 23.6099C70.5899 23.9499 69.3901 24.4599 67.0701 24.9699C65.1401 25.3899 63.0501 25.6099 60.8501 25.6099C55.9901 25.6099 49.5901 24.7099 41.8101 22.9199L39.3601 22.3599L39.3401 24.8699C39.3101 29.8799 39.0799 35.1999 38.6599 40.6699L37.6001 54.0599C37.5301 54.1499 37.4301 54.2599 37.3101 54.4099C35.6601 56.1399 34.8201 57.9899 34.8201 59.8999C34.8201 61.1799 35.1701 62.2399 35.8701 63.0499C37.5701 65.0399 40.9499 64.7599 42.6699 62.5199C43.3899 61.5799 43.8699 60.1399 44.1499 58.0099C45.6399 56.9899 47.1401 56.1999 48.6101 55.6599C50.2701 55.0499 51.9401 54.7399 53.5801 54.7399C57.1901 54.7399 60.0601 55.9199 62.3601 58.3599C64.6601 60.7899 65.8201 64.8499 65.8201 70.4199C65.8201 76.6299 64.7 81.0999 62.5 83.6999C60.34 86.2399 57.25 87.4699 53.01 87.4699C50.83 87.4699 48.88 87.1299 47.23 86.4599C45.66 85.8299 44.51 85.0399 43.79 84.1199C43.29 83.4799 42.9701 82.8899 42.8501 82.4099C42.9901 82.3199 43.21 82.2099 43.54 82.0799C45.35 81.4199 46.6001 80.5599 47.3701 79.4399C48.1301 78.3499 48.5 76.8999 48.5 75.1399C48.5 72.8199 47.7801 70.8899 46.3701 69.3899C43.4401 66.2599 37.9201 66.2499 35.0601 69.9599C33.7001 71.7199 33.01 74.1399 33.01 77.1599C33.01 82.0099 34.95 86.2399 38.79 89.7199C42.57 93.1499 47.4999 94.8899 53.4299 94.8899C61.0399 94.8899 67.36 92.5299 72.2 87.8599C77.0499 83.1799 79.51 77.1499 79.51 69.9399C79.51 63.3999 77.1801 57.8099 72.6001 53.3499C68.0401 48.8999 62.3399 46.6399 55.6499 46.6399L55.6699 46.6499Z" fill="#EB3000"/>
<path d="M412.96 601.42C415.08 601.42 417.33 601.09 419.67 600.45C420.97 600.09 422.3 599.63 423.68 599.07L422.63 611.4C413.79 609.66 407.25 609.61 402.04 611.9C399.3 613.1 397.1 614.75 395.48 616.82C393.74 619.05 392.93 620.83 392.93 622.43C392.93 624.22 394.18 625.15 395.42 625.15C395.95 625.15 396.49 624.97 397.46 624.46C398.04 624.12 399.24 623.61 401.56 623.1C403.49 622.68 405.58 622.46 407.78 622.46C412.64 622.46 419.04 623.36 426.82 625.15L429.27 625.71L429.29 623.2C429.32 618.19 429.55 612.87 429.97 607.4L431.03 594.01C431.1 593.92 431.2 593.81 431.32 593.66C432.97 591.93 433.81 590.08 433.81 588.17C433.81 586.89 433.46 585.83 432.76 585.02C431.06 583.03 427.68 583.31 425.96 585.55C425.24 586.49 424.76 587.93 424.48 590.06C422.99 591.08 421.49 591.87 420.02 592.41C418.36 593.02 416.69 593.33 415.05 593.33C411.44 593.33 408.57 592.15 406.27 589.71C403.97 587.28 402.81 583.22 402.81 577.65C402.81 571.44 403.93 566.97 406.13 564.37C408.28 561.83 411.38 560.6 415.62 560.6C417.8 560.6 419.75 560.94 421.4 561.61C422.97 562.24 424.12 563.03 424.84 563.95C425.34 564.59 425.66 565.18 425.78 565.66C425.64 565.75 425.42 565.86 425.09 565.99C423.28 566.65 422.03 567.51 421.26 568.63C420.5 569.72 420.13 571.17 420.13 572.93C420.13 575.25 420.85 577.18 422.26 578.68C425.19 581.81 430.71 581.82 433.57 578.11C434.93 576.35 435.62 573.93 435.62 570.91C435.62 566.06 433.68 561.83 429.84 558.35C426.06 554.92 421.13 553.18 415.2 553.18C407.59 553.18 401.27 555.54 396.43 560.21C391.58 564.89 389.12 570.92 389.12 578.13C389.12 584.67 391.45 590.26 396.03 594.72C400.59 599.17 406.29 601.43 412.98 601.43L412.96 601.42Z" fill="#EB3000"/>
<defs>
<linearGradient id="paint0_linear_145_1432" x1="380.45" y1="-104.14" x2="109.96" y2="689.73" gradientUnits="userSpaceOnUse">
<stop stop-color="#E1E1E1"/>
<stop offset="0.12" stop-color="#ECECEC"/>
<stop offset="0.32" stop-color="#FAFAFA"/>
<stop offset="0.49" stop-color="white"/>
<stop offset="0.7" stop-color="#FBFBFB"/>
<stop offset="0.85" stop-color="#F2F2F2"/>
<stop offset="0.99" stop-color="#E2E2E2"/>
<stop offset="1" stop-color="#E1E1E1"/>
</linearGradient>
</defs>
</svg>
