<svg width="469" height="649" viewBox="0 0 469 649" fill="none" xmlns="http://www.w3.org/2000/svg">
<path d="M439.52 0.0200195H29.6399C13.5699 0.0200195 0.540039 12.08 0.540039 26.95V621.79C0.540039 636.66 13.5699 648.72 29.6399 648.72H439.52C455.59 648.72 468.62 636.66 468.62 621.79V26.95C468.62 12.08 455.59 0.0200195 439.52 0.0200195Z" fill="url(#paint0_linear_145_1476)"/>
<path d="M79.9303 130.05C73.9103 126.92 60.1804 113.19 57.0504 107.17C56.7804 106.65 56.0304 106.65 55.7604 107.17C52.6304 113.19 38.9002 126.92 32.8802 130.05C32.3602 130.32 32.3602 131.07 32.8802 131.34C38.9002 134.47 52.6304 148.2 55.7604 154.22C56.0304 154.74 56.7804 154.74 57.0504 154.22C60.1804 148.2 73.9103 134.47 79.9303 131.34C80.4503 131.07 80.4503 130.32 79.9303 130.05Z" fill="#EB3000"/>
<path d="M388.96 518C394.98 521.13 408.71 534.86 411.84 540.88C412.11 541.4 412.86 541.4 413.13 540.88C416.26 534.86 429.99 521.13 436.01 518C436.53 517.73 436.53 516.98 436.01 516.71C429.99 513.58 416.26 499.85 413.13 493.83C412.86 493.31 412.11 493.31 411.84 493.83C408.71 499.85 394.98 513.58 388.96 516.71C388.44 516.98 388.44 517.73 388.96 518Z" fill="#EB3000"/>
<path d="M384.83 108.87C370.66 101.51 338.38 69.23 331.02 55.06C330.39 53.84 328.63 53.84 327.99 55.06C320.63 69.23 288.35 101.51 274.18 108.87C272.96 109.5 272.96 111.26 274.18 111.9C288.35 119.26 320.63 151.54 327.99 165.71C328.63 166.93 330.38 166.93 331.02 165.71C338.38 151.54 370.66 119.26 384.83 111.9C386.05 111.27 386.05 109.51 384.83 108.87Z" fill="#EB3000"/>
<path d="M194.97 108.87C180.8 101.51 148.52 69.23 141.16 55.06C140.53 53.84 138.77 53.84 138.13 55.06C130.77 69.23 98.4903 101.51 84.3203 108.87C83.1003 109.5 83.1003 111.26 84.3203 111.9C98.4903 119.26 130.77 151.54 138.13 165.71C138.77 166.93 140.52 166.93 141.16 165.71C148.52 151.54 180.8 119.26 194.97 111.9C196.19 111.27 196.19 109.51 194.97 108.87Z" fill="#EB3000"/>
<path d="M384.83 536.06C370.66 528.7 338.38 496.42 331.02 482.25C330.39 481.03 328.63 481.03 327.99 482.25C320.63 496.42 288.35 528.7 274.18 536.06C272.96 536.69 272.96 538.45 274.18 539.09C288.35 546.45 320.63 578.73 327.99 592.9C328.63 594.12 330.38 594.12 331.02 592.9C338.38 578.73 370.66 546.45 384.83 539.09C386.05 538.46 386.05 536.7 384.83 536.06Z" fill="#EB3000"/>
<path d="M194.97 536.06C180.8 528.7 148.52 496.42 141.16 482.25C140.53 481.03 138.77 481.03 138.13 482.25C130.77 496.42 98.4903 528.7 84.3203 536.06C83.1003 536.69 83.1003 538.45 84.3203 539.09C98.4903 546.45 130.77 578.73 138.13 592.9C138.77 594.12 140.52 594.12 141.16 592.9C148.52 578.73 180.8 546.45 194.97 539.09C196.19 538.46 196.19 536.7 194.97 536.06Z" fill="#EB3000"/>
<path d="M194.97 322.85C180.8 315.49 148.52 283.21 141.16 269.04C140.53 267.82 138.77 267.82 138.13 269.04C130.77 283.21 98.4903 315.49 84.3203 322.85C83.1003 323.48 83.1003 325.24 84.3203 325.88C98.4903 333.24 130.77 365.52 138.13 379.69C138.77 380.91 140.52 380.91 141.16 379.69C148.52 365.52 180.8 333.24 194.97 325.88C196.19 325.25 196.19 323.49 194.97 322.85Z" fill="#EB3000"/>
<path d="M384.83 322.85C370.66 315.49 338.38 283.21 331.02 269.04C330.39 267.82 328.63 267.82 327.99 269.04C320.63 283.21 288.35 315.49 274.18 322.85C272.96 323.48 272.96 325.24 274.18 325.88C288.35 333.24 320.63 365.52 327.99 379.69C328.63 380.91 330.38 380.91 331.02 379.69C338.38 365.52 370.66 333.24 384.83 325.88C386.05 325.25 386.05 323.49 384.83 322.85Z" fill="#EB3000"/>
<path d="M60.4397 49.16C56.8897 49.16 53.5698 49.95 50.5898 51.51C48.9098 52.39 47.2597 53.6 45.6697 55.13C45.7997 50.12 46.6297 45.53 48.1497 41.47C49.7497 37.18 51.6796 34.16 53.8796 32.48C56.0596 30.82 58.3898 30.01 61.0098 30.01C62.5898 30.01 63.7998 30.27 64.5698 30.76C64.9498 31.01 64.9497 31.15 64.9497 31.24C64.9497 31.26 64.9097 31.68 64.2297 32.77C63.2497 34.31 62.7798 35.71 62.7798 37.05C62.7798 39.01 63.5799 40.8 65.0999 42.21C68.2099 45.1 73.2498 44.99 76.2798 41.85C77.8198 40.24 78.6099 38.19 78.6099 35.74C78.6099 32.23 76.9998 29.22 73.8298 26.79C66.8398 21.3 55.8699 20.95 46.8699 27.27C42.4899 30.34 38.8598 34.97 36.0698 41.03C33.3198 47.03 31.9297 53.79 31.9297 61.12C31.9297 67.92 33.0798 73.96 35.3398 79.11C37.6398 84.34 40.6796 88.28 44.3796 90.79C48.0996 93.32 52.3899 94.61 57.1199 94.61C63.8199 94.61 69.5298 92.23 74.0898 87.54C78.6298 82.86 80.9297 76.93 80.9297 69.9C80.9297 63.96 78.9498 58.96 75.0298 55.05C71.1098 51.14 66.2097 49.15 60.4597 49.15L60.4397 49.16ZM64.7297 83.88C62.8497 86.2 60.4298 87.33 57.3298 87.33C54.2298 87.33 51.6796 86.12 49.6396 83.63C47.5296 81.05 46.4597 77.16 46.4597 72.07C46.4597 67.44 47.5497 63.84 49.7097 61.39C51.8297 58.98 54.4899 57.8 57.8499 57.8C60.9399 57.8 63.2797 58.85 64.9797 61C66.7697 63.27 67.6897 67.16 67.6897 72.59C67.6897 77.66 66.6997 81.46 64.7397 83.88H64.7297Z" fill="#EB3000"/>
<path d="M408.45 599.16C412 599.16 415.32 598.37 418.3 596.81C419.98 595.93 421.63 594.72 423.22 593.19C423.09 598.2 422.26 602.79 420.74 606.85C419.14 611.14 417.21 614.16 415.01 615.84C412.83 617.5 410.5 618.31 407.88 618.31C406.3 618.31 405.09 618.05 404.33 617.56C403.95 617.31 403.95 617.17 403.95 617.08C403.95 617.06 403.99 616.64 404.67 615.55C405.65 614.01 406.12 612.61 406.12 611.27C406.12 609.31 405.32 607.52 403.8 606.11C400.69 603.22 395.65 603.33 392.62 606.47C391.08 608.08 390.29 610.13 390.29 612.58C390.29 616.09 391.9 619.1 395.07 621.53C402.06 627.02 413.03 627.37 422.03 621.05C426.41 617.98 430.04 613.35 432.83 607.29C435.58 601.29 436.97 594.53 436.97 587.2C436.97 580.4 435.82 574.36 433.56 569.21C431.26 563.98 428.22 560.04 424.52 557.53C420.8 555 416.51 553.71 411.78 553.71C405.08 553.71 399.37 556.09 394.81 560.78C390.27 565.46 387.97 571.39 387.97 578.42C387.97 584.36 389.95 589.36 393.87 593.27C397.79 597.18 402.69 599.17 408.44 599.17L408.45 599.16ZM404.16 564.44C406.04 562.12 408.46 560.99 411.56 560.99C414.66 560.99 417.21 562.2 419.25 564.69C421.36 567.27 422.43 571.15 422.43 576.25C422.43 580.88 421.34 584.48 419.18 586.93C417.06 589.34 414.4 590.52 411.04 590.52C407.95 590.52 405.61 589.47 403.91 587.32C402.12 585.05 401.2 581.16 401.2 575.73C401.2 570.66 402.19 566.86 404.15 564.44H404.16Z" fill="#EB3000"/>
<defs>
<linearGradient id="paint0_linear_145_1476" x1="380.58" y1="-104.14" x2="110.09" y2="689.73" gradientUnits="userSpaceOnUse">
<stop stop-color="#E1E1E1"/>
<stop offset="0.12" stop-color="#ECECEC"/>
<stop offset="0.32" stop-color="#FAFAFA"/>
<stop offset="0.49" stop-color="white"/>
<stop offset="0.7" stop-color="#FBFBFB"/>
<stop offset="0.85" stop-color="#F2F2F2"/>
<stop offset="0.99" stop-color="#E2E2E2"/>
<stop offset="1" stop-color="#E1E1E1"/>
</linearGradient>
</defs>
</svg>
