<svg width="469" height="650" viewBox="0 0 469 650" fill="none" xmlns="http://www.w3.org/2000/svg">
<path d="M439.48 0.890137H29.6C13.53 0.890137 0.5 12.9501 0.5 27.8201V622.66C0.5 637.53 13.53 649.59 29.6 649.59H439.48C455.55 649.59 468.58 637.53 468.58 622.66V27.8201C468.58 12.9501 455.55 0.890137 439.48 0.890137Z" fill="url(#paint0_linear_145_1349)"/>
<path d="M56.8599 114.63C50.2999 102.55 33.5898 107.23 33.5898 119.21C33.5898 132.63 50.9199 137.37 56.7699 149.86L56.8599 150.04L56.9498 149.86C62.7998 137.37 80.1399 132.63 80.1399 119.21C80.1399 107.23 63.4199 102.55 56.8599 114.63Z" fill="#EB3000"/>
<path d="M412.58 535.55C419.14 547.63 435.85 542.95 435.85 530.97C435.85 517.55 418.52 512.81 412.67 500.32L412.58 500.14L412.49 500.32C406.64 512.81 389.3 517.55 389.3 530.97C389.3 542.95 406.02 547.63 412.58 535.55Z" fill="#EB3000"/>
<path d="M395.98 578.06C397.64 570.92 398.65 569.13 399.02 568.68C399.61 567.95 400.77 567.58 402.49 567.58C414.04 567.58 418.97 568.1 421.06 568.52C419.73 569.97 417.93 571.65 415.67 573.55L403.24 584.02C400.31 586.47 397.4 589.47 394.62 592.94C392.92 595.04 391.61 597.34 390.72 599.79C389.82 602.24 389.37 604.69 389.37 607.09C389.37 610.6 390.3 613.89 392.12 616.85C393.94 619.82 396.69 622.24 400.27 624.04C407.34 627.59 416.25 627.59 423.43 623.97C427.09 622.13 429.87 619.71 431.71 616.78C433.56 613.84 434.49 610.53 434.49 606.95C434.49 603.63 433.61 600.85 431.87 598.72C428.42 594.5 422.87 594.38 419.73 597.47C418.27 598.91 417.53 600.74 417.53 602.89C417.53 606.78 419.77 609.45 423.82 610.41C425 610.7 425.31 610.94 425.36 611.33C425.36 612.95 424.27 614.6 422.1 616.24C419.76 618 416.64 618.9 412.84 618.9C409.58 618.9 407.13 618.01 405.37 616.19C403.59 614.34 402.73 611.81 402.73 608.45C402.73 606.36 403.2 603.97 404.12 601.36C405.06 598.71 406.59 595.9 408.67 593.02C410.16 590.96 414.74 585.75 422.32 577.51L436.56 561.32V556H390.42L388.57 579.61H395.6L395.96 578.05L395.98 578.06Z" fill="#EB3000"/>
<path d="M73.4598 72.5499C71.7998 79.6899 70.7899 81.4799 70.4199 81.9299C69.8299 82.6599 68.6698 83.0299 66.9498 83.0299C55.3998 83.0299 50.4699 82.5098 48.3799 82.0898C49.7099 80.6398 51.5099 78.9599 53.7699 77.0599L66.1998 66.5898C69.1298 64.1398 72.0398 61.1399 74.8198 57.6699C76.5198 55.5699 77.8298 53.2698 78.7198 50.8198C79.6199 48.3698 80.0698 45.9199 80.0698 43.5199C80.0698 40.0099 79.1398 36.7199 77.3198 33.7599C75.4998 30.7899 72.7499 28.3698 69.1699 26.5698C62.0999 23.0198 53.1899 23.0199 46.0099 26.6399C42.3499 28.4799 39.5699 30.8998 37.7299 33.8298C35.8799 36.7698 34.9498 40.0799 34.9498 43.6599C34.9498 46.9799 35.8298 49.7599 37.5698 51.8899C41.0198 56.1099 46.5698 56.2299 49.7098 53.1399C51.1698 51.6999 51.9099 49.8698 51.9099 47.7198C51.9099 43.8298 49.6699 41.1598 45.6199 40.1998C44.4399 39.8998 44.1298 39.6699 44.0798 39.2799C44.0798 37.6599 45.1698 36.0098 47.3398 34.3698C49.6798 32.6098 52.7999 31.7098 56.5999 31.7098C59.8599 31.7098 62.3098 32.5999 64.0698 34.4199C65.8498 36.2699 66.7098 38.7999 66.7098 42.1599C66.7098 44.2499 66.2398 46.6398 65.3198 49.2498C64.3798 51.8998 62.8499 54.7098 60.7699 57.5898C59.2799 59.6498 54.6999 64.8598 47.1199 73.0998L32.8799 89.2899V94.6098H79.0199L80.8699 70.9999H73.8398L73.4799 72.5599L73.4598 72.5499Z" fill="#EB3000"/>
<path d="M234.54 578.64C249.96 607.04 289.27 596.04 289.27 567.88C289.27 536.33 248.52 525.17 234.75 495.8L234.54 495.39L234.33 495.8C220.57 525.17 179.81 536.32 179.81 567.88C179.81 596.04 219.12 607.05 234.54 578.64Z" fill="#EB3000"/>
<path d="M234.06 70.7C218.64 42.3 179.33 53.3 179.33 81.46C179.33 113.01 220.08 124.17 233.85 153.54L234.06 153.95L234.27 153.54C248.03 124.17 288.79 113.02 288.79 81.46C288.79 53.3 249.48 42.29 234.06 70.7Z" fill="#EB3000"/>
<defs>
<linearGradient id="paint0_linear_145_1349" x1="380.54" y1="-103.26" x2="110.06" y2="690.6" gradientUnits="userSpaceOnUse">
<stop stop-color="#E1E1E1"/>
<stop offset="0.12" stop-color="#ECECEC"/>
<stop offset="0.32" stop-color="#FAFAFA"/>
<stop offset="0.49" stop-color="white"/>
<stop offset="0.7" stop-color="#FBFBFB"/>
<stop offset="0.85" stop-color="#F2F2F2"/>
<stop offset="0.99" stop-color="#E2E2E2"/>
<stop offset="1" stop-color="#E1E1E1"/>
</linearGradient>
</defs>
</svg>
