<svg width="469" height="649" viewBox="0 0 469 649" fill="none" xmlns="http://www.w3.org/2000/svg">
<path d="M439.64 0.0200195H29.7603C13.6903 0.0200195 0.660156 12.08 0.660156 26.95V621.79C0.660156 636.66 13.6903 648.72 29.7603 648.72H439.64C455.71 648.72 468.74 636.66 468.74 621.79V26.95C468.74 12.08 455.71 0.0200195 439.64 0.0200195Z" fill="url(#paint0_linear_145_1524)"/>
<path d="M80.0602 130.05C74.0402 126.92 60.31 113.19 57.18 107.17C56.91 106.65 56.16 106.65 55.89 107.17C52.76 113.19 39.0301 126.92 33.0101 130.05C32.4901 130.32 32.4901 131.07 33.0101 131.34C39.0301 134.47 52.76 148.2 55.89 154.22C56.16 154.74 56.91 154.74 57.18 154.22C60.31 148.2 74.0402 134.47 80.0602 131.34C80.5802 131.07 80.5802 130.32 80.0602 130.05Z" fill="#EB3000"/>
<path d="M389.09 518C395.11 521.13 408.84 534.86 411.97 540.88C412.24 541.4 412.99 541.4 413.26 540.88C416.39 534.86 430.12 521.13 436.14 518C436.66 517.73 436.66 516.98 436.14 516.71C430.12 513.58 416.39 499.85 413.26 493.83C412.99 493.31 412.24 493.31 411.97 493.83C408.84 499.85 395.11 513.58 389.09 516.71C388.57 516.98 388.57 517.73 389.09 518Z" fill="#EB3000"/>
<path d="M384.96 108.87C370.79 101.51 338.51 69.23 331.15 55.06C330.52 53.84 328.76 53.84 328.12 55.06C320.76 69.23 288.48 101.51 274.31 108.87C273.09 109.5 273.09 111.26 274.31 111.9C288.48 119.26 320.76 151.54 328.12 165.71C328.76 166.93 330.51 166.93 331.15 165.71C338.51 151.54 370.79 119.26 384.96 111.9C386.18 111.27 386.18 109.51 384.96 108.87Z" fill="#EB3000"/>
<path d="M195.09 108.87C180.92 101.51 148.64 69.23 141.28 55.06C140.65 53.84 138.89 53.84 138.25 55.06C130.89 69.23 98.6099 101.51 84.4399 108.87C83.2199 109.5 83.2199 111.26 84.4399 111.9C98.6099 119.26 130.89 151.54 138.25 165.71C138.89 166.93 140.64 166.93 141.28 165.71C148.64 151.54 180.92 119.26 195.09 111.9C196.31 111.27 196.31 109.51 195.09 108.87Z" fill="#EB3000"/>
<path d="M384.96 536.06C370.79 528.7 338.51 496.42 331.15 482.25C330.52 481.03 328.76 481.03 328.12 482.25C320.76 496.42 288.48 528.7 274.31 536.06C273.09 536.69 273.09 538.45 274.31 539.09C288.48 546.45 320.76 578.73 328.12 592.9C328.76 594.12 330.51 594.12 331.15 592.9C338.51 578.73 370.79 546.45 384.96 539.09C386.18 538.46 386.18 536.7 384.96 536.06Z" fill="#EB3000"/>
<path d="M195.09 536.06C180.92 528.7 148.64 496.42 141.28 482.25C140.65 481.03 138.89 481.03 138.25 482.25C130.89 496.42 98.6099 528.7 84.4399 536.06C83.2199 536.69 83.2199 538.45 84.4399 539.09C98.6099 546.45 130.89 578.73 138.25 592.9C138.89 594.12 140.64 594.12 141.28 592.9C148.64 578.73 180.92 546.45 195.09 539.09C196.31 538.46 196.31 536.7 195.09 536.06Z" fill="#EB3000"/>
<path d="M195.09 322.85C180.92 315.49 148.64 283.21 141.28 269.04C140.65 267.82 138.89 267.82 138.25 269.04C130.89 283.21 98.6099 315.49 84.4399 322.85C83.2199 323.48 83.2199 325.24 84.4399 325.88C98.6099 333.24 130.89 365.52 138.25 379.69C138.89 380.91 140.64 380.91 141.28 379.69C148.64 365.52 180.92 333.24 195.09 325.88C196.31 325.25 196.31 323.49 195.09 322.85Z" fill="#EB3000"/>
<path d="M384.96 322.85C370.79 315.49 338.51 283.21 331.15 269.04C330.52 267.82 328.76 267.82 328.12 269.04C320.76 283.21 288.48 315.49 274.31 322.85C273.09 323.48 273.09 325.24 274.31 325.88C288.48 333.24 320.76 365.52 328.12 379.69C328.76 380.91 330.51 380.91 331.15 379.69C338.51 365.52 370.79 333.24 384.96 325.88C386.18 325.25 386.18 323.49 384.96 322.85Z" fill="#EB3000"/>
<path d="M290.03 219.02C275.86 211.66 243.58 179.38 236.22 165.21C235.59 163.99 233.83 163.99 233.19 165.21C225.83 179.38 193.55 211.66 179.38 219.02C178.16 219.66 178.16 221.41 179.38 222.05C193.55 229.41 225.83 261.69 233.19 275.86C233.83 277.08 235.58 277.08 236.22 275.86C243.58 261.69 275.86 229.41 290.03 222.05C291.25 221.42 291.25 219.66 290.03 219.02Z" fill="#EB3000"/>
<path d="M39.21 22.59L37.0601 22.04L32.98 48.97H40.3799L40.6899 47.3501C42.3699 38.8201 43.3499 36.76 43.6899 36.2701C44.0599 35.75 44.69 35.15 46.27 35.15H68.46L63.55 44.17C61.02 48.89 57.99 55.44 54.55 63.64C51.9 69.9 50.25 74.5101 49.49 77.7101C48.72 80.9601 48.3501 83.62 48.3501 85.84C48.3501 88.64 48.9299 90.72 50.1299 92.17C51.3999 93.7 53.2101 94.51 55.3701 94.51C57.2101 94.51 58.76 94.0301 59.99 93.0701C61.22 92.1101 62.0399 90.75 62.4399 89.05C62.6399 88.18 62.9499 86.19 63.3799 78.97C63.7199 72.76 64.43 67.26 65.5 62.61C66.58 57.95 68.17 53 70.27 47.89C72.37 42.75 75.5901 36.36 79.8301 28.89L80.0901 28.43V23.7101H48.72C45.31 23.7101 42.12 23.33 39.21 22.59Z" fill="#EB3000"/>
<path d="M429.93 624.62L432.08 625.17L436.16 598.24H428.76L428.45 599.86C426.77 608.39 425.79 610.45 425.45 610.94C425.08 611.46 424.45 612.06 422.87 612.06H400.68L405.59 603.04C408.12 598.32 411.15 591.77 414.59 583.57C417.24 577.31 418.89 572.7 419.65 569.5C420.42 566.25 420.79 563.59 420.79 561.37C420.79 558.57 420.21 556.49 419.01 555.04C417.74 553.51 415.93 552.7 413.77 552.7C411.93 552.7 410.38 553.18 409.15 554.14C407.92 555.1 407.1 556.46 406.7 558.15C406.5 559.02 406.19 561.01 405.76 568.23C405.42 574.44 404.71 579.94 403.64 584.59C402.56 589.25 400.97 594.2 398.87 599.31C396.77 604.45 393.55 610.84 389.31 618.31L389.05 618.77V623.48H420.42C423.83 623.48 427.02 623.86 429.93 624.6V624.62Z" fill="#EB3000"/>
<defs>
<linearGradient id="paint0_linear_145_1524" x1="380.71" y1="-104.14" x2="110.221" y2="689.73" gradientUnits="userSpaceOnUse">
<stop stop-color="#E1E1E1"/>
<stop offset="0.12" stop-color="#ECECEC"/>
<stop offset="0.32" stop-color="#FAFAFA"/>
<stop offset="0.49" stop-color="white"/>
<stop offset="0.7" stop-color="#FBFBFB"/>
<stop offset="0.85" stop-color="#F2F2F2"/>
<stop offset="0.99" stop-color="#E2E2E2"/>
<stop offset="1" stop-color="#E1E1E1"/>
</linearGradient>
</defs>
</svg>
