<svg width="469" height="649" viewBox="0 0 469 649" fill="none" xmlns="http://www.w3.org/2000/svg">
<path d="M439.77 0.0200195H29.8901C13.8201 0.0200195 0.790039 12.08 0.790039 26.95V621.79C0.790039 636.66 13.8201 648.72 29.8901 648.72H439.77C455.84 648.72 468.87 636.66 468.87 621.79V26.95C468.87 12.08 455.84 0.0200195 439.77 0.0200195Z" fill="url(#paint0_linear_145_1576)"/>
<path d="M80.1898 130.05C74.1698 126.92 60.4399 113.19 57.3099 107.17C57.0399 106.65 56.2899 106.65 56.0199 107.17C52.8899 113.19 39.16 126.92 33.14 130.05C32.62 130.32 32.62 131.07 33.14 131.34C39.16 134.47 52.8899 148.2 56.0199 154.22C56.2899 154.74 57.0399 154.74 57.3099 154.22C60.4399 148.2 74.1698 134.47 80.1898 131.34C80.7098 131.07 80.7098 130.32 80.1898 130.05Z" fill="#EB3000"/>
<path d="M389.22 518C395.24 521.13 408.97 534.86 412.1 540.88C412.37 541.4 413.12 541.4 413.39 540.88C416.52 534.86 430.25 521.13 436.27 518C436.79 517.73 436.79 516.98 436.27 516.71C430.25 513.58 416.52 499.85 413.39 493.83C413.12 493.31 412.37 493.31 412.1 493.83C408.97 499.85 395.24 513.58 389.22 516.71C388.7 516.98 388.7 517.73 389.22 518Z" fill="#EB3000"/>
<path d="M385.09 108.87C370.92 101.51 338.64 69.23 331.28 55.06C330.65 53.84 328.89 53.84 328.25 55.06C320.89 69.23 288.61 101.51 274.44 108.87C273.22 109.5 273.22 111.26 274.44 111.9C288.61 119.26 320.89 151.54 328.25 165.71C328.89 166.93 330.64 166.93 331.28 165.71C338.64 151.54 370.92 119.26 385.09 111.9C386.31 111.27 386.31 109.51 385.09 108.87Z" fill="#EB3000"/>
<path d="M195.22 108.87C181.05 101.51 148.77 69.23 141.41 55.06C140.78 53.84 139.02 53.84 138.38 55.06C131.02 69.23 98.7398 101.51 84.5698 108.87C83.3498 109.5 83.3498 111.26 84.5698 111.9C98.7398 119.26 131.02 151.54 138.38 165.71C139.02 166.93 140.77 166.93 141.41 165.71C148.77 151.54 181.05 119.26 195.22 111.9C196.44 111.27 196.44 109.51 195.22 108.87Z" fill="#EB3000"/>
<path d="M385.09 536.06C370.92 528.7 338.64 496.42 331.28 482.25C330.65 481.03 328.89 481.03 328.25 482.25C320.89 496.42 288.61 528.7 274.44 536.06C273.22 536.69 273.22 538.45 274.44 539.09C288.61 546.45 320.89 578.73 328.25 592.9C328.89 594.12 330.64 594.12 331.28 592.9C338.64 578.73 370.92 546.45 385.09 539.09C386.31 538.46 386.31 536.7 385.09 536.06Z" fill="#EB3000"/>
<path d="M195.22 536.06C181.05 528.7 148.77 496.42 141.41 482.25C140.78 481.03 139.02 481.03 138.38 482.25C131.02 496.42 98.7398 528.7 84.5698 536.06C83.3498 536.69 83.3498 538.45 84.5698 539.09C98.7398 546.45 131.02 578.73 138.38 592.9C139.02 594.12 140.77 594.12 141.41 592.9C148.77 578.73 181.05 546.45 195.22 539.09C196.44 538.46 196.44 536.7 195.22 536.06Z" fill="#EB3000"/>
<path d="M195.22 322.85C181.05 315.49 148.77 283.21 141.41 269.04C140.78 267.82 139.02 267.82 138.38 269.04C131.02 283.21 98.7398 315.49 84.5698 322.85C83.3498 323.48 83.3498 325.24 84.5698 325.88C98.7398 333.24 131.02 365.52 138.38 379.69C139.02 380.91 140.77 380.91 141.41 379.69C148.77 365.52 181.05 333.24 195.22 325.88C196.44 325.25 196.44 323.49 195.22 322.85Z" fill="#EB3000"/>
<path d="M385.09 322.85C370.92 315.49 338.64 283.21 331.28 269.04C330.65 267.82 328.89 267.82 328.25 269.04C320.89 283.21 288.61 315.49 274.44 322.85C273.22 323.48 273.22 325.24 274.44 325.88C288.61 333.24 320.89 365.52 328.25 379.69C328.89 380.91 330.64 380.91 331.28 379.69C338.64 365.52 370.92 333.24 385.09 325.88C386.31 325.25 386.31 323.49 385.09 322.85Z" fill="#EB3000"/>
<path d="M290.16 219.02C275.99 211.66 243.71 179.38 236.35 165.21C235.72 163.99 233.96 163.99 233.32 165.21C225.96 179.38 193.68 211.66 179.51 219.02C178.29 219.66 178.29 221.41 179.51 222.05C193.68 229.41 225.96 261.69 233.32 275.86C233.96 277.08 235.71 277.08 236.35 275.86C243.71 261.69 275.99 229.41 290.16 222.05C291.38 221.42 291.38 219.66 290.16 219.02Z" fill="#EB3000"/>
<path d="M290.16 431.22C275.99 423.86 243.71 391.58 236.35 377.41C235.72 376.19 233.96 376.19 233.32 377.41C225.96 391.58 193.68 423.86 179.51 431.22C178.29 431.85 178.29 433.61 179.51 434.25C193.68 441.61 225.96 473.89 233.32 488.06C233.96 489.28 235.71 489.28 236.35 488.06C243.71 473.89 275.99 441.61 290.16 434.25C291.38 433.62 291.38 431.86 290.16 431.22Z" fill="#EB3000"/>
<path d="M69.29 53.61C75.1 49.65 78.04 44.81 78.04 39.15C78.04 36.21 77.1599 33.38 75.4199 30.73C73.6899 28.09 71.1702 25.99 67.9302 24.49C64.7702 23.02 61.0198 22.27 56.8198 22.27C50.5898 22.27 45.3598 24.2 41.2598 28.03C37.1298 31.88 35.0298 36.56 35.0298 41.94C35.0298 48.85 38.2298 54.3 44.5698 58.17C40.7798 59.88 37.9801 61.85 36.0801 64.14C33.5001 67.25 32.1899 70.92 32.1899 75.07C32.1899 80.58 34.4401 85.24 38.8701 88.91C43.1801 92.49 49.0598 94.31 56.3398 94.31C64.6498 94.31 71.19 91.61 75.75 86.29C79.3 82.16 81.1001 77.26 81.1001 71.72C81.1001 67.14 79.8298 63.15 77.3398 59.86C75.4898 57.43 72.7898 55.34 69.2798 53.63L69.29 53.61ZM48.1899 32.05C50.0999 30.39 52.89 29.54 56.5 29.54C60.11 29.54 63.0001 30.43 64.8301 32.19C66.6601 33.95 67.5601 36.45 67.5601 39.85C67.5601 42.45 67.0902 44.53 66.1602 46.04C65.2902 47.45 63.5602 48.94 60.9902 50.49C52.2402 47.54 48.9798 45.6 47.7998 44.48C46.2098 42.97 45.4399 40.96 45.4399 38.34C45.4399 35.72 46.3399 33.65 48.1899 32.04V32.05ZM67.27 83.64C64.76 85.78 61.0999 86.86 56.3999 86.86C52.0099 86.86 48.6602 85.8 46.4302 83.7C44.2002 81.61 43.1299 78.69 43.1299 74.77C43.1299 71.75 43.8501 69.3 45.3301 67.28C46.7501 65.35 49.3498 63.54 53.0698 61.89C60.6898 64.66 65.69 66.93 67.96 68.64C69.94 70.14 70.9102 72.34 70.9102 75.38C70.9102 78.85 69.7198 81.55 67.2798 83.64H67.27Z" fill="#EB3000"/>
<path d="M400.28 594.37C394.47 598.33 391.53 603.17 391.53 608.83C391.53 611.77 392.41 614.6 394.15 617.25C395.88 619.89 398.4 621.99 401.64 623.49C404.8 624.96 408.55 625.71 412.75 625.71C418.98 625.71 424.21 623.78 428.31 619.95C432.44 616.1 434.54 611.42 434.54 606.04C434.54 599.13 431.34 593.68 425 589.81C428.79 588.1 431.59 586.13 433.49 583.84C436.07 580.73 437.38 577.06 437.38 572.91C437.38 567.4 435.13 562.74 430.7 559.07C426.39 555.49 420.51 553.67 413.23 553.67C404.92 553.67 398.38 556.37 393.82 561.69C390.27 565.82 388.47 570.72 388.47 576.26C388.47 580.84 389.74 584.83 392.23 588.12C394.08 590.55 396.78 592.64 400.29 594.35L400.28 594.37ZM421.38 615.93C419.47 617.59 416.68 618.43 413.07 618.43C409.46 618.43 406.57 617.54 404.74 615.78C402.91 614.02 402.01 611.52 402.01 608.12C402.01 605.52 402.48 603.44 403.41 601.93C404.28 600.52 406.01 599.03 408.58 597.48C417.33 600.43 420.59 602.37 421.77 603.49C423.36 605 424.13 607.01 424.13 609.63C424.13 612.25 423.23 614.32 421.38 615.93ZM402.3 564.34C404.81 562.2 408.47 561.12 413.17 561.12C417.56 561.12 420.91 562.18 423.14 564.28C425.37 566.37 426.44 569.29 426.44 573.21C426.44 576.23 425.72 578.68 424.24 580.7C422.82 582.63 420.22 584.44 416.5 586.09C408.88 583.32 403.88 581.05 401.61 579.34C399.63 577.84 398.66 575.64 398.66 572.6C398.66 569.13 399.85 566.43 402.29 564.34H402.3Z" fill="#EB3000"/>
<defs>
<linearGradient id="paint0_linear_145_1576" x1="380.83" y1="-104.14" x2="110.35" y2="689.73" gradientUnits="userSpaceOnUse">
<stop stop-color="#E1E1E1"/>
<stop offset="0.12" stop-color="#ECECEC"/>
<stop offset="0.32" stop-color="#FAFAFA"/>
<stop offset="0.49" stop-color="white"/>
<stop offset="0.7" stop-color="#FBFBFB"/>
<stop offset="0.85" stop-color="#F2F2F2"/>
<stop offset="0.99" stop-color="#E2E2E2"/>
<stop offset="1" stop-color="#E1E1E1"/>
</linearGradient>
</defs>
</svg>
