<svg width="469" height="649" viewBox="0 0 469 649" fill="none" xmlns="http://www.w3.org/2000/svg">
<path d="M439.9 0.0200195H30.02C13.95 0.0200195 0.919922 12.08 0.919922 26.95V621.79C0.919922 636.66 13.95 648.72 30.02 648.72H439.9C455.97 648.72 469 636.66 469 621.79V26.95C469 12.08 455.97 0.0200195 439.9 0.0200195Z" fill="url(#paint0_linear_145_1632)"/>
<path d="M80.3197 130.05C74.2997 126.92 60.5698 113.19 57.4398 107.17C57.1698 106.65 56.4198 106.65 56.1498 107.17C53.0198 113.19 39.2899 126.92 33.2699 130.05C32.7499 130.32 32.7499 131.07 33.2699 131.34C39.2899 134.47 53.0198 148.2 56.1498 154.22C56.4198 154.74 57.1698 154.74 57.4398 154.22C60.5698 148.2 74.2997 134.47 80.3197 131.34C80.8397 131.07 80.8397 130.32 80.3197 130.05Z" fill="#EB3000"/>
<path d="M389.34 518C395.36 521.13 409.09 534.86 412.22 540.88C412.49 541.4 413.24 541.4 413.51 540.88C416.64 534.86 430.37 521.13 436.39 518C436.91 517.73 436.91 516.98 436.39 516.71C430.37 513.58 416.64 499.85 413.51 493.83C413.24 493.31 412.49 493.31 412.22 493.83C409.09 499.85 395.36 513.58 389.34 516.71C388.82 516.98 388.82 517.73 389.34 518Z" fill="#EB3000"/>
<path d="M290.28 322.85C276.11 315.49 243.83 283.21 236.47 269.04C235.83 267.82 234.08 267.82 233.44 269.04C226.08 283.21 193.8 315.49 179.63 322.85C178.41 323.48 178.41 325.24 179.63 325.88C193.8 333.24 226.08 365.52 233.44 379.69C234.08 380.91 235.83 380.91 236.47 379.69C243.83 365.52 276.11 333.24 290.28 325.88C291.5 325.25 291.5 323.49 290.28 322.85Z" fill="#EB3000"/>
<path d="M195.35 394.89C181.18 387.53 148.9 355.25 141.54 341.08C140.9 339.86 139.15 339.86 138.51 341.08C131.15 355.25 98.8702 387.53 84.7002 394.89C83.4802 395.52 83.4802 397.28 84.7002 397.92C98.8702 405.28 131.15 437.56 138.51 451.73C139.15 452.95 140.9 452.95 141.54 451.73C148.9 437.56 181.18 405.28 195.35 397.92C196.57 397.29 196.57 395.53 195.35 394.89Z" fill="#EB3000"/>
<path d="M195.35 249.7C181.18 242.34 148.9 210.06 141.54 195.89C140.9 194.67 139.15 194.67 138.51 195.89C131.15 210.06 98.8702 242.34 84.7002 249.7C83.4802 250.33 83.4802 252.09 84.7002 252.73C98.8702 260.09 131.15 292.37 138.51 306.54C139.15 307.76 140.9 307.76 141.54 306.54C148.9 292.37 181.18 260.09 195.35 252.73C196.57 252.1 196.57 250.34 195.35 249.7Z" fill="#EB3000"/>
<path d="M195.35 108.98C181.18 101.62 148.9 69.3399 141.54 55.1699C140.9 53.9499 139.15 53.9499 138.51 55.1699C131.15 69.3399 98.8702 101.62 84.7002 108.98C83.4802 109.61 83.4802 111.37 84.7002 112.01C98.8702 119.37 131.15 151.65 138.51 165.82C139.15 167.04 140.9 167.04 141.54 165.82C148.9 151.65 181.18 119.37 195.35 112.01C196.57 111.38 196.57 109.62 195.35 108.98Z" fill="#EB3000"/>
<path d="M195.35 536.88C181.18 529.52 148.9 497.24 141.54 483.07C140.9 481.85 139.15 481.85 138.51 483.07C131.15 497.24 98.8702 529.52 84.7002 536.88C83.4802 537.51 83.4802 539.27 84.7002 539.91C98.8702 547.27 131.15 579.55 138.51 593.72C139.15 594.94 140.9 594.94 141.54 593.72C148.9 579.55 181.18 547.27 195.35 539.91C196.57 539.28 196.57 537.52 195.35 536.88Z" fill="#EB3000"/>
<path d="M385.22 394.89C371.05 387.53 338.77 355.25 331.41 341.08C330.77 339.86 329.02 339.86 328.38 341.08C321.02 355.25 288.74 387.53 274.57 394.89C273.35 395.52 273.35 397.28 274.57 397.92C288.74 405.28 321.02 437.56 328.38 451.73C329.02 452.95 330.77 452.95 331.41 451.73C338.77 437.56 371.05 405.28 385.22 397.92C386.44 397.29 386.44 395.53 385.22 394.89Z" fill="#EB3000"/>
<path d="M385.22 249.7C371.05 242.34 338.77 210.06 331.41 195.89C330.77 194.67 329.02 194.67 328.38 195.89C321.02 210.06 288.74 242.34 274.57 249.7C273.35 250.33 273.35 252.09 274.57 252.73C288.74 260.09 321.02 292.37 328.38 306.54C329.02 307.76 330.77 307.76 331.41 306.54C338.77 292.37 371.05 260.09 385.22 252.73C386.44 252.1 386.44 250.34 385.22 249.7Z" fill="#EB3000"/>
<path d="M385.22 108.98C371.05 101.62 338.77 69.3399 331.41 55.1699C330.77 53.9499 329.02 53.9499 328.38 55.1699C321.02 69.3399 288.74 101.62 274.57 108.98C273.35 109.61 273.35 111.37 274.57 112.01C288.74 119.37 321.02 151.65 328.38 165.82C329.02 167.04 330.77 167.04 331.41 165.82C338.77 151.65 371.05 119.37 385.22 112.01C386.44 111.38 386.44 109.62 385.22 108.98Z" fill="#EB3000"/>
<path d="M385.22 536.88C371.05 529.52 338.77 497.24 331.41 483.07C330.77 481.85 329.02 481.85 328.38 483.07C321.02 497.24 288.74 529.52 274.57 536.88C273.35 537.51 273.35 539.27 274.57 539.91C288.74 547.27 321.02 579.55 328.38 593.72C329.02 594.94 330.77 594.94 331.41 593.72C338.77 579.55 371.05 547.27 385.22 539.91C386.44 539.28 386.44 537.52 385.22 536.88Z" fill="#EB3000"/>
<path d="M75.0898 31.4901C70.3598 25.6001 64.3602 22.6201 57.2402 22.6201C50.7902 22.6201 45.1698 25.0401 40.5298 29.8101C35.9098 34.5701 33.5698 40.4201 33.5698 47.1901C33.5698 53.9601 35.7498 59.6101 40.0498 63.3001C44.2698 66.9101 49.0302 68.7401 54.2202 68.7401C57.9602 68.7401 61.3799 67.8701 64.4199 66.1401C65.9299 65.2801 67.3499 64.2101 68.6699 62.9301C68.5799 68.6501 67.8402 73.3701 66.4902 77.0001C65.1002 80.7401 63.2999 83.4301 61.1499 84.9901C58.9999 86.5601 56.5602 87.3201 53.7002 87.3201C51.2002 87.3201 50.1598 86.9001 49.7598 86.6601C49.3198 86.3801 49.1499 86.1601 49.1499 86.1301C49.1499 86.1301 49.1999 85.8701 49.6299 85.3101C50.8999 83.7001 51.5601 82.1201 51.5601 80.6101C51.5601 78.6001 50.8101 76.8601 49.3301 75.4401C46.3001 72.4801 41.1698 72.6601 38.2998 75.7401C36.8098 77.3101 36.0698 79.3701 36.0698 81.8401C36.0698 85.4301 37.7102 88.5301 40.9302 91.0501C44.0002 93.4401 48.2102 94.6601 53.4702 94.6601C58.7302 94.6601 63.7298 93.1701 68.0098 90.2201C72.2698 87.2901 75.73 82.8101 78.27 76.9001C80.78 71.0901 82.0498 63.9001 82.0498 55.5501C82.0498 45.3401 79.7101 37.2501 75.1001 31.5001L75.0898 31.4901ZM65.1699 56.2101C63.0899 58.6301 60.5901 59.8001 57.5601 59.8001C54.5301 59.8001 52.1002 58.7301 50.2202 56.5201C48.2902 54.2501 47.2998 50.6101 47.2998 45.7201C47.2998 40.2901 48.2998 36.2301 50.2798 33.6601C52.1598 31.2201 54.4801 30.0301 57.3701 30.0301C60.2601 30.0301 62.8002 31.3301 64.9902 34.0101C67.2402 36.7701 68.3799 40.6301 68.3799 45.4801C68.3799 50.3301 67.2902 53.7301 65.1602 56.2001L65.1699 56.2101Z" fill="#EB3000"/>
<path d="M395.58 616.84C400.31 622.73 406.31 625.71 413.43 625.71C419.88 625.71 425.5 623.29 430.14 618.52C434.76 613.76 437.1 607.91 437.1 601.14C437.1 594.37 434.92 588.72 430.62 585.03C426.4 581.42 421.64 579.59 416.45 579.59C412.71 579.59 409.28 580.46 406.25 582.19C404.74 583.05 403.32 584.12 402 585.4C402.09 579.68 402.83 574.96 404.18 571.33C405.57 567.59 407.37 564.9 409.52 563.34C411.67 561.77 414.11 561.01 416.97 561.01C419.47 561.01 420.51 561.43 420.91 561.67C421.35 561.95 421.52 562.17 421.52 562.2C421.52 562.2 421.47 562.46 421.04 563.02C419.77 564.63 419.11 566.21 419.11 567.72C419.11 569.73 419.86 571.47 421.34 572.89C424.37 575.85 429.5 575.67 432.37 572.59C433.86 571.02 434.6 568.96 434.6 566.49C434.6 562.9 432.96 559.8 429.74 557.28C426.67 554.89 422.46 553.67 417.2 553.67C411.94 553.67 406.94 555.16 402.66 558.11C398.4 561.04 394.94 565.52 392.4 571.43C389.89 577.24 388.62 584.43 388.62 592.78C388.62 602.99 390.96 611.08 395.57 616.83L395.58 616.84ZM405.5 592.12C407.58 589.7 410.08 588.53 413.11 588.53C416.14 588.53 418.57 589.6 420.45 591.81C422.38 594.08 423.37 597.72 423.37 602.61C423.37 608.04 422.37 612.1 420.39 614.67C418.51 617.11 416.19 618.3 413.3 618.3C410.41 618.3 407.87 617 405.68 614.32C403.43 611.56 402.29 607.7 402.29 602.85C402.29 598 403.38 594.6 405.51 592.13L405.5 592.12Z" fill="#EB3000"/>
<defs>
<linearGradient id="paint0_linear_145_1632" x1="380.96" y1="-104.14" x2="110.48" y2="689.73" gradientUnits="userSpaceOnUse">
<stop stop-color="#E1E1E1"/>
<stop offset="0.12" stop-color="#ECECEC"/>
<stop offset="0.32" stop-color="#FAFAFA"/>
<stop offset="0.49" stop-color="white"/>
<stop offset="0.7" stop-color="#FBFBFB"/>
<stop offset="0.85" stop-color="#F2F2F2"/>
<stop offset="0.99" stop-color="#E2E2E2"/>
<stop offset="1" stop-color="#E1E1E1"/>
</linearGradient>
</defs>
</svg>
