<svg width="469" height="649" viewBox="0 0 469 649" fill="none" xmlns="http://www.w3.org/2000/svg">
<path d="M439.03 0.0200195H29.1499C13.0799 0.0200195 0.0498047 12.08 0.0498047 26.95V621.79C0.0498047 636.66 13.0799 648.72 29.1499 648.72H439.03C455.1 648.72 468.13 636.66 468.13 621.79V26.95C468.13 12.08 455.1 0.0200195 439.03 0.0200195Z" fill="url(#paint0_linear_145_1746)"/>
<path d="M79.4398 130.05C73.4198 126.92 59.6899 113.19 56.5599 107.17C56.2899 106.65 55.5399 106.65 55.2699 107.17C52.1399 113.19 38.41 126.92 32.39 130.05C31.87 130.32 31.87 131.07 32.39 131.34C38.41 134.47 52.1399 148.2 55.2699 154.22C55.5399 154.74 56.2899 154.74 56.5599 154.22C59.6899 148.2 73.4198 134.47 79.4398 131.34C79.9598 131.07 79.9598 130.32 79.4398 130.05Z" fill="#EB3000"/>
<path d="M388.47 518C394.49 521.13 408.22 534.86 411.35 540.88C411.62 541.4 412.37 541.4 412.64 540.88C415.77 534.86 429.5 521.13 435.52 518C436.04 517.73 436.04 516.98 435.52 516.71C429.5 513.58 415.77 499.85 412.64 493.83C412.37 493.31 411.62 493.31 411.35 493.83C408.22 499.85 394.49 513.58 388.47 516.71C387.95 516.98 387.95 517.73 388.47 518Z" fill="#EB3000"/>
<path d="M289.41 181.94C275.24 174.58 242.96 142.3 235.6 128.13C234.97 126.91 233.21 126.91 232.57 128.13C225.21 142.3 192.93 174.58 178.76 181.94C177.54 182.57 177.54 184.33 178.76 184.97C192.93 192.33 225.21 224.61 232.57 238.78C233.21 240 234.96 240 235.6 238.78C242.96 224.61 275.24 192.33 289.41 184.97C290.63 184.34 290.63 182.58 289.41 181.94Z" fill="#EB3000"/>
<path d="M289.41 465.33C275.24 457.97 242.96 425.69 235.6 411.52C234.97 410.3 233.21 410.3 232.57 411.52C225.21 425.69 192.93 457.97 178.76 465.33C177.54 465.96 177.54 467.72 178.76 468.36C192.93 475.72 225.21 508 232.57 522.17C233.21 523.39 234.96 523.39 235.6 522.17C242.96 508 275.24 475.72 289.41 468.36C290.63 467.73 290.63 465.97 289.41 465.33Z" fill="#EB3000"/>
<path d="M194.48 394.89C180.31 387.53 148.03 355.25 140.67 341.08C140.04 339.86 138.28 339.86 137.64 341.08C130.28 355.25 98 387.53 83.83 394.89C82.61 395.52 82.61 397.28 83.83 397.92C98 405.28 130.28 437.56 137.64 451.73C138.28 452.95 140.03 452.95 140.67 451.73C148.03 437.56 180.31 405.28 194.48 397.92C195.7 397.29 195.7 395.53 194.48 394.89Z" fill="#EB3000"/>
<path d="M194.48 249.7C180.31 242.34 148.03 210.06 140.67 195.89C140.04 194.67 138.28 194.67 137.64 195.89C130.28 210.06 98 242.34 83.83 249.7C82.61 250.33 82.61 252.09 83.83 252.73C98 260.09 130.28 292.37 137.64 306.54C138.28 307.76 140.03 307.76 140.67 306.54C148.03 292.37 180.31 260.09 194.48 252.73C195.7 252.1 195.7 250.34 194.48 249.7Z" fill="#EB3000"/>
<path d="M194.48 108.98C180.31 101.62 148.03 69.3399 140.67 55.1699C140.04 53.9499 138.28 53.9499 137.64 55.1699C130.28 69.3399 98 101.62 83.83 108.98C82.61 109.61 82.61 111.37 83.83 112.01C98 119.37 130.28 151.65 137.64 165.82C138.28 167.04 140.03 167.04 140.67 165.82C148.03 151.65 180.31 119.37 194.48 112.01C195.7 111.38 195.7 109.62 194.48 108.98Z" fill="#EB3000"/>
<path d="M194.48 536.88C180.31 529.52 148.03 497.24 140.67 483.07C140.04 481.85 138.28 481.85 137.64 483.07C130.28 497.24 98 529.52 83.83 536.88C82.61 537.51 82.61 539.27 83.83 539.91C98 547.27 130.28 579.55 137.64 593.72C138.28 594.94 140.03 594.94 140.67 593.72C148.03 579.55 180.31 547.27 194.48 539.91C195.7 539.28 195.7 537.52 194.48 536.88Z" fill="#EB3000"/>
<path d="M384.34 394.89C370.17 387.53 337.89 355.25 330.53 341.08C329.9 339.86 328.14 339.86 327.5 341.08C320.14 355.25 287.86 387.53 273.69 394.89C272.47 395.52 272.47 397.28 273.69 397.92C287.86 405.28 320.14 437.56 327.5 451.73C328.14 452.95 329.89 452.95 330.53 451.73C337.89 437.56 370.17 405.28 384.34 397.92C385.56 397.29 385.56 395.53 384.34 394.89Z" fill="#EB3000"/>
<path d="M384.34 249.7C370.17 242.34 337.89 210.06 330.53 195.89C329.9 194.67 328.14 194.67 327.5 195.89C320.14 210.06 287.86 242.34 273.69 249.7C272.47 250.33 272.47 252.09 273.69 252.73C287.86 260.09 320.14 292.37 327.5 306.54C328.14 307.76 329.89 307.76 330.53 306.54C337.89 292.37 370.17 260.09 384.34 252.73C385.56 252.1 385.56 250.34 384.34 249.7Z" fill="#EB3000"/>
<path d="M384.34 108.98C370.17 101.62 337.89 69.3399 330.53 55.1699C329.9 53.9499 328.14 53.9499 327.5 55.1699C320.14 69.3399 287.86 101.62 273.69 108.98C272.47 109.61 272.47 111.37 273.69 112.01C287.86 119.37 320.14 151.65 327.5 165.82C328.14 167.04 329.89 167.04 330.53 165.82C337.89 151.65 370.17 119.37 384.34 112.01C385.56 111.38 385.56 109.62 384.34 108.98Z" fill="#EB3000"/>
<path d="M384.34 536.88C370.17 529.52 337.89 497.24 330.53 483.07C329.9 481.85 328.14 481.85 327.5 483.07C320.14 497.24 287.86 529.52 273.69 536.88C272.47 537.51 272.47 539.27 273.69 539.91C287.86 547.27 320.14 579.55 327.5 593.72C328.14 594.94 329.89 594.94 330.53 593.72C337.89 579.55 370.17 547.27 384.34 539.91C385.56 539.28 385.56 537.52 384.34 536.88Z" fill="#EB3000"/>
<path d="M63.6099 21.98C57.5799 21.98 52.68 24.89 49.02 30.64C44.67 37.47 42.4702 46.72 42.4702 58.11C42.4702 70.11 44.82 79.48 49.46 85.96C53.3 91.3 58.1799 94.01 63.9399 94.01C69.6999 94.01 75.08 90.81 79.25 84.51C83.31 78.37 85.3701 69.43 85.3701 57.93C85.3701 45.53 83.0001 36.09 78.3301 29.86C74.4301 24.63 69.4801 21.98 63.6201 21.98H63.6099ZM70.6499 82.06C69.0499 85.2 66.8599 86.72 63.9399 86.72C61.0199 86.72 58.78 85.04 57 81.58C55.07 77.82 54.0898 69.93 54.0898 58.11C54.0898 43.04 55.6101 36.88 56.8901 34.38C58.6001 31.03 60.8701 29.41 63.8501 29.41C66.8301 29.41 69.0301 31.14 70.8501 34.69C72.8201 38.54 73.8198 46.53 73.8198 58.45C73.8198 70.37 72.7501 77.9 70.6401 82.07L70.6499 82.06Z" fill="#EB3000"/>
<path d="M34.6499 84.0399V23.1299H30.21L29.7202 23.5199C27.7602 25.0899 25.4298 26.3899 22.8198 27.3699C20.1498 28.3699 16.59 29.1899 12.25 29.7999L10.6401 30.0199V37.0599H22.0601C22.8401 37.0599 23.1999 37.3199 23.3999 37.5099C23.6999 37.7999 23.7598 38.0299 23.7598 38.2999V82.7999C23.7598 83.7799 23.4602 84.2099 23.2402 84.4499C22.7902 84.9299 21.89 85.0299 21.21 85.0299H12.21V92.5999H46.9502V85.0299H36.7402C35.9202 85.0299 35.2699 84.8299 34.6499 84.0199V84.0399Z" fill="#EB3000"/>
<path d="M405.12 625.83C411.15 625.83 416.05 622.92 419.71 617.17C424.06 610.34 426.26 601.09 426.26 589.7C426.26 577.7 423.91 568.33 419.27 561.85C415.43 556.51 410.55 553.8 404.79 553.8C399.03 553.8 393.65 557 389.48 563.3C385.42 569.44 383.36 578.38 383.36 589.88C383.36 602.28 385.73 611.72 390.4 617.95C394.3 623.18 399.25 625.83 405.11 625.83H405.12ZM398.08 565.75C399.68 562.61 401.87 561.09 404.79 561.09C407.71 561.09 409.95 562.77 411.73 566.23C413.66 569.99 414.64 577.88 414.64 589.7C414.64 604.77 413.12 610.93 411.84 613.43C410.13 616.78 407.86 618.4 404.88 618.4C401.9 618.4 399.7 616.67 397.88 613.12C395.91 609.27 394.91 601.28 394.91 589.36C394.91 577.44 395.98 569.91 398.09 565.74L398.08 565.75Z" fill="#EB3000"/>
<path d="M434.09 563.77V624.68H438.53L439.02 624.29C440.98 622.72 443.31 621.42 445.92 620.44C448.59 619.44 452.15 618.62 456.49 618.01L458.1 617.79V610.75H446.68C445.9 610.75 445.54 610.49 445.34 610.3C445.04 610.01 444.98 609.78 444.98 609.51V565.01C444.98 564.03 445.28 563.6 445.5 563.36C445.95 562.88 446.85 562.78 447.53 562.78H456.53V555.21H421.79V562.78H432C432.82 562.78 433.47 562.98 434.09 563.79V563.77Z" fill="#EB3000"/>
<defs>
<linearGradient id="paint0_linear_145_1746" x1="380.09" y1="-104.14" x2="109.61" y2="689.73" gradientUnits="userSpaceOnUse">
<stop stop-color="#E1E1E1"/>
<stop offset="0.12" stop-color="#ECECEC"/>
<stop offset="0.32" stop-color="#FAFAFA"/>
<stop offset="0.49" stop-color="white"/>
<stop offset="0.7" stop-color="#FBFBFB"/>
<stop offset="0.85" stop-color="#F2F2F2"/>
<stop offset="0.99" stop-color="#E2E2E2"/>
<stop offset="1" stop-color="#E1E1E1"/>
</linearGradient>
</defs>
</svg>
