<svg width="470" height="650" viewBox="0 0 470 650" fill="none" xmlns="http://www.w3.org/2000/svg">
<path d="M439.91 0.370117H30.0298C13.9598 0.370117 0.930176 12.4301 0.930176 27.3001V622.14C0.930176 637.01 13.9598 649.07 30.0298 649.07H439.91C455.98 649.07 469.01 637.01 469.01 622.14V27.3001C469.01 12.4301 455.98 0.370117 439.91 0.370117Z" fill="url(#paint0_linear_145_2101)"/>
<path d="M80.3299 130.4C74.3099 127.27 60.5801 113.54 57.4501 107.52C57.1801 107 56.43 107 56.16 107.52C53.03 113.54 39.2996 127.27 33.2796 130.4C32.7596 130.67 32.7596 131.42 33.2796 131.69C39.2996 134.82 53.03 148.55 56.16 154.57C56.43 155.09 57.1801 155.09 57.4501 154.57C60.5801 148.55 74.3099 134.82 80.3299 131.69C80.8499 131.42 80.8499 130.67 80.3299 130.4Z" fill="#EB3000"/>
<path d="M389.36 518.35C395.38 521.48 409.11 535.21 412.24 541.23C412.51 541.75 413.26 541.75 413.53 541.23C416.66 535.21 430.39 521.48 436.41 518.35C436.93 518.08 436.93 517.33 436.41 517.06C430.39 513.93 416.66 500.2 413.53 494.18C413.26 493.66 412.51 493.66 412.24 494.18C409.11 500.2 395.38 513.93 389.36 517.06C388.84 517.33 388.84 518.08 389.36 518.35Z" fill="#EB3000"/>
<path d="M49.6099 28.7202H56.7998C59.0298 28.7202 60.0202 29.1102 60.4702 29.4402C60.8302 29.7102 61.3101 30.2002 61.3101 31.3902V76.0802C61.3101 80.6902 60.2499 84.3102 58.1499 86.8302C56.0699 89.3402 53.2701 90.5502 49.6201 90.5502C46.4101 90.5502 43.68 89.6502 41.5 87.8802C39.35 86.1302 38.3101 84.2802 38.3101 82.2202C38.3101 81.4102 38.4801 81.0402 38.6401 80.8202C38.7701 80.6402 38.8801 80.5802 39.1001 80.5802C39.1301 80.5802 39.41 80.5902 40.5 80.9102C41.62 81.2602 42.4802 81.4302 43.1602 81.4302C44.9302 81.4302 46.4898 80.6902 47.8198 79.2402C49.1198 77.8102 49.7798 76.0402 49.7798 73.9602C49.7798 71.5802 48.9799 69.5902 47.3999 68.0302C45.8299 66.4802 43.8102 65.6902 41.4102 65.6902C38.5002 65.6902 36.02 66.8702 34.04 69.2102C32.09 71.4902 31.1099 74.5602 31.1099 78.3102C31.1099 83.3302 33.0098 87.6302 36.7598 91.1102C40.4898 94.5602 45.3402 96.3102 51.1802 96.3102C55.4402 96.3102 59.33 95.4402 62.73 93.7302C66.16 92.0002 68.7998 89.6202 70.5898 86.6502C72.3798 83.6902 73.2798 80.3302 73.2798 76.6702V31.4202C73.2798 30.5302 73.52 29.8802 74.04 29.4502C74.42 29.1302 75.2498 28.7502 77.0898 28.7502H82.4902V23.2002H49.6099V28.7502V28.7202Z" fill="#EB3000"/>
<path d="M420.07 620.3H412.88C410.65 620.3 409.66 619.91 409.21 619.58C408.85 619.31 408.37 618.82 408.37 617.63V572.94C408.37 568.33 409.43 564.71 411.53 562.19C413.61 559.69 416.41 558.47 420.06 558.47C423.27 558.47 426 559.37 428.18 561.14C430.33 562.89 431.37 564.74 431.37 566.8C431.37 567.61 431.2 567.98 431.04 568.2C430.91 568.38 430.8 568.44 430.58 568.44C430.55 568.44 430.27 568.43 429.18 568.11C428.06 567.76 427.2 567.59 426.52 567.59C424.75 567.59 423.19 568.33 421.86 569.78C420.56 571.21 419.9 572.98 419.9 575.06C419.9 577.44 420.7 579.43 422.28 580.99C423.85 582.54 425.87 583.33 428.27 583.33C431.18 583.33 433.66 582.15 435.64 579.81C437.59 577.53 438.57 574.46 438.57 570.71C438.57 565.69 436.67 561.39 432.92 557.91C429.19 554.46 424.34 552.71 418.5 552.71C414.24 552.71 410.35 553.58 406.95 555.29C403.52 557.02 400.88 559.4 399.09 562.37C397.3 565.33 396.4 568.69 396.4 572.35V617.6C396.4 618.49 396.16 619.14 395.64 619.57C395.26 619.89 394.43 620.27 392.59 620.27H387.19V625.82H420.07V620.27V620.3Z" fill="#EB3000"/>
<path d="M359.36 127.07C352.58 127.02 347.12 121.7 347.17 115.22C347.21 110.66 349.89 106.83 353.72 104.83C353 102.19 352.6 99.3502 352.62 96.4102C352.67 90.9402 354.19 85.7802 356.77 81.2402C336.13 91.9302 322.08 112.7 321.88 136.62C321.68 160.54 335.38 181.42 355.74 192.52C353.45 188.15 352.21 183.17 352.26 178C352.29 174.56 352.85 171.22 353.93 168.08C350.88 165.93 348.89 162.36 348.93 158.41C348.99 151.92 354.54 146.69 361.42 146.75C362.69 146.76 363.96 146.97 365.02 147.29L365.2 125.7C363.5 126.6 361.48 127.09 359.36 127.08V127.07ZM352.44 139.13C348.95 140.7 340.96 147.62 339.12 150.67C338.96 150.93 338.53 150.93 338.38 150.67C336.6 147.59 328.72 140.54 325.26 138.93C324.96 138.79 324.96 138.41 325.26 138.28C328.75 136.71 336.74 129.79 338.58 126.73C338.74 126.47 339.17 126.47 339.32 126.73C341.1 129.81 348.98 136.86 352.44 138.47C352.74 138.61 352.74 138.99 352.44 139.12V139.13Z" fill="#BACBE4"/>
<path d="M375.6 147.47C379.07 150.74 383.29 153.2 387.94 154.76C387.11 151.92 386.4 148.97 386 145.93C385.6 142.99 385.41 140.05 385.44 137.11C385.46 134.37 385.7 131.64 386.04 129C386.49 125.76 387.26 122.52 388.24 119.49V119.39C383.25 120.97 378.78 123.67 375.15 127.09C374.83 126.99 374.52 126.88 374.2 126.68L374.03 147.66C374.03 147.76 374.03 147.96 373.92 148.07C374.45 147.87 375.09 147.67 375.62 147.48L375.6 147.47Z" fill="#BACBE4"/>
<path d="M372.41 124.13C372.83 124.13 373.25 124.34 373.57 124.54L373.67 111.77L379.71 111.82L374.98 94.65L370.14 77.48L365.12 94.57L360 111.66L366.14 111.71L366.04 124.38C366.25 124.18 366.68 124.08 367 124.08L372.4 124.12L372.41 124.13Z" fill="black"/>
<path d="M368.48 237.75C368.69 237.85 368.8 238.16 368.9 238.46C369.75 241.6 367.95 244.95 365.41 247.08L365.09 247.38C364.67 247.68 364.35 247.99 363.93 248.29V249.41C364.03 249.21 364.25 249.21 364.35 249.11C364.67 249.01 364.88 248.81 365.2 248.7C367.21 247.69 369.33 246.87 371.45 246.06L373.36 148.97C373.04 149.26 372.62 149.37 372.2 149.36H366.8C366.48 149.36 366.06 149.26 365.85 149.06L364.16 238.56C365.11 237.85 366.38 237.44 367.55 237.44C367.87 237.44 368.29 237.54 368.5 237.74L368.48 237.75Z" fill="black"/>
<path d="M373.35 148.98C373.35 148.98 373.35 148.98 373.36 148.98C373.68 148.78 373.9 148.48 373.9 148.07C374.01 147.97 374.01 147.77 374.01 147.66L374.19 125.87C374.19 125.36 373.99 124.95 373.57 124.55C373.25 124.35 372.83 124.14 372.41 124.14L367.01 124.1C366.69 124.1 366.27 124.2 366.05 124.4C365.52 124.7 365.2 125.2 365.19 125.71L365.01 147.3V147.6C365.01 148.21 365.31 148.72 365.84 149.03C366.05 149.23 366.47 149.34 366.79 149.34L372.19 149.38C372.61 149.38 373.03 149.28 373.35 148.99V148.98Z" fill="#B3B3B3"/>
<path d="M361.3 299.46C361.3 299.46 361.29 299.46 361.28 299.46C361.38 299.46 361.49 299.46 361.49 299.46C361.91 299.46 362.34 299.56 362.76 299.66H362.87L362.98 296.11L363.51 268.44V268.34C363.09 268.04 362.56 267.53 362.56 266.92C362.45 266.21 362.98 265.6 363.41 265.3C363.477 265.234 363.547 265.167 363.62 265.1C364.36 264.49 365 263.98 365.1 263.27V263.17C364.89 263.07 364.25 263.07 363.62 263.07H363.51C362.88 262.97 361.92 262.97 361.29 262.16C360.97 261.35 361.29 261.04 361.29 260.64L362.56 258.21C361.6 258.01 360.76 258.01 359.8 257.71C358.74 257.2 357.89 256.09 357.89 254.97C358.1 252.44 360.54 251.42 362.23 250.31C362.23 250.21 362.33 250.11 362.44 250.01C362.55 249.71 362.65 249.5 362.86 249.3C363.18 248.89 363.6 248.59 363.92 248.29C364.34 247.99 364.66 247.68 365.08 247.38L365.4 247.08C367.94 244.95 369.74 241.61 368.89 238.46C368.79 238.16 368.68 237.85 368.47 237.75C368.26 237.55 367.84 237.45 367.52 237.45C366.36 237.45 365.08 237.86 364.13 238.57C364.02 238.57 364.02 238.67 363.92 238.67C362.33 239.58 361.06 240.9 359.79 242.22C359.68 242.32 359.58 242.52 359.37 242.63C358.31 243.85 357.14 244.96 355.98 246.18C355.55 246.59 355.24 246.99 355.03 247.5C354.71 248.01 354.71 248.62 354.6 249.12C353.86 254.49 353.01 259.96 353.97 265.23C354.29 266.95 354.82 268.68 355.24 270.4C355.87 272.22 356.4 274.15 356.93 275.97C357.25 276.88 357.46 277.8 357.99 278.61C358.63 279.52 359.47 280.33 360.43 280.94C361.07 281.45 361.81 281.95 361.91 282.66C362.02 282.96 361.91 283.27 361.91 283.67C361.38 286 361.7 288.23 361.91 290.66L361.81 293.03C361.81 293.03 361.82 293.06 361.83 293.07L361.3 299.46Z" fill="#FFDEB9"/>
<path d="M370.18 271.3C370.39 271.5 370.71 271.81 370.92 272.01C374.73 275.45 380.24 277.89 385.64 277.08C385.567 277.013 385.53 276.946 385.53 276.88C380.23 276.58 375.36 274.35 370.91 271.71C370.7 271.61 370.38 271.41 370.17 271.3H370.18Z" fill="#999999"/>
<path d="M367.11 264.51C368.49 264.71 369.76 264.92 371.13 265.12C376.11 265.93 381.19 266.64 386.28 266.23C386.18 266.03 386.18 265.93 386.18 265.73C381.2 265.63 376.22 264.92 371.14 264.72C369.76 264.52 368.49 264.52 367.12 264.52L367.11 264.51Z" fill="#999999"/>
<path d="M371.24 256.4C369.12 256.6 367 257.01 365.1 257.82C367.11 257.41 369.23 257.21 371.24 257.01C373.67 256.91 376.11 256.81 378.65 256.5C381.19 256.09 383.73 255.28 386.06 254.17C385.96 253.97 385.85 253.76 385.85 253.56C383.52 254.57 381.08 255.28 378.44 255.49C376.11 255.9 373.67 256.1 371.24 256.4Z" fill="#999999"/>
<path d="M364.35 249.11C364.24 249.21 364.03 249.21 363.93 249.41C363.4 249.61 362.98 249.92 362.45 250.22C362.34 250.22 362.24 250.22 362.24 250.32C361.82 250.62 361.39 250.93 360.97 251.23C359.7 252.24 358.53 253.46 358.53 254.98C358.53 255.89 359.17 256.7 360.12 257.11C361.08 257.31 362.13 257.31 363.19 257.52L363.72 257.62H363.82L363.61 258.03L362.55 260.06C362.34 260.47 362.12 261.28 362.12 261.48V261.68C362.33 261.88 362.97 261.98 363.6 262.09C364.23 262.2 364.87 261.99 365.82 262.5V262.6C365.93 262.8 366.03 263.11 366.14 263.31V263.41C365.82 264.73 364.66 265.23 363.92 265.84C363.81 265.94 363.71 266.14 363.49 266.25V266.35C363.17 266.65 363.17 266.96 363.49 267.36C363.6 267.56 363.81 267.77 363.92 267.87C364.55 268.38 365.4 268.88 366.14 269.39C366.46 269.69 366.88 269.9 367.1 270.4C367.42 270.91 367.1 271.41 366.99 271.82C366.57 272.63 366.36 273.34 366.88 274.05C367.08 274.43 367.27 274.72 367.47 275.08C367.49 275.1 367.52 275.12 367.54 275.15C367.86 275.45 368.17 275.76 368.49 276.06C368.6 276.16 368.81 276.26 368.91 276.46L370.82 277.98V278.01C370.82 278.01 370.8 278.01 370.8 278L370.7 287.73L370.38 301.62H370.4C371.14 301.72 371.97 301.82 372.81 301.82C375.04 301.92 377.36 301.82 379.59 301.31C380.65 301.11 381.82 300.7 382.77 299.99C384.35 298.67 384.78 296.45 385.62 294.62C385.94 294.01 386.25 293.41 386.78 292.9C385.51 291.99 384.66 290.57 384.24 288.95C383.71 287.12 383.81 285.3 384.34 283.48C384.55 283.48 384.87 283.38 385.19 283.28C386.46 282.77 387.52 281.35 387.2 280.04C386.88 279.03 385.93 278.42 385.61 277.41C385.61 277.31 385.5 277.21 385.61 277.11C380.21 277.92 374.7 275.49 370.89 272.04C370.68 271.84 370.36 271.53 370.15 271.33C370.36 271.43 370.68 271.63 370.89 271.74C375.34 274.37 380.21 276.6 385.51 276.91C385.19 274.48 388.8 272.25 388.16 269.71C387.95 268.9 387.31 268.19 386.78 267.48C386.57 267.07 386.36 266.67 386.25 266.26C381.17 266.67 376.08 265.96 371.1 265.15C369.72 264.95 368.45 264.74 367.08 264.54C368.46 264.54 369.73 264.54 371.1 264.74C376.18 264.94 381.16 265.65 386.14 265.75C386.14 265.54 386.24 265.24 386.35 265.04C386.56 264.63 386.98 264.33 387.3 263.92C389.31 262.09 389.63 258.85 388.04 256.72C387.4 255.81 386.56 255.1 386.03 254.19C383.7 255.31 381.16 256.12 378.62 256.52C376.08 256.82 373.64 256.93 371.21 257.03C369.2 257.23 367.08 257.44 365.07 257.84C366.98 257.03 369.09 256.62 371.21 256.42C373.64 256.12 376.08 255.91 378.41 255.51C381.06 255.31 383.49 254.6 385.82 253.58L385.72 253.48C385.51 252.77 385.61 251.96 385.61 251.15C385.72 248.92 385.19 246.49 383.38 245.07C381.05 243.35 377.66 243.96 374.91 244.77C374.06 245.07 373.22 245.38 372.37 245.78C372.05 245.88 371.73 245.98 371.42 246.08C369.3 246.89 367.18 247.7 365.17 248.72C364.85 248.82 364.64 249.02 364.32 249.13L364.35 249.11ZM384.23 283.29C379.63 283.22 375.15 281.37 372.17 279.13C372 279 371.76 278.8 371.59 278.67C371.76 278.75 372.02 278.89 372.19 278.96C375.76 280.82 379.71 282.49 384.16 283.16C384.16 283.2 384.187 283.24 384.24 283.28L384.23 283.29Z" fill="#FFDEB9"/>
<path d="M363.53 268.45C364.27 268.96 365.01 269.36 365.75 269.87C366.6 270.28 366.92 270.78 366.49 271.59C366.07 272.3 365.96 273.52 366.6 274.23C366.81 274.43 367.02 274.64 367.23 274.84C367.31 274.92 367.4 275 367.48 275.08C367.28 274.72 367.09 274.42 366.89 274.05C366.36 273.34 366.57 272.63 367 271.82C367.11 271.41 367.42 270.91 367.11 270.4C366.9 269.89 366.47 269.69 366.15 269.39C365.41 268.88 364.56 268.38 363.93 267.87C363.82 267.77 363.61 267.57 363.5 267.36C363.18 266.95 363.18 266.65 363.5 266.35V266.25C363.71 266.15 363.82 265.95 363.93 265.84C364.67 265.23 365.84 264.73 366.15 263.41V263.31C366.05 263.11 365.94 262.8 365.83 262.6V262.5C364.88 261.99 364.24 262.2 363.61 262.09C362.98 261.98 362.34 261.89 362.13 261.68V261.48C362.13 261.28 362.34 260.47 362.56 260.06L363.62 258.03L363.83 257.62H363.73L363.2 257.52C362.14 257.32 361.08 257.32 360.13 257.11C359.18 256.7 358.54 255.89 358.54 254.98C358.54 253.46 359.7 252.24 360.98 251.23C361.4 250.93 361.83 250.62 362.25 250.32C360.56 251.43 358.12 252.45 357.91 254.98C357.91 256.1 358.76 257.21 359.82 257.72C360.77 258.02 361.62 258.02 362.58 258.22L361.31 260.65C361.31 261.06 360.99 261.36 361.31 262.17C361.94 262.98 362.9 262.98 363.53 263.08H363.64C364.27 263.08 364.91 263.08 365.12 263.18V263.28C365.01 263.99 364.38 264.5 363.64 265.11C363.567 265.176 363.497 265.243 363.43 265.31C363.01 265.62 362.48 266.22 362.58 266.93C362.58 267.54 363.11 268.05 363.53 268.35V268.45L363.56 268.47V268.44L363.53 268.45Z" fill="#999999"/>
<path d="M206.74 116.53C206.95 116.33 207.27 115.82 207.9 115.21C211.5 111.16 221.25 99.7998 222.94 96.0498C225.06 91.3898 258.42 85.0998 258.42 85.0998C258.42 85.0998 277.49 80.7398 287.76 87.1298C295.49 85.1998 301.85 78.4098 302.38 70.7098C302.59 66.7598 301.32 62.5998 298.25 60.0698C295.81 57.9398 292.53 57.1298 289.25 56.4198C263.51 50.8498 236.08 49.0198 210.97 56.8298C203.55 59.0598 196.25 62.2998 190.84 67.7798C187.98 70.6198 185.76 74.0598 183.64 77.5098C178.13 86.1298 172.62 94.7398 167.22 103.36C165.1 106.7 162.87 110.65 164.25 114.31C164.99 116.44 166.79 118.06 168.59 119.58C170.92 121.61 173.36 123.53 175.69 125.56C177.38 126.98 179.18 128.4 181.41 128.7C184.38 129.21 187.13 127.58 189.67 125.96C189.88 125.76 190.2 125.66 190.41 125.55C195.92 122.21 202.49 121.6 206.51 116.73C206.583 116.663 206.654 116.596 206.72 116.53H206.74Z" fill="#D03E12"/>
<path d="M258.43 85.1098C258.43 85.1098 225.06 91.3898 222.95 96.0598C221.26 99.8098 211.51 111.16 207.91 115.22C207.28 115.83 206.96 116.34 206.75 116.54C219.57 105.69 234.61 100.22 248.38 97.5798C269.99 93.4298 287.99 96.2598 287.99 96.2598C287.99 96.2598 291.17 89.2698 287.99 87.2398C287.89 87.2398 287.89 87.1398 287.78 87.1398C277.5 80.7498 258.44 85.1098 258.44 85.1098H258.43Z" fill="#4092C2"/>
<path d="M150.3 182.5C152.95 180.57 156.23 178.55 159.3 178.75H159.4C159.4 178.75 159.42 178.77 159.43 178.78C160.37 178.79 161.3 179.08 162.24 179.58C163.51 180.39 164.46 181.71 165.84 182.42C170.92 185.06 176.96 178.47 182.58 179.99C185.55 180.8 187.24 183.74 188.72 186.38C190.41 189.62 192.21 192.87 193.91 196.01C195.92 199.86 198.25 203.92 202.28 205.94C205.77 207.77 210.75 206.95 212.66 203.91C213.08 203.5 213.29 203 213.4 202.49C214.03 200.46 213.08 198.13 213.72 195.9C213.72 195.7 213.72 195.6 213.83 195.4C214.04 194.69 214.46 194.08 214.89 193.57C216.58 191.54 219.66 190.33 221.46 188.3C223.68 185.56 223.68 181.61 222.73 178.26C222.52 177.55 222.31 176.84 221.99 176.13C221.04 173.5 219.87 170.96 219.23 168.22C219.02 167.31 218.91 166.4 218.91 165.49C218.91 162.85 219.76 160.22 221.77 158.6C223.46 157.18 225.79 156.67 228.13 156.17H228.23C230.56 155.76 233 155.36 234.9 154.04C237.55 152.12 238.71 148.67 238.71 145.53C238.81 145.13 238.81 144.82 238.81 144.42C238.71 140.87 237.65 137.33 237.65 133.78C237.55 132.56 237.65 131.25 238.18 130.13C238.81 128.71 239.98 127.6 241.15 126.48C248.46 118.88 251.21 107.53 248.35 97.5898C234.58 100.23 219.54 105.7 206.72 116.55C206.654 116.617 206.583 116.683 206.51 116.75C202.49 121.61 195.92 122.22 190.41 125.57C190.09 129.22 187.55 132.87 184.27 135.1C180.67 137.74 176.11 139.05 171.77 140.37C170.29 140.78 168.7 141.28 167.64 142.3C165.52 144.43 165.95 147.87 165.41 150.71C164.67 154.76 161.7 158.21 158.1 160.34C154.5 162.57 150.26 163.58 146.02 164.4C143.69 164.81 141.25 165.11 139.35 166.53C136.7 168.45 135.96 171.9 135.54 175.14C135.01 178.79 135.01 183.25 138.19 185.28C138.51 185.48 138.82 185.58 139.14 185.69C139.14 185.69 139.15 185.69 139.16 185.68C142.65 187.2 147 184.87 150.28 182.54L150.3 182.5Z" fill="black"/>
<path d="M248.36 97.5802C251.22 107.51 248.46 118.86 241.16 126.47C240 127.59 238.83 128.7 238.19 130.12C237.66 131.24 237.56 132.55 237.66 133.77C237.66 137.32 238.72 140.87 238.82 144.41C238.82 144.82 238.82 145.12 238.72 145.52C238.72 148.66 237.56 152.11 234.91 154.03C233 155.35 230.56 155.75 228.24 156.16H228.14C225.81 156.67 223.48 157.17 221.78 158.59C219.77 160.21 218.92 162.85 218.92 165.48C218.92 166.39 219.02 167.3 219.24 168.21C219.88 170.95 221.04 173.48 222 176.12C225.18 179.77 229.52 184.23 234.18 188.08C240.32 193.15 247.21 197 253.35 196.39C257.38 195.98 263.1 188.99 264.16 182.5C264.37 181.08 264.79 179.97 265.22 179.16C267.23 174.9 270.83 177.54 270.83 177.54H270.86V177.53C270.86 177.53 271.44 177.48 272.25 177.17C273.06 176.86 274.08 176.32 274.97 175.31C276.45 173.69 277.73 170.75 276.98 165.58C276.66 162.94 278.57 160.81 279.52 160C279.52 160 272.85 162.94 269.25 155.44C269.25 155.44 276.03 157.37 280.05 155.44C280.15 155.24 280.26 155.14 280.37 154.93C275.92 156.65 269.46 154.93 269.46 154.93C269.46 154.93 270.31 154.12 272.64 154.42C275.5 154.72 284.19 151.18 283.87 150.87V150.77C283.87 150.57 283.98 150.26 283.98 149.96C282.07 150.97 278.58 152.7 276.56 153.3C265.23 155.73 262.79 151.17 262.47 150.26C262.89 150.46 266.49 152.79 272.32 149.25C276.87 146.62 281.43 147.73 283.76 148.54C283.65 148.13 283.55 147.73 283.33 147.32C283.44 146.61 283.65 146.2 283.97 145.8C284.92 144.38 286.72 144.79 286.72 144.79C286.72 144.79 292.02 148.03 292.02 139.92C292.02 131.81 287.36 121.17 287.36 121.17C287.36 121.17 287.46 119.14 288.52 116.51H288.62C288.73 116 289.05 115.5 289.36 114.89C289.47 113.98 289.47 112.86 289.47 111.54C289.36 105.26 287.99 96.2402 287.99 96.2402C287.99 96.2402 269.98 93.4002 248.38 97.5602L248.36 97.5802ZM264.38 176.1C260.03 177.53 255.42 177.62 250.86 177.13C246.51 176.41 241.32 174.79 239.23 170.62C240.99 172.02 243 172.76 245 173.37C247.02 173.96 249.1 174.43 251.25 174.62C255.51 175.36 259.87 175.45 264.38 176.1ZM266.47 128.09C262.55 128.09 260.75 124.14 261.39 121.81C262.13 119.58 269.33 118.36 274.63 119.07H275.05C276.32 119.27 277.17 119.78 277.91 120.59C280.03 122.92 279.5 127.28 279.5 127.28C279.39 128.8 270.5 128.19 266.47 128.09ZM280.47 147.06C279.17 147.16 277.67 146.79 276.49 145.79C274.41 143.36 275.06 140.44 276.64 138.67C277.07 140.97 277.21 143.11 278.37 144.01C279.3 145.13 281.53 145.24 283.95 145.78C282.93 146.44 281.78 146.95 280.48 147.06H280.47ZM286.17 111.87C286.81 112.68 287.02 113.8 286.6 114.61C286.39 114.91 286.07 115.22 285.75 115.32C282.57 113.9 277.28 111.87 273.14 111.97C266.89 112.17 257.25 113.9 255.45 115.82C252.17 117.04 255.45 114.5 255.45 114.5C255.45 114.5 264.45 107.1 275.15 109.03C282.67 110.35 282.88 111.06 285.53 111.26L286.16 111.87H286.17Z" fill="#FFDEB9"/>
<path d="M245 173.36C243 172.75 240.99 172.01 239.23 170.61C241.32 174.78 246.52 176.4 250.86 177.12C255.42 177.61 260.03 177.53 264.38 176.09C259.87 175.44 255.5 175.35 251.25 174.61C249.1 174.42 247.01 173.95 245 173.36Z" fill="black"/>
<path d="M272.3 149.27C266.47 152.82 262.87 150.49 262.45 150.28C262.77 151.19 265.2 155.75 276.54 153.32C278.55 152.71 282.05 150.99 283.96 149.98C283.96 149.57 283.96 149.17 283.75 148.66V148.56C281.42 147.75 276.86 146.64 272.31 149.27H272.3Z" fill="black"/>
<path d="M269.23 155.45C272.83 162.95 279.5 160.01 279.5 160.01C279.82 159.71 280.03 159.61 280.03 159.61C280.03 159.61 281.41 158.8 280.03 155.45C276 157.38 269.23 155.45 269.23 155.45Z" fill="#736357"/>
<path d="M269.44 154.94C269.44 154.94 275.9 156.66 280.35 154.94H280.45C281.51 153.82 283.21 152.71 283.84 150.89C284.16 151.19 275.47 154.74 272.61 154.44C270.28 154.14 269.43 154.95 269.43 154.95L269.44 154.94Z" fill="#736357"/>
<path d="M276.65 138.66C275.07 140.42 274.42 143.34 276.5 145.78C277.69 146.79 279.19 147.15 280.48 147.05C281.78 146.93 282.93 146.43 283.95 145.77C281.54 145.23 279.3 145.12 278.37 144C277.21 143.1 277.07 140.96 276.64 138.66H276.65Z" fill="black"/>
<path d="M255.46 114.5C255.46 114.5 252.18 117.04 255.46 115.82C257.26 113.89 266.9 112.17 273.15 111.97C277.28 111.87 282.58 113.9 285.76 115.32C286.08 115.22 286.4 114.91 286.61 114.61C287.03 113.8 286.82 112.68 286.18 111.87L285.55 111.26C282.9 111.06 282.69 110.35 275.17 109.03C264.47 107.1 255.47 114.5 255.47 114.5H255.46Z" fill="black"/>
<path d="M277.92 120.58C278.13 121.19 278.24 121.9 278.24 122.71C278.24 125.14 277.18 127.07 275.8 127.07C274.53 127.07 273.47 125.15 273.47 122.71C273.47 121.19 273.89 119.77 274.63 119.06C269.33 118.35 262.13 119.57 261.39 121.8C260.76 124.13 262.55 128.08 266.47 128.08C270.49 128.18 279.39 128.79 279.5 127.27C279.5 127.27 280.03 122.91 277.91 120.58H277.92Z" fill="#C7B299"/>
<path d="M275.8 127.07C277.18 127.07 278.24 125.15 278.24 122.71C278.24 121.9 278.14 121.19 277.92 120.58C277.18 119.77 276.33 119.26 275.06 119.06H274.64C273.9 119.77 273.48 121.19 273.48 122.71C273.48 125.14 274.54 127.07 275.81 127.07H275.8Z" fill="black"/>
<path d="M239.26 209.47C239.26 209.47 249.53 199.34 253.98 199.13C258.43 198.93 270.4 210.68 270.4 210.68C270.4 210.68 273.15 213.62 275.17 211.19C277.71 207.14 279.19 203.49 279.83 199.94C281.31 191.63 277.71 184.43 270.83 177.54C270.83 177.54 267.23 174.9 265.22 179.16C264.8 179.97 264.37 181.08 264.16 182.5C263.1 188.99 257.38 195.98 253.35 196.39C247.21 197 240.32 193.15 234.18 188.08C229.52 184.23 225.18 179.77 222 176.12C222.32 176.83 222.53 177.54 222.74 178.25C223.69 181.59 223.69 185.55 221.47 188.29C219.67 190.31 216.6 191.53 214.9 193.56C214.48 194.07 214.05 194.68 213.84 195.39C213.73 195.59 213.73 195.69 213.73 195.89C218.5 198.22 228.24 203.69 233.11 211.2C236.39 214.75 239.25 209.48 239.25 209.48L239.26 209.47Z" fill="white"/>
<path d="M221.99 221.13C222.84 223.16 223.79 225.18 224.64 227.52C233.11 232.08 260.65 244.24 286.18 224.48C285.86 222.35 285.55 220.43 285.23 218.5C255.25 233.7 233.22 227.12 221.99 221.14V221.13Z" fill="#EB3000"/>
<path d="M281.37 288.12C283.23 280.43 284.83 272.97 285.74 266.27C285.82 265.65 285.89 265.05 285.97 264.43C286.84 257.53 287.18 251.29 287.26 245.44C287.29 243.63 287.31 241.82 287.26 240.12C287.14 234.46 286.83 229.07 286.18 224.47C260.65 244.24 233.11 232.07 224.64 227.51C225.11 228.64 225.57 230.2 226.04 231.4C227.28 234.63 228.49 237.87 229.72 241.64C230.86 245.1 231.93 249.07 233.03 253.02C233.98 256.44 234.92 259.67 235.82 263.48C237.03 268.57 238.09 274.41 239.17 280.22C239.86 283.9 240.6 287.19 241.23 291.17C242.83 301.36 244.23 312.43 245.3 324.7H269.99C274.08 314.17 277.11 304.48 279.62 295.29C280.29 292.83 280.81 290.5 281.38 288.13L281.37 288.12ZM260.66 287.74C257.7 282.03 244.74 269.01 239.05 266.04C238.56 265.79 238.56 265.08 239.05 264.82C244.74 261.85 257.71 248.83 260.66 243.12C260.91 242.63 261.62 242.63 261.88 243.12C264.83 248.83 277.8 261.85 283.49 264.82C283.98 265.08 283.98 265.78 283.49 266.04C277.8 269.01 264.83 282.03 261.88 287.74C261.63 288.23 260.92 288.23 260.66 287.74Z" fill="#AF7D26"/>
<path d="M239.16 280.22C238.08 274.42 237.01 268.56 235.81 263.48C234.91 259.67 233.97 256.45 233.02 253.02C231.93 249.08 230.84 245.1 229.71 241.64C228.48 237.87 227.28 234.63 226.03 231.4C224.67 227.87 223.31 224.04 221.99 221.12C218.49 213.42 215.21 207.84 212.67 203.89C210.76 206.93 205.78 207.74 202.29 205.92C198.26 203.89 195.93 199.84 193.92 195.99C192.23 192.85 190.43 189.6 188.73 186.36C187.25 183.72 185.55 180.79 182.59 179.97C176.98 178.45 170.94 185.04 165.85 182.4C164.47 181.69 163.52 180.37 162.25 179.56C161.31 179.06 160.38 178.77 159.44 178.76C171.23 189.85 214.18 236.15 222.01 324.68H221.98C221.98 324.68 221.98 324.68 221.98 324.69H221.64C222.7 337 224.12 348.06 225.72 358.28C226.33 362.14 227.05 365.33 227.72 368.91C228.82 374.83 229.91 380.8 231.14 385.98C232.02 389.71 232.95 392.87 233.88 396.23C234.99 400.25 236.09 404.29 237.24 407.8C238.46 411.53 239.64 414.72 240.87 417.91C242.24 421.47 243.62 425.34 244.95 428.27C248.44 435.97 251.73 441.55 254.27 445.5C256.18 442.46 261.15 441.65 264.65 443.47C268.67 445.5 271.01 449.55 273.02 453.4C274.71 456.54 276.52 459.79 278.21 463.03C279.69 465.67 281.39 468.6 284.35 469.42C289.96 470.94 296 464.35 301.09 466.99C302.47 467.7 303.42 469.02 304.69 469.83C305.64 470.34 306.6 470.64 307.55 470.64C295.79 459.59 252.79 413.27 244.95 324.69H245C245 324.69 245 324.69 245 324.68H245.29C244.23 312.4 242.82 301.35 241.22 291.15C240.59 287.17 239.85 283.88 239.16 280.2V280.22Z" fill="#31576C"/>
<path d="M270.85 177.54C277.73 184.43 281.33 191.63 279.85 199.93C281.65 204.19 283.77 210.37 285.25 218.48C285.57 220.2 285.89 221.92 286.1 223.85C286.21 224.05 286.21 224.26 286.21 224.46C286.53 226.29 286.74 228.31 286.84 230.34C287.05 232.17 287.16 234.09 287.26 236.02C287.35 237.28 287.22 238.81 287.26 240.13C287.31 241.84 287.29 243.64 287.26 245.45C287.23 247.41 287.38 249.14 287.26 251.22C287.16 253.76 286.94 256.39 286.63 259.23C286.46 260.9 286.2 262.7 285.98 264.44C285.9 265.06 285.84 265.66 285.75 266.28C285.61 267.33 285.52 268.32 285.36 269.37C284.94 272.41 284.41 275.55 283.67 278.79C283.12 281.73 282.12 285.04 281.38 288.13C280.81 290.5 280.29 292.83 279.62 295.29C279.14 297.04 278.9 298.59 278.37 300.38C277.21 304.23 275.93 308.18 274.56 312.24C273.18 316.3 271.7 320.45 270.01 324.71H293.63C327.95 250.92 306.13 200.55 296.17 183.62C288.33 179.56 279.96 176.73 274.99 175.31C274.09 176.33 273.05 176.88 272.25 177.18C271.44 177.48 270.86 177.54 270.86 177.54H270.85Z" fill="#31576C"/>
<path d="M322.75 288.11C321.06 293.18 318.73 298.04 316.29 302.81C319.58 308.69 323.7 314.16 327.73 319.53C328.68 320.85 329.64 322.07 330.8 323.18C339.91 323.18 351.88 324.7 351.88 324.7H362.47L362.79 308.68C362.79 308.68 362.78 308.66 362.76 308.66V308.7C360.75 307.89 359.05 306.57 358.31 304.55C357.78 303.33 357.78 301.81 358.52 300.7H358.54C359.17 299.79 360.12 299.39 361.27 299.49C361.27 299.49 361.28 299.49 361.29 299.49L361.82 293.1C361.82 293.1 361.81 293.07 361.8 293.06C353.43 272.01 344.02 262.09 344.02 262.09C344.02 262.09 332.58 243.64 329.51 232.49C327.07 222.15 324.43 217.49 319.45 208.26C326.86 234.51 331.63 262.49 322.73 288.13L322.75 288.11Z" fill="#940025"/>
<path d="M104.54 324.7H115.13C126.36 272.4 143.41 235.2 150.93 220.3C147.12 216.04 142.35 212.5 137.48 209.55C127.84 229.31 104.43 281.31 100.41 324.69H104.54V324.7Z" fill="#0B80C1"/>
<path d="M285.22 218.5C283.74 210.39 281.62 204.21 279.82 199.95C279.18 203.5 277.7 207.15 275.16 211.2C273.15 213.63 270.39 210.69 270.39 210.69C270.39 210.69 258.42 198.93 253.97 199.14C249.52 199.34 239.25 209.48 239.25 209.48C239.25 209.48 236.39 214.75 233.11 211.2C228.24 203.7 218.49 198.23 213.73 195.89C213.1 198.12 214.05 200.45 213.41 202.48C213.3 202.99 213.09 203.49 212.67 203.9C215.21 207.85 218.49 213.43 221.99 221.13C233.22 227.11 255.25 233.7 285.23 218.49L285.22 218.5Z" fill="#F1E2C7"/>
<path d="M283.49 266.04C283.98 265.79 283.98 265.08 283.49 264.82C277.8 261.85 264.83 248.83 261.88 243.12C261.63 242.63 260.92 242.63 260.66 243.12C257.7 248.83 244.74 261.85 239.05 264.82C238.56 265.08 238.56 265.78 239.05 266.04C244.74 269.01 257.71 282.03 260.66 287.74C260.91 288.23 261.62 288.23 261.88 287.74C264.83 282.03 277.8 269.01 283.49 266.04Z" fill="#EB3000"/>
<path d="M339.33 126.73C339.18 126.47 338.74 126.46 338.59 126.73C336.76 129.78 328.77 136.71 325.27 138.28C324.97 138.42 324.96 138.8 325.27 138.93C328.73 140.55 336.61 147.6 338.39 150.67C338.55 150.94 338.98 150.94 339.13 150.67C340.96 147.62 348.95 140.69 352.45 139.13C352.75 139 352.76 138.62 352.45 138.48C348.99 136.86 341.11 129.81 339.33 126.74V126.73Z" fill="#EB3000"/>
<path d="M379.6 301.3C377.38 301.81 375.05 301.91 372.82 301.81C371.98 301.81 371.15 301.71 370.41 301.61L370.31 306.36V309.6C374.76 309.09 379 307.57 383.02 305.85C385.35 304.74 387.68 303.62 389.59 302C390.33 301.29 391.07 300.58 391.6 299.67V299.57C392.45 298.35 392.98 297.04 393.08 295.52C393.08 293.8 392.23 291.77 390.43 291.36C389.05 291.06 387.78 291.87 386.83 292.88C386.3 293.39 385.98 294 385.67 294.6C384.82 296.43 384.4 298.65 382.81 299.97H382.79C382.79 299.97 382.79 299.98 382.79 299.99C381.84 300.7 380.67 301.1 379.61 301.31L379.6 301.3Z" fill="white"/>
<path d="M370.41 301.61H370.39L370.71 287.72L370.81 277.99C370.81 277.99 370.82 277.99 370.83 278V277.97L368.92 276.45C368.82 276.25 368.6 276.15 368.5 276.05C368.18 275.75 367.87 275.44 367.55 275.14C367.53 275.12 367.5 275.1 367.48 275.07C367.4 274.99 367.31 274.91 367.23 274.83C367.02 274.63 366.81 274.42 366.6 274.22C365.97 273.51 366.07 272.29 366.49 271.58C366.92 270.77 366.6 270.26 365.75 269.86C365.01 269.36 364.27 268.95 363.53 268.44V268.47L363 296.11L362.89 299.66V303.41L362.79 308.68L362.47 324.7H369.99L370.09 320.85L370.3 309.6V306.36L370.4 301.61H370.41Z" fill="black"/>
<path d="M372.19 278.96C372.02 278.88 371.76 278.75 371.59 278.67C371.76 278.8 372 279 372.17 279.13C375.15 281.37 379.63 283.22 384.23 283.29C384.177 283.25 384.15 283.21 384.15 283.17C379.71 282.5 375.75 280.82 372.18 278.97L372.19 278.96Z" fill="#999999"/>
<path d="M362.87 299.68H362.76C362.34 299.58 361.91 299.48 361.49 299.48H361.28C360.12 299.38 359.19 299.8 358.55 300.69H358.53C357.79 301.81 357.79 303.33 358.32 304.54C359.06 306.57 360.76 307.88 362.77 308.69V308.65L362.88 303.42V299.67L362.87 299.68Z" fill="white"/>
<path d="M393.5 308.89C393.07 307.57 392.65 306.36 392.33 305.04C392.01 303.22 392.01 301.39 391.59 299.67C391.06 300.58 390.32 301.29 389.58 302C387.67 303.62 385.34 304.74 383.01 305.85C378.99 307.57 374.75 309.09 370.3 309.6L370.09 320.85L369.99 324.7H366.6C362.58 368.08 339.16 420.08 329.53 439.84C335.78 443.59 342.14 446.23 346.9 447.95C355.59 435.38 372.85 402.44 375.39 387.34C378.46 368.99 381.96 358.45 381.96 358.45C381.96 358.45 386.94 342.03 386.83 326.12C388.84 325.92 390.54 325.51 391.91 324.7C398.16 321.25 394.98 314.16 393.5 308.89Z" fill="#940025"/>
<path d="M107.59 522.36C114.37 522.41 119.83 527.73 119.78 534.21C119.74 538.77 117.06 542.6 113.23 544.6C113.95 547.24 114.35 550.08 114.33 553.02C114.28 558.49 112.76 563.65 110.18 568.19C130.82 557.5 144.87 536.73 145.07 512.81C145.27 488.89 131.57 468.01 111.21 456.9C113.5 461.28 114.73 466.25 114.69 471.42C114.66 474.86 114.1 478.21 113.02 481.34C116.08 483.49 118.06 487.06 118.03 491.01C117.97 497.5 112.42 502.73 105.54 502.67C104.27 502.67 103 502.45 101.94 502.14L101.76 523.73C103.46 522.83 105.48 522.34 107.6 522.35L107.59 522.36ZM114.5 510.3C117.99 508.73 125.98 501.81 127.82 498.76C127.98 498.5 128.41 498.5 128.56 498.76C130.34 501.84 138.22 508.89 141.68 510.5C141.98 510.64 141.98 511.02 141.68 511.15C138.19 512.72 130.2 519.64 128.36 522.69C128.2 522.95 127.77 522.95 127.62 522.69C125.84 519.61 117.96 512.56 114.5 510.95C114.2 510.81 114.2 510.43 114.5 510.3Z" fill="#BACBE4"/>
<path d="M93.04 501.37C92.51 501.57 91.8698 501.77 91.3398 501.96C87.8698 498.69 83.6498 496.23 79.0098 494.67C79.8298 497.51 80.5502 500.46 80.9502 503.5C81.3502 506.44 81.5398 509.38 81.5098 512.32C81.4898 515.06 81.2602 517.79 80.9102 520.42C80.4602 523.66 79.69 526.9 78.71 529.93V530.03C83.7 528.45 88.1698 525.75 91.7998 522.33C92.1198 522.43 92.43 522.54 92.75 522.74L92.9302 501.76C92.9302 501.66 92.93 501.46 93.04 501.36V501.37Z" fill="#BACBE4"/>
<path d="M94.5298 525.3C94.1098 525.3 93.6801 525.09 93.3701 524.89L93.2598 537.66L87.2202 537.61L91.9502 554.78L96.79 571.95L101.8 554.86L106.92 537.77L100.78 537.72L100.89 525.05C100.68 525.25 100.25 525.35 99.9302 525.35L94.5298 525.31V525.3Z" fill="black"/>
<path d="M98.46 411.68C98.25 411.58 98.1398 411.28 98.0298 410.97C97.1798 407.83 98.9798 404.49 101.53 402.36L101.85 402.06C102.27 401.76 102.59 401.45 103.01 401.15V400.03C102.9 400.23 102.69 400.23 102.59 400.33C102.27 400.43 102.06 400.63 101.74 400.74C99.7302 401.75 97.6102 402.57 95.4902 403.38L93.5801 500.46C93.9001 500.17 94.32 500.07 94.73 500.07H100.14C100.46 500.07 100.88 500.17 101.09 500.37L102.78 410.87C101.83 411.58 100.55 411.98 99.3901 411.98C99.0701 411.98 98.6499 411.88 98.4399 411.68H98.46Z" fill="black"/>
<path d="M93.5898 500.46H93.5801C93.2601 500.66 93.05 500.96 93.04 501.37C92.93 501.47 92.9302 501.67 92.9302 501.77L92.75 522.75V523.56C92.75 524.07 92.9501 524.47 93.3701 524.88C93.6901 525.08 94.1098 525.29 94.5298 525.29L99.9302 525.33C100.25 525.33 100.67 525.23 100.89 525.03C101.42 524.73 101.74 524.23 101.75 523.72L101.93 502.13V501.83C101.93 501.22 101.62 500.71 101.1 500.4C100.89 500.2 100.47 500.09 100.15 500.09L94.7598 500.05H94.75C94.33 500.05 93.9201 500.15 93.6001 500.44L93.5898 500.46Z" fill="#B3B3B3"/>
<path d="M104.18 349.75H104.12L104.01 353.28L103.48 380.95C103.48 380.95 103.45 380.93 103.43 380.92V381.07C103.85 381.37 104.38 381.88 104.38 382.49C104.49 383.2 103.96 383.81 103.53 384.11L103.32 384.31C102.58 384.92 101.94 385.43 101.84 386.14V386.24C102.05 386.34 102.69 386.34 103.32 386.34H103.43C104.06 386.44 105.02 386.44 105.65 387.25C105.97 388.06 105.65 388.37 105.65 388.77L104.38 391.2C105.33 391.4 106.18 391.4 107.14 391.71C108.2 392.22 109.05 393.33 109.05 394.45C108.84 396.98 106.4 398 104.71 399.11C104.71 399.21 104.6 399.31 104.5 399.41C104.39 399.71 104.29 399.92 104.07 400.12C103.75 400.53 103.33 400.83 103.01 401.13C102.59 401.43 102.27 401.74 101.85 402.04L101.53 402.34C98.9896 404.47 97.1896 407.81 98.0296 410.95C98.1396 411.26 98.2398 411.56 98.4598 411.66C98.6698 411.86 99.09 411.96 99.41 411.96C100.57 411.96 101.85 411.55 102.8 410.85C102.9 410.85 102.9 410.75 103.01 410.75C104.6 409.84 105.87 408.52 107.14 407.2C107.24 407.1 107.35 406.9 107.56 406.79C108.62 405.57 109.78 404.46 110.95 403.24C111.37 402.83 111.69 402.43 111.9 401.92C112.22 401.41 112.22 400.8 112.32 400.3C113.06 394.93 113.91 389.46 112.95 384.18C112.63 382.46 112.1 380.74 111.68 379.01C111.04 377.18 110.52 375.26 109.99 373.44C109.67 372.53 109.46 371.61 108.93 370.8C108.3 369.89 107.45 369.08 106.49 368.47C105.86 367.96 105.11 367.46 105.01 366.75C104.91 366.45 105.01 366.14 105.01 365.74C105.54 363.41 105.22 361.18 105.01 358.75L105.12 356.32L105.65 349.93H105.44C105.01 349.93 104.59 349.83 104.17 349.73L104.18 349.75Z" fill="#FFDEB9"/>
<path d="M96.77 378.13C96.56 377.93 96.2398 377.62 96.0298 377.42C92.2198 373.98 86.7101 371.54 81.3101 372.35C81.3767 372.417 81.4102 372.483 81.4102 372.55C86.7102 372.85 91.5798 375.08 96.0298 377.72C96.2398 377.82 96.56 378.02 96.77 378.13Z" fill="#999999"/>
<path d="M99.8398 384.92C98.4598 384.72 97.1898 384.51 95.8198 384.31C90.8398 383.5 85.7599 382.79 80.6699 383.19C80.7799 383.4 80.7798 383.5 80.7798 383.7C85.7598 383.8 90.7398 384.51 95.8198 384.71C97.1998 384.91 98.4698 384.91 99.8398 384.91V384.92Z" fill="#999999"/>
<path d="M95.7002 393.03C97.8202 392.83 99.9398 392.42 101.84 391.61C99.8298 392.02 97.7102 392.22 95.7002 392.42C93.2602 392.52 90.83 392.62 88.29 392.93C85.75 393.34 83.2101 394.15 80.8701 395.26C80.9801 395.46 81.0801 395.67 81.0801 395.87C83.4101 394.86 85.85 394.15 88.5 393.94C90.83 393.53 93.2702 393.33 95.7002 393.03Z" fill="#999999"/>
<path d="M102.59 400.33C102.69 400.23 102.91 400.23 103.01 400.03C103.54 399.83 103.96 399.52 104.49 399.22C104.59 399.22 104.7 399.22 104.7 399.12C105.12 398.82 105.55 398.51 105.97 398.21C107.24 397.2 108.4 395.98 108.4 394.46C108.4 393.55 107.77 392.74 106.81 392.33C105.86 392.13 104.8 392.13 103.74 391.92L103.21 391.82H103.1L103.31 391.41L104.37 389.39C104.58 388.98 104.79 388.17 104.79 387.97V387.77C104.58 387.57 103.94 387.47 103.31 387.36C102.68 387.26 102.04 387.46 101.09 386.95V386.85C100.98 386.65 100.88 386.34 100.77 386.14V386.04C101.09 384.72 102.25 384.21 103 383.61C103.1 383.51 103.21 383.3 103.42 383.2V383.1C103.74 382.8 103.74 382.49 103.42 382.09C103.31 381.89 103.1 381.68 103 381.58C102.36 381.07 101.52 380.57 100.77 380.06C100.45 379.76 100.03 379.55 99.8196 379.05C99.4996 378.54 99.8197 378.04 99.9197 377.63C100.35 376.82 100.56 376.11 100.03 375.4C99.8196 374.99 99.6097 374.69 99.3997 374.28C99.0797 373.98 98.76 373.67 98.45 373.37C98.34 373.27 98.1298 373.17 98.0198 372.96L96.1097 371.44L96.22 361.71L96.5398 347.82C95.7998 347.72 94.9497 347.61 94.1097 347.61C91.8897 347.51 89.5596 347.61 87.3396 348.12C86.2796 348.32 85.11 348.73 84.16 349.44C82.57 350.76 82.1496 352.99 81.2996 354.81C80.9796 355.42 80.6597 356.02 80.1297 356.53C81.3897 357.45 82.2497 358.86 82.6697 360.48C83.1997 362.3 83.0899 364.13 82.5599 365.95C82.3499 365.95 82.0298 366.05 81.7098 366.15C80.4398 366.66 79.38 368.08 79.7 369.39C80.02 370.4 80.9698 371.01 81.2898 372.03C81.2898 372.13 81.3898 372.23 81.2898 372.33C86.6898 371.52 92.1996 373.95 96.0096 377.4C96.2196 377.6 96.5398 377.91 96.7498 378.11C96.5398 378.01 96.2196 377.81 96.0096 377.7C91.5596 375.07 86.6899 372.84 81.3899 372.53C81.7099 374.96 78.11 377.19 78.74 379.73C78.95 380.54 79.5899 381.25 80.1199 381.96C80.3299 382.37 80.5497 382.77 80.6497 383.17C85.7297 382.77 90.8196 383.48 95.7996 384.29C97.1796 384.49 98.4496 384.7 99.8196 384.9C98.4396 384.9 97.1696 384.9 95.7996 384.7C90.7196 384.5 85.7396 383.79 80.7596 383.69C80.7596 383.89 80.6496 384.2 80.5496 384.4C80.3396 384.81 79.9099 385.11 79.5999 385.52C77.5899 387.35 77.2697 390.59 78.8597 392.72C79.4897 393.63 80.3399 394.34 80.8699 395.25C83.1999 394.13 85.7398 393.32 88.2898 392.92C90.8298 392.62 93.27 392.51 95.7 392.41C97.71 392.21 99.8296 392 101.84 391.6C99.9296 392.41 97.81 392.82 95.7 393.02C93.26 393.32 90.8298 393.53 88.4998 393.93C85.8498 394.13 83.4199 394.84 81.0799 395.86L81.1897 395.96C81.3997 396.67 81.2996 397.48 81.2996 398.29C81.1896 400.52 81.7198 402.95 83.5198 404.37C85.8498 406.09 89.24 405.48 91.99 404.67C92.84 404.37 93.6796 404.06 94.5296 403.66C94.8496 403.56 95.1598 403.46 95.4798 403.36C97.5998 402.55 99.7198 401.74 101.73 400.72C102.05 400.62 102.26 400.42 102.58 400.31L102.59 400.33ZM82.7098 366.15C87.3098 366.22 91.7898 368.07 94.7698 370.31C94.9398 370.44 95.1799 370.63 95.3499 370.76C95.1799 370.68 94.9298 370.55 94.7498 370.47C91.1798 368.61 87.2298 366.94 82.7898 366.27C82.7898 366.237 82.7631 366.197 82.7098 366.15Z" fill="#FFDEB9"/>
<path d="M100.47 377.83C100.9 377.12 101 375.91 100.37 375.2C100.16 375 99.94 374.79 99.73 374.59C99.63 374.49 99.5202 374.39 99.4102 374.29C99.6202 374.7 99.83 375 100.04 375.41C100.57 376.12 100.36 376.83 99.9302 377.64C99.8302 378.05 99.5101 378.55 99.8301 379.06C100.04 379.57 100.46 379.77 100.78 380.07C101.52 380.58 102.37 381.08 103.01 381.59C103.11 381.69 103.33 381.89 103.43 382.1C103.75 382.51 103.75 382.81 103.43 383.11V383.21C103.22 383.31 103.11 383.52 103.01 383.62C102.27 384.23 101.1 384.73 100.78 386.05V386.15C100.89 386.35 100.99 386.66 101.1 386.86V386.96C102.05 387.47 102.69 387.26 103.32 387.37C103.96 387.47 104.59 387.57 104.8 387.78V387.98C104.8 388.18 104.59 388.99 104.38 389.4L103.32 391.42L103.11 391.83H103.22L103.75 391.93C104.81 392.13 105.87 392.13 106.82 392.34C107.77 392.75 108.41 393.56 108.41 394.47C108.41 395.99 107.25 397.2 105.98 398.22C105.55 398.52 105.13 398.83 104.71 399.13C106.4 398.01 108.84 397 109.05 394.47C109.05 393.35 108.2 392.24 107.14 391.73C106.19 391.43 105.34 391.43 104.38 391.22L105.65 388.79C105.65 388.38 105.97 388.08 105.65 387.27C105.01 386.46 104.06 386.46 103.43 386.36H103.32C102.69 386.36 102.05 386.36 101.84 386.26V386.16C101.94 385.45 102.58 384.94 103.32 384.33L103.53 384.13C103.95 383.83 104.48 383.22 104.38 382.51C104.38 381.9 103.85 381.39 103.43 381.09V380.99C102.69 380.48 101.95 380.08 101.2 379.57C100.35 379.16 100.04 378.66 100.46 377.85L100.47 377.83Z" fill="#999999"/>
<path d="M260.2 532.9C259.99 533.1 259.67 533.61 259.04 534.22C255.44 538.27 245.69 549.63 244 553.38C241.88 558.04 208.52 564.33 208.52 564.33C208.52 564.33 189.45 568.69 179.18 562.3C171.45 564.23 165.09 571.02 164.56 578.72C164.35 582.67 165.62 586.83 168.69 589.36C171.13 591.49 174.41 592.3 177.69 593.01C203.43 598.58 230.86 600.41 255.97 592.6C263.38 590.37 270.69 587.12 276.1 581.65C278.96 578.81 281.18 575.37 283.3 571.92C288.81 563.3 294.31 554.69 299.72 546.07C301.84 542.73 304.06 538.77 302.69 535.12C301.95 532.99 300.15 531.37 298.35 529.85C296.02 527.82 293.58 525.9 291.25 523.87C289.56 522.45 287.75 521.03 285.53 520.73C282.56 520.22 279.81 521.85 277.27 523.47C277.06 523.67 276.74 523.77 276.53 523.87C271.02 527.22 264.45 527.82 260.43 532.69C260.357 532.757 260.287 532.823 260.22 532.89L260.2 532.9Z" fill="#D03E12"/>
<path d="M208.51 564.33C208.51 564.33 241.88 558.05 243.99 553.38C245.68 549.63 255.43 538.28 259.03 534.22C259.67 533.61 259.98 533.1 260.19 532.9C247.37 543.75 232.33 549.22 218.56 551.85C196.95 556.01 178.95 553.17 178.95 553.17C178.95 553.17 175.77 560.16 178.95 562.19C179.05 562.19 179.05 562.29 179.16 562.29C189.43 568.68 208.5 564.32 208.5 564.32L208.51 564.33Z" fill="#4092C2"/>
<path d="M312.33 469.59C310.79 470.32 309.2 470.77 307.66 470.67H307.55C306.6 470.67 305.64 470.37 304.69 469.86C303.42 469.05 302.47 467.73 301.09 467.02C296.01 464.38 289.97 470.97 284.35 469.45C281.39 468.64 279.69 465.7 278.21 463.06C276.52 459.82 274.71 456.57 273.02 453.43C271.01 449.58 268.68 445.53 264.65 443.5C261.15 441.67 256.18 442.49 254.27 445.53C253.85 445.94 253.64 446.44 253.53 446.95C252.9 448.98 253.85 451.31 253.21 453.54C253.21 453.74 253.21 453.85 253.11 454.05C252.9 454.76 252.47 455.37 252.05 455.88C250.36 457.91 247.28 459.12 245.48 461.15C243.26 463.89 243.26 467.84 244.21 471.19C244.42 471.9 244.63 472.61 244.95 473.32C245.9 475.95 247.07 478.49 247.7 481.22C247.91 482.13 248.02 483.05 248.02 483.96C248.02 486.6 247.17 489.23 245.16 490.85C243.47 492.27 241.13 492.78 238.8 493.28H238.69C236.36 493.69 233.92 494.09 232.02 495.41C229.37 497.33 228.21 500.78 228.21 503.92C228.1 504.33 228.1 504.63 228.1 505.04C228.21 508.59 229.26 512.13 229.26 515.68C229.37 516.89 229.26 518.21 228.73 519.33C228.1 520.75 226.93 521.86 225.77 522.98C218.46 530.58 215.71 541.93 218.57 551.86C232.34 549.23 247.38 543.75 260.2 532.91C260.274 532.843 260.344 532.777 260.41 532.71C264.43 527.85 271 527.24 276.51 523.89C276.83 520.24 279.37 516.6 282.65 514.36C286.25 511.72 290.81 510.41 295.15 509.09C296.63 508.69 298.22 508.18 299.28 507.17C301.4 505.04 300.97 501.6 301.5 498.76C302.24 494.71 305.21 491.26 308.81 489.13C312.41 486.9 316.65 485.89 320.89 485.08C323.22 484.67 325.66 484.37 327.56 482.95C330.21 481.03 330.95 477.58 331.37 474.33C331.9 470.68 331.9 466.22 328.72 464.2C328.4 464 328.08 463.9 327.77 463.79C326.03 463.03 324.08 463.24 322.15 463.92C320.23 464.6 318.33 465.76 316.69 466.92C315.35 467.89 313.86 468.88 312.31 469.6L312.33 469.59Z" fill="black"/>
<path d="M218.58 551.86C215.72 541.93 218.47 530.58 225.78 522.98C226.94 521.86 228.11 520.75 228.74 519.33C229.27 518.21 229.38 516.9 229.27 515.68C229.27 512.13 228.21 508.59 228.11 505.04C228.11 504.63 228.11 504.33 228.22 503.92C228.22 500.78 229.38 497.33 232.03 495.41C233.94 494.09 236.37 493.69 238.7 493.28H238.81C241.14 492.77 243.47 492.27 245.17 490.85C247.18 489.23 248.03 486.59 248.03 483.96C248.03 483.05 247.92 482.13 247.71 481.22C247.08 478.49 245.91 475.95 244.96 473.32C241.78 469.67 237.44 465.21 232.78 461.36C226.64 456.29 219.75 452.44 213.61 453.05C209.59 453.45 203.87 460.45 202.81 466.94C202.6 468.36 202.18 469.47 201.75 470.28C199.74 474.54 196.14 471.9 196.14 471.9C196.14 471.9 193.81 472.1 192.01 474.13C190.53 475.75 189.25 478.69 190 483.86C190.32 486.5 188.41 488.63 187.46 489.43C187.46 489.43 194.13 486.49 197.73 493.99C197.73 493.99 190.95 492.06 186.93 493.99C186.82 494.19 186.72 494.29 186.61 494.5C191.06 492.78 197.52 494.5 197.52 494.5C197.52 494.5 196.67 495.31 194.34 495.01C191.48 494.71 182.8 498.25 183.11 498.56V498.66C183.11 498.86 183.01 499.17 183.01 499.47C184.92 498.46 188.41 496.73 190.42 496.12C201.75 493.69 204.19 498.25 204.51 499.16C204.09 498.96 200.49 496.63 194.66 500.17C190.11 502.8 185.55 501.69 183.22 500.88C183.33 501.29 183.43 501.69 183.64 502.1C183.54 502.81 183.32 503.21 183.01 503.62C182.06 505.04 180.25 504.63 180.25 504.63C180.25 504.63 174.95 501.39 174.95 509.5C174.95 517.61 179.61 528.25 179.61 528.25C179.61 528.25 179.5 530.28 178.45 532.91H178.34C178.24 533.42 177.92 533.92 177.6 534.53C177.5 535.44 177.5 536.56 177.5 537.87C177.6 544.16 178.98 553.18 178.98 553.18C178.98 553.18 196.99 556.02 218.59 551.86H218.58ZM202.56 473.34C206.91 471.91 211.52 471.83 216.08 472.32C220.43 473.04 225.62 474.66 227.71 478.83C225.95 477.43 223.94 476.69 221.94 476.07C219.92 475.48 217.84 475.01 215.69 474.82C211.43 474.08 207.07 473.99 202.56 473.34ZM200.47 521.35C204.39 521.35 206.19 525.3 205.55 527.63C204.81 529.86 197.61 531.07 192.31 530.37H191.89C190.62 530.17 189.77 529.66 189.03 528.85C186.91 526.52 187.44 522.16 187.44 522.16C187.54 520.64 196.44 521.25 200.47 521.35ZM186.47 502.38C187.76 502.28 189.27 502.65 190.45 503.65C192.53 506.08 191.88 509 190.3 510.77C189.87 508.47 189.73 506.33 188.57 505.43C187.64 504.31 185.41 504.2 182.99 503.66C184.01 503 185.16 502.5 186.46 502.38H186.47ZM180.77 537.57C180.14 536.76 179.92 535.64 180.35 534.83C180.56 534.53 180.88 534.22 181.2 534.12C184.38 535.54 189.67 537.57 193.81 537.47C200.06 537.27 209.7 535.54 211.5 533.62C214.79 532.4 211.5 534.94 211.5 534.94C211.5 534.94 202.5 542.34 191.8 540.41C184.28 539.09 184.07 538.38 181.42 538.18C181.21 537.97 181 537.77 180.79 537.57H180.77Z" fill="#FFDEB9"/>
<path d="M221.94 476.07C223.94 476.69 225.95 477.42 227.71 478.83C225.62 474.66 220.43 473.04 216.08 472.32C211.52 471.83 206.91 471.91 202.56 473.34C207.07 473.99 211.43 474.08 215.69 474.82C217.84 475.01 219.93 475.49 221.94 476.07Z" fill="black"/>
<path d="M194.64 500.17C200.47 496.62 204.07 498.95 204.49 499.16C204.17 498.25 201.73 493.69 190.4 496.12C188.39 496.73 184.89 498.45 182.99 499.47C182.99 499.88 182.99 500.28 183.2 500.79V500.89C185.53 501.7 190.09 502.81 194.64 500.18V500.17Z" fill="black"/>
<path d="M197.71 493.98C194.11 486.48 187.44 489.42 187.44 489.42C187.12 489.72 186.91 489.83 186.91 489.83C186.91 489.83 185.53 490.64 186.91 493.99C190.93 492.06 197.71 493.99 197.71 493.99V493.98Z" fill="#736357"/>
<path d="M197.5 494.49C197.5 494.49 191.04 492.77 186.59 494.49H186.48C185.42 495.61 183.73 496.72 183.09 498.54C182.77 498.24 191.46 494.69 194.32 494.99C196.65 495.29 197.5 494.48 197.5 494.48V494.49Z" fill="#736357"/>
<path d="M190.29 510.77C191.87 509.01 192.52 506.09 190.44 503.65C189.25 502.64 187.75 502.28 186.46 502.38C185.16 502.5 184.01 503 182.99 503.66C185.4 504.2 187.64 504.32 188.57 505.43C189.73 506.33 189.87 508.47 190.3 510.77H190.29Z" fill="black"/>
<path d="M211.48 534.93C211.48 534.93 214.77 532.4 211.48 533.61C209.68 535.54 200.04 537.26 193.79 537.46C189.66 537.56 184.36 535.53 181.18 534.11C180.86 534.21 180.55 534.52 180.33 534.82C179.91 535.63 180.12 536.75 180.75 537.56C180.96 537.76 181.17 537.96 181.38 538.17C184.03 538.37 184.24 539.08 191.76 540.4C202.46 542.33 211.46 534.93 211.46 534.93H211.48Z" fill="black"/>
<path d="M189.02 528.85C188.81 528.24 188.7 527.53 188.7 526.72C188.7 524.29 189.76 522.36 191.14 522.36C192.41 522.36 193.47 524.28 193.47 526.72C193.47 528.24 193.04 529.66 192.3 530.37C197.6 531.08 204.8 529.86 205.54 527.63C206.18 525.3 204.38 521.35 200.46 521.35C196.43 521.25 187.54 520.64 187.43 522.16C187.43 522.16 186.9 526.52 189.02 528.85Z" fill="#C7B299"/>
<path d="M191.14 522.36C189.76 522.36 188.7 524.28 188.7 526.72C188.7 527.53 188.81 528.24 189.02 528.85C189.76 529.66 190.61 530.17 191.88 530.37H192.3C193.04 529.66 193.47 528.24 193.47 526.72C193.47 524.29 192.41 522.36 191.14 522.36Z" fill="black"/>
<path d="M227.69 439.96C227.69 439.96 217.42 450.09 212.97 450.3C208.52 450.5 196.55 438.75 196.55 438.75C196.55 438.75 193.79 435.81 191.78 438.24C189.24 442.29 187.76 445.94 187.12 449.49C185.64 457.8 189.24 465 196.12 471.89C196.12 471.89 199.72 474.52 201.73 470.27C202.16 469.46 202.58 468.34 202.79 466.93C203.85 460.44 209.57 453.45 213.59 453.04C219.73 452.43 226.62 456.28 232.76 461.35C237.42 465.2 241.76 469.66 244.94 473.31C244.62 472.6 244.41 471.89 244.2 471.18C243.25 467.84 243.25 463.88 245.47 461.14C247.27 459.11 250.34 457.9 252.04 455.87C252.46 455.36 252.89 454.75 253.1 454.04C253.2 453.84 253.2 453.74 253.2 453.53C248.43 451.2 238.69 445.73 233.82 438.23C230.53 434.68 227.68 439.95 227.68 439.95L227.69 439.96Z" fill="white"/>
<path d="M244.95 428.3C244.1 426.27 243.15 424.25 242.3 421.91C233.86 417.36 206.48 405.3 181.02 424.79C181.3 426.74 181.37 429.17 181.72 430.93C211.7 415.73 233.73 422.31 244.96 428.29L244.95 428.3Z" fill="#EB3000"/>
<path d="M242.3 421.92C241.82 420.76 241.35 419.18 240.87 417.95C239.64 414.75 238.46 411.56 237.24 407.84C236.08 404.32 235 400.29 233.88 396.27C232.95 392.91 232.02 389.75 231.14 386.02C229.91 380.83 228.82 374.89 227.72 368.95C227.06 365.37 226.33 362.18 225.72 358.32C224.12 348.1 222.71 337.03 221.64 324.73H196.96C192.27 336.81 188.82 347.91 186.18 358.23C185.3 361.68 184.94 364.59 184.25 367.85C182.89 374.35 181.52 380.84 180.85 386.59C180.44 390.04 180.39 393.03 180.2 396.21C179.91 400.92 179.6 405.66 179.7 409.79C179.78 413.01 180.05 415.87 180.32 418.74C180.51 420.85 180.73 422.87 181.01 424.8C206.47 405.31 233.85 417.37 242.29 421.92H242.3ZM205.06 406.31C202.1 400.6 189.14 387.58 183.45 384.61C182.96 384.36 182.96 383.65 183.45 383.39C189.14 380.42 202.1 367.4 205.06 361.69C205.31 361.2 206.02 361.2 206.27 361.69C209.23 367.4 222.2 380.42 227.89 383.39C228.38 383.64 228.38 384.35 227.89 384.61C222.2 387.58 209.23 400.6 206.27 406.31C206.02 406.8 205.31 406.8 205.06 406.31Z" fill="#AF7D26"/>
<path d="M187.12 449.49C185.32 445.23 183.2 439.05 181.72 430.94C181.38 429.18 181.3 426.75 181.02 424.8C180.74 422.87 180.52 420.85 180.33 418.74C180.06 415.83 179.79 413.06 179.71 409.79C179.61 405.66 179.92 400.92 180.21 396.21C180.41 393.01 180.46 390.07 180.86 386.59C181.53 380.85 182.9 374.35 184.26 367.85C184.95 364.58 185.3 361.68 186.19 358.23C188.83 347.9 192.27 336.81 196.97 324.73H173.35C139.03 398.52 160.85 448.89 170.81 465.82C178.65 469.87 187.02 472.71 192 474.13C193.8 472.1 196.13 471.9 196.13 471.9C189.24 465.01 185.64 457.81 187.13 449.5L187.12 449.49Z" fill="#31576C"/>
<path d="M173.35 324.72L173.27 324.71H222.01C214.18 236.18 171.22 189.87 159.44 178.79C159.44 178.79 159.42 178.77 159.41 178.76H159.31C156.24 178.55 152.95 180.58 150.31 182.51C147.02 184.84 142.68 187.17 139.19 185.65C139.19 185.65 139.18 185.65 139.17 185.66C134.19 189.5 127.22 194.67 124.26 196.49C123.41 197 121.93 198.72 120.13 201.46C124.9 203.18 131.25 205.82 137.5 209.57C142.37 212.51 147.14 216.06 150.95 220.32C143.43 235.22 126.38 272.42 115.15 324.72C115.15 324.72 126.7 326.14 136.02 326.04C140.26 326.04 143.86 325.64 145.87 324.72C152.33 321.88 151.59 314.99 152.12 309.92C153.5 306.07 154.77 302.12 155.94 297.96C157.63 299.78 158.59 302.01 158.69 304.34C158.8 305.35 158.8 306.37 159.01 307.28C159.64 309.31 161.55 310.63 162.82 312.25C164.94 315.29 164.94 319.55 167.59 322.29C168.44 323.2 169.5 323.81 170.66 324.32C170.67 324.32 170.69 324.33 170.7 324.34C168.27 324.03 164.79 323.78 162.66 324.74C159.24 326.28 158.32 332.54 156.2 336.5C154.3 339.83 152.51 343.16 150.72 346.59C150.72 346.6 150.74 346.61 150.74 346.62C148.3 351.38 145.97 356.25 144.28 361.32C135.38 386.96 140.15 414.94 147.56 441.19C147.52 441.11 147.5 441.07 147.46 441C147.48 441.07 147.49 441.14 147.51 441.2C148.99 443.84 150.58 446.88 152.49 450.42C155.78 456.7 163.08 461.87 170.81 465.83C160.85 448.9 139.03 398.53 173.35 324.74V324.72Z" fill="#680501"/>
<path d="M144.27 361.29C145.96 356.22 148.29 351.36 150.73 346.59C150.73 346.58 150.71 346.57 150.71 346.56C147.43 340.69 143.31 335.23 139.29 329.87C138.23 328.55 137.28 327.23 136.01 326.02C126.69 326.12 115.14 324.7 115.14 324.7H104.55L104.23 340.71C106.24 341.52 107.94 342.84 108.68 344.87C109.21 346.09 109.21 347.6 108.47 348.72C107.83 349.63 106.88 350.04 105.71 349.94L105.18 356.33C113.55 377.41 122.98 387.35 122.98 387.35C122.98 387.35 134.42 405.8 137.49 416.95C139.91 427.2 142.56 431.9 147.46 440.98C147.5 441.05 147.52 441.09 147.56 441.17C140.15 414.92 135.38 386.94 144.28 361.3L144.27 361.29Z" fill="#940025"/>
<path d="M316.07 429.1C323.59 414.2 340.64 377 351.87 324.7C351.87 324.7 339.9 323.18 330.79 323.18C326.24 323.18 322.42 323.59 321.15 324.7C317.23 328.14 315.43 334.43 314.9 339.5C313.52 343.35 312.25 347.3 311.08 351.46C309.39 349.63 308.43 347.4 308.33 345.07C308.22 344.06 308.22 343.04 308.01 342.13C307.38 340.1 305.47 338.79 304.2 337.16C302.08 334.12 302.08 329.86 299.43 327.12C298.9 326.61 298.27 326.11 297.63 325.7C299.64 325.9 302.08 325.8 304.3 324.69C309.17 322.26 308.64 316.89 310.76 312.93C312.67 309.59 314.47 306.24 316.27 302.8C318.71 298.03 321.04 293.17 322.73 288.1C331.63 262.46 326.86 234.48 319.45 208.23C317.97 205.6 316.38 202.55 314.47 199.01C311.19 192.73 303.88 187.55 296.15 183.6C306.11 200.52 327.93 250.9 293.61 324.69H244.99C244.99 324.69 244.99 324.69 244.99 324.7C252.83 413.27 295.83 459.59 307.59 470.64H307.7C309.22 470.74 310.8 470.28 312.32 469.57C313.87 468.85 315.36 467.86 316.7 466.89C318.33 465.73 320.23 464.58 322.16 463.89C324.1 463.2 326.07 462.98 327.82 463.75C332.8 459.9 339.79 454.73 342.76 452.9C343.61 452.4 345.09 450.67 346.89 447.93C342.12 446.21 335.77 443.57 329.52 439.82C324.65 436.88 319.88 433.33 316.07 429.08V429.1Z" fill="#680501"/>
<path d="M351.88 324.7C340.65 377 323.6 414.2 316.08 429.1C319.89 433.36 324.66 436.9 329.53 439.84C339.17 420.08 362.58 368.08 366.6 324.7H351.88Z" fill="#0B80C1"/>
<path d="M181.71 430.94C183.19 439.05 185.31 445.23 187.11 449.49C187.74 445.94 189.23 442.29 191.77 438.24C193.78 435.81 196.54 438.75 196.54 438.75C196.54 438.75 208.51 450.51 212.96 450.3C217.41 450.1 227.68 439.96 227.68 439.96C227.68 439.96 230.54 434.69 233.82 438.24C238.69 445.74 248.44 451.21 253.2 453.54C253.84 451.31 252.88 448.98 253.52 446.95C253.63 446.44 253.84 445.94 254.26 445.53C251.72 441.58 248.43 436 244.94 428.3C233.71 422.32 211.68 415.73 181.7 430.94H181.71Z" fill="#F1E2C7"/>
<path d="M227.89 384.61C228.38 384.36 228.38 383.65 227.89 383.39C222.2 380.42 209.23 367.4 206.27 361.69C206.02 361.2 205.31 361.2 205.06 361.69C202.1 367.4 189.14 380.42 183.45 383.39C182.96 383.64 182.96 384.35 183.45 384.61C189.14 387.58 202.1 400.6 205.06 406.31C205.31 406.8 206.02 406.8 206.27 406.31C209.23 400.6 222.2 387.58 227.89 384.61Z" fill="#EB3000"/>
<path d="M127.62 522.7C127.77 522.96 128.21 522.97 128.36 522.7C130.19 519.65 138.18 512.72 141.68 511.16C141.98 511.02 141.98 510.64 141.68 510.51C138.21 508.89 130.34 501.84 128.56 498.77C128.41 498.5 127.97 498.5 127.82 498.77C125.99 501.82 118 508.75 114.5 510.31C114.2 510.44 114.2 510.82 114.5 510.96C117.97 512.58 125.84 519.63 127.62 522.7Z" fill="#EB3000"/>
<path d="M81.2998 354.82C82.1498 352.99 82.5702 350.76 84.1602 349.45C85.1102 348.74 86.2798 348.33 87.3398 348.13C87.3398 348.13 87.3699 348.12 87.3799 348.11C89.6099 347.6 91.9302 347.5 94.1602 347.6C95.0102 347.6 95.8501 347.7 96.6001 347.8L96.71 343.04V339.8C92.26 340.31 88.02 341.83 84 343.55C81.67 344.67 79.3402 345.78 77.4302 347.4C76.6902 348.11 75.9499 348.82 75.4199 349.73V349.83C74.5699 351.05 74.0399 352.36 73.9399 353.88C73.9399 355.6 74.7898 357.63 76.5898 358.04C77.9498 358.34 79.1901 357.54 80.1401 356.54C80.6701 356.03 80.9901 355.42 81.3101 354.82H81.2998Z" fill="white"/>
<path d="M100.41 324.7H97.02L96.9199 328.55L96.71 339.8V343.04L96.6001 347.8L96.2798 361.69L96.1802 371.42L98.0898 372.94C98.1898 373.14 98.4098 373.24 98.5098 373.35L100.42 375.18C101.06 375.89 100.95 377.1 100.53 377.81C100.11 378.62 100.42 379.13 101.27 379.53C101.99 380.03 102.72 380.43 103.45 380.92C103.47 380.93 103.48 380.94 103.5 380.95L104.03 353.28L104.14 349.75H104.09V346L104.2 340.73C104.2 340.73 104.23 340.76 104.25 340.77V340.71L104.57 324.7H100.44H100.41Z" fill="black"/>
<path d="M94.75 370.47C94.92 370.55 95.1801 370.68 95.3501 370.76C95.1901 370.63 94.94 370.44 94.77 370.31C91.79 368.07 87.32 366.22 82.71 366.15C82.7633 366.197 82.79 366.237 82.79 366.27C87.23 366.94 91.18 368.62 94.75 370.47Z" fill="#999999"/>
<path d="M104.07 346V349.75H104.18C104.6 349.85 105.03 349.95 105.45 349.95H105.66C106.82 350.05 107.78 349.65 108.41 348.74C109.15 347.62 109.15 346.1 108.62 344.89C107.89 342.88 106.2 341.59 104.22 340.78C104.2 340.78 104.19 340.75 104.17 340.74L104.06 346.01L104.07 346Z" fill="white"/>
<path d="M83.9903 343.55C88.0103 341.83 92.2503 340.31 96.7003 339.8L96.9102 328.55L97.0099 324.7H100.4C104.43 281.32 127.84 229.32 137.47 209.56C131.22 205.81 124.86 203.17 120.1 201.45C111.41 214.02 94.15 246.96 91.61 262.06C88.54 280.4 85.0401 290.95 85.0401 290.95C85.0401 290.95 80.06 307.47 80.17 323.38C78.05 323.58 76.2499 323.99 75.0899 324.7C70.0099 327.84 72.0201 335.24 73.5001 340.51C73.9301 341.83 74.35 343.04 74.67 344.36C74.99 346.19 74.9902 348.01 75.4102 349.73C75.9402 348.82 76.68 348.11 77.42 347.4C79.33 345.78 81.6603 344.67 83.9903 343.55Z" fill="#940025"/>
<path d="M158.01 99.0201C147.91 93.7701 124.9 70.7601 119.66 60.6701C119.21 59.8001 117.96 59.8001 117.5 60.6701C112.25 70.7701 89.2401 93.7801 79.1501 99.0201C78.2801 99.4701 78.2801 100.72 79.1501 101.18C89.2501 106.43 112.26 129.44 117.5 139.53C117.95 140.4 119.2 140.4 119.66 139.53C124.91 129.43 147.91 106.42 158.01 101.18C158.88 100.73 158.88 99.4801 158.01 99.0201Z" fill="#EB3000"/>
<path d="M389.86 547.34C379.76 542.09 356.75 519.08 351.51 508.99C351.06 508.12 349.81 508.12 349.35 508.99C344.1 519.09 321.09 542.1 311 547.34C310.13 547.79 310.13 549.04 311 549.5C321.1 554.75 344.11 577.76 349.35 587.85C349.8 588.72 351.05 588.72 351.51 587.85C356.76 577.75 379.76 554.74 389.86 549.5C390.73 549.05 390.73 547.8 389.86 547.34Z" fill="#EB3000"/>
<defs>
<linearGradient id="paint0_linear_145_2101" x1="380.98" y1="-103.79" x2="110.49" y2="690.08" gradientUnits="userSpaceOnUse">
<stop stop-color="#E1E1E1"/>
<stop offset="0.12" stop-color="#ECECEC"/>
<stop offset="0.32" stop-color="#FAFAFA"/>
<stop offset="0.49" stop-color="white"/>
<stop offset="0.7" stop-color="#FBFBFB"/>
<stop offset="0.85" stop-color="#F2F2F2"/>
<stop offset="0.99" stop-color="#E2E2E2"/>
<stop offset="1" stop-color="#E1E1E1"/>
</linearGradient>
</defs>
</svg>
