<svg width="469" height="649" viewBox="0 0 469 649" fill="none" xmlns="http://www.w3.org/2000/svg">
<path d="M439.28 0.0200195H29.3999C13.3299 0.0200195 0.299805 12.08 0.299805 26.95V621.79C0.299805 636.66 13.3299 648.72 29.3999 648.72H439.28C455.35 648.72 468.38 636.66 468.38 621.79V26.95C468.38 12.08 455.35 0.0200195 439.28 0.0200195Z" fill="url(#paint0_linear_145_2982)"/>
<path d="M79.7001 130.05C73.6801 126.92 59.9497 113.19 56.8197 107.17C56.5497 106.65 55.7996 106.65 55.5296 107.17C52.3996 113.19 38.6698 126.92 32.6498 130.05C32.1298 130.32 32.1298 131.07 32.6498 131.34C38.6698 134.47 52.3996 148.2 55.5296 154.22C55.7996 154.74 56.5497 154.74 56.8197 154.22C59.9497 148.2 73.6801 134.47 79.7001 131.34C80.2201 131.07 80.2201 130.32 79.7001 130.05Z" fill="#EB3000"/>
<path d="M388.73 518C394.75 521.13 408.48 534.86 411.61 540.88C411.88 541.4 412.63 541.4 412.9 540.88C416.03 534.86 429.76 521.13 435.78 518C436.3 517.73 436.3 516.98 435.78 516.71C429.76 513.58 416.03 499.85 412.9 493.83C412.63 493.31 411.88 493.31 411.61 493.83C408.48 499.85 394.75 513.58 388.73 516.71C388.21 516.98 388.21 517.73 388.73 518Z" fill="#EB3000"/>
<path d="M85.27 97.1201C85.21 100.05 84.8 102.13 84.04 103.31C82.59 105.59 80.6401 105.24 79.1401 103.36C78.5101 102.58 77.4902 100.59 76.1602 95.5601C75.6302 93.6301 75.16 92.0701 74.71 90.8501C79.48 86.7601 83.0498 82.2201 85.3198 77.3301C87.6898 72.2501 88.8901 66.4001 88.8901 59.9201C88.8901 52.8301 87.3598 46.3301 84.3398 40.6001C81.3098 34.8501 77.2202 30.3601 72.1802 27.2801C67.1302 24.1901 61.4801 22.6201 55.3701 22.6201C46.2501 22.6201 38.4999 26.0201 32.3599 32.7101C25.6399 40.0401 22.23 49.0001 22.23 59.3401C22.23 66.6101 23.73 73.2301 26.71 79.0301C29.69 84.8501 33.7899 89.3801 38.8799 92.5001C43.9799 95.6201 49.6101 97.2001 55.6201 97.2001C57.1401 97.2001 58.7502 97.0901 60.4302 96.8601C61.7402 96.6801 63.1 96.4401 64.5 96.1201C65.22 103.11 66.5699 107.8 68.6299 110.43C70.8499 113.27 73.7801 114.71 77.3301 114.71C81.1201 114.71 84.2401 113.23 86.6001 110.31C88.9101 107.46 90.0999 103.03 90.1299 97.1401V96.1301H85.3101L85.29 97.1201H85.27ZM60.3799 91.1201C56.8499 92.1201 52.5599 92.0401 48.8999 90.5001C46.8499 88.1101 45.8101 85.5601 45.8101 82.9301C45.8101 80.3001 46.6401 78.0301 48.3501 76.3301C50.0601 74.6201 52.1999 73.7901 54.8999 73.7901C58.2399 73.7901 60.6598 75.2301 62.2798 78.1801C63.5598 80.4801 64.2599 84.2701 64.3599 89.4401C63.0999 90.1601 61.7699 90.7201 60.3799 91.1201ZM71.2998 81.4901C69.6598 77.3601 67.93 74.4201 66.04 72.5401C63.09 69.6301 59.39 68.1601 55.04 68.1601C50.69 68.1601 47.1802 69.5201 44.4902 72.2201C41.9502 74.7801 40.6 78.0201 40.46 81.8901C39.28 79.4201 38.3399 76.8501 37.6699 74.2101C36.6599 70.2601 36.1401 65.4401 36.1401 59.8901C36.1401 52.0301 37.0002 45.7501 38.7002 41.2201C40.3702 36.7601 42.6899 33.4601 45.6099 31.3801C48.5199 29.3101 51.8598 28.2701 55.5298 28.2701C59.1998 28.2701 62.6601 29.3201 65.6201 31.3901C68.5801 33.4601 70.9201 36.7401 72.5601 41.1301C74.2401 45.6001 75.0898 51.8001 75.0898 59.5701C75.0898 65.1001 74.7002 69.7601 73.9302 73.4101C73.3302 76.2601 72.4498 78.9701 71.2998 81.5101V81.4901Z" fill="#EB3000"/>
<path d="M383.16 551.21C383.22 548.28 383.63 546.2 384.39 545.02C385.84 542.74 387.79 543.09 389.29 544.97C389.92 545.75 390.94 547.74 392.27 552.77C392.8 554.7 393.27 556.26 393.72 557.48C388.95 561.57 385.38 566.11 383.11 571C380.74 576.08 379.54 581.93 379.54 588.41C379.54 595.5 381.07 602 384.09 607.73C387.12 613.48 391.21 617.97 396.25 621.05C401.3 624.14 406.95 625.71 413.06 625.71C422.18 625.71 429.93 622.31 436.07 615.62C442.79 608.29 446.2 599.33 446.2 588.99C446.2 581.72 444.7 575.1 441.72 569.3C438.74 563.48 434.64 558.95 429.55 555.83C424.45 552.71 418.82 551.13 412.81 551.13C411.29 551.13 409.68 551.24 408 551.47C406.69 551.65 405.33 551.89 403.93 552.21C403.21 545.22 401.86 540.53 399.8 537.9C397.58 535.06 394.65 533.62 391.1 533.62C387.31 533.62 384.19 535.1 381.83 538.02C379.52 540.87 378.33 545.3 378.3 551.19V552.2H383.12L383.14 551.21H383.16ZM408.05 557.21C411.58 556.21 415.87 556.29 419.53 557.83C421.58 560.22 422.62 562.77 422.62 565.4C422.62 568.03 421.79 570.3 420.08 572C418.37 573.71 416.23 574.54 413.53 574.54C410.19 574.54 407.77 573.1 406.15 570.15C404.87 567.85 404.17 564.06 404.07 558.89C405.33 558.17 406.66 557.61 408.05 557.21ZM397.13 566.84C398.77 570.97 400.5 573.91 402.39 575.79C405.34 578.7 409.04 580.17 413.39 580.17C417.74 580.17 421.25 578.81 423.94 576.11C426.48 573.55 427.83 570.31 427.97 566.44C429.15 568.91 430.09 571.48 430.76 574.12C431.77 578.07 432.29 582.89 432.29 588.44C432.29 596.3 431.43 602.58 429.73 607.11C428.06 611.57 425.74 614.87 422.82 616.95C419.91 619.02 416.57 620.06 412.9 620.06C409.23 620.06 405.77 619.01 402.81 616.94C399.85 614.87 397.51 611.59 395.87 607.2C394.19 602.73 393.34 596.53 393.34 588.76C393.34 583.23 393.73 578.57 394.5 574.92C395.1 572.07 395.98 569.36 397.13 566.82V566.84Z" fill="#EB3000"/>
<path d="M181.09 98.1002C170.99 92.8502 147.98 69.8402 142.74 59.7502C142.29 58.8802 141.04 58.8802 140.58 59.7502C135.33 69.8502 112.32 92.8602 102.23 98.1002C101.36 98.5502 101.36 99.8002 102.23 100.26C112.33 105.51 135.34 128.52 140.58 138.61C141.03 139.48 142.28 139.48 142.74 138.61C147.99 128.51 170.99 105.5 181.09 100.26C181.96 99.8102 181.96 98.5602 181.09 98.1002Z" fill="#EB3000"/>
<path d="M364.53 548.11C354.43 542.86 331.42 519.85 326.18 509.76C325.73 508.89 324.48 508.89 324.02 509.76C318.77 519.86 295.76 542.87 285.67 548.11C284.8 548.56 284.8 549.81 285.67 550.27C295.77 555.52 318.78 578.53 324.02 588.62C324.47 589.49 325.72 589.49 326.18 588.62C331.43 578.52 354.43 555.51 364.53 550.27C365.4 549.82 365.4 548.57 364.53 548.11Z" fill="#EB3000"/>
<path d="M218.32 87.4302C219.22 87.8302 219.58 88.6302 220.12 89.4302C221.38 91.2202 223.36 92.6202 225.33 93.2202C226.59 93.4202 228.03 93.6202 229.29 94.2202C231.45 95.6202 231.99 98.6102 231.99 101.4C231.99 104.19 231.63 106.99 232.35 109.58C233.79 113.77 238.47 115.96 240.26 120.15C243.68 127.33 237.38 136.7 240.62 143.88C242.42 148.07 246.91 150.66 247.45 155.25C247.81 156.85 247.45 158.64 247.63 160.43C248.17 166.81 254.82 171.2 254.46 177.58C254.28 180.97 251.76 184.96 253.74 187.75C255.72 187.95 257.88 187.55 259.68 186.55C259.86 186.55 260.04 186.35 260.22 186.15C260.58 186.15 260.58 185.75 260.76 185.55C260.94 185.35 260.76 184.95 260.76 184.75V183.95C258.42 164.81 256.08 145.66 253.57 126.52C252.67 119.34 251.77 112.16 250.51 105.18C248.17 91.6202 244.39 78.0602 237.2 66.6902C236.66 65.8902 236.12 64.8902 235.22 64.3002C234.5 63.9002 233.6 63.7002 232.7 63.7002C231.8 63.7002 230.72 63.7002 229.82 63.9002C224.61 64.3002 219.57 67.0902 216.51 71.8802C215.07 73.8802 212.19 79.8602 212.91 83.6502V83.8502C212.91 85.6502 213.81 86.8402 215.97 87.2402C216.87 87.4402 217.59 87.0402 218.31 87.4402L218.32 87.4302Z" fill="#933524"/>
<path d="M225.69 167.39C226.77 167.19 227.85 166.99 228.93 167.59C230.73 168.79 230.73 171.58 230.55 173.97C230.01 179.55 229.47 187.13 228.75 192.91C229.11 193.11 229.47 193.51 229.83 193.51C234.51 196.7 240.44 196.5 245.84 196.1C250.88 195.5 255.91 195.1 260.77 193.91C261.31 193.71 262.03 193.51 262.57 193.31V193.11C262.57 191.51 260.77 184.73 260.77 184.73C260.77 184.93 260.95 185.33 260.77 185.53C260.59 185.73 260.59 186.13 260.23 186.13C260.05 186.33 259.87 186.53 259.69 186.53C257.89 187.53 255.73 187.93 253.75 187.73C251.77 184.94 254.29 180.95 254.47 177.56C254.83 171.18 248.17 166.79 247.64 160.41C247.46 158.62 247.82 156.82 247.46 155.23C246.92 150.64 242.42 148.05 240.63 143.86C237.39 136.68 243.69 127.31 240.27 120.13C238.47 115.94 233.8 113.75 232.36 109.56C231.64 106.97 232 104.17 232 101.38C232 98.5898 231.46 95.5998 229.3 94.1998C228.04 93.5998 226.6 93.3998 225.34 93.1998C223.36 92.5998 221.39 91.2098 220.13 89.4098C219.59 88.6098 219.23 87.8098 218.33 87.4098C217.61 87.0098 216.89 87.4098 215.99 87.2098C213.83 86.8098 212.93 85.6098 212.93 83.8198C205.92 96.9798 208.61 115.13 201.24 128.29C200.34 130.28 199.08 132.08 198.72 134.27C198.54 136.26 199.62 138.86 201.6 139.05C201.96 139.05 202.14 139.05 202.5 139.25H202.68C204.12 139.25 210.95 139.25 211.13 134.27C210.95 140.05 206.45 140.65 203.93 140.65C204.11 141.05 204.29 141.85 204.29 142.44V144.44C204.83 144.04 205.73 143.64 206.99 144.24C209.15 145.24 211.85 145.44 211.85 145.44C211.85 145.44 215.09 147.04 211.13 149.83C208.43 151.83 207.71 153.22 207.71 153.22C207.71 153.22 206.63 154.42 205.37 154.61C205.73 155.01 206.09 155.21 206.27 155.61C206.81 157 206.63 158.4 206.63 159.8C206.99 163.59 209.87 166.58 213.28 167.78C214.18 167.98 215.08 168.18 215.98 168.18C217.96 168.18 220.11 167.78 222.09 167.18C223.17 167.38 224.43 167.38 225.69 167.38V167.39ZM238.11 160.12C234.62 165.75 229.82 165.52 229.82 165.52C229.82 165.52 234.3 164.35 238.11 160.12ZM209.34 103.92C208.35 103.82 209.34 102.72 209.34 102.72C209.34 102.72 222.17 98.3398 226.12 106.32C224.15 105.69 222.74 100.9 209.34 103.92ZM211.91 118.65C211.91 118.45 211.41 117.49 211.41 117.29C211.37 117.17 211.48 117.14 211.48 117.04C211.32 116.51 211.12 116.01 211.12 115.35C211.12 113.4 211.92 111.83 212.91 111.8V111.75C218.67 111.75 223.53 116.93 221.55 119.13C218.13 121.52 212.44 120.05 211.91 118.65Z" fill="#FFAAA9"/>
<path d="M235.22 64.2998C236.12 64.8998 236.66 65.8998 237.2 66.6898C244.39 78.0598 248.17 91.6197 250.51 105.18C251.77 112.16 252.67 119.34 253.57 126.52C256.09 145.66 258.43 164.81 260.76 183.95V184.75C260.76 184.75 262.56 191.53 262.56 193.13V193.33C262.56 193.53 262.74 193.73 262.74 193.93C262.92 194.33 263.1 194.93 263.28 195.33C263.46 195.73 263.64 196.33 263.82 196.73V196.93C268.13 210.69 272.45 224.65 278.03 237.81C278.21 238.21 278.39 238.61 278.57 239.01C280.55 243.6 282.53 248.18 284.68 252.57C285.04 253.37 285.4 253.97 285.94 254.76C286.66 256.16 287.38 257.55 288.1 258.95C292.24 266.73 297.09 274.1 302.85 280.69C312.92 283.08 335.4 286.07 359.32 275.5C338.82 224.25 306.99 178.19 292.24 124.35C290.8 118.57 289.36 112.78 286.48 107.6C285.04 105.01 283.42 102.81 281.62 100.62C279.82 98.4297 277.85 96.4298 275.86 94.4398C267.59 86.2598 258.96 78.2898 250.15 70.9098C245.65 67.1198 240.26 63.3298 234.86 63.1298C233.24 62.9298 231.44 63.1297 229.82 63.9297C230.72 63.7297 231.8 63.7297 232.7 63.7297C233.6 63.7297 234.5 63.9298 235.22 64.3298V64.2998Z" fill="#55E9FF"/>
<path d="M302.84 280.66C303.38 281.46 304.1 282.25 304.82 283.05C306.26 284.64 307.88 286.24 309.32 288.03C310.22 289.03 311.3 290.03 312.2 291.02L314.9 294.01C317.78 297 320.29 299.99 322.27 303.38C323.17 304.98 324.07 306.77 324.61 308.57C324.79 308.77 324.97 308.97 324.97 309.17C335.76 311.56 356.08 314.15 372.63 306.58C368.67 300.6 366.33 293.42 363.82 286.44C362.38 282.85 361.12 279.06 359.32 275.47C335.4 286.04 312.92 283.05 302.85 280.66H302.84Z" fill="#6F0000"/>
<path d="M324.96 309.18C325.68 310.97 326.04 312.77 326.4 314.76C326.94 318.55 326.94 322.94 327.84 326.53H376.4C378.02 325.33 379.1 323.54 379.28 321.14C380 316.35 376.4 312.37 373.7 308.38C373.34 307.78 372.98 307.18 372.62 306.59C356.07 314.17 335.75 311.57 324.96 309.18Z" fill="#55E9FF"/>
<path d="M326.4 314.76C326.04 312.76 325.68 310.97 324.96 309.18C324.96 308.98 324.78 308.78 324.6 308.58C324.06 306.79 323.16 304.99 322.26 303.39C320.28 300 317.76 297.01 314.89 294.02L312.19 291.03C311.29 290.03 310.21 289.04 309.31 288.04C305.53 297.02 300.86 305.59 295.64 313.57C292.94 318.16 289.7 322.54 286.29 326.53H307.02C307.02 326.73 307.2 326.93 307.2 327.13C307.74 329.12 308.46 331.32 309.54 332.91C310.44 334.11 311.52 335.3 312.78 335.9C312.96 335.1 313.68 334.3 314.22 333.91C319.43 330.72 325.19 328.32 331.12 328.13C337.06 327.73 343.17 329.52 347.85 333.51C349.11 334.51 350.19 335.7 350.91 337.1C351.99 339.09 351.99 341.29 351.99 343.48C351.81 345.27 351.63 346.87 351.45 348.46C351.27 348.66 351.27 349.06 351.09 349.26C356.3 346.07 361.34 342.48 366.56 338.89C367.64 338.09 368.72 337.3 369.8 336.3C370.7 335.11 371.42 333.71 372.32 332.31C373.58 330.52 375.2 328.72 376.46 326.73C376.46 326.73 376.46 326.53 376.64 326.53H327.85C326.95 322.94 326.95 318.55 326.41 314.76H326.4Z" fill="#424CAE"/>
<path d="M275.86 94.4099C277.84 96.3999 279.82 98.3999 281.62 100.59L299.78 90.0199C299.06 89.2199 298.7 88.0299 298.52 86.8299C293.66 86.8299 288.81 85.2299 284.67 81.8399C279.81 78.0499 276.76 72.8599 275.32 67.0799C273.52 67.8799 271.37 67.6799 269.75 66.2799C267.95 64.8799 267.05 62.4899 267.41 60.2999C261.84 60.8999 256.08 59.0999 251.22 55.3099C247.09 52.1199 244.21 47.5299 242.59 42.5499C241.51 42.7499 240.43 42.5499 239.53 42.1499L234.85 63.0899C240.24 63.2899 245.64 67.0799 250.14 70.8699C258.95 78.2499 267.58 86.2199 275.85 94.3999L275.86 94.4099Z" fill="#BCA827"/>
<path d="M245.65 40.9699C246.01 40.7699 246.19 40.3699 246.37 40.1699C248.17 37.3799 247.63 33.3899 245.11 31.3999C243.85 30.3999 242.41 29.9999 241.15 30.1999C239.53 30.3999 238.09 31.3999 237.2 32.7899C235.4 35.5799 235.94 39.5699 238.46 41.5699C238.82 41.7699 239.18 41.9699 239.54 42.1699C240.44 42.5699 241.52 42.7699 242.6 42.5699C243.86 42.5699 244.76 41.7699 245.66 40.9799L245.65 40.9699Z" fill="#C9CA54"/>
<path d="M275.33 67.09C276.05 66.69 276.41 66.29 276.95 65.89C277.31 65.69 277.49 65.29 277.67 64.89C279.29 62.5 278.93 59.31 277.31 57.11C276.95 56.71 276.59 56.51 276.23 56.11C275.87 55.71 275.33 55.51 274.79 55.31C272.45 54.51 269.93 55.31 268.31 57.51C268.13 57.91 267.95 58.31 267.77 58.51C267.59 59.11 267.41 59.71 267.41 60.3C267.05 62.5 267.95 64.89 269.75 66.28C271.37 67.68 273.53 67.88 275.32 67.08L275.33 67.09Z" fill="#C9CA54"/>
<path d="M300.86 91.2202C303.38 93.2102 306.98 92.4202 308.77 89.6202C309.85 88.0302 310.03 86.0302 309.49 84.2402C309.13 82.8402 308.59 81.8502 307.51 80.8502C304.99 78.8502 301.39 79.6502 299.6 82.4502C299.24 82.6502 299.06 83.0502 299.06 83.4502C298.52 84.4502 298.34 85.6402 298.52 86.8402C298.7 88.0402 299.06 89.2302 299.78 90.0302C300.14 90.4302 300.5 90.8302 300.86 91.2302V91.2202Z" fill="#C9CA54"/>
<path d="M226.12 106.32C222.17 98.3399 209.34 102.72 209.34 102.72C209.34 102.72 208.35 103.82 209.34 103.92C222.74 100.9 224.15 105.69 226.12 106.32Z" fill="black"/>
<path d="M212.92 111.76V111.81C212.92 111.81 212.93 111.79 212.95 111.79C213.96 111.79 214.78 113.39 214.78 115.37C214.78 117.35 213.96 118.95 212.95 118.95C212.28 118.95 211.8 118.12 211.48 117.06C211.48 117.16 211.38 117.19 211.41 117.31C211.41 117.51 211.91 118.47 211.91 118.67C212.45 120.07 218.14 121.54 221.55 119.15C223.53 116.96 218.67 111.77 212.92 111.77V111.76Z" fill="#C7B299"/>
<path d="M214.77 115.36C214.77 113.38 213.95 111.78 212.94 111.78C212.93 111.78 212.92 111.8 212.91 111.8C211.92 111.84 211.12 113.4 211.12 115.35C211.12 116.01 211.32 116.51 211.48 117.04C211.8 118.1 212.27 118.93 212.95 118.93C213.96 118.93 214.78 117.33 214.78 115.35L214.77 115.36Z" fill="black"/>
<path d="M211.13 134.29C210.95 139.27 204.12 139.27 202.68 139.27C203.4 139.47 203.76 139.87 203.94 140.67C206.46 140.67 210.95 140.07 211.14 134.29H211.13Z" fill="#736357"/>
<path d="M211.13 149.84C215.08 147.05 211.85 145.45 211.85 145.45C211.85 145.45 209.15 145.25 206.99 144.25C205.73 143.65 204.83 144.05 204.29 144.45C203.75 144.85 203.39 145.45 203.39 145.45C202.31 148.44 204.47 149.44 204.47 149.44C204.47 149.44 202.49 150.24 203.75 153.23C204.11 154.43 204.83 154.62 205.37 154.62C206.63 154.42 207.71 153.23 207.71 153.23C207.71 153.23 208.43 151.83 211.13 149.84Z" fill="#BF000A"/>
<path d="M229.83 165.52C229.83 165.52 234.62 165.75 238.12 160.12C234.31 164.34 229.83 165.52 229.83 165.52Z" fill="#736357"/>
<path d="M100.34 281.06C98.5398 284.85 96.3899 288.64 93.8599 292.23C90.9799 296.02 84.51 298.41 83.79 303.8C83.79 305.2 84.5098 306.39 85.5898 306.79C86.8498 307.39 88.1099 307.19 89.1899 306.79C91.8899 305.59 94.0498 303 95.8398 300.41C99.6098 295.02 102.67 288.84 105.73 282.86C105.01 282.86 104.29 282.86 103.39 282.66C101.95 282.46 101.05 281.86 100.33 281.06H100.34Z" fill="#008611"/>
<path d="M126.78 250.35C127.5 249.35 128.22 248.36 129.12 247.36C129.48 246.96 129.84 246.36 130.2 245.96C130.2 247.95 134.16 251.14 135.95 252.14C140.81 254.33 146.02 255.13 151.24 254.53C152.5 254.33 153.76 253.93 154.84 253.73C161.14 251.94 166.71 247.95 170.67 242.16C166.35 240.17 161.86 240.17 157.18 240.77C154.66 240.97 152.14 241.57 149.63 242.16C144.06 243.36 138.66 244.16 133.08 244.35C132.36 244.35 131.82 244.35 131.28 244.55C136.14 238.57 140.99 232.39 146.03 226.4C147.83 224.01 149.81 221.62 152.15 219.62C154.31 217.63 157.01 216.03 159.16 213.84C160.78 212.05 162.22 209.65 162.4 207.06C160.78 206.86 159.16 206.06 158.08 204.87C157.18 203.67 156.64 202.08 156.64 200.28C156.46 200.28 156.28 200.48 155.92 200.48C155.02 201.08 154.12 202.07 153.58 203.07C151.24 206.46 149.45 210.25 147.47 213.84C141.82 223.83 133.91 232.08 126.31 240.49C127.69 236.58 129.24 232.72 129.18 228.57C129.13 224.91 127.66 221.57 126.28 218.33C125.52 216.55 124.71 214.79 124.12 212.93C123.76 211.76 123.67 208.32 122.92 207.57C120.96 205.61 118 213.04 117.44 214.82C116.3 218.42 115.97 222.34 116.4 226.12C117.13 232.6 119.91 238.5 123.15 244C123.11 244.05 123.06 244.1 123.01 244.15C122.11 245.15 121.39 246.14 120.67 246.94C121.39 247.14 122.11 247.54 123.01 247.94C124.27 248.54 125.53 249.34 126.78 250.33V250.35Z" fill="#008611"/>
<path d="M123.9 314.16C131.27 324.93 143.68 317.15 147.1 314.16C147.46 313.76 147.82 313.16 148 312.57C149.08 308.38 144.76 300.6 144.76 300.6C144.76 300.6 143.32 296.21 144.22 293.62C146.92 286.44 145.84 279.86 143.86 274.48C142.78 271.49 141.52 268.9 140.44 266.5C137.74 260.72 132.35 254.34 126.77 250.35C125.51 249.35 124.25 248.56 123 247.96C122.1 247.56 121.38 247.16 120.66 246.96C117.6 245.96 116.34 247.36 115.98 248.36C116.52 248.96 117.24 249.56 117.96 250.15C119.58 251.75 121.2 253.54 122.64 255.54C124.98 258.33 126.77 261.12 127.49 263.32C129.83 270.1 127.67 273.29 124.07 272.89C124.07 275.28 118.32 275.88 115.08 274.68C115.98 276.88 113.28 278.47 111.3 277.87C111.66 278.87 111.48 280.06 110.94 281.06C110.58 281.46 110.4 281.86 110.04 282.06C109.68 282.26 109.32 282.26 108.96 282.46C109.68 288.44 114.17 290.04 114.17 290.04C114.17 290.04 118.67 289.64 122.08 291.04C127.3 293.23 124.24 298.02 124.24 298.02C124.24 298.02 123.16 298.82 122.08 300.41C120.46 302.8 119.38 307.59 123.88 314.17L123.9 314.16Z" fill="#FFAAA9"/>
<path d="M162.39 207.08C162.93 207.08 163.65 207.08 164.19 206.88C166.35 206.28 167.96 204.49 170.13 203.89C172.64 203.29 175.17 204.29 177.5 205.68C178.22 206.28 179.12 206.88 180.02 206.88C181.46 206.88 182.72 205.48 183.08 203.89C183.44 202.29 183.08 200.5 182.72 198.9C184.52 199.3 186.32 199.5 187.93 198.9C189.55 198.3 190.81 196.31 190.45 194.51C189.55 191.52 185.41 191.52 183.8 189.12C183.26 188.32 183.08 187.32 182.72 186.53C182.54 186.13 182.18 185.93 182 185.53H181.64C181.46 186.13 181.28 186.73 181.1 187.13C179.48 189.72 172.29 195.91 169.23 193.31C167.07 191.31 170.13 182.74 171.03 180.75C171.39 179.95 171.93 179.35 172.47 178.56C169.05 177.16 165.28 176.17 162.76 175.37C162.22 175.17 161.5 174.97 161.14 175.37C160.78 175.57 160.78 176.17 160.6 176.57C160.42 177.97 160.78 179.56 161.32 180.76C159.7 182.56 156.64 181.16 154.84 182.36C153.4 183.36 153.04 185.55 153.58 187.34C154.12 189.14 155.2 190.53 156.46 191.93C157 192.53 157.72 193.52 157.9 194.52C158.08 195.72 157.36 196.91 157 197.91C156.64 198.71 156.64 199.5 156.64 200.3C156.64 202.09 157.18 203.69 158.08 204.89C159.16 206.09 160.78 206.88 162.4 207.08H162.39Z" fill="#FF3331"/>
<path d="M169.22 193.32C172.28 195.91 179.47 189.73 181.09 187.14C181.27 186.74 181.45 186.14 181.63 185.54H181.99C187.57 183.75 193.32 182.55 199.08 181.75C199.62 182.75 200.34 183.55 201.42 183.55C203.04 183.55 204.3 181.95 204.3 180.16C204.3 178.37 203.04 176.97 201.42 176.97C199.8 176.97 198.72 178.16 198.54 179.96C193.15 180.56 187.75 181.75 182.54 183.15C183.26 181.16 183.44 178.96 183.8 176.77C186.5 175.57 189.37 174.77 192.25 174.18C192.79 175.18 193.51 175.78 194.59 175.78C196.21 175.78 197.47 174.38 197.47 172.59C197.47 170.8 196.21 169.2 194.59 169.2C192.97 169.2 191.89 170.6 191.71 172.39C189.2 172.99 186.67 173.59 184.16 174.59C184.16 174.39 184.34 174.19 184.34 173.99C184.34 173.59 184.34 172.79 184.16 172.39C185.42 170.4 186.14 168.4 186.5 166.01L186.68 166.21C188.3 166.21 189.56 164.62 189.56 162.82C189.56 161.02 188.3 159.63 186.68 159.63C186.32 159.63 186.14 159.83 185.78 160.03C185.78 159.83 185.96 159.63 185.96 159.63C185.96 157.64 184.52 156.24 182.9 156.24C181.28 156.24 180.02 157.64 180.02 159.63C180.02 161.03 180.92 162.02 182.18 162.42C181.46 166.61 180.02 170.6 178.04 173.99C177.5 174.39 176.96 174.79 176.42 174.99C176.06 170.4 175.34 166.02 173.9 161.63C174.8 161.03 175.34 160.04 175.34 159.04C175.34 157.24 174.08 155.65 172.46 155.65C170.84 155.65 169.58 157.24 169.58 159.04C169.58 160.63 170.66 162.03 172.28 162.23C173.72 166.62 174.44 171.4 174.62 176.19C174.26 176.59 173.72 176.79 173.36 176.99C173 177.59 172.82 178.18 172.46 178.58C171.92 179.38 171.38 179.98 171.02 180.77C170.12 182.76 167.06 191.34 169.22 193.33V193.32ZM183.79 163.21C183.97 164.01 184.33 164.8 184.87 165.2C184.51 167.39 183.79 169.59 182.54 171.38C182.36 171.38 182.18 171.58 181.82 171.58C181.64 171.78 181.28 171.98 180.92 172.18C182.18 169.39 183.26 166.39 183.8 163.2L183.79 163.21Z" fill="#933524"/>
<path d="M114.91 309.57C114.91 311.76 114.91 313.96 115.99 315.95C116.71 317.34 117.79 318.54 119.05 319.54C123.73 323.53 129.84 325.33 135.78 324.93C141.72 324.73 147.47 322.34 152.68 319.15C153.22 318.75 153.94 317.95 154.12 317.16C154.3 316.96 154.48 316.56 154.3 316.16C154.3 315.76 153.76 315.36 153.4 314.97C151.78 313.57 149.98 312.77 148.01 312.58C147.83 313.18 147.47 313.78 147.11 314.17C143.69 317.16 131.28 324.94 123.91 314.17C119.41 307.59 120.49 302.8 122.11 300.41C119.95 300.01 117.8 300.01 116.54 301.81C116.18 302.41 116 303.01 115.82 303.8C115.64 304 115.64 304.4 115.46 304.6C115.28 306.2 115.1 307.79 114.92 309.59L114.91 309.57Z" fill="#E7707B"/>
<path d="M110.78 278.07L110.24 277.07L111.5 277.27C113.12 277.47 115.1 276.07 114.38 275.08L112.94 273.09L115.28 273.89C116.72 274.29 118.34 274.29 119.96 274.09C121.22 274.09 122.84 273.09 122.84 272.89L124.28 271.49C127.16 271.89 127.7 268.7 126.98 265.31C126.26 261.92 124.28 258.93 122.12 256.13C120.5 254.34 119.24 252.34 117.81 250.35L116.01 248.36C113.67 245.97 111.51 244.37 110.44 244.17C107.56 243.57 102.35 246.56 106.48 253.74C103.78 255.14 100.18 258.33 102.7 263.51C99.8201 263.11 93.7097 267.9 99.8197 272.88C99.8197 272.88 97.6597 278.46 100.36 281.06C101.08 281.86 101.98 282.46 103.42 282.66C104.32 282.86 105.04 282.86 105.76 282.86C107.2 283.06 108.1 282.86 109 282.46C109.72 282.26 110.26 281.86 110.62 281.26C111.16 280.26 111.34 279.07 110.8 278.07H110.78ZM121.96 269.92C119.21 263.7 108.53 254.81 108.53 254.81C108.53 254.81 115.51 256.19 121.96 269.92ZM112.02 271.8C106.94 269.45 104.4 264.06 104.4 264.06C104.4 264.06 109.37 269.92 112.02 271.8ZM102.39 273.32C102.39 273.32 105.94 276.37 108.98 276.37C104.61 276.96 102.39 273.32 102.39 273.32Z" fill="#FFAAA9"/>
<path d="M111.31 277.87C113.29 278.47 115.99 276.87 115.09 274.68C118.33 275.88 124.08 275.28 124.08 272.89C127.68 273.29 129.83 270.1 127.5 263.32C126.78 261.13 124.99 258.33 122.65 255.54C121.21 253.54 119.59 251.75 117.97 250.15C117.25 249.55 116.53 248.95 115.99 248.36L117.79 250.35C119.23 252.34 120.49 254.34 122.1 256.13C124.26 258.92 126.24 261.92 126.96 265.31C127.68 268.7 127.14 271.89 124.26 271.49L122.82 272.89C122.82 273.09 121.2 274.09 119.94 274.09C118.32 274.29 116.7 274.29 115.26 273.89L112.92 273.09L114.36 275.08C115.08 276.08 113.1 277.47 111.48 277.27L110.22 277.07L110.76 278.07C111.3 279.07 111.12 280.26 110.58 281.26C110.22 281.86 109.68 282.26 108.96 282.46C109.68 282.26 110.4 281.86 110.94 281.06C111.48 280.06 111.66 278.87 111.3 277.87H111.31Z" fill="#736357"/>
<path d="M108.98 276.37C105.94 276.37 102.39 273.32 102.39 273.32C102.39 273.32 104.61 276.96 108.98 276.37Z" fill="#736357"/>
<path d="M112.01 271.79C109.36 269.91 104.39 264.05 104.39 264.05C104.39 264.05 106.93 269.45 112.01 271.79Z" fill="#736357"/>
<path d="M121.96 269.91C115.51 256.19 108.53 254.8 108.53 254.8C108.53 254.8 119.21 263.69 121.96 269.91Z" fill="#736357"/>
<path d="M309.32 288.04C307.88 286.25 306.26 284.65 304.82 283.06C304.1 282.26 303.38 281.46 302.84 280.67C297.09 274.09 292.23 266.71 288.09 258.93C287.55 260.53 286.83 262.12 286.11 263.52C283.77 268.11 281.07 272.3 278.2 276.48C276.4 279.27 274.43 282.06 272.45 285.06C268.68 290.64 264.9 296.43 260.22 301.21C260.22 301.21 260.22 301.41 260.04 301.41C258.78 303.8 250.15 317.36 238.64 326.54H286.3C289.72 322.55 292.95 318.16 295.65 313.58C300.86 305.6 305.54 297.03 309.32 288.05V288.04Z" fill="#DBF2E4"/>
<path d="M272.45 285.05C274.43 282.06 276.41 279.27 278.2 276.47C281.08 272.28 283.78 268.09 286.11 263.51C286.83 262.11 287.55 260.52 288.09 258.92C287.37 257.52 286.65 256.13 285.93 254.73C282.15 263.31 278.74 265.7 276.04 265.9C270.64 266.5 267.77 259.12 262.37 260.32C257.16 261.32 256.8 269.29 252.3 269.49C247.62 269.69 246.36 261.71 241.15 261.31C235.76 260.91 233.78 268.49 228.74 267.89C227.49 267.72 226.95 266.48 226.18 265.61C221.05 265.5 216.52 263.27 212.86 259.89C209.76 261.46 207.05 263.82 204.1 262.31C199.78 260.32 201.22 253.34 196.55 251.14C192.41 249.15 188.99 253.93 184.14 252.54C182.34 251.94 180.01 250.35 177.85 246.36C176.95 251.74 176.95 257.33 177.31 262.71C177.49 265.3 177.67 268.09 178.75 270.49C179.47 272.29 180.55 273.88 181.45 275.48C183.43 279.27 184.87 283.86 187.75 286.85C190.45 289.64 194.4 290.64 197.28 293.23C199.08 294.82 200.52 296.82 202.32 298.41C204.84 300.8 208.07 302 211.31 303.4C213.65 304.4 216.17 305.2 218.5 306.19C226.59 309.38 235.05 312.77 243.68 311.18C249.8 309.98 255.37 305.99 260.05 301.41C260.23 301.41 260.23 301.21 260.23 301.21C264.91 296.42 268.68 290.64 272.46 285.06L272.45 285.05Z" fill="#237F00"/>
<path d="M184.15 252.54C189.01 253.94 192.42 249.15 196.56 251.14C201.24 253.34 199.8 260.32 204.11 262.31C207.06 263.82 209.77 261.46 212.87 259.89C208.07 255.47 204.83 249.06 204.83 241.57C204.83 239.57 205.01 237.78 205.37 235.98C205.11 235.92 204.96 235.87 204.71 235.81C200.86 234.91 197.44 234.04 194.4 233.19C193.07 232.82 191.94 232.51 190.79 232.17C187.99 231.33 185.59 230.57 183.96 230C181.98 233.19 180.36 236.78 179.1 240.57C179.1 240.77 178.92 240.97 178.92 241.17C178.56 242.77 178.2 244.56 177.84 246.36C180 250.35 182.34 251.94 184.13 252.54H184.15Z" fill="#2AA8FF"/>
<path d="M248.35 241.57C248.35 254.93 238.64 265.7 226.59 265.7C226.45 265.7 226.33 265.61 226.19 265.61C226.96 266.48 227.5 267.73 228.75 267.89C233.79 268.49 235.76 260.91 241.16 261.31C246.37 261.71 247.64 269.69 252.31 269.49C256.81 269.29 257.17 261.31 262.38 260.32C267.77 259.12 270.65 266.5 276.05 265.9C278.75 265.7 282.16 263.31 285.94 254.73C285.4 253.93 285.04 253.34 284.68 252.54C282.52 248.15 280.54 243.57 278.57 238.98C268.6 241.06 258.33 241.74 248.36 241.56L248.35 241.57Z" fill="#2AA8FF"/>
<path d="M194.4 233.2C197.44 234.05 200.85 234.93 204.71 235.82C204.96 235.88 205.12 235.93 205.37 235.99C207.17 227.61 212.92 220.84 220.3 218.44C219.04 205.88 222.1 198.9 223.9 195.71C221.92 196.71 220.12 197.7 218.15 199.1C215.81 200.89 213.47 202.49 210.95 204.28C201.24 211.26 190.99 219.04 184.33 229.41C184.33 229.61 184.15 229.81 183.97 230.01C185.59 230.57 187.99 231.34 190.8 232.18C191.95 232.52 193.08 232.83 194.41 233.2H194.4Z" fill="#FFAAA9"/>
<path d="M250.15 199.1C243.5 200.5 238.64 200.3 234.86 199.5C233.96 199.3 233.06 199.1 232.34 198.7C230 197.9 228.39 196.91 227.3 196.11C227.12 195.71 226.76 195.51 226.58 195.31C226.58 195.31 220.65 201.49 221.9 218.04C223.34 217.64 224.96 217.44 226.58 217.44C233.59 217.44 239.89 221.03 243.66 226.81C256.61 213.05 261.47 198.49 262.18 195.7C259.84 196.5 257.68 197.29 255.71 197.69C253.73 198.29 251.93 198.69 250.14 199.09L250.15 199.1Z" fill="#FFAAA9"/>
<path d="M248.35 241.37C258.24 241.77 268.49 240.97 278.56 238.98C278.38 238.58 278.2 238.18 278.02 237.78C272.44 224.62 268.13 210.66 263.81 196.9C262.19 201.49 257.16 215.44 244.56 228.21C246.9 232 248.34 236.59 248.34 241.37H248.35Z" fill="#FFAAA9"/>
<path d="M227.31 196.11C228.39 196.91 230.01 197.91 232.35 198.7C233.07 199.1 233.97 199.3 234.87 199.5C238.64 200.3 243.5 200.5 250.16 199.1C251.96 198.7 253.76 198.3 255.73 197.7C257.71 197.3 259.87 196.5 262.2 195.71C262.56 195.51 262.92 195.51 263.28 195.31C263.1 194.91 262.92 194.31 262.74 193.91C262.74 193.71 262.56 193.51 262.56 193.31C262.02 193.51 261.3 193.71 260.76 193.91C255.9 195.11 250.87 195.51 245.83 196.1C240.44 196.5 234.5 196.7 229.82 193.51C229.46 193.51 229.1 193.11 228.74 192.91C228.38 193.11 228.02 193.51 227.66 193.51C227.12 193.91 226.58 194.31 226.04 194.51L226.58 195.31C226.76 195.51 227.12 195.71 227.3 196.11H227.31Z" fill="#BF2000"/>
<path d="M205.37 235.99C205.01 237.79 204.83 239.58 204.83 241.58C204.83 249.07 208.06 255.48 212.87 259.9C216.53 263.27 221.07 265.51 226.19 265.62C226.33 265.62 226.45 265.71 226.59 265.71C238.64 265.71 248.35 254.94 248.35 241.58V241.38C248.35 236.59 246.91 232.01 244.57 228.22C257.16 215.46 262.2 201.5 263.82 196.91V196.71C263.64 196.31 263.46 195.71 263.28 195.31C262.92 195.51 262.56 195.51 262.2 195.71C261.48 198.5 256.63 213.06 243.68 226.82C239.9 221.04 233.61 217.45 226.6 217.45C224.98 217.45 223.36 217.65 221.92 218.05C220.66 201.5 226.6 195.32 226.6 195.32L226.06 194.52C225.34 194.92 224.62 195.32 223.9 195.72C222.1 198.91 219.04 205.89 220.3 218.45C212.93 220.84 207.17 227.62 205.37 236V235.99ZM226.13 223.44C226.32 223.06 226.86 223.06 227.06 223.44C229.32 227.79 239.24 237.71 243.59 239.97C243.97 240.16 243.97 240.7 243.59 240.9C239.24 243.16 229.32 253.08 227.06 257.43C226.86 257.81 226.32 257.81 226.13 257.43C223.87 253.08 213.95 243.16 209.6 240.9C209.22 240.71 209.22 240.17 209.6 239.97C213.95 237.71 223.87 227.79 226.13 223.44Z" fill="#BCA827"/>
<path d="M248.58 565.62C247.68 565.22 247.32 564.42 246.78 563.63C245.52 561.83 243.54 560.44 241.57 559.84C240.31 559.64 238.87 559.44 237.61 558.84C235.45 557.44 234.91 554.45 234.91 551.66C234.91 548.87 235.27 546.08 234.55 543.48C233.11 539.29 228.43 537.1 226.64 532.91C223.22 525.73 229.52 516.36 226.28 509.18C224.48 504.99 219.99 502.4 219.45 497.81C219.09 496.21 219.45 494.42 219.27 492.62C218.73 486.24 212.08 481.85 212.44 475.47C212.62 472.08 215.14 468.09 213.16 465.3C211.18 465.1 209.02 465.5 207.22 466.5C207.04 466.5 206.86 466.7 206.68 466.9C206.32 466.9 206.32 467.3 206.14 467.5C205.96 467.7 206.14 468.1 206.14 468.3V469.1C208.48 488.24 210.82 507.39 213.33 526.53C214.23 533.71 215.13 540.89 216.39 547.87C218.73 561.43 222.51 574.99 229.7 586.36C230.24 587.16 230.78 588.15 231.68 588.75C232.4 589.15 233.3 589.35 234.2 589.35C235.1 589.35 236.18 589.35 237.08 589.15C242.29 588.75 247.33 585.96 250.39 581.17C251.83 579.18 254.71 573.19 253.99 569.4V569.2C253.99 567.4 253.09 566.21 250.93 565.81C250.03 565.61 249.31 566.01 248.59 565.61L248.58 565.62Z" fill="#933524"/>
<path d="M241.21 485.65C240.13 485.85 239.05 486.05 237.97 485.45C236.17 484.25 236.17 481.46 236.35 479.07C236.89 473.48 237.43 465.91 238.15 460.13C237.79 459.93 237.43 459.53 237.07 459.53C232.39 456.34 226.46 456.54 221.06 456.94C216.02 457.54 210.99 457.94 206.13 459.13C205.59 459.33 204.87 459.53 204.33 459.73V459.93C204.33 461.53 206.13 468.31 206.13 468.31C206.13 468.11 205.95 467.71 206.13 467.51C206.31 467.31 206.31 466.91 206.67 466.91C206.85 466.71 207.03 466.51 207.21 466.51C209.01 465.51 211.17 465.12 213.15 465.31C215.13 468.1 212.61 472.09 212.43 475.48C212.07 481.86 218.73 486.25 219.26 492.63C219.44 494.43 219.08 496.22 219.44 497.82C219.98 502.41 224.48 505 226.27 509.19C229.51 516.37 223.21 525.74 226.63 532.92C228.43 537.11 233.1 539.3 234.54 543.49C235.26 546.08 234.9 548.88 234.9 551.67C234.9 554.46 235.44 557.45 237.6 558.85C238.86 559.45 240.3 559.65 241.56 559.85C243.54 560.45 245.51 561.84 246.77 563.64C247.31 564.44 247.67 565.24 248.57 565.63C249.29 566.03 250.01 565.63 250.91 565.83C253.07 566.23 253.97 567.43 253.97 569.22C260.98 556.06 258.29 537.91 265.66 524.75C266.56 522.76 267.82 520.96 268.18 518.77C268.36 516.78 267.28 514.18 265.3 513.98C264.94 513.98 264.76 513.98 264.4 513.78H264.22C262.78 513.78 255.95 513.78 255.77 518.77C255.95 512.99 260.45 512.39 262.96 512.39C262.78 511.99 262.6 511.19 262.6 510.6V508.61C262.06 509.01 261.16 509.41 259.9 508.81C257.74 507.81 255.04 507.61 255.04 507.61C255.04 507.61 251.8 506.01 255.76 503.22C258.46 501.23 259.18 499.83 259.18 499.83C259.18 499.83 260.26 498.63 261.52 498.43C261.16 498.03 260.8 497.83 260.62 497.43C260.08 496.03 260.26 494.64 260.26 493.24C259.9 489.45 257.02 486.46 253.61 485.26C252.71 485.06 251.81 484.86 250.91 484.86C248.93 484.86 246.77 485.26 244.79 485.86C243.71 485.66 242.45 485.66 241.19 485.66L241.21 485.65ZM228.79 492.92C232.28 487.29 237.07 487.53 237.07 487.53C237.07 487.53 232.59 488.7 228.79 492.92ZM257.56 549.12C258.55 549.22 257.56 550.32 257.56 550.32C257.56 550.32 244.72 554.7 240.77 546.72C242.75 547.35 244.16 552.14 257.56 549.12ZM254.98 534.39C254.98 534.59 255.48 535.55 255.48 535.75C255.51 535.87 255.41 535.9 255.41 536C255.57 536.53 255.77 537.03 255.77 537.69C255.77 539.64 254.96 541.21 253.97 541.24V541.29C248.21 541.29 243.35 536.1 245.33 533.91C248.75 531.52 254.44 532.99 254.97 534.39H254.98Z" fill="#FFAAA9"/>
<path d="M231.68 588.75C230.78 588.15 230.24 587.15 229.7 586.36C222.51 574.99 218.73 561.43 216.39 547.87C215.13 540.89 214.23 533.71 213.33 526.53C210.81 507.39 208.47 488.24 206.14 469.1V468.3C206.14 468.3 204.34 461.52 204.34 459.92V459.72C204.34 459.52 204.16 459.32 204.16 459.12C203.98 458.72 203.8 458.12 203.62 457.72C203.44 457.32 203.26 456.72 203.08 456.32V456.12C198.76 442.36 194.45 428.4 188.87 415.24C188.69 414.84 188.51 414.44 188.33 414.04C186.35 409.45 184.38 404.86 182.22 400.48C181.86 399.68 181.5 399.08 180.96 398.29C180.24 396.89 179.52 395.5 178.8 394.1C174.67 386.32 169.81 378.94 164.05 372.36C153.98 369.97 131.5 366.98 107.58 377.55C128.08 428.8 159.91 474.86 174.66 528.7C176.1 534.48 177.54 540.27 180.41 545.45C181.85 548.04 183.47 550.24 185.27 552.43C187.07 554.62 189.05 556.62 191.03 558.61C199.3 566.79 207.93 574.76 216.74 582.14C221.24 585.93 226.63 589.72 232.03 589.92C233.65 590.12 235.45 589.92 237.07 589.12C236.17 589.32 235.09 589.32 234.19 589.32C233.29 589.32 232.39 589.12 231.67 588.72L231.68 588.75Z" fill="#55E9FF"/>
<path d="M164.06 372.39C163.52 371.59 162.8 370.8 162.08 370C160.64 368.41 159.02 366.81 157.58 365.01C156.68 364.01 155.6 363.02 154.7 362.02L152 359.03C149.12 356.04 146.61 353.05 144.63 349.66C143.73 348.07 142.83 346.27 142.29 344.48C142.11 344.28 141.93 344.08 141.93 343.88C131.14 341.49 110.82 338.89 94.27 346.47C98.23 352.45 100.57 359.63 103.08 366.61C104.52 370.2 105.78 373.99 107.58 377.58C131.5 367.01 153.98 370 164.05 372.39H164.06Z" fill="#6F0000"/>
<path d="M141.94 343.87C141.22 342.08 140.86 340.28 140.5 338.29C139.96 334.5 139.96 330.11 139.06 326.52H90.5C88.88 327.72 87.8001 329.51 87.6201 331.9C86.9001 336.69 90.5 340.68 93.19 344.66C93.55 345.26 93.91 345.86 94.27 346.45C110.82 338.87 131.14 341.46 141.93 343.86L141.94 343.87Z" fill="#55E9FF"/>
<path d="M140.5 338.29C140.86 340.28 141.22 342.08 141.94 343.87C141.94 344.07 142.12 344.27 142.3 344.47C142.84 346.26 143.74 348.06 144.64 349.65C146.62 353.04 149.14 356.03 152.01 359.02L154.71 362.01C155.61 363.01 156.69 364 157.59 365C161.37 356.03 166.04 347.45 171.26 339.48C173.96 334.89 177.2 330.51 180.61 326.52H159.88C159.88 326.32 159.7 326.12 159.7 325.92C159.16 323.93 158.44 321.73 157.36 320.14C156.46 318.94 155.38 317.75 154.12 317.15C153.94 317.95 153.22 318.74 152.68 319.14C147.47 322.33 141.71 324.72 135.78 324.92C129.84 325.32 123.73 323.52 119.05 319.53C117.79 318.53 116.71 317.34 115.99 315.94C114.91 313.94 114.91 311.75 114.91 309.56C115.09 307.77 115.27 306.17 115.45 304.57C115.63 304.37 115.63 303.97 115.81 303.77C110.6 306.96 105.56 310.55 100.34 314.14C99.2598 314.94 98.1801 315.74 97.1001 316.73C96.2001 317.93 95.4801 319.32 94.5801 320.72C93.3201 322.52 91.6999 324.31 90.4399 326.31C90.4399 326.31 90.4398 326.51 90.2598 326.51H139.05C139.95 330.1 139.95 334.49 140.49 338.28L140.5 338.29Z" fill="#424CAE"/>
<path d="M191.04 558.64C189.06 556.65 187.08 554.65 185.28 552.46L167.12 563.03C167.84 563.83 168.2 565.02 168.38 566.22C173.24 566.22 178.09 567.82 182.23 571.21C187.09 575 190.14 580.18 191.58 585.96C193.38 585.16 195.54 585.36 197.15 586.76C198.95 588.16 199.85 590.55 199.49 592.75C205.06 592.15 210.82 593.95 215.68 597.73C219.82 600.92 222.69 605.51 224.31 610.49C225.39 610.29 226.47 610.49 227.37 610.89L232.05 589.95C226.66 589.75 221.26 585.96 216.76 582.17C207.95 574.79 199.32 566.82 191.05 558.64H191.04Z" fill="#BCA827"/>
<path d="M221.25 612.08C220.89 612.28 220.71 612.68 220.53 612.88C218.73 615.67 219.27 619.66 221.79 621.65C223.05 622.65 224.49 623.05 225.75 622.85C227.37 622.65 228.81 621.65 229.71 620.26C231.51 617.47 230.97 613.48 228.45 611.49C228.09 611.29 227.73 611.09 227.37 610.89C226.47 610.49 225.39 610.29 224.31 610.49C223.05 610.49 222.15 611.29 221.25 612.09V612.08Z" fill="#C9CA54"/>
<path d="M191.58 585.96C190.86 586.36 190.5 586.76 189.96 587.16C189.6 587.36 189.42 587.76 189.24 588.16C187.62 590.55 187.98 593.75 189.6 595.94C189.96 596.34 190.32 596.54 190.68 596.94C191.04 597.34 191.58 597.54 192.12 597.74C194.46 598.54 196.98 597.74 198.6 595.55C198.78 595.15 198.96 594.75 199.14 594.55C199.32 593.95 199.5 593.35 199.5 592.76C199.86 590.56 198.96 588.17 197.16 586.77C195.54 585.38 193.38 585.18 191.59 585.97L191.58 585.96Z" fill="#C9CA54"/>
<path d="M166.04 561.83C163.52 559.84 159.92 560.63 158.13 563.43C157.05 565.03 156.87 567.02 157.41 568.82C157.77 570.22 158.31 571.21 159.39 572.21C161.91 574.2 165.51 573.41 167.3 570.61C167.66 570.41 167.84 570.01 167.84 569.61C168.38 568.61 168.56 567.42 168.38 566.22C168.2 565.02 167.84 563.83 167.12 563.03C166.76 562.63 166.4 562.23 166.04 561.83Z" fill="#C9CA54"/>
<path d="M240.78 546.73C244.73 554.71 257.57 550.33 257.57 550.33C257.57 550.33 258.56 549.23 257.57 549.13C244.17 552.15 242.76 547.36 240.78 546.73Z" fill="black"/>
<path d="M253.98 541.29V541.24C253.98 541.24 253.97 541.27 253.95 541.27C252.94 541.27 252.12 539.67 252.12 537.69C252.12 535.71 252.94 534.11 253.95 534.11C254.62 534.11 255.1 534.94 255.42 536C255.42 535.9 255.52 535.87 255.49 535.75C255.49 535.55 254.99 534.59 254.99 534.39C254.45 532.99 248.76 531.52 245.35 533.91C243.37 536.1 248.23 541.29 253.98 541.29Z" fill="#C7B299"/>
<path d="M252.13 537.69C252.13 539.67 252.95 541.27 253.96 541.27C253.97 541.27 253.98 541.24 253.99 541.24C254.98 541.21 255.79 539.64 255.79 537.69C255.79 537.03 255.59 536.53 255.43 536C255.11 534.94 254.63 534.11 253.96 534.11C252.95 534.11 252.13 535.71 252.13 537.69Z" fill="black"/>
<path d="M255.78 518.76C255.96 513.77 262.79 513.77 264.23 513.77C263.51 513.57 263.15 513.17 262.97 512.37C260.45 512.37 255.96 512.97 255.78 518.75V518.76Z" fill="#736357"/>
<path d="M255.78 503.2C251.82 505.99 255.06 507.59 255.06 507.59C255.06 507.59 257.76 507.79 259.92 508.79C261.18 509.39 262.08 508.99 262.62 508.59C263.16 508.19 263.52 507.59 263.52 507.59C264.6 504.6 262.44 503.6 262.44 503.6C262.44 503.6 264.42 502.8 263.16 499.81C262.8 498.61 262.08 498.41 261.54 498.41C260.28 498.61 259.2 499.81 259.2 499.81C259.2 499.81 258.48 501.21 255.78 503.2Z" fill="#BF000A"/>
<path d="M237.08 487.53C237.08 487.53 232.29 487.3 228.8 492.92C232.61 488.7 237.08 487.53 237.08 487.53Z" fill="#736357"/>
<path d="M381.3 346.26C380.04 345.66 378.78 345.86 377.7 346.26C375.01 347.46 372.85 350.05 371.05 352.64C367.27 358.02 364.22 364.21 361.16 370.19C361.88 370.19 362.6 370.19 363.5 370.39C364.94 370.59 365.84 371.19 366.56 371.99C368.36 368.2 370.52 364.41 373.04 360.82C375.92 357.03 382.39 354.64 383.11 349.25C383.11 347.85 382.39 346.66 381.31 346.26H381.3Z" fill="#008611"/>
<path d="M340.12 402.7C339.4 403.7 338.68 404.7 337.78 405.69C337.42 406.09 337.06 406.69 336.7 407.09C336.7 405.09 332.75 401.9 330.95 400.91C326.09 398.72 320.88 397.92 315.66 398.52C314.4 398.72 313.14 399.12 312.06 399.32C305.76 401.12 300.19 405.1 296.24 410.89C300.55 412.88 305.05 412.88 309.73 412.28C312.25 412.08 314.77 411.48 317.28 410.89C322.86 409.69 328.25 408.89 333.83 408.69C334.55 408.69 335.09 408.69 335.63 408.49C330.77 414.47 325.92 420.65 320.88 426.63C319.08 429.02 317.1 431.42 314.76 433.41C312.6 435.4 309.9 437 307.75 439.19C306.13 440.98 304.69 443.38 304.51 445.97C306.13 446.17 307.75 446.97 308.83 448.16C309.73 449.36 310.27 450.95 310.27 452.75C310.45 452.75 310.63 452.55 310.99 452.55C311.89 451.95 312.79 450.95 313.33 449.96C315.67 446.57 317.46 442.78 319.44 439.19C325.09 429.2 333 420.95 340.6 412.54C339.22 416.45 337.67 420.31 337.73 424.46C337.78 428.12 339.25 431.46 340.63 434.7C341.39 436.48 342.2 438.24 342.79 440.1C343.16 441.27 343.24 444.71 343.99 445.46C345.95 447.42 348.91 439.99 349.47 438.21C350.61 434.61 350.94 430.69 350.51 426.91C349.78 420.43 347 414.53 343.77 409.03C343.81 408.98 343.86 408.93 343.91 408.88C344.81 407.88 345.53 406.89 346.25 406.09C345.53 405.89 344.81 405.49 343.91 405.09C342.65 404.49 341.39 403.69 340.13 402.7H340.12Z" fill="#008611"/>
<path d="M344.26 397.51C341.92 394.72 340.12 391.93 339.4 389.73C337.06 382.95 339.22 379.76 342.82 380.16C342.82 377.77 348.57 377.17 351.81 378.37C350.91 376.18 353.61 374.58 355.58 375.18C355.22 374.18 355.4 372.99 355.94 371.99C356.3 371.59 356.48 371.19 356.84 370.99C357.2 370.79 357.56 370.79 357.92 370.59C357.2 364.61 352.71 363.01 352.71 363.01C352.71 363.01 348.21 363.41 344.8 362.01C339.59 359.82 342.64 355.03 342.64 355.03C342.64 355.03 343.72 354.23 344.8 352.64C346.42 350.25 347.5 345.46 343 338.88C335.63 328.11 323.22 335.89 319.8 338.88C319.44 339.28 319.08 339.88 318.9 340.48C317.82 344.67 322.14 352.44 322.14 352.44C322.14 352.44 323.58 356.83 322.68 359.42C319.99 366.6 321.06 373.18 323.04 378.56C324.12 381.55 325.38 384.14 326.46 386.54C329.16 392.32 334.55 398.7 340.13 402.69C341.39 403.69 342.65 404.49 343.91 405.08C344.81 405.48 345.53 405.88 346.25 406.08C349.31 407.08 350.57 405.68 350.93 404.69C350.39 404.09 349.67 403.49 348.95 402.89C347.33 401.29 345.71 399.5 344.27 397.51H344.26Z" fill="#FFAAA9"/>
<path d="M304.51 445.97C303.97 445.97 303.25 445.97 302.71 446.17C300.55 446.77 298.94 448.56 296.78 449.16C294.26 449.76 291.74 448.76 289.41 447.36C288.69 446.76 287.79 446.16 286.89 446.16C285.45 446.16 284.19 447.56 283.83 449.15C283.47 450.75 283.83 452.54 284.19 454.14C282.39 453.74 280.59 453.54 278.97 454.14C277.35 454.74 276.09 456.73 276.45 458.53C277.35 461.52 281.49 461.52 283.1 463.92C283.64 464.72 283.82 465.71 284.18 466.51C284.36 466.91 284.72 467.11 284.9 467.51H285.26C285.44 466.91 285.62 466.31 285.8 465.92C287.42 463.33 294.61 457.14 297.67 459.74C299.83 461.73 296.77 470.31 295.87 472.3C295.51 473.1 294.97 473.7 294.43 474.5C297.85 475.89 301.62 476.89 304.14 477.69C304.68 477.89 305.4 478.09 305.76 477.69C306.12 477.49 306.12 476.89 306.3 476.49C306.48 475.09 306.12 473.5 305.58 472.3C307.2 470.51 310.25 471.9 312.05 470.71C313.49 469.71 313.85 467.52 313.31 465.72C312.77 463.93 311.69 462.53 310.43 461.13C309.89 460.53 309.17 459.53 308.99 458.54C308.81 457.34 309.53 456.15 309.89 455.15C310.25 454.35 310.25 453.55 310.25 452.76C310.25 450.96 309.71 449.37 308.81 448.17C307.73 446.97 306.11 446.17 304.49 445.98L304.51 445.97Z" fill="#FF3331"/>
<path d="M297.68 459.73C294.62 457.14 287.43 463.32 285.81 465.91C285.63 466.31 285.45 466.91 285.27 467.5H284.91C279.33 469.3 273.58 470.49 267.83 471.29C267.29 470.29 266.57 469.5 265.49 469.5C263.87 469.5 262.61 471.09 262.61 472.89C262.61 474.69 263.87 476.08 265.49 476.08C267.11 476.08 268.19 474.88 268.37 473.09C273.76 472.49 279.16 471.29 284.37 469.9C283.65 471.9 283.47 474.09 283.11 476.28C280.41 477.48 277.54 478.28 274.66 478.87C274.12 477.87 273.4 477.27 272.32 477.27C270.7 477.27 269.44 478.67 269.44 480.46C269.44 482.25 270.7 483.85 272.32 483.85C273.94 483.85 275.02 482.45 275.2 480.66C277.72 480.06 280.24 479.46 282.75 478.46C282.75 478.66 282.57 478.86 282.57 479.06C282.57 479.46 282.57 480.26 282.75 480.66C281.49 482.65 280.77 484.65 280.41 487.04L280.23 486.84C278.61 486.84 277.35 488.44 277.35 490.23C277.35 492.02 278.61 493.42 280.23 493.42C280.59 493.42 280.77 493.22 281.13 493.02C281.13 493.22 280.95 493.42 280.95 493.42C280.95 495.42 282.39 496.81 284.01 496.81C285.63 496.81 286.89 495.41 286.89 493.42C286.89 492.03 285.99 491.03 284.73 490.63C285.45 486.44 286.89 482.45 288.86 479.06C289.4 478.66 289.94 478.26 290.48 478.06C290.84 482.65 291.56 487.03 293 491.42C292.1 492.02 291.56 493.02 291.56 494.01C291.56 495.8 292.82 497.4 294.44 497.4C296.06 497.4 297.32 495.8 297.32 494.01C297.32 492.41 296.24 491.02 294.62 490.82C293.18 486.43 292.46 481.65 292.28 476.86C292.64 476.46 293.18 476.26 293.54 476.06C293.9 475.46 294.08 474.86 294.44 474.47C294.98 473.67 295.52 473.07 295.88 472.27C296.78 470.28 299.84 461.7 297.68 459.71V459.73ZM283.11 489.84C282.93 489.04 282.57 488.25 282.03 487.85C282.39 485.66 283.11 483.46 284.37 481.67C284.55 481.67 284.73 481.47 285.09 481.47C285.27 481.27 285.63 481.07 285.99 480.87C284.73 483.66 283.65 486.65 283.11 489.84Z" fill="#933524"/>
<path d="M351.99 343.47C351.99 341.27 351.99 339.08 350.91 337.09C350.19 335.69 349.11 334.5 347.85 333.5C343.17 329.51 337.06 327.72 331.12 328.12C325.19 328.32 319.43 330.71 314.22 333.9C313.68 334.3 312.96 335.1 312.78 335.89C312.6 336.09 312.42 336.49 312.6 336.89C312.6 337.29 313.14 337.69 313.5 338.09C315.12 339.49 316.92 340.28 318.89 340.48C319.07 339.88 319.43 339.28 319.79 338.88C323.21 335.89 335.62 328.11 342.99 338.88C347.49 345.46 346.41 350.25 344.79 352.64C346.95 353.04 349.11 353.04 350.36 351.24C350.72 350.64 350.9 350.04 351.08 349.25C351.26 349.05 351.26 348.65 351.44 348.45C351.62 346.86 351.8 345.26 351.98 343.47H351.99Z" fill="#E7707B"/>
<path d="M361.16 370.19C359.72 369.99 358.82 370.19 357.92 370.59C357.2 370.79 356.66 371.19 356.3 371.79C355.76 372.79 355.58 373.98 356.12 374.98L356.66 375.98L355.4 375.78C353.78 375.58 351.8 376.98 352.52 377.97L353.96 379.97L351.62 379.17C350.18 378.77 348.56 378.77 346.94 378.97C345.68 378.97 344.06 379.97 344.06 380.17L342.62 381.57C339.74 381.17 339.2 384.36 339.92 387.75C340.64 391.14 342.62 394.13 344.78 396.92C346.4 398.72 347.66 400.71 349.1 402.7L350.9 404.7C353.24 407.09 355.4 408.69 356.48 408.89C359.36 409.49 364.57 406.5 360.43 399.32C363.13 397.92 366.73 394.73 364.21 389.55C367.09 389.95 373.2 385.16 367.09 380.18C367.09 380.18 369.25 374.6 366.55 372.01C365.83 371.21 364.93 370.61 363.49 370.41C362.59 370.21 361.87 370.21 361.15 370.21L361.16 370.19ZM344.94 383.13C347.69 389.35 358.37 398.24 358.37 398.24C358.37 398.24 351.39 396.86 344.94 383.13ZM354.88 381.25C359.96 383.6 362.5 388.99 362.5 388.99C362.5 388.99 357.54 383.13 354.88 381.25ZM357.92 376.68C362.29 376.09 364.51 379.73 364.51 379.73C364.51 379.73 360.96 376.68 357.92 376.68Z" fill="#FFAAA9"/>
<path d="M344.8 396.91C342.64 394.12 340.66 391.13 339.94 387.74C339.22 384.35 339.76 381.16 342.64 381.56L344.08 380.16C344.08 379.96 345.7 378.96 346.96 378.96C348.58 378.76 350.2 378.76 351.64 379.16L353.98 379.96L352.54 377.96C351.82 376.96 353.8 375.57 355.42 375.77L356.68 375.97L356.14 374.97C355.6 373.97 355.78 372.78 356.32 371.78C356.68 371.18 357.22 370.78 357.94 370.58C357.22 370.78 356.5 371.18 355.96 371.98C355.42 372.98 355.24 374.17 355.6 375.17C353.62 374.57 350.92 376.17 351.83 378.36C348.59 377.16 342.84 377.76 342.84 380.15C339.24 379.75 337.09 382.94 339.42 389.72C340.14 391.91 341.94 394.7 344.28 397.5C345.72 399.49 347.34 401.29 348.96 402.88C349.68 403.48 350.4 404.08 350.94 404.68L349.14 402.68C347.7 400.69 346.44 398.69 344.82 396.9L344.8 396.91Z" fill="#736357"/>
<path d="M357.93 376.68C360.97 376.68 364.52 379.73 364.52 379.73C364.52 379.73 362.3 376.09 357.93 376.68Z" fill="#736357"/>
<path d="M354.89 381.26C357.54 383.14 362.51 389 362.51 389C362.51 389 359.97 383.61 354.89 381.26Z" fill="#736357"/>
<path d="M344.95 383.13C351.4 396.85 358.38 398.24 358.38 398.24C358.38 398.24 347.7 389.35 344.95 383.13Z" fill="#736357"/>
<path d="M157.58 365.01C159.02 366.81 160.64 368.4 162.08 370C162.8 370.8 163.52 371.6 164.06 372.39C169.82 378.97 174.67 386.35 178.81 394.13C179.35 392.53 180.07 390.94 180.79 389.54C183.13 384.95 185.83 380.76 188.7 376.58C190.5 373.79 192.47 371 194.45 368.01C198.23 362.42 202 356.64 206.68 351.86C206.68 351.86 206.68 351.66 206.86 351.66C208.12 349.27 216.75 335.71 228.26 326.53H180.6C177.18 330.52 173.95 334.91 171.25 339.49C166.04 347.47 161.36 356.04 157.58 365.01Z" fill="#DBF2E4"/>
<path d="M296.24 410.88C300.19 405.09 305.77 401.11 312.06 399.31C313.14 399.11 314.4 398.71 315.66 398.51C318 391.93 320.33 384.95 323.03 378.57C321.05 373.18 319.97 366.6 322.67 359.43C323.57 356.84 322.13 352.45 322.13 352.45C322.13 352.45 317.82 344.67 318.89 340.49C316.91 340.29 315.11 339.49 313.5 338.1C313.14 337.7 312.6 337.3 312.6 336.9C312.42 336.5 312.6 336.1 312.78 335.9C311.52 335.3 310.44 334.1 309.54 332.91C308.46 331.32 307.74 329.12 307.2 327.13C307.2 326.93 307.02 326.73 307.02 326.53H238.63C250.14 317.35 258.77 303.8 260.03 301.4C255.35 305.99 249.78 309.98 243.66 311.17C235.03 312.76 226.58 309.37 218.48 306.18C216.14 305.18 213.62 304.38 211.29 303.39C208.05 301.99 204.81 300.8 202.3 298.4C200.5 296.81 199.06 294.81 197.26 293.22C194.38 290.63 190.43 289.63 187.73 286.84C184.85 283.85 183.41 279.26 181.43 275.47C180.53 273.87 179.45 272.28 178.73 270.48C177.65 268.09 177.47 265.3 177.29 262.7C176.93 257.31 176.93 251.73 177.83 246.35C178.19 244.55 178.55 242.76 178.91 241.16C178.91 240.96 179.09 240.76 179.09 240.56C180.35 236.77 181.97 233.18 183.95 229.99C184.13 229.79 184.31 229.59 184.31 229.39C190.96 219.02 201.22 211.24 210.93 204.26C213.45 202.47 215.79 200.87 218.13 199.08C220.11 197.68 221.9 196.69 223.88 195.69C224.6 195.29 225.32 194.89 226.04 194.49C226.58 194.29 227.12 193.89 227.66 193.49C228.02 193.49 228.38 193.09 228.74 192.89C229.46 187.11 230 179.53 230.54 173.95C230.72 171.56 230.72 168.76 228.92 167.57C227.84 166.97 226.76 167.17 225.68 167.37C224.42 167.37 223.16 167.37 222.08 167.17C220.1 167.77 217.94 168.17 215.97 168.17C214.17 172.36 212.19 176.35 210.21 180.73C208.77 183.92 207.33 187.11 205.17 189.7C203.73 191.5 201.93 192.89 200.13 194.29C196.71 197.08 193.3 199.67 189.88 202.47C185.2 206.26 180.53 209.85 176.39 214.04C168.66 221.62 162 230.79 157.15 240.76C161.83 240.16 166.32 240.16 170.64 242.15C166.68 247.93 161.11 251.92 154.81 253.72C153.73 253.92 152.47 254.32 151.21 254.52C148.87 261.1 146.54 268.08 143.84 274.46C145.82 279.84 146.9 286.43 144.2 293.6C143.3 296.19 144.74 300.58 144.74 300.58C144.74 300.58 149.06 308.36 147.98 312.55C149.96 312.75 151.76 313.55 153.37 314.94C153.73 315.34 154.27 315.74 154.27 316.13C154.45 316.53 154.27 316.93 154.09 317.13C155.35 317.73 156.43 318.92 157.33 320.12C158.41 321.72 159.13 323.91 159.67 325.9C159.67 326.1 159.85 326.3 159.85 326.5H228.24C216.73 335.67 208.1 349.23 206.84 351.63C211.52 347.04 217.09 343.05 223.21 341.86C231.84 340.26 240.29 343.66 248.39 346.85C250.73 347.85 253.25 348.64 255.59 349.64C258.83 351.04 262.06 352.23 264.58 354.63C266.38 356.23 267.82 358.22 269.62 359.82C272.5 362.41 276.45 363.41 279.15 366.2C282.03 369.19 283.47 373.78 285.45 377.57C286.35 379.16 287.43 380.76 288.15 382.55C289.23 384.94 289.41 387.74 289.59 390.33C289.95 395.71 289.95 401.3 289.05 406.68C288.69 408.48 288.33 410.27 287.97 411.87C287.97 412.07 287.79 412.27 287.79 412.47C286.53 416.26 284.91 419.85 282.93 423.04C282.75 423.24 282.57 423.44 282.57 423.64C275.92 434.01 265.67 441.78 255.95 448.76C253.43 450.56 251.09 452.15 248.76 453.95C246.78 455.35 244.98 456.34 243 457.34C242.28 457.74 241.56 458.14 240.84 458.54C240.3 458.74 239.76 459.14 239.22 459.54C238.86 459.54 238.5 459.94 238.14 460.14C237.42 465.92 236.88 473.5 236.34 479.08C236.16 481.47 236.16 484.26 237.96 485.46C239.04 486.06 240.12 485.86 241.2 485.66C242.46 485.66 243.72 485.66 244.8 485.86C246.78 485.26 248.94 484.86 250.92 484.86C252.72 480.67 254.69 476.68 256.67 472.3C258.11 469.11 259.55 465.92 261.71 463.33C263.15 461.54 264.95 460.14 266.75 458.74C270.17 455.95 273.58 453.36 277 450.56C281.68 446.77 286.35 443.18 290.49 438.99C298.22 431.41 304.88 422.24 309.73 412.27C305.05 412.87 300.56 412.87 296.24 410.88Z" fill="#6F0000"/>
<path d="M194.45 368C192.47 370.99 190.49 373.78 188.7 376.57C185.82 380.76 183.12 384.95 180.79 389.53C180.07 390.93 179.35 392.52 178.81 394.12C179.53 395.52 180.25 396.91 180.97 398.31C184.75 389.74 188.16 387.34 190.86 387.14C196.25 386.54 199.13 393.92 204.53 392.72C209.74 391.72 210.11 383.74 214.6 383.55C219.27 383.35 220.53 391.33 225.75 391.73C231.14 392.13 233.12 384.55 238.16 385.15C239.41 385.32 239.95 386.56 240.72 387.43C245.85 387.54 250.38 389.77 254.04 393.15C257.14 391.58 259.85 389.23 262.8 390.74C267.11 392.73 265.68 399.71 270.35 401.91C274.48 403.9 277.9 399.12 282.76 400.51C284.56 401.11 286.9 402.7 289.05 406.69C289.95 401.3 289.95 395.72 289.59 390.34C289.41 387.75 289.23 384.95 288.15 382.56C287.43 380.77 286.35 379.17 285.45 377.58C283.47 373.79 282.03 369.2 279.15 366.21C276.45 363.42 272.5 362.42 269.62 359.83C267.82 358.23 266.38 356.24 264.58 354.64C262.06 352.25 258.83 351.05 255.59 349.65C253.25 348.65 250.73 347.86 248.39 346.86C240.3 343.67 231.85 340.28 223.21 341.87C217.09 343.07 211.52 347.06 206.84 351.64C206.66 351.64 206.66 351.84 206.66 351.84C201.98 356.62 198.21 362.41 194.43 367.99L194.45 368Z" fill="#237F00"/>
<path d="M218.55 411.47C218.55 398.11 228.26 387.34 240.31 387.34C240.45 387.34 240.57 387.43 240.71 387.43C239.94 386.56 239.4 385.31 238.15 385.15C233.11 384.55 231.14 392.13 225.74 391.73C220.53 391.33 219.26 383.35 214.59 383.55C210.09 383.75 209.73 391.73 204.52 392.72C199.13 393.92 196.25 386.54 190.85 387.14C188.15 387.34 184.73 389.73 180.96 398.31C181.5 399.11 181.86 399.71 182.22 400.5C184.38 404.89 186.36 409.48 188.33 414.06C198.3 411.98 208.57 411.3 218.54 411.48L218.55 411.47Z" fill="#2AA8FF"/>
<path d="M282.75 400.5C277.89 399.1 274.48 403.89 270.34 401.9C265.66 399.71 267.1 392.73 262.79 390.73C259.84 389.22 257.13 391.57 254.03 393.14C258.83 397.56 262.07 403.98 262.07 411.46C262.07 413.45 261.89 415.25 261.53 417.04C261.81 417.1 261.99 417.16 262.27 417.23C266.06 418.12 269.42 418.97 272.42 419.81C273.79 420.19 274.96 420.51 276.14 420.86C278.93 421.7 281.32 422.46 282.93 423.02C284.91 419.83 286.53 416.24 287.79 412.45C287.79 412.25 287.97 412.05 287.97 411.85C288.33 410.25 288.69 408.46 289.05 406.66C286.89 402.67 284.56 401.08 282.76 400.48L282.75 400.5Z" fill="#2AA8FF"/>
<path d="M272.42 419.83C269.42 418.99 266.05 418.13 262.27 417.25C261.99 417.19 261.82 417.13 261.53 417.06C259.73 425.44 253.98 432.21 246.6 434.61C247.86 447.17 244.8 454.15 243 457.34C244.98 456.34 246.78 455.35 248.76 453.95C251.1 452.15 253.44 450.56 255.95 448.76C265.66 441.78 275.91 434.01 282.57 423.64C282.57 423.44 282.75 423.24 282.93 423.04C281.31 422.48 278.93 421.72 276.14 420.88C274.96 420.52 273.79 420.21 272.42 419.83Z" fill="#FFAAA9"/>
<path d="M216.75 453.95C223.4 452.55 228.26 452.75 232.04 453.55C232.94 453.75 233.84 453.95 234.56 454.35C236.9 455.15 238.51 456.14 239.6 456.94C239.78 457.34 240.14 457.54 240.32 457.74C240.32 457.74 246.25 451.56 245 435.01C243.56 435.41 241.94 435.61 240.32 435.61C233.31 435.61 227.01 432.02 223.24 426.24C210.29 440 205.44 454.56 204.72 457.35C207.06 456.55 209.22 455.76 211.2 455.36C213.18 454.76 214.97 454.36 216.77 453.96L216.75 453.95Z" fill="#FFAAA9"/>
<path d="M218.55 411.67C208.66 411.27 198.41 412.07 188.34 414.06C188.52 414.46 188.7 414.86 188.88 415.26C194.46 428.42 198.77 442.38 203.09 456.14C204.71 451.55 209.74 437.6 222.33 424.83C219.99 421.04 218.55 416.46 218.55 411.67Z" fill="#FFAAA9"/>
<path d="M239.59 456.94C238.51 456.14 236.89 455.14 234.55 454.35C233.83 453.95 232.93 453.75 232.03 453.55C228.25 452.75 223.4 452.55 216.74 453.95C214.94 454.35 213.14 454.75 211.17 455.35C209.19 455.75 207.03 456.55 204.69 457.34C204.33 457.54 203.97 457.54 203.61 457.74C203.79 458.14 203.97 458.74 204.15 459.14C204.15 459.34 204.33 459.54 204.33 459.74C204.87 459.54 205.59 459.34 206.13 459.14C210.99 457.94 216.02 457.54 221.06 456.95C226.45 456.55 232.39 456.35 237.07 459.54C237.43 459.54 237.79 459.94 238.15 460.14C238.51 459.94 238.87 459.54 239.23 459.54C239.77 459.14 240.31 458.74 240.85 458.54L240.31 457.74C240.13 457.54 239.77 457.34 239.59 456.94Z" fill="#BF2000"/>
<path d="M261.53 417.06C261.89 415.27 262.07 413.47 262.07 411.48C262.07 403.99 258.84 397.58 254.03 393.16C250.37 389.79 245.83 387.55 240.71 387.44C240.57 387.44 240.45 387.35 240.31 387.35C228.26 387.35 218.55 398.12 218.55 411.48V411.68C218.55 416.47 219.99 421.05 222.33 424.84C209.74 437.6 204.7 451.56 203.09 456.15V456.35C203.27 456.75 203.45 457.35 203.63 457.75C203.99 457.55 204.35 457.55 204.71 457.35C205.43 454.56 210.28 440 223.23 426.24C227.01 432.03 233.3 435.61 240.31 435.61C241.93 435.61 243.55 435.41 244.99 435.01C246.25 451.56 240.31 457.74 240.31 457.74L240.85 458.54C241.57 458.14 242.29 457.74 243.01 457.34C244.81 454.15 247.87 447.17 246.61 434.61C253.98 432.21 259.74 425.43 261.54 417.06H261.53ZM241.31 428.57C241.11 428.94 240.57 428.94 240.38 428.57C238.12 424.22 228.2 414.3 223.85 412.04C223.47 411.84 223.47 411.3 223.85 411.11C228.2 408.85 238.12 398.93 240.38 394.58C240.57 394.2 241.11 394.2 241.31 394.58C243.57 398.93 253.49 408.85 257.84 411.11C258.21 411.3 258.21 411.84 257.84 412.04C253.49 414.3 243.57 424.22 241.31 428.57Z" fill="#BCA827"/>
<path d="M257.84 412.04C258.21 411.84 258.21 411.3 257.84 411.11C253.49 408.85 243.57 398.93 241.31 394.58C241.11 394.2 240.57 394.2 240.38 394.58C238.12 398.93 228.2 408.85 223.85 411.11C223.47 411.3 223.47 411.84 223.85 412.04C228.2 414.3 238.12 424.22 240.38 428.57C240.57 428.94 241.11 428.94 241.31 428.57C243.57 424.22 253.49 414.3 257.84 412.04Z" fill="#EB3000"/>
<path d="M209.6 239.96C209.22 240.15 209.22 240.69 209.6 240.89C213.95 243.15 223.87 253.07 226.13 257.42C226.32 257.8 226.86 257.8 227.06 257.42C229.32 253.07 239.24 243.15 243.59 240.89C243.97 240.7 243.97 240.16 243.59 239.96C239.24 237.7 229.32 227.78 227.06 223.43C226.86 223.05 226.32 223.05 226.13 223.43C223.87 227.78 213.95 237.7 209.6 239.96Z" fill="#EB3000"/>
<defs>
<linearGradient id="paint0_linear_145_2982" x1="380.35" y1="-104.14" x2="109.86" y2="689.73" gradientUnits="userSpaceOnUse">
<stop stop-color="#E1E1E1"/>
<stop offset="0.12" stop-color="#ECECEC"/>
<stop offset="0.32" stop-color="#FAFAFA"/>
<stop offset="0.49" stop-color="white"/>
<stop offset="0.7" stop-color="#FBFBFB"/>
<stop offset="0.85" stop-color="#F2F2F2"/>
<stop offset="0.99" stop-color="#E2E2E2"/>
<stop offset="1" stop-color="#E1E1E1"/>
</linearGradient>
</defs>
</svg>
