<svg width="469" height="649" viewBox="0 0 469 649" fill="none" xmlns="http://www.w3.org/2000/svg">
<path d="M439.41 0.0200195H29.5293C13.4593 0.0200195 0.429688 12.08 0.429688 26.95V621.79C0.429688 636.66 13.4593 648.72 29.5293 648.72H439.41C455.48 648.72 468.509 636.66 468.509 621.79V26.95C468.509 12.08 455.48 0.0200195 439.41 0.0200195Z" fill="url(#paint0_linear_145_3073)"/>
<path d="M79.8299 130.05C73.8099 126.92 60.0801 113.19 56.9501 107.17C56.6801 106.65 55.93 106.65 55.66 107.17C52.53 113.19 38.7996 126.92 32.7796 130.05C32.2596 130.32 32.2596 131.07 32.7796 131.34C38.7996 134.47 52.53 148.2 55.66 154.22C55.93 154.74 56.6801 154.74 56.9501 154.22C60.0801 148.2 73.8099 134.47 79.8299 131.34C80.3499 131.07 80.3499 130.32 79.8299 130.05Z" fill="#EB3000"/>
<path d="M388.86 518C394.88 521.13 408.61 534.86 411.74 540.88C412.01 541.4 412.76 541.4 413.03 540.88C416.16 534.86 429.89 521.13 435.91 518C436.43 517.73 436.43 516.98 435.91 516.71C429.89 513.58 416.16 499.85 413.03 493.83C412.76 493.31 412.01 493.31 411.74 493.83C408.61 499.85 394.88 513.58 388.86 516.71C388.34 516.98 388.34 517.73 388.86 518Z" fill="#EB3000"/>
<path d="M85.7095 87.8001C84.4695 87.0801 83.2293 85.8101 82.0293 84.0201L59.3394 50.5701L74.9395 34.2801C76.7995 32.3601 78.8496 30.8401 81.0396 29.7701C83.1796 28.7101 85.1594 28.1701 86.9194 28.1701H90.1396V22.6201H59.4795V28.1701H62.4194C65.0894 28.1701 66.3595 28.6401 66.9595 29.0401C67.7095 29.5401 68.0693 30.1301 68.0693 30.8901C68.0693 32.0701 67.3996 33.3901 66.0796 34.8301L41.5293 61.0401V31.1801C41.5293 30.3001 41.8094 29.5901 42.3994 29.0301C42.9994 28.4601 43.8593 28.1801 45.0493 28.1801H52.8496V22.6301H18.9395V28.1801H25.1396C27.3696 28.1801 28.3794 28.5801 28.8394 28.9101C29.4194 29.3301 29.6997 29.8901 29.6997 30.6601V86.3901C29.6997 87.1401 29.4594 87.7001 28.9194 88.1501C28.3494 88.6301 27.3996 88.8801 26.0796 88.8801H18.9395V94.4301H52.8496V88.8801H45.0493C43.8793 88.8801 42.8994 88.5801 42.0894 87.9701C41.9494 87.8601 41.5195 87.5201 41.5195 86.4001V69.6201L51.3496 59.1001L69.8594 86.3201C70.1394 86.7601 70.2695 87.1701 70.2695 87.5701C70.2695 87.8801 69.8595 88.1501 69.5195 88.3301C69.1195 88.5301 67.9593 88.8801 64.7593 88.8801H60.1694V94.4301H93.6597V88.8801H90.0996C88.3996 88.8801 86.9197 88.5201 85.6997 87.8101L85.7095 87.8001Z" fill="#EB3000"/>
<path d="M382.979 560.53C384.219 561.25 385.46 562.52 386.66 564.31L409.35 597.76L393.75 614.05C391.89 615.97 389.839 617.49 387.649 618.56C385.509 619.62 383.53 620.16 381.77 620.16H378.549V625.71H409.209V620.16H406.27C403.6 620.16 402.329 619.69 401.729 619.29C400.969 618.79 400.62 618.2 400.62 617.44C400.62 616.26 401.289 614.94 402.609 613.5L427.16 587.29V617.15C427.16 618.03 426.88 618.74 426.29 619.3C425.69 619.87 424.83 620.15 423.64 620.15H415.839V625.7H449.75V620.15H443.549C441.319 620.15 440.31 619.75 439.85 619.42C439.27 619 438.99 618.44 438.99 617.67V561.94C438.99 561.19 439.23 560.63 439.77 560.18C440.34 559.7 441.289 559.45 442.609 559.45H449.75V553.9H415.839V559.45H423.64C424.81 559.45 425.79 559.75 426.6 560.36C426.74 560.47 427.169 560.81 427.169 561.93V578.71L417.339 589.23L398.83 562.01C398.55 561.57 398.419 561.16 398.419 560.76C398.419 560.45 398.829 560.18 399.169 560.01C399.569 559.81 400.73 559.46 403.93 559.46H408.52V553.91H375.029V559.46H378.589C380.289 559.46 381.77 559.82 382.99 560.53H382.979Z" fill="#EB3000"/>
<path d="M173.16 98.1002C163.06 92.8502 140.05 69.8402 134.81 59.7502C134.36 58.8802 133.11 58.8802 132.65 59.7502C127.4 69.8502 104.39 92.8602 94.3 98.1002C93.43 98.5502 93.43 99.8002 94.3 100.26C104.4 105.51 127.41 128.52 132.65 138.61C133.1 139.48 134.35 139.48 134.81 138.61C140.06 128.51 163.06 105.5 173.16 100.26C174.03 99.8102 174.03 98.5602 173.16 98.1002Z" fill="#EB3000"/>
<path d="M373.331 549.16C363.231 543.91 340.221 520.9 334.981 510.81C334.531 509.94 333.28 509.94 332.82 510.81C327.57 520.91 304.561 543.92 294.471 549.16C293.601 549.61 293.601 550.86 294.471 551.32C304.571 556.57 327.58 579.58 332.82 589.67C333.27 590.54 334.521 590.54 334.981 589.67C340.231 579.57 363.231 556.56 373.331 551.32C374.201 550.87 374.201 549.62 373.331 549.16Z" fill="#EB3000"/>
<path d="M298.62 94.1399H298.66L299.689 90.9299L298.27 89.6499L294.18 86.0899L294.27 86.0399L302.62 81.9399L305.04 74.8999L307.049 68.6899L311.589 54.9999L296.339 65.2099L301.089 70.3999C300.779 73.1099 298.67 77.4399 289.06 82.6099C283.04 75.4699 283.439 70.9299 284.669 68.4599L292.169 64.5999L283.52 51.6599L269.25 61.8899L274.37 67.1699C274.3 69.7099 272.729 73.4799 265.129 78.4799C257.549 69.7699 257.619 64.2099 258.779 61.2599L267.959 56.2099L255.74 38.8599L238.79 52.5799L245.839 59.5199C245.969 62.8099 244.369 68.1999 234.549 74.9399C228.609 68.2799 228.33 64.0299 229.14 61.6799L235.66 57.7999L225.109 44.5999L212.799 54.8699L218.79 60.6099C219.15 63.0299 218.14 67.6399 210.06 72.9799C202.51 65.6699 201.739 61.0599 202.419 58.4499L208.569 54.4699L197.1 41.0299V55.4299L197.229 61.7399L197.259 69.0799L204.25 75.1699L198.62 77.9099L197.399 78.5099L197.29 81.9699L232.6 86.2099L298.609 94.1399H298.62ZM276.72 78.4399L284.089 84.8599L275 89.2799L267.629 82.8699L276.72 78.4499V78.4399ZM257.379 81.6199L248.29 86.0399L240.919 79.6299L250.009 75.2099L257.379 81.6299V81.6199ZM221.29 82.7699L213.919 76.3499L223.009 71.9299L230.379 78.3399L221.279 82.7599L221.29 82.7699Z" fill="#FFA500"/>
<path d="M206.34 93.6402C214.63 93.1402 222.75 93.1402 230.54 93.6402C242.64 94.1402 254.24 95.4602 265.51 97.9502C270.98 98.9402 276.28 100.27 281.58 101.76C281.75 101.76 281.58 102.09 281.58 102.09C286.72 103.25 291.36 104.74 296.16 106.56L298.32 96.2902H298.31L298.3 96.3702L196.94 84.2002H196.91L195.09 94.4802H195.26C199.07 94.1502 202.72 93.8202 206.36 93.6502L206.34 93.6402Z" fill="#FFA500"/>
<path d="M298.28 96.37L298.3 96.29L298.67 94.15L298.62 94.14L232.62 86.21L197.3 81.98L196.92 84.2L298.28 96.37Z" fill="#862D26"/>
<path d="M223.02 71.9302L213.92 76.3502L221.29 82.7702L230.39 78.3502L223.02 71.9302Z" fill="#862D26"/>
<path d="M240.92 79.6302L248.28 86.0402L257.38 81.6202L250.01 75.2002L240.92 79.6302Z" fill="#862D26"/>
<path d="M267.63 82.8599L275 89.2799L284.09 84.8599L276.72 78.4399L267.63 82.8599Z" fill="#862D26"/>
<path d="M197.279 69.0901L197.27 69.0801L197.299 75.6001L197.319 78.5501L198.64 77.9201L204.27 75.1801L197.279 69.0901Z" fill="#862D26"/>
<path d="M298.27 89.6402L299.709 90.8902L300.64 88.1302L302.689 81.9502L294.279 86.0302L294.18 86.0802L298.27 89.6402Z" fill="#862D26"/>
<path d="M204.32 307.44C207.17 313.14 210.02 318.36 213.34 321.68H248.46C249.41 316.46 250.361 311.71 251.311 307.44H204.32Z" fill="#505300"/>
<path d="M206.34 93.6401C204.85 95.9601 203.69 98.4401 203.03 101.09H203.2C203.2 101.09 212.64 99.1001 214.63 101.09C216.46 102.92 214.63 103.91 214.63 103.91C214.63 103.91 204.69 103.41 202.7 103.41C202.53 103.91 202.53 104.4 202.37 104.9C202.04 106.39 201.54 107.72 201.04 109.21C200.38 111.7 200.05 114.35 199.88 117C199.38 122.97 198.88 128.93 198.72 134.73C198.55 139.37 198.55 144.17 200.05 148.65C200.55 149.64 201.21 150.8 202.2 150.8C202.7 150.8 203.2 150.47 203.53 150.14C206.35 148.31 208.67 145.5 211.82 144.51C212.98 144.01 214.14 144.01 215.3 143.85C217.95 143.52 220.77 143.35 223.42 143.02C224.41 142.85 225.58 142.69 226.57 143.19C227.4 143.36 228.06 143.85 228.72 144.35C231.37 146.17 234.19 147.66 237.17 148.66C238.5 149.16 239.66 149.49 240.98 149.32C243.8 148.99 245.95 146.67 247.28 144.18C248.77 141.86 249.93 139.04 252.25 137.39C253.41 136.56 254.74 136.07 255.73 135.07C258.05 132.75 257.88 128.77 260.2 126.45C260.86 125.79 261.69 125.29 262.36 124.63C263.69 123.3 264.35 121.15 264.35 119.16C264.35 117.17 263.85 115.19 263.69 113.19C263.19 108.05 264.52 102.92 265.51 97.9501C254.24 95.4601 242.64 94.1401 230.54 93.6401C222.75 93.1401 214.63 93.1401 206.34 93.6401ZM200.91 114.59C200.91 114.59 201.77 110.68 206.52 110.51H207.39C209.12 110.68 210.27 110.68 211.13 110.68C213.29 110.68 213.72 110.51 213.72 110.51C213.72 110.51 214.87 118.67 208.83 118.16C202.64 117.82 200.91 114.59 200.91 114.59ZM228.31 138.34L228.22 138.41L228.04 138.44C225.63 138.81 223.14 139.42 221.01 140.57C219.28 141.92 215.28 143.83 213 140.36C211.13 137.38 211.01 134.24 211.18 130.91C212 126.91 214.76 125.87 216.03 123.53L216.08 123.47C216.52 122.79 216.65 121.07 216.62 119.66C216.62 118.17 216.48 116.66 216.32 115.15C216.09 112.11 215.76 109.05 215.31 106.02C216.14 108.94 216.91 111.9 217.48 114.94C217.71 116.47 217.92 118.01 218 119.6C218 121.2 218.28 122.78 217.26 124.72C217.27 124.7 217.29 124.69 217.3 124.66L217.26 124.72C215.83 127.27 213.29 129.12 213.2 131.25C213.17 133.73 213.63 136.91 214.68 138.81C215.79 140.78 217.99 140.14 220.33 138.73C222.78 137.62 225.25 137.22 227.76 136.99C228.89 136.14 230.1 135 230.38 133.48C230.66 131.87 229.53 130.24 228.33 129.17C229.62 130.02 231.12 131.36 231.11 133.56C230.99 135.71 229.69 137.27 228.31 138.34ZM238.64 118.77C234.83 119.43 229.69 114.64 229.35 113.57C229.01 112.5 229.24 109.84 230.95 110.64C231.54 110.92 233.49 111 235.75 110.99L240.07 110.85C240.07 110.85 240.07 110.89 240.08 110.9C242.99 110.79 245.49 110.64 245.49 110.64C246.62 113.84 242.44 118.1 238.63 118.77H238.64ZM247.53 103.97C241.64 102.39 223.37 104.9 223.37 104.9C223.37 104.9 220.89 104.37 221.11 101.83C227.77 95.8301 249 101.83 249 101.83C249 101.83 250.8 104.23 247.53 103.96V103.97Z" fill="#FB898C"/>
<path d="M176.1 172.26C176.29 174.02 176.86 175.85 177.73 177.38C180.1 178.81 181.049 181.18 181.529 184.03V184.51C182.259 186.7 182.52 189.13 182.99 191.46C183.47 193.12 184.029 194.72 185.259 195.84L185.33 195.91C185.48 196.06 185.719 195.99 185.879 196.12C188.089 197.85 190.94 198.23 193.91 198.41C195.48 198.46 197.06 198.45 198.62 198.76C202.42 199.71 205.739 202.56 210.009 202.56C211.909 202.56 213.81 202.08 216.18 202.08C220.43 202.43 224.41 206.21 228.33 207.33C229.66 207.67 231 207.71 232.35 207.17C233.09 206.92 233.62 206.33 234.24 205.85C234.88 205.32 235.639 204.91 236.109 204.45C238.879 201.68 241.77 198.6 245.08 196.7C245.83 196.24 246.45 195.57 247.27 195.23C249.26 194.4 251.579 194.07 253.569 192.91C255.199 192.01 256.19 190.31 257.37 188.84C258.3 187.66 259.48 186.73 260.33 185.46C262.42 182.77 264.88 180.93 267.21 178.88C268.63 177.59 269.729 175.98 271.299 174.85C273.289 173.52 275.779 172.36 277.759 173.36C279.949 174.5 280.11 176.93 280.16 179.53C280.19 181.49 280.34 183.48 281.08 185.15C281.22 185.46 281.209 185.84 281.399 186.12C282.009 186.85 282.81 187.16 283.6 187.46C283.94 187.58 284.159 187.83 284.529 187.83C284.849 187.99 285.309 187.92 285.649 187.99C286.559 188.13 287.46 188.33 288.37 188.1C290.86 187.44 292.85 185.78 294.83 184.12C297.65 181.97 300.63 179.65 303.45 177.33C304.43 176.57 305.349 175.74 306.279 174.93C306.779 174.5 307.29 174.09 307.79 173.59C307.8 173.59 307.809 173.59 307.819 173.59C309.119 172.13 310.419 170.66 311.399 169.04C313.389 165.73 313.719 161.25 311.399 158.1C310.569 156.94 309.24 155.94 308.419 154.79C306.429 151.81 306.759 147.5 304.609 144.68C303.279 143.02 301.3 142.03 300.47 140.04C298.98 136.89 301.46 132.92 299.64 130.1C298.98 128.94 297.649 128.28 296.819 127.45C293.669 124.3 294.5 119.16 295.66 115.02C296.65 111.05 297.15 108.72 296.16 106.57C291.36 104.75 286.72 103.26 281.58 102.1C281.58 102.1 281.75 101.77 281.58 101.77C276.28 100.28 270.969 98.9499 265.509 97.9599C264.509 102.93 263.19 108.07 263.69 113.2C263.86 115.19 264.35 117.18 264.35 119.17C264.35 121.16 263.689 123.31 262.359 124.64C261.699 125.3 260.87 125.8 260.2 126.46C257.88 128.78 258.05 132.76 255.73 135.08C254.74 136.07 253.41 136.57 252.25 137.4C249.93 139.06 248.769 141.88 247.279 144.19C245.949 146.68 243.8 149 240.98 149.33C239.66 149.5 238.489 149.16 237.169 148.67C234.189 147.67 231.37 146.18 228.72 144.36C228.06 143.86 227.399 143.36 226.569 143.2C225.579 142.7 224.409 142.87 223.419 143.03C220.769 143.36 217.949 143.53 215.299 143.86C214.139 144.03 212.979 144.03 211.819 144.52C208.669 145.51 206.349 148.33 203.529 150.15C203.199 150.48 202.7 150.81 202.2 150.81C201.21 150.81 200.549 149.65 200.049 148.66C198.559 144.18 198.56 139.38 198.72 134.74C198.89 128.94 199.379 122.97 199.879 117.01C200.049 114.36 200.38 111.71 201.04 109.22C201.54 107.73 202.03 106.4 202.37 104.91C202.54 104.41 202.54 103.92 202.7 103.42C204.69 103.42 214.629 103.92 214.629 103.92C214.629 103.92 216.459 102.93 214.629 101.1C212.639 99.1099 203.2 101.1 203.2 101.1H203.029C203.689 98.4499 204.859 95.9599 206.339 93.6499C202.699 93.8199 199.05 94.1499 195.24 94.4799H195.069C189.929 100.11 191.26 109.89 186.45 116.35C185.62 117.51 184.629 118.51 184.129 119.83C182.969 122.65 184.459 125.8 183.799 128.78C182.969 131.76 179.99 133.75 178.33 136.4C174.35 142.03 176.34 149.82 179.49 156.12C180.15 157.61 181.15 159.27 181.48 161.09V164.4C181.31 164.4 180.979 164.57 180.649 164.73C180.479 165.23 180.149 165.56 179.819 165.89C179.159 166.39 178.49 166.55 177.83 167.05C176.37 168.05 176.02 169.69 176.08 171.44C176.08 171.57 175.95 171.65 175.96 171.78C175.97 171.94 176.08 172.1 176.1 172.26ZM213.27 151.92C214.65 151.41 216.11 150.89 217.52 151.29C218.08 151.45 218.599 151.75 219.149 151.91C220.259 152.24 220.289 152.19 221.419 152.01C222.499 151.84 224.11 151.47 225.19 151.66C226.27 151.85 226.82 152.83 227.54 153.8C227.85 154.43 227.949 156.13 227.379 156.39C223.969 157.95 220.669 157.16 217.049 157.79C215.229 158.1 213.4 158.42 211.56 158.3C211.18 158.28 210.749 158.2 210.529 157.82C210.419 157.62 210.39 157.38 210.37 157.15C210.06 154.17 210.87 152.81 213.27 151.91V151.92Z" fill="black"/>
<path d="M186.76 249.53C185.81 244.31 185.33 238.61 184.39 232.92C182.49 214.41 181.54 197.32 181.54 184.5V184.02C181.07 181.17 180.12 178.8 177.74 177.37C176.87 175.85 176.3 174.01 176.11 172.25C176.09 172.08 175.98 171.94 175.97 171.77C175.97 171.64 176.09 171.56 176.09 171.43C176.06 169.69 176.42 168.02 177.74 166.92C178.69 166.44 179.16 166.44 179.64 165.97C180.12 165.49 180.59 165.02 180.59 164.55C177.74 166.45 174.42 168.35 171.57 170.25C165.4 174.05 159.7 178.32 154.48 182.59H154C154 182.59 154 182.7 154.01 182.75C154.06 182.71 154.09 182.66 154.14 182.62C155.61 207.91 160.92 270.48 176.9 308.5C178.92 313.27 181.05 317.81 183.43 321.67H209.54C206.69 317.4 204.32 312.65 201.95 307.43C194.35 290.82 189.61 269.93 186.76 249.52V249.53Z" fill="#FFAAAC"/>
<path d="M111.43 257.26L111.31 256.3L110.93 253.15C110.81 252.19 111.4 251.15 112.49 250.46L112.06 246.91L108.37 247.36C107.97 248.73 107.55 250.07 107.08 251.42C105.52 255.81 103.11 259.88 100.95 264.05C104.13 261.22 107.8 259.16 111.89 257.82C111.78 257.61 111.47 257.52 111.43 257.28V257.26Z" fill="#DF0401"/>
<path d="M111.129 239.21C111.019 239.47 110.829 239.69 110.729 239.96C110.709 240.01 110.7 240.06 110.68 240.1L111.229 240.03L111.129 239.2V239.21Z" fill="#DF0401"/>
<path d="M154.02 182.76C138.68 195.5 127.1 212.01 116.7 228.86C116.37 229.38 116.18 229.92 115.85 230.44L116.93 239.35L125.3 238.34L126.13 245.2L117.76 246.21L118.19 249.76C119.42 250.17 120.35 251.03 120.46 251.99L120.83 255.01L120.94 255.9C121.05 255.9 121.14 255.84 121.25 255.84C135.88 255.84 147.64 266.4 151.24 280.45C151.43 280.4 151.65 280.41 151.83 280.36C152.33 282.02 152.61 283.83 152.71 285.62C152.57 285.66 152.4 285.67 152.26 285.71C152.36 286.76 152.85 287.66 152.85 288.73C152.85 291.65 151.94 294.28 151.25 296.97C151.44 296.92 151.66 296.93 151.86 296.88C151.72 298.22 151.06 299.37 150.56 300.57C150.37 301.07 150.25 301.55 150.04 302.04C149.89 302.31 149.89 302.67 149.73 302.92C149.63 302.95 149.53 302.95 149.43 302.98C144.3 313.91 133.74 321.61 121.26 321.61C111.29 321.61 102.78 316.5 96.9902 308.99C96.7802 308.99 96.5699 309.01 96.3599 309C94.8799 307.5 93.9002 305.78 93.2402 303.96C93.4002 303.96 93.5602 303.95 93.7202 303.95C91.9402 300.48 90.9099 296.7 90.4199 292.62C90.2499 292.62 90.0699 292.63 89.8999 292.63C89.6999 292.83 89.5501 290.4 89.6201 288.75C85.1101 299.45 81.3398 310.44 80.0898 321.83H183.49C181.1 317.92 178.95 313.34 176.92 308.51C160.94 270.49 155.63 207.92 154.16 182.63C154.11 182.67 154.08 182.72 154.03 182.76H154.02Z" fill="#DF0401"/>
<path d="M353.359 308.86C352.879 311.71 351.459 316.93 348.609 321.68H358.58C358.1 317.41 356.68 313.14 354.31 309.81C353.99 309.49 353.673 309.173 353.359 308.86Z" fill="#DF0401"/>
<path d="M374.72 234.34C369.5 222 362.85 210.13 356.21 198.74C355.73 197.32 354.78 196.37 354.31 195.42C353.83 194.94 353.36 194.47 352.41 194C352.26 193.92 352.11 193.8 351.96 193.7C350.06 198.74 348.2 203.68 346.45 208.3C340.11 225.05 334.97 238.48 333.09 243.39L329.25 241.62L333.07 243.42L346.43 249.65C346.43 249.65 346.43 249.63 346.45 249.63C347.06 249.15 347.72 248.95 348.37 248.7C349.62 248.22 350.9 248.02 352.13 248.45C355.68 249.69 357.25 254.26 355.68 258.76C354.61 261.81 352.37 263.87 349.95 264.57C348.8 264.9 347.63 265.02 346.49 264.62C344.61 263.97 343.3 262.36 342.78 260.16C342.23 258.38 342.33 256.41 343.05 254.36C343.05 254.36 343.05 254.36 343.04 254.38C342.31 256.48 342.27 258.44 342.77 260.19L330.34 257.23C328.86 256.86 327.44 257.84 326.42 259.27C326.82 259.51 327.38 259.76 327.73 259.99C328.68 260.94 329.63 261.89 330.1 262.36C333.9 267.58 337.7 279.45 337.7 279.45C337.7 279.45 340.55 286.1 343.87 289.42C345.77 287.52 348.62 287.04 350.99 287.52C353.84 288 356.21 289.42 358.59 290.84C368.56 297.01 377.1 306.5 379.48 317.9C379.96 319.33 379.96 320.75 380.43 321.7H396.09C394.67 298.44 388.5 275.66 381.38 252.87C379.48 246.7 377.11 240.53 374.73 234.36L374.72 234.34Z" fill="#DF0401"/>
<path d="M315.66 237.73L319.64 238.72L323.35 239.6L319.61 238.68C320.38 236.22 321.86 231.54 323.76 225.57C323.78 225.52 323.8 225.45 323.82 225.4C327.02 215.33 331.6 200.99 336.57 185.6C334.93 184.72 333.3 183.84 331.53 183.08C331.05 183.08 331.05 182.61 331.05 182.61C326.34 192.6 317.97 211.88 309.96 236.4L315.65 237.74L315.66 237.73Z" fill="#DF0401"/>
<path d="M312.061 302.22C312.061 301.74 311.59 301.74 311.59 301.27C311.52 301.18 311.421 301.16 311.351 301.07L311.221 301.43C312.531 303.71 313.101 306.38 312.141 309.12C310.441 314 305.25 316.64 300.55 315C295.85 313.36 293.43 308.07 295.13 303.19C296.11 300.39 298.29 298.68 300.8 297.73L301.721 295.09H299.241C298.291 293.66 295.921 288.44 299.721 285.12C301.141 283.7 303.041 284.17 304.471 284.64C304.731 284.77 304.981 284.9 305.241 285.03L305.791 283.45C305.641 283.4 305.58 283.27 305.42 283.22C303.99 282.27 302.101 281.79 300.201 281.79C297.831 282.27 298.781 275.62 302.581 276.57C304.481 276.57 305.901 277.05 307.331 277.52C307.491 277.55 307.651 277.64 307.811 277.68L308.971 274.36C308.901 274.3 308.83 274.25 308.75 274.2C305.9 272.3 303.05 270.4 303.05 270.4C303.05 270.4 298.781 265.65 306.851 264.23C308.731 264.7 310.14 265.17 312.01 265.64L313 262.8C310.16 261.38 307.32 259.96 305.42 259.96C301.62 259.48 305.901 252.36 308.741 252.36C309.841 252.36 312.11 253.28 314.26 254.2C313.97 253.12 314.281 251.7 313.331 251.27L308.51 249L306.351 248C302.011 262.66 297.911 278.39 294.971 296.03C294.491 297.93 294.021 300.3 294.021 302.68C294.021 302.68 292.591 311.22 291.641 318.82V321.67H314.9C314.42 316.45 316.321 310.75 317.271 308.38C315.841 306.48 313.95 304.11 312.05 302.21L312.061 302.22Z" fill="#DF0401"/>
<path d="M294.03 302.69C294.03 300.32 294.5 297.94 294.98 296.04C297.92 278.39 302.02 262.67 306.36 248.01L301.65 245.83C301.65 245.83 301.63 245.85 301.62 245.86C299.84 247.26 297.81 247.7 295.83 247.01C292.38 245.8 290.82 241.23 292.38 236.74C293.95 232.25 298.02 229.64 301.47 230.85C303.42 231.53 304.7 233.11 305.24 235.24C305.25 235.28 305.28 235.3 305.29 235.34C305.29 235.33 305.29 235.3 305.29 235.29L309.97 236.39C317.97 211.87 326.34 192.59 331.06 182.6C323.48 178.81 315.88 175.02 307.83 173.59C307.82 173.59 307.81 173.59 307.8 173.59C307.3 174.09 306.79 174.51 306.29 174.93C305.37 175.71 304.45 176.46 303.53 177.38C300.68 179.76 297.83 182.13 294.99 184.03C293.09 185.93 290.72 187.35 288.34 188.3H287.87C282.65 200.64 262.24 252.38 255.12 321.68H291.67V318.83C292.62 311.23 294.05 302.69 294.05 302.69H294.03Z" fill="#FFAAAC"/>
<path d="M305.02 241.1C305.48 239.77 305.3 238.42 305.2 237.09C305.31 238.39 305.5 239.69 305.01 241.11L305.02 241.1Z" fill="#F6F3F6"/>
<path d="M285.65 187.98C285.31 187.91 284.85 187.98 284.53 187.82C284.16 187.82 283.94 187.57 283.6 187.45C283.07 187.27 282.44 187.16 282.16 186.87C277.89 197.79 265.07 231.01 251.31 307.44C250.36 311.71 249.41 316.46 248.46 321.68H255.11C262.23 252.38 282.64 200.64 287.86 188.3C286.91 188.3 286.32 188.12 285.65 187.98Z" fill="#DF0401"/>
<path d="M183.43 193.99V193.51C183.21 192.86 183.13 192.13 182.99 191.44C182.52 189.12 182.259 186.69 181.529 184.49C181.529 197.31 182.479 214.39 184.379 232.91C185.329 238.61 185.8 244.3 186.75 249.52C189.6 269.93 194.339 290.82 201.939 307.43C204.309 312.65 206.689 317.4 209.529 321.67H213.33C210.01 318.35 207.16 313.13 204.31 307.43C189.6 274.68 184.849 212.5 183.419 193.99H183.43Z" fill="#DF0401"/>
<path d="M281.089 185.14C280.349 183.47 280.199 181.48 280.169 179.52C280.119 176.95 279.929 174.6 277.899 173.58C275.999 172.15 273.15 173.58 271.25 175C269.67 176.05 268.579 177.66 267.209 178.86C264.879 180.92 262.42 182.75 260.33 185.44C259.48 186.71 258.3 187.64 257.37 188.82C256.21 190.29 255.26 191.98 253.68 193.03C251.78 193.98 249.409 194.46 247.029 195.4C246.309 195.64 245.75 196.29 245.08 196.67C241.77 198.56 238.879 201.65 236.109 204.42C235.639 204.89 234.88 205.3 234.24 205.82C233.58 206.36 233.03 207.03 232.31 207.27C230.99 207.75 229.66 207.67 228.33 207.3C224.41 206.19 220.43 202.41 216.18 202.05C213.81 202.05 211.909 202.53 210.009 202.53C205.739 202.53 202.41 199.68 198.62 198.73C197.06 198.42 195.49 198.43 193.91 198.38C190.9 198.28 188.059 197.92 185.879 196.09C185.719 195.96 185.48 196.03 185.33 195.88L185.259 195.81C184.799 195.32 184.35 194.44 183.43 193.98C184.85 212.49 189.599 274.67 204.319 307.42H251.31C265.07 231 277.89 197.77 282.16 186.85C281.84 186.53 281.523 186.213 281.209 185.9C281.069 185.68 281.19 185.35 281.08 185.11L281.089 185.14ZM260.54 250.68C251.99 255.12 232.499 274.62 228.049 283.17C227.669 283.91 226.61 283.91 226.22 283.17C221.78 274.62 202.279 255.13 193.729 250.68C192.989 250.3 192.989 249.24 193.729 248.85C202.279 244.41 221.77 224.91 226.22 216.36C226.6 215.62 227.659 215.62 228.049 216.36C232.489 224.91 251.99 244.4 260.54 248.85C261.28 249.23 261.28 250.29 260.54 250.68Z" fill="#7FFFE4"/>
<path d="M211.56 158.31C213.4 158.43 215.23 158.11 217.05 157.8C220.67 157.17 223.97 157.97 227.38 156.4C227.96 156.14 227.86 154.44 227.54 153.81C226.82 152.84 226.27 151.86 225.19 151.67C224.11 151.48 222.5 151.85 221.42 152.02C220.29 152.2 220.26 152.24 219.15 151.92C218.6 151.75 218.07 151.45 217.52 151.3C216.11 150.9 214.65 151.42 213.27 151.93C210.88 152.83 210.07 154.18 210.37 157.17C210.39 157.4 210.42 157.64 210.53 157.84C210.74 158.21 211.18 158.29 211.56 158.32V158.31Z" fill="#9C5F59"/>
<path d="M107.11 287.01C122.31 286.03 137.14 283.99 151.22 280.45C147.62 266.4 135.86 255.84 121.23 255.84C121.12 255.84 121.03 255.9 120.92 255.9V255.98C121.14 257.76 119.1 259.4 116.55 259.71C114.33 259.98 112.59 259.15 111.88 257.8C107.79 259.14 104.12 261.2 100.94 264.03C94.4999 269.76 90.3102 277.91 89.9102 287.31C95.6402 287.31 101.54 287.33 107.1 287.01H107.11Z" fill="#FFE500"/>
<path d="M123.521 291.15C120.041 291.48 116.721 291.81 113.241 291.98C112.581 292.15 111.92 292.15 111.25 292.15C104.46 292.64 97.3604 292.62 90.4004 292.62C90.8804 296.69 91.9207 300.47 93.7007 303.95C98.1807 303.95 102.79 303.91 107.11 303.59C122.31 302.61 137.15 300.52 151.23 296.97C151.92 294.27 152.831 291.65 152.831 288.73C152.831 287.66 152.341 286.75 152.241 285.71C143.751 287.98 134.791 289.86 125.831 290.83L123.51 291.16L123.521 291.15ZM98.3403 301.84C96.3703 302.08 94.5403 300.39 94.2603 298.06C93.9803 295.73 95.3503 293.65 97.3203 293.41C99.2903 293.17 101.12 294.87 101.4 297.19C101.68 299.52 100.31 301.6 98.3403 301.84ZM107.23 299.49C106.33 299.6 105.501 298.83 105.371 297.77C105.241 296.71 105.871 295.77 106.771 295.66C107.671 295.55 108.5 296.32 108.63 297.38C108.76 298.44 108.131 299.39 107.241 299.49H107.23ZM117.201 301.26C115.231 301.5 113.401 299.81 113.121 297.48C112.841 295.15 114.211 293.07 116.181 292.83C118.151 292.59 119.98 294.29 120.26 296.61C120.54 298.94 119.171 301.02 117.201 301.26ZM146.101 290.27C146.931 290.17 147.7 290.88 147.82 291.87C147.94 292.85 147.36 293.73 146.53 293.83C145.7 293.93 144.931 293.22 144.811 292.23C144.691 291.24 145.271 290.37 146.101 290.27ZM135.681 290.29C137.681 290.05 139.53 291.77 139.82 294.13C140.1 296.49 138.721 298.6 136.721 298.84C134.721 299.08 132.871 297.37 132.581 295.01C132.301 292.65 133.69 290.54 135.69 290.3L135.681 290.29ZM128.01 295.74C128.13 296.76 127.53 297.67 126.67 297.77C125.81 297.87 125.011 297.13 124.891 296.12C124.771 295.11 125.37 294.2 126.23 294.09C127.09 293.99 127.89 294.73 128.01 295.74Z" fill="#FFE500"/>
<path d="M123.52 307.72C120.04 308.05 116.72 308.38 113.24 308.55C112.58 308.72 111.92 308.72 111.25 308.72C106.65 309.04 101.73 309.12 96.96 308.98C102.75 316.49 111.26 321.6 121.23 321.6C133.71 321.6 144.26 313.91 149.4 302.97C141.7 304.92 133.85 306.41 125.83 307.39L123.51 307.72H123.52Z" fill="#FFE500"/>
<path d="M150.53 300.56C150.33 301.04 150.26 301.58 150.01 302.03C150.22 301.55 150.34 301.06 150.53 300.56Z" fill="#FFE500"/>
<path d="M112.491 250.45L112.721 252.37C113.101 252.6 113.471 252.7 113.831 252.79C114.911 252.94 116.091 252.93 117.201 252.38C117.651 252.19 117.981 252.01 118.411 251.68L118.181 249.76L117.75 246.21L126.121 245.2L125.291 238.34L116.92 239.35L115.84 230.44L115.741 229.61L110.041 230.3L111.121 239.21L111.221 240.04L110.67 240.11L102.971 241.04L103.8 247.9L108.36 247.35L112.05 246.9L112.48 250.45H112.491Z" fill="#FFA500"/>
<path d="M118.78 254.7C118.56 254.87 118.45 254.88 118.23 255.04C117.56 255.4 116.89 255.62 116.07 255.72C115.37 255.8 114.66 255.75 114.04 255.55C113.67 255.46 113.31 255.36 113.06 255.25C112.83 255.28 112.58 255.17 112.45 255.05C111.59 254.74 111.02 253.97 110.92 253.15L111.3 256.3L111.42 257.26C111.46 257.5 111.77 257.59 111.88 257.8C112.59 259.14 114.33 259.98 116.55 259.71C119.11 259.4 121.15 257.76 120.93 255.98V255.9L120.81 255.01L120.44 251.99C120.54 252.81 120.17 253.69 119.41 254.2C119.2 254.37 118.98 254.53 118.76 254.7H118.78Z" fill="#FFA500"/>
<path d="M117.2 252.39C116.09 252.94 114.91 252.95 113.83 252.8C113.46 252.7 113.1 252.61 112.72 252.38L112.49 250.46C111.39 251.15 110.81 252.19 110.93 253.15C111.03 253.97 111.589 254.74 112.459 255.05C112.589 255.17 112.839 255.28 113.069 255.25C113.319 255.36 113.679 255.46 114.049 255.55C114.659 255.76 115.38 255.81 116.08 255.72C116.89 255.62 117.57 255.4 118.24 255.04C118.45 254.87 118.569 254.86 118.789 254.7C118.999 254.53 119.219 254.37 119.439 254.2C120.199 253.69 120.57 252.81 120.47 251.99C120.35 251.03 119.42 250.17 118.2 249.76L118.43 251.68C118 252.01 117.67 252.19 117.22 252.38L117.2 252.39Z" fill="#AA8100"/>
<path d="M89.8793 292.62C90.0493 292.62 90.2293 292.61 90.3993 292.61C97.3593 292.61 104.459 292.63 111.249 292.14C111.909 292.14 112.57 292.14 113.24 291.97C116.72 291.8 120.029 291.47 123.519 291.14L125.839 290.81C134.799 289.83 143.759 287.95 152.249 285.69C152.399 285.65 152.56 285.64 152.7 285.6C152.6 283.82 152.319 282 151.819 280.34C151.629 280.39 151.409 280.38 151.229 280.43C137.139 283.98 122.319 286.02 107.119 286.99C101.559 287.31 95.6595 287.29 89.9295 287.29C89.8495 287.29 89.7595 287.29 89.6795 287.29C89.5795 287.46 89.6292 288.21 89.6092 288.72C89.5392 290.37 89.6895 292.8 89.8895 292.6L89.8793 292.62Z" fill="#E9B100"/>
<path d="M93.7007 303.94C93.5407 303.94 93.3807 303.95 93.2207 303.95C93.8807 305.77 94.8603 307.49 96.3403 308.99C96.5503 308.99 96.7607 308.97 96.9707 308.98C101.741 309.12 106.66 309.03 111.26 308.72C111.92 308.72 112.58 308.72 113.25 308.55C116.73 308.38 120.04 308.05 123.53 307.72L125.851 307.39C133.871 306.41 141.72 304.92 149.42 302.97C149.52 302.95 149.621 302.94 149.721 302.91C149.881 302.65 149.89 302.3 150.03 302.03C150.28 301.58 150.35 301.04 150.55 300.56C151.05 299.35 151.711 298.21 151.851 296.87C151.661 296.92 151.441 296.91 151.241 296.96C137.171 300.51 122.321 302.6 107.121 303.58C102.801 303.9 98.1904 303.94 93.7104 303.94H93.7007Z" fill="#E9B100"/>
<path d="M97.32 293.41C95.35 293.65 93.9799 295.73 94.2599 298.06C94.5399 300.39 96.37 302.08 98.34 301.84C100.31 301.6 101.68 299.52 101.4 297.19C101.12 294.86 99.29 293.17 97.32 293.41Z" fill="#E9B100"/>
<path d="M116.19 292.83C114.22 293.07 112.85 295.15 113.13 297.48C113.41 299.81 115.24 301.5 117.21 301.26C119.18 301.02 120.55 298.94 120.27 296.61C119.99 294.28 118.16 292.59 116.19 292.83Z" fill="#E9B100"/>
<path d="M136.72 298.84C138.72 298.6 140.11 296.49 139.82 294.13C139.53 291.77 137.68 290.05 135.68 290.29C133.68 290.53 132.29 292.64 132.57 295C132.86 297.36 134.71 299.08 136.71 298.83L136.72 298.84Z" fill="#E9B100"/>
<path d="M105.371 297.77C105.501 298.83 106.331 299.6 107.231 299.49C108.131 299.38 108.751 298.44 108.621 297.38C108.491 296.32 107.66 295.55 106.76 295.66C105.86 295.77 105.241 296.72 105.361 297.77H105.371Z" fill="#E9B100"/>
<path d="M147.82 291.86C147.7 290.88 146.931 290.16 146.101 290.26C145.271 290.36 144.691 291.24 144.811 292.22C144.931 293.2 145.7 293.92 146.53 293.82C147.36 293.72 147.94 292.84 147.82 291.86Z" fill="#E9B100"/>
<path d="M126.69 297.77C127.55 297.67 128.149 296.76 128.029 295.74C127.909 294.73 127.11 293.98 126.25 294.09C125.39 294.19 124.79 295.1 124.91 296.12C125.03 297.14 125.83 297.88 126.69 297.77Z" fill="#E9B100"/>
<path d="M221.1 101.85C220.87 104.38 223.36 104.92 223.36 104.92C223.36 104.92 241.63 102.41 247.52 103.99C250.79 104.26 248.99 101.86 248.99 101.86C248.99 101.86 227.76 95.86 221.1 101.86V101.85Z" fill="black"/>
<path d="M240.93 113.57C240.93 115.78 239.35 117.65 237.47 117.65C235.59 117.65 234.02 115.78 234.02 113.57C234.02 112.55 234.31 111.7 234.88 111.02L235.74 110.99C233.48 110.99 231.53 110.92 230.94 110.64C229.23 109.84 229 112.51 229.34 113.57C229.68 114.64 234.82 119.43 238.63 118.77C242.44 118.1 246.62 113.84 245.49 110.64C245.49 110.64 242.99 110.79 240.08 110.9C240.64 111.58 240.93 112.57 240.93 113.57Z" fill="#CCCCCC"/>
<path d="M234.02 113.57C234.02 115.78 235.6 117.65 237.47 117.65C239.34 117.65 240.93 115.78 240.93 113.57C240.93 112.57 240.64 111.58 240.08 110.9C240.08 110.89 240.079 110.86 240.069 110.85L235.75 110.99L234.89 111.02C234.31 111.7 234.029 112.55 234.029 113.57H234.02Z" fill="black"/>
<path d="M213.72 110.51C213.72 110.51 213.29 110.68 211.13 110.68C211.85 111.53 212.14 112.55 212.14 113.57C212.14 115.78 210.7 117.65 208.83 117.65C206.96 117.65 205.37 115.78 205.37 113.57C205.37 112.38 205.8 111.36 206.52 110.51C201.77 110.68 200.91 114.59 200.91 114.59C200.91 114.59 202.64 117.82 208.83 118.16C214.88 118.67 213.72 110.51 213.72 110.51Z" fill="#CCCCCC"/>
<path d="M208.83 117.65C210.7 117.65 212.14 115.78 212.14 113.57C212.14 112.55 211.85 111.53 211.13 110.68C210.26 110.68 209.11 110.68 207.39 110.51H206.52C205.8 111.36 205.37 112.38 205.37 113.57C205.37 115.78 206.95 117.65 208.83 117.65Z" fill="black"/>
<path d="M230.379 133.47C230.099 134.99 228.879 136.13 227.759 136.98C225.249 137.21 222.779 137.61 220.329 138.72C217.989 140.13 215.79 140.77 214.68 138.8C213.63 136.9 213.17 133.72 213.2 131.24C213.28 129.11 215.829 127.26 217.259 124.71C218.289 122.77 217.999 121.19 217.999 119.59C217.919 118 217.709 116.46 217.479 114.93C216.909 111.89 216.139 108.93 215.309 106.01C215.759 109.04 216.099 112.1 216.319 115.14C216.479 116.65 216.609 118.16 216.619 119.65C216.639 121.06 216.519 122.78 216.079 123.46L216.029 123.52C214.759 125.86 212 126.9 211.18 130.9C211.01 134.24 211.119 137.37 212.999 140.35C215.279 143.82 219.279 141.91 221.009 140.56C223.149 139.41 225.629 138.8 228.039 138.43L228.22 138.4L228.309 138.33C229.689 137.26 230.999 135.7 231.109 133.55C231.119 131.35 229.619 130 228.329 129.16C229.529 130.23 230.659 131.86 230.379 133.47Z" fill="black"/>
<path d="M217.29 124.66C217.29 124.66 217.26 124.69 217.25 124.72L217.29 124.66Z" fill="black"/>
<path d="M228.05 216.36C227.67 215.62 226.61 215.62 226.22 216.36C221.78 224.91 202.28 244.4 193.73 248.85C192.99 249.23 192.99 250.29 193.73 250.68C202.28 255.12 221.77 274.62 226.22 283.17C226.6 283.91 227.66 283.91 228.05 283.17C232.49 274.62 251.99 255.13 260.54 250.68C261.28 250.3 261.28 249.24 260.54 248.85C251.99 244.41 232.5 224.91 228.05 216.36Z" fill="#EB3000"/>
<path d="M323.759 225.57C321.859 231.54 320.379 236.22 319.609 238.68L323.35 239.6L326.6 240.37L329.25 241.62L333.089 243.39C334.969 238.48 340.11 225.05 346.45 208.3C348.2 203.68 350.069 198.74 351.959 193.7C367.019 153.71 385.409 103.92 386.569 96.1398C389.099 79.4698 396.169 41.0698 396.169 41.0698C396.169 41.0698 377.71 75.4898 369.33 90.1198C365.72 96.4998 350.989 140.95 338.379 179.94C337.739 181.93 337.19 183.64 336.56 185.59C331.59 200.99 327.01 215.32 323.81 225.39C323.79 225.45 323.77 225.51 323.75 225.56L323.759 225.57Z" fill="#A19FE5"/>
<path d="M305.21 285.13C306.52 285.94 308.81 287.57 309.22 287.97C309.7 288.45 310.65 289.4 311.12 289.87L312.54 290.82C312.54 290.82 312.06 290.34 312.06 289.87C312.06 289.4 311.59 288.92 311.59 288.45C310.68 287.09 308.83 284.52 305.79 283.46L305.24 285.04L305.21 285.14V285.13Z" fill="black"/>
<path d="M306.73 297.31C308.8 298.03 310.201 299.65 311.221 301.43L311.351 301.07C309.521 298.82 307.7 296.96 305.42 296.05C304.47 295.58 303.99 295.1 303.05 295.1H301.73L300.811 297.74C302.691 297.03 304.72 296.62 306.73 297.32V297.31Z" fill="black"/>
<path d="M312.06 265.67C313.49 266.14 315.86 267.09 318.71 268.52C318.71 267.09 315.86 265.2 313.01 262.82C313.01 262.82 313 262.82 312.99 262.82L312 265.66C312 265.66 312.04 265.67 312.06 265.68V265.67Z" fill="black"/>
<path d="M314.44 279.91C317.23 280.38 312.72 277.18 308.96 274.38L307.8 277.7C310.01 278.2 312.22 279.02 314.44 279.91Z" fill="black"/>
<path d="M326.6 240.37L323.35 239.6L319.64 238.72L315.66 237.73L309.97 236.39L305.29 235.29C305.29 235.29 305.29 235.33 305.29 235.34C305.46 235.88 305.16 236.52 305.21 237.09C305.31 238.43 305.49 239.77 305.03 241.1C305.03 241.11 305.03 241.12 305.03 241.14C304.32 243.17 303.19 244.76 301.68 245.8C301.68 245.8 301.67 245.81 301.66 245.82L306.37 248L308.53 249L313.35 251.27C314.3 251.71 313.99 253.13 314.28 254.2C314.9 254.47 315.24 254.41 315.88 254.73C319.63 255.56 323.56 257.49 326.44 259.23C327.45 257.81 328.87 256.83 330.36 257.19L342.79 260.15C342.28 258.4 342.32 256.44 343.06 254.34C343.06 254.34 343.06 254.34 343.07 254.32C343.07 254.32 343.07 254.32 343.07 254.31C343.78 252.27 344.92 250.67 346.45 249.62L333.09 243.39L329.27 241.59L326.62 240.34L326.6 240.37Z" fill="black"/>
<path d="M305.02 241.15C305.02 241.15 305.02 241.13 305.02 241.11C305.51 239.69 305.32 238.39 305.21 237.09C305.16 236.52 305.46 235.88 305.29 235.35C305.29 235.35 305.25 235.29 305.24 235.25C304.7 233.11 303.42 231.53 301.47 230.86C298.02 229.65 293.95 232.26 292.38 236.75C290.81 241.24 292.38 245.82 295.83 247.02C297.81 247.71 299.85 247.27 301.62 245.87C301.62 245.87 301.64 245.85 301.65 245.84C301.65 245.84 301.66 245.83 301.67 245.82C303.18 244.77 304.31 243.19 305.02 241.16V241.15Z" fill="#E17254"/>
<path d="M343.04 254.35C342.33 256.4 342.22 258.37 342.77 260.15C343.3 262.34 344.61 263.95 346.48 264.61C347.62 265.01 348.79 264.89 349.94 264.56C352.37 263.86 354.61 261.8 355.67 258.75C357.23 254.26 355.67 249.69 352.12 248.44C350.89 248.01 349.61 248.21 348.36 248.69C347.71 248.94 347.05 249.14 346.44 249.62C346.44 249.62 346.44 249.64 346.42 249.64C344.89 250.69 343.75 252.29 343.04 254.33C343.04 254.33 343.04 254.33 343.04 254.34V254.35Z" fill="#E17254"/>
<path d="M300.81 297.73C298.3 298.67 296.12 300.39 295.14 303.19C293.44 308.07 295.86 313.36 300.56 315C305.26 316.64 310.44 314.01 312.15 309.12C313.11 306.38 312.54 303.71 311.23 301.43C310.2 299.64 308.8 298.03 306.74 297.31C304.73 296.61 302.7 297.03 300.82 297.73H300.81Z" fill="#E17254"/>
<path d="M358.58 290.82C356.21 289.4 353.83 287.97 350.98 287.5C348.61 287.02 345.76 287.5 343.86 289.4C343.86 289.4 343.38 289.87 343.38 290.35C342.9 290.35 342.9 290.83 342.9 290.83C341 294.15 342.42 298.43 345.27 301.27C345.75 301.74 346.22 302.22 346.7 302.69C346.22 304.12 345.75 305.06 345.27 306.49C344.32 308.39 343.37 310.76 342.42 312.66C340.52 316.46 338.15 320.73 333.88 321.68H348.59C351.44 316.93 352.86 311.71 353.34 308.86C353.653 309.18 353.97 309.497 354.29 309.81C356.66 313.13 358.09 317.4 358.56 321.68H380.39C379.92 320.73 379.92 319.31 379.44 317.88C377.07 306.49 368.52 296.99 358.55 290.82H358.58Z" fill="#FFAAAC"/>
<path d="M342.44 312.66C343.39 310.76 344.34 308.39 345.29 306.49C345.77 305.06 346.24 304.12 346.72 302.69C346.24 302.21 345.77 301.74 345.29 301.27C342.44 298.42 341.02 294.15 342.92 290.83C342.92 290.83 342.92 290.35 343.4 290.35C343.4 289.87 343.88 289.4 343.88 289.4C340.56 286.08 337.71 279.43 337.71 279.43C337.71 279.43 333.91 267.56 330.11 262.34C329.64 261.86 328.69 260.91 327.74 259.97C327.4 259.74 326.83 259.49 326.43 259.25C323.55 257.51 319.63 255.58 315.87 254.75C315.23 254.43 314.9 254.48 314.27 254.22C312.12 253.3 309.85 252.38 308.75 252.38C305.9 252.38 301.63 259.5 305.43 259.98C307.32 259.98 310.16 261.4 313.01 262.82C313.01 262.82 313.02 262.82 313.03 262.82C315.88 265.19 318.73 267.09 318.73 268.52C315.88 267.09 313.51 266.14 312.08 265.67C312.06 265.67 312.04 265.66 312.02 265.65C310.15 265.18 308.74 264.71 306.86 264.24C298.79 265.67 303.06 270.41 303.06 270.41C303.06 270.41 305.91 272.31 308.76 274.21C308.83 274.27 308.9 274.32 308.98 274.37C312.73 277.18 317.25 280.37 314.46 279.9C312.25 279.01 310.03 278.18 307.82 277.69C307.66 277.65 307.5 277.56 307.34 277.53C305.92 277.05 304.49 276.58 302.59 276.58C298.79 275.63 297.84 282.28 300.21 281.8C302.11 281.8 304.01 282.28 305.43 283.23C305.59 283.27 305.65 283.4 305.8 283.46C308.84 284.53 310.69 287.1 311.6 288.45C311.6 288.93 312.07 289.4 312.07 289.87C312.07 290.34 312.55 290.82 312.55 290.82L311.13 289.87C310.65 289.4 309.7 288.45 309.23 287.97C308.83 287.56 306.53 285.94 305.22 285.13C305 284.99 304.62 284.72 304.48 284.65C303.06 284.17 301.16 283.7 299.73 285.13C295.93 288.45 298.3 293.67 299.25 295.1H303.05C304 295.1 304.47 295.58 305.42 296.05C307.7 296.96 309.53 298.83 311.35 301.07C311.42 301.16 311.52 301.18 311.59 301.27C311.59 301.74 312.06 301.74 312.06 302.22C313.96 304.12 315.86 306.49 317.28 308.39C319.18 310.76 321.08 312.66 322.98 315.04C326.3 318.36 329.15 321.69 332.95 321.69H333.9C338.17 320.74 340.55 316.47 342.44 312.67V312.66Z" fill="#FB898C"/>
<path d="M317.29 308.39C316.34 310.76 314.44 316.46 314.92 321.68H332.95C329.15 321.68 326.31 318.36 322.98 315.03C321.08 312.66 319.18 310.76 317.28 308.38L317.29 308.39Z" fill="#FFAAAC"/>
<path d="M177.53 549.37H177.491L176.46 552.58L177.88 553.86L181.971 557.42L181.88 557.47L173.53 561.57L171.11 568.61L169.101 574.82L164.561 588.51L179.811 578.3L175.061 573.11C175.371 570.4 177.48 566.07 187.09 560.9C193.11 568.04 192.71 572.58 191.48 575.05L183.98 578.91L192.63 591.85L206.9 581.62L201.78 576.34C201.85 573.8 203.421 570.03 211.021 565.03C218.601 573.74 218.531 579.3 217.371 582.25L208.19 587.3L220.411 604.65L237.36 590.93L230.311 583.99C230.181 580.7 231.781 575.31 241.601 568.57C247.541 575.23 247.82 579.48 247.01 581.83L240.491 585.71L251.041 598.91L263.351 588.64L257.36 582.9C257 580.48 258.01 575.87 266.09 570.53C273.64 577.84 274.41 582.45 273.73 585.06L267.581 589.04L279.05 602.48V588.08L278.92 581.77L278.891 574.43L271.9 568.34L277.53 565.6L278.75 565L278.86 561.54L243.55 557.3L177.541 549.37H177.53ZM199.431 565.07L192.061 558.65L201.15 554.23L208.521 560.64L199.431 565.06V565.07ZM218.771 561.89L227.86 557.47L235.23 563.88L226.141 568.3L218.771 561.88V561.89ZM254.86 560.74L262.23 567.16L253.141 571.58L245.771 565.17L254.871 560.75L254.86 560.74Z" fill="#FFA500"/>
<path d="M269.81 549.86C261.52 550.36 253.4 550.36 245.61 549.86C233.51 549.36 221.91 548.04 210.64 545.55C205.17 544.56 199.87 543.23 194.57 541.74C194.4 541.74 194.57 541.41 194.57 541.41C189.43 540.25 184.79 538.76 179.99 536.94L177.83 547.21H177.84L177.85 547.13L279.21 559.3H279.24L281.06 549.02H280.89C277.08 549.35 273.43 549.68 269.79 549.85L269.81 549.86Z" fill="#FFA500"/>
<path d="M177.87 547.14L177.85 547.22L177.49 549.36L177.53 549.37L243.53 557.29L278.85 561.53L279.23 559.31L177.87 547.14Z" fill="#862D26"/>
<path d="M253.13 571.57L262.23 567.15L254.86 560.74L245.76 565.16L253.13 571.57Z" fill="#862D26"/>
<path d="M235.229 563.88L227.87 557.47L218.77 561.88L226.14 568.3L235.229 563.88Z" fill="#862D26"/>
<path d="M208.521 560.64L201.15 554.23L192.061 558.64L199.431 565.06L208.521 560.64Z" fill="#862D26"/>
<path d="M278.87 574.42H278.88L278.85 567.9L278.83 564.95L277.51 565.59L271.88 568.33L278.87 574.42Z" fill="#862D26"/>
<path d="M177.88 553.86L176.44 552.62L175.51 555.37L173.46 561.56L181.87 557.47L181.97 557.43L177.88 553.86Z" fill="#862D26"/>
<path d="M271.83 336.07C268.98 330.37 266.13 325.15 262.81 321.83H227.69C226.74 327.05 225.79 331.8 224.84 336.07H271.83Z" fill="#505300"/>
<path d="M269.811 549.86C271.301 547.54 272.461 545.06 273.121 542.41H272.951C272.951 542.41 263.511 544.4 261.521 542.41C259.691 540.58 261.521 539.59 261.521 539.59C261.521 539.59 271.461 540.09 273.451 540.09C273.621 539.59 273.62 539.1 273.78 538.6C274.11 537.11 274.61 535.78 275.11 534.29C275.77 531.8 276.101 529.15 276.271 526.5C276.771 520.53 277.271 514.57 277.431 508.77C277.601 504.13 277.601 499.33 276.101 494.85C275.601 493.86 274.941 492.7 273.951 492.7C273.451 492.7 272.951 493.03 272.621 493.36C269.801 495.19 267.481 498 264.331 498.99C263.171 499.49 262.011 499.49 260.851 499.65C258.201 499.98 255.38 500.15 252.73 500.48C251.74 500.65 250.571 500.81 249.581 500.31C248.751 500.14 248.091 499.65 247.431 499.15C244.781 497.33 241.96 495.84 238.98 494.84C237.65 494.34 236.49 494.01 235.17 494.18C232.35 494.51 230.201 496.83 228.871 499.32C227.381 501.64 226.22 504.46 223.9 506.11C222.74 506.94 221.41 507.43 220.42 508.43C218.1 510.75 218.271 514.73 215.951 517.05C215.291 517.71 214.461 518.21 213.791 518.87C212.461 520.2 211.8 522.35 211.8 524.34C211.8 526.33 212.3 528.31 212.46 530.31C212.96 535.45 211.631 540.58 210.641 545.55C221.911 548.04 233.51 549.36 245.61 549.86C253.4 550.36 261.521 550.36 269.811 549.86ZM275.241 528.91C275.241 528.91 274.38 532.82 269.63 532.99H268.76C267.03 532.82 265.881 532.82 265.021 532.82C262.861 532.82 262.431 532.99 262.431 532.99C262.431 532.99 261.28 524.83 267.32 525.34C273.51 525.68 275.241 528.91 275.241 528.91ZM247.84 505.16L247.931 505.09L248.11 505.06C250.52 504.69 253.011 504.08 255.141 502.93C256.871 501.58 260.87 499.67 263.15 503.14C265.02 506.12 265.141 509.26 264.971 512.59C264.151 516.59 261.391 517.63 260.121 519.97L260.07 520.03C259.63 520.7 259.5 522.43 259.53 523.84C259.53 525.33 259.671 526.84 259.831 528.35C260.061 531.39 260.39 534.45 260.84 537.48C260.01 534.56 259.24 531.6 258.67 528.56C258.44 527.03 258.23 525.49 258.15 523.9C258.15 522.3 257.871 520.72 258.891 518.78C258.881 518.8 258.861 518.81 258.851 518.84L258.891 518.78C260.321 516.23 262.861 514.38 262.951 512.25C262.981 509.77 262.521 506.59 261.471 504.69C260.361 502.72 258.16 503.36 255.82 504.77C253.37 505.88 250.901 506.28 248.391 506.51C247.261 507.36 246.051 508.5 245.771 510.02C245.491 511.63 246.62 513.26 247.82 514.33C246.53 513.48 245.031 512.14 245.041 509.94C245.161 507.79 246.46 506.23 247.84 505.16ZM237.51 524.73C241.32 524.07 246.46 528.86 246.8 529.93C247.14 531 246.911 533.66 245.201 532.86C244.611 532.58 242.66 532.5 240.4 532.51L236.081 532.65C236.081 532.65 236.08 532.61 236.07 532.6C233.16 532.71 230.661 532.86 230.661 532.86C229.531 529.66 233.711 525.4 237.521 524.73H237.51ZM228.621 539.53C234.511 541.11 252.78 538.6 252.78 538.6C252.78 538.6 255.261 539.13 255.041 541.67C248.381 547.67 227.15 541.67 227.15 541.67C227.15 541.67 225.351 539.27 228.621 539.54V539.53Z" fill="#FB898C"/>
<path d="M300.049 471.24C299.859 469.48 299.289 467.65 298.419 466.12C296.049 464.69 295.1 462.32 294.62 459.47V458.99C293.89 456.8 293.63 454.37 293.16 452.04C292.68 450.38 292.12 448.78 290.89 447.66C290.87 447.64 290.839 447.61 290.819 447.59C290.669 447.44 290.429 447.51 290.269 447.38C288.059 445.65 285.21 445.27 282.24 445.09C280.67 445.04 279.089 445.05 277.529 444.74C273.729 443.79 270.41 440.94 266.14 440.94C264.24 440.94 262.34 441.42 259.97 441.42C255.72 441.07 251.739 437.29 247.819 436.17C246.489 435.83 245.149 435.79 243.799 436.33C243.059 436.58 242.53 437.17 241.91 437.65C241.27 438.18 240.51 438.59 240.04 439.05C237.27 441.82 234.379 444.91 231.069 446.8C230.319 447.26 229.699 447.93 228.879 448.27C226.889 449.1 224.57 449.43 222.58 450.59C220.95 451.49 219.959 453.19 218.779 454.66C217.849 455.84 216.669 456.77 215.819 458.04C213.729 460.73 211.269 462.57 208.939 464.62C207.519 465.91 206.42 467.52 204.85 468.65C202.86 469.98 200.37 471.14 198.39 470.14C196.2 469 196.04 466.57 195.99 463.97C195.96 462.01 195.809 460.02 195.069 458.35C194.929 458.04 194.939 457.66 194.749 457.38C194.139 456.65 193.339 456.34 192.549 456.04C192.209 455.92 191.99 455.67 191.62 455.67C191.3 455.51 190.839 455.58 190.499 455.51C189.589 455.37 188.689 455.17 187.779 455.4C185.289 456.06 183.299 457.72 181.319 459.38C178.499 461.53 175.52 463.85 172.7 466.17C171.72 466.93 170.8 467.76 169.87 468.57C169.37 469 168.859 469.41 168.359 469.91C168.349 469.91 168.34 469.91 168.33 469.91C167.03 471.37 165.729 472.84 164.749 474.46C162.759 477.77 162.429 482.25 164.749 485.4C165.579 486.56 166.909 487.56 167.729 488.71C169.719 491.69 169.39 496 171.54 498.82C172.87 500.48 174.85 501.47 175.68 503.46C177.17 506.61 174.689 510.58 176.509 513.4C177.169 514.56 178.5 515.22 179.33 516.05C182.48 519.2 181.65 524.34 180.49 528.48C179.5 532.45 179 534.78 179.99 536.93C184.79 538.75 189.429 540.24 194.569 541.4C194.569 541.4 194.399 541.73 194.569 541.73C199.869 543.22 205.18 544.55 210.64 545.54C211.64 540.57 212.959 535.43 212.459 530.3C212.289 528.31 211.799 526.32 211.799 524.33C211.799 522.34 212.46 520.19 213.79 518.86C214.45 518.2 215.28 517.7 215.95 517.04C218.27 514.72 218.099 510.74 220.419 508.42C221.409 507.43 222.739 506.93 223.899 506.1C226.219 504.44 227.38 501.62 228.87 499.31C230.2 496.82 232.349 494.5 235.169 494.17C236.489 494 237.659 494.34 238.979 494.83C241.959 495.83 244.78 497.32 247.43 499.14C248.09 499.64 248.75 500.14 249.58 500.3C250.57 500.8 251.739 500.63 252.729 500.47C255.379 500.14 258.2 499.97 260.85 499.64C262.01 499.47 263.17 499.47 264.33 498.98C267.48 497.99 269.8 495.17 272.62 493.35C272.95 493.02 273.45 492.69 273.95 492.69C274.94 492.69 275.6 493.85 276.1 494.84C277.59 499.32 277.59 504.12 277.43 508.76C277.26 514.56 276.769 520.53 276.269 526.49C276.099 529.14 275.769 531.79 275.109 534.28C274.609 535.77 274.119 537.1 273.779 538.59C273.609 539.09 273.61 539.58 273.45 540.08C271.46 540.08 261.519 539.58 261.519 539.58C261.519 539.58 259.689 540.57 261.519 542.4C263.509 544.39 272.95 542.4 272.95 542.4H273.12C272.46 545.05 271.29 547.54 269.81 549.85C273.45 549.68 277.1 549.35 280.91 549.02H281.08C286.22 543.39 284.89 533.61 289.7 527.15C290.53 525.99 291.519 524.99 292.019 523.67C293.179 520.85 291.69 517.7 292.35 514.72C293.18 511.74 296.159 509.75 297.819 507.1C301.799 501.47 299.81 493.68 296.66 487.38C296 485.89 294.999 484.23 294.669 482.41V479.1C294.839 479.1 295.169 478.93 295.499 478.77C295.669 478.27 296 477.94 296.33 477.61C296.99 477.11 297.659 476.95 298.319 476.45C299.779 475.45 300.129 473.81 300.069 472.06C300.069 471.93 300.199 471.85 300.189 471.72C300.179 471.56 300.069 471.4 300.049 471.24ZM262.879 491.58C261.499 492.09 260.039 492.61 258.629 492.21C258.069 492.05 257.549 491.75 256.999 491.59C255.889 491.26 255.859 491.31 254.729 491.49C253.649 491.66 252.039 492.03 250.959 491.84C249.879 491.65 249.329 490.67 248.609 489.7C248.299 489.07 248.199 487.37 248.769 487.11C252.179 485.55 255.48 486.34 259.1 485.71C260.92 485.4 262.749 485.08 264.589 485.2C264.969 485.22 265.4 485.3 265.62 485.68C265.73 485.88 265.759 486.12 265.779 486.35C266.089 489.33 265.279 490.69 262.879 491.59V491.58Z" fill="black"/>
<path d="M289.39 393.98C290.34 399.2 290.819 404.9 291.759 410.59C293.659 429.1 294.609 446.19 294.609 459.01V459.49C295.079 462.34 296.03 464.71 298.41 466.14C299.28 467.66 299.85 469.5 300.04 471.26C300.06 471.43 300.17 471.57 300.18 471.74C300.18 471.87 300.06 471.95 300.06 472.08C300.09 473.82 299.73 475.49 298.41 476.59C297.46 477.07 296.989 477.07 296.509 477.54C296.029 478.01 295.56 478.49 295.56 478.96C298.41 477.06 301.73 475.16 304.58 473.26C310.75 469.46 316.449 465.19 321.669 460.92H322.149C322.149 460.92 322.15 460.81 322.14 460.76C322.09 460.8 322.059 460.85 322.009 460.89C320.539 435.6 315.23 373.03 299.25 335.01C297.23 330.24 295.1 325.7 292.72 321.84H266.609C269.459 326.11 271.83 330.86 274.2 336.08C281.8 352.69 286.54 373.58 289.39 393.99V393.98Z" fill="#FFAAAC"/>
<path d="M364.73 386.25L364.85 387.21L365.23 390.36C365.35 391.32 364.76 392.36 363.67 393.05L364.1 396.6L367.79 396.15C368.19 394.78 368.61 393.44 369.08 392.09C370.64 387.7 373.05 383.63 375.21 379.46C372.03 382.29 368.36 384.35 364.27 385.69C364.38 385.9 364.69 385.99 364.73 386.23V386.25Z" fill="#DF0401"/>
<path d="M365.02 404.29C365.13 404.03 365.32 403.81 365.42 403.54C365.44 403.49 365.45 403.44 365.47 403.4L364.92 403.47L365.02 404.3V404.29Z" fill="#DF0401"/>
<path d="M322.13 460.75C337.47 448.01 349.05 431.5 359.45 414.65C359.78 414.13 359.97 413.59 360.3 413.07L359.22 404.16L350.85 405.17L350.02 398.31L358.39 397.3L357.96 393.75C356.73 393.34 355.8 392.48 355.69 391.52L355.32 388.5L355.21 387.61C355.1 387.61 355.01 387.67 354.9 387.67C340.27 387.67 328.51 377.11 324.91 363.06C324.72 363.11 324.5 363.1 324.32 363.15C323.82 361.49 323.54 359.68 323.44 357.89C323.58 357.85 323.75 357.84 323.89 357.8C323.79 356.75 323.3 355.85 323.3 354.78C323.3 351.86 324.21 349.23 324.9 346.54C324.71 346.59 324.49 346.58 324.29 346.63C324.43 345.29 325.09 344.14 325.59 342.94C325.78 342.44 325.9 341.95 326.11 341.47C326.26 341.2 326.26 340.84 326.42 340.59C326.52 340.56 326.62 340.56 326.72 340.53C331.85 329.6 342.41 321.9 354.89 321.9C364.86 321.9 373.37 327.01 379.16 334.52C379.37 334.52 379.58 334.5 379.79 334.51C381.27 336.01 382.25 337.73 382.91 339.55C382.75 339.55 382.59 339.56 382.43 339.56C384.21 343.03 385.24 346.81 385.73 350.89C385.9 350.89 386.08 350.88 386.25 350.88C386.45 350.68 386.6 353.11 386.53 354.76C391.04 344.06 394.81 333.07 396.06 321.68H292.66C295.05 325.59 297.2 330.17 299.23 335C315.21 373.02 320.52 435.59 321.99 460.88C322.04 460.84 322.07 460.79 322.12 460.75H322.13Z" fill="#DF0401"/>
<path d="M122.791 334.64C123.271 331.79 124.691 326.57 127.541 321.82H117.57C118.05 326.09 119.47 330.36 121.84 333.69C122.16 334.01 122.477 334.326 122.791 334.64Z" fill="#DF0401"/>
<path d="M101.431 409.17C106.651 421.51 113.3 433.38 119.94 444.77C120.42 446.19 121.37 447.14 121.84 448.09C122.32 448.57 122.791 449.04 123.741 449.51C123.891 449.59 124.04 449.71 124.19 449.81C126.09 444.77 127.951 439.83 129.701 435.21C136.041 418.46 141.181 405.03 143.061 400.12L146.9 401.89L143.081 400.09L129.721 393.86C129.721 393.86 129.721 393.88 129.701 393.88C129.091 394.36 128.43 394.56 127.78 394.81C126.53 395.29 125.251 395.49 124.021 395.06C120.471 393.82 118.901 389.25 120.471 384.76C121.541 381.71 123.781 379.65 126.201 378.95C127.351 378.62 128.521 378.5 129.661 378.9C131.541 379.55 132.851 381.16 133.371 383.36C133.921 385.14 133.821 387.11 133.101 389.16C133.101 389.16 133.1 389.16 133.11 389.14C133.84 387.04 133.88 385.08 133.38 383.33L145.811 386.29C147.291 386.65 148.71 385.68 149.73 384.25C149.33 384.01 148.77 383.76 148.42 383.53C147.47 382.58 146.52 381.63 146.05 381.16C142.25 375.94 138.451 364.07 138.451 364.07C138.451 364.07 135.6 357.42 132.28 354.1C130.38 356 127.531 356.48 125.161 356C122.311 355.52 119.941 354.1 117.561 352.68C107.591 346.51 99.0504 337.02 96.6704 325.62C96.1904 324.19 96.1907 322.77 95.7207 321.82H80.0605C81.4805 345.08 87.6505 367.86 94.7705 390.65C96.6705 396.82 99.0404 402.99 101.42 409.16L101.431 409.17Z" fill="#DF0401"/>
<path d="M160.49 405.78L156.51 404.79L152.8 403.91L156.54 404.83C155.77 407.29 154.29 411.97 152.39 417.94C152.37 417.99 152.35 418.06 152.33 418.11C149.13 428.18 144.55 442.52 139.58 457.91C141.22 458.79 142.85 459.67 144.62 460.43C145.1 460.43 145.1 460.9 145.1 460.9C149.81 450.91 158.18 431.63 166.19 407.11L160.5 405.77L160.49 405.78Z" fill="#DF0401"/>
<path d="M164.09 341.29C164.09 341.77 164.56 341.77 164.56 342.24C164.63 342.33 164.73 342.35 164.8 342.44L164.93 342.07C163.62 339.79 163.05 337.12 164.01 334.38C165.71 329.5 170.9 326.86 175.6 328.5C180.3 330.14 182.72 335.43 181.02 340.31C180.04 343.11 177.86 344.82 175.35 345.77L174.43 348.41H176.91C177.86 349.84 180.23 355.06 176.43 358.38C175.01 359.8 173.11 359.33 171.68 358.86C171.42 358.73 171.17 358.6 170.91 358.47L170.36 360.05C170.51 360.1 170.57 360.23 170.73 360.28C172.16 361.23 174.05 361.71 175.95 361.71C178.32 361.23 177.37 367.88 173.57 366.93C171.67 366.93 170.25 366.45 168.82 365.98C168.66 365.95 168.5 365.86 168.34 365.82L167.18 369.14C167.25 369.19 167.32 369.25 167.4 369.3C170.25 371.2 173.1 373.1 173.1 373.1C173.1 373.1 177.37 377.85 169.3 379.27C167.42 378.8 166.01 378.33 164.14 377.86L163.15 380.7C165.99 382.12 168.83 383.54 170.73 383.54C174.53 384.02 170.25 391.14 167.41 391.14C166.31 391.14 164.04 390.22 161.89 389.3C162.18 390.38 161.87 391.8 162.82 392.23L167.64 394.5L169.8 395.5C174.14 380.84 178.24 365.11 181.18 347.47C181.66 345.57 182.13 343.2 182.13 340.82C182.13 340.82 183.56 332.28 184.51 324.68V321.83H161.25C161.73 327.05 159.83 332.75 158.88 335.12C160.31 337.02 162.2 339.39 164.1 341.29H164.09Z" fill="#DF0401"/>
<path d="M182.12 340.81C182.12 343.18 181.65 345.56 181.17 347.46C178.23 365.11 174.13 380.83 169.79 395.49L174.5 397.67C174.5 397.67 174.52 397.65 174.53 397.64C176.31 396.24 178.34 395.8 180.32 396.49C183.77 397.7 185.33 402.27 183.77 406.76C182.2 411.25 178.13 413.86 174.68 412.65C172.73 411.97 171.45 410.39 170.91 408.26C170.9 408.22 170.87 408.2 170.86 408.16C170.86 408.17 170.86 408.2 170.86 408.21L166.18 407.11C158.18 431.63 149.81 450.91 145.09 460.9C152.67 464.69 160.27 468.48 168.32 469.91C168.33 469.91 168.34 469.91 168.35 469.91C168.85 469.41 169.36 468.99 169.86 468.57C170.78 467.79 171.7 467.04 172.62 466.12C175.47 463.74 178.32 461.37 181.16 459.47C183.06 457.57 185.43 456.15 187.81 455.2H188.28C193.5 442.86 213.91 391.12 221.03 321.82H184.48V324.67C183.53 332.27 182.1 340.81 182.1 340.81H182.12Z" fill="#FFAAAC"/>
<path d="M171.13 402.4C170.67 403.73 170.85 405.08 170.95 406.41C170.84 405.11 170.65 403.81 171.14 402.39L171.13 402.4Z" fill="#F6F3F6"/>
<path d="M190.5 455.52C190.84 455.59 191.3 455.52 191.62 455.68C191.99 455.68 192.21 455.93 192.55 456.05C193.08 456.23 193.71 456.34 193.99 456.63C198.26 445.71 211.08 412.49 224.84 336.06C225.79 331.79 226.74 327.04 227.69 321.82H221.04C213.92 391.12 193.51 442.86 188.29 455.2C189.24 455.2 189.83 455.38 190.5 455.52Z" fill="#DF0401"/>
<path d="M292.721 449.51V449.99C292.941 450.64 293.021 451.37 293.161 452.06C293.631 454.38 293.891 456.81 294.621 459.01C294.621 446.19 293.671 429.11 291.771 410.59C290.821 404.89 290.35 399.2 289.4 393.98C286.55 373.57 281.81 352.68 274.21 336.07C271.84 330.85 269.461 326.1 266.621 321.83H262.82C266.14 325.15 268.99 330.37 271.84 336.07C286.55 368.82 291.3 431 292.73 449.51H292.721Z" fill="#DF0401"/>
<path d="M195.06 458.37C195.8 460.04 195.95 462.03 195.98 463.99C196.03 466.56 196.22 468.91 198.25 469.93C200.15 471.36 203 469.93 204.9 468.51C206.48 467.46 207.57 465.85 208.94 464.65C211.27 462.59 213.73 460.76 215.82 458.07C216.67 456.8 217.85 455.87 218.78 454.69C219.94 453.22 220.89 451.53 222.47 450.48C224.37 449.53 226.74 449.05 229.12 448.11C229.84 447.87 230.4 447.22 231.07 446.84C234.38 444.95 237.27 441.86 240.04 439.09C240.51 438.62 241.27 438.22 241.91 437.69C242.57 437.15 243.12 436.48 243.84 436.24C245.16 435.76 246.49 435.84 247.82 436.21C251.74 437.32 255.72 441.1 259.97 441.46C262.34 441.46 264.24 440.98 266.14 440.98C270.41 440.98 273.74 443.83 277.53 444.78C279.09 445.09 280.66 445.08 282.24 445.13C285.25 445.23 288.09 445.59 290.27 447.42C290.43 447.55 290.67 447.48 290.82 447.63C290.84 447.65 290.87 447.68 290.89 447.7C291.35 448.19 291.8 449.07 292.72 449.53C291.3 431.02 286.55 368.84 271.83 336.09H224.84C211.08 412.51 198.26 445.74 193.99 456.66L194.94 457.61C195.08 457.83 194.96 458.16 195.07 458.4L195.06 458.37ZM215.61 392.83C224.16 388.39 243.65 368.89 248.1 360.34C248.48 359.6 249.54 359.6 249.93 360.34C254.37 368.89 273.87 388.38 282.42 392.83C283.16 393.21 283.16 394.27 282.42 394.66C273.87 399.1 254.38 418.6 249.93 427.15C249.55 427.89 248.49 427.89 248.1 427.15C243.66 418.6 224.16 399.11 215.61 394.66C214.87 394.28 214.87 393.22 215.61 392.83Z" fill="#7FFFE4"/>
<path d="M264.589 485.2C262.749 485.08 260.92 485.4 259.1 485.71C255.48 486.34 252.18 485.54 248.77 487.11C248.19 487.37 248.289 489.07 248.609 489.7C249.329 490.67 249.879 491.65 250.959 491.84C252.039 492.03 253.649 491.66 254.729 491.49C255.859 491.31 255.89 491.27 257 491.59C257.55 491.76 258.079 492.06 258.629 492.21C260.039 492.61 261.499 492.09 262.879 491.58C265.269 490.68 266.079 489.33 265.779 486.34C265.759 486.11 265.73 485.87 265.62 485.67C265.41 485.3 264.969 485.22 264.589 485.19V485.2Z" fill="#9C5F59"/>
<path d="M369.04 356.5C353.84 357.48 339.01 359.52 324.93 363.06C328.53 377.11 340.289 387.67 354.919 387.67C355.029 387.67 355.119 387.61 355.229 387.61V387.53C355.009 385.75 357.05 384.11 359.6 383.8C361.82 383.53 363.56 384.36 364.27 385.71C368.36 384.37 372.029 382.31 375.209 379.48C381.649 373.75 385.84 365.6 386.24 356.2C380.51 356.2 374.609 356.18 369.049 356.5H369.04Z" fill="#FFE500"/>
<path d="M352.63 352.36C356.11 352.03 359.431 351.7 362.911 351.53C363.571 351.36 364.23 351.36 364.9 351.36C371.69 350.87 378.79 350.89 385.75 350.89C385.27 346.82 384.231 343.04 382.451 339.56C377.971 339.56 373.361 339.6 369.041 339.92C353.841 340.9 339 342.99 324.92 346.54C324.23 349.24 323.32 351.86 323.32 354.78C323.32 355.85 323.811 356.76 323.911 357.8C332.401 355.53 341.36 353.65 350.32 352.68L352.641 352.35L352.63 352.36ZM377.811 341.67C379.781 341.43 381.611 343.12 381.891 345.45C382.171 347.78 380.801 349.86 378.831 350.1C376.861 350.34 375.03 348.64 374.75 346.32C374.47 343.99 375.841 341.91 377.811 341.67ZM368.92 344.02C369.82 343.91 370.65 344.68 370.78 345.74C370.91 346.8 370.28 347.74 369.38 347.85C368.48 347.96 367.651 347.19 367.521 346.13C367.391 345.07 368.021 344.12 368.911 344.02H368.92ZM358.951 342.25C360.921 342.01 362.75 343.7 363.03 346.03C363.31 348.36 361.941 350.44 359.971 350.68C358.001 350.92 356.171 349.22 355.891 346.9C355.611 344.57 356.981 342.49 358.951 342.25ZM330.05 353.24C329.22 353.34 328.451 352.63 328.331 351.64C328.211 350.66 328.791 349.78 329.621 349.68C330.451 349.58 331.22 350.29 331.34 351.28C331.46 352.26 330.88 353.14 330.05 353.24ZM340.471 353.22C338.471 353.46 336.621 351.74 336.331 349.38C336.051 347.02 337.431 344.91 339.431 344.67C341.431 344.43 343.28 346.14 343.57 348.5C343.85 350.86 342.46 352.97 340.46 353.21L340.471 353.22ZM348.141 347.77C348.021 346.75 348.62 345.84 349.48 345.74C350.34 345.64 351.14 346.38 351.26 347.39C351.38 348.4 350.78 349.31 349.92 349.42C349.06 349.52 348.261 348.78 348.141 347.77Z" fill="#FFE500"/>
<path d="M352.63 335.78C356.11 335.45 359.43 335.12 362.91 334.95C363.57 334.78 364.23 334.78 364.9 334.78C369.5 334.46 374.42 334.38 379.19 334.52C373.4 327.01 364.89 321.9 354.92 321.9C342.44 321.9 331.89 329.59 326.75 340.53C334.45 338.58 342.3 337.09 350.32 336.11L352.64 335.78H352.63Z" fill="#FFE500"/>
<path d="M325.62 342.94C325.82 342.46 325.89 341.92 326.14 341.47C325.93 341.95 325.81 342.44 325.62 342.94Z" fill="#FFE500"/>
<path d="M363.66 393.06L363.43 391.14C363.05 390.91 362.679 390.81 362.319 390.72C361.239 390.57 360.06 390.58 358.95 391.13C358.5 391.32 358.17 391.5 357.74 391.83L357.97 393.75L358.399 397.3L350.029 398.31L350.859 405.17L359.229 404.16L360.31 413.07L360.41 413.9L366.109 413.21L365.029 404.3L364.93 403.47L365.479 403.4L373.18 402.47L372.35 395.61L367.79 396.16L364.1 396.61L363.669 393.06H363.66Z" fill="#FFA500"/>
<path d="M357.37 388.8C357.59 388.63 357.7 388.62 357.92 388.46C358.59 388.1 359.26 387.88 360.08 387.78C360.78 387.7 361.49 387.75 362.11 387.95C362.48 388.04 362.84 388.14 363.09 388.25C363.32 388.22 363.57 388.33 363.7 388.45C364.56 388.76 365.13 389.53 365.23 390.35L364.85 387.2L364.73 386.24C364.69 386 364.38 385.91 364.27 385.7C363.56 384.36 361.82 383.52 359.6 383.79C357.04 384.1 355 385.74 355.22 387.52V387.6L355.34 388.49L355.71 391.51C355.61 390.69 355.98 389.81 356.74 389.3C356.95 389.13 357.17 388.97 357.39 388.8H357.37Z" fill="#FFA500"/>
<path d="M358.95 391.12C360.06 390.57 361.24 390.56 362.32 390.71C362.69 390.81 363.05 390.9 363.43 391.13L363.66 393.05C364.76 392.36 365.34 391.32 365.22 390.36C365.12 389.54 364.56 388.77 363.69 388.46C363.56 388.34 363.31 388.23 363.08 388.26C362.83 388.15 362.47 388.05 362.1 387.96C361.49 387.75 360.77 387.7 360.07 387.79C359.26 387.89 358.58 388.11 357.91 388.47C357.7 388.64 357.58 388.65 357.36 388.81C357.15 388.98 356.93 389.14 356.71 389.31C355.95 389.82 355.58 390.7 355.68 391.52C355.8 392.48 356.73 393.34 357.95 393.75L357.72 391.83C358.15 391.5 358.48 391.32 358.93 391.13L358.95 391.12Z" fill="#AA8100"/>
<path d="M386.27 350.88C386.1 350.88 385.92 350.89 385.75 350.89C378.79 350.89 371.69 350.87 364.9 351.36C364.24 351.36 363.58 351.36 362.91 351.53C359.43 351.7 356.12 352.03 352.63 352.36L350.31 352.69C341.35 353.67 332.39 355.55 323.9 357.81C323.75 357.85 323.59 357.86 323.45 357.9C323.55 359.68 323.83 361.5 324.33 363.16C324.52 363.11 324.74 363.12 324.92 363.07C339.01 359.52 353.83 357.48 369.03 356.51C374.59 356.19 380.49 356.21 386.22 356.21C386.3 356.21 386.39 356.21 386.47 356.21C386.57 356.04 386.52 355.29 386.54 354.78C386.61 353.13 386.46 350.7 386.26 350.9L386.27 350.88Z" fill="#E9B100"/>
<path d="M382.45 339.57C382.61 339.57 382.77 339.56 382.93 339.56C382.27 337.74 381.29 336.02 379.81 334.52C379.6 334.52 379.39 334.54 379.18 334.53C374.41 334.39 369.49 334.47 364.89 334.79C364.23 334.79 363.57 334.79 362.9 334.96C359.42 335.13 356.11 335.46 352.62 335.79L350.3 336.12C342.28 337.1 334.43 338.59 326.73 340.54C326.63 340.56 326.53 340.57 326.43 340.6C326.27 340.86 326.26 341.21 326.12 341.48C325.87 341.93 325.8 342.47 325.6 342.95C325.1 344.16 324.44 345.3 324.3 346.64C324.49 346.59 324.71 346.6 324.91 346.55C338.98 343 353.83 340.91 369.03 339.93C373.35 339.61 377.96 339.57 382.44 339.57H382.45Z" fill="#E9B100"/>
<path d="M378.83 350.1C380.8 349.86 382.17 347.78 381.89 345.45C381.61 343.12 379.78 341.43 377.81 341.67C375.84 341.91 374.47 343.99 374.75 346.32C375.03 348.65 376.86 350.34 378.83 350.1Z" fill="#E9B100"/>
<path d="M359.97 350.68C361.94 350.44 363.309 348.36 363.029 346.03C362.749 343.7 360.92 342.01 358.95 342.25C356.98 342.49 355.61 344.57 355.89 346.9C356.17 349.23 358 350.92 359.97 350.68Z" fill="#E9B100"/>
<path d="M339.43 344.67C337.43 344.91 336.04 347.02 336.33 349.38C336.62 351.74 338.47 353.46 340.47 353.22C342.47 352.98 343.86 350.87 343.58 348.51C343.29 346.15 341.44 344.43 339.44 344.68L339.43 344.67Z" fill="#E9B100"/>
<path d="M370.78 345.74C370.65 344.68 369.82 343.91 368.92 344.02C368.02 344.13 367.4 345.07 367.53 346.13C367.66 347.19 368.49 347.96 369.39 347.85C370.29 347.74 370.91 346.79 370.79 345.74H370.78Z" fill="#E9B100"/>
<path d="M328.33 351.64C328.45 352.62 329.22 353.34 330.05 353.24C330.88 353.14 331.46 352.26 331.34 351.28C331.22 350.3 330.45 349.58 329.62 349.68C328.79 349.78 328.21 350.66 328.33 351.64Z" fill="#E9B100"/>
<path d="M349.461 345.74C348.601 345.84 348.001 346.75 348.121 347.77C348.241 348.78 349.041 349.53 349.901 349.42C350.761 349.32 351.361 348.41 351.241 347.39C351.121 346.37 350.321 345.63 349.461 345.74Z" fill="#E9B100"/>
<path d="M255.05 541.66C255.28 539.13 252.79 538.59 252.79 538.59C252.79 538.59 234.52 541.1 228.63 539.52C225.36 539.25 227.16 541.65 227.16 541.65C227.16 541.65 248.39 547.65 255.05 541.65V541.66Z" fill="black"/>
<path d="M235.221 529.94C235.221 527.73 236.801 525.86 238.681 525.86C240.561 525.86 242.13 527.73 242.13 529.94C242.13 530.96 241.84 531.81 241.27 532.49L240.411 532.52C242.671 532.52 244.62 532.59 245.21 532.87C246.92 533.67 247.15 531 246.81 529.94C246.47 528.87 241.33 524.08 237.52 524.74C233.71 525.41 229.531 529.67 230.661 532.87C230.661 532.87 233.16 532.72 236.07 532.61C235.51 531.93 235.221 530.94 235.221 529.94Z" fill="#CCCCCC"/>
<path d="M242.13 529.94C242.13 527.73 240.551 525.86 238.681 525.86C236.811 525.86 235.221 527.73 235.221 529.94C235.221 530.94 235.51 531.93 236.07 532.61C236.07 532.62 236.071 532.65 236.081 532.66L240.4 532.52L241.26 532.49C241.84 531.81 242.121 530.96 242.121 529.94H242.13Z" fill="black"/>
<path d="M262.43 533C262.43 533 262.86 532.83 265.02 532.83C264.3 531.98 264.01 530.96 264.01 529.94C264.01 527.73 265.45 525.86 267.32 525.86C269.19 525.86 270.78 527.73 270.78 529.94C270.78 531.13 270.35 532.15 269.63 533C274.38 532.83 275.24 528.92 275.24 528.92C275.24 528.92 273.51 525.69 267.32 525.35C261.27 524.84 262.43 533 262.43 533Z" fill="#CCCCCC"/>
<path d="M267.32 525.86C265.45 525.86 264.01 527.73 264.01 529.94C264.01 530.96 264.3 531.98 265.02 532.83C265.89 532.83 267.04 532.83 268.76 533H269.63C270.35 532.15 270.78 531.13 270.78 529.94C270.78 527.73 269.2 525.86 267.32 525.86Z" fill="black"/>
<path d="M245.77 510.03C246.05 508.51 247.27 507.37 248.39 506.52C250.9 506.29 253.37 505.89 255.82 504.78C258.16 503.37 260.36 502.73 261.47 504.7C262.52 506.6 262.98 509.78 262.95 512.26C262.87 514.39 260.32 516.24 258.89 518.79C257.86 520.73 258.15 522.31 258.15 523.91C258.23 525.5 258.44 527.04 258.67 528.57C259.24 531.61 260.01 534.57 260.84 537.49C260.39 534.46 260.05 531.4 259.83 528.36C259.67 526.85 259.54 525.34 259.53 523.85C259.51 522.44 259.63 520.72 260.07 520.04L260.12 519.98C261.39 517.64 264.15 516.6 264.97 512.6C265.14 509.26 265.03 506.13 263.15 503.15C260.87 499.68 256.87 501.59 255.14 502.94C253 504.09 250.52 504.7 248.11 505.07L247.93 505.1L247.84 505.17C246.46 506.24 245.15 507.8 245.04 509.95C245.03 512.15 246.53 513.5 247.82 514.34C246.62 513.27 245.49 511.64 245.77 510.03Z" fill="black"/>
<path d="M258.859 518.85C258.859 518.85 258.889 518.82 258.899 518.79L258.859 518.85Z" fill="black"/>
<path d="M248.1 427.15C248.48 427.89 249.54 427.89 249.93 427.15C254.37 418.6 273.87 399.11 282.42 394.66C283.16 394.28 283.16 393.22 282.42 392.83C273.87 388.39 254.38 368.89 249.93 360.34C249.55 359.6 248.49 359.6 248.1 360.34C243.66 368.89 224.16 388.38 215.61 392.83C214.87 393.21 214.87 394.27 215.61 394.66C224.16 399.1 243.65 418.6 248.1 427.15Z" fill="#EB3000"/>
<path d="M152.391 417.94C154.291 411.97 155.771 407.29 156.541 404.83L152.8 403.91L149.55 403.14L146.9 401.89L143.061 400.12C141.181 405.03 136.041 418.46 129.701 435.21C127.951 439.83 126.08 444.77 124.19 449.81C109.13 489.8 90.7406 539.59 89.5806 547.37C87.0506 564.04 79.9805 602.44 79.9805 602.44C79.9805 602.44 98.4403 568.02 106.82 553.39C110.43 547.01 125.161 502.56 137.771 463.57C138.411 461.58 138.96 459.87 139.59 457.92C144.56 442.52 149.14 428.19 152.34 418.12C152.36 418.06 152.38 418 152.4 417.95L152.391 417.94Z" fill="#A19FE5"/>
<path d="M170.939 358.37C169.629 357.56 167.34 355.93 166.93 355.53C166.45 355.05 165.499 354.1 165.029 353.63L163.609 352.68C163.609 352.68 164.089 353.16 164.089 353.63C164.089 354.1 164.56 354.58 164.56 355.05C165.47 356.41 167.319 358.98 170.359 360.04L170.91 358.46L170.939 358.36V358.37Z" fill="black"/>
<path d="M169.42 346.19C167.35 345.47 165.95 343.85 164.93 342.07L164.8 342.44C166.63 344.69 168.45 346.55 170.73 347.46C171.68 347.93 172.16 348.41 173.1 348.41H174.42L175.34 345.77C173.46 346.48 171.43 346.89 169.42 346.19Z" fill="black"/>
<path d="M164.089 377.84C162.659 377.37 160.289 376.42 157.439 374.99C157.439 376.42 160.29 378.31 163.14 380.69C163.14 380.69 163.15 380.69 163.16 380.69L164.149 377.85C164.149 377.85 164.109 377.84 164.089 377.83V377.84Z" fill="black"/>
<path d="M161.71 363.6C158.92 363.13 163.43 366.33 167.19 369.13L168.35 365.81C166.14 365.31 163.93 364.49 161.71 363.6Z" fill="black"/>
<path d="M149.55 403.14L152.8 403.91L156.51 404.79L160.49 405.78L166.18 407.12L170.86 408.22C170.86 408.22 170.86 408.18 170.86 408.17C170.69 407.63 170.99 406.99 170.94 406.42C170.84 405.08 170.66 403.74 171.12 402.41C171.12 402.4 171.12 402.39 171.12 402.37C171.83 400.34 172.96 398.75 174.47 397.71C174.47 397.71 174.48 397.7 174.49 397.69L169.78 395.51L167.62 394.51L162.8 392.24C161.85 391.8 162.16 390.38 161.87 389.31C161.25 389.04 160.91 389.1 160.27 388.78C156.52 387.95 152.59 386.02 149.71 384.28C148.7 385.7 147.28 386.68 145.79 386.32L133.36 383.36C133.87 385.11 133.83 387.07 133.09 389.17C133.09 389.17 133.09 389.17 133.08 389.19C133.08 389.19 133.08 389.19 133.08 389.2C132.37 391.24 131.23 392.84 129.7 393.89L143.06 400.12L146.88 401.92L149.53 403.17L149.55 403.14Z" fill="black"/>
<path d="M171.129 402.35C171.129 402.35 171.129 402.37 171.129 402.39C170.639 403.81 170.829 405.11 170.939 406.41C170.989 406.98 170.689 407.62 170.859 408.15C170.859 408.15 170.9 408.21 170.91 408.25C171.45 410.39 172.73 411.97 174.68 412.64C178.13 413.85 182.199 411.24 183.769 406.75C185.339 402.26 183.769 397.69 180.319 396.48C178.339 395.79 176.299 396.23 174.529 397.63C174.529 397.63 174.509 397.65 174.499 397.66C174.499 397.66 174.489 397.67 174.479 397.68C172.969 398.73 171.839 400.31 171.129 402.34V402.35Z" fill="#E17254"/>
<path d="M133.11 389.16C133.82 387.11 133.93 385.14 133.38 383.36C132.85 381.17 131.54 379.56 129.67 378.9C128.53 378.5 127.36 378.62 126.21 378.95C123.78 379.65 121.54 381.71 120.48 384.76C118.92 389.25 120.48 393.82 124.03 395.06C125.26 395.49 126.54 395.29 127.79 394.81C128.44 394.56 129.1 394.36 129.71 393.88C129.71 393.88 129.71 393.86 129.73 393.86C131.26 392.81 132.4 391.21 133.11 389.17C133.11 389.17 133.11 389.17 133.11 389.16Z" fill="#E17254"/>
<path d="M175.339 345.77C177.849 344.83 180.029 343.11 181.009 340.31C182.709 335.43 180.289 330.14 175.589 328.5C170.889 326.86 165.709 329.49 163.999 334.38C163.039 337.12 163.609 339.79 164.919 342.07C165.949 343.86 167.349 345.47 169.409 346.19C171.419 346.89 173.449 346.47 175.329 345.77H175.339Z" fill="#E17254"/>
<path d="M117.57 352.68C119.94 354.1 122.32 355.53 125.17 356C127.54 356.48 130.39 356 132.29 354.1C132.29 354.1 132.77 353.63 132.77 353.15C133.25 353.15 133.25 352.67 133.25 352.67C135.15 349.35 133.73 345.07 130.88 342.23C130.4 341.76 129.93 341.28 129.45 340.81C129.93 339.38 130.4 338.44 130.88 337.01C131.83 335.11 132.78 332.74 133.73 330.84C135.63 327.04 138 322.77 142.27 321.82H127.56C124.71 326.57 123.29 331.79 122.81 334.64C122.497 334.32 122.18 334.003 121.86 333.69C119.49 330.37 118.06 326.1 117.59 321.82H95.7598C96.2298 322.77 96.23 324.19 96.71 325.62C99.08 337.01 107.63 346.51 117.6 352.68H117.57Z" fill="#FFAAAC"/>
<path d="M133.709 330.85C132.759 332.75 131.809 335.12 130.859 337.02C130.379 338.45 129.91 339.39 129.43 340.82C129.91 341.3 130.379 341.77 130.859 342.24C133.709 345.09 135.129 349.36 133.229 352.68C133.229 352.68 133.23 353.16 132.75 353.16C132.75 353.64 132.27 354.11 132.27 354.11C135.59 357.43 138.439 364.08 138.439 364.08C138.439 364.08 142.24 375.95 146.04 381.17C146.51 381.65 147.46 382.6 148.41 383.54C148.75 383.77 149.32 384.02 149.72 384.26C152.6 386 156.519 387.93 160.279 388.76C160.919 389.08 161.249 389.03 161.879 389.29C164.029 390.21 166.299 391.13 167.399 391.13C170.249 391.13 174.52 384.01 170.72 383.53C168.83 383.53 165.99 382.11 163.14 380.69C163.14 380.69 163.13 380.69 163.12 380.69C160.27 378.32 157.419 376.42 157.419 374.99C160.269 376.42 162.639 377.37 164.069 377.84C164.089 377.84 164.109 377.85 164.129 377.86C165.999 378.33 167.41 378.8 169.29 379.27C177.36 377.84 173.089 373.1 173.089 373.1C173.089 373.1 170.24 371.2 167.39 369.3C167.32 369.25 167.249 369.19 167.169 369.14C163.419 366.33 158.899 363.14 161.689 363.61C163.899 364.5 166.12 365.33 168.33 365.82C168.49 365.86 168.65 365.95 168.81 365.98C170.23 366.46 171.66 366.93 173.56 366.93C177.36 367.88 178.309 361.23 175.939 361.71C174.039 361.71 172.14 361.23 170.72 360.28C170.56 360.24 170.5 360.11 170.35 360.05C167.31 358.98 165.459 356.41 164.549 355.06C164.549 354.58 164.08 354.11 164.08 353.64C164.08 353.17 163.6 352.69 163.6 352.69L165.02 353.64C165.5 354.11 166.449 355.06 166.919 355.54C167.319 355.95 169.62 357.57 170.93 358.38C171.15 358.52 171.529 358.79 171.669 358.86C173.089 359.34 174.989 359.81 176.419 358.38C180.219 355.06 177.849 349.84 176.899 348.41H173.1C172.15 348.41 171.679 347.93 170.729 347.46C168.449 346.55 166.619 344.68 164.799 342.44C164.729 342.35 164.63 342.33 164.56 342.24C164.56 341.77 164.089 341.77 164.089 341.29C162.189 339.39 160.29 337.02 158.87 335.12C156.97 332.75 155.069 330.85 153.169 328.47C149.849 325.15 147 321.82 143.2 321.82H142.25C137.98 322.77 135.599 327.04 133.709 330.84V330.85Z" fill="#FB898C"/>
<path d="M158.86 335.12C159.81 332.75 161.71 327.05 161.23 321.83H143.2C147 321.83 149.84 325.15 153.17 328.48C155.07 330.85 156.97 332.75 158.87 335.13L158.86 335.12Z" fill="#FFAAAC"/>
<defs>
<linearGradient id="paint0_linear_145_3073" x1="380.479" y1="-104.14" x2="109.989" y2="689.73" gradientUnits="userSpaceOnUse">
<stop stop-color="#E1E1E1"/>
<stop offset="0.12" stop-color="#ECECEC"/>
<stop offset="0.32" stop-color="#FAFAFA"/>
<stop offset="0.49" stop-color="white"/>
<stop offset="0.7" stop-color="#FBFBFB"/>
<stop offset="0.85" stop-color="#F2F2F2"/>
<stop offset="0.99" stop-color="#E2E2E2"/>
<stop offset="1" stop-color="#E1E1E1"/>
</linearGradient>
</defs>
</svg>
