<svg width="469" height="650" viewBox="0 0 469 650" fill="none" xmlns="http://www.w3.org/2000/svg">
<path d="M439.87 0.620117H29.9901C13.9201 0.620117 0.890137 12.6801 0.890137 27.5501V622.39C0.890137 637.26 13.9201 649.32 29.9901 649.32H439.87C455.94 649.32 468.97 637.26 468.97 622.39V27.5501C468.97 12.6801 455.94 0.620117 439.87 0.620117Z" fill="url(#paint0_linear_145_1303)"/>
<path d="M295.1 326.96C293.9 316.57 285.63 308.02 275.28 306.51C264.46 304.93 254.81 310.74 250.54 319.62C247.57 323.17 245.16 328.22 237.16 328.5C237.53 319.23 240.66 313.8 245.08 310.1C253.97 305.84 259.77 296.19 258.19 285.37C256.68 275.02 248.13 266.76 237.74 265.55C223.49 263.9 211.41 274.99 211.41 288.91C211.41 298.26 216.88 306.31 224.79 310.11C228.62 312.91 231.95 319.08 232.32 328.45C223.91 328.29 222.29 323.17 219.32 319.63C215.06 310.75 205.42 304.94 194.59 306.51C184.24 308.02 175.97 316.57 174.76 326.95C173.11 341.2 184.2 353.29 198.12 353.29C207.47 353.29 216.39 346.95 220.19 339.05C223.46 335.42 224.71 333.65 232.5 333.65C232.97 340.31 232.73 347.51 231.72 351.7C227.84 362.83 219.15 375.72 212.59 383.1C211.97 383.8 212.7 384.81 213.58 384.5C224.48 380.6 245.35 380.6 256.25 384.5C257.13 384.82 257.86 383.79 257.23 383.09C250.48 375.53 241.31 362.15 238.12 351.7C236.89 346.57 237.04 337 237.13 333.61C244.37 333.38 246.33 335.37 249.65 339.05C253.44 346.95 262.36 353.29 271.72 353.29C285.63 353.29 296.72 341.21 295.08 326.96H295.1Z" fill="black"/>
<path d="M85.4601 88.1702L60.1801 23.6802H55.6501L31.6801 83.5402C30.4401 86.6502 29.0801 88.7702 27.6701 89.8302C26.2901 90.8702 24.3301 91.4002 21.8601 91.4002H20.8501V96.9502H48.1601V91.4002H44.7901C42.3001 91.4002 40.3901 90.9202 39.1501 89.9602C37.9701 89.0502 37.4001 88.0202 37.4001 86.7902C37.4001 85.5602 37.8101 83.9002 38.6101 81.7702L41.6001 73.9202H67.8301L73.3401 88.0802C73.5201 88.5602 73.6101 89.0202 73.6101 89.4302C73.6101 89.9802 73.4101 90.3102 72.9201 90.5702C72.2001 90.9502 70.6401 91.4002 67.2601 91.4002H64.0401V96.9502H93.9001V91.4002H90.7201C88.0001 91.4002 86.3401 90.3702 85.4701 88.1702H85.4601ZM43.9301 68.2302L54.9501 40.8702L65.6101 68.2302H43.9301Z" fill="black"/>
<path d="M384.15 561.86L409.43 626.35H413.96L437.93 566.49C439.17 563.38 440.53 561.26 441.94 560.2C443.32 559.16 445.28 558.63 447.75 558.63H448.76V553.08H421.45V558.63H424.82C427.31 558.63 429.22 559.11 430.46 560.07C431.64 560.98 432.21 562.01 432.21 563.24C432.21 564.47 431.8 566.13 431 568.26L428.01 576.11H401.78L396.27 561.95C396.09 561.47 396 561.01 396 560.6C396 560.05 396.2 559.72 396.69 559.46C397.41 559.08 398.97 558.63 402.35 558.63H405.57V553.08H375.71V558.63H378.89C381.61 558.63 383.27 559.66 384.14 561.86H384.15ZM425.68 581.8L414.66 609.16L404 581.8H425.68Z" fill="black"/>
<path d="M86.2103 138.17C85.6203 133.1 81.5903 128.93 76.5403 128.19C71.2603 127.42 66.5503 130.25 64.4703 134.59C63.0203 136.32 61.8403 138.79 57.9403 138.92C58.1203 134.4 59.6503 131.75 61.8003 129.94C66.1403 127.86 68.9703 123.15 68.2003 117.87C67.4603 112.82 63.2903 108.79 58.2203 108.2C51.2703 107.39 45.3703 112.81 45.3703 119.6C45.3703 124.16 48.0403 128.09 51.9003 129.94C53.7703 131.31 55.4003 134.32 55.5803 138.89C51.4803 138.81 50.6803 136.31 49.2403 134.59C47.1603 130.26 42.4603 127.42 37.1703 128.19C32.1203 128.92 28.0803 133.1 27.5003 138.17C26.6903 145.12 32.1103 151.02 38.9003 151.02C43.4603 151.02 47.8203 147.93 49.6703 144.07C51.2703 142.3 51.8803 141.44 55.6803 141.43C55.9103 144.68 55.7903 148.19 55.3003 150.24C53.4103 155.67 49.1703 161.96 45.9703 165.56C45.6703 165.9 46.0203 166.4 46.4503 166.24C51.7703 164.34 61.9503 164.34 67.2703 166.24C67.7003 166.39 68.0503 165.89 67.7503 165.55C64.4503 161.86 59.9803 155.33 58.4303 150.23C57.8303 147.73 57.9003 143.06 57.9503 141.4C61.4803 141.29 62.4403 142.26 64.0603 144.06C65.9103 147.92 70.2603 151.01 74.8303 151.01C81.6203 151.01 87.0303 145.11 86.2303 138.16L86.2103 138.17Z" fill="black"/>
<path d="M384.49 511.9C385.08 516.97 389.11 521.14 394.16 521.88C399.44 522.65 404.15 519.82 406.23 515.48C407.68 513.75 408.86 511.28 412.76 511.15C412.58 515.67 411.05 518.32 408.9 520.13C404.56 522.21 401.73 526.92 402.5 532.2C403.24 537.25 407.41 541.28 412.48 541.87C419.43 542.68 425.33 537.26 425.33 530.47C425.33 525.91 422.66 521.98 418.8 520.13C416.93 518.76 415.3 515.75 415.12 511.18C419.22 511.26 420.02 513.76 421.46 515.48C423.54 519.81 428.24 522.65 433.53 521.88C438.58 521.15 442.62 516.97 443.2 511.9C444.01 504.95 438.59 499.05 431.8 499.05C427.24 499.05 422.88 502.14 421.03 506C419.43 507.77 418.82 508.63 415.02 508.64C414.79 505.39 414.91 501.88 415.4 499.83C417.29 494.4 421.53 488.11 424.73 484.51C425.03 484.17 424.68 483.67 424.25 483.83C418.93 485.73 408.75 485.73 403.43 483.83C403 483.68 402.64 484.18 402.95 484.52C406.25 488.21 410.72 494.74 412.27 499.84C412.87 502.34 412.8 507.01 412.75 508.67C409.22 508.78 408.26 507.81 406.64 506.01C404.79 502.15 400.44 499.06 395.87 499.06C389.08 499.06 383.67 504.96 384.47 511.91L384.49 511.9Z" fill="black"/>
<defs>
<linearGradient id="paint0_linear_145_1303" x1="380.94" y1="-103.53" x2="110.45" y2="690.33" gradientUnits="userSpaceOnUse">
<stop stop-color="#E1E1E1"/>
<stop offset="0.12" stop-color="#ECECEC"/>
<stop offset="0.32" stop-color="#FAFAFA"/>
<stop offset="0.49" stop-color="white"/>
<stop offset="0.7" stop-color="#FBFBFB"/>
<stop offset="0.85" stop-color="#F2F2F2"/>
<stop offset="0.99" stop-color="#E2E2E2"/>
<stop offset="1" stop-color="#E1E1E1"/>
</linearGradient>
</defs>
</svg>
