<svg width="469" height="650" viewBox="0 0 469 650" fill="none" xmlns="http://www.w3.org/2000/svg">
<path d="M439 0.620117H29.12C13.05 0.620117 0.0200195 12.6801 0.0200195 27.5501V622.39C0.0200195 637.26 13.05 649.32 29.12 649.32H439C455.07 649.32 468.1 637.26 468.1 622.39V27.5501C468.1 12.6801 455.07 0.620117 439 0.620117Z" fill="url(#paint0_linear_145_1332)"/>
<path d="M174.38 532.93C175.58 543.32 183.85 551.87 194.2 553.38C205.02 554.96 214.67 549.15 218.94 540.27C221.91 536.72 224.32 531.67 232.32 531.39C231.95 540.66 228.82 546.09 224.4 549.79C215.51 554.05 209.71 563.7 211.28 574.52C212.79 584.87 221.34 593.13 231.73 594.34C245.98 595.99 258.06 584.9 258.06 570.98C258.06 561.63 252.59 553.58 244.68 549.78C240.85 546.98 237.52 540.81 237.15 531.44C245.56 531.6 247.18 536.72 250.15 540.26C254.41 549.14 264.05 554.95 274.88 553.38C285.23 551.87 293.5 543.32 294.71 532.94C296.36 518.69 285.27 506.6 271.35 506.6C262 506.6 253.08 512.94 249.28 520.84C246.01 524.47 244.76 526.24 236.97 526.24C236.5 519.58 236.74 512.38 237.75 508.19C241.63 497.06 250.32 484.17 256.88 476.79C257.5 476.09 256.77 475.07 255.89 475.39C244.99 479.29 224.12 479.29 213.22 475.39C212.34 475.07 211.61 476.1 212.24 476.8C218.99 484.36 228.16 497.74 231.35 508.19C232.58 513.32 232.43 522.89 232.34 526.28C225.1 526.51 223.14 524.52 219.82 520.84C216.03 512.94 207.11 506.6 197.75 506.6C183.84 506.6 172.75 518.68 174.39 532.93H174.38Z" fill="black"/>
<path d="M294.23 116.82C293.03 106.43 284.76 97.8802 274.41 96.3702C263.59 94.7902 253.94 100.6 249.67 109.48C246.7 113.03 244.29 118.08 236.29 118.36C236.66 109.09 239.79 103.66 244.21 99.9602C253.1 95.7002 258.9 86.0501 257.32 75.2301C255.81 64.8801 247.26 56.6201 236.87 55.4101C222.62 53.7601 210.54 64.8502 210.54 78.7702C210.54 88.1202 216.01 96.1701 223.92 99.9701C227.75 102.77 231.08 108.94 231.45 118.31C223.04 118.15 221.42 113.03 218.45 109.49C214.19 100.61 204.55 94.8002 193.72 96.3702C183.37 97.8802 175.1 106.43 173.89 116.81C172.24 131.06 183.33 143.15 197.25 143.15C206.6 143.15 215.52 136.81 219.32 128.91C222.59 125.28 223.84 123.51 231.63 123.51C232.1 130.17 231.86 137.37 230.85 141.56C226.97 152.69 218.28 165.58 211.72 172.96C211.1 173.66 211.83 174.68 212.71 174.36C223.61 170.46 244.48 170.46 255.38 174.36C256.26 174.68 256.99 173.65 256.36 172.95C249.61 165.39 240.44 152.01 237.25 141.56C236.02 136.43 236.17 126.86 236.26 123.47C243.5 123.24 245.46 125.23 248.78 128.91C252.57 136.81 261.49 143.15 270.85 143.15C284.76 143.15 295.85 131.07 294.21 116.82H294.23Z" fill="black"/>
<path d="M85.3401 138.17C84.7501 133.1 80.7202 128.93 75.6702 128.19C70.3902 127.42 65.6801 130.25 63.6001 134.59C62.1501 136.32 60.9701 138.79 57.0701 138.92C57.2501 134.4 58.7802 131.75 60.9302 129.94C65.2702 127.86 68.1001 123.15 67.3301 117.87C66.5901 112.82 62.4202 108.79 57.3501 108.2C50.4002 107.39 44.5002 112.81 44.5002 119.6C44.5002 124.16 47.1702 128.09 51.0302 129.94C52.9002 131.31 54.5301 134.32 54.7101 138.89C50.6101 138.81 49.8102 136.31 48.3702 134.59C46.2902 130.26 41.5902 127.42 36.3002 128.19C31.2502 128.92 27.2102 133.1 26.6302 138.17C25.8202 145.12 31.2402 151.02 38.0302 151.02C42.5902 151.02 46.9502 147.93 48.8002 144.07C50.4002 142.3 51.0102 141.44 54.8102 141.43C55.0402 144.68 54.9202 148.19 54.4302 150.24C52.5402 155.67 48.3001 161.96 45.1001 165.56C44.8001 165.9 45.1501 166.4 45.5801 166.24C50.9001 164.34 61.0802 164.34 66.4002 166.24C66.8302 166.39 67.1802 165.89 66.8802 165.55C63.5802 161.86 59.1102 155.33 57.5602 150.23C56.9602 147.73 57.0301 143.06 57.0801 141.4C60.6101 141.29 61.5701 142.26 63.1901 144.06C65.0401 147.92 69.3901 151.01 73.9601 151.01C80.7501 151.01 86.1602 145.11 85.3602 138.16L85.3401 138.17Z" fill="black"/>
<path d="M383.62 511.9C384.21 516.97 388.24 521.14 393.29 521.88C398.57 522.65 403.28 519.82 405.36 515.48C406.81 513.75 407.99 511.28 411.89 511.15C411.71 515.67 410.18 518.32 408.03 520.13C403.69 522.21 400.86 526.92 401.63 532.2C402.37 537.25 406.54 541.28 411.61 541.87C418.56 542.68 424.46 537.26 424.46 530.47C424.46 525.91 421.79 521.98 417.93 520.13C416.06 518.76 414.43 515.75 414.25 511.18C418.35 511.26 419.15 513.76 420.59 515.48C422.67 519.81 427.37 522.65 432.66 521.88C437.71 521.15 441.75 516.97 442.33 511.9C443.14 504.95 437.72 499.05 430.93 499.05C426.37 499.05 422.01 502.14 420.16 506C418.56 507.77 417.95 508.63 414.15 508.64C413.92 505.39 414.04 501.88 414.53 499.83C416.42 494.4 420.66 488.11 423.86 484.51C424.16 484.17 423.81 483.67 423.38 483.83C418.06 485.73 407.88 485.73 402.56 483.83C402.13 483.68 401.77 484.18 402.08 484.52C405.38 488.21 409.85 494.74 411.4 499.84C412 502.34 411.93 507.01 411.88 508.67C408.35 508.78 407.39 507.81 405.77 506.01C403.92 502.15 399.57 499.06 395 499.06C388.21 499.06 382.8 504.96 383.6 511.91L383.62 511.9Z" fill="black"/>
<path d="M396.37 576.77C398.03 569.63 399.04 567.84 399.41 567.39C400 566.66 401.16 566.29 402.88 566.29C414.43 566.29 419.36 566.81 421.45 567.23C420.12 568.68 418.32 570.36 416.06 572.26L403.63 582.73C400.7 585.18 397.79 588.18 395.01 591.65C393.31 593.75 392 596.05 391.11 598.5C390.21 600.95 389.76 603.4 389.76 605.8C389.76 609.31 390.69 612.6 392.51 615.56C394.33 618.53 397.08 620.95 400.66 622.75C407.73 626.3 416.64 626.3 423.82 622.68C427.48 620.84 430.26 618.42 432.1 615.49C433.95 612.55 434.88 609.24 434.88 605.66C434.88 602.34 434 599.56 432.26 597.43C428.81 593.21 423.26 593.09 420.12 596.18C418.66 597.62 417.92 599.45 417.92 601.6C417.92 605.49 420.16 608.16 424.21 609.12C425.39 609.41 425.7 609.65 425.75 610.04C425.75 611.66 424.66 613.31 422.49 614.95C420.15 616.71 417.03 617.61 413.23 617.61C409.97 617.61 407.52 616.72 405.76 614.9C403.98 613.05 403.12 610.52 403.12 607.16C403.12 605.07 403.59 602.68 404.51 600.07C405.45 597.42 406.98 594.61 409.06 591.73C410.55 589.67 415.13 584.46 422.71 576.22L436.95 560.03V554.71H390.81L388.96 578.32H395.99L396.35 576.76L396.37 576.77Z" fill="black"/>
<path d="M72.5897 72.5601C70.9297 79.7001 69.9198 81.4901 69.5498 81.9401C68.9598 82.6701 67.7997 83.04 66.0797 83.04C54.5297 83.04 49.5998 82.52 47.5098 82.1C48.8398 80.65 50.6398 78.9701 52.8998 77.0701L65.3297 66.6C68.2597 64.15 71.1697 61.1501 73.9497 57.6801C75.6497 55.5801 76.9597 53.2801 77.8497 50.8301C78.7497 48.3801 79.1997 45.9301 79.1997 43.5301C79.1997 40.0201 78.2697 36.7301 76.4497 33.7701C74.6297 30.8001 71.8798 28.3801 68.2998 26.5801C61.2298 23.0301 52.3198 23.0301 45.1398 26.6501C41.4798 28.4901 38.6997 30.9101 36.8597 33.8401C35.0097 36.7801 34.0797 40.09 34.0797 43.67C34.0797 46.99 34.9597 49.7701 36.6997 51.9001C40.1497 56.1201 45.6997 56.2401 48.8397 53.1501C50.2997 51.7101 51.0398 49.88 51.0398 47.73C51.0398 43.84 48.7998 41.1701 44.7498 40.2101C43.5698 39.9201 43.2597 39.68 43.2097 39.29C43.2097 37.67 44.2997 36.0201 46.4697 34.3801C48.8097 32.6201 51.9297 31.72 55.7297 31.72C58.9897 31.72 61.4397 32.6101 63.1997 34.4301C64.9797 36.2801 65.8397 38.81 65.8397 42.17C65.8397 44.26 65.3697 46.6501 64.4497 49.2601C63.5097 51.9101 61.9798 54.72 59.8998 57.6C58.4098 59.66 53.8298 64.87 46.2498 73.11L32.0098 89.3V94.6201H78.1498L79.9998 71.0101H72.9697L72.6097 72.5701L72.5897 72.5601Z" fill="black"/>
<defs>
<linearGradient id="paint0_linear_145_1332" x1="380.07" y1="-103.53" x2="109.58" y2="690.33" gradientUnits="userSpaceOnUse">
<stop stop-color="#E1E1E1"/>
<stop offset="0.12" stop-color="#ECECEC"/>
<stop offset="0.32" stop-color="#FAFAFA"/>
<stop offset="0.49" stop-color="white"/>
<stop offset="0.7" stop-color="#FBFBFB"/>
<stop offset="0.85" stop-color="#F2F2F2"/>
<stop offset="0.99" stop-color="#E2E2E2"/>
<stop offset="1" stop-color="#E1E1E1"/>
</linearGradient>
</defs>
</svg>
