<svg width="469" height="650" viewBox="0 0 469 650" fill="none" xmlns="http://www.w3.org/2000/svg">
<path d="M439.13 0.620117H29.2499C13.1799 0.620117 0.149902 12.6801 0.149902 27.5501V622.39C0.149902 637.26 13.1799 649.32 29.2499 649.32H439.13C455.2 649.32 468.23 637.26 468.23 622.39V27.5501C468.23 12.6801 455.2 0.620117 439.13 0.620117Z" fill="url(#paint0_linear_145_1340)"/>
<path d="M294.35 326.96C293.15 316.57 284.88 308.02 274.53 306.51C263.71 304.93 254.06 310.74 249.79 319.62C246.82 323.17 244.41 328.22 236.41 328.5C236.78 319.23 239.91 313.8 244.33 310.1C253.22 305.84 259.02 296.19 257.44 285.37C255.93 275.02 247.38 266.76 236.99 265.55C222.74 263.9 210.66 274.99 210.66 288.91C210.66 298.26 216.13 306.31 224.04 310.11C227.87 312.91 231.2 319.08 231.57 328.45C223.16 328.29 221.54 323.17 218.57 319.63C214.31 310.75 204.67 304.94 193.84 306.51C183.49 308.02 175.22 316.57 174.01 326.95C172.36 341.2 183.45 353.29 197.37 353.29C206.72 353.29 215.64 346.95 219.44 339.05C222.71 335.42 223.96 333.65 231.75 333.65C232.22 340.31 231.98 347.51 230.97 351.7C227.09 362.83 218.4 375.72 211.84 383.1C211.22 383.8 211.95 384.81 212.83 384.5C223.73 380.6 244.6 380.6 255.5 384.5C256.38 384.82 257.11 383.79 256.48 383.09C249.73 375.53 240.56 362.15 237.37 351.7C236.14 346.57 236.29 337 236.38 333.61C243.62 333.38 245.58 335.37 248.9 339.05C252.69 346.95 261.61 353.29 270.97 353.29C284.88 353.29 295.97 341.21 294.33 326.96H294.35Z" fill="black"/>
<path d="M174.51 532.93C175.71 543.32 183.98 551.87 194.33 553.38C205.15 554.96 214.8 549.15 219.07 540.27C222.04 536.72 224.45 531.67 232.45 531.39C232.08 540.66 228.95 546.09 224.53 549.79C215.64 554.05 209.84 563.7 211.42 574.52C212.93 584.87 221.48 593.13 231.87 594.34C246.12 595.99 258.2 584.9 258.2 570.98C258.2 561.63 252.73 553.58 244.82 549.78C240.99 546.98 237.66 540.81 237.29 531.44C245.7 531.6 247.32 536.72 250.29 540.26C254.55 549.14 264.19 554.95 275.02 553.38C285.37 551.87 293.64 543.32 294.85 532.94C296.5 518.69 285.41 506.6 271.49 506.6C262.14 506.6 253.22 512.94 249.42 520.84C246.15 524.47 244.9 526.24 237.11 526.24C236.64 519.58 236.88 512.38 237.89 508.19C241.77 497.06 250.46 484.17 257.02 476.79C257.64 476.09 256.91 475.07 256.03 475.39C245.13 479.29 224.26 479.29 213.36 475.39C212.48 475.07 211.75 476.1 212.38 476.8C219.13 484.36 228.3 497.74 231.49 508.19C232.72 513.32 232.57 522.89 232.48 526.28C225.24 526.51 223.28 524.52 219.96 520.84C216.17 512.94 207.25 506.6 197.89 506.6C183.98 506.6 172.89 518.68 174.53 532.93H174.51Z" fill="black"/>
<path d="M294.35 116.82C293.15 106.43 284.88 97.8802 274.53 96.3702C263.71 94.7902 254.06 100.6 249.79 109.48C246.82 113.03 244.41 118.08 236.41 118.36C236.78 109.09 239.91 103.66 244.33 99.9602C253.22 95.7002 259.02 86.0501 257.44 75.2301C255.93 64.8801 247.38 56.6201 236.99 55.4101C222.74 53.7601 210.66 64.8502 210.66 78.7702C210.66 88.1202 216.13 96.1701 224.04 99.9701C227.87 102.77 231.2 108.94 231.57 118.31C223.16 118.15 221.54 113.03 218.57 109.49C214.31 100.61 204.67 94.8002 193.84 96.3702C183.49 97.8802 175.22 106.43 174.01 116.81C172.36 131.06 183.45 143.15 197.37 143.15C206.72 143.15 215.64 136.81 219.44 128.91C222.71 125.28 223.96 123.51 231.75 123.51C232.22 130.17 231.98 137.37 230.97 141.56C227.09 152.69 218.4 165.58 211.84 172.96C211.22 173.66 211.95 174.68 212.83 174.36C223.73 170.46 244.6 170.46 255.5 174.36C256.38 174.68 257.11 173.65 256.48 172.95C249.73 165.39 240.56 152.01 237.37 141.56C236.14 136.43 236.29 126.86 236.38 123.47C243.62 123.24 245.58 125.23 248.9 128.91C252.69 136.81 261.61 143.15 270.97 143.15C284.88 143.15 295.97 131.07 294.33 116.82H294.35Z" fill="black"/>
<path d="M85.47 138.17C84.88 133.1 80.8501 128.93 75.8001 128.19C70.5201 127.42 65.81 130.25 63.73 134.59C62.28 136.32 61.1 138.79 57.2 138.92C57.38 134.4 58.9101 131.75 61.0601 129.94C65.4001 127.86 68.23 123.15 67.46 117.87C66.72 112.82 62.55 108.79 57.48 108.2C50.53 107.39 44.6301 112.81 44.6301 119.6C44.6301 124.16 47.3001 128.09 51.1601 129.94C53.0301 131.31 54.66 134.32 54.84 138.89C50.74 138.81 49.9401 136.31 48.5001 134.59C46.4201 130.26 41.7201 127.42 36.4301 128.19C31.3801 128.92 27.3401 133.1 26.7601 138.17C25.9501 145.12 31.3701 151.02 38.1601 151.02C42.7201 151.02 47.0801 147.93 48.9301 144.07C50.5301 142.3 51.14 141.44 54.94 141.43C55.17 144.68 55.0501 148.19 54.5601 150.24C52.6701 155.67 48.43 161.96 45.23 165.56C44.93 165.9 45.28 166.4 45.71 166.24C51.03 164.34 61.2101 164.34 66.5301 166.24C66.9601 166.39 67.3101 165.89 67.0101 165.55C63.7101 161.86 59.24 155.33 57.69 150.23C57.09 147.73 57.16 143.06 57.21 141.4C60.74 141.29 61.7 142.26 63.32 144.06C65.17 147.92 69.52 151.01 74.09 151.01C80.88 151.01 86.29 145.11 85.49 138.16L85.47 138.17Z" fill="black"/>
<path d="M383.74 511.9C384.33 516.97 388.36 521.14 393.41 521.88C398.69 522.65 403.4 519.82 405.48 515.48C406.93 513.75 408.11 511.28 412.01 511.15C411.83 515.67 410.3 518.32 408.15 520.13C403.81 522.21 400.98 526.92 401.75 532.2C402.49 537.25 406.66 541.28 411.73 541.87C418.68 542.68 424.58 537.26 424.58 530.47C424.58 525.91 421.91 521.98 418.05 520.13C416.18 518.76 414.55 515.75 414.37 511.18C418.47 511.26 419.27 513.76 420.71 515.48C422.79 519.81 427.49 522.65 432.78 521.88C437.83 521.15 441.87 516.97 442.45 511.9C443.26 504.95 437.84 499.05 431.05 499.05C426.49 499.05 422.13 502.14 420.28 506C418.68 507.77 418.07 508.63 414.27 508.64C414.04 505.39 414.16 501.88 414.65 499.83C416.54 494.4 420.78 488.11 423.98 484.51C424.28 484.17 423.93 483.67 423.5 483.83C418.18 485.73 408 485.73 402.68 483.83C402.25 483.68 401.89 484.18 402.2 484.52C405.5 488.21 409.97 494.74 411.52 499.84C412.12 502.34 412.05 507.01 412 508.67C408.47 508.78 407.51 507.81 405.89 506.01C404.04 502.15 399.69 499.06 395.12 499.06C388.33 499.06 382.92 504.96 383.72 511.91L383.74 511.9Z" fill="black"/>
<path d="M67.5502 57.0999C70.1902 55.6099 72.2001 53.9699 73.6101 52.1499C75.7901 49.3499 76.8901 45.9899 76.8901 42.1899C76.8901 36.9299 74.8801 32.4599 70.9401 28.8999C67.0501 25.3899 61.8401 23.6099 55.4401 23.6099C48.5701 23.6099 43.1601 25.6699 39.3801 29.7299C36.6401 32.6799 35.2601 36.1298 35.2601 39.9698C35.2601 42.5798 35.9101 44.6999 37.2101 46.2599C39.8401 49.4299 44.8501 49.4899 47.6101 46.9199C48.9501 45.6699 49.6702 44.0399 49.6702 42.1999C49.6702 39.9299 48.5901 37.7799 46.5101 35.8599C45.6501 35.0299 45.4001 34.5799 45.3401 34.5499C45.4201 34.3899 45.8101 33.7799 47.4701 32.7699C49.2201 31.7099 51.6902 31.1799 54.7802 31.1799C57.8702 31.1799 60.3201 32.0399 61.8401 33.7999C63.4301 35.6299 64.2301 38.9499 64.2301 43.6699C64.2301 47.3699 63.4102 50.0798 61.7902 51.7198C60.1802 53.3598 57.6202 54.1899 54.2902 54.1899L49.3401 53.9999C47.7801 53.9999 46.6101 54.3099 45.7501 54.9399C44.7601 55.6799 44.2101 56.7999 44.2101 58.0899C44.2101 59.3099 44.7702 60.4099 45.7802 61.1799C46.6602 61.8399 47.8001 62.1799 49.1901 62.1799C49.8201 62.1799 50.8402 62.0899 52.2902 61.8699C53.7702 61.6399 55.0001 61.5199 55.9901 61.5199C59.4001 61.5199 61.8601 62.4599 63.4901 64.3799C65.1901 66.3699 66.0502 69.9699 66.0502 75.0799C66.0502 79.8899 65.0402 83.3699 63.0602 85.3999C61.0902 87.4199 57.8802 88.4499 53.5302 88.4499C50.9302 88.4499 48.7701 88.1399 47.1401 87.5199C45.6101 86.9399 44.4701 86.1999 43.7401 85.2999C42.9701 84.3599 42.8001 83.7799 42.6901 83.7799C42.7801 83.6799 43.0701 83.4399 43.7401 83.0799C45.3201 82.2099 46.4301 81.2499 47.1201 80.1399C47.8301 79.0199 48.1802 77.6599 48.1802 76.1199C48.1802 73.7799 47.5102 71.8699 46.1802 70.4299C43.3402 67.3699 37.8701 67.4799 34.9001 70.9999C33.4301 72.7499 32.6802 75.0899 32.6802 77.9599C32.6802 81.2899 33.5501 84.3399 35.2601 87.0199C36.9701 89.6999 39.5601 91.8399 42.9401 93.3799C46.2301 94.8799 50.1701 95.6399 54.6501 95.6399C62.1301 95.6399 68.3202 93.5699 73.0402 89.4999C77.3302 85.8399 79.5001 80.9399 79.5001 74.9399C79.5001 69.6299 77.6801 65.1099 74.1001 61.4899C72.3401 59.7099 70.1401 58.2399 67.5201 57.0999H67.5502Z" fill="black"/>
<path d="M401.66 592.59C399.02 594.08 397.01 595.72 395.6 597.54C393.42 600.34 392.32 603.7 392.32 607.5C392.32 612.76 394.33 617.23 398.27 620.79C402.16 624.3 407.37 626.08 413.77 626.08C420.64 626.08 426.05 624.02 429.83 619.96C432.57 617.01 433.95 613.56 433.95 609.72C433.95 607.11 433.3 604.99 432 603.43C429.37 600.26 424.36 600.2 421.6 602.77C420.26 604.02 419.54 605.65 419.54 607.49C419.54 609.76 420.62 611.91 422.7 613.83C423.56 614.66 423.81 615.11 423.87 615.14C423.79 615.3 423.4 615.91 421.74 616.92C419.99 617.98 417.52 618.51 414.43 618.51C411.34 618.51 408.89 617.65 407.37 615.89C405.78 614.06 404.98 610.74 404.98 606.02C404.98 602.32 405.8 599.61 407.42 597.97C409.03 596.33 411.59 595.5 414.92 595.5L419.87 595.69C421.43 595.69 422.6 595.38 423.46 594.75C424.45 594.01 425 592.89 425 591.6C425 590.38 424.44 589.28 423.43 588.51C422.55 587.85 421.41 587.51 420.02 587.51C419.39 587.51 418.37 587.6 416.92 587.82C415.44 588.05 414.21 588.17 413.22 588.17C409.81 588.17 407.35 587.23 405.72 585.31C404.02 583.32 403.16 579.72 403.16 574.61C403.16 569.8 404.17 566.32 406.15 564.29C408.12 562.27 411.33 561.24 415.68 561.24C418.28 561.24 420.44 561.55 422.07 562.17C423.6 562.75 424.74 563.49 425.47 564.39C426.24 565.33 426.41 565.91 426.52 565.91C426.43 566.01 426.14 566.25 425.47 566.61C423.89 567.48 422.78 568.44 422.09 569.55C421.38 570.67 421.03 572.03 421.03 573.57C421.03 575.91 421.7 577.82 423.03 579.26C425.87 582.32 431.34 582.21 434.31 578.69C435.78 576.94 436.53 574.6 436.53 571.73C436.53 568.4 435.66 565.35 433.95 562.67C432.24 559.99 429.65 557.85 426.27 556.31C422.98 554.81 419.04 554.05 414.56 554.05C407.08 554.05 400.89 556.12 396.17 560.19C391.88 563.85 389.71 568.75 389.71 574.75C389.71 580.06 391.53 584.59 395.11 588.2C396.87 589.98 399.07 591.45 401.69 592.59H401.66Z" fill="black"/>
<defs>
<linearGradient id="paint0_linear_145_1340" x1="380.19" y1="-103.53" x2="109.71" y2="690.33" gradientUnits="userSpaceOnUse">
<stop stop-color="#E1E1E1"/>
<stop offset="0.12" stop-color="#ECECEC"/>
<stop offset="0.32" stop-color="#FAFAFA"/>
<stop offset="0.49" stop-color="white"/>
<stop offset="0.7" stop-color="#FBFBFB"/>
<stop offset="0.85" stop-color="#F2F2F2"/>
<stop offset="0.99" stop-color="#E2E2E2"/>
<stop offset="1" stop-color="#E1E1E1"/>
</linearGradient>
</defs>
</svg>
