<svg width="469" height="650" viewBox="0 0 469 650" fill="none" xmlns="http://www.w3.org/2000/svg">
<path d="M439.61 0.890137H29.7299C13.6599 0.890137 0.629883 12.9501 0.629883 27.8201V622.66C0.629883 637.53 13.6599 649.59 29.7299 649.59H439.61C455.68 649.59 468.71 637.53 468.71 622.66V27.8201C468.71 12.9501 455.68 0.890137 439.61 0.890137Z" fill="url(#paint0_linear_145_1357)"/>
<path d="M56.9897 114.63C50.4297 102.55 33.7197 107.23 33.7197 119.21C33.7197 132.63 51.0498 137.37 56.8998 149.86L56.9897 150.04L57.0797 149.86C62.9297 137.37 80.2698 132.63 80.2698 119.21C80.2698 107.23 63.5497 102.55 56.9897 114.63Z" fill="#EB3000"/>
<path d="M412.71 535.55C419.27 547.63 435.98 542.95 435.98 530.97C435.98 517.55 418.65 512.81 412.8 500.32L412.71 500.14L412.62 500.32C406.77 512.81 389.43 517.55 389.43 530.97C389.43 542.95 406.15 547.63 412.71 535.55Z" fill="#EB3000"/>
<path d="M234.67 578.64C250.09 607.04 289.4 596.04 289.4 567.88C289.4 536.33 248.65 525.17 234.88 495.8L234.67 495.39L234.46 495.8C220.7 525.17 179.94 536.32 179.94 567.88C179.94 596.04 219.25 607.05 234.67 578.64Z" fill="#EB3000"/>
<path d="M234.19 70.7C218.77 42.3 179.46 53.3 179.46 81.46C179.46 113.01 220.21 124.17 233.98 153.54L234.19 153.95L234.4 153.54C248.16 124.17 288.92 113.02 288.92 81.46C288.92 53.3 249.61 42.29 234.19 70.7Z" fill="#EB3000"/>
<path d="M234.38 291.73C218.96 263.33 179.65 274.33 179.65 302.49C179.65 334.04 220.4 345.2 234.17 374.57L234.38 374.98L234.59 374.57C248.35 345.2 289.11 334.05 289.11 302.49C289.11 274.33 249.8 263.32 234.38 291.73Z" fill="#EB3000"/>
<path d="M67.5502 57.0901C70.1902 55.6001 72.2001 53.9601 73.6101 52.1401C75.7901 49.3401 76.8901 45.9802 76.8901 42.1802C76.8901 36.9202 74.8801 32.4501 70.9401 28.8901C67.0501 25.3801 61.8401 23.6001 55.4401 23.6001C48.5701 23.6001 43.1601 25.6601 39.3801 29.7201C36.6401 32.6701 35.2601 36.1201 35.2601 39.9601C35.2601 42.5701 35.9101 44.6901 37.2101 46.2501C39.8401 49.4201 44.8501 49.4802 47.6101 46.9102C48.9501 45.6602 49.6702 44.0301 49.6702 42.1901C49.6702 39.9201 48.5901 37.7701 46.5101 35.8501C45.6501 35.0201 45.4001 34.5702 45.3401 34.5402C45.4201 34.3802 45.8101 33.7701 47.4701 32.7601C49.2201 31.7001 51.6902 31.1702 54.7802 31.1702C57.8702 31.1702 60.3201 32.0302 61.8401 33.7902C63.4301 35.6202 64.2301 38.9402 64.2301 43.6602C64.2301 47.3602 63.4102 50.0701 61.7902 51.7101C60.1802 53.3501 57.6202 54.1802 54.2902 54.1802L49.3401 53.9901C47.7801 53.9901 46.6101 54.3002 45.7501 54.9302C44.7601 55.6702 44.2101 56.7901 44.2101 58.0801C44.2101 59.3001 44.7702 60.4002 45.7802 61.1702C46.6602 61.8302 47.8001 62.1702 49.1901 62.1702C49.8201 62.1702 50.8402 62.0801 52.2902 61.8601C53.7702 61.6301 55.0001 61.5101 55.9901 61.5101C59.4001 61.5101 61.8601 62.4501 63.4901 64.3701C65.1901 66.3601 66.0502 69.9601 66.0502 75.0701C66.0502 79.8801 65.0402 83.3601 63.0602 85.3901C61.0902 87.4101 57.8802 88.4401 53.5302 88.4401C50.9302 88.4401 48.7701 88.1301 47.1401 87.5101C45.6101 86.9301 44.4701 86.1902 43.7401 85.2902C42.9701 84.3502 42.8001 83.7701 42.6901 83.7701C42.7801 83.6701 43.0701 83.4301 43.7401 83.0701C45.3201 82.2001 46.4301 81.2401 47.1201 80.1301C47.8301 79.0101 48.1802 77.6501 48.1802 76.1101C48.1802 73.7701 47.5102 71.8602 46.1802 70.4202C43.3402 67.3602 37.8701 67.4701 34.9001 70.9901C33.4301 72.7401 32.6802 75.0801 32.6802 77.9501C32.6802 81.2801 33.5501 84.3301 35.2601 87.0101C36.9701 89.6901 39.5601 91.8301 42.9401 93.3701C46.2301 94.8701 50.1701 95.6301 54.6501 95.6301C62.1301 95.6301 68.3202 93.5601 73.0402 89.4901C77.3302 85.8301 79.5001 80.9302 79.5001 74.9302C79.5001 69.6202 77.6801 65.0901 74.1001 61.4801C72.3401 59.7001 70.1401 58.2301 67.5201 57.0901H67.5502Z" fill="#EB3000"/>
<path d="M401.66 592.58C399.02 594.07 397.01 595.71 395.6 597.53C393.42 600.33 392.32 603.69 392.32 607.49C392.32 612.75 394.33 617.22 398.27 620.78C402.16 624.29 407.37 626.07 413.77 626.07C420.64 626.07 426.05 624.01 429.83 619.95C432.57 617 433.95 613.55 433.95 609.71C433.95 607.1 433.3 604.98 432 603.42C429.37 600.25 424.36 600.19 421.6 602.76C420.26 604.01 419.54 605.64 419.54 607.48C419.54 609.75 420.62 611.9 422.7 613.82C423.56 614.65 423.81 615.1 423.87 615.13C423.79 615.29 423.4 615.9 421.74 616.91C419.99 617.97 417.52 618.5 414.43 618.5C411.34 618.5 408.89 617.64 407.37 615.88C405.78 614.05 404.98 610.73 404.98 606.01C404.98 602.31 405.8 599.6 407.42 597.96C409.03 596.32 411.59 595.49 414.92 595.49L419.87 595.68C421.43 595.68 422.6 595.37 423.46 594.74C424.45 594 425 592.88 425 591.59C425 590.37 424.44 589.27 423.43 588.5C422.55 587.84 421.41 587.5 420.02 587.5C419.39 587.5 418.37 587.59 416.92 587.81C415.44 588.04 414.21 588.16 413.22 588.16C409.81 588.16 407.35 587.22 405.72 585.3C404.02 583.31 403.16 579.71 403.16 574.6C403.16 569.79 404.17 566.31 406.15 564.28C408.12 562.26 411.33 561.23 415.68 561.23C418.28 561.23 420.44 561.54 422.07 562.16C423.6 562.74 424.74 563.48 425.47 564.38C426.24 565.32 426.41 565.9 426.52 565.9C426.43 566 426.14 566.24 425.47 566.6C423.89 567.47 422.78 568.43 422.09 569.54C421.38 570.66 421.03 572.02 421.03 573.56C421.03 575.9 421.7 577.81 423.03 579.25C425.87 582.31 431.34 582.2 434.31 578.68C435.78 576.93 436.53 574.59 436.53 571.72C436.53 568.39 435.66 565.34 433.95 562.66C432.24 559.98 429.65 557.84 426.27 556.3C422.98 554.8 419.04 554.04 414.56 554.04C407.08 554.04 400.89 556.11 396.17 560.18C391.88 563.84 389.71 568.74 389.71 574.74C389.71 580.05 391.53 584.58 395.11 588.19C396.87 589.97 399.07 591.44 401.69 592.58H401.66Z" fill="#EB3000"/>
<defs>
<linearGradient id="paint0_linear_145_1357" x1="380.67" y1="-103.26" x2="110.18" y2="690.6" gradientUnits="userSpaceOnUse">
<stop stop-color="#E1E1E1"/>
<stop offset="0.12" stop-color="#ECECEC"/>
<stop offset="0.32" stop-color="#FAFAFA"/>
<stop offset="0.49" stop-color="white"/>
<stop offset="0.7" stop-color="#FBFBFB"/>
<stop offset="0.85" stop-color="#F2F2F2"/>
<stop offset="0.99" stop-color="#E2E2E2"/>
<stop offset="1" stop-color="#E1E1E1"/>
</linearGradient>
</defs>
</svg>
