<svg width="469" height="650" viewBox="0 0 469 650" fill="none" xmlns="http://www.w3.org/2000/svg">
<path d="M439.26 0.620117H29.3799C13.3099 0.620117 0.280029 12.6801 0.280029 27.5501V622.39C0.280029 637.26 13.3099 649.32 29.3799 649.32H439.26C455.33 649.32 468.36 637.26 468.36 622.39V27.5501C468.36 12.6801 455.33 0.620117 439.26 0.620117Z" fill="url(#paint0_linear_145_1402)"/>
<path d="M377.22 116.82C376.02 106.43 367.75 97.8802 357.4 96.3702C346.58 94.7902 336.93 100.6 332.66 109.48C329.69 113.03 327.28 118.08 319.28 118.36C319.65 109.09 322.78 103.66 327.2 99.9602C336.09 95.7002 341.89 86.0501 340.31 75.2301C338.8 64.8801 330.25 56.6201 319.86 55.4101C305.61 53.7601 293.53 64.8502 293.53 78.7702C293.53 88.1202 299 96.1701 306.91 99.9701C310.74 102.77 314.07 108.94 314.44 118.31C306.03 118.15 304.41 113.03 301.44 109.49C297.18 100.61 287.54 94.8002 276.71 96.3702C266.36 97.8802 258.09 106.43 256.88 116.81C255.23 131.06 266.32 143.15 280.24 143.15C289.59 143.15 298.51 136.81 302.31 128.91C305.58 125.28 306.83 123.51 314.62 123.51C315.09 130.17 314.85 137.37 313.84 141.56C309.96 152.69 301.27 165.58 294.71 172.96C294.09 173.66 294.82 174.68 295.7 174.36C306.6 170.46 327.47 170.46 338.37 174.36C339.25 174.68 339.98 173.65 339.35 172.95C332.6 165.39 323.43 152.01 320.24 141.56C319.01 136.43 319.16 126.86 319.25 123.47C326.49 123.24 328.45 125.23 331.77 128.91C335.56 136.81 344.48 143.15 353.84 143.15C367.75 143.15 378.84 131.07 377.2 116.82H377.22Z" fill="black"/>
<path d="M211.75 116.82C210.55 106.43 202.28 97.8802 191.93 96.3702C181.11 94.7902 171.46 100.6 167.19 109.48C164.22 113.03 161.81 118.08 153.81 118.36C154.18 109.09 157.31 103.66 161.73 99.9602C170.62 95.7002 176.42 86.0501 174.84 75.2301C173.33 64.8801 164.78 56.6201 154.39 55.4101C140.14 53.7601 128.06 64.8502 128.06 78.7702C128.06 88.1202 133.53 96.1701 141.44 99.9701C145.27 102.77 148.6 108.94 148.97 118.31C140.56 118.15 138.94 113.03 135.97 109.49C131.71 100.61 122.07 94.8002 111.24 96.3702C100.89 97.8802 92.6199 106.43 91.4099 116.81C89.7599 131.06 100.85 143.15 114.77 143.15C124.12 143.15 133.04 136.81 136.84 128.91C140.11 125.28 141.36 123.51 149.15 123.51C149.62 130.17 149.38 137.37 148.37 141.56C144.49 152.69 135.8 165.58 129.24 172.96C128.62 173.66 129.35 174.68 130.23 174.36C141.13 170.46 162 170.46 172.9 174.36C173.78 174.68 174.51 173.65 173.88 172.95C167.13 165.39 157.96 152.01 154.77 141.56C153.54 136.43 153.69 126.86 153.78 123.47C161.02 123.24 162.98 125.23 166.3 128.91C170.09 136.81 179.01 143.15 188.37 143.15C202.28 143.15 213.37 131.07 211.73 116.82H211.75Z" fill="black"/>
<path d="M91.43 532.93C92.63 543.32 100.9 551.87 111.25 553.38C122.07 554.96 131.72 549.15 135.99 540.27C138.96 536.72 141.37 531.67 149.37 531.39C149 540.66 145.87 546.09 141.45 549.79C132.56 554.05 126.76 563.7 128.33 574.52C129.84 584.87 138.39 593.13 148.78 594.34C163.03 595.99 175.11 584.9 175.11 570.98C175.11 561.63 169.64 553.58 161.73 549.78C157.9 546.98 154.57 540.81 154.2 531.44C162.61 531.6 164.23 536.72 167.2 540.26C171.46 549.14 181.1 554.95 191.93 553.38C202.28 551.87 210.55 543.32 211.76 532.94C213.41 518.69 202.32 506.6 188.4 506.6C179.05 506.6 170.13 512.94 166.33 520.84C163.06 524.47 161.81 526.24 154.02 526.24C153.55 519.58 153.79 512.38 154.8 508.19C158.68 497.06 167.37 484.17 173.93 476.79C174.55 476.09 173.82 475.07 172.94 475.39C162.04 479.29 141.17 479.29 130.27 475.39C129.39 475.07 128.66 476.1 129.29 476.8C136.04 484.36 145.21 497.74 148.4 508.19C149.63 513.32 149.48 522.89 149.39 526.28C142.15 526.51 140.19 524.52 136.87 520.84C133.08 512.94 124.16 506.6 114.8 506.6C100.89 506.6 89.8 518.68 91.44 532.93H91.43Z" fill="black"/>
<path d="M256.9 532.93C258.1 543.32 266.37 551.87 276.72 553.38C287.54 554.96 297.19 549.15 301.46 540.27C304.43 536.72 306.84 531.67 314.84 531.39C314.47 540.66 311.34 546.09 306.92 549.79C298.03 554.05 292.23 563.7 293.81 574.52C295.32 584.87 303.87 593.13 314.26 594.34C328.51 595.99 340.59 584.9 340.59 570.98C340.59 561.63 335.12 553.58 327.21 549.78C323.38 546.98 320.05 540.81 319.68 531.44C328.09 531.6 329.71 536.72 332.68 540.26C336.94 549.14 346.58 554.95 357.41 553.38C367.76 551.87 376.03 543.32 377.24 532.94C378.89 518.69 367.8 506.6 353.88 506.6C344.53 506.6 335.61 512.94 331.81 520.84C328.54 524.47 327.29 526.24 319.5 526.24C319.03 519.58 319.27 512.38 320.28 508.19C324.16 497.06 332.85 484.17 339.41 476.79C340.03 476.09 339.3 475.07 338.42 475.39C327.52 479.29 306.65 479.29 295.75 475.39C294.87 475.07 294.14 476.1 294.77 476.8C301.52 484.36 310.69 497.74 313.88 508.19C315.11 513.32 314.96 522.89 314.87 526.28C307.63 526.51 305.67 524.52 302.35 520.84C298.56 512.94 289.64 506.6 280.28 506.6C266.37 506.6 255.28 518.68 256.92 532.93H256.9Z" fill="black"/>
<path d="M85.6001 138.17C85.0101 133.1 80.98 128.93 75.93 128.19C70.65 127.42 65.9402 130.25 63.8602 134.59C62.4102 136.32 61.2301 138.79 57.3301 138.92C57.5101 134.4 59.04 131.75 61.19 129.94C65.53 127.86 68.3601 123.15 67.5901 117.87C66.8501 112.82 62.6802 108.79 57.6102 108.2C50.6602 107.39 44.7601 112.81 44.7601 119.6C44.7601 124.16 47.4301 128.09 51.2901 129.94C53.1601 131.31 54.79 134.32 54.97 138.89C50.87 138.81 50.0699 136.31 48.6299 134.59C46.5499 130.26 41.8501 127.42 36.5601 128.19C31.5101 128.92 27.4699 133.1 26.8899 138.17C26.0799 145.12 31.5001 151.02 38.2901 151.02C42.8501 151.02 47.2101 147.93 49.0601 144.07C50.6601 142.3 51.2701 141.44 55.0701 141.43C55.3001 144.68 55.18 148.19 54.69 150.24C52.8 155.67 48.5602 161.96 45.3602 165.56C45.0602 165.9 45.4101 166.4 45.8401 166.24C51.1601 164.34 61.34 164.34 66.66 166.24C67.09 166.39 67.4499 165.89 67.1399 165.55C63.8399 161.86 59.3701 155.33 57.8201 150.23C57.2201 147.73 57.2901 143.06 57.3401 141.4C60.8701 141.29 61.83 142.26 63.45 144.06C65.3 147.92 69.65 151.01 74.22 151.01C81.01 151.01 86.4202 145.11 85.6202 138.16L85.6001 138.17Z" fill="black"/>
<path d="M383.87 511.9C384.46 516.97 388.49 521.14 393.54 521.88C398.82 522.65 403.53 519.82 405.61 515.48C407.06 513.75 408.24 511.28 412.14 511.15C411.96 515.67 410.43 518.32 408.28 520.13C403.94 522.21 401.11 526.92 401.88 532.2C402.62 537.25 406.79 541.28 411.86 541.87C418.81 542.68 424.71 537.26 424.71 530.47C424.71 525.91 422.04 521.98 418.18 520.13C416.31 518.76 414.68 515.75 414.5 511.18C418.6 511.26 419.4 513.76 420.84 515.48C422.92 519.81 427.62 522.65 432.91 521.88C437.96 521.15 442 516.97 442.58 511.9C443.39 504.95 437.97 499.05 431.18 499.05C426.62 499.05 422.26 502.14 420.41 506C418.81 507.77 418.2 508.63 414.4 508.64C414.17 505.39 414.29 501.88 414.78 499.83C416.67 494.4 420.91 488.11 424.11 484.51C424.41 484.17 424.06 483.67 423.63 483.83C418.31 485.73 408.13 485.73 402.81 483.83C402.38 483.68 402.02 484.18 402.33 484.52C405.63 488.21 410.1 494.74 411.65 499.84C412.25 502.34 412.18 507.01 412.13 508.67C408.6 508.78 407.64 507.81 406.02 506.01C404.17 502.15 399.82 499.06 395.25 499.06C388.46 499.06 383.05 504.96 383.85 511.91L383.87 511.9Z" fill="black"/>
<path d="M62.45 23.6101H56.3401L23.6899 69.1001V76.2802H50.3999V83.4701C50.3999 84.5601 50.0299 84.8801 49.9099 84.9901C49.6899 85.1901 49.1099 85.5101 47.6399 85.5101H40.77V93.0801H70.99V85.5101H64.97C64.07 85.5101 63.32 85.2801 62.71 84.8501C62.51 84.7001 62.45 84.5801 62.45 84.3201V76.2802H73.3V68.2401H62.45V23.6001V23.6101ZM50.3999 68.2501H33.53L50.3999 44.6201V68.2501Z" fill="black"/>
<path d="M405.93 626.71H412.04L444.69 581.22V574.04H417.98V566.85C417.98 565.76 418.35 565.44 418.47 565.33C418.69 565.13 419.27 564.81 420.74 564.81H427.61V557.24H397.39V564.81H403.41C404.31 564.81 405.06 565.04 405.67 565.47C405.87 565.62 405.93 565.74 405.93 566V574.04H395.08V582.08H405.93V626.72V626.71ZM417.98 582.07H434.85L417.98 605.7V582.07Z" fill="black"/>
<defs>
<linearGradient id="paint0_linear_145_1402" x1="380.32" y1="-103.53" x2="109.84" y2="690.33" gradientUnits="userSpaceOnUse">
<stop stop-color="#E1E1E1"/>
<stop offset="0.12" stop-color="#ECECEC"/>
<stop offset="0.32" stop-color="#FAFAFA"/>
<stop offset="0.49" stop-color="white"/>
<stop offset="0.7" stop-color="#FBFBFB"/>
<stop offset="0.85" stop-color="#F2F2F2"/>
<stop offset="0.99" stop-color="#E2E2E2"/>
<stop offset="1" stop-color="#E1E1E1"/>
</linearGradient>
</defs>
</svg>
