<svg width="469" height="650" viewBox="0 0 469 650" fill="none" xmlns="http://www.w3.org/2000/svg">
<path d="M439.39 0.620117H29.51C13.44 0.620117 0.409912 12.6801 0.409912 27.5501V622.39C0.409912 637.26 13.44 649.32 29.51 649.32H439.39C455.46 649.32 468.49 637.26 468.49 622.39V27.5501C468.49 12.6801 455.46 0.620117 439.39 0.620117Z" fill="url(#paint0_linear_145_1443)"/>
<path d="M294.61 326.96C293.41 316.57 285.14 308.02 274.79 306.51C263.97 304.93 254.32 310.74 250.05 319.62C247.08 323.17 244.67 328.22 236.67 328.5C237.04 319.23 240.17 313.8 244.59 310.1C253.48 305.84 259.28 296.19 257.7 285.37C256.19 275.02 247.64 266.76 237.25 265.55C223 263.9 210.92 274.99 210.92 288.91C210.92 298.26 216.39 306.31 224.3 310.11C228.13 312.91 231.46 319.08 231.83 328.45C223.42 328.29 221.8 323.17 218.83 319.63C214.57 310.75 204.93 304.94 194.1 306.51C183.75 308.02 175.48 316.57 174.27 326.95C172.62 341.2 183.71 353.29 197.63 353.29C206.98 353.29 215.9 346.95 219.7 339.05C222.97 335.42 224.22 333.65 232.01 333.65C232.48 340.31 232.24 347.51 231.23 351.7C227.35 362.83 218.66 375.72 212.1 383.1C211.48 383.8 212.21 384.81 213.09 384.5C223.99 380.6 244.86 380.6 255.76 384.5C256.64 384.82 257.37 383.79 256.74 383.09C249.99 375.53 240.82 362.15 237.63 351.7C236.4 346.57 236.55 337 236.64 333.61C243.88 333.38 245.84 335.37 249.16 339.05C252.95 346.95 261.87 353.29 271.23 353.29C285.14 353.29 296.23 341.21 294.59 326.96H294.61Z" fill="black"/>
<path d="M85.73 138.17C85.14 133.1 81.1101 128.93 76.0601 128.19C70.7801 127.42 66.07 130.25 63.99 134.59C62.54 136.32 61.36 138.79 57.46 138.92C57.64 134.4 59.1701 131.75 61.3201 129.94C65.6601 127.86 68.49 123.15 67.72 117.87C66.98 112.82 62.81 108.79 57.74 108.2C50.79 107.39 44.8899 112.81 44.8899 119.6C44.8899 124.16 47.56 128.09 51.42 129.94C53.29 131.31 54.9201 134.32 55.1001 138.89C51.0001 138.81 50.2001 136.31 48.7601 134.59C46.6801 130.26 41.98 127.42 36.69 128.19C31.64 128.92 27.6001 133.1 27.0201 138.17C26.2101 145.12 31.63 151.02 38.42 151.02C42.98 151.02 47.34 147.93 49.19 144.07C50.79 142.3 51.4 141.44 55.2 141.43C55.43 144.68 55.3101 148.19 54.8201 150.24C52.9301 155.67 48.69 161.96 45.49 165.56C45.19 165.9 45.54 166.4 45.97 166.24C51.29 164.34 61.4701 164.34 66.7901 166.24C67.2201 166.39 67.5801 165.89 67.2701 165.55C63.9701 161.86 59.5 155.33 57.95 150.23C57.35 147.73 57.42 143.06 57.47 141.4C61 141.29 61.9601 142.26 63.5801 144.06C65.4301 147.92 69.7802 151.01 74.3502 151.01C81.1402 151.01 86.5501 145.11 85.7501 138.16L85.73 138.17Z" fill="black"/>
<path d="M384 511.9C384.59 516.97 388.62 521.14 393.67 521.88C398.95 522.65 403.66 519.82 405.74 515.48C407.19 513.75 408.37 511.28 412.27 511.15C412.09 515.67 410.56 518.32 408.41 520.13C404.07 522.21 401.24 526.92 402.01 532.2C402.75 537.25 406.92 541.28 411.99 541.87C418.94 542.68 424.84 537.26 424.84 530.47C424.84 525.91 422.17 521.98 418.31 520.13C416.44 518.76 414.81 515.75 414.63 511.18C418.73 511.26 419.53 513.76 420.97 515.48C423.05 519.81 427.75 522.65 433.04 521.88C438.09 521.15 442.13 516.97 442.71 511.9C443.52 504.95 438.1 499.05 431.31 499.05C426.75 499.05 422.39 502.14 420.54 506C418.94 507.77 418.33 508.63 414.53 508.64C414.3 505.39 414.42 501.88 414.91 499.83C416.8 494.4 421.04 488.11 424.24 484.51C424.54 484.17 424.19 483.67 423.76 483.83C418.44 485.73 408.26 485.73 402.94 483.83C402.51 483.68 402.16 484.18 402.46 484.52C405.76 488.21 410.23 494.74 411.78 499.84C412.38 502.34 412.31 507.01 412.26 508.67C408.73 508.78 407.77 507.81 406.15 506.01C404.3 502.15 399.95 499.06 395.38 499.06C388.59 499.06 383.18 504.96 383.98 511.91L384 511.9Z" fill="black"/>
<path d="M377.35 116.82C376.15 106.43 367.88 97.8802 357.53 96.3702C346.71 94.7902 337.06 100.6 332.79 109.48C329.82 113.03 327.41 118.08 319.41 118.36C319.78 109.09 322.91 103.66 327.33 99.9602C336.22 95.7002 342.02 86.0501 340.45 75.2301C338.94 64.8801 330.39 56.6201 320 55.4101C305.75 53.7601 293.67 64.8502 293.67 78.7702C293.67 88.1202 299.14 96.1701 307.05 99.9701C310.88 102.77 314.21 108.94 314.58 118.31C306.17 118.15 304.55 113.03 301.58 109.49C297.32 100.61 287.68 94.8002 276.85 96.3702C266.5 97.8802 258.23 106.43 257.02 116.81C255.37 131.06 266.46 143.15 280.38 143.15C289.73 143.15 298.65 136.81 302.45 128.91C305.72 125.28 306.97 123.51 314.76 123.51C315.23 130.17 314.99 137.37 313.98 141.56C310.1 152.69 301.41 165.58 294.85 172.96C294.23 173.66 294.96 174.68 295.84 174.36C306.74 170.46 327.61 170.46 338.51 174.36C339.39 174.68 340.12 173.65 339.49 172.95C332.74 165.39 323.57 152.01 320.38 141.56C319.15 136.43 319.3 126.86 319.39 123.47C326.63 123.24 328.59 125.23 331.91 128.91C335.7 136.81 344.62 143.15 353.98 143.15C367.89 143.15 378.98 131.07 377.34 116.82H377.35Z" fill="black"/>
<path d="M211.87 116.82C210.67 106.43 202.4 97.8802 192.05 96.3702C181.23 94.7902 171.58 100.6 167.31 109.48C164.34 113.03 161.93 118.08 153.93 118.36C154.3 109.09 157.43 103.66 161.85 99.9602C170.74 95.7002 176.54 86.0501 174.96 75.2301C173.45 64.8801 164.9 56.6201 154.51 55.4101C140.26 53.7601 128.18 64.8502 128.18 78.7702C128.18 88.1202 133.65 96.1701 141.56 99.9701C145.39 102.77 148.72 108.94 149.09 118.31C140.68 118.15 139.06 113.03 136.09 109.49C131.83 100.61 122.19 94.8002 111.36 96.3702C101.01 97.8802 92.7403 106.43 91.5303 116.81C89.8803 131.06 100.97 143.15 114.89 143.15C124.24 143.15 133.16 136.81 136.96 128.91C140.23 125.28 141.48 123.51 149.27 123.51C149.74 130.17 149.5 137.37 148.49 141.56C144.61 152.69 135.92 165.58 129.36 172.96C128.74 173.66 129.47 174.68 130.35 174.36C141.25 170.46 162.12 170.46 173.02 174.36C173.9 174.68 174.63 173.65 174 172.95C167.25 165.39 158.08 152.01 154.89 141.56C153.66 136.43 153.81 126.86 153.9 123.47C161.14 123.24 163.1 125.23 166.42 128.91C170.21 136.81 179.13 143.15 188.49 143.15C202.4 143.15 213.49 131.07 211.85 116.82H211.87Z" fill="black"/>
<path d="M91.5501 532.93C92.7501 543.32 101.02 551.87 111.37 553.38C122.19 554.96 131.84 549.15 136.11 540.27C139.08 536.72 141.49 531.67 149.49 531.39C149.12 540.66 145.99 546.09 141.57 549.79C132.68 554.05 126.88 563.7 128.45 574.52C129.96 584.87 138.51 593.13 148.9 594.34C163.15 595.99 175.23 584.9 175.23 570.98C175.23 561.63 169.76 553.58 161.85 549.78C158.02 546.98 154.69 540.81 154.32 531.44C162.73 531.6 164.35 536.72 167.32 540.26C171.58 549.14 181.22 554.95 192.05 553.38C202.4 551.87 210.67 543.32 211.88 532.94C213.53 518.69 202.44 506.6 188.52 506.6C179.17 506.6 170.25 512.94 166.45 520.84C163.18 524.47 161.93 526.24 154.14 526.24C153.67 519.58 153.91 512.38 154.92 508.19C158.8 497.06 167.49 484.17 174.05 476.79C174.67 476.09 173.94 475.07 173.06 475.39C162.16 479.29 141.29 479.29 130.39 475.39C129.51 475.07 128.78 476.1 129.41 476.8C136.16 484.36 145.33 497.74 148.52 508.19C149.75 513.32 149.6 522.89 149.51 526.28C142.27 526.51 140.31 524.52 136.99 520.84C133.2 512.94 124.28 506.6 114.92 506.6C101.01 506.6 89.9201 518.68 91.5601 532.93H91.5501Z" fill="black"/>
<path d="M257.02 532.93C258.22 543.32 266.49 551.87 276.84 553.38C287.66 554.96 297.31 549.15 301.58 540.27C304.55 536.72 306.96 531.67 314.96 531.39C314.59 540.66 311.46 546.09 307.04 549.79C298.15 554.05 292.35 563.7 293.93 574.52C295.44 584.87 303.99 593.13 314.38 594.34C328.63 595.99 340.71 584.9 340.71 570.98C340.71 561.63 335.24 553.58 327.33 549.78C323.5 546.98 320.17 540.81 319.8 531.44C328.21 531.6 329.83 536.72 332.8 540.26C337.06 549.14 346.7 554.95 357.53 553.38C367.88 551.87 376.15 543.32 377.36 532.94C379.01 518.69 367.92 506.6 354 506.6C344.65 506.6 335.73 512.94 331.93 520.84C328.66 524.47 327.41 526.24 319.62 526.24C319.15 519.58 319.39 512.38 320.4 508.19C324.28 497.06 332.97 484.17 339.53 476.79C340.15 476.09 339.42 475.07 338.54 475.39C327.64 479.29 306.77 479.29 295.87 475.39C294.99 475.07 294.26 476.1 294.89 476.8C301.64 484.36 310.81 497.74 314 508.19C315.23 513.32 315.08 522.89 314.99 526.28C307.75 526.51 305.79 524.52 302.47 520.84C298.68 512.94 289.76 506.6 280.4 506.6C266.49 506.6 255.4 518.68 257.04 532.93H257.02Z" fill="black"/>
<path d="M55.6699 47.6499C53.5499 47.6499 51.3 47.9799 48.96 48.6199C47.66 48.9799 46.33 49.4399 44.95 49.9999L46 37.6699C54.84 39.4099 61.3801 39.4599 66.5901 37.1699C69.3301 35.9699 71.5299 34.3199 73.1499 32.2499C74.8899 30.0199 75.7 28.2399 75.7 26.6399C75.7 24.8499 74.45 23.9199 73.21 23.9199C72.68 23.9199 72.1399 24.0999 71.1699 24.6099C70.5899 24.9499 69.3901 25.4598 67.0701 25.9698C65.1401 26.3898 63.0501 26.6099 60.8501 26.6099C55.9901 26.6099 49.5901 25.7099 41.8101 23.9199L39.3601 23.3599L39.3401 25.8699C39.3101 30.8799 39.0799 36.1999 38.6599 41.6699L37.6001 55.0599C37.5301 55.1499 37.4301 55.2599 37.3101 55.4099C35.6601 57.1399 34.8201 58.9899 34.8201 60.8999C34.8201 62.1799 35.1701 63.2399 35.8701 64.0499C37.5701 66.0399 40.9499 65.7599 42.6699 63.5199C43.3899 62.5799 43.8699 61.1399 44.1499 59.0099C45.6399 57.9899 47.1401 57.1999 48.6101 56.6599C50.2701 56.0499 51.9401 55.7399 53.5801 55.7399C57.1901 55.7399 60.0601 56.9199 62.3601 59.3599C64.6601 61.7899 65.8201 65.8499 65.8201 71.4199C65.8201 77.6299 64.7 82.0999 62.5 84.6999C60.34 87.2399 57.25 88.4698 53.01 88.4698C50.83 88.4698 48.88 88.1299 47.23 87.4599C45.66 86.8299 44.51 86.0399 43.79 85.1199C43.29 84.4799 42.9701 83.8899 42.8501 83.4099C42.9901 83.3199 43.21 83.2099 43.54 83.0799C45.35 82.4199 46.6001 81.5599 47.3701 80.4399C48.1301 79.3499 48.5 77.8999 48.5 76.1399C48.5 73.8199 47.7801 71.8899 46.3701 70.3899C43.4401 67.2599 37.9201 67.2499 35.0601 70.9599C33.7001 72.7199 33.01 75.1399 33.01 78.1599C33.01 83.0098 34.95 87.2398 38.79 90.7198C42.57 94.1498 47.4999 95.8899 53.4299 95.8899C61.0399 95.8899 67.36 93.5299 72.2 88.8599C77.0499 84.1799 79.51 78.1499 79.51 70.9399C79.51 64.3999 77.1801 58.8099 72.6001 54.3499C68.0401 49.8999 62.3399 47.6399 55.6499 47.6399L55.6699 47.6499Z" fill="black"/>
<path d="M412.96 602.41C415.08 602.41 417.33 602.08 419.67 601.44C420.97 601.08 422.3 600.62 423.68 600.06L422.63 612.39C413.79 610.65 407.25 610.6 402.04 612.89C399.3 614.09 397.1 615.75 395.48 617.81C393.74 620.04 392.93 621.82 392.93 623.42C392.93 625.21 394.18 626.14 395.42 626.14C395.95 626.14 396.49 625.96 397.46 625.45C398.04 625.11 399.24 624.6 401.56 624.09C403.49 623.67 405.58 623.45 407.78 623.45C412.64 623.45 419.04 624.35 426.82 626.14L429.27 626.7L429.29 624.19C429.32 619.18 429.55 613.86 429.97 608.39L431.03 595C431.1 594.91 431.2 594.8 431.32 594.65C432.97 592.92 433.81 591.07 433.81 589.16C433.81 587.88 433.46 586.82 432.76 586.01C431.06 584.02 427.68 584.3 425.96 586.54C425.24 587.48 424.76 588.92 424.48 591.05C422.99 592.07 421.49 592.86 420.02 593.4C418.36 594.01 416.69 594.32 415.05 594.32C411.44 594.32 408.57 593.14 406.27 590.7C403.97 588.27 402.81 584.21 402.81 578.64C402.81 572.43 403.93 567.96 406.13 565.36C408.28 562.82 411.38 561.59 415.62 561.59C417.8 561.59 419.75 561.93 421.4 562.6C422.97 563.23 424.12 564.02 424.84 564.94C425.34 565.58 425.66 566.17 425.78 566.65C425.64 566.74 425.42 566.85 425.09 566.98C423.28 567.64 422.03 568.5 421.26 569.62C420.5 570.71 420.13 572.16 420.13 573.92C420.13 576.24 420.85 578.17 422.26 579.67C425.19 582.8 430.71 582.81 433.57 579.1C434.93 577.34 435.62 574.92 435.62 571.9C435.62 567.05 433.68 562.82 429.84 559.34C426.06 555.91 421.13 554.17 415.2 554.17C407.59 554.17 401.27 556.53 396.43 561.2C391.58 565.88 389.12 571.91 389.12 579.12C389.12 585.66 391.45 591.25 396.03 595.71C400.59 600.16 406.29 602.42 412.98 602.42L412.96 602.41Z" fill="black"/>
<defs>
<linearGradient id="paint0_linear_145_1443" x1="380.45" y1="-103.53" x2="109.96" y2="690.33" gradientUnits="userSpaceOnUse">
<stop stop-color="#E1E1E1"/>
<stop offset="0.12" stop-color="#ECECEC"/>
<stop offset="0.32" stop-color="#FAFAFA"/>
<stop offset="0.49" stop-color="white"/>
<stop offset="0.7" stop-color="#FBFBFB"/>
<stop offset="0.85" stop-color="#F2F2F2"/>
<stop offset="0.99" stop-color="#E2E2E2"/>
<stop offset="1" stop-color="#E1E1E1"/>
</linearGradient>
</defs>
</svg>
