<svg width="469" height="650" viewBox="0 0 469 650" fill="none" xmlns="http://www.w3.org/2000/svg">
<path d="M439.52 0.620117H29.6399C13.5699 0.620117 0.540039 12.6801 0.540039 27.5501V622.39C0.540039 637.26 13.5699 649.32 29.6399 649.32H439.52C455.59 649.32 468.62 637.26 468.62 622.39V27.5501C468.62 12.6801 455.59 0.620117 439.52 0.620117Z" fill="url(#paint0_linear_145_1488)"/>
<path d="M85.8599 138.17C85.2699 133.1 81.2397 128.93 76.1897 128.19C70.9097 127.42 66.1999 130.25 64.1199 134.59C62.6699 136.32 61.4899 138.79 57.5899 138.92C57.7699 134.4 59.2998 131.75 61.4498 129.94C65.7898 127.86 68.6199 123.15 67.8499 117.87C67.1099 112.82 62.9399 108.79 57.8699 108.2C50.9199 107.39 45.0198 112.81 45.0198 119.6C45.0198 124.16 47.6899 128.09 51.5499 129.94C53.4199 131.31 55.0498 134.32 55.2298 138.89C51.1298 138.81 50.3297 136.31 48.8897 134.59C46.8097 130.26 42.1099 127.42 36.8199 128.19C31.7699 128.92 27.7297 133.1 27.1497 138.17C26.3397 145.12 31.7599 151.02 38.5499 151.02C43.1099 151.02 47.4699 147.93 49.3199 144.07C50.9199 142.3 51.5299 141.44 55.3299 141.43C55.5599 144.68 55.4398 148.19 54.9498 150.24C53.0598 155.67 48.8199 161.96 45.6199 165.56C45.3199 165.9 45.6699 166.4 46.0999 166.24C51.4199 164.34 61.5997 164.34 66.9197 166.24C67.3497 166.39 67.6997 165.89 67.3997 165.55C64.0997 161.86 59.6299 155.33 58.0799 150.23C57.4799 147.73 57.5499 143.06 57.5999 141.4C61.1299 141.29 62.0898 142.26 63.7098 144.06C65.5598 147.92 69.9098 151.01 74.4798 151.01C81.2698 151.01 86.6797 145.11 85.8797 138.16L85.8599 138.17Z" fill="black"/>
<path d="M384.13 511.9C384.72 516.97 388.75 521.14 393.8 521.88C399.08 522.65 403.79 519.82 405.87 515.48C407.32 513.75 408.5 511.28 412.4 511.15C412.22 515.67 410.69 518.32 408.54 520.13C404.2 522.21 401.37 526.92 402.14 532.2C402.88 537.25 407.05 541.28 412.12 541.87C419.07 542.68 424.97 537.26 424.97 530.47C424.97 525.91 422.3 521.98 418.44 520.13C416.57 518.76 414.94 515.75 414.76 511.18C418.86 511.26 419.66 513.76 421.1 515.48C423.18 519.81 427.88 522.65 433.17 521.88C438.22 521.15 442.26 516.97 442.84 511.9C443.65 504.95 438.23 499.05 431.44 499.05C426.88 499.05 422.52 502.14 420.67 506C419.07 507.77 418.46 508.63 414.66 508.64C414.43 505.39 414.55 501.88 415.04 499.83C416.93 494.4 421.17 488.11 424.37 484.51C424.67 484.17 424.32 483.67 423.89 483.83C418.57 485.73 408.39 485.73 403.07 483.83C402.64 483.68 402.28 484.18 402.59 484.52C405.89 488.21 410.36 494.74 411.91 499.84C412.51 502.34 412.44 507.01 412.39 508.67C408.86 508.78 407.9 507.81 406.28 506.01C404.43 502.15 400.08 499.06 395.51 499.06C388.72 499.06 383.31 504.96 384.11 511.91L384.13 511.9Z" fill="black"/>
<path d="M377.47 116.82C376.27 106.43 368 97.8802 357.65 96.3702C346.83 94.7902 337.18 100.6 332.91 109.48C329.94 113.03 327.53 118.08 319.53 118.36C319.9 109.09 323.03 103.66 327.45 99.9602C336.34 95.7002 342.14 86.0501 340.56 75.2301C339.05 64.8801 330.5 56.6201 320.11 55.4101C305.86 53.7601 293.78 64.8502 293.78 78.7702C293.78 88.1202 299.25 96.1701 307.16 99.9701C310.99 102.77 314.32 108.94 314.69 118.31C306.28 118.15 304.66 113.03 301.69 109.49C297.43 100.61 287.79 94.8002 276.96 96.3702C266.61 97.8802 258.34 106.43 257.13 116.81C255.48 131.06 266.57 143.15 280.49 143.15C289.84 143.15 298.76 136.81 302.56 128.91C305.83 125.28 307.08 123.51 314.87 123.51C315.34 130.17 315.1 137.37 314.09 141.56C310.21 152.69 301.52 165.58 294.96 172.96C294.34 173.66 295.07 174.68 295.95 174.36C306.85 170.46 327.72 170.46 338.62 174.36C339.5 174.68 340.23 173.65 339.6 172.95C332.85 165.39 323.68 152.01 320.49 141.56C319.26 136.43 319.41 126.86 319.5 123.47C326.74 123.24 328.7 125.23 332.02 128.91C335.81 136.81 344.73 143.15 354.09 143.15C368 143.15 379.09 131.07 377.45 116.82H377.47Z" fill="black"/>
<path d="M212 116.82C210.8 106.43 202.53 97.8802 192.18 96.3702C181.36 94.7902 171.71 100.6 167.44 109.48C164.47 113.03 162.06 118.08 154.06 118.36C154.43 109.09 157.56 103.66 161.98 99.9602C170.87 95.7002 176.67 86.0501 175.1 75.2301C173.59 64.8801 165.04 56.6201 154.65 55.4101C140.4 53.7601 128.32 64.8502 128.32 78.7702C128.32 88.1202 133.79 96.1701 141.7 99.9701C145.53 102.77 148.86 108.94 149.23 118.31C140.82 118.15 139.2 113.03 136.23 109.49C131.97 100.61 122.33 94.8002 111.5 96.3702C101.15 97.8802 92.8799 106.43 91.6699 116.81C90.0199 131.06 101.11 143.15 115.03 143.15C124.38 143.15 133.3 136.81 137.1 128.91C140.37 125.28 141.62 123.51 149.41 123.51C149.88 130.17 149.64 137.37 148.63 141.56C144.75 152.69 136.06 165.58 129.5 172.96C128.88 173.66 129.61 174.68 130.49 174.36C141.39 170.46 162.26 170.46 173.16 174.36C174.04 174.68 174.77 173.65 174.14 172.95C167.39 165.39 158.22 152.01 155.03 141.56C153.8 136.43 153.95 126.86 154.04 123.47C161.28 123.24 163.24 125.23 166.56 128.91C170.35 136.81 179.27 143.15 188.63 143.15C202.54 143.15 213.63 131.07 211.99 116.82H212Z" fill="black"/>
<path d="M91.6803 532.93C92.8803 543.32 101.15 551.87 111.5 553.38C122.32 554.96 131.97 549.15 136.24 540.27C139.21 536.72 141.62 531.67 149.62 531.39C149.25 540.66 146.12 546.09 141.7 549.79C132.81 554.05 127.01 563.7 128.59 574.52C130.1 584.87 138.65 593.13 149.04 594.34C163.29 595.99 175.37 584.9 175.37 570.98C175.37 561.63 169.9 553.58 161.99 549.78C158.16 546.98 154.83 540.81 154.46 531.44C162.87 531.6 164.49 536.72 167.46 540.26C171.72 549.14 181.36 554.95 192.19 553.38C202.54 551.87 210.81 543.32 212.02 532.94C213.67 518.69 202.58 506.6 188.66 506.6C179.31 506.6 170.39 512.94 166.59 520.84C163.32 524.47 162.07 526.24 154.28 526.24C153.81 519.58 154.05 512.38 155.06 508.19C158.94 497.06 167.63 484.17 174.19 476.79C174.81 476.09 174.08 475.07 173.2 475.39C162.3 479.29 141.43 479.29 130.53 475.39C129.65 475.07 128.92 476.1 129.55 476.8C136.3 484.36 145.47 497.74 148.66 508.19C149.89 513.32 149.74 522.89 149.65 526.28C142.41 526.51 140.45 524.52 137.13 520.84C133.34 512.94 124.42 506.6 115.06 506.6C101.15 506.6 90.0603 518.68 91.7003 532.93H91.6803Z" fill="black"/>
<path d="M257.15 532.93C258.35 543.32 266.62 551.87 276.97 553.38C287.79 554.96 297.44 549.15 301.71 540.27C304.68 536.72 307.09 531.67 315.09 531.39C314.72 540.66 311.59 546.09 307.17 549.79C298.28 554.05 292.48 563.7 294.06 574.52C295.57 584.87 304.12 593.13 314.51 594.34C328.76 595.99 340.84 584.9 340.84 570.98C340.84 561.63 335.37 553.58 327.46 549.78C323.63 546.98 320.3 540.81 319.93 531.44C328.34 531.6 329.96 536.72 332.93 540.26C337.19 549.14 346.83 554.95 357.66 553.38C368.01 551.87 376.28 543.32 377.49 532.94C379.14 518.69 368.05 506.6 354.13 506.6C344.78 506.6 335.86 512.94 332.06 520.84C328.79 524.47 327.54 526.24 319.75 526.24C319.28 519.58 319.52 512.38 320.53 508.19C324.41 497.06 333.1 484.17 339.66 476.79C340.28 476.09 339.55 475.07 338.67 475.39C327.77 479.29 306.9 479.29 296 475.39C295.12 475.07 294.39 476.1 295.02 476.8C301.77 484.36 310.94 497.74 314.13 508.19C315.36 513.32 315.21 522.89 315.12 526.28C307.88 526.51 305.92 524.52 302.6 520.84C298.81 512.94 289.89 506.6 280.53 506.6C266.62 506.6 255.53 518.68 257.17 532.93H257.15Z" fill="black"/>
<path d="M199.81 326.96C198.61 316.57 190.34 308.02 179.99 306.51C169.17 304.93 159.52 310.74 155.25 319.62C152.28 323.17 149.87 328.22 141.87 328.5C142.24 319.23 145.37 313.8 149.79 310.1C158.68 305.84 164.48 296.19 162.9 285.37C161.39 275.02 152.84 266.76 142.45 265.55C128.2 263.9 116.12 274.99 116.12 288.91C116.12 298.26 121.59 306.31 129.5 310.11C133.33 312.91 136.66 319.08 137.03 328.45C128.62 328.29 127 323.17 124.03 319.63C119.77 310.75 110.13 304.94 99.2998 306.51C88.9498 308.02 80.6797 316.57 79.4697 326.95C77.8197 341.2 88.9098 353.29 102.83 353.29C112.18 353.29 121.1 346.95 124.9 339.05C128.17 335.42 129.42 333.65 137.21 333.65C137.68 340.31 137.44 347.51 136.43 351.7C132.55 362.83 123.86 375.72 117.3 383.1C116.68 383.8 117.41 384.81 118.29 384.5C129.19 380.6 150.06 380.6 160.96 384.5C161.84 384.82 162.57 383.79 161.94 383.09C155.19 375.53 146.02 362.15 142.83 351.7C141.6 346.57 141.75 337 141.84 333.61C149.08 333.38 151.04 335.37 154.36 339.05C158.15 346.95 167.07 353.29 176.43 353.29C190.34 353.29 201.43 341.21 199.79 326.96H199.81Z" fill="black"/>
<path d="M389.67 326.96C388.47 316.57 380.2 308.02 369.85 306.51C359.03 304.93 349.38 310.74 345.11 319.62C342.14 323.17 339.73 328.22 331.73 328.5C332.1 319.23 335.23 313.8 339.65 310.1C348.54 305.84 354.34 296.19 352.76 285.37C351.25 275.02 342.7 266.76 332.31 265.55C318.06 263.9 305.98 274.99 305.98 288.91C305.98 298.26 311.45 306.31 319.36 310.11C323.19 312.91 326.52 319.08 326.89 328.45C318.48 328.29 316.86 323.17 313.89 319.63C309.63 310.75 299.99 304.94 289.16 306.51C278.81 308.02 270.54 316.57 269.33 326.95C267.68 341.2 278.77 353.29 292.69 353.29C302.04 353.29 310.96 346.95 314.76 339.05C318.03 335.42 319.28 333.65 327.07 333.65C327.54 340.31 327.3 347.51 326.29 351.7C322.41 362.83 313.72 375.72 307.16 383.1C306.54 383.8 307.27 384.81 308.15 384.5C319.05 380.6 339.92 380.6 350.82 384.5C351.7 384.82 352.43 383.79 351.8 383.09C345.05 375.53 335.88 362.15 332.69 351.7C331.46 346.57 331.61 337 331.7 333.61C338.94 333.38 340.9 335.37 344.22 339.05C348.01 346.95 356.93 353.29 366.29 353.29C380.2 353.29 391.29 341.21 389.65 326.96H389.67Z" fill="black"/>
<path d="M60.4397 50.1599C56.8897 50.1599 53.5698 50.95 50.5898 52.51C48.9098 53.39 47.2597 54.6 45.6697 56.13C45.7997 51.12 46.6297 46.5299 48.1497 42.4699C49.7497 38.1799 51.6796 35.1599 53.8796 33.4799C56.0596 31.8199 58.3898 31.01 61.0098 31.01C62.5898 31.01 63.7998 31.27 64.5698 31.76C64.9498 32.01 64.9497 32.15 64.9497 32.24C64.9497 32.26 64.9097 32.68 64.2297 33.77C63.2497 35.31 62.7798 36.7099 62.7798 38.0499C62.7798 40.0099 63.5799 41.8 65.0999 43.21C68.2099 46.1 73.2498 45.9899 76.2798 42.8499C77.8198 41.2399 78.6099 39.1899 78.6099 36.74C78.6099 33.2299 76.9998 30.2199 73.8298 27.7899C66.8398 22.2999 55.8699 21.95 46.8699 28.27C42.4899 31.34 38.8598 35.97 36.0698 42.03C33.3198 48.03 31.9297 54.79 31.9297 62.12C31.9297 68.92 33.0798 74.9599 35.3398 80.1099C37.6398 85.3399 40.6796 89.2799 44.3796 91.7899C48.0996 94.3199 52.3899 95.6099 57.1199 95.6099C63.8199 95.6099 69.5298 93.2299 74.0898 88.5399C78.6298 83.8599 80.9297 77.93 80.9297 70.9C80.9297 64.96 78.9498 59.9599 75.0298 56.0499C71.1098 52.1399 66.2097 50.15 60.4597 50.15L60.4397 50.1599ZM64.7297 84.88C62.8497 87.2 60.4298 88.33 57.3298 88.33C54.2298 88.33 51.6796 87.12 49.6396 84.63C47.5296 82.05 46.4597 78.17 46.4597 73.07C46.4597 68.44 47.5497 64.84 49.7097 62.39C51.8297 59.98 54.4899 58.7999 57.8499 58.7999C60.9399 58.7999 63.2797 59.85 64.9797 62C66.7697 64.27 67.6897 68.16 67.6897 73.59C67.6897 78.66 66.6997 82.46 64.7397 84.88H64.7297Z" fill="black"/>
<path d="M408.45 600.16C412 600.16 415.32 599.37 418.3 597.81C419.98 596.93 421.63 595.72 423.22 594.19C423.09 599.2 422.26 603.79 420.74 607.85C419.14 612.14 417.21 615.16 415.01 616.84C412.83 618.5 410.5 619.31 407.88 619.31C406.3 619.31 405.09 619.05 404.33 618.56C403.95 618.31 403.95 618.17 403.95 618.08C403.95 618.06 403.99 617.64 404.67 616.55C405.65 615.01 406.12 613.61 406.12 612.27C406.12 610.31 405.32 608.52 403.8 607.11C400.69 604.22 395.65 604.33 392.62 607.47C391.08 609.08 390.29 611.13 390.29 613.58C390.29 617.09 391.9 620.1 395.07 622.53C402.06 628.02 413.03 628.37 422.03 622.05C426.41 618.98 430.04 614.35 432.83 608.29C435.58 602.29 436.97 595.53 436.97 588.2C436.97 581.4 435.82 575.36 433.56 570.21C431.26 564.98 428.22 561.04 424.52 558.53C420.8 556 416.51 554.71 411.78 554.71C405.08 554.71 399.37 557.09 394.81 561.78C390.27 566.46 387.97 572.39 387.97 579.42C387.97 585.36 389.95 590.36 393.87 594.27C397.79 598.18 402.69 600.17 408.44 600.17L408.45 600.16ZM404.16 565.44C406.04 563.12 408.46 561.99 411.56 561.99C414.66 561.99 417.21 563.2 419.25 565.69C421.36 568.27 422.43 572.16 422.43 577.25C422.43 581.88 421.34 585.48 419.18 587.93C417.06 590.34 414.4 591.52 411.04 591.52C407.95 591.52 405.61 590.47 403.91 588.32C402.12 586.05 401.2 582.16 401.2 576.73C401.2 571.66 402.19 567.86 404.15 565.44H404.16Z" fill="black"/>
<defs>
<linearGradient id="paint0_linear_145_1488" x1="380.58" y1="-103.53" x2="110.09" y2="690.33" gradientUnits="userSpaceOnUse">
<stop stop-color="#E1E1E1"/>
<stop offset="0.12" stop-color="#ECECEC"/>
<stop offset="0.32" stop-color="#FAFAFA"/>
<stop offset="0.49" stop-color="white"/>
<stop offset="0.7" stop-color="#FBFBFB"/>
<stop offset="0.85" stop-color="#F2F2F2"/>
<stop offset="0.99" stop-color="#E2E2E2"/>
<stop offset="1" stop-color="#E1E1E1"/>
</linearGradient>
</defs>
</svg>
