<svg width="469" height="650" viewBox="0 0 469 650" fill="none" xmlns="http://www.w3.org/2000/svg">
<path d="M439.64 0.620117H29.7603C13.6903 0.620117 0.660156 12.6801 0.660156 27.5501V622.39C0.660156 637.26 13.6903 649.32 29.7603 649.32H439.64C455.71 649.32 468.74 637.26 468.74 622.39V27.5501C468.74 12.6801 455.71 0.620117 439.64 0.620117Z" fill="url(#paint0_linear_145_1537)"/>
<path d="M85.9798 138.17C85.3898 133.1 81.3599 128.93 76.3099 128.19C71.0299 127.42 66.3198 130.25 64.2398 134.59C62.7898 136.32 61.6098 138.79 57.7098 138.92C57.8898 134.4 59.4199 131.75 61.5699 129.94C65.9099 127.86 68.7398 123.15 67.9698 117.87C67.2298 112.82 63.0598 108.79 57.9898 108.2C51.0398 107.39 45.1397 112.81 45.1397 119.6C45.1397 124.16 47.8097 128.09 51.6697 129.94C53.5397 131.31 55.1699 134.32 55.3499 138.89C51.2499 138.81 50.4498 136.31 49.0098 134.59C46.9298 130.26 42.2297 127.42 36.9397 128.19C31.8897 128.92 27.8498 133.1 27.2698 138.17C26.4598 145.12 31.8797 151.02 38.6697 151.02C43.2297 151.02 47.5897 147.93 49.4397 144.07C51.0397 142.3 51.6498 141.44 55.4498 141.43C55.6798 144.68 55.5599 148.19 55.0699 150.24C53.1799 155.67 48.9398 161.96 45.7398 165.56C45.4398 165.9 45.7898 166.4 46.2198 166.24C51.5398 164.34 61.7198 164.34 67.0398 166.24C67.4698 166.39 67.8198 165.89 67.5198 165.55C64.2198 161.86 59.7498 155.33 58.1998 150.23C57.5998 147.73 57.6698 143.06 57.7198 141.4C61.2498 141.29 62.2099 142.26 63.8299 144.06C65.6799 147.92 70.0299 151.01 74.5999 151.01C81.3899 151.01 86.7998 145.11 85.9998 138.16L85.9798 138.17Z" fill="black"/>
<path d="M384.26 511.9C384.85 516.97 388.88 521.14 393.93 521.88C399.21 522.65 403.92 519.82 406 515.48C407.45 513.75 408.63 511.28 412.53 511.15C412.35 515.67 410.82 518.32 408.67 520.13C404.33 522.21 401.5 526.92 402.27 532.2C403.01 537.25 407.18 541.28 412.25 541.87C419.2 542.68 425.1 537.26 425.1 530.47C425.1 525.91 422.43 521.98 418.57 520.13C416.7 518.76 415.07 515.75 414.89 511.18C418.99 511.26 419.79 513.76 421.23 515.48C423.31 519.81 428.01 522.65 433.3 521.88C438.35 521.15 442.39 516.97 442.97 511.9C443.78 504.95 438.36 499.05 431.57 499.05C427.01 499.05 422.65 502.14 420.8 506C419.2 507.77 418.59 508.63 414.79 508.64C414.56 505.39 414.68 501.88 415.17 499.83C417.06 494.4 421.3 488.11 424.5 484.51C424.8 484.17 424.45 483.67 424.02 483.83C418.7 485.73 408.52 485.73 403.2 483.83C402.77 483.68 402.42 484.18 402.72 484.52C406.02 488.21 410.49 494.74 412.04 499.84C412.64 502.34 412.57 507.01 412.52 508.67C408.99 508.78 408.03 507.81 406.41 506.01C404.56 502.15 400.21 499.06 395.64 499.06C388.85 499.06 383.44 504.96 384.24 511.91L384.26 511.9Z" fill="black"/>
<path d="M377.6 116.82C376.4 106.43 368.13 97.8802 357.78 96.3702C346.96 94.7902 337.31 100.6 333.04 109.48C330.07 113.03 327.66 118.08 319.66 118.36C320.03 109.09 323.16 103.66 327.58 99.9602C336.47 95.7002 342.27 86.0501 340.69 75.2301C339.18 64.8801 330.63 56.6201 320.24 55.4101C305.99 53.7601 293.91 64.8502 293.91 78.7702C293.91 88.1202 299.38 96.1701 307.29 99.9701C311.12 102.77 314.45 108.94 314.82 118.31C306.41 118.15 304.79 113.03 301.82 109.49C297.56 100.61 287.92 94.8002 277.09 96.3702C266.74 97.8802 258.47 106.43 257.26 116.81C255.61 131.06 266.7 143.15 280.62 143.15C289.97 143.15 298.89 136.81 302.69 128.91C305.96 125.28 307.21 123.51 315 123.51C315.47 130.17 315.23 137.37 314.22 141.56C310.34 152.69 301.65 165.58 295.09 172.96C294.47 173.66 295.2 174.68 296.08 174.36C306.98 170.46 327.85 170.46 338.75 174.36C339.63 174.68 340.36 173.65 339.73 172.95C332.98 165.39 323.81 152.01 320.62 141.56C319.39 136.43 319.54 126.86 319.63 123.47C326.87 123.24 328.83 125.23 332.15 128.91C335.94 136.81 344.86 143.15 354.22 143.15C368.13 143.15 379.22 131.07 377.58 116.82H377.6Z" fill="black"/>
<path d="M212.13 116.82C210.93 106.43 202.66 97.8802 192.31 96.3702C181.49 94.7902 171.84 100.6 167.57 109.48C164.6 113.03 162.19 118.08 154.19 118.36C154.56 109.09 157.69 103.66 162.11 99.9602C171 95.7002 176.8 86.0501 175.22 75.2301C173.71 64.8801 165.16 56.6201 154.77 55.4101C140.52 53.7601 128.44 64.8502 128.44 78.7702C128.44 88.1202 133.91 96.1701 141.82 99.9701C145.65 102.77 148.98 108.94 149.35 118.31C140.94 118.15 139.32 113.03 136.35 109.49C132.09 100.61 122.45 94.8002 111.62 96.3702C101.27 97.8802 93 106.43 91.79 116.81C90.14 131.06 101.23 143.15 115.15 143.15C124.5 143.15 133.42 136.81 137.22 128.91C140.49 125.28 141.74 123.51 149.53 123.51C150 130.17 149.76 137.37 148.75 141.56C144.87 152.69 136.18 165.58 129.62 172.96C129 173.66 129.73 174.68 130.61 174.36C141.51 170.46 162.38 170.46 173.28 174.36C174.16 174.68 174.89 173.65 174.26 172.95C167.51 165.39 158.34 152.01 155.15 141.56C153.92 136.43 154.07 126.86 154.16 123.47C161.4 123.24 163.36 125.23 166.68 128.91C170.47 136.81 179.39 143.15 188.75 143.15C202.66 143.15 213.75 131.07 212.11 116.82H212.13Z" fill="black"/>
<path d="M91.8101 532.93C93.0101 543.32 101.28 551.87 111.63 553.38C122.45 554.96 132.1 549.15 136.37 540.27C139.34 536.72 141.75 531.67 149.75 531.39C149.38 540.66 146.25 546.09 141.83 549.79C132.94 554.05 127.14 563.7 128.72 574.52C130.23 584.87 138.78 593.13 149.17 594.34C163.42 595.99 175.5 584.9 175.5 570.98C175.5 561.63 170.03 553.58 162.12 549.78C158.29 546.98 154.96 540.81 154.59 531.44C163 531.6 164.62 536.72 167.59 540.26C171.85 549.14 181.49 554.95 192.32 553.38C202.67 551.87 210.94 543.32 212.15 532.94C213.8 518.69 202.71 506.6 188.79 506.6C179.44 506.6 170.52 512.94 166.72 520.84C163.45 524.47 162.2 526.24 154.41 526.24C153.94 519.58 154.18 512.38 155.19 508.19C159.07 497.06 167.76 484.17 174.32 476.79C174.94 476.09 174.21 475.07 173.33 475.39C162.43 479.29 141.56 479.29 130.66 475.39C129.78 475.07 129.05 476.1 129.68 476.8C136.43 484.36 145.6 497.74 148.79 508.19C150.02 513.32 149.87 522.89 149.78 526.28C142.54 526.51 140.58 524.52 137.26 520.84C133.47 512.94 124.55 506.6 115.19 506.6C101.28 506.6 90.1902 518.68 91.8302 532.93H91.8101Z" fill="black"/>
<path d="M257.28 532.93C258.48 543.32 266.75 551.87 277.1 553.38C287.92 554.96 297.57 549.15 301.84 540.27C304.81 536.72 307.22 531.67 315.22 531.39C314.85 540.66 311.72 546.09 307.3 549.79C298.41 554.05 292.61 563.7 294.19 574.52C295.7 584.87 304.25 593.13 314.64 594.34C328.89 595.99 340.97 584.9 340.97 570.98C340.97 561.63 335.5 553.58 327.59 549.78C323.76 546.98 320.43 540.81 320.06 531.44C328.47 531.6 330.09 536.72 333.06 540.26C337.32 549.14 346.96 554.95 357.79 553.38C368.14 551.87 376.41 543.32 377.62 532.94C379.27 518.69 368.18 506.6 354.26 506.6C344.91 506.6 335.99 512.94 332.19 520.84C328.92 524.47 327.67 526.24 319.88 526.24C319.41 519.58 319.65 512.38 320.66 508.19C324.54 497.06 333.23 484.17 339.79 476.79C340.41 476.09 339.68 475.07 338.8 475.39C327.9 479.29 307.03 479.29 296.13 475.39C295.25 475.07 294.52 476.1 295.15 476.8C301.9 484.36 311.07 497.74 314.26 508.19C315.49 513.32 315.34 522.89 315.25 526.28C308.01 526.51 306.05 524.52 302.73 520.84C298.94 512.94 290.02 506.6 280.66 506.6C266.75 506.6 255.66 518.68 257.3 532.93H257.28Z" fill="black"/>
<path d="M212.13 326.96C210.93 316.57 202.66 308.02 192.31 306.51C181.49 304.93 171.84 310.74 167.57 319.62C164.6 323.17 162.19 328.22 154.19 328.5C154.56 319.23 157.69 313.8 162.11 310.1C171 305.84 176.8 296.19 175.22 285.37C173.71 275.02 165.16 266.76 154.77 265.55C140.52 263.9 128.44 274.99 128.44 288.91C128.44 298.26 133.91 306.31 141.82 310.11C145.65 312.91 148.98 319.08 149.35 328.45C140.94 328.29 139.32 323.17 136.35 319.63C132.09 310.75 122.45 304.94 111.62 306.51C101.27 308.02 93 316.57 91.79 326.95C90.14 341.2 101.23 353.29 115.15 353.29C124.5 353.29 133.42 346.95 137.22 339.05C140.49 335.42 141.74 333.65 149.53 333.65C150 340.31 149.76 347.51 148.75 351.7C144.87 362.83 136.18 375.72 129.62 383.1C129 383.8 129.73 384.81 130.61 384.5C141.51 380.6 162.38 380.6 173.28 384.5C174.16 384.82 174.89 383.79 174.26 383.09C167.51 375.53 158.34 362.15 155.15 351.7C153.92 346.57 154.07 337 154.16 333.61C161.4 333.38 163.36 335.37 166.68 339.05C170.47 346.95 179.39 353.29 188.75 353.29C202.66 353.29 213.75 341.21 212.11 326.96H212.13Z" fill="black"/>
<path d="M377.6 326.96C376.4 316.57 368.13 308.02 357.78 306.51C346.96 304.93 337.31 310.74 333.04 319.62C330.07 323.17 327.66 328.22 319.66 328.5C320.03 319.23 323.16 313.8 327.58 310.1C336.47 305.84 342.27 296.19 340.69 285.37C339.18 275.02 330.63 266.76 320.24 265.55C305.99 263.9 293.91 274.99 293.91 288.91C293.91 298.26 299.38 306.31 307.29 310.11C311.12 312.91 314.45 319.08 314.82 328.45C306.41 328.29 304.79 323.17 301.82 319.63C297.56 310.75 287.92 304.94 277.09 306.51C266.74 308.02 258.47 316.57 257.26 326.95C255.61 341.2 266.7 353.29 280.62 353.29C289.97 353.29 298.89 346.95 302.69 339.05C305.96 335.42 307.21 333.65 315 333.65C315.47 340.31 315.23 347.51 314.22 351.7C310.34 362.83 301.65 375.72 295.09 383.1C294.47 383.8 295.2 384.81 296.08 384.5C306.98 380.6 327.85 380.6 338.75 384.5C339.63 384.82 340.36 383.79 339.73 383.09C332.98 375.53 323.81 362.15 320.62 351.7C319.39 346.57 319.54 337 319.63 333.61C326.87 333.38 328.83 335.37 332.15 339.05C335.94 346.95 344.86 353.29 354.22 353.29C368.13 353.29 379.22 341.21 377.58 326.96H377.6Z" fill="black"/>
<path d="M294.87 232.03C293.67 221.64 285.4 213.09 275.05 211.58C264.23 210 254.58 215.81 250.31 224.69C247.34 228.24 244.93 233.29 236.93 233.57C237.3 224.3 240.43 218.87 244.85 215.17C253.74 210.91 259.54 201.26 257.96 190.44C256.45 180.09 247.9 171.83 237.51 170.62C223.26 168.97 211.18 180.06 211.18 193.98C211.18 203.33 216.65 211.38 224.56 215.18C228.39 217.98 231.72 224.15 232.09 233.52C223.68 233.36 222.06 228.24 219.09 224.7C214.83 215.82 205.19 210.01 194.36 211.58C184.01 213.09 175.74 221.64 174.53 232.02C172.88 246.27 183.97 258.36 197.89 258.36C207.24 258.36 216.16 252.02 219.96 244.12C223.23 240.49 224.48 238.72 232.27 238.72C232.74 245.38 232.5 252.58 231.49 256.77C227.61 267.9 218.92 280.79 212.36 288.17C211.74 288.87 212.47 289.89 213.35 289.57C224.25 285.67 245.12 285.67 256.02 289.57C256.9 289.89 257.63 288.86 257 288.16C250.25 280.6 241.08 267.22 237.89 256.77C236.66 251.64 236.81 242.07 236.9 238.68C244.14 238.45 246.1 240.44 249.42 244.12C253.21 252.02 262.13 258.36 271.49 258.36C285.4 258.36 296.49 246.28 294.85 232.03H294.87Z" fill="black"/>
<path d="M39.21 23.5803L37.0601 23.0303L32.98 49.9603H40.3799L40.6899 48.3403C42.3699 39.8103 43.3499 37.7503 43.6899 37.2603C44.0599 36.7403 44.69 36.1403 46.27 36.1403H68.46L63.55 45.1602C61.02 49.8802 57.99 56.4302 54.55 64.6302C51.9 70.8903 50.25 75.5003 49.49 78.7003C48.72 81.9503 48.3501 84.6103 48.3501 86.8303C48.3501 89.6303 48.9299 91.7102 50.1299 93.1602C51.3999 94.6902 53.2101 95.5002 55.3701 95.5002C57.2101 95.5002 58.76 95.0202 59.99 94.0602C61.22 93.1002 62.0399 91.7402 62.4399 90.0402C62.6399 89.1702 62.9499 87.1803 63.3799 79.9603C63.7199 73.7503 64.43 68.2502 65.5 63.6002C66.58 58.9402 68.17 53.9902 70.27 48.8802C72.37 43.7402 75.5901 37.3502 79.8301 29.8802L80.0901 29.4202V24.7103H48.72C45.31 24.7103 42.12 24.3303 39.21 23.5903V23.5803Z" fill="black"/>
<path d="M429.93 625.62L432.08 626.17L436.16 599.24H428.76L428.45 600.86C426.77 609.39 425.79 611.45 425.45 611.94C425.08 612.46 424.45 613.06 422.87 613.06H400.68L405.59 604.04C408.12 599.32 411.15 592.77 414.59 584.57C417.24 578.31 418.89 573.7 419.65 570.5C420.42 567.25 420.79 564.59 420.79 562.37C420.79 559.57 420.21 557.49 419.01 556.04C417.74 554.51 415.93 553.7 413.77 553.7C411.93 553.7 410.38 554.18 409.15 555.14C407.92 556.1 407.1 557.46 406.7 559.16C406.5 560.03 406.19 562.02 405.76 569.24C405.42 575.45 404.71 580.95 403.64 585.6C402.56 590.26 400.97 595.21 398.87 600.32C396.77 605.46 393.55 611.85 389.31 619.32L389.05 619.78V624.49H420.42C423.83 624.49 427.02 624.87 429.93 625.61V625.62Z" fill="black"/>
<defs>
<linearGradient id="paint0_linear_145_1537" x1="380.71" y1="-103.53" x2="110.221" y2="690.33" gradientUnits="userSpaceOnUse">
<stop stop-color="#E1E1E1"/>
<stop offset="0.12" stop-color="#ECECEC"/>
<stop offset="0.32" stop-color="#FAFAFA"/>
<stop offset="0.49" stop-color="white"/>
<stop offset="0.7" stop-color="#FBFBFB"/>
<stop offset="0.85" stop-color="#F2F2F2"/>
<stop offset="0.99" stop-color="#E2E2E2"/>
<stop offset="1" stop-color="#E1E1E1"/>
</linearGradient>
</defs>
</svg>
