<svg width="469" height="650" viewBox="0 0 469 650" fill="none" xmlns="http://www.w3.org/2000/svg">
<path d="M439.77 0.620117H29.8901C13.8201 0.620117 0.790039 12.6801 0.790039 27.5501V622.39C0.790039 637.26 13.8201 649.32 29.8901 649.32H439.77C455.84 649.32 468.87 637.26 468.87 622.39V27.5501C468.87 12.6801 455.84 0.620117 439.77 0.620117Z" fill="url(#paint0_linear_145_1590)"/>
<path d="M86.1097 138.17C85.5197 133.1 81.4897 128.93 76.4398 128.19C71.1598 127.42 66.4499 130.25 64.3699 134.59C62.9199 136.32 61.7397 138.79 57.8397 138.92C58.0197 134.4 59.55 131.75 61.7 129.94C66.04 127.86 68.8699 123.15 68.0999 117.87C67.3599 112.82 63.1899 108.79 58.1199 108.2C51.1699 107.39 45.2698 112.81 45.2698 119.6C45.2698 124.16 47.9396 128.09 51.7996 129.94C53.6696 131.31 55.2998 134.32 55.4798 138.89C51.3798 138.81 50.5799 136.31 49.1399 134.59C47.0599 130.26 42.3596 127.42 37.0696 128.19C32.0196 128.92 27.9797 133.1 27.3997 138.17C26.5897 145.12 32.0096 151.02 38.7996 151.02C43.3596 151.02 47.7196 147.93 49.5696 144.07C51.1696 142.3 51.7799 141.44 55.5799 141.43C55.8099 144.68 55.69 148.19 55.2 150.24C53.31 155.67 49.0699 161.96 45.8699 165.56C45.5699 165.9 45.9199 166.4 46.3499 166.24C51.6699 164.34 61.8497 164.34 67.1697 166.24C67.5997 166.39 67.9497 165.89 67.6497 165.55C64.3497 161.86 59.8799 155.33 58.3299 150.23C57.7299 147.73 57.7999 143.06 57.8499 141.4C61.3799 141.29 62.3398 142.26 63.9598 144.06C65.8098 147.92 70.1598 151.01 74.7298 151.01C81.5198 151.01 86.9297 145.11 86.1297 138.16L86.1097 138.17Z" fill="black"/>
<path d="M384.38 511.9C384.97 516.97 389 521.14 394.05 521.88C399.33 522.65 404.04 519.82 406.12 515.48C407.57 513.75 408.75 511.28 412.65 511.15C412.47 515.67 410.94 518.32 408.79 520.13C404.45 522.21 401.62 526.92 402.39 532.2C403.13 537.25 407.3 541.28 412.37 541.87C419.32 542.68 425.22 537.26 425.22 530.47C425.22 525.91 422.55 521.98 418.69 520.13C416.82 518.76 415.19 515.75 415.01 511.18C419.11 511.26 419.91 513.76 421.35 515.48C423.43 519.81 428.13 522.65 433.42 521.88C438.47 521.15 442.51 516.97 443.09 511.9C443.9 504.95 438.48 499.05 431.69 499.05C427.13 499.05 422.77 502.14 420.92 506C419.32 507.77 418.71 508.63 414.91 508.64C414.68 505.39 414.8 501.88 415.29 499.83C417.18 494.4 421.42 488.11 424.62 484.51C424.92 484.17 424.57 483.67 424.14 483.83C418.82 485.73 408.64 485.73 403.32 483.83C402.89 483.68 402.53 484.18 402.84 484.52C406.14 488.21 410.61 494.74 412.16 499.84C412.76 502.34 412.69 507.01 412.64 508.67C409.11 508.78 408.15 507.81 406.53 506.01C404.68 502.15 400.33 499.06 395.76 499.06C388.97 499.06 383.56 504.96 384.36 511.91L384.38 511.9Z" fill="black"/>
<path d="M212.26 326.96C211.06 316.57 202.79 308.02 192.44 306.51C181.62 304.93 171.97 310.74 167.7 319.62C164.73 323.17 162.32 328.22 154.32 328.5C154.69 319.23 157.82 313.8 162.24 310.1C171.13 305.84 176.93 296.19 175.35 285.37C173.84 275.02 165.29 266.76 154.9 265.55C140.65 263.9 128.57 274.99 128.57 288.91C128.57 298.26 134.04 306.31 141.95 310.11C145.78 312.91 149.11 319.08 149.48 328.45C141.07 328.29 139.45 323.17 136.48 319.63C132.22 310.75 122.58 304.94 111.75 306.51C101.4 308.02 93.1299 316.57 91.9199 326.95C90.2699 341.2 101.36 353.29 115.28 353.29C124.63 353.29 133.55 346.95 137.35 339.05C140.62 335.42 141.87 333.65 149.66 333.65C150.13 340.31 149.89 347.51 148.88 351.7C145 362.83 136.31 375.72 129.75 383.1C129.13 383.8 129.86 384.81 130.74 384.5C141.64 380.6 162.51 380.6 173.41 384.5C174.29 384.82 175.02 383.79 174.39 383.09C167.64 375.53 158.47 362.15 155.28 351.7C154.05 346.57 154.2 337 154.29 333.61C161.53 333.38 163.49 335.37 166.81 339.05C170.6 346.95 179.52 353.29 188.88 353.29C202.79 353.29 213.88 341.21 212.24 326.96H212.26Z" fill="black"/>
<path d="M377.73 326.96C376.53 316.57 368.26 308.02 357.91 306.51C347.09 304.93 337.44 310.74 333.17 319.62C330.2 323.17 327.79 328.22 319.79 328.5C320.16 319.23 323.29 313.8 327.71 310.1C336.6 305.84 342.4 296.19 340.82 285.37C339.31 275.02 330.76 266.76 320.37 265.55C306.12 263.9 294.04 274.99 294.04 288.91C294.04 298.26 299.51 306.31 307.42 310.11C311.25 312.91 314.58 319.08 314.95 328.45C306.54 328.29 304.92 323.17 301.95 319.63C297.69 310.75 288.05 304.94 277.22 306.51C266.87 308.02 258.6 316.57 257.39 326.95C255.74 341.2 266.83 353.29 280.75 353.29C290.1 353.29 299.02 346.95 302.82 339.05C306.09 335.42 307.34 333.65 315.13 333.65C315.6 340.31 315.36 347.51 314.35 351.7C310.47 362.83 301.78 375.72 295.22 383.1C294.6 383.8 295.33 384.81 296.21 384.5C307.11 380.6 327.98 380.6 338.88 384.5C339.76 384.82 340.49 383.79 339.86 383.09C333.11 375.53 323.94 362.15 320.75 351.7C319.52 346.57 319.67 337 319.76 333.61C327 333.38 328.96 335.37 332.28 339.05C336.07 346.95 344.99 353.29 354.35 353.29C368.26 353.29 379.35 341.21 377.71 326.96H377.73Z" fill="black"/>
<path d="M377.73 116.82C376.53 106.43 368.26 97.8802 357.91 96.3702C347.09 94.7902 337.44 100.6 333.17 109.48C330.2 113.03 327.79 118.08 319.79 118.36C320.16 109.09 323.29 103.66 327.71 99.9602C336.6 95.7002 342.4 86.0501 340.82 75.2301C339.31 64.8801 330.76 56.6201 320.37 55.4101C306.12 53.7601 294.04 64.8502 294.04 78.7702C294.04 88.1202 299.51 96.1701 307.42 99.9701C311.25 102.77 314.58 108.94 314.95 118.31C306.54 118.15 304.92 113.03 301.95 109.49C297.69 100.61 288.05 94.8002 277.22 96.3702C266.87 97.8802 258.6 106.43 257.39 116.81C255.74 131.06 266.83 143.15 280.75 143.15C290.1 143.15 299.02 136.81 302.82 128.91C306.09 125.28 307.34 123.51 315.13 123.51C315.6 130.17 315.36 137.37 314.35 141.56C310.47 152.69 301.78 165.58 295.22 172.96C294.6 173.66 295.33 174.68 296.21 174.36C307.11 170.46 327.98 170.46 338.88 174.36C339.76 174.68 340.49 173.65 339.86 172.95C333.11 165.39 323.94 152.01 320.75 141.56C319.52 136.43 319.67 126.86 319.76 123.47C327 123.24 328.96 125.23 332.28 128.91C336.07 136.81 344.99 143.15 354.35 143.15C368.26 143.15 379.35 131.07 377.71 116.82H377.73Z" fill="black"/>
<path d="M212.26 116.82C211.06 106.43 202.79 97.8802 192.44 96.3702C181.62 94.7902 171.97 100.6 167.7 109.48C164.73 113.03 162.32 118.08 154.32 118.36C154.69 109.09 157.82 103.66 162.24 99.9602C171.13 95.7002 176.93 86.0501 175.35 75.2301C173.84 64.8801 165.29 56.6201 154.9 55.4101C140.65 53.7601 128.57 64.8502 128.57 78.7702C128.57 88.1202 134.04 96.1701 141.95 99.9701C145.78 102.77 149.11 108.94 149.48 118.31C141.07 118.15 139.45 113.03 136.48 109.49C132.22 100.61 122.58 94.8002 111.75 96.3702C101.4 97.8802 93.1299 106.43 91.9199 116.81C90.2699 131.06 101.36 143.15 115.28 143.15C124.63 143.15 133.55 136.81 137.35 128.91C140.62 125.28 141.87 123.51 149.66 123.51C150.13 130.17 149.89 137.37 148.88 141.56C145 152.69 136.31 165.58 129.75 172.96C129.13 173.66 129.86 174.68 130.74 174.36C141.64 170.46 162.51 170.46 173.41 174.36C174.29 174.68 175.02 173.65 174.39 172.95C167.64 165.39 158.47 152.01 155.28 141.56C154.05 136.43 154.2 126.86 154.29 123.47C161.53 123.24 163.49 125.23 166.81 128.91C170.6 136.81 179.52 143.15 188.88 143.15C202.79 143.15 213.88 131.07 212.24 116.82H212.26Z" fill="black"/>
<path d="M91.94 532.93C93.14 543.32 101.41 551.87 111.76 553.38C122.58 554.96 132.23 549.15 136.5 540.27C139.47 536.72 141.88 531.67 149.88 531.39C149.51 540.66 146.38 546.09 141.96 549.79C133.07 554.05 127.27 563.7 128.85 574.52C130.36 584.87 138.91 593.13 149.3 594.34C163.55 595.99 175.63 584.9 175.63 570.98C175.63 561.63 170.16 553.58 162.25 549.78C158.42 546.98 155.09 540.81 154.72 531.44C163.13 531.6 164.75 536.72 167.72 540.26C171.98 549.14 181.62 554.95 192.45 553.38C202.8 551.87 211.07 543.32 212.28 532.94C213.93 518.69 202.84 506.6 188.92 506.6C179.57 506.6 170.65 512.94 166.85 520.84C163.58 524.47 162.33 526.24 154.54 526.24C154.07 519.58 154.31 512.38 155.32 508.19C159.2 497.06 167.89 484.17 174.45 476.79C175.07 476.09 174.34 475.07 173.46 475.39C162.56 479.29 141.69 479.29 130.79 475.39C129.91 475.07 129.18 476.1 129.81 476.8C136.56 484.36 145.73 497.74 148.92 508.19C150.15 513.32 150 522.89 149.91 526.28C142.67 526.51 140.71 524.52 137.39 520.84C133.6 512.94 124.68 506.6 115.32 506.6C101.41 506.6 90.32 518.68 91.96 532.93H91.94Z" fill="black"/>
<path d="M257.41 532.93C258.61 543.32 266.88 551.87 277.23 553.38C288.05 554.96 297.7 549.15 301.97 540.27C304.94 536.72 307.35 531.67 315.35 531.39C314.98 540.66 311.85 546.09 307.43 549.79C298.54 554.05 292.74 563.7 294.32 574.52C295.83 584.87 304.38 593.13 314.77 594.34C329.02 595.99 341.1 584.9 341.1 570.98C341.1 561.63 335.63 553.58 327.72 549.78C323.89 546.98 320.56 540.81 320.19 531.44C328.6 531.6 330.22 536.72 333.19 540.26C337.45 549.14 347.09 554.95 357.92 553.38C368.27 551.87 376.54 543.32 377.75 532.94C379.4 518.69 368.31 506.6 354.39 506.6C345.04 506.6 336.12 512.94 332.32 520.84C329.05 524.47 327.8 526.24 320.01 526.24C319.54 519.58 319.78 512.38 320.79 508.19C324.67 497.06 333.36 484.17 339.92 476.79C340.54 476.09 339.81 475.07 338.93 475.39C328.03 479.29 307.16 479.29 296.26 475.39C295.38 475.07 294.65 476.1 295.28 476.8C302.03 484.36 311.2 497.74 314.39 508.19C315.62 513.32 315.47 522.89 315.38 526.28C308.14 526.51 306.18 524.52 302.86 520.84C299.07 512.94 290.15 506.6 280.79 506.6C266.88 506.6 255.79 518.68 257.43 532.93H257.41Z" fill="black"/>
<path d="M294.99 232.03C293.79 221.64 285.52 213.09 275.17 211.58C264.35 210 254.7 215.81 250.43 224.69C247.46 228.24 245.05 233.29 237.05 233.57C237.42 224.3 240.55 218.87 244.97 215.17C253.86 210.91 259.66 201.26 258.08 190.44C256.57 180.09 248.02 171.83 237.63 170.62C223.38 168.97 211.3 180.06 211.3 193.98C211.3 203.33 216.77 211.38 224.68 215.18C228.51 217.98 231.84 224.15 232.21 233.52C223.8 233.36 222.18 228.24 219.21 224.7C214.95 215.82 205.31 210.01 194.48 211.58C184.13 213.09 175.86 221.64 174.65 232.02C173 246.27 184.09 258.36 198.01 258.36C207.36 258.36 216.28 252.02 220.08 244.12C223.35 240.49 224.6 238.72 232.39 238.72C232.86 245.38 232.62 252.58 231.61 256.77C227.73 267.9 219.04 280.79 212.48 288.17C211.86 288.87 212.59 289.89 213.47 289.57C224.37 285.67 245.24 285.67 256.14 289.57C257.02 289.89 257.75 288.86 257.12 288.16C250.37 280.6 241.2 267.22 238.01 256.77C236.78 251.64 236.93 242.07 237.02 238.68C244.26 238.45 246.22 240.44 249.54 244.12C253.33 252.02 262.25 258.36 271.61 258.36C285.52 258.36 296.61 246.28 294.97 232.03H294.99Z" fill="black"/>
<path d="M174.67 417.91C175.87 428.3 184.14 436.85 194.49 438.36C205.31 439.94 214.96 434.13 219.23 425.25C222.2 421.7 224.61 416.65 232.61 416.37C232.24 425.64 229.11 431.07 224.69 434.77C215.8 439.03 210 448.68 211.58 459.5C213.09 469.85 221.64 478.11 232.03 479.32C246.28 480.97 258.36 469.88 258.36 455.96C258.36 446.61 252.89 438.56 244.98 434.76C241.15 431.96 237.82 425.79 237.45 416.42C245.86 416.58 247.48 421.7 250.45 425.24C254.71 434.12 264.35 439.93 275.18 438.36C285.53 436.85 293.8 428.3 295.01 417.92C296.66 403.67 285.57 391.58 271.65 391.58C262.3 391.58 253.38 397.92 249.58 405.82C246.31 409.45 245.06 411.22 237.27 411.22C236.8 404.56 237.04 397.36 238.05 393.17C241.93 382.04 250.62 369.15 257.18 361.77C257.8 361.07 257.07 360.06 256.19 360.37C245.29 364.27 224.42 364.27 213.52 360.37C212.64 360.05 211.91 361.08 212.54 361.78C219.29 369.34 228.46 382.72 231.65 393.17C232.88 398.3 232.73 407.87 232.64 411.26C225.4 411.49 223.44 409.5 220.12 405.82C216.33 397.92 207.41 391.58 198.05 391.58C184.14 391.58 173.05 403.66 174.69 417.91H174.67Z" fill="black"/>
<path d="M69.29 54.5997C75.1 50.6397 78.04 45.7998 78.04 40.1398C78.04 37.1998 77.1599 34.3697 75.4199 31.7197C73.6899 29.0797 71.1702 26.9797 67.9302 25.4797C64.7702 24.0097 61.0198 23.2598 56.8198 23.2598C50.5898 23.2598 45.3598 25.1898 41.2598 29.0198C37.1298 32.8698 35.0298 37.5497 35.0298 42.9297C35.0298 49.8397 38.2298 55.2897 44.5698 59.1597C40.7798 60.8697 37.9801 62.8398 36.0801 65.1298C33.5001 68.2398 32.1899 71.9098 32.1899 76.0598C32.1899 81.5698 34.4401 86.2298 38.8701 89.8998C43.1801 93.4798 49.0598 95.2997 56.3398 95.2997C64.6498 95.2997 71.19 92.5998 75.75 87.2798C79.3 83.1498 81.1001 78.2498 81.1001 72.7098C81.1001 68.1298 79.8298 64.1397 77.3398 60.8497C75.4898 58.4197 72.7898 56.3298 69.2798 54.6198L69.29 54.5997ZM48.1899 33.0397C50.0999 31.3797 52.89 30.5397 56.5 30.5397C60.11 30.5397 63.0001 31.4298 64.8301 33.1898C66.6601 34.9498 67.5601 37.4497 67.5601 40.8497C67.5601 43.4497 67.0902 45.5297 66.1602 47.0397C65.2902 48.4497 63.5602 49.9397 60.9902 51.4897C52.2402 48.5397 48.9798 46.5997 47.7998 45.4797C46.2098 43.9697 45.4399 41.9598 45.4399 39.3398C45.4399 36.7198 46.3399 34.6497 48.1899 33.0397ZM67.27 84.6298C64.76 86.7698 61.0999 87.8497 56.3999 87.8497C52.0099 87.8497 48.6602 86.7898 46.4302 84.6898C44.2002 82.5998 43.1299 79.6798 43.1299 75.7598C43.1299 72.7398 43.8501 70.2898 45.3301 68.2698C46.7501 66.3398 49.3498 64.5298 53.0698 62.8798C60.6898 65.6498 65.69 67.9198 67.96 69.6298C69.94 71.1298 70.9102 73.3298 70.9102 76.3698C70.9102 79.8398 69.7198 82.5398 67.2798 84.6298H67.27Z" fill="black"/>
<path d="M400.28 595.36C394.47 599.32 391.53 604.16 391.53 609.82C391.53 612.76 392.41 615.59 394.15 618.24C395.88 620.88 398.4 622.98 401.64 624.48C404.8 625.95 408.55 626.7 412.75 626.7C418.98 626.7 424.21 624.77 428.31 620.94C432.44 617.09 434.54 612.41 434.54 607.03C434.54 600.12 431.34 594.67 425 590.8C428.79 589.09 431.59 587.12 433.49 584.83C436.07 581.72 437.38 578.05 437.38 573.9C437.38 568.39 435.13 563.73 430.7 560.06C426.39 556.48 420.51 554.66 413.23 554.66C404.92 554.66 398.38 557.36 393.82 562.68C390.27 566.81 388.47 571.71 388.47 577.25C388.47 581.83 389.74 585.82 392.23 589.11C394.08 591.54 396.78 593.63 400.29 595.34L400.28 595.36ZM421.38 616.92C419.47 618.58 416.68 619.42 413.07 619.42C409.46 619.42 406.57 618.53 404.74 616.77C402.91 615.01 402.01 612.51 402.01 609.11C402.01 606.51 402.48 604.43 403.41 602.92C404.28 601.51 406.01 600.02 408.58 598.47C417.33 601.42 420.59 603.36 421.77 604.48C423.36 605.99 424.13 608 424.13 610.62C424.13 613.24 423.23 615.31 421.38 616.92ZM402.3 565.33C404.81 563.19 408.47 562.11 413.17 562.11C417.56 562.11 420.91 563.17 423.14 565.27C425.37 567.36 426.44 570.28 426.44 574.2C426.44 577.22 425.72 579.67 424.24 581.69C422.82 583.62 420.22 585.43 416.5 587.08C408.88 584.31 403.88 582.04 401.61 580.33C399.63 578.83 398.66 576.63 398.66 573.59C398.66 570.12 399.85 567.42 402.29 565.33H402.3Z" fill="black"/>
<defs>
<linearGradient id="paint0_linear_145_1590" x1="380.83" y1="-103.53" x2="110.35" y2="690.33" gradientUnits="userSpaceOnUse">
<stop stop-color="#E1E1E1"/>
<stop offset="0.12" stop-color="#ECECEC"/>
<stop offset="0.32" stop-color="#FAFAFA"/>
<stop offset="0.49" stop-color="white"/>
<stop offset="0.7" stop-color="#FBFBFB"/>
<stop offset="0.85" stop-color="#F2F2F2"/>
<stop offset="0.99" stop-color="#E2E2E2"/>
<stop offset="1" stop-color="#E1E1E1"/>
</linearGradient>
</defs>
</svg>
