<svg width="469" height="650" viewBox="0 0 469 650" fill="none" xmlns="http://www.w3.org/2000/svg">
<path d="M439.9 0.620117H30.02C13.95 0.620117 0.919922 12.6801 0.919922 27.5501V622.39C0.919922 637.26 13.95 649.32 30.02 649.32H439.9C455.97 649.32 469 637.26 469 622.39V27.5501C469 12.6801 455.97 0.620117 439.9 0.620117Z" fill="url(#paint0_linear_145_1647)"/>
<path d="M86.24 138.17C85.65 133.1 81.6196 128.93 76.5696 128.19C71.2896 127.42 66.5798 130.25 64.4998 134.59C63.0498 136.32 61.87 138.79 57.97 138.92C58.15 134.4 59.6799 131.75 61.8299 129.94C66.1699 127.86 68.9998 123.15 68.2298 117.87C67.4898 112.82 63.3198 108.79 58.2498 108.2C51.2998 107.39 45.3997 112.81 45.3997 119.6C45.3997 124.16 48.07 128.09 51.93 129.94C53.8 131.31 55.4297 134.32 55.6097 138.89C51.5097 138.81 50.7098 136.31 49.2698 134.59C47.1898 130.26 42.49 127.42 37.2 128.19C32.15 128.92 28.1096 133.1 27.5296 138.17C26.7196 145.12 32.14 151.02 38.93 151.02C43.49 151.02 47.85 147.93 49.7 144.07C51.3 142.3 51.9098 141.44 55.7098 141.43C55.9398 144.68 55.8199 148.19 55.3299 150.24C53.4399 155.67 49.1998 161.96 45.9998 165.56C45.6998 165.9 46.0498 166.4 46.4798 166.24C51.7998 164.34 61.9796 164.34 67.2996 166.24C67.7296 166.39 68.0896 165.89 67.7796 165.55C64.4796 161.86 60.0098 155.33 58.4598 150.23C57.8598 147.73 57.9298 143.06 57.9798 141.4C61.5098 141.29 62.4696 142.26 64.0896 144.06C65.9396 147.92 70.2897 151.01 74.8597 151.01C81.6497 151.01 87.0596 145.11 86.2596 138.16L86.24 138.17Z" fill="black"/>
<path d="M384.51 511.9C385.1 516.97 389.13 521.14 394.18 521.88C399.46 522.65 404.17 519.82 406.25 515.48C407.7 513.75 408.88 511.28 412.78 511.15C412.6 515.67 411.07 518.32 408.92 520.13C404.58 522.21 401.75 526.92 402.52 532.2C403.26 537.25 407.43 541.28 412.5 541.87C419.45 542.68 425.35 537.26 425.35 530.47C425.35 525.91 422.68 521.98 418.82 520.13C416.95 518.76 415.32 515.75 415.14 511.18C419.24 511.26 420.04 513.76 421.48 515.48C423.56 519.81 428.26 522.65 433.55 521.88C438.6 521.15 442.64 516.97 443.22 511.9C444.03 504.95 438.61 499.05 431.82 499.05C427.26 499.05 422.9 502.14 421.05 506C419.45 507.77 418.84 508.63 415.04 508.64C414.81 505.39 414.93 501.88 415.42 499.83C417.31 494.4 421.55 488.11 424.75 484.51C425.05 484.17 424.7 483.67 424.27 483.83C418.95 485.73 408.77 485.73 403.45 483.83C403.02 483.68 402.66 484.18 402.97 484.52C406.27 488.21 410.74 494.74 412.29 499.84C412.89 502.34 412.82 507.01 412.77 508.67C409.24 508.78 408.28 507.81 406.66 506.01C404.81 502.15 400.46 499.06 395.89 499.06C389.1 499.06 383.69 504.96 384.49 511.91L384.51 511.9Z" fill="black"/>
<path d="M377.86 116.82C376.66 106.43 368.39 97.8802 358.04 96.3702C347.22 94.7902 337.57 100.6 333.3 109.48C330.33 113.03 327.92 118.08 319.92 118.36C320.29 109.09 323.42 103.66 327.84 99.9602C336.73 95.7002 342.53 86.0501 340.96 75.2301C339.45 64.8801 330.9 56.6201 320.51 55.4101C306.26 53.7601 294.18 64.8502 294.18 78.7702C294.18 88.1202 299.65 96.1701 307.56 99.9701C311.39 102.77 314.72 108.94 315.09 118.31C306.68 118.15 305.06 113.03 302.09 109.49C297.83 100.61 288.19 94.8002 277.36 96.3702C267.01 97.8802 258.74 106.43 257.53 116.81C255.88 131.06 266.97 143.15 280.89 143.15C290.24 143.15 299.16 136.81 302.96 128.91C306.23 125.28 307.48 123.51 315.27 123.51C315.74 130.17 315.5 137.37 314.49 141.56C310.61 152.69 301.92 165.58 295.36 172.96C294.74 173.66 295.47 174.68 296.35 174.36C307.25 170.46 328.12 170.46 339.02 174.36C339.9 174.68 340.63 173.65 340 172.95C333.25 165.39 324.08 152.01 320.89 141.56C319.66 136.43 319.81 126.86 319.9 123.47C327.14 123.24 329.1 125.23 332.42 128.91C336.21 136.81 345.13 143.15 354.49 143.15C368.4 143.15 379.49 131.07 377.85 116.82H377.86Z" fill="black"/>
<path d="M212.39 116.82C211.19 106.43 202.92 97.8802 192.57 96.3702C181.75 94.7902 172.1 100.6 167.83 109.48C164.86 113.03 162.45 118.08 154.45 118.36C154.82 109.09 157.95 103.66 162.37 99.9602C171.26 95.7002 177.06 86.0501 175.48 75.2301C173.97 64.8801 165.42 56.6201 155.03 55.4101C140.78 53.7601 128.7 64.8502 128.7 78.7702C128.7 88.1202 134.17 96.1701 142.08 99.9701C145.91 102.77 149.24 108.94 149.61 118.31C141.2 118.15 139.58 113.03 136.61 109.49C132.35 100.61 122.71 94.8002 111.88 96.3702C101.53 97.8802 93.2598 106.43 92.0498 116.81C90.3998 131.06 101.49 143.15 115.41 143.15C124.76 143.15 133.68 136.81 137.48 128.91C140.75 125.28 142 123.51 149.79 123.51C150.26 130.17 150.02 137.37 149.01 141.56C145.13 152.69 136.44 165.58 129.88 172.96C129.26 173.66 129.99 174.68 130.87 174.36C141.77 170.46 162.64 170.46 173.54 174.36C174.42 174.68 175.15 173.65 174.52 172.95C167.77 165.39 158.6 152.01 155.41 141.56C154.18 136.43 154.33 126.86 154.42 123.47C161.66 123.24 163.62 125.23 166.94 128.91C170.73 136.81 179.65 143.15 189.01 143.15C202.92 143.15 214.01 131.07 212.37 116.82H212.39Z" fill="black"/>
<path d="M92.0699 532.93C93.2699 543.32 101.54 551.87 111.89 553.38C122.71 554.96 132.36 549.15 136.63 540.27C139.6 536.72 142.01 531.67 150.01 531.39C149.64 540.66 146.51 546.09 142.09 549.79C133.2 554.05 127.4 563.7 128.98 574.52C130.49 584.87 139.04 593.13 149.43 594.34C163.68 595.99 175.76 584.9 175.76 570.98C175.76 561.63 170.29 553.58 162.38 549.78C158.55 546.98 155.22 540.81 154.85 531.44C163.26 531.6 164.88 536.72 167.85 540.26C172.11 549.14 181.75 554.95 192.58 553.38C202.93 551.87 211.2 543.32 212.41 532.94C214.06 518.69 202.97 506.6 189.05 506.6C179.7 506.6 170.78 512.94 166.98 520.84C163.71 524.47 162.46 526.24 154.67 526.24C154.2 519.58 154.44 512.38 155.45 508.19C159.33 497.06 168.02 484.17 174.58 476.79C175.2 476.09 174.47 475.07 173.59 475.39C162.69 479.29 141.82 479.29 130.92 475.39C130.04 475.07 129.31 476.1 129.94 476.8C136.69 484.36 145.86 497.74 149.05 508.19C150.28 513.32 150.13 522.89 150.04 526.28C142.8 526.51 140.84 524.52 137.52 520.84C133.73 512.94 124.81 506.6 115.45 506.6C101.54 506.6 90.4499 518.68 92.0899 532.93H92.0699Z" fill="black"/>
<path d="M257.54 532.93C258.74 543.32 267.01 551.87 277.36 553.38C288.18 554.96 297.83 549.15 302.1 540.27C305.07 536.72 307.48 531.67 315.48 531.39C315.11 540.66 311.98 546.09 307.56 549.79C298.67 554.05 292.87 563.7 294.44 574.52C295.95 584.87 304.5 593.13 314.89 594.34C329.14 595.99 341.22 584.9 341.22 570.98C341.22 561.63 335.75 553.58 327.84 549.78C324.01 546.98 320.68 540.81 320.31 531.44C328.72 531.6 330.34 536.72 333.31 540.26C337.57 549.14 347.21 554.95 358.04 553.38C368.39 551.87 376.66 543.32 377.87 532.94C379.52 518.69 368.43 506.6 354.51 506.6C345.16 506.6 336.24 512.94 332.44 520.84C329.17 524.47 327.92 526.24 320.13 526.24C319.66 519.58 319.9 512.38 320.91 508.19C324.79 497.06 333.48 484.17 340.04 476.79C340.66 476.09 339.93 475.07 339.05 475.39C328.15 479.29 307.28 479.29 296.38 475.39C295.5 475.07 294.77 476.1 295.4 476.8C302.15 484.36 311.32 497.74 314.51 508.19C315.74 513.32 315.59 522.89 315.5 526.28C308.26 526.51 306.3 524.52 302.98 520.84C299.19 512.94 290.27 506.6 280.91 506.6C267 506.6 255.91 518.68 257.55 532.93H257.54Z" fill="black"/>
<path d="M377.86 258.35C376.66 247.96 368.39 239.41 358.04 237.9C347.22 236.32 337.57 242.13 333.3 251.01C330.33 254.56 327.92 259.61 319.92 259.89C320.29 250.62 323.42 245.19 327.84 241.49C336.73 237.23 342.53 227.58 340.96 216.76C339.45 206.41 330.9 198.15 320.51 196.94C306.26 195.29 294.18 206.38 294.18 220.3C294.18 229.65 299.65 237.7 307.56 241.5C311.39 244.3 314.72 250.47 315.09 259.84C306.68 259.68 305.06 254.56 302.09 251.02C297.83 242.14 288.19 236.33 277.36 237.9C267.01 239.41 258.74 247.96 257.53 258.34C255.88 272.59 266.97 284.68 280.89 284.68C290.24 284.68 299.16 278.34 302.96 270.44C306.23 266.81 307.48 265.04 315.27 265.04C315.74 271.7 315.5 278.9 314.49 283.09C310.61 294.22 301.92 307.11 295.36 314.49C294.74 315.19 295.47 316.21 296.35 315.89C307.25 311.99 328.12 311.99 339.02 315.89C339.9 316.21 340.63 315.18 340 314.48C333.25 306.92 324.08 293.54 320.89 283.09C319.66 277.96 319.81 268.39 319.9 265C327.14 264.77 329.1 266.76 332.42 270.44C336.21 278.34 345.13 284.68 354.49 284.68C368.4 284.68 379.49 272.6 377.85 258.35H377.86Z" fill="black"/>
<path d="M212.39 258.35C211.19 247.96 202.92 239.41 192.57 237.9C181.75 236.32 172.1 242.13 167.83 251.01C164.86 254.56 162.45 259.61 154.45 259.89C154.82 250.62 157.95 245.19 162.37 241.49C171.26 237.23 177.06 227.58 175.48 216.76C173.97 206.41 165.42 198.15 155.03 196.94C140.78 195.29 128.7 206.38 128.7 220.3C128.7 229.65 134.17 237.7 142.08 241.5C145.91 244.3 149.24 250.47 149.61 259.84C141.2 259.68 139.58 254.56 136.61 251.02C132.35 242.14 122.71 236.33 111.88 237.9C101.53 239.41 93.2598 247.96 92.0498 258.34C90.3998 272.59 101.49 284.68 115.41 284.68C124.76 284.68 133.68 278.34 137.48 270.44C140.75 266.81 142 265.04 149.79 265.04C150.26 271.7 150.02 278.9 149.01 283.09C145.13 294.22 136.44 307.11 129.88 314.49C129.26 315.19 129.99 316.21 130.87 315.89C141.77 311.99 162.64 311.99 173.54 315.89C174.42 316.21 175.15 315.18 174.52 314.48C167.77 306.92 158.6 293.54 155.41 283.09C154.18 277.96 154.33 268.39 154.42 265C161.66 264.77 163.62 266.76 166.94 270.44C170.73 278.34 179.65 284.68 189.01 284.68C202.92 284.68 214.01 272.6 212.37 258.35H212.39Z" fill="black"/>
<path d="M92.0699 391.71C93.2699 402.1 101.54 410.65 111.89 412.16C122.71 413.74 132.36 407.93 136.63 399.05C139.6 395.5 142.01 390.45 150.01 390.17C149.64 399.44 146.51 404.87 142.09 408.57C133.2 412.83 127.4 422.48 128.98 433.3C130.49 443.65 139.04 451.91 149.43 453.12C163.68 454.77 175.76 443.68 175.76 429.76C175.76 420.41 170.29 412.36 162.38 408.56C158.55 405.76 155.22 399.59 154.85 390.22C163.26 390.38 164.88 395.5 167.85 399.04C172.11 407.92 181.75 413.73 192.58 412.16C202.93 410.65 211.2 402.1 212.41 391.72C214.06 377.47 202.97 365.38 189.05 365.38C179.7 365.38 170.78 371.72 166.98 379.62C163.71 383.25 162.46 385.02 154.67 385.02C154.2 378.36 154.44 371.16 155.45 366.97C159.33 355.84 168.02 342.95 174.58 335.57C175.2 334.87 174.47 333.86 173.59 334.17C162.69 338.07 141.82 338.07 130.92 334.17C130.04 333.85 129.31 334.88 129.94 335.58C136.69 343.14 145.86 356.52 149.05 366.97C150.28 372.1 150.13 381.67 150.04 385.06C142.8 385.29 140.84 383.3 137.52 379.62C133.73 371.72 124.81 365.38 115.45 365.38C101.54 365.38 90.4499 377.46 92.0899 391.71H92.0699Z" fill="black"/>
<path d="M257.54 391.71C258.74 402.1 267.01 410.65 277.36 412.16C288.18 413.74 297.83 407.93 302.1 399.05C305.07 395.5 307.48 390.45 315.48 390.17C315.11 399.44 311.98 404.87 307.56 408.57C298.67 412.83 292.87 422.48 294.44 433.3C295.95 443.65 304.5 451.91 314.89 453.12C329.14 454.77 341.22 443.68 341.22 429.76C341.22 420.41 335.75 412.36 327.84 408.56C324.01 405.76 320.68 399.59 320.31 390.22C328.72 390.38 330.34 395.5 333.31 399.04C337.57 407.92 347.21 413.73 358.04 412.16C368.39 410.65 376.66 402.1 377.87 391.72C379.52 377.47 368.43 365.38 354.51 365.38C345.16 365.38 336.24 371.72 332.44 379.62C329.17 383.25 327.92 385.02 320.13 385.02C319.66 378.36 319.9 371.16 320.91 366.97C324.79 355.84 333.48 342.95 340.04 335.57C340.66 334.87 339.93 333.86 339.05 334.17C328.15 338.07 307.28 338.07 296.38 334.17C295.5 333.85 294.77 334.88 295.4 335.58C302.15 343.14 311.32 356.52 314.51 366.97C315.74 372.1 315.59 381.67 315.5 385.06C308.26 385.29 306.3 383.3 302.98 379.62C299.19 371.72 290.27 365.38 280.91 365.38C267 365.38 255.91 377.46 257.55 391.71H257.54Z" fill="black"/>
<path d="M295.12 320.84C293.92 310.45 285.65 301.9 275.3 300.39C264.48 298.81 254.83 304.62 250.56 313.5C247.59 317.05 245.18 322.1 237.18 322.38C237.55 313.11 240.68 307.68 245.1 303.98C253.99 299.72 259.79 290.07 258.21 279.25C256.7 268.9 248.15 260.64 237.76 259.43C223.51 257.78 211.43 268.87 211.43 282.79C211.43 292.14 216.9 300.19 224.81 303.99C228.64 306.79 231.97 312.96 232.34 322.33C223.93 322.17 222.31 317.05 219.34 313.51C215.08 304.63 205.44 298.82 194.61 300.39C184.26 301.9 175.99 310.45 174.78 320.83C173.13 335.08 184.22 347.17 198.14 347.17C207.49 347.17 216.41 340.83 220.21 332.93C223.48 329.3 224.73 327.53 232.52 327.53C232.99 334.19 232.75 341.39 231.74 345.58C227.86 356.71 219.17 369.6 212.61 376.98C211.99 377.68 212.72 378.69 213.6 378.38C224.5 374.48 245.37 374.48 256.27 378.38C257.15 378.7 257.88 377.67 257.25 376.97C250.5 369.41 241.33 356.03 238.14 345.58C236.91 340.45 237.06 330.88 237.15 327.49C244.39 327.26 246.35 329.25 249.67 332.93C253.46 340.83 262.38 347.17 271.74 347.17C285.65 347.17 296.74 335.09 295.1 320.84H295.12Z" fill="black"/>
<path d="M75.0898 32.4799C70.3598 26.5899 64.3602 23.6099 57.2402 23.6099C50.7902 23.6099 45.1698 26.0299 40.5298 30.7999C35.9098 35.5599 33.5698 41.4099 33.5698 48.1799C33.5698 54.9499 35.7498 60.5999 40.0498 64.2899C44.2698 67.8999 49.0302 69.7299 54.2202 69.7299C57.9602 69.7299 61.3799 68.8599 64.4199 67.1299C65.9299 66.2699 67.3499 65.1999 68.6699 63.9199C68.5799 69.6399 67.8402 74.3599 66.4902 77.9899C65.1002 81.7299 63.2999 84.4199 61.1499 85.9799C58.9999 87.5499 56.5602 88.3099 53.7002 88.3099C51.2002 88.3099 50.1598 87.8899 49.7598 87.6499C49.3198 87.3699 49.1499 87.1499 49.1499 87.1199C49.1499 87.1199 49.1999 86.8599 49.6299 86.2999C50.8999 84.6899 51.5601 83.1099 51.5601 81.5999C51.5601 79.5899 50.8101 77.8499 49.3301 76.4299C46.3001 73.4699 41.1698 73.6499 38.2998 76.7299C36.8098 78.2999 36.0698 80.3599 36.0698 82.8299C36.0698 86.4199 37.7102 89.5199 40.9302 92.0399C44.0002 94.4299 48.2102 95.6499 53.4702 95.6499C58.7302 95.6499 63.7298 94.1599 68.0098 91.2099C72.2698 88.2799 75.73 83.7999 78.27 77.8899C80.78 72.0799 82.0498 64.8899 82.0498 56.5399C82.0498 46.3299 79.7101 38.2399 75.1001 32.4899L75.0898 32.4799ZM65.1699 57.1999C63.0899 59.6199 60.5901 60.7899 57.5601 60.7899C54.5301 60.7899 52.1002 59.7199 50.2202 57.5099C48.2902 55.2399 47.2998 51.5999 47.2998 46.7099C47.2998 41.2799 48.2998 37.2199 50.2798 34.6499C52.1598 32.2099 54.4801 31.0199 57.3701 31.0199C60.2601 31.0199 62.8002 32.3199 64.9902 34.9999C67.2402 37.7599 68.3799 41.6198 68.3799 46.4698C68.3799 51.3198 67.2902 54.7199 65.1602 57.1899L65.1699 57.1999Z" fill="black"/>
<path d="M395.58 617.84C400.31 623.73 406.31 626.71 413.43 626.71C419.88 626.71 425.5 624.29 430.14 619.52C434.76 614.76 437.1 608.91 437.1 602.14C437.1 595.37 434.92 589.72 430.62 586.03C426.4 582.42 421.64 580.59 416.45 580.59C412.71 580.59 409.28 581.46 406.25 583.19C404.74 584.05 403.32 585.12 402 586.4C402.09 580.68 402.83 575.96 404.18 572.33C405.57 568.59 407.37 565.9 409.52 564.34C411.67 562.77 414.11 562.01 416.97 562.01C419.47 562.01 420.51 562.43 420.91 562.67C421.35 562.95 421.52 563.17 421.52 563.2C421.52 563.2 421.47 563.46 421.04 564.02C419.77 565.63 419.11 567.21 419.11 568.72C419.11 570.73 419.86 572.47 421.34 573.89C424.37 576.85 429.5 576.67 432.37 573.59C433.86 572.02 434.6 569.96 434.6 567.49C434.6 563.9 432.96 560.8 429.74 558.28C426.67 555.89 422.46 554.67 417.2 554.67C411.94 554.67 406.94 556.16 402.66 559.11C398.4 562.04 394.94 566.52 392.4 572.43C389.89 578.24 388.62 585.43 388.62 593.78C388.62 603.99 390.96 612.08 395.57 617.83L395.58 617.84ZM405.5 593.12C407.58 590.7 410.08 589.53 413.11 589.53C416.14 589.53 418.57 590.6 420.45 592.81C422.38 595.08 423.37 598.72 423.37 603.61C423.37 609.04 422.37 613.1 420.39 615.67C418.51 618.11 416.19 619.3 413.3 619.3C410.41 619.3 407.87 618 405.68 615.32C403.43 612.56 402.29 608.7 402.29 603.85C402.29 599 403.38 595.6 405.51 593.13L405.5 593.12Z" fill="black"/>
<defs>
<linearGradient id="paint0_linear_145_1647" x1="380.96" y1="-103.53" x2="110.48" y2="690.33" gradientUnits="userSpaceOnUse">
<stop stop-color="#E1E1E1"/>
<stop offset="0.12" stop-color="#ECECEC"/>
<stop offset="0.32" stop-color="#FAFAFA"/>
<stop offset="0.49" stop-color="white"/>
<stop offset="0.7" stop-color="#FBFBFB"/>
<stop offset="0.85" stop-color="#F2F2F2"/>
<stop offset="0.99" stop-color="#E2E2E2"/>
<stop offset="1" stop-color="#E1E1E1"/>
</linearGradient>
</defs>
</svg>
