<svg width="469" height="650" viewBox="0 0 469 650" fill="none" xmlns="http://www.w3.org/2000/svg">
<path d="M439.03 0.620117H29.1499C13.0799 0.620117 0.0498047 12.6801 0.0498047 27.5501V622.39C0.0498047 637.26 13.0799 649.32 29.1499 649.32H439.03C455.1 649.32 468.13 637.26 468.13 622.39V27.5501C468.13 12.6801 455.1 0.620117 439.03 0.620117Z" fill="url(#paint0_linear_145_1728)"/>
<path d="M85.3699 138.17C84.7799 133.1 80.75 128.93 75.7 128.19C70.42 127.42 65.7097 130.25 63.6297 134.59C62.1797 136.32 60.9999 138.79 57.0999 138.92C57.2799 134.4 58.8098 131.75 60.9598 129.94C65.2998 127.86 68.1297 123.15 67.3597 117.87C66.6197 112.82 62.4497 108.79 57.3797 108.2C50.4297 107.39 44.5296 112.81 44.5296 119.6C44.5296 124.16 47.1999 128.09 51.0599 129.94C52.9299 131.31 54.56 134.32 54.74 138.89C50.64 138.81 49.8397 136.31 48.3997 134.59C46.3197 130.26 41.6199 127.42 36.3299 128.19C31.2799 128.92 27.24 133.1 26.66 138.17C25.85 145.12 31.2699 151.02 38.0599 151.02C42.6199 151.02 46.9799 147.93 48.8299 144.07C50.4299 142.3 51.0397 141.44 54.8397 141.43C55.0697 144.68 54.9498 148.19 54.4598 150.24C52.5698 155.67 48.3297 161.96 45.1297 165.56C44.8297 165.9 45.1797 166.4 45.6097 166.24C50.9297 164.34 61.11 164.34 66.43 166.24C66.86 166.39 67.22 165.89 66.91 165.55C63.61 161.86 59.1397 155.33 57.5897 150.23C56.9897 147.73 57.0597 143.06 57.1097 141.4C60.6397 141.29 61.6 142.26 63.22 144.06C65.07 147.92 69.42 151.01 73.99 151.01C80.78 151.01 86.1899 145.11 85.3899 138.16L85.3699 138.17Z" fill="black"/>
<path d="M383.64 511.9C384.23 516.97 388.26 521.14 393.31 521.88C398.59 522.65 403.3 519.82 405.38 515.48C406.83 513.75 408.01 511.28 411.91 511.15C411.73 515.67 410.2 518.32 408.05 520.13C403.71 522.21 400.88 526.92 401.65 532.2C402.39 537.25 406.56 541.28 411.63 541.87C418.58 542.68 424.48 537.26 424.48 530.47C424.48 525.91 421.81 521.98 417.95 520.13C416.08 518.76 414.45 515.75 414.27 511.18C418.37 511.26 419.17 513.76 420.61 515.48C422.69 519.81 427.39 522.65 432.68 521.88C437.73 521.15 441.77 516.97 442.35 511.9C443.16 504.95 437.74 499.05 430.95 499.05C426.39 499.05 422.03 502.14 420.18 506C418.58 507.77 417.97 508.63 414.17 508.64C413.94 505.39 414.06 501.88 414.55 499.83C416.44 494.4 420.68 488.11 423.88 484.51C424.18 484.17 423.83 483.67 423.4 483.83C418.08 485.73 407.9 485.73 402.58 483.83C402.15 483.68 401.79 484.18 402.1 484.52C405.4 488.21 409.87 494.74 411.42 499.84C412.02 502.34 411.95 507.01 411.9 508.67C408.37 508.78 407.41 507.81 405.79 506.01C403.94 502.15 399.59 499.06 395.02 499.06C388.23 499.06 382.82 504.96 383.62 511.91L383.64 511.9Z" fill="black"/>
<path d="M376.99 116.82C375.79 106.43 367.52 97.8802 357.17 96.3702C346.35 94.7902 336.7 100.6 332.43 109.48C329.46 113.03 327.05 118.08 319.05 118.36C319.42 109.09 322.55 103.66 326.97 99.9602C335.86 95.7002 341.66 86.0501 340.08 75.2301C338.57 64.8801 330.02 56.6201 319.63 55.4101C305.38 53.7601 293.3 64.8502 293.3 78.7702C293.3 88.1202 298.77 96.1701 306.68 99.9701C310.51 102.77 313.84 108.94 314.21 118.31C305.8 118.15 304.18 113.03 301.21 109.49C296.95 100.61 287.31 94.8002 276.48 96.3702C266.13 97.8802 257.86 106.43 256.65 116.81C255 131.06 266.09 143.15 280.01 143.15C289.36 143.15 298.28 136.81 302.08 128.91C305.35 125.28 306.6 123.51 314.39 123.51C314.86 130.17 314.62 137.37 313.61 141.56C309.73 152.69 301.04 165.58 294.48 172.96C293.86 173.66 294.59 174.68 295.47 174.36C306.37 170.46 327.24 170.46 338.14 174.36C339.02 174.68 339.75 173.65 339.12 172.95C332.37 165.39 323.2 152.01 320.01 141.56C318.78 136.43 318.93 126.86 319.02 123.47C326.26 123.24 328.22 125.23 331.54 128.91C335.33 136.81 344.25 143.15 353.61 143.15C367.52 143.15 378.61 131.07 376.97 116.82H376.99Z" fill="black"/>
<path d="M211.52 116.82C210.32 106.43 202.05 97.8802 191.7 96.3702C180.88 94.7902 171.23 100.6 166.96 109.48C163.99 113.03 161.58 118.08 153.58 118.36C153.95 109.09 157.08 103.66 161.5 99.9602C170.39 95.7002 176.19 86.0501 174.62 75.2301C173.11 64.8801 164.56 56.6201 154.17 55.4101C139.92 53.7601 127.84 64.8502 127.84 78.7702C127.84 88.1202 133.31 96.1701 141.22 99.9701C145.05 102.77 148.38 108.94 148.75 118.31C140.34 118.15 138.72 113.03 135.75 109.49C131.49 100.61 121.85 94.8002 111.02 96.3702C100.67 97.8802 92.3999 106.43 91.1899 116.81C89.5399 131.06 100.63 143.15 114.55 143.15C123.9 143.15 132.82 136.81 136.62 128.91C139.89 125.28 141.14 123.51 148.93 123.51C149.4 130.17 149.16 137.37 148.15 141.56C144.27 152.69 135.58 165.58 129.02 172.96C128.4 173.66 129.13 174.68 130.01 174.36C140.91 170.46 161.78 170.46 172.68 174.36C173.56 174.68 174.29 173.65 173.66 172.95C166.91 165.39 157.74 152.01 154.55 141.56C153.32 136.43 153.47 126.86 153.56 123.47C160.8 123.24 162.76 125.23 166.08 128.91C169.87 136.81 178.79 143.15 188.15 143.15C202.06 143.15 213.15 131.07 211.51 116.82H211.52Z" fill="black"/>
<path d="M91.2003 532.93C92.4003 543.32 100.67 551.87 111.02 553.38C121.84 554.96 131.49 549.15 135.76 540.27C138.73 536.72 141.14 531.67 149.14 531.39C148.77 540.66 145.64 546.09 141.22 549.79C132.33 554.05 126.53 563.7 128.1 574.52C129.61 584.87 138.16 593.13 148.55 594.34C162.8 595.99 174.88 584.9 174.88 570.98C174.88 561.63 169.41 553.58 161.5 549.78C157.67 546.98 154.34 540.81 153.97 531.44C162.38 531.6 164 536.72 166.97 540.26C171.23 549.14 180.87 554.95 191.7 553.38C202.05 551.87 210.32 543.32 211.53 532.94C213.18 518.69 202.09 506.6 188.17 506.6C178.82 506.6 169.9 512.94 166.1 520.84C162.83 524.47 161.58 526.24 153.79 526.24C153.32 519.58 153.56 512.38 154.57 508.19C158.45 497.06 167.14 484.17 173.7 476.79C174.32 476.09 173.59 475.07 172.71 475.39C161.81 479.29 140.94 479.29 130.04 475.39C129.16 475.07 128.43 476.1 129.06 476.8C135.81 484.36 144.98 497.74 148.17 508.19C149.4 513.32 149.25 522.89 149.16 526.28C141.92 526.51 139.96 524.52 136.64 520.84C132.85 512.94 123.93 506.6 114.57 506.6C100.66 506.6 89.57 518.68 91.21 532.93H91.2003Z" fill="black"/>
<path d="M256.67 532.93C257.87 543.32 266.14 551.87 276.49 553.38C287.31 554.96 296.96 549.15 301.23 540.27C304.2 536.72 306.61 531.67 314.61 531.39C314.24 540.66 311.11 546.09 306.69 549.79C297.8 554.05 292 563.7 293.58 574.52C295.09 584.87 303.64 593.13 314.03 594.34C328.28 595.99 340.36 584.9 340.36 570.98C340.36 561.63 334.89 553.58 326.98 549.78C323.15 546.98 319.82 540.81 319.45 531.44C327.86 531.6 329.48 536.72 332.45 540.26C336.71 549.14 346.35 554.95 357.18 553.38C367.53 551.87 375.8 543.32 377.01 532.94C378.66 518.69 367.57 506.6 353.65 506.6C344.3 506.6 335.38 512.94 331.58 520.84C328.31 524.47 327.06 526.24 319.27 526.24C318.8 519.58 319.04 512.38 320.05 508.19C323.93 497.06 332.62 484.17 339.18 476.79C339.8 476.09 339.07 475.07 338.19 475.39C327.29 479.29 306.42 479.29 295.52 475.39C294.64 475.07 293.91 476.1 294.54 476.8C301.29 484.36 310.46 497.74 313.65 508.19C314.88 513.32 314.73 522.89 314.64 526.28C307.4 526.51 305.44 524.52 302.12 520.84C298.33 512.94 289.41 506.6 280.05 506.6C266.14 506.6 255.05 518.68 256.69 532.93H256.67Z" fill="black"/>
<path d="M376.99 258.35C375.79 247.96 367.52 239.41 357.17 237.9C346.35 236.32 336.7 242.13 332.43 251.01C329.46 254.56 327.05 259.61 319.05 259.89C319.42 250.62 322.55 245.19 326.97 241.49C335.86 237.23 341.66 227.58 340.08 216.76C338.57 206.41 330.02 198.15 319.63 196.94C305.38 195.29 293.3 206.38 293.3 220.3C293.3 229.65 298.77 237.7 306.68 241.5C310.51 244.3 313.84 250.47 314.21 259.84C305.8 259.68 304.18 254.56 301.21 251.02C296.95 242.14 287.31 236.33 276.48 237.9C266.13 239.41 257.86 247.96 256.65 258.34C255 272.59 266.09 284.68 280.01 284.68C289.36 284.68 298.28 278.34 302.08 270.44C305.35 266.81 306.6 265.04 314.39 265.04C314.86 271.7 314.62 278.9 313.61 283.09C309.73 294.22 301.04 307.11 294.48 314.49C293.86 315.19 294.59 316.21 295.47 315.89C306.37 311.99 327.24 311.99 338.14 315.89C339.02 316.21 339.75 315.18 339.12 314.48C332.37 306.92 323.2 293.54 320.01 283.09C318.78 277.96 318.93 268.39 319.02 265C326.26 264.77 328.22 266.76 331.54 270.44C335.33 278.34 344.25 284.68 353.61 284.68C367.52 284.68 378.61 272.6 376.97 258.35H376.99Z" fill="black"/>
<path d="M211.52 258.35C210.32 247.96 202.05 239.41 191.7 237.9C180.88 236.32 171.23 242.13 166.96 251.01C163.99 254.56 161.58 259.61 153.58 259.89C153.95 250.62 157.08 245.19 161.5 241.49C170.39 237.23 176.19 227.58 174.62 216.76C173.11 206.41 164.56 198.15 154.17 196.94C139.92 195.29 127.84 206.38 127.84 220.3C127.84 229.65 133.31 237.7 141.22 241.5C145.05 244.3 148.38 250.47 148.75 259.84C140.34 259.68 138.72 254.56 135.75 251.02C131.49 242.14 121.85 236.33 111.02 237.9C100.67 239.41 92.3999 247.96 91.1899 258.34C89.5399 272.59 100.63 284.68 114.55 284.68C123.9 284.68 132.82 278.34 136.62 270.44C139.89 266.81 141.14 265.04 148.93 265.04C149.4 271.7 149.16 278.9 148.15 283.09C144.27 294.22 135.58 307.11 129.02 314.49C128.4 315.19 129.13 316.21 130.01 315.89C140.91 311.99 161.78 311.99 172.68 315.89C173.56 316.21 174.29 315.18 173.66 314.48C166.91 306.92 157.74 293.54 154.55 283.09C153.32 277.96 153.47 268.39 153.56 265C160.8 264.77 162.76 266.76 166.08 270.44C169.87 278.34 178.79 284.68 188.15 284.68C202.06 284.68 213.15 272.6 211.51 258.35H211.52Z" fill="black"/>
<path d="M91.2003 391.71C92.4003 402.1 100.67 410.65 111.02 412.16C121.84 413.74 131.49 407.93 135.76 399.05C138.73 395.5 141.14 390.45 149.14 390.17C148.77 399.44 145.64 404.87 141.22 408.57C132.33 412.83 126.53 422.48 128.1 433.3C129.61 443.65 138.16 451.91 148.55 453.12C162.8 454.77 174.88 443.68 174.88 429.76C174.88 420.41 169.41 412.36 161.5 408.56C157.67 405.76 154.34 399.59 153.97 390.22C162.38 390.38 164 395.5 166.97 399.04C171.23 407.92 180.87 413.73 191.7 412.16C202.05 410.65 210.32 402.1 211.53 391.72C213.18 377.47 202.09 365.38 188.17 365.38C178.82 365.38 169.9 371.72 166.1 379.62C162.83 383.25 161.58 385.02 153.79 385.02C153.32 378.36 153.56 371.16 154.57 366.97C158.45 355.84 167.14 342.95 173.7 335.57C174.32 334.87 173.59 333.86 172.71 334.17C161.81 338.07 140.94 338.07 130.04 334.17C129.16 333.85 128.43 334.88 129.06 335.58C135.81 343.14 144.98 356.52 148.17 366.97C149.4 372.1 149.25 381.67 149.16 385.06C141.92 385.29 139.96 383.3 136.64 379.62C132.85 371.72 123.93 365.38 114.57 365.38C100.66 365.38 89.57 377.46 91.21 391.71H91.2003Z" fill="black"/>
<path d="M256.67 391.71C257.87 402.1 266.14 410.65 276.49 412.16C287.31 413.74 296.96 407.93 301.23 399.05C304.2 395.5 306.61 390.45 314.61 390.17C314.24 399.44 311.11 404.87 306.69 408.57C297.8 412.83 292 422.48 293.58 433.3C295.09 443.65 303.64 451.91 314.03 453.12C328.28 454.77 340.36 443.68 340.36 429.76C340.36 420.41 334.89 412.36 326.98 408.56C323.15 405.76 319.82 399.59 319.45 390.22C327.86 390.38 329.48 395.5 332.45 399.04C336.71 407.92 346.35 413.73 357.18 412.16C367.53 410.65 375.8 402.1 377.01 391.72C378.66 377.47 367.57 365.38 353.65 365.38C344.3 365.38 335.38 371.72 331.58 379.62C328.31 383.25 327.06 385.02 319.27 385.02C318.8 378.36 319.04 371.16 320.05 366.97C323.93 355.84 332.62 342.95 339.18 335.57C339.8 334.87 339.07 333.86 338.19 334.17C327.29 338.07 306.42 338.07 295.52 334.17C294.64 333.85 293.91 334.88 294.54 335.58C301.29 343.14 310.46 356.52 313.65 366.97C314.88 372.1 314.73 381.67 314.64 385.06C307.4 385.29 305.44 383.3 302.12 379.62C298.33 371.72 289.41 365.38 280.05 365.38C266.14 365.38 255.05 377.46 256.69 391.71H256.67Z" fill="black"/>
<path d="M294.25 190.61C293.05 180.22 284.78 171.67 274.43 170.16C263.61 168.58 253.96 174.39 249.69 183.27C246.72 186.82 244.31 191.87 236.31 192.15C236.68 182.88 239.81 177.45 244.23 173.75C253.12 169.49 258.92 159.84 257.34 149.02C255.83 138.67 247.28 130.41 236.89 129.2C222.64 127.55 210.56 138.64 210.56 152.56C210.56 161.91 216.03 169.96 223.94 173.76C227.77 176.56 231.1 182.73 231.47 192.1C223.06 191.94 221.44 186.82 218.47 183.28C214.21 174.4 204.57 168.59 193.74 170.16C183.39 171.67 175.12 180.22 173.91 190.6C172.26 204.85 183.35 216.94 197.27 216.94C206.62 216.94 215.54 210.6 219.34 202.7C222.61 199.07 223.86 197.3 231.65 197.3C232.12 203.96 231.88 211.16 230.87 215.35C226.99 226.48 218.3 239.37 211.74 246.75C211.12 247.45 211.85 248.47 212.73 248.15C223.63 244.25 244.5 244.25 255.4 248.15C256.28 248.47 257.01 247.44 256.38 246.74C249.63 239.18 240.46 225.8 237.27 215.35C236.04 210.22 236.19 200.65 236.28 197.26C243.52 197.03 245.48 199.02 248.8 202.7C252.59 210.6 261.51 216.94 270.87 216.94C284.78 216.94 295.87 204.86 294.23 190.61H294.25Z" fill="black"/>
<path d="M173.93 460.94C175.13 471.33 183.4 479.88 193.75 481.39C204.57 482.97 214.22 477.16 218.49 468.28C221.46 464.73 223.87 459.68 231.87 459.4C231.5 468.67 228.37 474.1 223.95 477.8C215.06 482.06 209.26 491.71 210.84 502.53C212.35 512.88 220.9 521.14 231.29 522.35C245.54 524 257.62 512.91 257.62 498.99C257.62 489.64 252.15 481.59 244.24 477.79C240.41 474.99 237.08 468.82 236.71 459.45C245.12 459.61 246.74 464.73 249.71 468.27C253.97 477.15 263.61 482.96 274.44 481.39C284.79 479.88 293.06 471.33 294.27 460.95C295.92 446.7 284.83 434.61 270.91 434.61C261.56 434.61 252.64 440.95 248.84 448.85C245.57 452.48 244.32 454.25 236.53 454.25C236.06 447.59 236.3 440.39 237.31 436.2C241.19 425.07 249.88 412.18 256.44 404.8C257.06 404.1 256.33 403.08 255.45 403.4C244.55 407.3 223.68 407.3 212.78 403.4C211.9 403.08 211.17 404.11 211.8 404.81C218.55 412.37 227.72 425.75 230.91 436.2C232.14 441.33 231.99 450.9 231.9 454.29C224.66 454.52 222.7 452.53 219.38 448.85C215.59 440.95 206.67 434.61 197.31 434.61C183.4 434.61 172.31 446.69 173.95 460.94H173.93Z" fill="black"/>
<path d="M63.6099 22.9697C57.5799 22.9697 52.68 25.8798 49.02 31.6298C44.67 38.4598 42.4702 47.7097 42.4702 59.0997C42.4702 71.0997 44.82 80.4698 49.46 86.9498C53.3 92.2898 58.1799 94.9998 63.9399 94.9998C69.6999 94.9998 75.08 91.7998 79.25 85.4998C83.31 79.3598 85.3701 70.4197 85.3701 58.9197C85.3701 46.5197 83.0001 37.0797 78.3301 30.8497C74.4301 25.6197 69.4801 22.9697 63.6201 22.9697H63.6099ZM70.6499 83.0497C69.0499 86.1897 66.8599 87.7098 63.9399 87.7098C61.0199 87.7098 58.78 86.0298 57 82.5698C55.07 78.8098 54.0898 70.9197 54.0898 59.0997C54.0898 44.0297 55.6101 37.8698 56.8901 35.3698C58.6001 32.0198 60.8701 30.3998 63.8501 30.3998C66.8301 30.3998 69.0301 32.1297 70.8501 35.6797C72.8201 39.5297 73.8198 47.5198 73.8198 59.4398C73.8198 71.3598 72.7501 78.8898 70.6401 83.0598L70.6499 83.0497Z" fill="black"/>
<path d="M34.6499 85.0399V24.1299H30.21L29.7202 24.5199C27.7602 26.0899 25.4298 27.3899 22.8198 28.3699C20.1498 29.3699 16.59 30.1899 12.25 30.7999L10.6401 31.0199V38.0599H22.0601C22.8401 38.0599 23.1999 38.3199 23.3999 38.5099C23.6999 38.7999 23.7598 39.0299 23.7598 39.2999V83.7999C23.7598 84.7799 23.4602 85.2099 23.2402 85.4499C22.7902 85.9299 21.89 86.0299 21.21 86.0299H12.21V93.5999H46.9502V86.0299H36.7402C35.9202 86.0299 35.2699 85.8299 34.6499 85.0199V85.0399Z" fill="black"/>
<path d="M405.12 626.83C411.15 626.83 416.05 623.92 419.71 618.17C424.06 611.34 426.26 602.09 426.26 590.7C426.26 578.7 423.91 569.33 419.27 562.85C415.43 557.51 410.55 554.8 404.79 554.8C399.03 554.8 393.65 558 389.48 564.3C385.42 570.44 383.36 579.38 383.36 590.88C383.36 603.28 385.73 612.72 390.4 618.95C394.3 624.18 399.25 626.83 405.11 626.83H405.12ZM398.08 566.75C399.68 563.61 401.87 562.09 404.79 562.09C407.71 562.09 409.95 563.77 411.73 567.23C413.66 570.99 414.64 578.88 414.64 590.7C414.64 605.77 413.12 611.93 411.84 614.43C410.13 617.78 407.86 619.4 404.88 619.4C401.9 619.4 399.7 617.67 397.88 614.12C395.91 610.27 394.91 602.28 394.91 590.36C394.91 578.44 395.98 570.91 398.09 566.74L398.08 566.75Z" fill="black"/>
<path d="M434.09 564.76V625.67H438.53L439.02 625.28C440.98 623.71 443.31 622.41 445.92 621.43C448.59 620.43 452.15 619.61 456.49 619L458.1 618.78V611.74H446.68C445.9 611.74 445.54 611.48 445.34 611.29C445.04 611 444.98 610.77 444.98 610.5V566C444.98 565.02 445.28 564.59 445.5 564.35C445.95 563.87 446.85 563.77 447.53 563.77H456.53V556.2H421.79V563.77H432C432.82 563.77 433.47 563.97 434.09 564.78V564.76Z" fill="black"/>
<defs>
<linearGradient id="paint0_linear_145_1728" x1="380.09" y1="-103.53" x2="109.61" y2="690.33" gradientUnits="userSpaceOnUse">
<stop stop-color="#E1E1E1"/>
<stop offset="0.12" stop-color="#ECECEC"/>
<stop offset="0.32" stop-color="#FAFAFA"/>
<stop offset="0.49" stop-color="white"/>
<stop offset="0.7" stop-color="#FBFBFB"/>
<stop offset="0.85" stop-color="#F2F2F2"/>
<stop offset="0.99" stop-color="#E2E2E2"/>
<stop offset="1" stop-color="#E1E1E1"/>
</linearGradient>
</defs>
</svg>
