<svg width="469" height="650" viewBox="0 0 469 650" fill="none" xmlns="http://www.w3.org/2000/svg">
<path d="M439.37 0.870117H29.4902C13.4202 0.870117 0.390137 12.9301 0.390137 27.8001V622.64C0.390137 637.51 13.4202 649.57 29.4902 649.57H439.37C455.44 649.57 468.47 637.51 468.47 622.64V27.8001C468.47 12.9301 455.44 0.870117 439.37 0.870117Z" fill="url(#paint0_linear_145_1859)"/>
<path d="M85.7098 138.42C85.1198 133.35 81.0898 129.18 76.0398 128.44C70.7598 127.67 66.05 130.5 63.97 134.84C62.52 136.57 61.3397 139.04 57.4397 139.17C57.6197 134.65 59.1496 132 61.2996 130.19C65.6396 128.11 68.47 123.4 67.7 118.12C66.96 113.07 62.79 109.04 57.72 108.45C50.77 107.64 44.8699 113.06 44.8699 119.85C44.8699 124.41 47.5397 128.34 51.3997 130.19C53.2697 131.56 54.8999 134.57 55.0799 139.14C50.9799 139.06 50.18 136.56 48.74 134.84C46.66 130.51 41.9597 127.67 36.6697 128.44C31.6197 129.17 27.5798 133.35 26.9998 138.42C26.1898 145.37 31.6097 151.27 38.3997 151.27C42.9597 151.27 47.3197 148.18 49.1697 144.32C50.7697 142.55 51.38 141.69 55.18 141.68C55.41 144.93 55.2896 148.44 54.7996 150.49C52.9096 155.92 48.67 162.21 45.47 165.81C45.17 166.15 45.52 166.65 45.95 166.49C51.27 164.59 61.4498 164.59 66.7698 166.49C67.1998 166.64 67.5598 166.14 67.2498 165.8C63.9498 162.11 59.48 155.58 57.93 150.48C57.33 147.98 57.4 143.31 57.45 141.65C60.98 141.54 61.9399 142.51 63.5599 144.31C65.4099 148.17 69.7599 151.26 74.3299 151.26C81.1199 151.26 86.5298 145.36 85.7298 138.41L85.7098 138.42Z" fill="black"/>
<path d="M383.98 512.15C384.57 517.22 388.6 521.39 393.65 522.13C398.93 522.9 403.64 520.07 405.72 515.73C407.17 514 408.35 511.53 412.25 511.4C412.07 515.92 410.54 518.57 408.39 520.38C404.05 522.46 401.22 527.17 401.99 532.45C402.73 537.5 406.9 541.53 411.97 542.12C418.92 542.93 424.82 537.51 424.82 530.72C424.82 526.16 422.15 522.23 418.29 520.38C416.42 519.01 414.79 516 414.61 511.43C418.71 511.51 419.51 514.01 420.95 515.73C423.03 520.06 427.73 522.9 433.02 522.13C438.07 521.4 442.11 517.22 442.69 512.15C443.5 505.2 438.08 499.3 431.29 499.3C426.73 499.3 422.37 502.39 420.52 506.25C418.92 508.02 418.31 508.88 414.51 508.89C414.28 505.64 414.4 502.13 414.89 500.08C416.78 494.65 421.02 488.36 424.22 484.76C424.52 484.42 424.17 483.92 423.74 484.08C418.42 485.98 408.24 485.98 402.92 484.08C402.49 483.93 402.13 484.43 402.44 484.77C405.74 488.46 410.21 494.99 411.76 500.09C412.36 502.59 412.29 507.26 412.24 508.92C408.71 509.03 407.75 508.06 406.13 506.26C404.28 502.4 399.93 499.31 395.36 499.31C388.57 499.31 383.16 505.21 383.96 512.16L383.98 512.15Z" fill="black"/>
<path d="M49.0698 29.6098H56.2598C58.4898 29.6098 59.4802 29.9998 59.9302 30.3298C60.2902 30.5998 60.77 31.0898 60.77 32.2798V76.9698C60.77 81.5798 59.7099 85.1998 57.6099 87.7198C55.5299 90.2198 52.7301 91.4398 49.0801 91.4398C45.8701 91.4398 43.14 90.5398 40.96 88.7698C38.81 87.0198 37.77 85.1698 37.77 83.1098C37.77 82.2998 37.9401 81.9298 38.1001 81.7098C38.2301 81.5298 38.3401 81.4698 38.5601 81.4698C38.5901 81.4698 38.87 81.4798 39.96 81.7998C41.08 82.1498 41.9401 82.3198 42.6201 82.3198C44.3901 82.3198 45.9498 81.5798 47.2798 80.1298C48.5798 78.6998 49.2402 76.9298 49.2402 74.8498C49.2402 72.4698 48.4399 70.4798 46.8599 68.9198C45.2899 67.3698 43.2701 66.5798 40.8701 66.5798C37.9601 66.5798 35.48 67.7598 33.5 70.0998C31.55 72.3798 30.5698 75.4498 30.5698 79.1998C30.5698 84.2198 32.4702 88.5198 36.2202 91.9998C39.9502 95.4498 44.8001 97.1998 50.6401 97.1998C54.9001 97.1998 58.7899 96.3298 62.1899 94.6198C65.6199 92.8898 68.2598 90.5098 70.0498 87.5398C71.8398 84.5798 72.7402 81.2198 72.7402 77.5598V32.3098C72.7402 31.4198 72.9802 30.7698 73.4902 30.3398C73.8702 30.0198 74.7 29.6398 76.54 29.6398H81.9399V24.0898H49.0601V29.6398L49.0698 29.6098Z" fill="black"/>
<path d="M419.53 621.19H412.34C410.11 621.19 409.12 620.8 408.67 620.47C408.31 620.2 407.83 619.71 407.83 618.52V573.83C407.83 569.22 408.89 565.6 410.99 563.08C413.07 560.58 415.87 559.36 419.52 559.36C422.73 559.36 425.46 560.26 427.64 562.03C429.79 563.78 430.83 565.63 430.83 567.69C430.83 568.5 430.66 568.87 430.5 569.09C430.37 569.27 430.26 569.33 430.04 569.33C430.01 569.33 429.73 569.32 428.64 569C427.52 568.65 426.66 568.48 425.98 568.48C424.21 568.48 422.65 569.22 421.32 570.67C420.02 572.1 419.36 573.87 419.36 575.95C419.36 578.33 420.16 580.32 421.74 581.88C423.31 583.43 425.33 584.22 427.73 584.22C430.64 584.22 433.12 583.04 435.1 580.7C437.05 578.42 438.03 575.35 438.03 571.6C438.03 566.58 436.13 562.28 432.38 558.8C428.65 555.35 423.8 553.6 417.96 553.6C413.7 553.6 409.81 554.47 406.41 556.18C402.98 557.91 400.34 560.29 398.55 563.26C396.76 566.22 395.86 569.58 395.86 573.24V618.49C395.86 619.38 395.62 620.03 395.1 620.46C394.72 620.78 393.89 621.16 392.05 621.16H386.65V626.71H419.53V621.16V621.19Z" fill="black"/>
<path d="M123.83 525.76L128.9 500.29C127.63 500.41 126.15 500.36 124.71 500.08C116.94 498.53 111.96 491.07 113.48 483.42C114.41 478.76 117.52 475.02 121.48 473.2C121.02 469.25 121.21 465.19 122.02 461.12C123.23 455.02 125.84 449.45 129.49 444.83C103.83 453.15 83.2799 474.55 77.6599 502.77C72.0399 531 82.8 558.75 103.45 576.17C101.65 570.22 101.19 563.78 102.48 557.32C103.17 553.85 104.32 550.6 105.77 547.66C101.94 544.41 99.8599 539.27 100.93 533.89C102.45 526.24 109.91 521.26 117.57 522.78C119.96 523.26 122.12 524.31 123.81 525.76H123.83Z" fill="#BACBE4"/>
<path d="M148.13 526.74C148.39 523.56 148.79 520.28 149.44 517.05C150.13 513.58 151.06 510.16 152.23 506.79C153.42 503.3 154.95 500 156.57 496.84C150.95 497.59 145.59 499.5 140.88 502.54C140.33 502.18 139.66 501.8 139.11 501.44C139.21 501.58 139.16 501.82 139.13 501.94L134.2 526.7C134.61 526.53 134.99 526.48 135.37 526.44C138.63 531.32 143.01 535.55 148.25 538.58L148.27 538.46C147.91 534.66 147.83 530.66 148.12 526.74H148.13Z" fill="#BACBE4"/>
<path d="M136.81 545.5L129.99 544.14L132.99 529.07C132.58 529.24 132.06 529.38 131.58 529.29L125.48 528.08C125.12 528.01 124.67 527.79 124.47 527.51L121.49 542.46L114.55 541.08L116.15 562.41L117.63 583.72L127.28 564.63L136.81 545.51V545.5Z" fill="black"/>
<path d="M134.02 527.66L139.14 501.95C139.16 501.83 139.21 501.59 139.12 501.45C139.22 500.97 139.05 500.57 138.74 500.25C138.45 499.82 138 499.61 137.52 499.51L131.42 498.3C131.06 498.23 130.56 498.25 130.27 498.44C129.6 498.68 129.12 499.21 128.98 499.92L123.83 525.75C123.71 526.35 123.95 527.02 124.48 527.49C124.67 527.78 125.13 527.99 125.49 528.06L131.59 529.27C132.07 529.37 132.59 529.22 133 529.05C133.57 528.67 133.91 528.24 134.03 527.64L134.02 527.66Z" fill="#B3B3B3"/>
<path d="M378.32 330.43C375.64 354.7 371.25 374.94 366.25 391.77C366.01 391.65 365.76 391.53 365.52 391.53C363.57 391.41 360.89 393.12 359.06 395.55C357.84 396.53 357.35 397.14 355.77 396.89C356.62 394.82 357.72 392.62 358.45 391.28C360.77 387.99 364.3 384.08 366.62 381.89C366.86 381.77 366.86 381.4 366.62 381.52C363.81 382.49 359.67 382.01 357.96 380.54C357.72 380.54 357.59 380.78 357.59 381.03C357.96 383.47 357.96 387.86 357.1 391.15C356.73 392.74 355.39 395.78 354.91 396.88C353.32 396.76 353.2 396.03 353.08 394.81C353.45 392.37 352.47 390.18 350.52 389.93C347.71 389.69 343.81 393.1 342.23 397.61C341.13 400.9 341.62 403.71 343.45 404.44C345.4 405.17 348.21 403.59 350.28 400.9C351.38 399.8 352.48 398.34 354.18 398.46C352.84 401.27 351.5 402.97 350.03 403.95C347.71 405.05 345.15 407.97 344.05 411.39C342.95 414.68 343.56 417.37 345.39 417.98C348.07 418.83 352.1 415.66 353.93 411.27C355.27 408.34 355.27 405.78 354.17 404.44C353.8 403.47 353.93 401.51 355.15 398.59C356.86 398.83 356.49 400.42 356.61 401.52C356.24 404.45 357.34 406.4 359.78 406.15C360.39 406.03 361 405.91 361.61 405.54C344.66 452.49 322.71 466.51 322.71 466.51C321.86 464.56 321.12 462.49 320.64 460.41C320.15 458.95 319.79 457.48 319.66 455.9C318.56 450.66 318.07 444.92 318.07 438.83V438.34C318.07 432.85 318.56 427.12 319.29 421.27C319.41 420.05 319.53 418.95 319.78 417.86C320.02 415.79 320.39 413.71 320.76 411.52C321.25 408.59 321.86 405.54 322.47 402.62C325.15 390.3 328.57 378.23 332.1 367.62V367.5C337.47 351.16 342.83 338.23 345.15 332.99C345.88 331.28 346.25 330.43 346.25 330.43C346.25 330.43 364.18 330.06 378.32 330.43Z" fill="#F79637"/>
<path d="M358.45 391.29C357.72 392.63 356.62 394.83 355.77 396.9C357.36 397.14 357.84 396.53 359.06 395.56C360.89 393.12 363.57 391.41 365.52 391.54C365.76 391.54 366.01 391.66 366.25 391.78C364.79 396.66 363.32 401.17 361.74 405.44L361.62 405.56C361.01 405.93 360.4 406.05 359.79 406.17C357.35 406.41 356.25 404.46 356.62 401.54C356.5 400.44 356.86 398.86 355.16 398.61C353.94 401.54 353.82 403.49 354.18 404.46C355.28 405.8 355.28 408.36 353.94 411.29C352.11 415.68 348.09 418.85 345.4 418C343.57 417.39 342.96 414.71 344.06 411.41C345.16 408 347.72 405.07 350.04 403.97C351.5 402.99 352.85 401.29 354.19 398.48C352.48 398.36 351.39 399.82 350.29 400.92C348.22 403.6 345.41 405.19 343.46 404.46C341.63 403.73 341.14 400.92 342.24 397.63C343.82 393.12 347.73 389.7 350.53 389.95C352.48 390.19 353.46 392.39 353.09 394.83C353.21 396.05 353.33 396.78 354.92 396.9C355.41 395.8 356.75 392.75 357.11 391.17C357.96 387.88 357.96 383.49 357.6 381.05C357.6 380.81 357.72 380.56 357.97 380.56C359.68 382.02 363.82 382.51 366.63 381.54C366.87 381.42 366.87 381.78 366.63 381.91C364.31 384.1 360.78 388.01 358.46 391.3L358.45 391.29Z" fill="#00FF00"/>
<path d="M346.25 330.43C346.25 330.43 345.88 331.28 345.15 332.99C342.83 338.23 337.47 351.16 332.1 367.5V367.62C328.56 378.23 325.15 390.3 322.47 402.62C321.86 405.55 321.25 408.6 320.76 411.52C320.39 413.71 320.03 415.79 319.78 417.86C319.54 418.96 319.41 420.05 319.29 421.27C318.56 427.12 318.07 432.86 318.07 438.34V438.83C318.07 444.93 318.56 450.66 319.66 455.9C319.78 457.49 320.15 458.95 320.64 460.41C321.13 462.48 321.86 464.56 322.71 466.51C320.15 468.1 317.83 467.73 316 464.44C316 464.44 314.41 459.32 313.44 449.68C312.1 435.41 312.22 411.51 320.88 379.68C322.59 373.34 324.66 366.63 327.22 359.68C328.68 355.41 330.39 351.14 332.22 346.63C334.05 342.24 336 337.61 338.2 332.97C338.57 332.12 339.05 331.14 339.42 330.29C339.42 330.41 346.25 330.41 346.25 330.41V330.43Z" fill="#F79637"/>
<path d="M358.45 391.29C357.72 392.63 356.62 394.83 355.77 396.9C357.36 397.14 357.84 396.53 359.06 395.56C360.89 393.12 363.57 391.41 365.52 391.54C365.76 391.54 366.01 391.66 366.25 391.78C364.79 396.66 363.32 401.17 361.74 405.44L361.62 405.56C361.01 405.93 360.4 406.05 359.79 406.17C357.35 406.41 356.25 404.46 356.62 401.54C356.5 400.44 356.86 398.86 355.16 398.61C353.94 401.54 353.82 403.49 354.18 404.46C355.28 405.8 355.28 408.36 353.94 411.29C352.11 415.68 348.09 418.85 345.4 418C343.57 417.39 342.96 414.71 344.06 411.41C345.16 408 347.72 405.07 350.04 403.97C351.5 402.99 352.85 401.29 354.19 398.48C352.48 398.36 351.39 399.82 350.29 400.92C348.22 403.6 345.41 405.19 343.46 404.46C341.63 403.73 341.14 400.92 342.24 397.63C343.82 393.12 347.73 389.7 350.53 389.95C352.48 390.19 353.46 392.39 353.09 394.83C353.21 396.05 353.33 396.78 354.92 396.9C355.41 395.8 356.75 392.75 357.11 391.17C357.96 387.88 357.96 383.49 357.6 381.05C357.6 380.81 357.72 380.56 357.97 380.56C359.68 382.02 363.82 382.51 366.63 381.54C366.87 381.42 366.87 381.78 366.63 381.91C364.31 384.1 360.78 388.01 358.46 391.3L358.45 391.29Z" fill="#010101"/>
<path d="M339.42 330.31C339.05 331.16 338.57 332.14 338.2 332.99C336.01 337.62 334.05 342.26 332.22 346.65C330.39 351.16 328.68 355.43 327.22 359.7L312.83 351.41C312.83 351.41 320.51 340.31 313.2 330.8C313.44 330.68 313.69 330.43 313.93 330.31C314.05 330.19 314.05 330.07 314.17 329.94C320.39 329.09 329.05 329.45 334.41 329.82C337.46 330.06 339.41 330.31 339.41 330.31H339.42Z" fill="#F79637"/>
<path d="M320.89 379.7C317.23 376.9 304.79 367.38 303.08 365.68C302.47 366.17 301.86 366.78 301.37 367.27C305.15 349.95 291.13 333.37 288.81 330.69C278.69 330.93 262.71 330.81 249.18 330.57C246.37 372.64 266.25 443.62 273.45 464.96C274.91 465.2 276.38 465.45 277.72 465.81C277.84 465.81 278.09 465.93 278.21 465.93C279.92 466.3 281.38 466.78 282.97 467.39C283.09 467.51 283.09 467.63 283.21 467.76C294.06 462.52 307.72 453.61 313.45 449.71C312.11 435.44 312.23 411.54 320.89 379.71V379.7ZM288.33 385.19C287.23 387.14 285.65 389.09 283.57 390.19C285.89 386.29 286.5 382.14 288.94 377.87C291.5 374.09 294.92 370.68 299.43 369.21C296.5 372.75 293.58 375.79 291.5 379.58C290.28 381.29 289.55 383.24 288.33 385.19ZM298.45 409.7C295.52 403.11 293.94 395.92 294.06 388.48C294.3 381.29 296.62 373.48 302.35 368.72C298.81 374.94 297.11 381.65 297.11 388.6C296.74 395.55 297.96 402.5 298.45 409.7Z" fill="#EB3000"/>
<path d="M302.3 368.69C298.76 374.91 297.06 381.62 297.06 388.57C296.69 395.52 297.91 402.47 298.4 409.67C295.47 403.08 293.89 395.89 294.01 388.45C294.25 381.25 296.57 373.45 302.3 368.69Z" fill="#FF0049"/>
<path d="M283.52 390.15C285.84 386.25 286.45 382.1 288.89 377.83C291.45 374.05 294.87 370.63 299.38 369.17C296.45 372.71 293.53 375.75 291.45 379.54C290.23 381.25 289.5 383.2 288.28 385.15C287.18 387.1 285.6 389.05 283.52 390.15Z" fill="#FF0049"/>
<path d="M327.23 359.7C324.67 366.65 322.6 373.36 320.89 379.7C317.23 376.9 304.79 367.38 303.08 365.68V365.56C307.47 360.8 312.84 351.41 312.84 351.41L327.23 359.7Z" fill="#DA751B"/>
<path d="M302.3 368.69C298.76 374.91 297.06 381.62 297.06 388.57C296.69 395.52 297.91 402.47 298.4 409.67C295.47 403.08 293.89 395.89 294.01 388.45C294.25 381.25 296.57 373.45 302.3 368.69Z" fill="#010101"/>
<path d="M283.52 390.15C285.84 386.25 286.45 382.1 288.89 377.83C291.45 374.05 294.87 370.63 299.38 369.17C296.45 372.71 293.53 375.75 291.45 379.54C290.23 381.25 289.5 383.2 288.28 385.15C287.18 387.1 285.6 389.05 283.52 390.15Z" fill="#010101"/>
<path d="M220.84 455.03C227.18 454.66 235.6 443.57 238.28 440.52C248.4 443.57 256.21 460.15 259.13 466.86C259.37 467.47 259.62 467.96 259.74 468.32C259.74 468.44 259.74 468.69 259.86 468.81C260.23 473.81 252.79 478.69 248.28 481.13C247.3 477.47 245.72 475.4 241.45 474.54C240.84 473.57 240.11 472.59 239.38 471.61C237.79 469.41 235.72 467.1 233.65 465.02C229.14 460.51 224.26 456.61 220.85 455.02L220.84 455.03Z" fill="white"/>
<path d="M178.77 464.42C184.01 454.05 194.14 445.4 197.31 443.08C198.16 447.47 209.26 454.06 211.94 456.01C208.28 457.72 204.87 461.13 201.94 465.16C197.92 470.28 194.75 476.13 193.04 479.67C193.04 479.67 189.99 470.89 181.21 465.77C180.48 465.28 179.62 464.79 178.77 464.43V464.42Z" fill="white"/>
<path d="M230.64 473.6C227.71 473.97 225.27 475.43 222.59 476.53C217.35 479.21 212.59 482.02 208.32 485.8C213.81 484.21 218.81 481.53 223.81 479.34C228.69 476.54 233.57 474.71 239.3 474.22C236.62 473.37 233.57 473.12 230.64 473.61V473.6Z" fill="#FFDEB9"/>
<path d="M252.72 529.33H252.84C255.28 528.84 259.3 529.82 259.3 529.82C259.42 527.87 260.15 515.19 257.35 502.5C257.11 501.04 256.74 499.57 256.25 498.11C254.66 492.62 252.35 487.38 248.93 483.23C248.81 482.5 248.56 481.77 248.32 481.16C247.34 477.5 245.76 475.43 241.49 474.57C240.88 473.59 240.15 472.62 239.42 471.64C237.84 469.45 235.76 467.13 233.69 465.06C229.18 460.55 224.3 456.65 220.89 455.06C220.89 455.06 216.13 453.23 211.99 456.04C208.33 457.75 204.92 461.16 201.99 465.19C197.97 470.31 194.79 476.16 193.09 479.7C193.09 479.7 199.07 487.75 193.33 496.65C191.5 502.99 196.26 508.23 196.26 508.23C196.26 508.23 203.58 517.86 199.55 522.25C197.36 526.64 197.36 535.79 202.48 544.57C205.41 550.79 206.14 559.94 202.85 563.35C210.41 564.94 245.41 565.91 255.41 549.69C255.41 549.69 255.41 549.57 255.53 549.45C256.02 548.35 257.72 544.08 257.24 540.3V539.69C257.24 539.69 256.63 539.32 255.65 538.96C254.43 538.59 252.48 538.11 250.53 538.11C249.68 538.11 248.7 538.23 247.85 538.6C245.78 538.23 245.53 532.75 247.85 531.04C249.19 530.06 250.78 529.33 252.73 529.33H252.72ZM222.6 476.53C225.28 475.43 227.72 473.97 230.65 473.6C233.58 473.11 236.63 473.36 239.31 474.21C233.58 474.7 228.7 476.53 223.82 479.33C218.82 481.52 213.82 484.21 208.33 485.79C212.6 482.01 217.35 479.2 222.6 476.52V476.53Z" fill="#FFDEB9"/>
<path d="M208.28 485.76C212.55 481.98 217.3 479.17 222.55 476.49C225.23 475.39 227.67 473.93 230.6 473.56C233.53 473.07 236.58 473.32 239.26 474.17C233.53 474.66 228.65 476.49 223.77 479.29C218.77 481.48 213.77 484.17 208.28 485.75V485.76Z" fill="black"/>
<path d="M218.65 499.05C223.53 496.25 232.92 495.64 235.6 499.78C238.28 503.93 240.6 506.37 244.01 504.9C247.55 503.31 245.84 499.66 249.38 498.56C251.09 497.95 253.65 497.58 256.21 498.07C259.01 498.44 261.82 499.78 263.04 502.7V502.82C263.04 502.82 260.85 503.55 259.02 502.82C258.53 502.58 257.92 502.45 257.31 502.45C255.24 502.08 252.55 502.57 251.46 505.01C250.12 508.18 248.41 512.57 245.61 510.38C242.81 509.28 240.85 510.99 240.85 510.99C240.85 510.99 235.48 513.06 233.78 509.4C231.95 505.86 225.97 499.77 220.37 503.42C217.08 505.49 216.22 506.47 216.1 506.71C215.73 505.73 214.39 501.59 218.66 499.03L218.65 499.05Z" fill="black"/>
<path d="M242.64 494.93C246.54 495.31 247.76 498.07 246.54 500.08C246.54 500.08 242.76 498.84 237.64 500.08C235.69 497.6 238.74 494.65 242.64 494.93Z" fill="black"/>
<path d="M233.08 516.58C236.01 517.92 236.01 513.78 238.69 512.56C241.01 511.46 244.18 510.85 246.74 512.93C249.18 515.37 248.93 518.66 248.57 521.1C248.08 523.66 247.47 525.98 246.86 528.42C245.64 533.18 243.2 538.05 244.3 542.08C245.4 546.23 251.37 547.2 256.13 546.84C253.69 547.57 251.13 547.94 248.57 547.57C246.01 547.33 243.2 545.62 242.11 542.94C240.89 540.14 241.5 537.33 242.11 534.77L243.94 527.58C245.04 523.07 247.48 517.7 245.16 514.65C244.06 513.31 241.26 513.19 239.31 513.92C238.21 514.29 237.48 515.02 236.63 515.99C235.78 516.97 234.07 517.82 233.09 516.6L233.08 516.58Z" fill="black"/>
<path d="M211.74 542.39C215.03 545.07 218.45 545.56 221.98 544.34C225.64 543.61 229.18 541.78 233.08 540.32C230.64 543.73 226.98 546.05 222.84 547.27C220.65 547.76 218.33 548 216.13 547.03C213.94 546.3 212.35 544.35 211.74 542.4V542.39Z" fill="black"/>
<path d="M212.24 533.28C213.35 532.07 222.52 526.83 228.97 530.86C230.99 534.49 232.3 537.21 230.18 538.72C230.18 538.72 229.47 538.62 228.27 538.42H228.17C226.76 538.22 224.64 538.12 222.63 538.12C221.32 538.22 219.91 538.42 218.7 538.72C214.17 540.03 211.24 534.49 212.25 533.28H212.24Z" fill="#C7B299"/>
<path d="M221.61 535.7C221.61 533.58 223.42 531.77 225.54 531.77C227.66 531.77 229.47 533.58 229.47 535.7C229.47 536.81 229.07 537.72 228.26 538.42H228.16C226.75 538.22 224.63 538.12 222.62 538.12C221.91 537.41 221.61 536.61 221.61 535.7Z" fill="black"/>
<path d="M247.79 531C249.13 530.02 250.72 529.29 252.67 529.29H252.79C255.23 528.8 259.25 529.78 259.25 529.78C259.74 530.63 259.74 531.73 259.49 532.83C259 534.9 257.9 537.46 257.17 539.66C257.17 539.66 256.56 539.29 255.58 538.93C255.82 538.81 255.95 538.69 256.19 538.32C256.92 537.83 257.29 536.98 257.29 535.76V535.64C257.29 533.44 255.58 531.86 253.51 531.86H253.39C251.2 531.98 249.61 533.57 249.61 535.76C249.61 536.61 249.85 537.47 250.46 538.08C249.61 538.08 248.63 538.2 247.78 538.57C245.71 538.2 245.46 532.72 247.78 531.01L247.79 531Z" fill="#C7B299"/>
<path d="M249.62 535.76C249.62 533.57 251.21 531.98 253.4 531.86H253.52C255.59 531.86 257.3 533.45 257.3 535.64V535.76C257.3 536.98 256.93 537.83 256.2 538.32C255.96 538.69 255.83 538.81 255.59 538.93C254.37 538.56 252.42 538.08 250.47 538.08C249.86 537.47 249.62 536.62 249.62 535.76Z" fill="black"/>
<path d="M178.77 551.73C181.7 555.14 186.7 557.1 190.72 559.05C193.28 560.27 194.62 561 197.67 561.98C200.35 562.96 201.69 563.2 202.79 563.32C210.35 564.91 245.35 565.88 255.35 549.66C255.35 549.66 255.35 549.54 255.47 549.42C257.06 551.49 257.18 554.42 256.32 556.98C255.22 559.66 253.03 561.86 250.71 563.69C247.91 565.89 244.73 567.47 241.32 568.57C239.25 569.3 237.05 569.79 234.98 570.16C224 572.11 212.66 572.23 201.93 569.79C196.93 568.57 191.93 566.86 187.78 563.94C183.51 561.01 179.98 556.75 178.76 551.75L178.77 551.73Z" fill="#F1922D"/>
<path d="M158.04 466.12C161.94 462.71 168.65 462.22 174.75 463.44C175.97 463.56 177.07 463.81 178.04 464.17C178.28 464.29 178.53 464.29 178.77 464.41C179.62 464.78 180.48 465.26 181.21 465.75C189.99 470.87 193.04 479.65 193.04 479.65C193.04 479.65 199.02 487.7 193.28 496.6C191.45 502.94 196.21 508.19 196.21 508.19C196.21 508.19 203.53 517.82 199.5 522.21C197.3 526.6 197.3 535.75 202.43 544.53C205.36 550.75 206.09 559.89 202.8 563.31C201.7 563.19 200.36 562.94 197.68 561.97C194.63 560.99 193.29 560.26 190.73 559.04C186.71 557.09 181.71 555.14 178.78 551.72C178.78 551.72 178.54 542.21 175.49 536.23C174.39 533.79 172.69 532.08 170.37 531.72C162.44 530.74 166.47 517.7 166.47 517.7C166.47 517.7 169.64 500.75 162.81 498.8C155.98 496.97 155.98 489.17 154.64 475.75C154.15 471.24 155.62 468.07 158.06 466.12H158.04Z" fill="black"/>
<path d="M161.82 547.46C163.04 545.39 164.26 543.31 165.97 541.73C168.65 539.17 171.95 537.58 175.48 536.24C178.53 542.22 178.77 551.73 178.77 551.73C179.99 556.73 183.53 561 187.79 563.92C191.94 566.85 196.94 568.55 201.94 569.77C212.67 572.21 224.01 572.09 234.99 570.14C237.06 569.77 239.26 569.29 241.33 568.55C244.74 567.45 247.91 565.87 250.72 563.67C253.04 561.84 255.23 559.65 256.33 556.96C257.18 554.4 257.06 551.47 255.48 549.4C255.97 548.3 257.67 544.03 257.19 540.25V539.64C257.92 537.45 259.02 534.88 259.51 532.81C261.95 532.08 264.27 531.59 266.7 531.35H266.82C268.28 531.35 269.75 531.23 271.09 531.72C275.97 533.18 277.67 538.92 278.04 543.91C278.77 551.96 277.67 560.5 273.04 567.2C267.92 574.76 258.89 578.79 250.24 581.71C235.85 586.71 220.85 589.88 205.61 591.1C195.61 591.95 185.24 591.95 175.85 588.17C166.58 584.39 158.41 576.22 157.19 566.22C156.46 559.76 158.53 553.05 161.82 547.44V547.46Z" fill="#EB3000"/>
<path d="M259.87 468.81C259.75 468.69 259.75 468.44 259.75 468.32C259.63 467.95 259.38 467.47 259.14 466.86C260.36 465.89 261.7 465.03 263.16 464.67C264.38 464.3 265.72 464.3 267.06 464.3C269.13 464.3 271.33 464.54 273.4 464.91C274.86 465.15 276.33 465.4 277.67 465.76C277.79 465.76 278.04 465.88 278.16 465.88C279.87 466.25 281.33 466.73 282.92 467.34C283.04 467.46 283.04 467.58 283.16 467.71C284.87 470.88 285.84 474.78 284.99 478.32C284.14 481.98 280.84 485.27 277.06 485.27C276.33 485.27 275.47 485.27 275.11 485.76C274.87 486 274.74 486.37 274.74 486.74C274.5 489.18 275.35 491.62 275.96 494.06C276.57 496.5 276.57 499.3 274.98 501.13C273.52 502.84 270.96 503.32 269.37 505.03C267.91 506.49 267.66 508.69 267.66 510.76C267.78 512.71 268.15 514.78 268.03 516.86C267.79 520.03 266.32 522.96 266.32 526.13C266.32 527.84 266.93 529.67 266.81 531.37H266.69C264.25 531.61 261.93 532.1 259.5 532.83C259.74 531.73 259.74 530.64 259.26 529.78C259.38 527.83 260.11 515.15 257.31 502.46C257.92 502.46 258.53 502.58 259.02 502.83C260.85 503.56 263.04 502.83 263.04 502.83V502.71C261.82 499.78 259.02 498.44 256.21 498.08C254.62 492.59 252.31 487.35 248.89 483.2C248.77 482.47 248.52 481.74 248.28 481.13C252.79 478.69 260.23 473.81 259.86 468.81H259.87Z" fill="black"/>
<path d="M81.5399 501.97C81.0199 504.61 82.3697 507.35 84.7797 508.53C87.2997 509.77 90.1198 509.1 91.8598 507.26C92.8698 506.63 93.85 505.58 95.83 506.14C95.01 508.38 93.8201 509.46 92.4501 510.02C89.9401 510.37 87.7597 512.27 87.2997 515.04C86.8597 517.69 88.2999 520.38 90.7499 521.49C94.1099 523.01 97.9299 521.24 99.0199 517.84C99.7499 515.55 99.0501 513.15 97.4101 511.61C96.6901 510.63 96.3599 508.85 96.9999 506.53C99.0499 507.23 99.0401 508.61 99.4901 509.71C99.8401 512.22 101.74 514.39 104.51 514.86C107.16 515.3 109.85 513.86 110.96 511.41C112.48 508.05 110.72 504.23 107.31 503.14C105.02 502.41 102.34 503.26 100.79 504.89C99.6999 505.52 99.26 505.86 97.35 505.25C97.76 503.58 98.3799 501.84 98.9599 500.89C100.78 498.47 103.92 496 106.1 494.71C106.31 494.59 106.21 494.28 105.97 494.29C103 494.39 97.8897 492.75 95.5297 490.94C95.3397 490.79 95.0801 490.99 95.1801 491.21C96.2401 493.59 97.43 497.58 97.39 500.39C97.29 501.74 96.4999 504.07 96.2099 504.89C94.4199 504.38 94.0997 503.74 93.5697 502.58C93.2597 500.35 91.5799 498.1 89.2899 497.36C85.8899 496.27 82.2197 498.35 81.5097 501.97H81.5399Z" fill="black"/>
<path d="M273.45 464.94C271.38 464.57 269.18 464.33 267.11 464.33C265.77 464.33 264.43 464.33 263.21 464.7C261.75 465.07 260.41 465.92 259.19 466.9C256.26 460.19 248.46 443.61 238.34 440.56C235.66 443.61 227.24 454.71 220.9 455.07C220.9 455.07 216.14 453.24 212 456.05C209.32 454.1 198.22 447.51 197.37 443.12C194.2 445.44 184.08 454.09 178.83 464.46C178.59 464.34 178.34 464.34 178.1 464.22C177.12 463.85 176.03 463.61 174.81 463.49C173.59 450.69 169.93 395.81 175.18 330.32C176.64 330.08 179.94 329.95 184.45 329.83C184.69 330.07 184.82 330.2 184.82 330.2C184.82 330.2 212.75 330.44 224.09 330.2C224.09 330.2 235.43 330.44 249.21 330.57C246.4 372.64 266.28 443.62 273.48 464.96L273.45 464.94Z" fill="#534741"/>
<path d="M175.16 330.31C175.16 330.31 174.67 330.19 173.7 330.07L163.58 377.87C164.8 378.85 165.77 380.06 166.38 381.41C167.36 383.36 167.6 385.68 167.84 387.99C168.08 390.55 168.21 392.99 168.08 395.55C168.08 396.65 167.84 397.99 166.86 398.6C165.76 399.21 164.42 398.6 163.32 397.99C166 400.92 167.34 405.19 166.61 409.09C166.37 410.92 165.39 412.99 163.56 413.24C161.61 413.48 160.02 411.53 159.05 409.7C160.39 412.99 163.81 415.43 164.29 418.97C164.41 420.07 164.05 421.29 163.07 421.65C162.7 421.89 162.22 421.77 161.73 421.77C159.41 421.53 157.1 421.04 155.02 419.94C154.78 419.94 154.65 419.82 154.41 419.7C152.82 418.97 151.36 417.99 149.65 417.26C148.8 416.89 147.82 416.65 146.97 416.16C146.12 416.04 145.38 415.67 144.78 415.43C142.71 414.58 141.37 413.36 140.27 411.65C141.12 413.48 142.1 415.06 146.25 416.89C146.37 417.01 146.62 417.01 146.74 417.13L145.52 423.23C141.74 422.5 138.2 420.55 136.01 417.38C133.45 413.97 132.96 409.33 132.6 405.06C132.23 401.4 131.87 397.62 131.5 393.84C131.01 388.84 130.52 383.84 130.04 378.84C129.92 377.86 129.92 376.89 129.92 375.91C125.77 378.59 117.24 374.08 117.6 370.79C117.6 370.79 110.04 367.01 106.5 360.06C103.09 353.11 108.82 336.4 117.6 339.08C120.65 339.93 120.04 340.42 128.33 339.69C145.53 338.84 143.7 351.88 143.7 351.88C148.82 345.42 142.6 335.54 138.82 330.54H138.7C135.77 330.42 133.82 330.17 133.82 330.17C133.82 330.05 126.99 330.05 126.99 330.05C126.99 330.05 109.06 330.42 94.92 330.05C94.68 330.66 94.6799 331.27 94.7999 332.12C96.0199 337.73 93.8199 345.78 91.5099 353.83C89.1899 361.76 96.6302 376.76 102.85 384.68C109.19 392.61 115.9 404.8 127.12 430.29C130.66 438.34 135.29 445.05 140.05 450.41C142.49 453.21 144.93 455.78 147.37 457.85C151.76 461.75 155.66 464.56 158.1 466.14C162 462.73 168.71 462.24 174.81 463.46C173.59 450.66 169.93 395.78 175.18 330.29L175.16 330.31Z" fill="#EB3000"/>
<path d="M165.03 328.97L155.76 372.87C155.39 372.63 154.91 372.38 154.54 372.14C152.34 370.68 150.39 368.73 148.81 366.65C148.81 366.65 148.93 366.65 149.05 365.92V365.8C149.42 363.48 153.07 338.61 159.05 330.56C159.17 330.44 159.17 330.32 159.29 330.19C159.53 330.07 159.78 329.82 160.02 329.7C161.24 329.21 163.07 328.97 165.02 328.97H165.03Z" fill="black"/>
<path d="M140.23 411.61C141.33 413.32 142.67 414.54 144.74 415.39C145.35 415.63 146.08 416 146.94 416.12L146.7 417.1C146.58 416.98 146.33 416.98 146.21 416.86C142.06 415.03 141.09 413.45 140.23 411.62V411.61Z" fill="#FFDEB9"/>
<path d="M130.23 498.44L139.99 450.39L145.48 423.2L146.7 417.1L146.94 416.12C147.79 416.61 148.77 416.85 149.62 417.22C151.33 417.95 152.79 418.93 154.38 419.66C154.62 419.78 154.75 419.9 154.99 419.9L154.87 420.39L153.65 426.73L147.31 457.83L138.77 500.27C138.4 499.78 138.04 499.66 137.55 499.54L131.45 498.32C131.08 498.2 130.6 498.2 130.23 498.44Z" fill="black"/>
<path d="M173.69 330.07L163.57 377.87C161.37 375.92 158.45 374.58 155.76 372.87L165.03 328.97C168.2 329.09 171.74 329.58 173.69 330.07Z" fill="black"/>
<path d="M163.33 397.99C166.01 400.92 167.35 405.19 166.62 409.09C166.38 410.92 165.4 412.99 163.57 413.24C161.62 413.48 160.03 411.53 159.06 409.7C160.4 412.99 163.82 415.43 164.3 418.97C164.42 420.07 164.06 421.29 163.08 421.65C162.71 421.89 162.23 421.77 161.74 421.77C159.42 421.53 157.11 421.04 155.03 419.94C154.79 419.94 154.66 419.82 154.42 419.7C152.83 418.97 151.37 417.99 149.66 417.26C148.81 416.89 147.83 416.65 146.98 416.16C146.13 416.04 145.39 415.67 144.79 415.43C142.72 414.58 141.38 413.36 140.28 411.65C141.13 413.48 142.11 415.06 146.26 416.89C146.38 417.01 146.63 417.01 146.75 417.13L145.53 423.23C141.75 422.5 138.21 420.55 136.02 417.38C133.46 413.97 132.97 409.33 132.61 405.06C132.24 401.4 131.88 397.62 131.51 393.84C131.02 388.84 130.53 383.84 130.05 378.84C129.93 377.86 129.93 376.89 129.93 375.91C129.93 375.18 129.93 374.45 130.3 373.84C131.28 370.67 134.45 368.72 136.89 366.64C138.6 365.18 140.18 363.47 141.89 362.01C144.09 360.3 144.94 359.81 146.16 362.38C146.89 363.84 147.75 365.31 148.84 366.65C150.43 368.72 152.38 370.67 154.57 372.14C154.94 372.38 155.42 372.63 155.79 372.87C158.47 374.58 161.4 375.92 163.6 377.87C164.82 378.85 165.79 380.06 166.4 381.41C167.38 383.36 167.62 385.68 167.86 387.99C168.1 390.55 168.23 392.99 168.1 395.55C168.1 396.65 167.86 397.99 166.88 398.6C165.78 399.21 164.44 398.6 163.34 397.99H163.33Z" fill="#FFDEB9"/>
<path d="M160.48 429.29C161.09 429.17 161.82 429.05 162.19 428.44C162.43 428.2 162.56 427.71 162.56 427.22C162.56 426.37 162.44 425.39 162.32 424.54C162.2 423.69 161.95 422.83 161.34 422.35C160.85 421.98 160.24 421.98 159.63 421.98C158.78 421.86 157.92 421.74 157.19 421.37C156.58 421 155.6 420.4 154.87 420.4L153.65 426.74C155.6 428.33 158.04 429.42 160.48 429.3V429.29Z" fill="#FFDEB9"/>
<path d="M149.06 365.8V365.92C148.94 366.65 148.82 366.65 148.82 366.65C147.72 365.31 146.87 363.85 146.14 362.38C144.92 359.82 144.07 360.31 141.87 362.01C140.16 363.47 138.58 365.18 136.87 366.64C134.43 368.71 131.26 370.66 130.28 373.84C129.91 374.45 129.91 375.18 129.91 375.91C125.76 378.59 117.23 374.08 117.59 370.79C126 354.33 143.69 351.89 143.69 351.89C146.74 360.18 148.69 364.94 149.06 365.79V365.8Z" fill="white"/>
<path d="M117.55 339.05C120.6 339.9 119.99 340.39 128.28 339.66C145.47 338.81 143.65 351.86 143.65 351.86C143.65 351.86 125.97 354.3 117.55 370.76C117.55 370.76 109.99 366.98 106.45 360.03C103.04 353.08 108.77 336.37 117.55 339.05Z" fill="#F79637"/>
<path d="M103.91 354.6C103.91 350.97 100.22 348.47 96.8501 349.83C101.13 350.35 102.03 351.82 103.91 354.6Z" fill="black"/>
<path d="M176.6 397.63C177.33 403.93 182.34 409.11 188.61 410.03C195.17 410.99 201.02 407.47 203.6 402.08C205.4 399.93 206.86 396.87 211.71 396.7C211.49 402.32 209.59 405.61 206.91 407.85C201.52 410.43 198 416.28 198.96 422.84C199.88 429.11 205.06 434.12 211.35 434.85C219.98 435.85 227.31 429.13 227.31 420.69C227.31 415.02 223.99 410.14 219.2 407.84C216.88 406.14 214.86 402.4 214.63 396.73C219.73 396.83 220.71 399.93 222.51 402.07C225.09 407.45 230.94 410.97 237.5 410.02C243.77 409.11 248.78 403.93 249.52 397.63C250.52 388.99 243.8 381.67 235.37 381.67C229.7 381.67 224.29 385.51 222 390.3C220.02 392.5 219.26 393.57 214.54 393.58C214.26 389.55 214.4 385.18 215.01 382.64C217.36 375.89 222.63 368.08 226.6 363.61C226.98 363.19 226.53 362.57 226 362.76C219.4 365.12 206.75 365.12 200.14 362.76C199.6 362.57 199.16 363.19 199.54 363.61C203.63 368.19 209.19 376.3 211.12 382.63C211.86 385.74 211.78 391.54 211.72 393.59C207.33 393.73 206.15 392.52 204.13 390.29C201.83 385.5 196.42 381.66 190.76 381.66C182.33 381.66 175.61 388.98 176.6 397.62V397.63Z" fill="black"/>
<path d="M349.4 134.71L344.33 160.18C345.6 160.06 347.08 160.11 348.52 160.39C356.29 161.94 361.27 169.4 359.75 177.05C358.82 181.71 355.71 185.45 351.75 187.27C352.21 191.22 352.02 195.28 351.21 199.35C350 205.45 347.39 211.02 343.74 215.64C369.4 207.32 389.95 185.92 395.57 157.7C401.19 129.47 390.43 101.72 369.78 84.2998C371.58 90.2498 372.04 96.6898 370.75 103.15C370.06 106.62 368.91 109.87 367.46 112.81C371.29 116.06 373.37 121.2 372.3 126.58C370.78 134.23 363.32 139.21 355.66 137.69C353.27 137.21 351.11 136.16 349.42 134.71H349.4Z" fill="#BACBE4"/>
<path d="M325.1 133.73C324.84 136.91 324.44 140.19 323.79 143.42C323.1 146.89 322.17 150.31 321 153.68C319.81 157.17 318.28 160.47 316.66 163.63C322.28 162.88 327.64 160.97 332.35 157.93C332.9 158.29 333.57 158.67 334.12 159.03C334.02 158.89 334.07 158.65 334.1 158.53L339.03 133.77C338.62 133.94 338.24 133.99 337.86 134.03C334.6 129.15 330.22 124.92 324.98 121.89L324.96 122.01C325.32 125.81 325.4 129.81 325.11 133.73H325.1Z" fill="#BACBE4"/>
<path d="M336.42 114.97L343.24 116.33L340.24 131.4C340.65 131.23 341.17 131.09 341.65 131.18L347.75 132.39C348.11 132.46 348.56 132.68 348.76 132.96L351.74 118.01L358.68 119.39L357.08 98.06L355.6 76.75L345.95 95.84L336.42 114.96V114.97Z" fill="black"/>
<path d="M339.21 132.81L334.09 158.52C334.07 158.64 334.02 158.88 334.11 159.02C334.01 159.5 334.18 159.9 334.49 160.22C334.78 160.65 335.23 160.86 335.71 160.96L341.81 162.17C342.17 162.24 342.67 162.22 342.96 162.03C343.63 161.79 344.11 161.26 344.25 160.55L349.4 134.72C349.52 134.12 349.28 133.45 348.75 132.98C348.56 132.69 348.1 132.48 347.74 132.41L341.64 131.2C341.16 131.1 340.64 131.25 340.23 131.42C339.66 131.8 339.32 132.23 339.2 132.83L339.21 132.81Z" fill="#B3B3B3"/>
<path d="M155.16 221.65V222.14C155.16 227.63 154.67 233.36 153.94 239.21C153.82 240.43 153.7 241.53 153.45 242.62C153.21 244.69 152.84 246.77 152.47 248.96C151.98 251.89 151.37 254.94 150.76 257.86C148.08 270.18 144.66 282.25 141.13 292.86V292.98C135.76 309.32 130.4 322.25 128.08 327.49C127.35 329.2 126.98 330.05 126.98 330.05C126.98 330.05 109.05 330.42 94.9102 330.05C97.5902 305.78 101.98 285.54 106.98 268.71C107.22 268.83 107.47 268.95 107.71 268.95C109.66 269.07 112.34 267.36 114.17 264.93C115.39 263.95 115.88 263.34 117.46 263.59C116.61 265.66 115.51 267.86 114.78 269.2C112.46 272.49 108.93 276.39 106.61 278.59C106.37 278.71 106.37 279.08 106.61 278.96C109.41 277.98 113.56 278.47 115.27 279.94C115.51 279.94 115.64 279.7 115.64 279.45C115.27 277.01 115.27 272.62 116.13 269.33C116.5 267.74 117.84 264.7 118.32 263.6C119.91 263.72 120.03 264.45 120.15 265.67C119.78 268.11 120.76 270.3 122.71 270.55C125.51 270.79 129.42 267.38 131 262.87C132.1 259.58 131.61 256.77 129.78 256.04C127.83 255.31 125.02 256.89 122.95 259.58C121.85 260.68 120.76 262.14 119.05 262.02C120.39 259.22 121.73 257.51 123.2 256.53C125.52 255.43 128.08 252.51 129.18 249.09C130.28 245.8 129.67 243.11 127.84 242.51C125.16 241.66 121.13 244.83 119.3 249.22C117.96 252.15 117.96 254.71 119.06 256.05C119.43 257.03 119.3 258.98 118.09 261.9C116.38 261.66 116.75 260.07 116.63 258.97C117 256.04 115.9 254.09 113.46 254.34C112.85 254.46 112.24 254.58 111.63 254.95C128.58 208 150.53 193.98 150.53 193.98C151.38 195.93 152.12 198 152.6 200.08C153.09 201.54 153.45 203.01 153.58 204.59C154.68 209.83 155.17 215.57 155.17 221.66L155.16 221.65Z" fill="#F79637"/>
<path d="M131.01 262.87C129.42 267.38 125.52 270.8 122.72 270.55C120.77 270.31 119.79 268.11 120.16 265.67C120.04 264.45 119.92 263.72 118.33 263.6C117.84 264.7 116.5 267.75 116.14 269.33C115.29 272.62 115.29 277.01 115.65 279.45C115.65 279.69 115.53 279.94 115.28 279.94C113.57 278.48 109.43 277.99 106.62 278.96C106.38 279.08 106.38 278.72 106.62 278.59C108.94 276.39 112.47 272.49 114.79 269.2C115.52 267.86 116.62 265.66 117.47 263.59C115.89 263.35 115.4 263.96 114.18 264.93C112.35 267.37 109.67 269.08 107.72 268.95C107.48 268.95 107.23 268.83 106.99 268.71C108.45 263.83 109.92 259.32 111.5 255.05L111.62 254.93C112.23 254.56 112.84 254.44 113.45 254.32C115.89 254.08 116.99 256.03 116.62 258.95C116.74 260.05 116.38 261.63 118.08 261.88C119.3 258.95 119.42 257 119.05 256.03C117.95 254.69 117.95 252.13 119.29 249.2C121.12 244.81 125.14 241.64 127.83 242.49C129.66 243.1 130.27 245.78 129.17 249.07C128.07 252.48 125.51 255.41 123.19 256.51C121.73 257.49 120.39 259.19 119.04 262C120.75 262.12 121.85 260.66 122.94 259.56C125.01 256.88 127.82 255.29 129.77 256.02C131.6 256.75 132.09 259.56 130.99 262.85L131.01 262.87Z" fill="#00FF00"/>
<path d="M152.35 280.8C150.64 287.14 148.57 293.85 146.01 300.8C144.55 304.95 142.84 309.34 141.01 313.73C139.18 318.24 137.23 322.75 135.03 327.51C134.66 328.36 134.18 329.34 133.81 330.19C133.81 330.07 126.98 330.07 126.98 330.07C126.98 330.07 127.35 329.22 128.08 327.51C130.4 322.27 135.76 309.34 141.13 293V292.88C144.67 282.27 148.08 270.2 150.76 257.88C151.37 254.95 151.98 251.9 152.47 248.98C152.84 246.79 153.2 244.71 153.45 242.64C153.69 241.54 153.82 240.45 153.94 239.23C154.67 233.38 155.16 227.64 155.16 222.16V221.67C155.16 215.57 154.67 209.84 153.57 204.6C153.45 203.01 153.08 201.55 152.59 200.09C152.1 198.02 151.37 195.94 150.52 193.99C153.08 192.4 155.4 192.77 157.23 196.06C157.23 196.06 158.82 201.18 159.79 210.82C161.13 225.09 161.01 248.99 152.35 280.82V280.8Z" fill="#DA751B"/>
<path d="M131.01 262.87C129.42 267.38 125.52 270.8 122.72 270.55C120.77 270.31 119.79 268.11 120.16 265.67C120.04 264.45 119.92 263.72 118.33 263.6C117.84 264.7 116.5 267.75 116.14 269.33C115.29 272.62 115.29 277.01 115.65 279.45C115.65 279.69 115.53 279.94 115.28 279.94C113.57 278.48 109.43 277.99 106.62 278.96C106.38 279.08 106.38 278.72 106.62 278.59C108.94 276.39 112.47 272.49 114.79 269.2C115.52 267.86 116.62 265.66 117.47 263.59C115.89 263.35 115.4 263.96 114.18 264.93C112.35 267.37 109.67 269.08 107.72 268.95C107.48 268.95 107.23 268.83 106.99 268.71C108.45 263.83 109.92 259.32 111.5 255.05L111.62 254.93C112.23 254.56 112.84 254.44 113.45 254.32C115.89 254.08 116.99 256.03 116.62 258.95C116.74 260.05 116.38 261.63 118.08 261.88C119.3 258.95 119.42 257 119.05 256.03C117.95 254.69 117.95 252.13 119.29 249.2C121.12 244.81 125.14 241.64 127.83 242.49C129.66 243.1 130.27 245.78 129.17 249.07C128.07 252.48 125.51 255.41 123.19 256.51C121.73 257.49 120.39 259.19 119.04 262C120.75 262.12 121.85 260.66 122.94 259.56C125.01 256.88 127.82 255.29 129.77 256.02C131.6 256.75 132.09 259.56 130.99 262.85L131.01 262.87Z" fill="#010101"/>
<path d="M160.03 329.7C159.79 329.82 159.54 330.07 159.3 330.19C159.18 330.31 159.18 330.43 159.06 330.56C152.84 331.41 144.18 331.05 138.82 330.56H138.7C135.77 330.44 133.82 330.19 133.82 330.19C134.19 329.34 134.67 328.36 135.04 327.51C137.24 322.75 139.19 318.24 141.02 313.73C142.85 309.34 144.56 304.95 146.02 300.8L160.41 309.09C160.41 309.09 152.73 320.19 160.04 329.7H160.03Z" fill="#EB3000"/>
<path d="M199.79 195.56C198.33 195.32 196.86 195.07 195.52 194.71C195.4 194.71 195.15 194.59 195.03 194.59C193.32 194.22 191.86 193.74 190.27 193.13C190.15 193.01 190.15 192.89 190.03 192.76C179.18 198 165.52 206.91 159.79 210.81C161.13 225.08 161.01 248.98 152.35 280.81C156.01 283.61 168.45 293.13 170.15 294.83V294.95C170.76 294.34 171.37 293.73 171.86 293.24C168.08 310.56 182.1 327.14 184.42 329.82C184.66 330.06 184.79 330.19 184.79 330.19C184.79 330.19 212.72 330.43 224.06 330.19V329.95C226.86 287.88 206.99 216.9 199.79 195.56ZM170.89 291.78C174.43 285.56 176.13 278.85 176.13 271.9C176.5 264.95 175.28 258 174.79 250.8C177.72 257.38 179.3 264.58 179.18 272.02C178.94 279.22 176.62 287.02 170.89 291.78ZM184.3 282.63C181.74 286.41 178.32 289.83 173.81 291.29C176.74 287.75 179.66 284.71 181.74 280.92C182.96 279.21 183.69 277.26 184.91 275.31C186.01 273.36 187.59 271.41 189.67 270.31C187.35 274.21 186.74 278.36 184.3 282.63Z" fill="#EB3000"/>
<path d="M170.89 291.77C174.43 285.55 176.13 278.84 176.13 271.89C176.5 264.94 175.28 257.99 174.79 250.79C177.72 257.37 179.3 264.57 179.18 272.01C178.94 279.21 176.62 287.01 170.89 291.77Z" fill="#FF0049"/>
<path d="M189.67 270.31C187.35 274.21 186.74 278.36 184.3 282.63C181.74 286.41 178.32 289.83 173.81 291.29C176.74 287.75 179.66 284.71 181.74 280.92C182.96 279.21 183.69 277.26 184.91 275.31C186.01 273.36 187.59 271.41 189.67 270.31Z" fill="#FF0049"/>
<path d="M170.16 294.82V294.94C165.77 299.7 160.4 309.09 160.4 309.09L146.01 300.8C148.57 293.85 150.64 287.14 152.35 280.8C156.01 283.6 168.45 293.12 170.15 294.82H170.16Z" fill="#DA751B"/>
<path d="M170.89 291.77C174.43 285.55 176.13 278.84 176.13 271.89C176.5 264.94 175.28 257.99 174.79 250.79C177.72 257.37 179.3 264.57 179.18 272.01C178.94 279.21 176.62 287.01 170.89 291.77Z" fill="#010101"/>
<path d="M189.67 270.31C187.35 274.21 186.74 278.36 184.3 282.63C181.74 286.41 178.32 289.83 173.81 291.29C176.74 287.75 179.66 284.71 181.74 280.92C182.96 279.21 183.69 277.26 184.91 275.31C186.01 273.36 187.59 271.41 189.67 270.31Z" fill="#010101"/>
<path d="M252.35 205.43C246.01 205.8 237.59 216.89 234.91 219.94C224.79 216.89 216.98 200.31 214.06 193.6C213.82 192.99 213.57 192.5 213.45 192.14C213.45 192.02 213.45 191.77 213.33 191.65C212.96 186.65 220.4 181.77 224.91 179.33C225.89 182.99 227.47 185.06 231.74 185.91C232.35 186.89 233.08 187.86 233.81 188.84C235.4 191.04 237.47 193.35 239.54 195.43C244.05 199.94 248.93 203.84 252.34 205.43H252.35Z" fill="white"/>
<path d="M294.42 196.04C289.18 206.41 279.05 215.06 275.88 217.38C275.03 212.99 263.93 206.4 261.25 204.45C264.91 202.74 268.32 199.33 271.25 195.3C275.27 190.18 278.44 184.32 280.15 180.79C280.15 180.79 283.2 189.57 291.98 194.69C292.71 195.18 293.57 195.67 294.42 196.03V196.04Z" fill="white"/>
<path d="M249.42 181.17C244.54 183.98 239.66 185.8 233.93 186.29C236.61 187.14 239.66 187.39 242.59 186.9C245.52 186.53 247.96 185.07 250.64 183.97C255.88 181.29 260.64 178.48 264.91 174.7C259.42 176.29 254.42 178.97 249.42 181.16V181.17Z" fill="#FFDEB9"/>
<path d="M279.91 163.85C281.74 157.51 276.98 152.26 276.98 152.26C276.98 152.26 269.66 142.63 273.69 138.24C275.89 133.85 275.89 124.7 270.76 115.92C267.83 109.7 267.1 100.55 270.39 97.14C262.83 95.55 227.83 94.5799 217.83 110.8C217.83 110.8 217.83 110.92 217.71 111.04C217.22 112.14 215.52 116.41 216 120.19V120.8C216 120.8 216.61 121.17 217.59 121.53C218.81 121.9 220.76 122.38 222.71 122.38C223.56 122.38 224.54 122.26 225.39 121.89C227.46 122.26 227.71 127.74 225.39 129.45C224.05 130.43 222.46 131.16 220.51 131.16H220.39C217.95 131.65 213.93 130.67 213.93 130.67C213.81 132.62 213.08 145.3 215.88 157.99C216.12 159.45 216.49 160.92 216.98 162.38C218.57 167.87 220.88 173.11 224.3 177.26C224.42 177.99 224.67 178.72 224.91 179.33C225.89 182.99 227.47 185.06 231.74 185.91C232.35 186.89 233.08 187.86 233.81 188.84C235.4 191.04 237.47 193.35 239.54 195.43C244.05 199.94 248.93 203.84 252.34 205.43C252.34 205.43 257.1 207.26 261.24 204.45C264.9 202.74 268.31 199.33 271.24 195.3C275.26 190.18 278.43 184.32 280.14 180.79C280.14 180.79 274.16 172.74 279.9 163.84L279.91 163.85ZM250.64 183.97C247.96 185.07 245.52 186.53 242.59 186.9C239.66 187.39 236.61 187.14 233.93 186.29C239.66 185.8 244.54 183.97 249.42 181.17C254.42 178.98 259.42 176.29 264.91 174.71C260.64 178.49 255.89 181.29 250.64 183.98V183.97Z" fill="#FFDEB9"/>
<path d="M264.95 174.72C260.68 178.5 255.93 181.31 250.68 183.99C248 185.09 245.56 186.55 242.63 186.92C239.7 187.41 236.65 187.16 233.97 186.31C239.7 185.82 244.58 183.99 249.46 181.19C254.46 179 259.46 176.31 264.95 174.73V174.72Z" fill="black"/>
<path d="M254.58 161.42C249.7 164.22 240.31 164.83 237.63 160.69C234.95 156.54 232.63 154.1 229.22 155.57C225.68 157.16 227.39 160.81 223.85 161.91C222.14 162.52 219.58 162.89 217.02 162.4C214.22 162.03 211.41 160.69 210.19 157.77V157.65C210.19 157.65 212.38 156.92 214.21 157.65C214.7 157.89 215.31 158.02 215.92 158.02C217.99 158.39 220.68 157.9 221.77 155.46C223.11 152.29 224.82 147.9 227.62 150.09C230.42 151.19 232.38 149.48 232.38 149.48C232.38 149.48 237.75 147.41 239.45 151.07C241.28 154.61 247.26 160.7 252.86 157.05C256.15 154.98 257.01 154 257.13 153.76C257.5 154.74 258.84 158.88 254.57 161.44L254.58 161.42Z" fill="black"/>
<path d="M230.59 165.54C226.69 165.16 225.47 162.4 226.69 160.39C226.69 160.39 230.47 161.63 235.59 160.39C237.54 162.87 234.49 165.82 230.59 165.54Z" fill="black"/>
<path d="M240.15 143.89C237.22 142.55 237.22 146.69 234.54 147.91C232.22 149.01 229.05 149.62 226.49 147.54C224.05 145.1 224.3 141.81 224.66 139.37C225.15 136.81 225.76 134.49 226.37 132.05C227.59 127.29 230.03 122.42 228.93 118.39C227.83 114.24 221.86 113.27 217.1 113.63C219.54 112.9 222.1 112.53 224.66 112.9C227.22 113.14 230.03 114.85 231.12 117.53C232.34 120.33 231.73 123.14 231.12 125.7L229.29 132.89C228.19 137.4 225.75 142.77 228.07 145.82C229.17 147.16 231.97 147.28 233.92 146.55C235.02 146.18 235.75 145.45 236.6 144.48C237.45 143.5 239.16 142.65 240.14 143.87L240.15 143.89Z" fill="black"/>
<path d="M261.49 118.08C258.2 115.4 254.78 114.91 251.25 116.13C247.59 116.86 244.05 118.69 240.15 120.15C242.59 116.74 246.25 114.42 250.39 113.2C252.58 112.71 254.9 112.47 257.1 113.44C259.29 114.17 260.88 116.12 261.49 118.07V118.08Z" fill="black"/>
<path d="M261 127.19C259.89 128.4 250.72 133.64 244.27 129.61C242.25 125.98 240.94 123.26 243.06 121.75C243.06 121.75 243.77 121.85 244.97 122.05H245.07C246.48 122.25 248.6 122.35 250.61 122.35C251.92 122.25 253.33 122.05 254.54 121.75C259.08 120.44 262 125.98 260.99 127.19H261Z" fill="#C7B299"/>
<path d="M251.62 124.77C251.62 126.89 249.81 128.7 247.69 128.7C245.57 128.7 243.76 126.89 243.76 124.77C243.76 123.66 244.16 122.75 244.97 122.05H245.07C246.48 122.25 248.6 122.35 250.61 122.35C251.32 123.06 251.62 123.86 251.62 124.77Z" fill="black"/>
<path d="M225.44 129.47C224.1 130.44 222.51 131.18 220.56 131.18H220.44C218 131.67 213.98 130.69 213.98 130.69C213.49 129.84 213.49 128.74 213.74 127.64C214.23 125.57 215.33 123.01 216.06 120.81C216.06 120.81 216.67 121.18 217.65 121.54C217.41 121.66 217.28 121.78 217.04 122.15C216.31 122.64 215.94 123.49 215.94 124.71V124.83C215.94 127.02 217.65 128.61 219.72 128.61H219.84C222.04 128.49 223.62 126.9 223.62 124.71C223.62 123.86 223.38 123 222.77 122.39C223.62 122.39 224.6 122.27 225.45 121.9C227.52 122.27 227.77 127.75 225.45 129.46L225.44 129.47Z" fill="#C7B299"/>
<path d="M223.61 124.72C223.61 126.91 222.02 128.5 219.83 128.62H219.71C217.64 128.62 215.93 127.03 215.93 124.84V124.72C215.93 123.5 216.3 122.65 217.03 122.16C217.27 121.79 217.4 121.67 217.64 121.55C218.86 121.92 220.81 122.4 222.76 122.4C223.37 123.01 223.61 123.86 223.61 124.72Z" fill="black"/>
<path d="M294.46 108.74C291.53 105.33 286.53 103.37 282.51 101.42C279.95 100.2 278.61 99.4702 275.56 98.4902C272.88 97.5102 271.54 97.2703 270.44 97.1503C262.88 95.5603 227.88 94.5902 217.88 110.81C217.88 110.81 217.88 110.93 217.76 111.05C216.17 108.98 216.05 106.05 216.91 103.49C218.01 100.81 220.2 98.6103 222.52 96.7803C225.32 94.5803 228.5 93.0003 231.91 91.9003C233.98 91.1703 236.18 90.6802 238.25 90.3102C249.23 88.3602 260.57 88.2402 271.3 90.6802C276.3 91.9002 281.3 93.6103 285.45 96.5303C289.72 99.4603 293.25 103.72 294.47 108.73L294.46 108.74Z" fill="#F1922D"/>
<path d="M315.15 194.34C311.25 197.75 304.54 198.24 298.44 197.02C297.22 196.9 296.12 196.65 295.15 196.29C294.91 196.17 294.66 196.17 294.42 196.05C293.57 195.68 292.71 195.2 291.98 194.71C283.2 189.59 280.15 180.81 280.15 180.81C280.15 180.81 274.17 172.76 279.91 163.86C281.74 157.52 276.98 152.27 276.98 152.27C276.98 152.27 269.66 142.64 273.69 138.25C275.89 133.86 275.89 124.71 270.76 115.93C267.83 109.71 267.1 100.56 270.39 97.1499C271.49 97.2699 272.83 97.5199 275.51 98.4899C278.56 99.4699 279.9 100.2 282.46 101.42C286.48 103.37 291.48 105.32 294.41 108.74C294.41 108.74 294.65 118.25 297.7 124.23C298.8 126.67 300.5 128.38 302.82 128.74C310.75 129.72 306.72 142.76 306.72 142.76C306.72 142.76 303.55 159.71 310.38 161.66C317.21 163.49 317.21 171.29 318.55 184.71C319.04 189.22 317.57 192.39 315.14 194.34H315.15Z" fill="black"/>
<path d="M311.41 113.01C310.19 115.08 308.97 117.16 307.26 118.74C304.58 121.3 301.28 122.89 297.75 124.23C294.7 118.25 294.46 108.74 294.46 108.74C293.24 103.74 289.7 99.4702 285.44 96.5402C281.29 93.6102 276.29 91.9103 271.29 90.6903C260.56 88.2503 249.22 88.3703 238.24 90.3203C236.17 90.6903 233.97 91.1702 231.9 91.9102C228.49 93.0102 225.31 94.5902 222.51 96.7902C220.19 98.6202 218 100.81 216.9 103.5C216.05 106.06 216.17 108.99 217.75 111.06C217.26 112.16 215.55 116.43 216.04 120.21V120.82C215.31 123.01 214.21 125.58 213.72 127.65C211.28 128.38 208.96 128.87 206.53 129.11H206.41C204.95 129.11 203.48 129.23 202.14 128.74C197.26 127.28 195.56 121.54 195.19 116.55C194.46 108.5 195.56 99.9603 200.19 93.2603C205.31 85.7003 214.34 81.6703 222.99 78.7503C237.38 73.7503 252.38 70.5803 267.62 69.3603C277.62 68.5103 287.99 68.5102 297.38 72.2902C306.65 76.0702 314.82 84.2403 316.04 94.2403C316.77 100.7 314.7 107.41 311.41 113.02V113.01Z" fill="#EB3000"/>
<path d="M213.33 191.65C213.45 191.77 213.45 192.02 213.45 192.14C213.57 192.51 213.82 192.99 214.06 193.6C212.84 194.58 211.5 195.43 210.04 195.79C208.82 196.16 207.48 196.16 206.14 196.16C204.07 196.16 201.87 195.92 199.8 195.55C198.34 195.31 196.87 195.06 195.53 194.7C195.41 194.7 195.16 194.58 195.04 194.58C193.33 194.21 191.87 193.73 190.28 193.12C190.16 193 190.16 192.88 190.04 192.75C188.33 189.58 187.36 185.68 188.21 182.14C189.06 178.48 192.36 175.19 196.14 175.19C196.87 175.19 197.73 175.19 198.09 174.7C198.33 174.46 198.46 174.09 198.46 173.72C198.7 171.28 197.85 168.84 197.24 166.4C196.63 163.96 196.63 161.16 198.22 159.33C199.68 157.62 202.24 157.14 203.83 155.43C205.29 153.97 205.54 151.77 205.54 149.7C205.42 147.75 205.05 145.68 205.17 143.6C205.41 140.43 206.88 137.5 206.88 134.33C206.88 132.62 206.27 130.79 206.39 129.09H206.51C208.95 128.85 211.27 128.36 213.7 127.63C213.46 128.73 213.46 129.83 213.94 130.68C213.82 132.63 213.09 145.31 215.89 158C215.28 158 214.67 157.88 214.18 157.63C212.35 156.9 210.16 157.63 210.16 157.63V157.75C211.38 160.68 214.18 162.02 216.99 162.38C218.58 167.87 220.89 173.11 224.31 177.26C224.43 177.99 224.68 178.72 224.92 179.33C220.41 181.77 212.97 186.65 213.34 191.65H213.33Z" fill="black"/>
<path d="M391.69 158.5C392.21 155.86 390.86 153.12 388.45 151.94C385.93 150.7 383.11 151.37 381.37 153.21C380.36 153.84 379.38 154.89 377.4 154.33C378.22 152.09 379.41 151.01 380.78 150.45C383.29 150.1 385.47 148.2 385.93 145.43C386.37 142.78 384.93 140.09 382.48 138.98C379.12 137.46 375.3 139.22 374.21 142.63C373.48 144.92 374.18 147.32 375.82 148.86C376.54 149.84 376.87 151.62 376.23 153.94C374.18 153.24 374.19 151.86 373.74 150.76C373.39 148.25 371.49 146.08 368.72 145.61C366.07 145.17 363.38 146.61 362.27 149.06C360.75 152.42 362.51 156.24 365.92 157.33C368.21 158.06 370.89 157.21 372.44 155.58C373.52 154.95 373.97 154.61 375.88 155.22C375.47 156.89 374.85 158.63 374.27 159.58C372.45 162 369.31 164.47 367.13 165.76C366.92 165.88 367.02 166.19 367.26 166.18C370.23 166.08 375.34 167.72 377.7 169.53C377.89 169.68 378.15 169.48 378.05 169.26C376.99 166.88 375.8 162.89 375.84 160.08C375.94 158.73 376.73 156.4 377.02 155.58C378.81 156.09 379.13 156.73 379.66 157.89C379.97 160.12 381.65 162.37 383.94 163.11C387.34 164.2 391.01 162.12 391.72 158.5H391.69Z" fill="black"/>
<path d="M298.45 197.02C297.23 196.9 296.13 196.65 295.16 196.29C294.92 196.17 294.67 196.17 294.43 196.05C289.19 206.42 279.06 215.07 275.89 217.39C275.04 213 263.94 206.41 261.26 204.46C257.11 207.26 252.36 205.44 252.36 205.44C246.02 205.81 237.6 216.9 234.92 219.95C224.8 216.9 216.99 200.32 214.07 193.61C212.85 194.59 211.51 195.44 210.05 195.8C208.83 196.17 207.49 196.17 206.15 196.17C204.08 196.17 201.88 195.93 199.81 195.56C207.01 216.9 226.88 287.88 224.08 329.95V330.19C224.08 330.19 235.42 330.43 249.2 330.56C262.74 330.8 278.71 330.93 288.83 330.68C293.34 330.56 296.63 330.44 298.1 330.19C303.34 264.7 299.69 209.83 298.47 197.02H298.45ZM282.47 278.85C276.86 278.85 271.37 274.95 269.06 270.19C267.11 268 265.89 266.78 261.5 266.9C261.5 268.97 261.38 274.7 262.11 277.88C264.06 284.22 269.55 292.27 273.69 296.9C274.06 297.27 273.69 297.88 273.08 297.75C266.49 295.31 253.81 295.31 247.23 297.75C246.74 297.87 246.25 297.26 246.62 296.9C250.64 292.39 255.89 284.58 258.21 277.88C258.82 275.32 258.94 270.93 258.7 266.9C253.94 266.9 253.21 268 251.26 270.19C248.94 274.95 243.58 278.85 237.85 278.85C229.44 278.85 222.73 271.53 223.7 262.87C224.43 256.53 229.43 251.41 235.77 250.43C242.23 249.45 248.09 252.99 250.77 258.36C252.48 260.55 253.45 263.6 258.57 263.73C258.33 258.12 256.38 254.34 254.06 252.63C249.18 250.31 245.89 245.43 245.89 239.82C245.89 231.28 253.21 224.58 261.87 225.67C268.21 226.4 273.33 231.4 274.31 237.62C275.29 244.21 271.75 250.06 266.38 252.62C263.7 254.81 261.75 258.11 261.5 263.72C266.38 263.6 267.84 260.55 269.67 258.35C272.23 252.98 278.08 249.45 284.67 250.42C290.89 251.4 295.89 256.52 296.62 262.86C297.6 271.52 290.89 278.84 282.47 278.84V278.85Z" fill="#534741"/>
<path d="M282.47 278.85C276.86 278.85 271.37 274.95 269.06 270.19C267.11 268 265.89 266.78 261.5 266.9C261.5 268.97 261.38 274.7 262.11 277.88C264.06 284.22 269.55 292.27 273.69 296.9C274.06 297.27 273.69 297.88 273.08 297.75C266.49 295.31 253.81 295.31 247.23 297.75C246.74 297.87 246.25 297.26 246.62 296.9C250.64 292.39 255.89 284.58 258.21 277.88C258.82 275.32 258.94 270.93 258.7 266.9C253.94 266.9 253.21 268 251.26 270.19C248.94 274.95 243.58 278.85 237.85 278.85C229.44 278.85 222.73 271.53 223.7 262.87C224.43 256.53 229.43 251.41 235.77 250.43C242.23 249.45 248.09 252.99 250.77 258.36C252.48 260.55 253.45 263.6 258.57 263.73C258.33 258.12 256.38 254.34 254.06 252.63C249.18 250.31 245.89 245.43 245.89 239.82C245.89 231.28 253.21 224.58 261.87 225.67C268.21 226.4 273.33 231.4 274.31 237.62C275.29 244.21 271.75 250.06 266.38 252.62C263.7 254.81 261.75 258.11 261.5 263.72C266.38 263.6 267.84 260.55 269.67 258.35C272.23 252.98 278.08 249.45 284.67 250.42C290.89 251.4 295.89 256.52 296.62 262.86C297.6 271.52 290.89 278.84 282.47 278.84V278.85Z" fill="#534741"/>
<path d="M370.4 275.8C364.06 267.87 357.35 255.68 346.13 230.19C342.59 222.14 337.96 215.43 333.2 210.07C330.76 207.26 328.32 204.7 325.88 202.63L319.54 233.73C317.59 232.15 315.15 231.05 312.71 231.17C312.1 231.29 311.37 231.41 311 232.02C310.76 232.26 310.63 232.75 310.63 233.24C310.63 234.09 310.75 235.07 310.87 235.92C310.99 236.77 311.24 237.63 311.85 238.11C312.34 238.48 312.95 238.48 313.56 238.48C314.41 238.6 315.27 238.72 316 239.09C316.61 239.46 317.59 240.07 318.32 240.07L318.2 240.56C318.44 240.56 318.57 240.68 318.81 240.8C320.4 241.53 321.86 242.51 323.57 243.24C324.42 243.61 325.4 243.85 326.25 244.34C327.1 244.46 327.83 244.83 328.45 245.07C330.52 245.92 331.86 247.14 332.96 248.85C332.11 247.02 331.13 245.44 326.98 243.61C326.86 243.49 326.61 243.49 326.49 243.37L327.71 237.27C331.49 238 335.03 239.95 337.22 243.12C339.78 246.54 340.27 251.17 340.63 255.44C341 259.1 341.36 262.88 341.73 266.66C342.22 271.66 342.71 276.66 343.19 281.66C343.31 282.64 343.31 283.61 343.31 284.59C347.46 281.91 355.99 286.42 355.63 289.71C355.63 289.71 363.19 293.49 366.73 300.44C370.15 307.39 364.41 324.1 355.63 321.41C352.58 320.56 353.19 320.07 344.9 320.8C327.71 321.65 329.53 308.61 329.53 308.61C324.41 314.95 330.51 324.83 334.41 329.83C337.46 330.07 339.41 330.32 339.41 330.32C339.41 330.44 346.24 330.44 346.24 330.44C346.24 330.44 364.17 330.07 378.31 330.44C378.55 329.83 378.55 329.22 378.43 328.37C377.21 322.76 379.41 314.71 381.72 306.66C384.04 298.73 376.6 283.73 370.38 275.81L370.4 275.8ZM308.57 330.8H308.69L317.47 287.63L308.57 330.8Z" fill="#EB3000"/>
<path d="M324.42 293.85C324.42 293.85 324.3 293.85 324.18 294.58V294.7C323.81 297.02 320.16 321.9 314.18 329.94C314.06 330.06 314.06 330.18 313.94 330.31C313.7 330.43 313.45 330.68 313.21 330.8C311.99 331.29 310.28 331.53 308.33 331.53L308.57 330.8H308.69L317.47 287.63C317.84 287.87 318.32 288.12 318.69 288.36C320.89 289.82 322.84 291.77 324.42 293.85Z" fill="#F79637"/>
<path d="M309.67 282.63L299.79 330.56C298.69 330.32 298.08 330.19 298.08 330.19C303.32 264.7 299.67 209.83 298.45 197.02C304.55 198.24 311.25 197.75 315.16 194.34C317.6 195.93 321.5 198.73 325.89 202.63L319.55 233.73C317.6 232.15 315.16 231.05 312.72 231.17C312.11 231.29 311.38 231.41 311.01 232.02C310.77 232.26 310.64 232.75 310.64 233.24C310.64 234.09 310.76 235.07 310.88 235.92C311 236.77 311.25 237.63 311.86 238.11C312.35 238.48 312.96 238.48 313.57 238.48C314.42 238.6 315.28 238.72 316.01 239.09C316.62 239.46 317.6 240.07 318.33 240.07L318.21 240.56C316.14 239.46 313.82 238.97 311.5 238.73C311.01 238.73 310.52 238.61 310.16 238.85C309.18 239.22 308.82 240.44 308.94 241.53C309.43 245.07 312.84 247.51 314.18 250.8C313.2 248.97 311.62 247.02 309.67 247.26C307.84 247.5 306.87 249.58 306.62 251.41C305.89 255.31 307.23 259.58 309.91 262.51C308.81 261.9 307.47 261.29 306.37 261.9C305.39 262.51 305.15 263.85 305.15 264.95C305.03 267.51 305.15 269.95 305.39 272.51C305.63 274.83 305.88 277.14 306.85 279.09C307.46 280.43 308.44 281.65 309.65 282.63H309.67Z" fill="#EB3000"/>
<path d="M333 248.86C331.9 247.15 330.56 245.93 328.49 245.08C327.88 244.84 327.15 244.47 326.29 244.35L326.53 243.37C326.65 243.49 326.9 243.49 327.02 243.61C331.17 245.44 332.14 247.02 333 248.85V248.86Z" fill="#FFDEB9"/>
<path d="M342.96 162.02L333.2 210.07L327.71 237.26L326.49 243.36L326.25 244.34C325.4 243.85 324.42 243.61 323.57 243.24C321.86 242.51 320.4 241.53 318.81 240.8C318.57 240.68 318.44 240.56 318.2 240.56L318.32 240.07L319.54 233.73L325.88 202.63L334.42 160.19H334.54C334.66 160.43 334.78 160.56 335.03 160.68C335.15 160.8 335.27 160.8 335.52 160.92H335.64L341.74 162.14C342.11 162.26 342.59 162.26 342.96 162.02Z" fill="black"/>
<path d="M317.47 287.63L308.57 330.8L308.33 331.53C305.28 331.53 301.75 330.92 299.79 330.55L309.67 282.62C311.87 284.57 314.79 285.91 317.48 287.62L317.47 287.63Z" fill="black"/>
<path d="M343.32 284.58C343.32 285.31 343.32 286.04 342.95 286.65C341.97 289.82 338.8 291.77 336.36 293.85C334.65 295.31 333.07 297.02 331.36 298.48C329.16 300.19 328.31 300.68 327.09 298.11C326.36 296.65 325.5 295.18 324.41 293.84C322.82 291.77 320.87 289.82 318.68 288.35C318.31 288.11 317.83 287.86 317.46 287.62C314.78 285.91 311.85 284.57 309.65 282.62C308.43 281.64 307.46 280.43 306.85 279.08C305.87 277.13 305.63 274.81 305.39 272.5C305.15 269.94 305.02 267.5 305.15 264.94C305.15 263.84 305.39 262.5 306.37 261.89C307.47 261.28 308.81 261.89 309.91 262.5C307.23 259.57 305.89 255.3 306.62 251.4C306.86 249.57 307.84 247.5 309.67 247.25C311.62 247.01 313.21 248.96 314.18 250.79C312.84 247.5 309.42 245.06 308.94 241.52C308.82 240.42 309.18 239.2 310.16 238.84C310.53 238.6 311.01 238.72 311.5 238.72C313.82 238.96 316.13 239.45 318.21 240.55C318.45 240.55 318.58 240.67 318.82 240.79C320.41 241.52 321.87 242.5 323.58 243.23C324.43 243.6 325.41 243.84 326.26 244.33C327.11 244.45 327.84 244.82 328.46 245.06C330.53 245.91 331.87 247.13 332.97 248.84C332.12 247.01 331.14 245.43 326.99 243.6C326.87 243.48 326.62 243.48 326.5 243.36L327.72 237.26C331.5 237.99 335.04 239.94 337.23 243.11C339.79 246.53 340.28 251.16 340.64 255.43C341.01 259.09 341.37 262.87 341.74 266.65C342.23 271.65 342.72 276.65 343.2 281.65C343.32 282.63 343.32 283.6 343.32 284.58Z" fill="#FFDEB9"/>
<path d="M319.54 233.73L318.32 240.07C317.59 240.07 316.61 239.46 316 239.09C315.27 238.72 314.41 238.6 313.56 238.48C312.95 238.48 312.34 238.48 311.85 238.11C311.24 237.62 311 236.77 310.87 235.92C310.75 235.07 310.63 234.09 310.63 233.24C310.63 232.75 310.75 232.26 311 232.02C311.37 231.41 312.1 231.29 312.71 231.17C315.15 231.05 317.59 232.15 319.54 233.73Z" fill="#FFDEB9"/>
<path d="M355.64 289.7C347.23 306.16 329.54 308.6 329.54 308.6C326.49 300.31 324.54 295.55 324.17 294.7V294.58C324.29 293.85 324.41 293.85 324.41 293.85C325.51 295.19 326.36 296.65 327.09 298.12C328.31 300.68 329.16 300.19 331.36 298.49C333.07 297.03 334.65 295.32 336.36 293.86C338.8 291.79 341.97 289.84 342.95 286.66C343.32 286.05 343.32 285.32 343.32 284.59C347.47 281.91 356 286.42 355.64 289.71V289.7Z" fill="white"/>
<path d="M355.68 321.42C352.63 320.57 353.24 320.08 344.95 320.81C327.76 321.66 329.58 308.62 329.58 308.62C329.58 308.62 347.26 306.18 355.68 289.72C355.68 289.72 363.24 293.5 366.78 300.45C370.19 307.4 364.46 324.11 355.68 321.43V321.42Z" fill="#F79637"/>
<path d="M369.32 305.88C369.32 309.51 373.01 312.01 376.38 310.65C372.1 310.13 371.2 308.66 369.32 305.88Z" fill="black"/>
<path d="M282.47 278.85C276.86 278.85 271.37 274.95 269.06 270.19C267.11 268 265.89 266.78 261.5 266.9C261.5 268.97 261.38 274.7 262.11 277.88C264.06 284.22 269.55 292.27 273.69 296.9C274.06 297.27 273.69 297.88 273.08 297.75C266.49 295.31 253.81 295.31 247.23 297.75C246.74 297.87 246.25 297.26 246.62 296.9C250.64 292.39 255.89 284.58 258.21 277.88C258.82 275.32 258.94 270.93 258.7 266.9C253.94 266.9 253.21 268 251.26 270.19C248.94 274.95 243.58 278.85 237.85 278.85C229.44 278.85 222.73 271.53 223.7 262.87C224.43 256.53 229.43 251.41 235.77 250.43C242.23 249.45 248.09 252.99 250.77 258.36C252.48 260.55 253.45 263.6 258.57 263.73C258.33 258.12 256.38 254.34 254.06 252.63C249.18 250.31 245.89 245.43 245.89 239.82C245.89 231.28 253.21 224.58 261.87 225.67C268.21 226.4 273.33 231.4 274.31 237.62C275.29 244.21 271.75 250.06 266.38 252.62C263.7 254.81 261.75 258.11 261.5 263.72C266.38 263.6 267.84 260.55 269.67 258.35C272.23 252.98 278.08 249.45 284.67 250.42C290.89 251.4 295.89 256.52 296.62 262.86C297.6 271.52 290.89 278.84 282.47 278.84V278.85Z" fill="black"/>
<path d="M292.62 542.47C293.55 550.48 299.92 557.08 307.91 558.25C316.26 559.47 323.7 554.99 326.99 548.13C329.28 545.39 331.14 541.49 337.31 541.28C337.02 548.43 334.61 552.62 331.2 555.47C324.35 558.76 319.86 566.2 321.08 574.55C322.24 582.53 328.84 588.91 336.85 589.84C347.84 591.11 357.16 582.56 357.16 571.82C357.16 564.61 352.94 558.39 346.84 555.47C343.89 553.31 341.31 548.55 341.03 541.33C347.52 541.46 348.77 545.4 351.06 548.13C354.35 554.98 361.78 559.46 370.13 558.25C378.11 557.09 384.49 550.49 385.42 542.48C386.7 531.49 378.14 522.16 367.4 522.16C360.19 522.16 353.3 527.05 350.38 533.15C347.86 535.95 346.89 537.31 340.88 537.32C340.52 532.19 340.71 526.63 341.48 523.4C344.47 514.81 351.17 504.87 356.23 499.18C356.71 498.64 356.14 497.86 355.47 498.1C347.06 501.11 330.97 501.11 322.55 498.1C321.87 497.86 321.31 498.65 321.79 499.19C327 505.02 334.07 515.34 336.53 523.4C337.48 527.36 337.37 534.74 337.29 537.35C331.71 537.53 330.19 535.99 327.63 533.15C324.71 527.05 317.82 522.16 310.61 522.16C299.88 522.16 291.32 531.48 292.59 542.47H292.62Z" fill="black"/>
<path d="M183.13 118.01C182.2 110 175.83 103.4 167.84 102.23C159.49 101.01 152.05 105.49 148.76 112.35C146.47 115.09 144.61 118.99 138.44 119.2C138.73 112.05 141.14 107.86 144.55 105.01C151.4 101.72 155.89 94.28 154.67 85.93C153.51 77.95 146.91 71.57 138.9 70.64C127.91 69.37 118.59 77.9199 118.59 88.6599C118.59 95.8699 122.81 102.09 128.91 105.01C131.86 107.17 134.44 111.93 134.72 119.15C128.23 119.02 126.98 115.08 124.69 112.35C121.4 105.5 113.97 101.02 105.62 102.23C97.6402 103.39 91.2602 109.99 90.3302 118C89.0502 128.99 97.6102 138.32 108.35 138.32C115.56 138.32 122.45 133.43 125.37 127.33C127.89 124.53 128.86 123.17 134.87 123.16C135.23 128.29 135.04 133.85 134.27 137.08C131.28 145.67 124.58 155.61 119.51 161.3C119.03 161.84 119.6 162.62 120.27 162.38C128.68 159.37 144.77 159.37 153.19 162.38C153.87 162.62 154.43 161.83 153.95 161.29C148.74 155.46 141.67 145.14 139.21 137.08C138.26 133.12 138.37 125.74 138.45 123.13C144.03 122.95 145.55 124.49 148.11 127.33C151.03 133.43 157.92 138.32 165.13 138.32C175.86 138.32 184.42 129 183.15 118.01H183.13Z" fill="black"/>
<defs>
<linearGradient id="paint0_linear_145_1859" x1="380.43" y1="-103.28" x2="109.95" y2="690.58" gradientUnits="userSpaceOnUse">
<stop stop-color="#E1E1E1"/>
<stop offset="0.12" stop-color="#ECECEC"/>
<stop offset="0.32" stop-color="#FAFAFA"/>
<stop offset="0.49" stop-color="white"/>
<stop offset="0.7" stop-color="#FBFBFB"/>
<stop offset="0.85" stop-color="#F2F2F2"/>
<stop offset="0.99" stop-color="#E2E2E2"/>
<stop offset="1" stop-color="#E1E1E1"/>
</linearGradient>
</defs>
</svg>
