<svg width="469" height="650" viewBox="0 0 469 650" fill="none" xmlns="http://www.w3.org/2000/svg">
<path d="M439.41 0.620117H29.5293C13.4593 0.620117 0.429688 12.6801 0.429688 27.5501V622.39C0.429688 637.26 13.4593 649.32 29.5293 649.32H439.41C455.48 649.32 468.509 637.26 468.509 622.39V27.5501C468.509 12.6801 455.48 0.620117 439.41 0.620117Z" fill="url(#paint0_linear_145_2851)"/>
<path d="M85.7493 138.17C85.1593 133.1 81.1294 128.93 76.0794 128.19C70.7994 127.42 66.0891 130.25 64.0091 134.59C62.5591 136.32 61.3793 138.79 57.4793 138.92C57.6593 134.4 59.1892 131.75 61.3392 129.94C65.6792 127.86 68.5096 123.15 67.7396 117.87C66.9996 112.82 62.8291 108.79 57.7591 108.2C50.8091 107.39 44.9095 112.81 44.9095 119.6C44.9095 124.16 47.5793 128.09 51.4393 129.94C53.3093 131.31 54.9394 134.32 55.1194 138.89C51.0194 138.81 50.2191 136.31 48.7791 134.59C46.6991 130.26 41.9993 127.42 36.7093 128.19C31.6593 128.92 27.6194 133.1 27.0394 138.17C26.2294 145.12 31.6493 151.02 38.4393 151.02C42.9993 151.02 47.3593 147.93 49.2093 144.07C50.8093 142.3 51.4195 141.44 55.2195 141.43C55.4495 144.68 55.3292 148.19 54.8392 150.24C52.9492 155.67 48.7091 161.96 45.5091 165.56C45.2091 165.9 45.5596 166.4 45.9896 166.24C51.3096 164.34 61.4894 164.34 66.8094 166.24C67.2394 166.39 67.5894 165.89 67.2894 165.55C63.9894 161.86 59.5195 155.33 57.9695 150.23C57.3695 147.73 57.4396 143.06 57.4896 141.4C61.0196 141.29 61.9794 142.26 63.5994 144.06C65.4494 147.92 69.7994 151.01 74.3694 151.01C81.1594 151.01 86.5693 145.11 85.7693 138.16L85.7493 138.17Z" fill="black"/>
<path d="M384.03 511.9C384.62 516.97 388.651 521.14 393.701 521.88C398.981 522.65 403.691 519.82 405.771 515.48C407.221 513.75 408.4 511.28 412.3 511.15C412.12 515.67 410.59 518.32 408.44 520.13C404.1 522.21 401.271 526.92 402.041 532.2C402.781 537.25 406.951 541.28 412.021 541.87C418.971 542.68 424.871 537.26 424.871 530.47C424.871 525.91 422.2 521.98 418.34 520.13C416.47 518.76 414.841 515.75 414.661 511.18C418.761 511.26 419.561 513.76 421.001 515.48C423.081 519.81 427.78 522.65 433.07 521.88C438.12 521.15 442.161 516.97 442.741 511.9C443.551 504.95 438.13 499.05 431.34 499.05C426.78 499.05 422.42 502.14 420.57 506C418.97 507.77 418.361 508.63 414.561 508.64C414.331 505.39 414.45 501.88 414.94 499.83C416.83 494.4 421.071 488.11 424.271 484.51C424.571 484.17 424.221 483.67 423.791 483.83C418.471 485.73 408.291 485.73 402.971 483.83C402.541 483.68 402.191 484.18 402.491 484.52C405.791 488.21 410.261 494.74 411.811 499.84C412.411 502.34 412.341 507.01 412.291 508.67C408.761 508.78 407.801 507.81 406.181 506.01C404.331 502.15 399.981 499.06 395.411 499.06C388.621 499.06 383.21 504.96 384.01 511.91L384.03 511.9Z" fill="black"/>
<path d="M85.7095 88.8001C84.4695 88.0801 83.2293 86.8101 82.0293 85.0201L59.3394 51.5701L74.9395 35.2802C76.7995 33.3602 78.8496 31.8401 81.0396 30.7701C83.1796 29.7101 85.1594 29.1701 86.9194 29.1701H90.1396V23.6201H59.4795V29.1701H62.4194C65.0894 29.1701 66.3595 29.6401 66.9595 30.0401C67.7095 30.5401 68.0693 31.1301 68.0693 31.8901C68.0693 33.0701 67.3996 34.3901 66.0796 35.8301L41.5293 62.0401V32.1801C41.5293 31.3001 41.8094 30.5902 42.3994 30.0302C42.9994 29.4602 43.8593 29.1801 45.0493 29.1801H52.8496V23.6301H18.9395V29.1801H25.1396C27.3696 29.1801 28.3794 29.5801 28.8394 29.9101C29.4194 30.3301 29.6997 30.8901 29.6997 31.6601V87.3901C29.6997 88.1401 29.4594 88.7001 28.9194 89.1501C28.3494 89.6301 27.3996 89.8801 26.0796 89.8801H18.9395V95.4301H52.8496V89.8801H45.0493C43.8793 89.8801 42.8994 89.5801 42.0894 88.9701C41.9494 88.8601 41.5195 88.5201 41.5195 87.4001V70.6201L51.3496 60.1001L69.8594 87.3201C70.1394 87.7601 70.2695 88.1701 70.2695 88.5701C70.2695 88.8801 69.8595 89.1501 69.5195 89.3201C69.1195 89.5201 67.9593 89.8701 64.7593 89.8701H60.1694V95.4201H93.6597V89.8701H90.0996C88.3996 89.8701 86.9197 89.5101 85.6997 88.8001H85.7095Z" fill="black"/>
<path d="M382.979 561.52C384.219 562.24 385.46 563.51 386.66 565.3L409.35 598.75L393.75 615.04C391.89 616.96 389.839 618.48 387.649 619.55C385.509 620.61 383.53 621.15 381.77 621.15H378.549V626.7H409.209V621.15H406.27C403.6 621.15 402.329 620.68 401.729 620.28C400.969 619.78 400.62 619.19 400.62 618.43C400.62 617.25 401.289 615.92 402.609 614.49L427.16 588.28V618.14C427.16 619.02 426.88 619.73 426.29 620.29C425.69 620.86 424.83 621.14 423.64 621.14H415.839V626.69H449.75V621.14H443.549C441.319 621.14 440.31 620.74 439.85 620.41C439.27 619.99 438.99 619.43 438.99 618.66V562.93C438.99 562.18 439.23 561.62 439.77 561.17C440.34 560.69 441.289 560.44 442.609 560.44H449.75V554.89H415.839V560.44H423.64C424.81 560.44 425.79 560.74 426.6 561.35C426.74 561.46 427.169 561.8 427.169 562.92V579.7L417.339 590.22L398.83 563C398.55 562.56 398.419 562.15 398.419 561.75C398.419 561.44 398.829 561.17 399.169 560.99C399.569 560.79 400.73 560.44 403.93 560.44H408.52V554.89H375.029V560.44H378.589C380.289 560.44 381.77 560.8 382.99 561.51L382.979 561.52Z" fill="black"/>
<path d="M282.87 543.89C283.8 551.9 290.17 558.5 298.16 559.67C306.51 560.89 313.95 556.41 317.24 549.55C319.53 546.81 321.39 542.91 327.56 542.7C327.27 549.85 324.86 554.04 321.45 556.89C314.6 560.18 310.11 567.62 311.33 575.97C312.49 583.95 319.09 590.33 327.1 591.26C338.09 592.53 347.41 583.98 347.41 573.24C347.41 566.03 343.19 559.81 337.09 556.89C334.14 554.73 331.56 549.97 331.28 542.75C337.77 542.88 339.02 546.82 341.31 549.55C344.6 556.4 352.03 560.88 360.38 559.67C368.36 558.51 374.74 551.91 375.67 543.9C376.95 532.91 368.39 523.58 357.65 523.58C350.44 523.58 343.55 528.47 340.63 534.57C338.11 537.37 337.14 538.73 331.13 538.74C330.77 533.61 330.96 528.05 331.73 524.82C334.72 516.23 341.42 506.29 346.48 500.6C346.96 500.06 346.39 499.28 345.72 499.52C337.31 502.53 321.22 502.53 312.8 499.52C312.12 499.28 311.56 500.07 312.04 500.61C317.25 506.44 324.32 516.76 326.78 524.82C327.73 528.78 327.62 536.16 327.54 538.77C321.96 538.95 320.44 537.41 317.88 534.57C314.96 528.47 308.07 523.58 300.86 523.58C290.13 523.58 281.57 532.9 282.84 543.89H282.87Z" fill="black"/>
<path d="M187.1 107.73C186.17 99.7202 179.8 93.1202 171.81 91.9502C163.46 90.7302 156.02 95.2102 152.73 102.07C150.44 104.81 148.58 108.71 142.41 108.92C142.7 101.77 145.11 97.5802 148.52 94.7302C155.37 91.4402 159.86 84.0002 158.64 75.6502C157.48 67.6702 150.88 61.2902 142.87 60.3602C131.88 59.0902 122.56 67.6402 122.56 78.3802C122.56 85.5902 126.78 91.8102 132.88 94.7302C135.83 96.8902 138.41 101.65 138.69 108.87C132.2 108.74 130.95 104.8 128.66 102.07C125.37 95.2202 117.94 90.7402 109.59 91.9502C101.61 93.1102 95.2299 99.7102 94.2999 107.72C93.0199 118.71 101.58 128.04 112.32 128.04C119.53 128.04 126.42 123.15 129.34 117.05C131.86 114.25 132.83 112.89 138.84 112.88C139.2 118.01 139.01 123.57 138.24 126.8C135.25 135.39 128.55 145.33 123.49 151.02C123.01 151.56 123.58 152.34 124.25 152.1C132.66 149.09 148.75 149.09 157.17 152.1C157.85 152.34 158.41 151.55 157.93 151.01C152.72 145.18 145.65 134.86 143.19 126.8C142.24 122.84 142.35 115.46 142.43 112.85C148.01 112.67 149.53 114.21 152.09 117.05C155.01 123.15 161.9 128.04 169.11 128.04C179.84 128.04 188.4 118.72 187.13 107.73H187.1Z" fill="black"/>
<path d="M275.831 85.4097V82.2498L270.221 79.6697L270.21 79.6597L275.82 73.6797L275.971 66.8398L275.82 60.8497V47.5098L266.471 60.8497L271.61 64.0997C272.08 66.4897 271.451 70.7698 265.221 78.1198C258.521 73.6798 257.74 69.5698 258.05 67.0098L263.041 61.5397L252.76 52.8198L244.03 65.8098L249.48 68.8898C250.1 71.1098 249.951 74.8698 245.121 81.3698C236.861 75.8998 235.46 71.1098 235.61 68.2098L241.53 61.1998L227.351 49.5698L217.53 66.3198L224.851 70.4297C225.781 73.1597 225.941 78.4598 220.021 87.0098C213.481 83.0798 212.23 79.3198 212.23 77.0898L216.44 71.7897L204.601 63.4097L197.431 75.8898L203.661 79.1398C204.601 81.1898 205.061 85.4697 200.081 92.4797C192.131 88.2097 190.26 84.4497 190.11 82.0497L194.01 76.7498L181.391 68.3698L185.13 80.8497L186.851 86.3198L188.88 92.6398V92.7098L196.021 95.9998L193.67 98.4998L191.53 100.85L192.311 103.91L221.4 97.4697L275.831 85.4197V85.4097ZM254.371 78.0298L261.9 81.4998L255.84 87.9598L248.311 84.4897L254.371 78.0298ZM232.331 82.8898L239.86 86.3597L233.8 92.8198L226.271 89.3497L232.331 82.8898ZM211.521 97.7197L203.991 94.2498L210.05 87.7897L217.581 91.2598L211.521 97.7197Z" fill="#FFA500"/>
<path d="M188.891 92.8102L188.911 92.8203L188.891 92.7402V92.8102Z" fill="#FFA500"/>
<path d="M202.44 111.44C208.98 108.71 215.37 106.31 221.76 104.6C223.79 103.92 225.97 103.23 227.99 102.72C235.63 100.67 242.95 99.13 250.58 98.28C255.1 97.6 259.77 97.0799 264.29 96.9099H277.22L276.13 87.5099V87.4399L210.75 101.93L192.62 105.97H192.46L193.71 115.37H193.87C196.83 114 199.64 112.64 202.44 111.44Z" fill="#FFA500"/>
<path d="M276.18 87.4401L275.899 85.3901L275.859 85.4001L275.83 85.4101L221.41 97.4601L192.31 103.9L192.279 103.91L192.56 105.96L210.759 101.93L276.14 87.4401H276.18Z" fill="#862D26"/>
<path d="M203.99 94.2402L211.52 97.7103L217.58 91.2502L210.05 87.7803L203.99 94.2402Z" fill="#862D26"/>
<path d="M239.85 86.3499L232.33 82.8799L226.27 89.3399L233.79 92.8099L239.85 86.3499Z" fill="#862D26"/>
<path d="M261.9 81.49L254.371 78.02L248.311 84.48L255.84 87.95L261.9 81.49Z" fill="#862D26"/>
<path d="M188.89 92.7002H188.87L188.89 92.7402L188.91 92.8202L190.6 98.3702L191.39 100.93L193.68 98.5002L196.03 95.9902L188.89 92.7002Z" fill="#862D26"/>
<path d="M275.831 82.2399L275.871 82.2599L275.891 79.5899L275.9 73.6099L270.23 79.6499V79.6599L275.831 82.2399Z" fill="#862D26"/>
<path d="M250.59 98.28C242.96 99.13 235.63 100.67 228 102.72C226.6 106.31 222.08 108.53 221.46 112.47C221.15 114.18 221.77 116.06 222.08 117.77C222.7 121.53 222.23 125.64 220.68 129.05C219.74 131.27 218.19 133.5 218.65 136.06C219.27 139.99 223.95 141.19 225.81 144.61C226.75 146.66 226.75 149.06 226.9 151.28C227.06 153.5 227.68 156.07 229.55 157.09C231.42 158.29 233.6 157.43 235.32 156.24C237.04 154.87 238.44 153.16 240.31 152.31C243.58 150.43 247.32 151.11 250.9 151.63C251.99 151.8 253.08 151.8 254.02 151.63C256.36 151.29 258.07 149.41 260.25 148.9C264.15 148.22 267.42 151.98 271.31 152.49C272.09 152.49 272.87 152.49 273.49 151.98C273.96 151.64 274.27 150.95 274.58 150.44C276.45 146.17 277.85 141.72 278.01 137.1C278.01 131.8 276.14 126.67 275.67 121.54C275.36 117.09 275.98 112.82 275.36 108.55C274.74 104.1 272.4 99.8299 269.28 96.9199H264.29C259.77 97.0899 255.09 97.5999 250.58 98.2899L250.59 98.28ZM225.94 106.67C225.94 106.67 245.9 100.48 252.16 106.67C252.37 109.28 250.04 109.83 250.04 109.83C250.04 109.83 232.86 107.23 227.32 108.87C224.24 109.15 225.94 106.67 225.94 106.67ZM235.68 124.13C232.1 123.44 228.17 119.04 229.23 115.74C229.23 115.74 231.58 115.89 234.32 116C234.33 115.99 234.32 115.96 234.33 115.95L238.39 116.1C240.52 116.1 242.35 116.02 242.91 115.74C244.52 114.91 244.73 117.66 244.41 118.76C244.09 119.86 239.26 124.81 235.68 124.12V124.13ZM259.79 146.41C257.65 149.99 253.88 148.01 252.26 146.62C250.25 145.43 247.91 144.8 245.65 144.42L245.48 144.39L245.39 144.32C244.09 143.22 242.86 141.61 242.76 139.39C242.75 137.12 244.16 135.73 245.37 134.86C244.24 135.96 243.18 137.64 243.44 139.3C243.7 140.87 244.85 142.04 245.91 142.92C248.27 143.15 250.59 143.57 252.89 144.71C255.09 146.16 257.16 146.83 258.21 144.79C259.2 142.83 259.63 139.55 259.6 136.99C259.52 134.79 257.13 132.88 255.79 130.25L255.76 130.2C255.76 130.22 255.79 130.23 255.79 130.25C254.83 128.25 255.09 126.62 255.09 124.97C255.17 123.33 255.36 121.74 255.58 120.16C256.12 117.03 256.84 113.97 257.62 110.96C257.19 114.09 256.88 117.25 256.67 120.38C256.52 121.94 256.4 123.5 256.39 125.03C256.37 126.49 256.49 128.26 256.91 128.96L256.95 129.02C258.14 131.43 260.74 132.51 261.51 136.64C261.67 140.08 261.56 143.31 259.8 146.39L259.79 146.41ZM263.71 123.5C258.03 124.02 259.11 115.61 259.11 115.61C259.11 115.61 259.52 115.79 261.54 115.79C262.35 115.79 263.44 115.79 265.06 115.61H265.87C270.33 115.79 271.15 119.82 271.15 119.82C271.15 119.82 269.52 123.15 263.7 123.5H263.71ZM269.47 108.29C267.6 108.29 258.25 108.8 258.25 108.8C258.25 108.8 256.53 107.77 258.25 105.89C260.12 103.84 269.16 105.89 269.16 105.89C273.49 106.48 278.56 108.55 269.47 108.29Z" fill="#FB898C"/>
<path d="M174.4 197.95C179.23 198.46 184.37 196.75 189.2 195.73C193.41 194.7 197.46 194.19 201.35 195.9C203.53 196.75 205.72 198.29 208.05 197.95C212.26 197.44 215.06 190.6 219.11 191.97C221.76 193 222.54 196.59 223.63 199.32C225.65 203.77 229.71 206.67 234.07 208.04C238.43 209.41 243.11 209.58 247.63 209.58C251.68 209.58 255.89 209.41 259.78 208.21C262.12 207.53 264.46 206.16 266.79 205.65C271.15 204.62 275.67 205.82 280.04 204.97C285.18 203.94 289.7 200.01 291.72 194.88C292.19 193.85 292.5 192.83 292.81 191.8V191.46C293.59 189.06 294.21 186.5 295.61 184.62C298.1 181.37 302 180.52 305.43 178.64C305.43 178.64 305.59 178.64 305.59 178.47C308.86 176.42 311.82 172.31 310.11 168.72C309.95 168.04 309.48 167.52 309.02 167.18C306.22 164.45 301.54 166.67 297.96 165.3C294.06 163.93 292.19 158.97 291.73 154.53C291.26 149.91 291.73 145.3 290.02 141.19C288.3 137.43 285.19 134.69 283.48 131.1C280.83 125.63 281.76 118.79 281.92 112.47C282.08 106.14 282.39 99.8202 277.25 96.9102H269.3C272.41 99.8202 274.75 104.09 275.38 108.54C276 112.81 275.38 117.09 275.69 121.53C276.16 126.66 278.03 131.79 278.03 137.09C277.87 141.71 276.47 146.15 274.6 150.43C274.29 150.94 273.98 151.63 273.51 151.97C272.89 152.48 272.11 152.48 271.33 152.48C267.43 151.97 264.16 148.21 260.27 148.89C258.09 149.4 256.38 151.28 254.04 151.62C253.1 151.79 252.01 151.79 250.92 151.62C247.34 151.11 243.6 150.42 240.33 152.3C238.46 153.15 237.06 154.86 235.34 156.23C233.62 157.43 231.45 158.28 229.57 157.08C227.7 156.05 227.08 153.49 226.92 151.27C226.76 149.05 226.76 146.65 225.83 144.6C223.96 141.18 219.29 139.98 218.67 136.05C218.2 133.49 219.76 131.26 220.7 129.04C222.26 125.62 222.73 121.52 222.1 117.76C221.79 116.05 221.16 114.17 221.48 112.46C222.1 108.53 226.62 106.3 228.02 102.71C225.99 103.22 223.81 103.91 221.79 104.59C215.4 106.3 209.01 108.7 202.47 111.43C199.67 112.63 196.86 113.99 193.9 115.36H193.74C191.09 116.39 190.31 118.09 189.85 119.98C189.23 123.06 189.38 126.65 187.51 129.04C186.26 130.58 184.55 131.43 183.3 132.97C180.18 137.08 182.05 143.74 179.4 148.19C176.44 153.66 168.96 153.32 164.6 157.42C162.26 159.64 161.02 162.89 159.93 165.97C158.84 169.22 157.75 172.64 157.44 176.06C157.28 178.11 157.44 179.99 157.91 181.87C159.78 190.25 166.64 197.26 174.43 197.94L174.4 197.95ZM249.68 160.55C250.98 160.02 252.35 159.48 253.67 159.9C254.19 160.06 254.69 160.37 255.21 160.54C256.25 160.88 256.28 160.83 257.35 160.65C258.37 160.48 259.88 160.09 260.89 160.29C261.91 160.48 262.42 161.5 263.1 162.5C263.39 163.15 263.49 164.9 262.95 165.17C259.74 166.78 256.64 165.97 253.23 166.61C251.52 166.93 249.8 167.26 248.07 167.14C247.71 167.12 247.31 167.04 247.11 166.65C247.01 166.45 246.98 166.2 246.96 165.96C246.67 162.88 247.43 161.48 249.68 160.56V160.55Z" fill="black"/>
<path d="M140.74 207.36C144.17 215.23 150.4 235.06 161.15 257.8C168.16 256.95 176.57 260.02 183.12 263.44C183.74 263.61 184.21 263.95 184.84 264.29C188.58 266.34 191.69 268.39 193.56 269.76C206.03 268.73 214.13 266 221.14 277.62C221.92 278.82 222.54 279.84 223.17 280.87V281.04C223.33 281.04 223.64 281.21 223.79 281.38C223.95 281.55 224.26 281.72 224.41 281.89C227.53 284.46 230.18 287.88 232.36 291.81C234.23 295.23 235.79 299.16 236.72 303.27L241.55 326.35H259.78C228.77 290.28 200.88 225.31 189.2 195.73C184.37 196.76 179.23 198.46 174.4 197.95C166.61 197.27 159.76 190.26 157.88 181.88C149.93 184.61 135.91 191.63 139.81 204.96H139.97C140.12 205.64 140.44 206.5 140.75 207.35L140.74 207.36Z" fill="#EFEFEF"/>
<path d="M292.82 191.8C292.51 192.83 292.2 193.85 291.73 194.88C289.7 200.01 285.19 203.94 280.05 204.97C275.69 205.82 271.17 204.63 266.8 205.65C264.46 206.16 262.13 207.53 259.79 208.21C255.89 209.41 251.69 209.58 247.64 209.58C243.12 209.58 238.45 209.41 234.08 208.04C229.72 206.67 225.67 203.77 223.64 199.32C222.55 196.59 221.77 193 219.12 191.97C215.07 190.6 212.26 197.44 208.06 197.95C205.72 198.29 203.54 196.75 201.36 195.9C197.47 194.19 193.42 194.7 189.21 195.73C200.89 225.31 228.78 290.27 259.79 326.35H267.89C288.3 282.58 292.04 217.96 292.82 191.8ZM254.6 265.25C256.37 271.6 261.45 279.74 265.19 284.34C265.54 284.77 265.13 285.39 264.65 285.2C258.61 282.83 247.04 282.83 241 285.2C240.51 285.39 240.11 284.77 240.45 284.35C244.09 279.86 248.9 272.02 251.05 265.26C251.61 262.71 251.74 258.33 251.48 254.29C247.16 254.29 246.47 255.37 244.66 257.58C242.56 262.39 237.61 266.24 232.43 266.24C224.72 266.24 218.57 258.89 219.49 250.22C220.16 243.9 224.74 238.7 230.48 237.79C236.48 236.83 241.82 240.36 244.18 245.77C245.82 247.92 246.72 251.03 251.39 251.13C251.18 245.44 249.34 241.68 247.21 239.98C242.83 237.68 239.8 232.78 239.8 227.09C239.8 218.63 246.5 211.88 254.39 212.89C260.15 213.62 264.89 218.65 265.72 224.94C266.6 231.53 263.38 237.39 258.45 239.98C256 242.23 254.27 245.53 254.06 251.17C258.49 251 259.83 247.93 261.47 245.77C263.83 240.36 269.18 236.83 275.18 237.79C280.92 238.71 285.5 243.91 286.16 250.23C287.08 258.89 280.93 266.24 273.22 266.24C268.04 266.24 263.09 262.38 260.99 257.58C259.15 255.34 258.07 254.13 254.05 254.27C253.99 256.34 253.92 262.15 254.59 265.27L254.6 265.25Z" fill="#FF0200"/>
<path d="M310.58 310.96C310.5 310.83 310.36 310.72 310.27 310.57C310.37 310.71 310.46 310.88 310.56 311.03C310.56 311 310.57 310.98 310.58 310.95V310.96Z" fill="#EFEFEF"/>
<path d="M309.49 309.61C309.43 309.56 309.39 309.46 309.34 309.42C308.87 308.9 308.25 308.56 307.47 308.22C306.53 307.83 305.57 307.68 304.63 307.74C305.57 307.68 306.54 307.83 307.47 308.22C308.25 308.51 308.9 309.03 309.5 309.6L309.49 309.61Z" fill="#EFEFEF"/>
<path d="M305.17 323.86C305.67 323.81 306.17 323.78 306.64 323.62C306.66 323.56 306.68 323.49 306.71 323.42C306.21 323.6 305.71 323.81 305.18 323.86H305.17Z" fill="#EFEFEF"/>
<path d="M320.86 271.47C321.17 271.04 320.63 270.14 319.59 269.07C320.62 270.14 321.17 271.04 320.86 271.46V271.47Z" fill="#EFEFEF"/>
<path d="M314.94 294.55C314.94 294.38 314.781 293.86 314.471 293.18C314.781 293.86 314.94 294.37 314.94 294.54V294.55Z" fill="#EFEFEF"/>
<path d="M295.621 184.62C294.221 186.5 293.59 189.06 292.82 191.46V191.8C292.04 217.96 288.301 282.58 267.891 326.35H298.581C297.331 325.67 296.401 324.64 295.621 323.27C293.591 320.02 292.971 315.75 294.371 311.64C295.151 309.59 296.241 307.88 297.641 306.51C298.891 305.14 300.6 304.29 302.32 303.78L303.88 298.99L304.041 298.65C303.571 298.65 302.95 298.65 302.48 298.82C301.7 297.45 299.521 292.15 303.101 288.56C304.351 287.19 306.061 287.36 307.621 288.22L308.241 286.34C306.991 285.66 305.281 285.14 303.411 285.14C301.381 285.48 302.32 278.64 305.9 279.5C307.46 279.84 308.86 280.01 310.26 280.53L311.351 277.11C315.241 280.19 319.6 283.78 316.96 283.27C319.61 283.78 315.251 280.19 311.351 277.11C308.701 275.06 306.21 273.18 306.21 273.18C306.21 273.18 302.161 268.39 309.641 266.85C311.511 267.19 312.911 267.71 314.471 268.22L315.4 265.66C316.74 266.57 317.84 267.54 318.82 268.45C317.84 267.53 316.74 266.56 315.4 265.66C312.91 263.95 310.1 262.41 308.55 262.41C304.81 262.07 308.711 254.72 311.661 254.89C312.751 254.89 315.4 255.74 318.36 256.94L329.78 223.49C326.01 205.19 312.901 187.3 305.581 178.47C305.581 178.64 305.42 178.64 305.42 178.64C301.99 180.52 298.101 181.37 295.601 184.62H295.621Z" fill="#EFEFEF"/>
<path d="M124.07 326.35H125.48C126.41 301.05 134.52 281.9 146.98 265.66C151.03 260.53 156.02 258.31 161.16 257.8C150.41 235.06 144.17 215.23 140.75 207.36C140.44 206.51 140.13 205.65 139.97 204.97H139.81C123.76 219.5 91.2 257.46 91.51 326.36H124.07V326.35Z" fill="#444891"/>
<path d="M174.55 307.88C153.05 310.96 165.98 280.35 177.04 268.22C173.77 267.88 170.19 268.39 167.38 270.62C164.73 272.67 162.24 276.43 160.84 282.59C158.04 294.56 156.48 312 155.54 326.36H176.89L175.33 319.18C174.55 315.42 174.24 311.66 174.55 307.9V307.88Z" fill="#FF0200"/>
<path d="M308.08 322.93C308.55 322.59 308.86 322.41 309.17 321.9C309.17 321.9 309.18 321.88 309.19 321.87C308.7 322.33 308.23 322.83 307.66 323.13C307.8 323.06 307.94 322.98 308.08 322.93Z" fill="#444891"/>
<path d="M329.279 262.75C330.369 263.43 331.15 264.29 331.77 265.14C335.35 270.27 338.779 282.58 338.779 282.58C338.779 282.58 341.43 289.25 344.7 293.01C346.42 291.13 348.91 290.45 351.24 290.79C353.89 291.3 356.23 292.67 358.56 294.38C367.63 300.79 375.25 310.4 378 321.83C373.57 289.56 353.039 256.53 338.149 236.77L329.27 262.76L329.279 262.75Z" fill="#444891"/>
<path d="M311.5 318.5C311.5 318.5 311.5 318.49 311.51 318.48C311.51 318.48 311.51 318.49 311.51 318.5H311.5Z" fill="#444891"/>
<path d="M310.729 311.13H310.609C310.699 311.28 310.8 311.42 310.89 311.57C310.82 311.43 310.81 311.26 310.74 311.13H310.729Z" fill="#444891"/>
<path d="M306.68 323.61C307 323.49 307.309 323.31 307.629 323.15C307.349 323.3 307.03 323.3 306.74 323.4C306.72 323.47 306.7 323.54 306.68 323.61Z" fill="#444891"/>
<path d="M310.581 311.08V310.96C310.581 310.96 310.561 311.01 310.561 311.04C310.561 311.05 310.571 311.07 310.581 311.08Z" fill="#444891"/>
<path d="M248.059 167.14C249.789 167.26 251.51 166.94 253.22 166.61C256.63 165.97 259.729 166.78 262.939 165.17C263.479 164.9 263.389 163.15 263.089 162.5C262.409 161.5 261.899 160.49 260.879 160.29C259.869 160.1 258.349 160.48 257.339 160.65C256.279 160.84 256.24 160.88 255.2 160.54C254.68 160.37 254.19 160.06 253.66 159.9C252.34 159.48 250.959 160.02 249.669 160.55C247.419 161.47 246.66 162.87 246.95 165.95C246.97 166.19 247 166.44 247.1 166.64C247.3 167.03 247.709 167.11 248.059 167.13V167.14Z" fill="#9C5F59"/>
<path d="M258.25 105.9C256.53 107.78 258.25 108.81 258.25 108.81C258.25 108.81 267.6 108.3 269.47 108.3C278.56 108.56 273.49 106.49 269.16 105.9C269.16 105.9 260.12 103.85 258.25 105.9Z" fill="black"/>
<path d="M250.04 109.83C250.04 109.83 252.38 109.28 252.16 106.67C245.9 100.48 225.94 106.67 225.94 106.67C225.94 106.67 224.24 109.15 227.32 108.87C232.86 107.24 250.04 109.83 250.04 109.83Z" fill="black"/>
<path d="M242.911 115.75C242.351 116.03 240.521 116.12 238.391 116.11L239.201 116.14C239.741 116.84 240.01 117.72 240.01 118.77C240.01 121.05 238.52 122.98 236.76 122.98C235 122.98 233.51 121.05 233.51 118.77C233.51 117.74 233.791 116.72 234.311 116.02C231.571 115.91 229.221 115.76 229.221 115.76C228.161 119.06 232.091 123.46 235.671 124.15C239.251 124.84 244.081 119.89 244.401 118.79C244.721 117.69 244.511 114.94 242.901 115.77L242.911 115.75Z" fill="#CCCCCC"/>
<path d="M236.77 122.97C238.53 122.97 240.02 121.04 240.02 118.76C240.02 117.71 239.749 116.83 239.209 116.13L238.399 116.1L234.339 115.95C234.339 115.95 234.34 115.99 234.33 116C233.81 116.7 233.529 117.72 233.529 118.75C233.529 121.03 235.019 122.96 236.779 122.96L236.77 122.97Z" fill="black"/>
<path d="M265.87 115.61C266.54 116.49 266.95 117.54 266.95 118.76C266.95 121.04 265.46 122.97 263.7 122.97C261.94 122.97 260.589 121.04 260.589 118.76C260.589 117.71 260.859 116.66 261.539 115.78C259.509 115.78 259.109 115.6 259.109 115.6C259.109 115.6 258.029 124.02 263.709 123.49C269.529 123.14 271.16 119.81 271.16 119.81C271.16 119.81 270.349 115.78 265.879 115.6L265.87 115.61Z" fill="#CCCCCC"/>
<path d="M263.709 122.97C265.469 122.97 266.959 121.04 266.959 118.76C266.959 117.53 266.549 116.48 265.879 115.61H265.069C263.449 115.79 262.359 115.79 261.549 115.79C260.869 116.66 260.6 117.72 260.6 118.77C260.6 121.05 261.959 122.98 263.709 122.98V122.97Z" fill="black"/>
<path d="M255.79 130.26C255.79 130.26 255.76 130.22 255.76 130.2L255.79 130.26Z" fill="black"/>
<path d="M256.9 128.97C256.48 128.27 256.36 126.5 256.38 125.04C256.38 123.5 256.51 121.94 256.66 120.39C256.87 117.26 257.18 114.1 257.61 110.97C256.83 113.99 256.11 117.04 255.57 120.17C255.36 121.75 255.16 123.34 255.08 124.98C255.08 126.63 254.82 128.26 255.78 130.26C257.12 132.89 259.52 134.8 259.59 137C259.62 139.56 259.19 142.84 258.2 144.8C257.15 146.83 255.08 146.17 252.88 144.72C250.58 143.58 248.26 143.16 245.9 142.93C244.84 142.05 243.7 140.88 243.43 139.31C243.17 137.65 244.23 135.97 245.36 134.87C244.15 135.74 242.73 137.13 242.75 139.4C242.86 141.62 244.08 143.23 245.38 144.33L245.47 144.4L245.64 144.43C247.9 144.82 250.24 145.44 252.25 146.63C253.88 148.02 257.64 150 259.78 146.42C261.54 143.34 261.65 140.11 261.49 136.67C260.72 132.54 258.12 131.47 256.93 129.05L256.89 128.99L256.9 128.97Z" fill="black"/>
<path d="M260.99 257.56C263.09 262.37 268.04 266.22 273.22 266.22C280.93 266.22 287.08 258.87 286.16 250.21C285.49 243.89 280.91 238.69 275.18 237.77C269.18 236.81 263.83 240.34 261.47 245.75C259.82 247.91 258.49 250.98 254.06 251.15C254.27 245.52 256 242.21 258.45 239.96C263.38 237.37 266.59 231.5 265.72 224.92C264.88 218.63 260.14 213.6 254.39 212.87C246.49 211.86 239.799 218.61 239.799 227.07C239.799 232.76 242.83 237.66 247.21 239.96C249.33 241.66 251.18 245.42 251.39 251.11C246.73 251.01 245.83 247.9 244.18 245.75C241.82 240.35 236.48 236.82 230.48 237.77C224.74 238.68 220.16 243.88 219.49 250.2C218.57 258.87 224.72 266.22 232.43 266.22C237.61 266.22 242.56 262.36 244.66 257.56C246.47 255.36 247.17 254.28 251.48 254.27C251.74 258.32 251.599 262.69 251.049 265.24C248.899 272.01 244.09 279.85 240.45 284.33C240.11 284.76 240.51 285.38 241 285.18C247.04 282.81 258.609 282.81 264.649 285.18C265.139 285.37 265.54 284.75 265.19 284.32C261.45 279.72 256.37 271.59 254.6 265.23C253.92 262.11 254 256.3 254.06 254.23C258.07 254.09 259.16 255.3 261 257.54L260.99 257.56Z" fill="black"/>
<path d="M160.84 282.58C162.24 276.42 164.74 272.66 167.38 270.61C170.18 268.39 173.771 267.88 177.041 268.21C179.221 265.65 181.401 263.94 183.121 263.42C176.581 260 168.16 256.92 161.15 257.78C156.01 258.29 151.021 260.51 146.971 265.64C134.511 281.88 126.401 301.03 125.471 326.33H155.541C156.471 311.97 158.03 294.53 160.84 282.56V282.58Z" fill="#968C8B"/>
<path d="M216.62 284.12C216.78 284.12 216.78 284.29 216.78 284.29C217.87 284.8 218.81 285.49 219.74 286.34C216.94 281.04 212.26 275.4 211.95 275.4C211.95 275.74 214.44 279.84 216.62 284.12Z" fill="#FFFB15"/>
<path d="M227.839 296.6C229.249 299.16 230.179 301.9 230.799 304.8L235.479 326.34H241.56L236.729 303.26C235.789 299.16 234.24 295.23 232.37 291.8C230.19 287.87 227.539 284.45 224.419 281.88C224.269 281.71 223.949 281.54 223.799 281.37C223.649 281.2 223.33 281.03 223.18 281.03C228.48 289.92 229.41 292.83 227.85 296.59L227.839 296.6Z" fill="#FFFB15"/>
<path d="M182.97 296.94C182.97 296.94 182.97 296.77 183.13 296.77C184.07 294.72 185.16 292.67 186.25 290.96C185.31 290.96 184.69 291.47 184.07 292.5C183.6 293.53 182.98 294.55 182.2 295.58C180.95 297.46 179.55 299.34 177.99 300.54C177.05 301.22 176.12 301.74 175.19 301.74C174.88 303.79 174.57 305.84 174.57 307.89C174.26 311.65 174.57 315.41 175.35 319.17L176.91 326.35H183.14L181.27 317.63C179.71 310.45 180.33 302.93 182.98 296.94H182.97Z" fill="#FFFB15"/>
<path d="M187.49 270.96H187.33C185.77 271.81 184.37 272.84 182.97 274.21C179.86 276.94 177.36 281.05 175.34 284.98C172.22 291.13 170.51 297.12 170.51 297.12C171.91 300.54 173.47 301.74 175.18 301.74C176.12 301.74 177.05 301.23 177.98 300.54C179.54 299.34 180.94 297.46 182.19 295.58C182.97 294.55 183.6 293.53 184.06 292.5C184.68 291.47 185.31 290.96 186.24 290.96H186.4C189.98 290.96 195.12 296.94 196.37 298.65C198.08 300.87 197.93 306.17 199.48 310.62C201.2 314.89 205.56 314.89 205.87 309.76C205.4 298.82 199.33 293.01 196.37 290.1C193.41 287.02 195.74 285.83 198.4 287.37C201.05 289.08 203.07 293.53 205.1 296.6C207.13 299.85 208.22 310.28 210.87 314.38C213.67 318.48 216.01 315.58 215.55 313.18C214.93 311.47 213.06 304.12 211.5 298.14C210.41 289.59 207.14 285.32 207.14 285.32C207.14 285.32 202.78 280.53 206.51 281.56C210.25 282.59 213.68 293.87 213.68 293.87C213.68 293.87 213.53 307.72 216.95 312.34C220.38 316.96 221.16 312.34 221.16 312.34C221.16 312.34 221.16 296.61 220.38 292.51C220.07 290.8 218.51 287.55 216.8 284.31C216.8 284.31 216.8 284.14 216.64 284.14C214.46 279.86 211.97 275.76 211.97 275.42C212.28 275.42 216.96 281.06 219.76 286.36V286.53C220.85 288.58 221.63 290.46 221.79 292C222.26 297.64 225.84 301.57 227.71 297.13C227.86 296.96 227.86 296.79 227.86 296.62C229.42 292.86 228.49 289.95 223.19 281.06V280.89C222.57 279.86 221.94 278.84 221.16 277.64C214.15 266.01 206.05 268.75 193.58 269.78C192.96 269.78 192.18 269.95 191.55 269.95C190.15 269.95 188.75 270.29 187.5 270.98L187.49 270.96Z" fill="#FB898C"/>
<path d="M174.55 307.88C174.55 305.83 174.86 303.78 175.17 301.73C173.46 301.73 171.9 300.53 170.5 297.11C170.5 297.11 172.21 291.12 175.33 284.97C177.36 281.04 179.85 276.93 182.96 274.2C184.36 272.83 185.76 271.81 187.32 270.95H187.48C188.73 270.27 190.13 269.92 191.53 269.92C192.15 269.92 192.93 269.75 193.56 269.75C191.69 268.38 188.58 266.33 184.84 264.28C184.22 263.94 183.75 263.6 183.12 263.43C181.4 263.94 179.22 265.65 177.04 268.22C165.98 280.36 153.05 310.96 174.55 307.88Z" fill="#E4BFFF"/>
<path d="M308.86 303.95C306.68 303.1 304.5 303.27 302.32 303.78C300.6 304.29 298.89 305.15 297.64 306.51C296.24 307.88 295.15 309.59 294.37 311.64C292.96 315.74 293.59 320.02 295.62 323.27C296.4 324.64 297.34 325.66 298.58 326.35H310.58C312.61 324.81 314.16 322.76 315.1 320.02C315.26 319.68 315.26 319.34 315.41 318.99C316.35 315.23 315.57 311.47 313.7 308.56C313.23 307.88 312.76 307.02 312.14 306.51C311.36 305.31 310.27 304.46 308.87 303.95H308.86ZM311.52 318.43C311.52 318.43 311.52 318.46 311.52 318.48C311.52 318.48 311.51 318.49 311.51 318.5C310.99 319.9 310.15 320.97 309.2 321.87C309.2 321.87 309.19 321.89 309.18 321.9C308.87 322.41 308.56 322.58 308.09 322.93C307.95 322.98 307.81 323.06 307.67 323.13C307.66 323.13 307.65 323.14 307.64 323.15C307.32 323.32 307.01 323.49 306.69 323.61C306.68 323.61 306.66 323.61 306.64 323.61C306.17 323.78 305.67 323.81 305.17 323.85C305.08 323.85 305 323.89 304.92 323.89C304.01 323.94 303.09 323.8 302.18 323.43C298.6 321.89 296.73 317.27 298.13 313C299.18 309.92 301.81 307.9 304.64 307.74C305.58 307.68 306.55 307.83 307.48 308.22C308.26 308.56 308.88 308.9 309.35 309.42C309.41 309.46 309.45 309.56 309.5 309.61C309.8 309.9 310.03 310.23 310.28 310.57C310.37 310.71 310.51 310.82 310.59 310.96V311.08C310.59 311.08 310.61 311.11 310.62 311.13H310.74C310.82 311.26 310.82 311.44 310.89 311.57C311.25 312.26 311.49 312.99 311.66 313.78C311.74 314.18 311.87 314.56 311.9 314.97C311.99 316.12 311.9 317.28 311.52 318.42V318.43Z" fill="#FFA724"/>
<path d="M331.77 265.14C331.15 264.29 330.37 263.43 329.28 262.75C328.08 261.8 326.52 260.88 324.92 259.99C322.79 258.81 320.491 257.72 318.411 256.95C318.401 256.95 318.381 256.94 318.371 256.93C315.411 255.73 312.76 254.88 311.67 254.88C308.71 254.71 304.821 262.06 308.561 262.4C310.121 262.4 312.921 263.94 315.411 265.65C316.751 266.56 317.851 267.53 318.831 268.44C319.051 268.65 319.411 268.87 319.601 269.07C320.631 270.14 321.181 271.04 320.871 271.47C318.071 269.93 316.19 268.91 314.48 268.22C312.92 267.71 311.52 267.19 309.65 266.85C302.17 268.39 306.221 273.18 306.221 273.18C306.221 273.18 308.71 275.06 311.36 277.11C315.26 280.19 319.621 283.78 316.971 283.27C314.481 281.9 312.45 281.05 310.27 280.53C308.87 280.02 307.471 279.85 305.911 279.5C302.331 278.65 301.39 285.49 303.42 285.14C305.29 285.14 307 285.65 308.25 286.34C311.36 287.71 313.08 290.27 314.02 292.15C314.33 292.49 314.491 292.83 314.491 293.18C314.801 293.86 314.96 294.38 314.96 294.55L313.71 293.18C313.24 292.67 312.621 291.98 311.991 291.47C311.521 290.79 310.901 290.44 310.431 289.93C310.281 289.76 310.12 289.76 309.96 289.59C309.18 289.08 308.401 288.56 307.621 288.22C306.061 287.37 304.351 287.19 303.101 288.56C299.521 292.15 301.7 297.45 302.48 298.82C302.95 298.65 303.57 298.65 304.04 298.65C304.66 298.65 305.291 298.65 305.911 298.82H306.221C307.001 298.99 307.62 299.33 308.4 299.67C310.27 300.7 311.83 302.23 312.92 303.94C313.39 304.28 313.7 304.62 314.01 305.14C314.17 305.48 314.48 305.65 314.63 305.99C318.21 310.44 321.64 315.05 325.07 319.5C327.87 322.92 331.301 326.68 335.351 326C339.251 325.32 341.431 321.04 342.991 317.11C344.391 313.69 345.79 310.27 347.04 306.68C346.57 306.34 346.1 305.83 345.79 305.31C343.3 302.4 341.89 297.79 343.61 294.37C343.61 294.2 343.77 293.85 343.92 293.68C344.08 293.34 344.391 293 344.701 293C341.431 289.24 338.78 282.57 338.78 282.57C338.78 282.57 335.35 270.26 331.77 265.13V265.14Z" fill="#FB898C"/>
<path d="M310.42 289.93C310.89 290.44 311.51 290.78 311.98 291.47C312.6 291.98 313.23 292.67 313.7 293.18L314.95 294.55C314.95 294.37 314.79 293.86 314.48 293.18C314.48 292.84 314.32 292.5 314.01 292.15C313.07 290.27 311.36 287.71 308.24 286.34L307.62 288.22C308.4 288.56 309.18 289.07 309.96 289.59C310.12 289.76 310.27 289.76 310.43 289.93H310.42Z" fill="#150E00"/>
<path d="M312.92 303.95C311.83 302.24 310.27 300.7 308.4 299.68C307.62 299.34 307.001 299 306.221 298.83H305.911C305.291 298.66 304.661 298.66 304.041 298.66L303.88 299L302.32 303.79C304.5 303.28 306.68 303.11 308.86 303.96C310.27 304.47 311.35 305.33 312.13 306.52C312.75 307.03 313.22 307.89 313.69 308.57L314.621 306.01C314.461 305.67 314.15 305.5 314 305.16C313.69 304.65 313.381 304.31 312.911 303.96L312.92 303.95Z" fill="#150E00"/>
<path d="M378.01 321.83C375.26 310.41 367.64 300.79 358.57 294.38C356.23 292.67 353.89 291.3 351.25 290.79C348.91 290.45 346.42 291.13 344.71 293.01C344.4 293.01 344.09 293.35 343.93 293.69C343.78 293.86 343.62 294.2 343.62 294.38C341.9 297.8 343.31 302.41 345.8 305.32C346.11 305.83 346.58 306.35 347.05 306.69C345.8 310.28 344.4 313.7 343 317.12C341.44 321.05 339.26 325.33 335.36 326.01C331.31 326.69 327.88 322.93 325.08 319.51C321.65 315.07 318.22 310.45 314.64 306L313.71 308.56C315.58 311.47 316.36 315.23 315.42 318.99C318.38 321.04 321.03 323.78 323.68 326.34H346.43C349.08 322.24 351.1 317.62 353.75 313.52C353.9 313.69 354.06 313.86 354.22 314.03C356.71 317.45 357.96 321.89 358.58 326.34H378.99C378.68 324.97 378.52 323.6 378.21 322.24C378.18 322.09 378.05 321.97 378.02 321.82L378.01 321.83Z" fill="#E4BFFF"/>
<path d="M310.58 326.35H323.67C321.02 323.79 318.37 321.05 315.41 319C315.26 319.34 315.26 319.68 315.1 320.03C314.16 322.76 312.61 324.82 310.58 326.36V326.35Z" fill="#5A3FFF"/>
<path d="M354.21 314.04C354.05 313.87 353.9 313.7 353.74 313.53C351.09 317.63 349.06 322.25 346.42 326.35H358.57C357.95 321.9 356.7 317.46 354.21 314.04Z" fill="#5A3FFF"/>
<path d="M351.089 162.19L356.399 164.37L359.879 165.8L362.14 166.67L362.12 166.72C363.08 167.12 364.169 166.58 364.529 165.52L365.359 163.07C365.709 162.03 365.229 160.91 364.319 160.48V160.51L358.549 158.12L352.779 155.73C351.819 155.35 350.75 155.87 350.39 156.93L349.56 159.38C349.2 160.44 349.69 161.63 350.66 162.02H350.689L350.759 162.06L351.08 162.19H351.089Z" fill="#FFA724"/>
<path d="M364.331 160.51V160.34H364.491L393.311 123.93L381.63 90.25L352.65 107.35V155.56L352.811 155.73L358.581 158.12L364.351 160.51H364.331ZM359.03 113.5V113.47L365.17 109.85L377.411 102.57L379.681 109.26L384.78 124.04L384.73 124.1L366.5 147.19L362.76 145.65L359.021 144.11V113.51L359.03 113.5Z" fill="#D44100"/>
<path d="M316.97 283.27C319.61 283.78 315.249 280.19 311.359 277.11L310.27 280.53C312.45 281.04 314.48 281.9 316.97 283.27Z" fill="#150E00"/>
<path d="M320.86 271.47C321.17 271.04 320.63 270.14 319.59 269.08C319.4 268.88 319.04 268.66 318.82 268.45C317.84 267.53 316.73 266.56 315.4 265.66L314.471 268.22C316.181 268.91 318.05 269.93 320.86 271.47Z" fill="#150E00"/>
<path d="M318.37 256.94C318.37 256.94 318.4 256.95 318.41 256.96C320.49 257.72 322.79 258.82 324.92 260C326.52 260.88 328.08 261.81 329.28 262.76L338.16 236.77L352.65 194.37L362.14 166.72L362.16 166.67L359.9 165.8L356.39 164.45L351.1 162.19L350.78 162.05L341.9 188.03L329.8 223.48L318.38 256.93L318.37 256.94Z" fill="#582A1A"/>
<path d="M310.89 311.58C310.81 311.42 310.7 311.28 310.61 311.14C310.6 311.12 310.59 311.1 310.58 311.09C310.58 311.08 310.57 311.06 310.56 311.05C310.46 310.89 310.38 310.73 310.27 310.59C310.02 310.25 309.79 309.91 309.49 309.63C308.89 309.06 308.24 308.54 307.46 308.25C306.53 307.86 305.56 307.71 304.62 307.77C301.8 307.94 299.16 309.96 298.11 313.03C296.71 317.3 298.58 321.92 302.16 323.46C303.07 323.83 304 323.97 304.9 323.92C304.99 323.92 305.07 323.89 305.15 323.88C305.68 323.83 306.18 323.62 306.68 323.44C306.69 323.44 306.71 323.44 306.73 323.43C307.02 323.32 307.34 323.32 307.62 323.18C307.63 323.18 307.64 323.17 307.65 323.16C308.22 322.86 308.69 322.36 309.18 321.9C310.13 321 310.97 319.93 311.49 318.53C311.49 318.53 311.49 318.52 311.49 318.51C311.49 318.49 311.49 318.48 311.49 318.46C311.87 317.33 311.96 316.16 311.87 315.01C311.84 314.6 311.71 314.22 311.63 313.82C311.46 313.03 311.22 312.3 310.86 311.61L310.89 311.58Z" fill="#D43131"/>
<path d="M362.77 145.58L366.48 147.1L384.74 124.09L384.79 124.03L379.7 109.24L377.41 102.62L365.19 109.84L359.04 113.46V113.49L359.07 144.06L362.77 145.58Z" fill="#150E00"/>
<path d="M194.65 567.29V570.45L200.26 573.03L200.27 573.04L194.66 579.03L194.5 585.87L194.66 591.86V605.2L204.01 591.86L198.87 588.61C198.4 586.21 199.03 581.94 205.26 574.59C211.96 579.03 212.74 583.14 212.43 585.7L207.44 591.17L217.72 599.89L226.45 586.9L220.99 583.82C220.37 581.6 220.52 577.84 225.35 571.34C233.61 576.81 235.01 581.6 234.86 584.5L228.94 591.51L243.12 603.14L252.94 586.38L245.62 582.28C244.68 579.55 244.53 574.24 250.45 565.7C256.99 569.63 258.24 573.39 258.24 575.62L254.03 580.92L265.87 589.3L273.04 576.82L266.81 573.57C265.88 571.52 265.41 567.25 270.39 560.23C278.34 564.51 280.21 568.27 280.36 570.66L276.47 575.96L289.09 584.34L285.35 571.86L283.64 566.39L281.61 560.06V560L274.47 556.71L276.82 554.21L278.96 551.86L278.19 548.8L249.09 555.25L194.66 567.3L194.65 567.29ZM216.11 574.67L208.58 571.2L214.64 564.74L222.17 568.21L216.11 574.67ZM238.15 569.82L230.62 566.35L236.68 559.89L244.2 563.36L238.14 569.82H238.15ZM258.96 554.99L266.49 558.46L260.43 564.92L252.9 561.45L258.96 554.99Z" fill="#FFA500"/>
<path d="M281.601 559.89L281.57 559.88L281.601 559.95V559.89Z" fill="#FFA500"/>
<path d="M268.04 541.25C261.5 543.98 255.11 546.38 248.72 548.09C246.7 548.78 244.51 549.46 242.49 549.97C234.86 552.02 227.53 553.56 219.9 554.41C215.38 555.09 210.71 555.61 206.19 555.78H193.26L194.35 565.18V565.24L259.73 550.76L277.86 546.71H278.01L276.76 537.31H276.61C273.65 538.68 270.84 540.04 268.04 541.24V541.25Z" fill="#FFA500"/>
<path d="M194.311 565.26L194.59 567.3H194.621L194.65 567.29L249.081 555.24L278.17 548.79L278.21 548.78L277.931 546.74L259.721 550.77L194.34 565.25L194.311 565.26Z" fill="#862D26"/>
<path d="M266.49 558.45L258.97 554.99L252.91 561.45L260.43 564.91L266.49 558.45Z" fill="#862D26"/>
<path d="M230.63 566.35L238.16 569.82L244.21 563.36L236.69 559.89L230.63 566.35Z" fill="#862D26"/>
<path d="M208.58 571.2L216.11 574.67L222.17 568.21L214.64 564.74L208.58 571.2Z" fill="#862D26"/>
<path d="M281.6 559.99L281.61 560L281.6 559.95L281.57 559.88L279.88 554.33L279.09 551.77L276.81 554.2L274.46 556.7L281.6 559.99Z" fill="#862D26"/>
<path d="M194.65 570.46L194.61 570.44L194.6 573.11L194.58 579.08L200.25 573.05L200.26 573.04L194.65 570.46Z" fill="#862D26"/>
<path d="M219.891 554.42C227.521 553.57 234.85 552.03 242.48 549.98C243.88 546.39 248.401 544.17 249.021 540.23C249.331 538.52 248.71 536.64 248.4 534.93C247.78 531.17 248.24 527.06 249.8 523.64C250.74 521.42 252.291 519.2 251.831 516.63C251.211 512.7 246.531 511.5 244.661 508.08C243.731 506.03 243.73 503.64 243.57 501.41C243.41 499.19 242.79 496.62 240.92 495.6C239.05 494.4 236.87 495.26 235.15 496.45C233.44 497.82 232.04 499.53 230.17 500.38C226.9 502.26 223.16 501.58 219.57 501.06C218.48 500.89 217.39 500.89 216.46 501.06C214.12 501.4 212.41 503.28 210.23 503.79C206.34 504.47 203.06 500.71 199.17 500.2C198.39 500.2 197.611 500.2 196.991 500.71C196.521 501.05 196.21 501.74 195.9 502.25C194.03 506.52 192.631 510.97 192.471 515.59C192.471 520.89 194.341 526.02 194.811 531.15C195.121 535.59 194.501 539.87 195.121 544.14C195.741 548.58 198.081 552.86 201.201 555.77H206.19C210.71 555.6 215.38 555.09 219.9 554.4L219.891 554.42ZM244.541 546.03C244.541 546.03 224.58 552.22 218.32 546.03C218.11 543.42 220.44 542.87 220.44 542.87C220.44 542.87 237.621 545.47 243.161 543.83C246.241 543.55 244.541 546.03 244.541 546.03ZM234.8 528.57C238.38 529.26 242.31 533.66 241.25 536.96C241.25 536.96 238.901 536.81 236.161 536.7C236.151 536.71 236.161 536.74 236.141 536.75L232.081 536.61C229.951 536.61 228.121 536.69 227.561 536.97C225.951 537.8 225.741 535.05 226.061 533.95C226.381 532.85 231.211 527.9 234.791 528.59L234.8 528.57ZM210.69 506.29C212.83 502.71 216.601 504.69 218.221 506.07C220.231 507.26 222.571 507.89 224.831 508.27L225 508.3L225.09 508.38C226.39 509.48 227.621 511.09 227.721 513.31C227.731 515.58 226.32 516.97 225.11 517.84C226.24 516.74 227.301 515.06 227.041 513.4C226.771 511.84 225.63 510.66 224.57 509.78C222.21 509.55 219.89 509.13 217.59 507.98C215.39 506.53 213.321 505.87 212.271 507.9C211.281 509.86 210.85 513.14 210.88 515.7C210.96 517.9 213.35 519.81 214.69 522.44L214.73 522.5C214.72 522.48 214.7 522.47 214.69 522.44C215.65 524.44 215.391 526.07 215.391 527.72C215.311 529.36 215.121 530.94 214.911 532.52C214.371 535.66 213.651 538.71 212.871 541.73C213.301 538.6 213.61 535.44 213.82 532.31C213.97 530.75 214.091 529.19 214.101 527.66C214.121 526.2 214.001 524.42 213.581 523.73L213.541 523.67C212.341 521.26 209.75 520.18 208.98 516.05C208.82 512.61 208.93 509.38 210.69 506.3V506.29ZM206.771 529.2C212.451 528.68 211.371 537.09 211.371 537.09C211.371 537.09 210.961 536.92 208.931 536.92C208.121 536.92 207.041 536.92 205.411 537.09H204.601C200.131 536.92 199.32 532.88 199.32 532.88C199.32 532.88 200.941 529.55 206.771 529.2ZM201 544.41C202.87 544.41 212.221 543.9 212.221 543.9C212.221 543.9 213.931 544.93 212.221 546.81C210.351 548.86 201.311 546.81 201.311 546.81C196.981 546.22 191.91 544.15 201 544.42V544.41Z" fill="#FB898C"/>
<path d="M296.08 454.75C291.25 454.24 286.109 455.95 281.279 456.97C277.069 458 273.019 458.51 269.129 456.8C266.949 455.95 264.77 454.4 262.43 454.75C258.22 455.26 255.42 462.1 251.37 460.73C248.72 459.7 247.94 456.11 246.85 453.38C244.82 448.94 240.77 446.03 236.41 444.66C232.05 443.29 227.37 443.12 222.85 443.12C218.8 443.12 214.59 443.29 210.7 444.49C208.36 445.17 206.019 446.54 203.689 447.05C199.319 448.08 194.809 446.88 190.439 447.73C185.299 448.76 180.78 452.69 178.75 457.82C178.28 458.85 177.97 459.87 177.66 460.9V461.24C176.88 463.63 176.259 466.2 174.859 468.08C172.369 471.33 168.47 472.18 165.04 474.06C165.04 474.06 164.89 474.06 164.89 474.23C161.62 476.28 158.66 480.38 160.37 483.97C160.53 484.66 160.99 485.17 161.46 485.51C164.26 488.24 168.94 486.02 172.52 487.39C176.42 488.76 178.29 493.71 178.75 498.16C179.22 502.78 178.75 507.39 180.47 511.5C182.19 515.26 185.299 518 187.009 521.58C189.659 527.05 188.719 533.89 188.569 540.22C188.419 546.54 188.1 552.87 193.25 555.78H201.2C198.08 552.87 195.75 548.6 195.12 544.15C194.49 539.88 195.12 535.6 194.81 531.16C194.34 526.03 192.47 520.9 192.47 515.6C192.63 510.98 194.029 506.54 195.899 502.26C196.209 501.75 196.52 501.06 196.99 500.72C197.61 500.21 198.389 500.21 199.169 500.21C203.059 500.72 206.34 504.48 210.23 503.8C212.41 503.29 214.13 501.41 216.46 501.07C217.39 500.9 218.489 500.9 219.569 501.07C223.149 501.58 226.889 502.27 230.169 500.39C232.039 499.54 233.439 497.83 235.149 496.46C236.869 495.26 239.049 494.41 240.919 495.61C242.789 496.64 243.409 499.2 243.569 501.42C243.729 503.64 243.73 506.04 244.66 508.09C246.53 511.51 251.2 512.71 251.83 516.64C252.3 519.2 250.739 521.43 249.799 523.65C248.239 527.07 247.769 531.17 248.399 534.94C248.709 536.65 249.34 538.53 249.02 540.24C248.4 544.17 243.88 546.39 242.48 549.99C244.51 549.47 246.69 548.79 248.71 548.11C255.1 546.4 261.489 544.01 268.029 541.27C270.829 540.07 273.64 538.71 276.6 537.34H276.75C279.4 536.31 280.179 534.6 280.649 532.72C281.269 529.64 281.12 526.05 282.99 523.66C284.24 522.12 285.95 521.27 287.2 519.73C290.31 515.63 288.449 508.96 291.089 504.51C294.049 499.04 301.53 499.38 305.89 495.28C308.23 493.06 309.47 489.81 310.56 486.73C311.65 483.48 312.739 480.06 313.049 476.64C313.209 474.59 313.05 472.71 312.58 470.83C310.71 462.45 303.86 455.44 296.06 454.76L296.08 454.75ZM220.81 492.15C219.51 492.68 218.139 493.22 216.819 492.8C216.299 492.64 215.799 492.33 215.279 492.16C214.239 491.82 214.21 491.87 213.14 492.05C212.12 492.23 210.609 492.61 209.589 492.41C208.579 492.22 208.059 491.2 207.379 490.2C207.089 489.55 206.989 487.8 207.529 487.53C210.739 485.92 213.84 486.74 217.25 486.09C218.96 485.77 220.69 485.44 222.41 485.56C222.77 485.58 223.17 485.66 223.37 486.05C223.47 486.25 223.5 486.5 223.52 486.74C223.81 489.81 223.039 491.22 220.799 492.14L220.81 492.15Z" fill="black"/>
<path d="M329.74 445.34C326.31 437.47 320.08 417.64 309.33 394.9C302.32 395.75 293.899 392.68 287.359 389.26C286.729 389.09 286.27 388.75 285.64 388.41C281.9 386.36 278.79 384.3 276.91 382.94C264.44 383.97 256.34 386.7 249.33 375.08C248.55 373.88 247.929 372.86 247.299 371.83V371.66C247.139 371.66 246.83 371.49 246.68 371.32C246.52 371.15 246.209 370.98 246.049 370.81C242.929 368.25 240.28 364.83 238.1 360.9C236.23 357.48 234.67 353.55 233.74 349.44L228.91 326.36H210.68C241.68 362.43 269.579 427.4 281.259 456.98C286.089 455.95 291.23 454.25 296.06 454.76C303.85 455.44 310.71 462.45 312.58 470.83C320.53 468.1 334.55 461.08 330.66 447.75H330.5C330.35 447.07 330.03 446.21 329.72 445.36L329.74 445.34Z" fill="#EFEFEF"/>
<path d="M177.67 460.9C177.98 459.87 178.29 458.85 178.76 457.82C180.79 452.69 185.3 448.76 190.45 447.73C194.81 446.88 199.33 448.07 203.7 447.05C206.04 446.54 208.37 445.17 210.71 444.49C214.6 443.29 218.81 443.12 222.86 443.12C227.38 443.12 232.05 443.29 236.42 444.66C240.78 446.03 244.83 448.93 246.86 453.38C247.95 456.12 248.73 459.71 251.38 460.73C255.43 462.1 258.23 455.26 262.44 454.75C264.78 454.41 266.96 455.95 269.14 456.8C273.04 458.51 277.09 458 281.29 456.97C269.6 427.39 241.71 362.42 210.71 326.35H202.61C182.2 370.12 178.46 434.74 177.68 460.9H177.67ZM215.89 387.45C214.13 381.1 209.04 372.96 205.3 368.36C204.96 367.94 205.36 367.31 205.84 367.5C211.88 369.87 223.45 369.87 229.49 367.5C229.97 367.31 230.38 367.93 230.04 368.35C226.4 372.84 221.59 380.68 219.44 387.44C218.88 389.99 218.75 394.37 219.01 398.42C223.33 398.42 224.02 397.34 225.83 395.13C227.93 390.32 232.88 386.47 238.06 386.47C245.77 386.47 251.92 393.82 251 402.49C250.33 408.81 245.75 414.01 240.01 414.92C234.01 415.88 228.67 412.35 226.31 406.94C224.66 404.79 223.77 401.68 219.1 401.58C219.31 407.27 221.15 411.03 223.27 412.73C227.65 415.03 230.68 419.93 230.68 425.62C230.68 434.08 223.98 440.83 216.09 439.82C210.33 439.09 205.59 434.06 204.76 427.77C203.89 421.19 207.1 415.32 212.03 412.73C214.48 410.48 216.21 407.18 216.42 401.54C211.99 401.71 210.65 404.78 209.01 406.94C206.65 412.34 201.3 415.88 195.3 414.92C189.57 414 184.98 408.8 184.32 402.48C183.41 393.82 189.56 386.47 197.26 386.47C202.44 386.47 207.39 390.33 209.49 395.13C211.33 397.37 212.41 398.58 216.43 398.44C216.49 396.37 216.56 390.56 215.88 387.44L215.89 387.45Z" fill="#FF0200"/>
<path d="M159.91 341.74C159.99 341.87 160.12 341.98 160.22 342.13C160.11 341.99 160.03 341.82 159.93 341.67C159.93 341.7 159.91 341.72 159.91 341.75V341.74Z" fill="#EFEFEF"/>
<path d="M161 343.09C161.06 343.14 161.1 343.24 161.15 343.28C161.62 343.79 162.24 344.13 163.02 344.48C162.25 344.18 161.59 343.67 160.99 343.1L161 343.09Z" fill="#EFEFEF"/>
<path d="M163.779 329.28C164.279 329.1 164.78 328.89 165.31 328.84C164.81 328.89 164.309 328.91 163.839 329.08C163.819 329.15 163.799 329.22 163.779 329.28Z" fill="#EFEFEF"/>
<path d="M149.62 381.23C149.31 381.66 149.85 382.56 150.89 383.63C149.86 382.56 149.31 381.66 149.62 381.23Z" fill="#EFEFEF"/>
<path d="M174.86 468.08C176.26 466.2 176.89 463.63 177.66 461.24V460.9C178.44 434.74 182.18 370.12 202.59 326.35H171.9C173.15 327.03 174.08 328.06 174.86 329.43C176.89 332.68 177.51 336.95 176.11 341.06C175.33 343.11 174.24 344.82 172.84 346.19C171.59 347.55 169.88 348.41 168.17 348.92L166.61 353.71L166.46 354.05C166.93 354.05 167.55 354.05 168.02 353.88C168.8 355.25 170.98 360.55 167.4 364.14C166.15 365.51 164.44 365.34 162.88 364.48L162.26 366.36C159.15 364.99 157.43 362.43 156.49 360.55C156.18 360.21 156.02 359.87 156.02 359.52C156.02 359.86 156.18 360.21 156.49 360.55C157.43 362.43 159.14 365 162.26 366.36C163.51 367.04 165.22 367.56 167.09 367.56C169.12 367.22 168.18 374.06 164.6 373.2C163.04 372.86 161.64 372.69 160.24 372.18L159.15 375.6C155.25 372.52 150.89 368.93 153.54 369.44C150.89 368.93 155.26 372.52 159.15 375.6C161.8 377.65 164.29 379.53 164.29 379.53C164.29 379.53 168.34 384.32 160.86 385.86C158.99 385.52 157.59 385 156.03 384.49L155.09 387.05C157.58 388.76 160.39 390.3 161.94 390.3C165.68 390.64 161.78 397.99 158.82 397.82C157.73 397.82 155.08 396.97 152.12 395.77L140.7 429.22C144.47 447.52 157.58 465.41 164.9 474.24C164.9 474.07 165.05 474.07 165.05 474.07C168.48 472.19 172.37 471.34 174.87 468.09L174.86 468.08Z" fill="#EFEFEF"/>
<path d="M346.42 326.35H345.01C344.07 351.65 335.97 370.8 323.51 387.04C319.46 392.17 314.47 394.39 309.33 394.91C320.08 417.65 326.31 437.48 329.74 445.35C330.05 446.2 330.37 447.06 330.52 447.74H330.68C346.73 433.21 379.29 395.25 378.98 326.35H346.42Z" fill="#444891"/>
<path d="M295.93 344.81C317.43 341.73 304.499 372.34 293.439 384.47C296.709 384.81 300.3 384.3 303.1 382.08C305.75 380.03 308.24 376.27 309.64 370.11C312.44 358.14 313.999 340.7 314.939 326.34H293.589L295.149 333.52C295.929 337.28 296.24 341.04 295.93 344.8V344.81Z" fill="#FF0200"/>
<path d="M162.4 329.77C161.93 330.11 161.62 330.28 161.31 330.8C161.3 330.8 161.3 330.82 161.29 330.83C161.78 330.37 162.25 329.87 162.82 329.57C162.68 329.64 162.54 329.72 162.4 329.77Z" fill="#444891"/>
<path d="M138.71 387.56C135.13 382.43 131.701 370.12 131.701 370.12C131.701 370.12 129.05 363.45 125.78 359.69C124.07 361.57 121.571 362.26 119.241 361.91C116.591 361.39 114.26 360.03 111.92 358.32C102.84 351.91 95.2205 342.29 92.4805 330.86C96.9005 363.14 117.451 396.17 132.331 415.93L141.21 389.94C140.12 389.26 139.341 388.4 138.721 387.55L138.71 387.56Z" fill="#444891"/>
<path d="M158.98 334.2C158.98 334.2 158.981 334.2 158.971 334.22C158.971 334.24 158.971 334.25 158.971 334.27C158.971 334.25 158.971 334.23 158.971 334.22C158.971 334.22 158.971 334.21 158.971 334.2H158.98Z" fill="#444891"/>
<path d="M159.75 341.56H159.87C159.78 341.41 159.68 341.27 159.59 341.12C159.66 341.26 159.66 341.43 159.74 341.56H159.75Z" fill="#444891"/>
<path d="M163.799 329.08C163.479 329.2 163.17 329.38 162.85 329.54C163.13 329.39 163.45 329.39 163.74 329.29C163.76 329.22 163.779 329.15 163.799 329.08Z" fill="#444891"/>
<path d="M159.91 341.62V341.74C159.91 341.74 159.92 341.69 159.93 341.66C159.93 341.65 159.92 341.63 159.91 341.62Z" fill="#444891"/>
<path d="M222.42 485.56C220.69 485.44 218.97 485.76 217.26 486.09C213.86 486.73 210.76 485.92 207.54 487.53C207 487.8 207.1 489.55 207.39 490.2C208.06 491.2 208.58 492.21 209.6 492.41C210.62 492.6 212.13 492.22 213.15 492.05C214.21 491.87 214.24 491.82 215.29 492.16C215.81 492.33 216.3 492.64 216.83 492.8C218.15 493.21 219.52 492.68 220.82 492.15C223.07 491.23 223.83 489.82 223.54 486.75C223.52 486.51 223.49 486.26 223.39 486.06C223.19 485.67 222.78 485.59 222.43 485.57L222.42 485.56Z" fill="#9C5F59"/>
<path d="M212.23 546.8C213.94 544.92 212.23 543.89 212.23 543.89C212.23 543.89 202.88 544.4 201.01 544.4C191.92 544.14 196.99 546.21 201.32 546.79C201.32 546.79 210.36 548.84 212.23 546.79V546.8Z" fill="black"/>
<path d="M220.439 542.86C220.439 542.86 218.099 543.41 218.319 546.02C224.579 552.21 244.539 546.02 244.539 546.02C244.539 546.02 246.24 543.55 243.16 543.82C237.62 545.45 220.439 542.86 220.439 542.86Z" fill="black"/>
<path d="M227.57 536.95C228.13 536.67 229.96 536.58 232.09 536.59L231.28 536.56C230.74 535.86 230.47 534.98 230.47 533.93C230.47 531.65 231.96 529.72 233.72 529.72C235.48 529.72 236.97 531.65 236.97 533.93C236.97 534.96 236.69 535.98 236.17 536.69C238.91 536.8 241.26 536.95 241.26 536.95C242.32 533.65 238.39 529.25 234.81 528.56C231.23 527.87 226.4 532.82 226.08 533.92C225.76 535.02 225.97 537.77 227.58 536.94L227.57 536.95Z" fill="#CCCCCC"/>
<path d="M233.71 529.73C231.95 529.73 230.46 531.66 230.46 533.94C230.46 534.99 230.73 535.87 231.27 536.57L232.08 536.6L236.14 536.74C236.14 536.74 236.14 536.7 236.16 536.69C236.68 535.99 236.96 534.97 236.96 533.93C236.96 531.65 235.47 529.72 233.71 529.72V529.73Z" fill="black"/>
<path d="M204.61 537.09C203.93 536.22 203.53 535.16 203.53 533.93C203.53 531.65 205.02 529.72 206.78 529.72C208.54 529.72 209.89 531.65 209.89 533.93C209.89 534.98 209.62 536.03 208.94 536.91C210.97 536.91 211.38 537.08 211.38 537.08C211.38 537.08 212.46 528.67 206.78 529.19C200.96 529.54 199.33 532.87 199.33 532.87C199.33 532.87 200.14 536.9 204.61 537.08V537.09Z" fill="#CCCCCC"/>
<path d="M206.779 529.73C205.019 529.73 203.529 531.66 203.529 533.94C203.529 535.17 203.939 536.22 204.609 537.1H205.419C207.049 536.93 208.129 536.93 208.939 536.93C209.619 536.05 209.89 535 209.89 533.95C209.89 531.67 208.539 529.74 206.779 529.74V529.73Z" fill="black"/>
<path d="M214.7 522.44C214.7 522.44 214.73 522.48 214.74 522.5L214.7 522.44Z" fill="black"/>
<path d="M213.59 523.72C214 524.42 214.13 526.19 214.11 527.65C214.11 529.19 213.98 530.75 213.83 532.3C213.61 535.43 213.3 538.59 212.88 541.72C213.66 538.7 214.38 535.65 214.92 532.51C215.13 530.93 215.33 529.34 215.4 527.71C215.4 526.06 215.66 524.43 214.7 522.43C213.36 519.79 210.97 517.89 210.89 515.69C210.86 513.13 211.29 509.85 212.28 507.89C213.33 505.86 215.4 506.52 217.6 507.97C219.9 509.11 222.22 509.53 224.58 509.77C225.64 510.65 226.78 511.82 227.05 513.39C227.31 515.05 226.25 516.73 225.12 517.83C226.33 516.96 227.75 515.57 227.73 513.3C227.62 511.08 226.39 509.47 225.1 508.37L225.01 508.29L224.84 508.26C222.57 507.88 220.24 507.25 218.23 506.06C216.6 504.67 212.84 502.7 210.7 506.28C208.94 509.36 208.83 512.59 208.99 516.03C209.76 520.16 212.36 521.23 213.55 523.65L213.59 523.71V523.72Z" fill="black"/>
<path d="M209.5 395.14C207.4 390.33 202.45 386.48 197.27 386.48C189.56 386.48 183.41 393.83 184.33 402.49C185 408.81 189.58 414.01 195.31 414.93C201.31 415.89 206.66 412.36 209.02 406.95C210.67 404.79 212 401.72 216.43 401.55C216.22 407.19 214.49 410.49 212.04 412.74C207.12 415.33 203.9 421.2 204.77 427.78C205.61 434.07 210.35 439.1 216.1 439.83C223.99 440.84 230.69 434.09 230.69 425.63C230.69 419.94 227.659 415.04 223.279 412.74C221.159 411.04 219.309 407.28 219.109 401.59C223.769 401.69 224.669 404.8 226.319 406.95C228.679 412.35 234.02 415.88 240.02 414.93C245.76 414.01 250.339 408.82 251.009 402.5C251.929 393.83 245.779 386.48 238.069 386.48C232.889 386.48 227.939 390.34 225.839 395.14C224.029 397.34 223.33 398.42 219.02 398.43C218.76 394.38 218.9 390 219.45 387.45C221.6 380.68 226.409 372.85 230.049 368.36C230.389 367.94 229.99 367.32 229.5 367.51C223.46 369.88 211.89 369.88 205.85 367.51C205.36 367.32 204.96 367.94 205.31 368.37C209.05 372.97 214.129 381.1 215.899 387.46C216.579 390.58 216.5 396.4 216.45 398.46C212.44 398.6 211.349 397.39 209.509 395.15L209.5 395.14Z" fill="black"/>
<path d="M309.64 370.12C308.24 376.28 305.75 380.04 303.1 382.09C300.3 384.31 296.709 384.82 293.439 384.48C291.259 387.04 289.079 388.76 287.359 389.27C293.899 392.69 302.31 395.77 309.33 394.91C314.47 394.4 319.459 392.18 323.509 387.04C335.979 370.8 344.079 351.65 345.009 326.35H314.939C313.999 340.71 312.45 358.15 309.64 370.12Z" fill="#968C8B"/>
<path d="M239.681 347.89C240.301 350.8 241.241 353.53 242.641 356.09C242.641 355.92 242.64 355.75 242.8 355.58C244.67 351.14 248.251 355.07 248.721 360.71C248.881 362.25 249.661 364.13 250.751 366.18V366.35C251.681 367.2 252.62 367.89 253.71 368.4C252 365.15 250.44 361.9 250.13 360.2C249.35 356.09 249.351 340.37 249.351 340.37C249.351 340.37 250.131 335.75 253.561 340.37C256.991 344.99 256.831 358.83 256.831 358.83C256.831 358.83 260.261 370.11 264.001 371.14C267.741 372.17 263.38 367.38 263.38 367.38C263.38 367.38 260.111 363.11 259.021 354.56C257.461 348.57 255.591 341.22 254.971 339.52C254.501 337.13 256.841 334.22 259.641 338.32C262.291 342.42 263.381 352.85 265.411 356.1C267.431 359.18 269.46 363.62 272.11 365.33C274.76 366.87 277.101 365.67 274.141 362.6C271.181 359.69 265.1 353.88 264.63 342.94C264.94 337.81 269.311 337.81 271.021 342.09C272.581 346.53 272.42 351.84 274.13 354.06C275.38 355.77 280.521 361.75 284.101 361.75H284.26C285.35 360.04 286.44 357.99 287.38 355.94C287.53 355.94 287.53 355.77 287.53 355.77C290.18 349.79 290.801 342.26 289.251 335.08L287.38 326.36H235.501L230.82 304.82C230.2 301.91 229.26 299.18 227.86 296.62C227.86 296.79 227.86 296.96 227.71 297.13C225.84 301.57 222.251 297.64 221.791 292C221.631 290.46 220.85 288.58 219.76 286.53V286.36C218.82 285.51 217.89 284.82 216.8 284.31C218.52 287.56 220.07 290.81 220.38 292.51C221.16 296.62 221.161 312.34 221.161 312.34C221.161 312.34 220.381 316.96 216.951 312.34C213.521 307.72 213.681 293.87 213.681 293.87C213.681 293.87 210.25 282.59 206.51 281.56C202.77 280.53 207.141 285.32 207.141 285.32C207.141 285.32 210.411 289.59 211.501 298.14C213.061 304.12 214.93 311.48 215.55 313.18C216.02 315.57 213.681 318.48 210.871 314.38C208.221 310.28 207.131 299.85 205.101 296.6C203.071 293.52 201.05 289.08 198.4 287.37C195.75 285.83 193.411 287.03 196.371 290.1C199.331 293.01 205.411 298.82 205.871 309.76C205.561 314.89 201.2 314.89 199.48 310.62C197.92 306.17 198.081 300.87 196.371 298.65C195.121 296.94 189.98 290.96 186.4 290.96H186.241C185.151 292.67 184.061 294.72 183.121 296.77C182.961 296.77 182.96 296.94 182.96 296.94C180.31 302.93 179.691 310.45 181.251 317.63L183.121 326.35H235.001L239.67 347.89H239.681Z" fill="#E9AB00"/>
<path d="M258.53 377.3C258.53 376.96 256.041 372.86 253.851 368.58C253.691 368.58 253.69 368.41 253.69 368.41C252.6 367.9 251.67 367.21 250.73 366.36C253.53 371.66 258.211 377.3 258.521 377.3H258.53Z" fill="#FFFB15"/>
<path d="M242.64 356.1C241.24 353.54 240.3 350.8 239.68 347.9L235.009 326.36H228.93L233.759 349.44C234.699 353.54 236.25 357.47 238.12 360.9C240.3 364.83 242.949 368.25 246.069 370.81C246.229 370.98 246.54 371.15 246.7 371.32C246.85 371.49 247.169 371.66 247.319 371.66C242.019 362.77 241.09 359.87 242.64 356.1Z" fill="#FFFB15"/>
<path d="M287.51 355.75C287.51 355.75 287.51 355.92 287.36 355.92C286.42 357.97 285.33 360.03 284.24 361.73C285.18 361.73 285.8 361.22 286.42 360.19C286.89 359.16 287.51 358.14 288.29 357.11C289.54 355.23 290.94 353.35 292.5 352.15C293.43 351.47 294.37 350.95 295.3 350.95C295.61 348.9 295.92 346.84 295.92 344.79C296.23 341.03 295.92 337.27 295.14 333.51L293.58 326.33H287.35L289.22 335.05C290.78 342.23 290.16 349.75 287.5 355.74L287.51 355.75Z" fill="#FFFB15"/>
<path d="M283.001 381.74H283.15C284.71 380.89 286.11 379.86 287.51 378.49C290.63 375.76 293.12 371.65 295.15 367.72C298.26 361.56 299.981 355.58 299.981 355.58C298.581 352.16 297.021 350.96 295.311 350.96C294.371 350.96 293.44 351.47 292.51 352.16C290.95 353.36 289.55 355.24 288.3 357.12C287.52 358.15 286.901 359.17 286.431 360.2C285.811 361.23 285.181 361.74 284.251 361.74H284.09C280.51 361.74 275.361 355.75 274.121 354.05C272.401 351.83 272.56 346.53 271.01 342.08C269.29 337.81 264.931 337.81 264.621 342.93C265.091 353.87 271.16 359.68 274.13 362.59C277.09 365.67 274.751 366.86 272.101 365.32C269.451 363.61 267.42 359.16 265.4 356.09C263.37 352.84 262.29 342.41 259.63 338.31C256.83 334.21 254.49 337.11 254.96 339.51C255.58 341.22 257.45 348.57 259.01 354.55C260.1 363.1 263.371 367.37 263.371 367.37C263.371 367.37 267.731 372.16 263.991 371.13C260.251 370.1 256.82 358.82 256.82 358.82C256.82 358.82 256.98 344.97 253.55 340.36C250.12 335.75 249.34 340.36 249.34 340.36C249.34 340.36 249.341 356.09 250.121 360.19C250.431 361.9 251.991 365.15 253.701 368.39C253.701 368.39 253.7 368.56 253.86 368.56C256.04 372.84 258.541 376.94 258.541 377.28C258.231 377.28 253.551 371.64 250.751 366.34V366.17C249.661 364.12 248.881 362.24 248.721 360.7C248.251 355.06 244.67 351.13 242.8 355.57C242.64 355.74 242.641 355.91 242.641 356.08C241.081 359.84 242.02 362.75 247.32 371.64V371.81C247.94 372.84 248.571 373.86 249.351 375.06C256.361 386.69 264.461 383.95 276.931 382.92C277.551 382.92 278.33 382.75 278.96 382.75C280.36 382.75 281.77 382.41 283.01 381.72L283.001 381.74Z" fill="#FB898C"/>
<path d="M295.93 344.81C295.93 346.86 295.62 348.92 295.31 350.97C297.02 350.97 298.58 352.17 299.98 355.59C299.98 355.59 298.26 361.57 295.15 367.73C293.13 371.66 290.63 375.77 287.51 378.5C286.11 379.87 284.71 380.89 283.15 381.75H283C281.75 382.43 280.35 382.78 278.95 382.78C278.33 382.78 277.55 382.95 276.92 382.95C278.79 384.32 281.91 386.37 285.65 388.42C286.27 388.76 286.74 389.1 287.37 389.27C289.08 388.76 291.26 387.05 293.45 384.48C304.51 372.34 317.45 341.74 295.94 344.82L295.93 344.81Z" fill="#E4BFFF"/>
<path d="M159.91 326.35C157.88 327.89 156.33 329.94 155.39 332.67C155.23 333.01 155.23 333.36 155.08 333.7C154.14 337.46 154.92 341.22 156.79 344.13C157.26 344.81 157.73 345.67 158.35 346.18C159.13 347.38 160.22 348.23 161.62 348.74C163.8 349.59 165.98 349.42 168.16 348.91C169.88 348.4 171.59 347.54 172.83 346.18C174.24 344.81 175.32 343.1 176.1 341.05C177.5 336.95 176.88 332.67 174.85 329.42C174.07 328.05 173.13 327.03 171.89 326.34H159.89L159.91 326.35ZM165.58 328.79C166.48 328.74 167.41 328.88 168.32 329.25C171.9 330.79 173.77 335.4 172.37 339.68C171.32 342.76 168.69 344.78 165.86 344.94C164.92 345 163.95 344.85 163.02 344.46C162.24 344.12 161.62 343.78 161.15 343.26C161.09 343.22 161.05 343.12 161 343.07C160.7 342.78 160.47 342.45 160.22 342.11C160.12 341.97 159.99 341.85 159.91 341.72V341.6C159.91 341.6 159.89 341.57 159.88 341.54H159.76C159.68 341.41 159.68 341.23 159.61 341.1C159.25 340.4 159.01 339.68 158.84 338.89C158.76 338.49 158.63 338.11 158.59 337.69C158.51 336.54 158.59 335.38 158.97 334.25C158.97 334.23 158.97 334.22 158.97 334.2C158.97 334.2 158.97 334.19 158.98 334.18C159.5 332.78 160.33 331.7 161.28 330.81C161.29 330.81 161.29 330.79 161.3 330.78C161.61 330.27 161.92 330.1 162.39 329.75C162.53 329.7 162.67 329.62 162.81 329.55C162.81 329.55 162.83 329.54 162.84 329.53C163.16 329.36 163.47 329.18 163.79 329.07C163.81 329.07 163.82 329.07 163.84 329.07C164.31 328.9 164.81 328.88 165.31 328.83C165.4 328.83 165.48 328.79 165.57 328.79H165.58Z" fill="#FFA724"/>
<path d="M164.27 353.87C163.49 353.7 162.87 353.36 162.09 353.02C160.22 351.99 158.66 350.46 157.57 348.75C157.1 348.41 156.79 348.07 156.48 347.55C156.33 347.21 156.01 347.04 155.86 346.7C152.28 342.26 148.85 337.64 145.42 333.2C142.62 329.78 139.19 326.02 135.14 326.7C131.25 327.38 129.06 331.66 127.51 335.59C126.11 339.01 124.71 342.43 123.46 346.02C123.93 346.36 124.39 346.87 124.71 347.39C127.2 350.3 128.6 354.91 126.89 358.33C126.89 358.5 126.73 358.84 126.58 359.02C126.42 359.36 126.11 359.7 125.8 359.7C129.07 363.46 131.72 370.13 131.72 370.13C131.72 370.13 135.15 382.44 138.73 387.57C139.35 388.42 140.13 389.28 141.22 389.96C142.42 390.91 143.98 391.83 145.58 392.72C147.71 393.9 150.01 394.99 152.09 395.76C152.1 395.76 152.12 395.77 152.13 395.78C155.09 396.98 157.74 397.83 158.83 397.83C161.79 398 165.69 390.65 161.95 390.31C160.39 390.31 157.59 388.77 155.1 387.06C153.46 385.95 151.95 384.71 150.91 383.64C149.88 382.57 149.33 381.67 149.64 381.24C152.44 382.78 154.31 383.8 156.03 384.49C157.59 385 158.99 385.52 160.86 385.86C168.34 384.32 164.29 379.53 164.29 379.53C164.29 379.53 161.8 377.65 159.15 375.6C155.25 372.52 150.89 368.93 153.54 369.44C156.03 370.81 158.06 371.66 160.24 372.17C161.64 372.69 163.04 372.86 164.6 373.2C168.18 374.06 169.12 367.22 167.09 367.56C165.22 367.56 163.51 367.05 162.26 366.36C159.15 364.99 157.43 362.43 156.49 360.55C156.18 360.21 156.02 359.87 156.02 359.52C155.71 358.84 155.55 358.32 155.55 358.15L156.8 359.52C157.27 360.03 157.89 360.72 158.51 361.23C158.98 361.92 159.6 362.26 160.07 362.77C160.23 362.94 160.38 362.94 160.54 363.11C161.32 363.62 162.1 364.14 162.88 364.48C164.44 365.33 166.15 365.51 167.4 364.14C170.98 360.55 168.8 355.25 168.02 353.88C167.55 354.05 166.93 354.05 166.46 354.05C165.83 354.05 165.21 354.05 164.59 353.88H164.28L164.27 353.87Z" fill="#FB898C"/>
<path d="M160.06 362.77C159.59 362.25 158.97 361.92 158.5 361.23C157.88 360.72 157.25 360.03 156.79 359.52L155.54 358.16C155.54 358.33 155.7 358.84 156.01 359.52C156.01 359.86 156.17 360.2 156.48 360.55C157.42 362.43 159.13 365 162.25 366.36L162.87 364.48C162.09 364.14 161.31 363.63 160.53 363.11C160.38 362.94 160.22 362.94 160.06 362.77Z" fill="#150E00"/>
<path d="M158.35 346.18C157.73 345.66 157.26 344.81 156.79 344.13L155.85 346.69C156.01 347.03 156.32 347.21 156.47 347.54C156.78 348.06 157.1 348.4 157.56 348.74C158.65 350.45 160.21 351.99 162.08 353.01C162.86 353.35 163.489 353.69 164.259 353.86H164.569C165.189 354.03 165.819 354.03 166.439 354.03L166.589 353.69L168.149 348.9C165.969 349.41 163.789 349.58 161.609 348.73C160.209 348.22 159.119 347.36 158.339 346.17L158.35 346.18Z" fill="#150E00"/>
<path d="M111.92 358.32C114.26 360.03 116.59 361.4 119.24 361.91C121.58 362.25 124.07 361.57 125.78 359.69C126.09 359.69 126.4 359.35 126.56 359.01C126.72 358.84 126.87 358.49 126.87 358.32C128.58 354.9 127.18 350.29 124.69 347.38C124.38 346.86 123.91 346.35 123.44 346.01C124.69 342.42 126.09 339 127.49 335.58C129.05 331.65 131.23 327.37 135.12 326.69C139.17 326.01 142.6 329.77 145.4 333.19C148.83 337.63 152.25 342.25 155.84 346.69L156.78 344.13C154.91 341.22 154.13 337.46 155.07 333.7C152.11 331.65 149.46 328.91 146.81 326.35H124.06C121.41 330.45 119.38 335.07 116.74 339.17C116.58 339 116.43 338.83 116.27 338.66C113.78 335.24 112.53 330.79 111.91 326.35H91.5C91.81 327.72 91.9698 329.08 92.2798 330.45C92.3098 330.6 92.4402 330.71 92.4702 330.86C95.2202 342.29 102.84 351.9 111.91 358.32H111.92Z" fill="#E4BFFF"/>
<path d="M159.911 326.35H146.82C149.47 328.91 152.121 331.65 155.081 333.7C155.231 333.36 155.231 333.02 155.391 332.67C156.331 329.94 157.881 327.88 159.911 326.35Z" fill="#5A3FFF"/>
<path d="M116.28 338.66C116.44 338.83 116.59 339 116.75 339.17C119.4 335.07 121.42 330.45 124.07 326.35H111.92C112.54 330.79 113.79 335.24 116.28 338.66Z" fill="#5A3FFF"/>
<path d="M119.39 490.51L114.08 488.33L110.6 486.9L108.34 486.03L108.36 485.98C107.4 485.58 106.31 486.12 105.95 487.19L105.12 489.64C104.77 490.68 105.24 491.8 106.16 492.23V492.2L111.93 494.6L117.7 496.99C118.66 497.37 119.73 496.84 120.09 495.79L120.92 493.34C121.28 492.27 120.79 491.09 119.82 490.69H119.79L119.72 490.65L119.4 490.52L119.39 490.51Z" fill="#FFA724"/>
<path d="M106.15 492.19V492.36H105.99L77.1602 528.78L88.8501 562.46L117.83 545.36V497.15L117.68 496.98L111.91 494.59L106.14 492.19H106.15ZM111.45 539.21V539.24L105.31 542.86L93.0801 550.14L90.8101 543.45L85.71 528.67L85.7598 528.61L103.99 505.52L107.73 507.06L111.47 508.6V539.21H111.45Z" fill="#D44100"/>
<path d="M153.519 369.43C150.869 368.92 155.239 372.51 159.129 375.59L160.22 372.17C158.04 371.65 156.009 370.8 153.519 369.43Z" fill="#150E00"/>
<path d="M150.89 383.62C151.92 384.69 153.44 385.93 155.08 387.04L156.02 384.48C154.3 383.8 152.44 382.77 149.63 381.23C149.32 381.66 149.86 382.56 150.9 383.63L150.89 383.62Z" fill="#150E00"/>
<path d="M152.07 395.74C149.99 394.98 147.691 393.88 145.561 392.7C143.961 391.82 142.401 390.89 141.201 389.94L132.32 415.93L117.831 458.33L108.34 485.97L108.32 486.02L110.581 486.89L114.081 488.24L119.371 490.5L119.69 490.64L128.57 464.65L140.67 429.2L152.09 395.75C152.09 395.75 152.06 395.74 152.05 395.73L152.07 395.74Z" fill="#582A1A"/>
<path d="M163.741 329.29C163.451 329.4 163.131 329.4 162.851 329.54C162.841 329.54 162.83 329.55 162.82 329.56C162.25 329.86 161.78 330.36 161.29 330.82C160.34 331.72 159.501 332.79 158.991 334.19C158.991 334.19 158.991 334.19 158.991 334.21C158.991 334.22 158.991 334.24 158.991 334.26C158.611 335.39 158.52 336.56 158.61 337.7C158.64 338.11 158.77 338.5 158.86 338.9C159.03 339.69 159.27 340.42 159.63 341.11C159.71 341.27 159.811 341.41 159.911 341.55C159.921 341.57 159.93 341.58 159.94 341.61C159.94 341.62 159.95 341.64 159.96 341.65C160.06 341.8 160.14 341.97 160.25 342.11C160.5 342.45 160.73 342.78 161.03 343.07C161.63 343.64 162.28 344.16 163.06 344.45C164 344.84 164.96 344.98 165.9 344.93C168.73 344.76 171.361 342.74 172.411 339.67C173.811 335.39 171.94 330.78 168.36 329.24C167.45 328.87 166.521 328.73 165.621 328.78C165.531 328.78 165.45 328.81 165.36 328.82C164.83 328.87 164.33 329.08 163.83 329.26C163.82 329.26 163.8 329.26 163.78 329.27L163.741 329.29Z" fill="#D43131"/>
<path d="M107.709 507.12L104.009 505.6L85.7397 528.61L85.6895 528.67L90.7896 543.46L93.0693 550.07L105.299 542.86L111.439 539.24V539.21L111.419 508.64L107.709 507.12Z" fill="#150E00"/>
<defs>
<linearGradient id="paint0_linear_145_2851" x1="380.479" y1="-103.53" x2="109.989" y2="690.33" gradientUnits="userSpaceOnUse">
<stop stop-color="#E1E1E1"/>
<stop offset="0.12" stop-color="#ECECEC"/>
<stop offset="0.32" stop-color="#FAFAFA"/>
<stop offset="0.49" stop-color="white"/>
<stop offset="0.7" stop-color="#FBFBFB"/>
<stop offset="0.85" stop-color="#F2F2F2"/>
<stop offset="0.99" stop-color="#E2E2E2"/>
<stop offset="1" stop-color="#E1E1E1"/>
</linearGradient>
</defs>
</svg>
