<svg width="469" height="650" viewBox="0 0 469 650" fill="none" xmlns="http://www.w3.org/2000/svg">
<path d="M439.26 0.609863H29.3799C13.3099 0.609863 0.280029 12.6699 0.280029 27.5399V622.38C0.280029 637.25 13.3099 649.31 29.3799 649.31H439.26C455.33 649.31 468.36 637.25 468.36 622.38V27.5399C468.36 12.6699 455.33 0.609863 439.26 0.609863Z" fill="url(#paint0_linear_145_1412)"/>
<path d="M57.1101 114.63C50.5501 102.55 33.8401 107.23 33.8401 119.21C33.8401 132.63 51.17 137.37 57.02 149.86L57.1101 150.04L57.2 149.86C63.05 137.37 80.3899 132.63 80.3899 119.21C80.3899 107.23 63.6701 102.55 57.1101 114.63Z" fill="#EB3000"/>
<path d="M412.83 535.55C419.39 547.63 436.1 542.95 436.1 530.97C436.1 517.55 418.77 512.81 412.92 500.32L412.83 500.14L412.74 500.32C406.89 512.81 389.55 517.55 389.55 530.97C389.55 542.95 406.27 547.63 412.83 535.55Z" fill="#EB3000"/>
<path d="M329.73 578.64C345.15 607.04 384.46 596.04 384.46 567.88C384.46 536.33 343.71 525.17 329.94 495.8L329.73 495.39L329.52 495.8C315.76 525.17 275 536.32 275 567.88C275 596.04 314.31 607.05 329.73 578.64Z" fill="#EB3000"/>
<path d="M329.25 70.7C313.83 42.3 274.52 53.3 274.52 81.46C274.52 113.01 315.27 124.17 329.04 153.54L329.25 153.95L329.46 153.54C343.22 124.17 383.98 113.02 383.98 81.46C383.98 53.3 344.67 42.29 329.25 70.7Z" fill="#EB3000"/>
<path d="M139.87 578.64C155.29 607.04 194.6 596.04 194.6 567.88C194.6 536.33 153.85 525.17 140.08 495.8L139.87 495.39L139.66 495.8C125.9 525.17 85.1399 536.32 85.1399 567.88C85.1399 596.04 124.45 607.05 139.87 578.64Z" fill="#EB3000"/>
<path d="M139.39 70.7C123.97 42.3 84.6599 53.3 84.6599 81.46C84.6599 113.01 125.41 124.17 139.18 153.54L139.39 153.95L139.6 153.54C153.36 124.17 194.12 113.02 194.12 81.46C194.12 53.3 154.81 42.29 139.39 70.7Z" fill="#EB3000"/>
<path d="M62.45 23.5999H56.3401L23.6899 69.0898V76.2699H50.3999V83.4598C50.3999 84.5498 50.0299 84.8699 49.9099 84.9799C49.6899 85.1799 49.1099 85.4999 47.6399 85.4999H40.77V93.0698H70.99V85.4999H64.97C64.07 85.4999 63.32 85.2698 62.71 84.8398C62.51 84.6898 62.45 84.5699 62.45 84.3099V76.2699H73.3V68.2299H62.45V23.5898V23.5999ZM50.3999 68.2399H33.53L50.3999 44.6099V68.2399Z" fill="#EB3000"/>
<path d="M405.93 626.7H412.04L444.69 581.21V574.031H417.98V566.841C417.98 565.751 418.35 565.431 418.47 565.321C418.69 565.121 419.27 564.801 420.74 564.801H427.61V557.23H397.39V564.801H403.41C404.31 564.801 405.06 565.03 405.67 565.46C405.87 565.61 405.93 565.73 405.93 565.99V574.031H395.08V582.071H405.93V626.71V626.7ZM417.98 582.061H434.85L417.98 605.69V582.061Z" fill="#EB3000"/>
<defs>
<linearGradient id="paint0_linear_145_1412" x1="380.32" y1="-103.54" x2="109.84" y2="690.32" gradientUnits="userSpaceOnUse">
<stop stop-color="#E1E1E1"/>
<stop offset="0.12" stop-color="#ECECEC"/>
<stop offset="0.32" stop-color="#FAFAFA"/>
<stop offset="0.49" stop-color="white"/>
<stop offset="0.7" stop-color="#FBFBFB"/>
<stop offset="0.85" stop-color="#F2F2F2"/>
<stop offset="0.99" stop-color="#E2E2E2"/>
<stop offset="1" stop-color="#E1E1E1"/>
</linearGradient>
</defs>
</svg>
