<svg width="469" height="650" viewBox="0 0 469 650" fill="none" xmlns="http://www.w3.org/2000/svg">
<path d="M439.07 0.769531H29.1898C13.1198 0.769531 0.0898438 12.8295 0.0898438 27.6995V622.54C0.0898438 637.41 13.1198 649.469 29.1898 649.469H439.07C455.14 649.469 468.17 637.41 468.17 622.54V27.6995C468.17 12.8295 455.14 0.769531 439.07 0.769531Z" fill="url(#paint0_linear_145_1317)"/>
<path d="M234.33 257.03L234.13 256.63L233.92 257.03C220.47 285.74 180.64 301.49 180.64 332.34C180.64 358.14 214.76 368.11 231.4 346.52C231.75 345.42 231.37 353.38 230.25 357.86C226.95 368.8 216.59 383.86 209.15 392.15C208.52 392.85 209.25 393.88 210.12 393.55C222.2 389.04 246.09 389.04 258.16 393.55C259.04 393.88 259.76 392.85 259.13 392.15C251.84 383.99 241.88 369.33 238.01 357.85C237.05 353.99 236.47 350.11 236.22 346.22C252.46 369.64 287.62 358.68 287.62 332.34C287.62 301.5 247.78 285.74 234.33 257.03Z" fill="black"/>
<path d="M84.4597 88.1599L59.1796 23.6699H54.6497L30.6796 83.53C29.4396 86.64 28.0796 88.7601 26.6696 89.8201C25.2896 90.8601 23.3296 91.3899 20.8596 91.3899H19.8496V96.9399H47.1596V91.3899H43.7896C41.2996 91.3899 39.3897 90.91 38.1497 89.95C36.9697 89.0399 36.3997 88.01 36.3997 86.78C36.3997 85.55 36.8096 83.89 37.6096 81.76L40.5996 73.9099H66.8297L72.3397 88.0701C72.5197 88.5501 72.6096 89.0099 72.6096 89.4199C72.6096 89.9699 72.4096 90.3001 71.9196 90.5601C71.1996 90.9401 69.6396 91.3899 66.2596 91.3899H63.0396V96.9399H92.8997V91.3899H89.7196C86.9996 91.3899 85.3396 90.3599 84.4696 88.1599H84.4597ZM42.9296 68.22L53.9496 40.8601L64.6096 68.22H42.9296Z" fill="black"/>
<path d="M383.15 561.85L408.43 626.34H412.96L436.93 566.48C438.17 563.37 439.53 561.25 440.94 560.19C442.32 559.15 444.28 558.62 446.75 558.62H447.76V553.07H420.45V558.62H423.82C426.31 558.62 428.22 559.1 429.46 560.06C430.64 560.97 431.21 562 431.21 563.23C431.21 564.46 430.8 566.12 430 568.25L427.01 576.1H400.78L395.27 561.94C395.09 561.46 395 561 395 560.59C395 560.04 395.2 559.71 395.69 559.45C396.41 559.07 397.97 558.62 401.35 558.62H404.57V553.07H374.71V558.62H377.89C380.61 558.62 382.27 559.65 383.14 561.85H383.15ZM424.68 581.79L413.66 609.15L403 581.79H424.68Z" fill="black"/>
<path d="M56.3497 107.41L56.2598 107.24L56.1697 107.41C50.4497 119.62 33.5098 126.32 33.5098 139.44C33.5098 150.41 48.0197 154.65 55.0997 145.47C55.2497 145 55.0897 148.39 54.6097 150.29C53.2097 154.94 48.7998 161.35 45.6398 164.87C45.3698 165.17 45.6797 165.6 46.0497 165.47C51.1897 163.55 61.3497 163.55 66.4797 165.47C66.8497 165.61 67.1598 165.17 66.8898 164.87C63.7898 161.4 59.5497 155.16 57.9097 150.28C57.4997 148.64 57.2598 146.99 57.1498 145.33C64.0598 155.29 79.0098 150.63 79.0098 139.43C79.0098 126.31 62.0697 119.61 56.3497 107.4V107.41Z" fill="black"/>
<path d="M412.54 542.66L412.63 542.83L412.72 542.66C418.44 530.45 435.38 523.75 435.38 510.63C435.38 499.66 420.87 495.42 413.79 504.6C413.64 505.07 413.8 501.68 414.28 499.78C415.68 495.13 420.09 488.72 423.25 485.2C423.52 484.9 423.21 484.47 422.84 484.6C417.7 486.52 407.54 486.52 402.41 484.6C402.04 484.46 401.73 484.9 402 485.2C405.1 488.67 409.34 494.91 410.98 499.79C411.39 501.43 411.63 503.08 411.74 504.74C404.83 494.78 389.88 499.44 389.88 510.64C389.88 523.76 406.82 530.46 412.54 542.67V542.66Z" fill="black"/>
<defs>
<linearGradient id="paint0_linear_145_1317" x1="380.13" y1="-103.39" x2="109.64" y2="690.479" gradientUnits="userSpaceOnUse">
<stop stop-color="#E1E1E1"/>
<stop offset="0.12" stop-color="#ECECEC"/>
<stop offset="0.32" stop-color="#FAFAFA"/>
<stop offset="0.49" stop-color="white"/>
<stop offset="0.7" stop-color="#FBFBFB"/>
<stop offset="0.85" stop-color="#F2F2F2"/>
<stop offset="0.99" stop-color="#E2E2E2"/>
<stop offset="1" stop-color="#E1E1E1"/>
</linearGradient>
</defs>
</svg>
