<svg width="469" height="650" viewBox="0 0 469 650" fill="none" xmlns="http://www.w3.org/2000/svg">
<path d="M439.48 0.879883H29.6C13.53 0.879883 0.5 12.9401 0.5 27.8101V622.65C0.5 637.52 13.53 649.58 29.6 649.58H439.48C455.55 649.58 468.58 637.52 468.58 622.65V27.8101C468.58 12.9401 455.55 0.879883 439.48 0.879883Z" fill="url(#paint0_linear_145_1375)"/>
<path d="M56.4801 107.41L56.3901 107.24L56.3002 107.41C50.5802 119.62 33.6401 126.32 33.6401 139.44C33.6401 150.41 48.1501 154.65 55.2301 145.47C55.3801 145 55.2201 148.39 54.7401 150.29C53.3401 154.94 48.9301 161.35 45.7701 164.87C45.5001 165.17 45.8102 165.6 46.1802 165.47C51.3202 163.55 61.4801 163.55 66.6101 165.47C66.9801 165.61 67.2901 165.17 67.0201 164.87C63.9201 161.4 59.6802 155.16 58.0402 150.28C57.6302 148.64 57.3902 146.99 57.2802 145.33C64.1902 155.29 79.1401 150.63 79.1401 139.43C79.1401 126.31 62.2001 119.61 56.4801 107.4V107.41Z" fill="black"/>
<path d="M412.67 542.66L412.76 542.83L412.85 542.66C418.57 530.45 435.51 523.75 435.51 510.63C435.51 499.66 421 495.42 413.92 504.6C413.77 505.07 413.93 501.68 414.41 499.78C415.81 495.13 420.22 488.72 423.38 485.2C423.65 484.9 423.34 484.47 422.97 484.6C417.83 486.52 407.67 486.52 402.54 484.6C402.17 484.46 401.86 484.9 402.13 485.2C405.23 488.67 409.47 494.91 411.11 499.79C411.52 501.43 411.76 503.08 411.87 504.74C404.96 494.78 390.01 499.44 390.01 510.64C390.01 523.76 406.95 530.46 412.67 542.67V542.66Z" fill="black"/>
<path d="M396.37 576.76C398.03 569.62 399.04 567.83 399.41 567.38C400 566.65 401.16 566.28 402.88 566.28C414.43 566.28 419.36 566.8 421.45 567.22C420.12 568.67 418.32 570.35 416.06 572.25L403.63 582.72C400.7 585.17 397.79 588.17 395.01 591.64C393.31 593.74 392 596.04 391.11 598.49C390.21 600.94 389.76 603.39 389.76 605.79C389.76 609.3 390.69 612.59 392.51 615.55C394.33 618.52 397.08 620.94 400.66 622.74C407.73 626.29 416.64 626.29 423.82 622.67C427.48 620.83 430.26 618.41 432.1 615.48C433.95 612.54 434.88 609.23 434.88 605.65C434.88 602.33 434 599.55 432.26 597.42C428.81 593.2 423.26 593.08 420.12 596.17C418.66 597.61 417.92 599.44 417.92 601.59C417.92 605.48 420.16 608.15 424.21 609.11C425.39 609.41 425.7 609.64 425.75 610.03C425.75 611.65 424.66 613.3 422.49 614.94C420.15 616.7 417.03 617.6 413.23 617.6C409.97 617.6 407.52 616.71 405.76 614.89C403.98 613.04 403.12 610.51 403.12 607.15C403.12 605.06 403.59 602.67 404.51 600.06C405.45 597.41 406.98 594.6 409.06 591.72C410.55 589.66 415.13 584.45 422.71 576.21L436.95 560.02V554.7H390.81L388.96 578.31H395.99L396.35 576.75L396.37 576.76Z" fill="black"/>
<path d="M72.5897 72.5499C70.9297 79.6899 69.9198 81.4798 69.5498 81.9298C68.9598 82.6598 67.7997 83.0299 66.0797 83.0299C54.5297 83.0299 49.5998 82.5099 47.5098 82.0899C48.8398 80.6399 50.6398 78.9599 52.8998 77.0599L65.3297 66.5899C68.2597 64.1399 71.1697 61.1398 73.9497 57.6698C75.6497 55.5698 76.9597 53.2699 77.8497 50.8199C78.7497 48.3699 79.1997 45.9199 79.1997 43.5199C79.1997 40.0099 78.2697 36.7199 76.4497 33.7599C74.6297 30.7899 71.8798 28.3699 68.2998 26.5699C61.2298 23.0199 52.3198 23.0197 45.1398 26.6397C41.4798 28.4797 38.6997 30.8999 36.8597 33.8299C35.0097 36.7699 34.0797 40.0798 34.0797 43.6598C34.0797 46.9798 34.9597 49.7597 36.6997 51.8897C40.1497 56.1097 45.6997 56.2297 48.8397 53.1397C50.2997 51.6997 51.0398 49.8698 51.0398 47.7198C51.0398 43.8298 48.7998 41.1598 44.7498 40.1998C43.5698 39.9098 43.2597 39.6699 43.2097 39.2799C43.2097 37.6599 44.2997 36.01 46.4697 34.37C48.8097 32.61 51.9297 31.7098 55.7297 31.7098C58.9897 31.7098 61.4397 32.5998 63.1997 34.4198C64.9797 36.2698 65.8397 38.7998 65.8397 42.1598C65.8397 44.2498 65.3697 46.6398 64.4497 49.2498C63.5097 51.8998 61.9798 54.7099 59.8998 57.5899C58.4098 59.6499 53.8298 64.8599 46.2498 73.0999L32.0098 89.2899V94.61H78.1498L79.9998 70.9998H72.9697L72.6097 72.5599L72.5897 72.5499Z" fill="black"/>
<path d="M234.34 594.46L234.54 594.861L234.75 594.46C248.2 565.75 288.03 550 288.03 519.15C288.03 493.35 253.91 483.38 237.27 504.97C236.92 506.07 237.3 498.11 238.42 493.63C241.72 482.69 252.08 467.631 259.52 459.341C260.15 458.641 259.42 457.61 258.55 457.94C246.47 462.45 222.58 462.45 210.51 457.94C209.63 457.61 208.91 458.641 209.54 459.341C216.83 467.501 226.79 482.16 230.66 493.64C231.62 497.5 232.2 501.381 232.45 505.271C216.21 481.851 181.05 492.81 181.05 519.15C181.05 549.99 220.89 565.75 234.34 594.46Z" fill="black"/>
<path d="M234.46 55.52L234.26 55.1201L234.05 55.52C220.6 84.23 180.77 99.9801 180.77 130.83C180.77 156.63 214.89 166.6 231.53 145.01C231.88 143.91 231.5 151.87 230.38 156.35C227.08 167.29 216.72 182.35 209.28 190.64C208.65 191.34 209.38 192.37 210.25 192.04C222.33 187.53 246.22 187.53 258.29 192.04C259.17 192.37 259.89 191.34 259.26 190.64C251.97 182.48 242.01 167.82 238.14 156.34C237.18 152.48 236.6 148.6 236.35 144.71C252.59 168.13 287.75 157.17 287.75 130.83C287.75 99.9901 247.91 84.23 234.46 55.52Z" fill="black"/>
<defs>
<linearGradient id="paint0_linear_145_1375" x1="380.54" y1="-103.27" x2="110.06" y2="690.6" gradientUnits="userSpaceOnUse">
<stop stop-color="#E1E1E1"/>
<stop offset="0.12" stop-color="#ECECEC"/>
<stop offset="0.32" stop-color="#FAFAFA"/>
<stop offset="0.49" stop-color="white"/>
<stop offset="0.7" stop-color="#FBFBFB"/>
<stop offset="0.85" stop-color="#F2F2F2"/>
<stop offset="0.99" stop-color="#E2E2E2"/>
<stop offset="1" stop-color="#E1E1E1"/>
</linearGradient>
</defs>
</svg>
