<svg width="469" height="650" viewBox="0 0 469 650" fill="none" xmlns="http://www.w3.org/2000/svg">
<path d="M439.61 0.879883H29.7299C13.6599 0.879883 0.629883 12.9401 0.629883 27.8101V622.65C0.629883 637.52 13.6599 649.58 29.7299 649.58H439.61C455.68 649.58 468.71 637.52 468.71 622.65V27.8101C468.71 12.9401 455.68 0.879883 439.61 0.879883Z" fill="url(#paint0_linear_145_1383)"/>
<path d="M67.5502 57.0798C70.1902 55.5898 72.2001 53.9496 73.6101 52.1296C75.7901 49.3296 76.8901 45.9697 76.8901 42.1697C76.8901 36.9097 74.8801 32.4396 70.9401 28.8796C67.0501 25.3696 61.8401 23.5898 55.4401 23.5898C48.5701 23.5898 43.1601 25.6497 39.3801 29.7097C36.6401 32.6597 35.2601 36.1097 35.2601 39.9497C35.2601 42.5597 35.9101 44.6797 37.2101 46.2397C39.8401 49.4097 44.8501 49.4697 47.6101 46.8997C48.9501 45.6497 49.6702 44.0197 49.6702 42.1797C49.6702 39.9097 48.5901 37.7598 46.5101 35.8398C45.6501 35.0098 45.4001 34.5598 45.3401 34.5298C45.4201 34.3698 45.8101 33.7598 47.4701 32.7498C49.2201 31.6898 51.6902 31.1597 54.7802 31.1597C57.8702 31.1597 60.3201 32.0198 61.8401 33.7798C63.4301 35.6098 64.2301 38.9297 64.2301 43.6497C64.2301 47.3497 63.4102 50.0597 61.7902 51.6997C60.1802 53.3397 57.6202 54.1697 54.2902 54.1697L49.3401 53.9797C47.7801 53.9797 46.6101 54.2897 45.7501 54.9197C44.7601 55.6597 44.2101 56.7798 44.2101 58.0698C44.2101 59.2898 44.7702 60.3897 45.7802 61.1597C46.6602 61.8197 47.8001 62.1597 49.1901 62.1597C49.8201 62.1597 50.8402 62.0699 52.2902 61.8499C53.7702 61.6199 55.0001 61.4998 55.9901 61.4998C59.4001 61.4998 61.8601 62.4399 63.4901 64.3599C65.1901 66.3499 66.0502 69.9498 66.0502 75.0598C66.0502 79.8698 65.0402 83.3496 63.0602 85.3796C61.0902 87.3996 57.8802 88.4297 53.5302 88.4297C50.9302 88.4297 48.7701 88.1198 47.1401 87.4998C45.6101 86.9198 44.4701 86.1798 43.7401 85.2798C42.9701 84.3398 42.8001 83.7598 42.6901 83.7598C42.7801 83.6598 43.0701 83.4198 43.7401 83.0598C45.3201 82.1898 46.4301 81.2299 47.1201 80.1199C47.8301 78.9999 48.1802 77.6399 48.1802 76.0999C48.1802 73.7599 47.5102 71.8497 46.1802 70.4097C43.3402 67.3497 37.8701 67.4597 34.9001 70.9797C33.4301 72.7297 32.6802 75.0697 32.6802 77.9397C32.6802 81.2697 33.5501 84.3198 35.2601 86.9998C36.9701 89.6798 39.5601 91.8199 42.9401 93.3599C46.2301 94.8599 50.1701 95.6199 54.6501 95.6199C62.1301 95.6199 68.3202 93.5497 73.0402 89.4797C77.3302 85.8197 79.5001 80.9197 79.5001 74.9197C79.5001 69.6097 77.6801 65.0797 74.1001 61.4697C72.3401 59.6897 70.1401 58.2198 67.5201 57.0798H67.5502Z" fill="black"/>
<path d="M401.66 592.57C399.02 594.06 397.01 595.7 395.6 597.52C393.42 600.32 392.32 603.68 392.32 607.48C392.32 612.74 394.33 617.21 398.27 620.77C402.16 624.28 407.37 626.06 413.77 626.06C420.64 626.06 426.05 624 429.83 619.94C432.57 616.99 433.95 613.54 433.95 609.7C433.95 607.09 433.3 604.97 432 603.41C429.37 600.24 424.36 600.18 421.6 602.75C420.26 604 419.54 605.63 419.54 607.47C419.54 609.74 420.62 611.89 422.7 613.81C423.56 614.64 423.81 615.09 423.87 615.12C423.79 615.28 423.4 615.89 421.74 616.9C419.99 617.96 417.52 618.49 414.43 618.49C411.34 618.49 408.89 617.63 407.37 615.87C405.78 614.04 404.98 610.72 404.98 606C404.98 602.3 405.8 599.59 407.42 597.95C409.03 596.31 411.59 595.48 414.92 595.48L419.87 595.67C421.43 595.67 422.6 595.36 423.46 594.73C424.45 593.99 425 592.87 425 591.58C425 590.36 424.44 589.26 423.43 588.49C422.55 587.83 421.41 587.49 420.02 587.49C419.39 587.49 418.37 587.58 416.92 587.8C415.44 588.03 414.21 588.15 413.22 588.15C409.81 588.15 407.35 587.21 405.72 585.29C404.02 583.3 403.16 579.7 403.16 574.59C403.16 569.78 404.17 566.3 406.15 564.27C408.12 562.25 411.33 561.22 415.68 561.22C418.28 561.22 420.44 561.53 422.07 562.15C423.6 562.73 424.74 563.47 425.47 564.37C426.24 565.31 426.41 565.89 426.52 565.89C426.43 565.99 426.14 566.23 425.47 566.59C423.89 567.46 422.78 568.42 422.09 569.53C421.38 570.65 421.03 572.01 421.03 573.55C421.03 575.89 421.7 577.8 423.03 579.24C425.87 582.3 431.34 582.19 434.31 578.67C435.78 576.92 436.53 574.58 436.53 571.71C436.53 568.38 435.66 565.33 433.95 562.65C432.24 559.97 429.65 557.83 426.27 556.29C422.98 554.79 419.04 554.03 414.56 554.03C407.08 554.03 400.89 556.1 396.17 560.17C391.88 563.83 389.71 568.73 389.71 574.73C389.71 580.04 391.53 584.57 395.11 588.18C396.87 589.96 399.07 591.43 401.69 592.57H401.66Z" fill="black"/>
<path d="M56.5997 107.41L56.5098 107.24L56.4198 107.41C50.6998 119.62 33.7598 126.32 33.7598 139.44C33.7598 150.41 48.2697 154.65 55.3497 145.47C55.4997 145 55.3397 148.39 54.8597 150.29C53.4597 154.94 49.0498 161.35 45.8898 164.87C45.6198 165.17 45.9298 165.6 46.2998 165.47C51.4398 163.55 61.5997 163.55 66.7297 165.47C67.0997 165.61 67.4098 165.17 67.1398 164.87C64.0398 161.4 59.7998 155.16 58.1598 150.28C57.7498 148.64 57.5098 146.99 57.3998 145.33C64.3098 155.29 79.2598 150.63 79.2598 139.43C79.2598 126.31 62.3197 119.61 56.5997 107.4V107.41Z" fill="black"/>
<path d="M412.8 542.66L412.89 542.83L412.98 542.66C418.7 530.45 435.64 523.75 435.64 510.63C435.64 499.66 421.13 495.42 414.05 504.6C413.9 505.07 414.06 501.68 414.54 499.78C415.94 495.13 420.35 488.72 423.51 485.2C423.78 484.9 423.47 484.47 423.1 484.6C417.96 486.52 407.8 486.52 402.67 484.6C402.3 484.46 401.99 484.9 402.26 485.2C405.36 488.67 409.6 494.91 411.24 499.79C411.65 501.43 411.89 503.08 412 504.74C405.09 494.78 390.14 499.44 390.14 510.64C390.14 523.76 407.08 530.46 412.8 542.67V542.66Z" fill="black"/>
<path d="M234.46 594.46L234.66 594.861L234.87 594.46C248.32 565.75 288.15 550 288.15 519.15C288.15 493.35 254.03 483.38 237.39 504.97C237.04 506.07 237.42 498.11 238.54 493.63C241.84 482.69 252.2 467.631 259.64 459.341C260.27 458.641 259.54 457.61 258.67 457.94C246.59 462.45 222.7 462.45 210.63 457.94C209.75 457.61 209.03 458.641 209.66 459.341C216.95 467.501 226.91 482.16 230.78 493.64C231.74 497.5 232.32 501.381 232.57 505.271C216.33 481.851 181.17 492.81 181.17 519.15C181.17 549.99 221.01 565.75 234.46 594.46Z" fill="black"/>
<path d="M234.59 55.52L234.39 55.1201L234.18 55.52C220.73 84.23 180.9 99.9801 180.9 130.83C180.9 156.63 215.02 166.6 231.66 145.01C232.01 143.91 231.63 151.87 230.51 156.35C227.21 167.29 216.85 182.35 209.41 190.64C208.78 191.34 209.51 192.37 210.38 192.04C222.46 187.53 246.35 187.53 258.42 192.04C259.3 192.37 260.02 191.34 259.39 190.64C252.1 182.48 242.14 167.82 238.27 156.34C237.31 152.48 236.73 148.6 236.48 144.71C252.72 168.13 287.88 157.17 287.88 130.83C287.88 99.9901 248.04 84.23 234.59 55.52Z" fill="black"/>
<path d="M234.59 257.03L234.39 256.63L234.18 257.03C220.73 285.74 180.9 301.49 180.9 332.34C180.9 358.14 215.02 368.11 231.66 346.52C232.01 345.42 231.63 353.38 230.51 357.86C227.21 368.8 216.85 383.86 209.41 392.15C208.78 392.85 209.51 393.88 210.38 393.55C222.46 389.04 246.35 389.04 258.42 393.55C259.3 393.88 260.02 392.85 259.39 392.15C252.1 383.99 242.14 369.33 238.27 357.85C237.31 353.99 236.73 350.11 236.48 346.22C252.72 369.64 287.88 358.68 287.88 332.34C287.88 301.5 248.04 285.74 234.59 257.03Z" fill="black"/>
<defs>
<linearGradient id="paint0_linear_145_1383" x1="380.67" y1="-103.27" x2="110.18" y2="690.6" gradientUnits="userSpaceOnUse">
<stop stop-color="#E1E1E1"/>
<stop offset="0.12" stop-color="#ECECEC"/>
<stop offset="0.32" stop-color="#FAFAFA"/>
<stop offset="0.49" stop-color="white"/>
<stop offset="0.7" stop-color="#FBFBFB"/>
<stop offset="0.85" stop-color="#F2F2F2"/>
<stop offset="0.99" stop-color="#E2E2E2"/>
<stop offset="1" stop-color="#E1E1E1"/>
</linearGradient>
</defs>
</svg>
