<svg width="469" height="650" viewBox="0 0 469 650" fill="none" xmlns="http://www.w3.org/2000/svg">
<path d="M439.26 0.610352H29.3799C13.3099 0.610352 0.280029 12.6703 0.280029 27.5403V622.38C0.280029 637.25 13.3099 649.31 29.3799 649.31H439.26C455.33 649.31 468.36 637.25 468.36 622.38V27.5403C468.36 12.6703 455.33 0.610352 439.26 0.610352Z" fill="url(#paint0_linear_145_1422)"/>
<path d="M56.73 107.41L56.6399 107.24L56.55 107.41C50.83 119.62 33.8899 126.32 33.8899 139.44C33.8899 150.41 48.4 154.65 55.48 145.47C55.63 145 55.47 148.39 54.99 150.29C53.59 154.94 49.18 161.35 46.02 164.87C45.75 165.17 46.0599 165.6 46.4299 165.47C51.5699 163.55 61.7301 163.55 66.8601 165.47C67.2301 165.61 67.54 165.17 67.27 164.87C64.17 161.4 59.93 155.16 58.29 150.28C57.88 148.64 57.64 146.99 57.53 145.33C64.44 155.29 79.3899 150.63 79.3899 139.43C79.3899 126.31 62.45 119.61 56.73 107.4V107.41Z" fill="black"/>
<path d="M412.93 542.66L413.02 542.83L413.11 542.66C418.83 530.45 435.77 523.75 435.77 510.63C435.77 499.66 421.26 495.42 414.18 504.6C414.03 505.07 414.19 501.68 414.67 499.78C416.07 495.13 420.48 488.72 423.64 485.2C423.91 484.9 423.6 484.47 423.23 484.6C418.09 486.52 407.93 486.52 402.8 484.6C402.43 484.46 402.12 484.9 402.39 485.2C405.49 488.67 409.73 494.91 411.37 499.79C411.78 501.43 412.02 503.08 412.13 504.74C405.22 494.78 390.27 499.44 390.27 510.64C390.27 523.76 407.21 530.46 412.93 542.67V542.66Z" fill="black"/>
<path d="M139.66 594.46L139.86 594.861L140.07 594.46C153.52 565.75 193.35 550 193.35 519.15C193.35 493.35 159.23 483.38 142.59 504.97C142.24 506.07 142.62 498.11 143.74 493.63C147.04 482.69 157.4 467.631 164.84 459.341C165.47 458.641 164.74 457.61 163.87 457.94C151.79 462.45 127.9 462.45 115.83 457.94C114.95 457.61 114.23 458.641 114.86 459.341C122.15 467.501 132.11 482.16 135.98 493.64C136.94 497.5 137.52 501.381 137.77 505.271C121.53 481.851 86.3701 492.81 86.3701 519.15C86.3701 549.99 126.21 565.75 139.66 594.46Z" fill="black"/>
<path d="M139.79 55.52L139.59 55.1201L139.38 55.52C125.93 84.23 86.1001 99.9801 86.1001 130.83C86.1001 156.63 120.22 166.6 136.86 145.01C137.21 143.91 136.83 151.87 135.71 156.35C132.41 167.29 122.05 182.35 114.61 190.64C113.98 191.34 114.71 192.37 115.58 192.04C127.66 187.53 151.55 187.53 163.62 192.04C164.5 192.37 165.22 191.34 164.59 190.64C157.3 182.48 147.34 167.82 143.47 156.34C142.51 152.48 141.93 148.6 141.68 144.71C157.92 168.13 193.08 157.17 193.08 130.83C193.08 99.9901 153.24 84.23 139.79 55.52Z" fill="black"/>
<path d="M329.52 594.46L329.72 594.861L329.93 594.46C343.38 565.75 383.21 550 383.21 519.15C383.21 493.35 349.09 483.38 332.45 504.97C332.1 506.07 332.48 498.11 333.6 493.63C336.9 482.69 347.26 467.631 354.7 459.341C355.33 458.641 354.6 457.61 353.73 457.94C341.65 462.45 317.76 462.45 305.69 457.94C304.81 457.61 304.09 458.641 304.72 459.341C312.01 467.501 321.97 482.16 325.84 493.64C326.8 497.5 327.38 501.381 327.63 505.271C311.39 481.851 276.23 492.81 276.23 519.15C276.23 549.99 316.07 565.75 329.52 594.46Z" fill="black"/>
<path d="M329.65 55.52L329.45 55.1201L329.24 55.52C315.79 84.23 275.96 99.9801 275.96 130.83C275.96 156.63 310.08 166.6 326.72 145.01C327.07 143.91 326.69 151.87 325.57 156.35C322.27 167.29 311.91 182.35 304.47 190.64C303.84 191.34 304.57 192.37 305.44 192.04C317.52 187.53 341.41 187.53 353.48 192.04C354.36 192.37 355.08 191.34 354.45 190.64C347.16 182.48 337.2 167.82 333.33 156.34C332.37 152.48 331.79 148.6 331.54 144.71C347.78 168.13 382.94 157.17 382.94 130.83C382.94 99.9901 343.1 84.23 329.65 55.52Z" fill="black"/>
<path d="M62.45 23.5901H56.3401L23.6899 69.0801V76.26H50.3999V83.45C50.3999 84.54 50.0299 84.86 49.9099 84.97C49.6899 85.17 49.1099 85.49 47.6399 85.49H40.77V93.0601H70.99V85.49H64.97C64.07 85.49 63.32 85.2601 62.71 84.8301C62.51 84.6801 62.45 84.56 62.45 84.3V76.26H73.3V68.22H62.45V23.5801V23.5901ZM50.3999 68.23H33.53L50.3999 44.6001V68.23Z" fill="black"/>
<path d="M405.93 626.69H412.04L444.69 581.2V574.02H417.98V566.83C417.98 565.74 418.35 565.42 418.47 565.31C418.69 565.11 419.27 564.79 420.74 564.79H427.61V557.22H397.39V564.79H403.41C404.31 564.79 405.06 565.02 405.67 565.45C405.87 565.6 405.93 565.72 405.93 565.98V574.02H395.08V582.06H405.93V626.7V626.69ZM417.98 582.05H434.85L417.98 605.68V582.05Z" fill="black"/>
<defs>
<linearGradient id="paint0_linear_145_1422" x1="380.32" y1="-103.55" x2="109.84" y2="690.32" gradientUnits="userSpaceOnUse">
<stop stop-color="#E1E1E1"/>
<stop offset="0.12" stop-color="#ECECEC"/>
<stop offset="0.32" stop-color="#FAFAFA"/>
<stop offset="0.49" stop-color="white"/>
<stop offset="0.7" stop-color="#FBFBFB"/>
<stop offset="0.85" stop-color="#F2F2F2"/>
<stop offset="0.99" stop-color="#E2E2E2"/>
<stop offset="1" stop-color="#E1E1E1"/>
</linearGradient>
</defs>
</svg>
