<svg width="469" height="650" viewBox="0 0 469 650" fill="none" xmlns="http://www.w3.org/2000/svg">
<path d="M439.39 0.610352H29.51C13.44 0.610352 0.409912 12.6703 0.409912 27.5403V622.38C0.409912 637.25 13.44 649.31 29.51 649.31H439.39C455.46 649.31 468.49 637.25 468.49 622.38V27.5403C468.49 12.6703 455.46 0.610352 439.39 0.610352Z" fill="url(#paint0_linear_145_1465)"/>
<path d="M234.85 257.03L234.65 256.63L234.44 257.03C220.99 285.74 181.16 301.49 181.16 332.34C181.16 358.14 215.28 368.11 231.92 346.52C232.27 345.42 231.89 353.38 230.77 357.86C227.47 368.8 217.11 383.86 209.67 392.15C209.04 392.85 209.77 393.88 210.64 393.55C222.72 389.04 246.61 389.04 258.68 393.55C259.56 393.88 260.28 392.85 259.65 392.15C252.36 383.99 242.4 369.33 238.53 357.85C237.57 353.99 236.99 350.11 236.74 346.22C252.98 369.64 288.14 358.68 288.14 332.34C288.14 301.5 248.3 285.74 234.85 257.03Z" fill="black"/>
<path d="M56.8601 107.41L56.77 107.24L56.6799 107.41C50.9599 119.62 34.02 126.32 34.02 139.44C34.02 150.41 48.5301 154.65 55.6101 145.47C55.7601 145 55.6001 148.39 55.1201 150.29C53.7201 154.94 49.3099 161.35 46.1499 164.87C45.8799 165.17 46.1901 165.6 46.5601 165.47C51.7001 163.55 61.86 163.55 66.99 165.47C67.36 165.61 67.6699 165.17 67.3999 164.87C64.2999 161.4 60.0599 155.16 58.4199 150.28C58.0099 148.64 57.7699 146.99 57.6599 145.33C64.5699 155.29 79.52 150.63 79.52 139.43C79.52 126.31 62.5801 119.61 56.8601 107.4V107.41Z" fill="black"/>
<path d="M413.06 542.66L413.15 542.83L413.24 542.66C418.96 530.45 435.9 523.75 435.9 510.63C435.9 499.66 421.39 495.42 414.31 504.6C414.16 505.07 414.32 501.68 414.8 499.78C416.2 495.13 420.61 488.72 423.77 485.2C424.04 484.9 423.73 484.47 423.36 484.6C418.22 486.52 408.06 486.52 402.93 484.6C402.56 484.46 402.25 484.9 402.52 485.2C405.62 488.67 409.86 494.91 411.5 499.79C411.91 501.43 412.15 503.08 412.26 504.74C405.35 494.78 390.4 499.44 390.4 510.64C390.4 523.76 407.34 530.46 413.06 542.67V542.66Z" fill="black"/>
<path d="M139.79 594.46L139.99 594.861L140.2 594.46C153.65 565.75 193.48 550 193.48 519.15C193.48 493.35 159.36 483.38 142.72 504.97C142.37 506.07 142.75 498.11 143.87 493.63C147.17 482.69 157.53 467.631 164.97 459.341C165.6 458.641 164.87 457.61 164 457.94C151.92 462.45 128.03 462.45 115.96 457.94C115.08 457.61 114.36 458.641 114.99 459.341C122.28 467.501 132.24 482.16 136.11 493.64C137.07 497.5 137.65 501.381 137.9 505.271C121.66 481.851 86.5 492.81 86.5 519.15C86.5 549.99 126.34 565.75 139.79 594.46Z" fill="black"/>
<path d="M139.91 55.52L139.71 55.1201L139.5 55.52C126.05 84.23 86.2197 99.9801 86.2197 130.83C86.2197 156.63 120.34 166.6 136.98 145.01C137.33 143.91 136.95 151.87 135.83 156.35C132.53 167.29 122.17 182.35 114.73 190.64C114.1 191.34 114.83 192.37 115.7 192.04C127.78 187.53 151.67 187.53 163.74 192.04C164.62 192.37 165.34 191.34 164.71 190.64C157.42 182.48 147.46 167.82 143.59 156.34C142.63 152.48 142.05 148.6 141.8 144.71C158.04 168.13 193.2 157.17 193.2 130.83C193.2 99.9901 153.36 84.23 139.91 55.52Z" fill="black"/>
<path d="M329.65 594.46L329.85 594.861L330.06 594.46C343.51 565.75 383.34 550 383.34 519.15C383.34 493.35 349.22 483.38 332.58 504.97C332.23 506.07 332.61 498.11 333.73 493.63C337.03 482.69 347.39 467.631 354.83 459.341C355.46 458.641 354.73 457.61 353.86 457.94C341.78 462.45 317.89 462.45 305.82 457.94C304.94 457.61 304.22 458.641 304.85 459.341C312.14 467.501 322.1 482.16 325.97 493.64C326.93 497.5 327.51 501.381 327.76 505.271C311.52 481.851 276.36 492.81 276.36 519.15C276.36 549.99 316.2 565.75 329.65 594.46Z" fill="black"/>
<path d="M329.78 55.52L329.58 55.1201L329.37 55.52C315.92 84.23 276.09 99.9801 276.09 130.83C276.09 156.63 310.21 166.6 326.85 145.01C327.2 143.91 326.82 151.87 325.7 156.35C322.4 167.29 312.04 182.35 304.6 190.64C303.97 191.34 304.7 192.37 305.57 192.04C317.65 187.53 341.54 187.53 353.61 192.04C354.49 192.37 355.21 191.34 354.58 190.64C347.29 182.48 337.33 167.82 333.46 156.34C332.5 152.48 331.92 148.6 331.67 144.71C347.91 168.13 383.07 157.17 383.07 130.83C383.07 99.9901 343.23 84.23 329.78 55.52Z" fill="black"/>
<path d="M55.6699 47.6296C53.5499 47.6296 51.3 47.9599 48.96 48.5999C47.66 48.9599 46.33 49.4197 44.95 49.9797L46 37.6497C54.84 39.3897 61.3801 39.4397 66.5901 37.1497C69.3301 35.9497 71.5299 34.2897 73.1499 32.2297C74.8899 29.9997 75.7 28.2199 75.7 26.6199C75.7 24.8299 74.45 23.8997 73.21 23.8997C72.68 23.8997 72.1399 24.0798 71.1699 24.5898C70.5899 24.9298 69.3901 25.4397 67.0701 25.9497C65.1401 26.3697 63.0501 26.5898 60.8501 26.5898C55.9901 26.5898 49.5901 25.6897 41.8101 23.8997L39.3601 23.3398L39.3401 25.8499C39.3101 30.8599 39.0799 36.1797 38.6599 41.6497L37.6001 55.0398C37.5301 55.1298 37.4301 55.2396 37.3101 55.3896C35.6601 57.1196 34.8201 58.9696 34.8201 60.8796C34.8201 62.1596 35.1701 63.2198 35.8701 64.0298C37.5701 66.0198 40.9499 65.7398 42.6699 63.4998C43.3899 62.5598 43.8699 61.1197 44.1499 58.9897C45.6399 57.9697 47.1401 57.1796 48.6101 56.6396C50.2701 56.0296 51.9401 55.7197 53.5801 55.7197C57.1901 55.7197 60.0601 56.8998 62.3601 59.3398C64.6601 61.7698 65.8201 65.8297 65.8201 71.3997C65.8201 77.6097 64.7 82.0797 62.5 84.6797C60.34 87.2197 57.25 88.4497 53.01 88.4497C50.83 88.4497 48.88 88.1097 47.23 87.4397C45.66 86.8097 44.51 86.0199 43.79 85.0999C43.29 84.4599 42.9701 83.8696 42.8501 83.3896C42.9901 83.2996 43.21 83.1898 43.54 83.0598C45.35 82.3998 46.6001 81.5397 47.3701 80.4197C48.1301 79.3297 48.5 77.8799 48.5 76.1199C48.5 73.7999 47.7801 71.8699 46.3701 70.3699C43.4401 67.2399 37.9201 67.2297 35.0601 70.9397C33.7001 72.6997 33.01 75.1196 33.01 78.1396C33.01 82.9896 34.95 87.2197 38.79 90.6997C42.57 94.1297 47.4999 95.8699 53.4299 95.8699C61.0399 95.8699 67.36 93.5098 72.2 88.8398C77.0499 84.1598 79.51 78.1297 79.51 70.9197C79.51 64.3797 77.1801 58.7898 72.6001 54.3298C68.0401 49.8798 62.3399 47.6199 55.6499 47.6199L55.6699 47.6296Z" fill="black"/>
<path d="M412.96 602.4C415.08 602.4 417.33 602.07 419.67 601.43C420.97 601.07 422.3 600.61 423.68 600.05L422.63 612.38C413.79 610.64 407.25 610.59 402.04 612.88C399.3 614.08 397.1 615.73 395.48 617.8C393.74 620.03 392.93 621.81 392.93 623.41C392.93 625.2 394.18 626.13 395.42 626.13C395.95 626.13 396.49 625.95 397.46 625.44C398.04 625.1 399.24 624.59 401.56 624.08C403.49 623.66 405.58 623.44 407.78 623.44C412.64 623.44 419.04 624.34 426.82 626.13L429.27 626.69L429.29 624.18C429.32 619.17 429.55 613.85 429.97 608.38L431.03 594.99C431.1 594.9 431.2 594.79 431.32 594.64C432.97 592.91 433.81 591.06 433.81 589.15C433.81 587.87 433.46 586.81 432.76 586C431.06 584.01 427.68 584.29 425.96 586.53C425.24 587.47 424.76 588.91 424.48 591.04C422.99 592.06 421.49 592.85 420.02 593.39C418.36 594 416.69 594.31 415.05 594.31C411.44 594.31 408.57 593.13 406.27 590.69C403.97 588.26 402.81 584.2 402.81 578.63C402.81 572.42 403.93 567.95 406.13 565.35C408.28 562.81 411.38 561.58 415.62 561.58C417.8 561.58 419.75 561.92 421.4 562.59C422.97 563.22 424.12 564.01 424.84 564.93C425.34 565.57 425.66 566.16 425.78 566.64C425.64 566.73 425.42 566.84 425.09 566.97C423.28 567.63 422.03 568.49 421.26 569.61C420.5 570.7 420.13 572.15 420.13 573.91C420.13 576.23 420.85 578.16 422.26 579.66C425.19 582.79 430.71 582.8 433.57 579.09C434.93 577.33 435.62 574.91 435.62 571.89C435.62 567.04 433.68 562.81 429.84 559.33C426.06 555.9 421.13 554.16 415.2 554.16C407.59 554.16 401.27 556.52 396.43 561.19C391.58 565.87 389.12 571.9 389.12 579.11C389.12 585.65 391.45 591.24 396.03 595.7C400.59 600.15 406.29 602.41 412.98 602.41L412.96 602.4Z" fill="black"/>
<defs>
<linearGradient id="paint0_linear_145_1465" x1="380.45" y1="-103.55" x2="109.96" y2="690.32" gradientUnits="userSpaceOnUse">
<stop stop-color="#E1E1E1"/>
<stop offset="0.12" stop-color="#ECECEC"/>
<stop offset="0.32" stop-color="#FAFAFA"/>
<stop offset="0.49" stop-color="white"/>
<stop offset="0.7" stop-color="#FBFBFB"/>
<stop offset="0.85" stop-color="#F2F2F2"/>
<stop offset="0.99" stop-color="#E2E2E2"/>
<stop offset="1" stop-color="#E1E1E1"/>
</linearGradient>
</defs>
</svg>
