<svg width="469" height="650" viewBox="0 0 469 650" fill="none" xmlns="http://www.w3.org/2000/svg">
<path d="M439.52 0.610352H29.6399C13.5699 0.610352 0.540039 12.6703 0.540039 27.5403V622.38C0.540039 637.25 13.5699 649.31 29.6399 649.31H439.52C455.59 649.31 468.62 637.25 468.62 622.38V27.5403C468.62 12.6703 455.59 0.610352 439.52 0.610352Z" fill="url(#paint0_linear_145_1500)"/>
<path d="M56.99 107.41L56.8999 107.24L56.8101 107.41C51.0901 119.62 34.1499 126.32 34.1499 139.44C34.1499 150.41 48.66 154.65 55.74 145.47C55.89 145 55.73 148.39 55.25 150.29C53.85 154.94 49.44 161.35 46.28 164.87C46.01 165.17 46.3199 165.6 46.6899 165.47C51.8299 163.55 61.9901 163.55 67.1201 165.47C67.4901 165.61 67.8 165.17 67.53 164.87C64.43 161.4 60.19 155.16 58.55 150.28C58.14 148.64 57.9 146.99 57.79 145.33C64.7 155.29 79.6499 150.63 79.6499 139.43C79.6499 126.31 62.71 119.61 56.99 107.4V107.41Z" fill="black"/>
<path d="M413.18 542.66L413.27 542.83L413.36 542.66C419.08 530.45 436.02 523.75 436.02 510.63C436.02 499.66 421.51 495.42 414.43 504.6C414.28 505.07 414.44 501.68 414.92 499.78C416.32 495.13 420.73 488.72 423.89 485.2C424.16 484.9 423.85 484.47 423.48 484.6C418.34 486.52 408.18 486.52 403.05 484.6C402.68 484.46 402.37 484.9 402.64 485.2C405.74 488.67 409.98 494.91 411.62 499.79C412.03 501.43 412.27 503.08 412.38 504.74C405.47 494.78 390.52 499.44 390.52 510.64C390.52 523.76 407.46 530.46 413.18 542.67V542.66Z" fill="black"/>
<path d="M139.92 594.46L140.12 594.861L140.33 594.46C153.78 565.75 193.61 550 193.61 519.15C193.61 493.35 159.49 483.38 142.85 504.97C142.5 506.07 142.88 498.11 144 493.63C147.3 482.69 157.66 467.631 165.1 459.341C165.73 458.641 165 457.61 164.13 457.94C152.05 462.45 128.16 462.45 116.09 457.94C115.21 457.61 114.49 458.641 115.12 459.341C122.41 467.501 132.37 482.16 136.24 493.64C137.2 497.5 137.78 501.381 138.03 505.271C121.79 481.851 86.6299 492.81 86.6299 519.15C86.6299 549.99 126.47 565.75 139.92 594.46Z" fill="black"/>
<path d="M140.04 55.52L139.84 55.1201L139.63 55.52C126.18 84.23 86.3501 99.9801 86.3501 130.83C86.3501 156.63 120.47 166.6 137.11 145.01C137.46 143.91 137.08 151.87 135.96 156.35C132.66 167.29 122.3 182.35 114.86 190.64C114.23 191.34 114.96 192.37 115.83 192.04C127.91 187.53 151.8 187.53 163.87 192.04C164.75 192.37 165.47 191.34 164.84 190.64C157.55 182.48 147.59 167.82 143.72 156.34C142.76 152.48 142.18 148.6 141.93 144.71C158.17 168.13 193.33 157.17 193.33 130.83C193.33 99.9901 153.49 84.23 140.04 55.52Z" fill="black"/>
<path d="M329.78 594.46L329.98 594.861L330.19 594.46C343.64 565.75 383.47 550 383.47 519.15C383.47 493.35 349.35 483.38 332.71 504.97C332.36 506.07 332.74 498.11 333.86 493.63C337.16 482.69 347.52 467.631 354.96 459.341C355.59 458.641 354.86 457.61 353.99 457.94C341.91 462.45 318.02 462.45 305.95 457.94C305.07 457.61 304.35 458.641 304.98 459.341C312.27 467.501 322.23 482.16 326.1 493.64C327.06 497.5 327.64 501.381 327.89 505.271C311.65 481.851 276.49 492.81 276.49 519.15C276.49 549.99 316.33 565.75 329.78 594.46Z" fill="black"/>
<path d="M329.91 55.52L329.71 55.1201L329.5 55.52C316.05 84.23 276.22 99.9801 276.22 130.83C276.22 156.63 310.34 166.6 326.98 145.01C327.33 143.91 326.95 151.87 325.83 156.35C322.53 167.29 312.17 182.35 304.73 190.64C304.1 191.34 304.83 192.37 305.7 192.04C317.78 187.53 341.67 187.53 353.74 192.04C354.62 192.37 355.34 191.34 354.71 190.64C347.42 182.48 337.46 167.82 333.59 156.34C332.63 152.48 332.05 148.6 331.8 144.71C348.04 168.13 383.2 157.17 383.2 130.83C383.2 99.9901 343.36 84.23 329.91 55.52Z" fill="black"/>
<path d="M140.04 257.03L139.84 256.63L139.63 257.03C126.18 285.74 86.3501 301.49 86.3501 332.34C86.3501 358.14 120.47 368.11 137.11 346.52C137.46 345.42 137.08 353.38 135.96 357.86C132.66 368.8 122.3 383.86 114.86 392.15C114.23 392.85 114.96 393.88 115.83 393.55C127.91 389.04 151.8 389.04 163.87 393.55C164.75 393.88 165.47 392.85 164.84 392.15C157.55 383.99 147.59 369.33 143.72 357.85C142.76 353.99 142.18 350.11 141.93 346.22C158.17 369.64 193.33 358.68 193.33 332.34C193.33 301.5 153.49 285.74 140.04 257.03Z" fill="black"/>
<path d="M329.91 257.03L329.71 256.63L329.5 257.03C316.05 285.74 276.22 301.49 276.22 332.34C276.22 358.14 310.34 368.11 326.98 346.52C327.33 345.42 326.95 353.38 325.83 357.86C322.53 368.8 312.17 383.86 304.73 392.15C304.1 392.85 304.83 393.88 305.7 393.55C317.78 389.04 341.67 389.04 353.74 393.55C354.62 393.88 355.34 392.85 354.71 392.15C347.42 383.99 337.46 369.33 333.59 357.85C332.63 353.99 332.05 350.11 331.8 346.22C348.04 369.64 383.2 358.68 383.2 332.34C383.2 301.5 343.36 285.74 329.91 257.03Z" fill="black"/>
<path d="M60.4397 50.1398C56.8897 50.1398 53.5698 50.9299 50.5898 52.4899C48.9098 53.3699 47.2597 54.58 45.6697 56.11C45.7997 51.1 46.6297 46.5099 48.1497 42.4499C49.7497 38.1599 51.6796 35.1399 53.8796 33.4599C56.0596 31.7999 58.3898 30.9899 61.0098 30.9899C62.5898 30.9899 63.7998 31.2499 64.5698 31.7399C64.9498 31.9899 64.9497 32.1299 64.9497 32.2199C64.9497 32.2399 64.9097 32.6599 64.2297 33.7499C63.2497 35.2899 62.7798 36.69 62.7798 38.03C62.7798 39.99 63.5799 41.7799 65.0999 43.1899C68.2099 46.0799 73.2498 45.97 76.2798 42.83C77.8198 41.22 78.6099 39.1599 78.6099 36.7199C78.6099 33.2099 76.9998 30.1999 73.8298 27.7699C66.8398 22.2799 55.8699 21.9299 46.8699 28.2499C42.4899 31.3199 38.8598 35.9499 36.0698 42.0099C33.3198 48.0099 31.9297 54.77 31.9297 62.1C31.9297 68.9 33.0798 74.94 35.3398 80.09C37.6398 85.32 40.6796 89.2599 44.3796 91.77C48.0996 94.2999 52.3899 95.59 57.1199 95.59C63.8199 95.59 69.5298 93.21 74.0898 88.52C78.6298 83.84 80.9297 77.9098 80.9297 70.8798C80.9297 64.9398 78.9498 59.94 75.0298 56.03C71.1098 52.12 66.2097 50.1298 60.4597 50.1298L60.4397 50.1398ZM64.7297 84.86C62.8497 87.18 60.4298 88.31 57.3298 88.31C54.2298 88.31 51.6796 87.1 49.6396 84.61C47.5296 82.03 46.4597 78.14 46.4597 73.05C46.4597 68.42 47.5497 64.82 49.7097 62.37C51.8297 59.96 54.4899 58.78 57.8499 58.78C60.9399 58.78 63.2797 59.8299 64.9797 61.9799C66.7697 64.2499 67.6897 68.14 67.6897 73.57C67.6897 78.64 66.6997 82.44 64.7397 84.86H64.7297Z" fill="black"/>
<path d="M408.45 600.139C412 600.139 415.32 599.35 418.3 597.79C419.98 596.91 421.63 595.699 423.22 594.169C423.09 599.179 422.26 603.77 420.74 607.83C419.14 612.12 417.21 615.14 415.01 616.82C412.83 618.48 410.5 619.29 407.88 619.29C406.3 619.29 405.09 619.03 404.33 618.54C403.95 618.29 403.95 618.15 403.95 618.06C403.95 618.04 403.99 617.62 404.67 616.53C405.65 614.99 406.12 613.59 406.12 612.25C406.12 610.29 405.32 608.5 403.8 607.09C400.69 604.2 395.65 604.309 392.62 607.449C391.08 609.059 390.29 611.12 390.29 613.56C390.29 617.07 391.9 620.08 395.07 622.51C402.06 628 413.03 628.35 422.03 622.03C426.41 618.96 430.04 614.33 432.83 608.27C435.58 602.27 436.97 595.509 436.97 588.179C436.97 581.379 435.82 575.339 433.56 570.189C431.26 564.959 428.22 561.02 424.52 558.51C420.8 555.98 416.51 554.689 411.78 554.689C405.08 554.689 399.37 557.07 394.81 561.76C390.27 566.44 387.97 572.369 387.97 579.399C387.97 585.339 389.95 590.34 393.87 594.25C397.79 598.16 402.69 600.149 408.44 600.149L408.45 600.139ZM404.16 565.419C406.04 563.099 408.46 561.969 411.56 561.969C414.66 561.969 417.21 563.179 419.25 565.669C421.36 568.249 422.43 572.129 422.43 577.229C422.43 581.859 421.34 585.459 419.18 587.909C417.06 590.319 414.4 591.5 411.04 591.5C407.95 591.5 405.61 590.45 403.91 588.3C402.12 586.03 401.2 582.139 401.2 576.709C401.2 571.639 402.19 567.839 404.15 565.419H404.16Z" fill="black"/>
<defs>
<linearGradient id="paint0_linear_145_1500" x1="380.58" y1="-103.55" x2="110.09" y2="690.32" gradientUnits="userSpaceOnUse">
<stop stop-color="#E1E1E1"/>
<stop offset="0.12" stop-color="#ECECEC"/>
<stop offset="0.32" stop-color="#FAFAFA"/>
<stop offset="0.49" stop-color="white"/>
<stop offset="0.7" stop-color="#FBFBFB"/>
<stop offset="0.85" stop-color="#F2F2F2"/>
<stop offset="0.99" stop-color="#E2E2E2"/>
<stop offset="1" stop-color="#E1E1E1"/>
</linearGradient>
</defs>
</svg>
