<svg width="469" height="650" viewBox="0 0 469 650" fill="none" xmlns="http://www.w3.org/2000/svg">
<path d="M439.64 0.610352H29.7603C13.6903 0.610352 0.660156 12.6703 0.660156 27.5403V622.38C0.660156 637.25 13.6903 649.31 29.7603 649.31H439.64C455.71 649.31 468.74 637.25 468.74 622.38V27.5403C468.74 12.6703 455.71 0.610352 439.64 0.610352Z" fill="url(#paint0_linear_145_1563)"/>
<path d="M57.1204 107.41L57.0303 107.24L56.9402 107.41C51.2202 119.62 34.2803 126.32 34.2803 139.44C34.2803 150.41 48.7904 154.65 55.8704 145.47C56.0204 145 55.8601 148.39 55.3801 150.29C53.9801 154.94 49.5702 161.35 46.4102 164.87C46.1402 165.17 46.4503 165.6 46.8203 165.47C51.9603 163.55 62.1202 163.55 67.2502 165.47C67.6202 165.61 67.9302 165.17 67.6602 164.87C64.5602 161.4 60.3202 155.16 58.6802 150.28C58.2702 148.64 58.0302 146.99 57.9202 145.33C64.8302 155.29 79.7803 150.63 79.7803 139.43C79.7803 126.31 62.8404 119.61 57.1204 107.4V107.41Z" fill="black"/>
<path d="M413.31 542.66L413.4 542.83L413.49 542.66C419.21 530.45 436.15 523.75 436.15 510.63C436.15 499.66 421.64 495.42 414.56 504.6C414.41 505.07 414.57 501.68 415.05 499.78C416.45 495.13 420.86 488.72 424.02 485.2C424.29 484.9 423.98 484.47 423.61 484.6C418.47 486.52 408.31 486.52 403.18 484.6C402.81 484.46 402.5 484.9 402.77 485.2C405.87 488.67 410.11 494.91 411.75 499.79C412.16 501.43 412.4 503.08 412.51 504.74C405.6 494.78 390.65 499.44 390.65 510.64C390.65 523.76 407.59 530.46 413.31 542.67V542.66Z" fill="black"/>
<path d="M140.04 594.46L140.24 594.861L140.45 594.46C153.9 565.75 193.73 550 193.73 519.15C193.73 493.35 159.61 483.38 142.97 504.97C142.62 506.07 143 498.11 144.12 493.63C147.42 482.69 157.78 467.631 165.22 459.341C165.85 458.641 165.12 457.61 164.25 457.94C152.17 462.45 128.28 462.45 116.21 457.94C115.33 457.61 114.61 458.641 115.24 459.341C122.53 467.501 132.49 482.16 136.36 493.64C137.32 497.5 137.9 501.381 138.15 505.271C121.91 481.851 86.75 492.81 86.75 519.15C86.75 549.99 126.59 565.75 140.04 594.46Z" fill="black"/>
<path d="M140.17 55.52L139.97 55.1201L139.76 55.52C126.31 84.23 86.48 99.9801 86.48 130.83C86.48 156.63 120.6 166.6 137.24 145.01C137.59 143.91 137.21 151.87 136.09 156.35C132.79 167.29 122.43 182.35 114.99 190.64C114.36 191.34 115.09 192.37 115.96 192.04C128.04 187.53 151.93 187.53 164 192.04C164.88 192.37 165.6 191.34 164.97 190.64C157.68 182.48 147.72 167.82 143.85 156.34C142.89 152.48 142.31 148.6 142.06 144.71C158.3 168.13 193.46 157.17 193.46 130.83C193.46 99.9901 153.62 84.23 140.17 55.52Z" fill="black"/>
<path d="M329.91 594.46L330.11 594.861L330.32 594.46C343.77 565.75 383.6 550 383.6 519.15C383.6 493.35 349.48 483.38 332.84 504.97C332.49 506.07 332.87 498.11 333.99 493.63C337.29 482.69 347.65 467.631 355.09 459.341C355.72 458.641 354.99 457.61 354.12 457.94C342.04 462.45 318.15 462.45 306.08 457.94C305.2 457.61 304.48 458.641 305.11 459.341C312.4 467.501 322.36 482.16 326.23 493.64C327.19 497.5 327.77 501.381 328.02 505.271C311.78 481.851 276.62 492.81 276.62 519.15C276.62 549.99 316.46 565.75 329.91 594.46Z" fill="black"/>
<path d="M330.04 55.52L329.84 55.1201L329.63 55.52C316.18 84.23 276.35 99.9801 276.35 130.83C276.35 156.63 310.47 166.6 327.11 145.01C327.46 143.91 327.08 151.87 325.96 156.35C322.66 167.29 312.3 182.35 304.86 190.64C304.23 191.34 304.96 192.37 305.83 192.04C317.91 187.53 341.8 187.53 353.87 192.04C354.75 192.37 355.47 191.34 354.84 190.64C347.55 182.48 337.59 167.82 333.72 156.34C332.76 152.48 332.18 148.6 331.93 144.71C348.17 168.13 383.33 157.17 383.33 130.83C383.33 99.9901 343.49 84.23 330.04 55.52Z" fill="black"/>
<path d="M140.17 257.03L139.97 256.63L139.76 257.03C126.31 285.74 86.48 301.49 86.48 332.34C86.48 358.14 120.6 368.11 137.24 346.52C137.59 345.42 137.21 353.38 136.09 357.86C132.79 368.8 122.43 383.86 114.99 392.15C114.36 392.85 115.09 393.88 115.96 393.55C128.04 389.04 151.93 389.04 164 393.55C164.88 393.88 165.6 392.85 164.97 392.15C157.68 383.99 147.72 369.33 143.85 357.85C142.89 353.99 142.31 350.11 142.06 346.22C158.3 369.64 193.46 358.68 193.46 332.34C193.46 301.5 153.62 285.74 140.17 257.03Z" fill="black"/>
<path d="M330.04 257.03L329.84 256.63L329.63 257.03C316.18 285.74 276.35 301.49 276.35 332.34C276.35 358.14 310.47 368.11 327.11 346.52C327.46 345.42 327.08 353.38 325.96 357.86C322.66 368.8 312.3 383.86 304.86 392.15C304.23 392.85 304.96 393.88 305.83 393.55C317.91 389.04 341.8 389.04 353.87 393.55C354.75 393.88 355.47 392.85 354.84 392.15C347.55 383.99 337.59 369.33 333.72 357.85C332.76 353.99 332.18 350.11 331.93 346.22C348.17 369.64 383.33 358.68 383.33 332.34C383.33 301.5 343.49 285.74 330.04 257.03Z" fill="black"/>
<path d="M235.1 162.1L234.9 161.7L234.69 162.1C221.24 190.81 181.41 206.56 181.41 237.41C181.41 263.21 215.53 273.18 232.17 251.59C232.52 250.49 232.14 258.45 231.02 262.93C227.72 273.87 217.36 288.93 209.92 297.22C209.29 297.92 210.02 298.95 210.89 298.62C222.97 294.11 246.86 294.11 258.93 298.62C259.81 298.95 260.53 297.92 259.9 297.22C252.61 289.06 242.65 274.4 238.78 262.92C237.82 259.06 237.24 255.18 236.99 251.29C253.23 274.71 288.39 263.75 288.39 237.41C288.39 206.57 248.55 190.81 235.1 162.1Z" fill="black"/>
<path d="M39.21 23.5696L37.0601 23.0195L32.98 49.9495H40.3799L40.6899 48.3296C42.3699 39.7996 43.3499 37.7395 43.6899 37.2495C44.0599 36.7295 44.69 36.1294 46.27 36.1294H68.46L63.55 45.1494C61.02 49.8694 57.99 56.4196 54.55 64.6196C51.9 70.8796 50.25 75.4895 49.49 78.6895C48.72 81.9395 48.3501 84.5996 48.3501 86.8196C48.3501 89.6196 48.9299 91.6994 50.1299 93.1494C51.3999 94.6794 53.2101 95.4895 55.3701 95.4895C57.2101 95.4895 58.76 95.0096 59.99 94.0496C61.22 93.0896 62.0399 91.7296 62.4399 90.0396C62.6399 89.1695 62.9499 87.1795 63.3799 79.9595C63.7199 73.7495 64.43 68.2496 65.5 63.5996C66.58 58.9396 68.17 53.9894 70.27 48.8794C72.37 43.7394 75.5901 37.3494 79.8301 29.8794L80.0901 29.4194V24.6995H48.72C45.31 24.6995 42.12 24.3196 39.21 23.5796V23.5696Z" fill="black"/>
<path d="M429.93 625.6L432.08 626.15L436.16 599.22H428.76L428.45 600.84C426.77 609.37 425.79 611.43 425.45 611.92C425.08 612.44 424.45 613.04 422.87 613.04H400.68L405.59 604.02C408.12 599.3 411.15 592.75 414.59 584.55C417.24 578.29 418.89 573.68 419.65 570.48C420.42 567.23 420.79 564.57 420.79 562.35C420.79 559.55 420.21 557.47 419.01 556.02C417.74 554.49 415.93 553.68 413.77 553.68C411.93 553.68 410.38 554.16 409.15 555.12C407.92 556.08 407.1 557.44 406.7 559.13C406.5 560 406.19 561.99 405.76 569.21C405.42 575.42 404.71 580.92 403.64 585.57C402.56 590.23 400.97 595.18 398.87 600.29C396.77 605.43 393.55 611.82 389.31 619.29L389.05 619.75V624.47H420.42C423.83 624.47 427.02 624.85 429.93 625.59V625.6Z" fill="black"/>
<defs>
<linearGradient id="paint0_linear_145_1563" x1="380.71" y1="-103.55" x2="110.221" y2="690.32" gradientUnits="userSpaceOnUse">
<stop stop-color="#E1E1E1"/>
<stop offset="0.12" stop-color="#ECECEC"/>
<stop offset="0.32" stop-color="#FAFAFA"/>
<stop offset="0.49" stop-color="white"/>
<stop offset="0.7" stop-color="#FBFBFB"/>
<stop offset="0.85" stop-color="#F2F2F2"/>
<stop offset="0.99" stop-color="#E2E2E2"/>
<stop offset="1" stop-color="#E1E1E1"/>
</linearGradient>
</defs>
</svg>
