<svg width="469" height="650" viewBox="0 0 469 650" fill="none" xmlns="http://www.w3.org/2000/svg">
<path d="M439.77 0.610352H29.8901C13.8201 0.610352 0.790039 12.6703 0.790039 27.5403V622.38C0.790039 637.25 13.8201 649.31 29.8901 649.31H439.77C455.84 649.31 468.87 637.25 468.87 622.38V27.5403C468.87 12.6703 455.84 0.610352 439.77 0.610352Z" fill="url(#paint0_linear_145_1618)"/>
<path d="M57.25 107.41L57.1602 107.24L57.0698 107.41C51.3498 119.62 34.4102 126.32 34.4102 139.44C34.4102 150.41 48.92 154.65 56 145.47C56.15 145 55.9898 148.39 55.5098 150.29C54.1098 154.94 49.7 161.35 46.54 164.87C46.27 165.17 46.5802 165.6 46.9502 165.47C52.0902 163.55 62.2499 163.55 67.3799 165.47C67.7499 165.61 68.06 165.17 67.79 164.87C64.69 161.4 60.4501 155.16 58.8101 150.28C58.4001 148.64 58.1598 146.99 58.0498 145.33C64.9598 155.29 79.9102 150.63 79.9102 139.43C79.9102 126.31 62.97 119.61 57.25 107.4V107.41Z" fill="black"/>
<path d="M413.44 542.66L413.53 542.83L413.62 542.66C419.34 530.45 436.28 523.75 436.28 510.63C436.28 499.66 421.77 495.42 414.69 504.6C414.54 505.07 414.7 501.68 415.18 499.78C416.58 495.13 420.99 488.72 424.15 485.2C424.42 484.9 424.11 484.47 423.74 484.6C418.6 486.52 408.44 486.52 403.31 484.6C402.94 484.46 402.63 484.9 402.9 485.2C406 488.67 410.24 494.91 411.88 499.79C412.29 501.43 412.53 503.08 412.64 504.74C405.73 494.78 390.78 499.44 390.78 510.64C390.78 523.76 407.72 530.46 413.44 542.67V542.66Z" fill="black"/>
<path d="M140.17 594.46L140.37 594.861L140.58 594.46C154.03 565.75 193.86 550 193.86 519.15C193.86 493.35 159.74 483.38 143.1 504.97C142.75 506.07 143.13 498.11 144.25 493.63C147.55 482.69 157.91 467.631 165.35 459.341C165.98 458.641 165.25 457.61 164.38 457.94C152.3 462.45 128.41 462.45 116.34 457.94C115.46 457.61 114.74 458.641 115.37 459.341C122.66 467.501 132.62 482.16 136.49 493.64C137.45 497.5 138.03 501.381 138.28 505.271C122.04 481.851 86.8799 492.81 86.8799 519.15C86.8799 549.99 126.72 565.75 140.17 594.46Z" fill="black"/>
<path d="M140.3 55.52L140.1 55.1201L139.89 55.52C126.44 84.23 86.6099 99.9801 86.6099 130.83C86.6099 156.63 120.73 166.6 137.37 145.01C137.72 143.91 137.34 151.87 136.22 156.35C132.92 167.29 122.56 182.35 115.12 190.64C114.49 191.34 115.22 192.37 116.09 192.04C128.17 187.53 152.06 187.53 164.13 192.04C165.01 192.37 165.73 191.34 165.1 190.64C157.81 182.48 147.85 167.82 143.98 156.34C143.02 152.48 142.44 148.6 142.19 144.71C158.43 168.13 193.59 157.17 193.59 130.83C193.59 99.9901 153.75 84.23 140.3 55.52Z" fill="black"/>
<path d="M330.04 594.46L330.24 594.861L330.45 594.46C343.9 565.75 383.73 550 383.73 519.15C383.73 493.35 349.61 483.38 332.97 504.97C332.62 506.07 333 498.11 334.12 493.63C337.42 482.69 347.78 467.631 355.22 459.341C355.85 458.641 355.12 457.61 354.25 457.94C342.17 462.45 318.28 462.45 306.21 457.94C305.33 457.61 304.61 458.641 305.24 459.341C312.53 467.501 322.49 482.16 326.36 493.64C327.32 497.5 327.9 501.381 328.15 505.271C311.91 481.851 276.75 492.81 276.75 519.15C276.75 549.99 316.59 565.75 330.04 594.46Z" fill="black"/>
<path d="M330.16 55.52L329.96 55.1201L329.75 55.52C316.3 84.23 276.47 99.9801 276.47 130.83C276.47 156.63 310.59 166.6 327.23 145.01C327.58 143.91 327.2 151.87 326.08 156.35C322.78 167.29 312.42 182.35 304.98 190.64C304.35 191.34 305.08 192.37 305.95 192.04C318.03 187.53 341.92 187.53 353.99 192.04C354.87 192.37 355.59 191.34 354.96 190.64C347.67 182.48 337.71 167.82 333.84 156.34C332.88 152.48 332.3 148.6 332.05 144.71C348.29 168.13 383.45 157.17 383.45 130.83C383.45 99.9901 343.61 84.23 330.16 55.52Z" fill="black"/>
<path d="M140.3 257.03L140.1 256.63L139.89 257.03C126.44 285.74 86.6099 301.49 86.6099 332.34C86.6099 358.14 120.73 368.11 137.37 346.52C137.72 345.42 137.34 353.38 136.22 357.86C132.92 368.8 122.56 383.86 115.12 392.15C114.49 392.85 115.22 393.88 116.09 393.55C128.17 389.04 152.06 389.04 164.13 393.55C165.01 393.88 165.73 392.85 165.1 392.15C157.81 383.99 147.85 369.33 143.98 357.85C143.02 353.99 142.44 350.11 142.19 346.22C158.43 369.64 193.59 358.68 193.59 332.34C193.59 301.5 153.75 285.74 140.3 257.03Z" fill="black"/>
<path d="M330.16 257.03L329.96 256.63L329.75 257.03C316.3 285.74 276.47 301.49 276.47 332.34C276.47 358.14 310.59 368.11 327.23 346.52C327.58 345.42 327.2 353.38 326.08 357.86C322.78 368.8 312.42 383.86 304.98 392.15C304.35 392.85 305.08 393.88 305.95 393.55C318.03 389.04 341.92 389.04 353.99 393.55C354.87 393.88 355.59 392.85 354.96 392.15C347.67 383.99 337.71 369.33 333.84 357.85C332.88 353.99 332.3 350.11 332.05 346.22C348.29 369.64 383.45 358.68 383.45 332.34C383.45 301.5 343.61 285.74 330.16 257.03Z" fill="black"/>
<path d="M235.23 162.1L235.03 161.7L234.82 162.1C221.37 190.81 181.54 206.56 181.54 237.41C181.54 263.21 215.66 273.18 232.3 251.59C232.65 250.49 232.27 258.45 231.15 262.93C227.85 273.87 217.49 288.93 210.05 297.22C209.42 297.92 210.15 298.95 211.02 298.62C223.1 294.11 246.99 294.11 259.06 298.62C259.94 298.95 260.66 297.92 260.03 297.22C252.74 289.06 242.78 274.4 238.91 262.92C237.95 259.06 237.37 255.18 237.12 251.29C253.36 274.71 288.52 263.75 288.52 237.41C288.52 206.57 248.68 190.81 235.23 162.1Z" fill="black"/>
<path d="M234.82 488.14L235.02 488.54L235.23 488.14C248.68 459.43 288.51 443.68 288.51 412.83C288.51 387.03 254.39 377.06 237.75 398.65C237.4 399.75 237.78 391.79 238.9 387.31C242.2 376.37 252.56 361.31 260 353.02C260.63 352.32 259.9 351.29 259.03 351.62C246.95 356.13 223.06 356.13 210.99 351.62C210.11 351.29 209.39 352.32 210.02 353.02C217.31 361.18 227.27 375.84 231.14 387.32C232.1 391.18 232.68 395.06 232.93 398.95C216.69 375.53 181.53 386.49 181.53 412.83C181.53 443.67 221.37 459.43 234.82 488.14Z" fill="black"/>
<path d="M69.29 54.5803C75.1 50.6203 78.04 45.7804 78.04 40.1204C78.04 37.1804 77.1599 34.3502 75.4199 31.7002C73.6899 29.0602 71.1702 26.9602 67.9302 25.4602C64.7702 23.9902 61.0198 23.2402 56.8198 23.2402C50.5898 23.2402 45.3598 25.1702 41.2598 29.0002C37.1298 32.8502 35.0298 37.5302 35.0298 42.9102C35.0298 49.8202 38.2298 55.2701 44.5698 59.1401C40.7798 60.8501 37.9801 62.8204 36.0801 65.1104C33.5001 68.2204 32.1899 71.8903 32.1899 76.0403C32.1899 81.5503 34.4401 86.2101 38.8701 89.8801C43.1801 93.4601 49.0598 95.2803 56.3398 95.2803C64.6498 95.2803 71.19 92.5803 75.75 87.2603C79.3 83.1303 81.1001 78.2302 81.1001 72.6902C81.1001 68.1102 79.8298 64.1203 77.3398 60.8303C75.4898 58.4003 72.7898 56.3103 69.2798 54.6003L69.29 54.5803ZM48.1899 33.0203C50.0999 31.3603 52.89 30.5203 56.5 30.5203C60.11 30.5203 63.0001 31.4102 64.8301 33.1702C66.6601 34.9302 67.5601 37.4303 67.5601 40.8303C67.5601 43.4303 67.0902 45.5103 66.1602 47.0203C65.2902 48.4303 63.5602 49.9202 60.9902 51.4702C52.2402 48.5202 48.9798 46.5802 47.7998 45.4602C46.2098 43.9502 45.4399 41.9403 45.4399 39.3203C45.4399 36.7003 46.3399 34.6303 48.1899 33.0203ZM67.27 84.6104C64.76 86.7504 61.0999 87.8303 56.3999 87.8303C52.0099 87.8303 48.6602 86.7702 46.4302 84.6702C44.2002 82.5802 43.1299 79.6602 43.1299 75.7402C43.1299 72.7202 43.8501 70.2702 45.3301 68.2502C46.7501 66.3202 49.3498 64.5104 53.0698 62.8604C60.6898 65.6304 65.69 67.9004 67.96 69.6104C69.94 71.1104 70.9102 73.3103 70.9102 76.3503C70.9102 79.8203 69.7198 82.5204 67.2798 84.6104H67.27Z" fill="black"/>
<path d="M400.28 595.351C394.47 599.311 391.53 604.151 391.53 609.811C391.53 612.751 392.41 615.58 394.15 618.23C395.88 620.87 398.4 622.97 401.64 624.47C404.8 625.94 408.55 626.69 412.75 626.69C418.98 626.69 424.21 624.76 428.31 620.93C432.44 617.08 434.54 612.401 434.54 607.021C434.54 600.111 431.34 594.661 425 590.791C428.79 589.081 431.59 587.111 433.49 584.821C436.07 581.711 437.38 578.04 437.38 573.89C437.38 568.38 435.13 563.721 430.7 560.051C426.39 556.471 420.51 554.65 413.23 554.65C404.92 554.65 398.38 557.35 393.82 562.67C390.27 566.8 388.47 571.7 388.47 577.24C388.47 581.82 389.74 585.811 392.23 589.101C394.08 591.531 396.78 593.621 400.29 595.331L400.28 595.351ZM421.38 616.91C419.47 618.57 416.68 619.41 413.07 619.41C409.46 619.41 406.57 618.52 404.74 616.76C402.91 615 402.01 612.501 402.01 609.101C402.01 606.501 402.48 604.42 403.41 602.91C404.28 601.5 406.01 600.01 408.58 598.46C417.33 601.41 420.59 603.35 421.77 604.47C423.36 605.98 424.13 607.991 424.13 610.611C424.13 613.231 423.23 615.3 421.38 616.91ZM402.3 565.321C404.81 563.181 408.47 562.101 413.17 562.101C417.56 562.101 420.91 563.16 423.14 565.26C425.37 567.35 426.44 570.27 426.44 574.19C426.44 577.21 425.72 579.66 424.24 581.68C422.82 583.61 420.22 585.421 416.5 587.071C408.88 584.301 403.88 582.031 401.61 580.321C399.63 578.821 398.66 576.621 398.66 573.581C398.66 570.111 399.85 567.411 402.29 565.321H402.3Z" fill="black"/>
<defs>
<linearGradient id="paint0_linear_145_1618" x1="380.83" y1="-103.55" x2="110.35" y2="690.32" gradientUnits="userSpaceOnUse">
<stop stop-color="#E1E1E1"/>
<stop offset="0.12" stop-color="#ECECEC"/>
<stop offset="0.32" stop-color="#FAFAFA"/>
<stop offset="0.49" stop-color="white"/>
<stop offset="0.7" stop-color="#FBFBFB"/>
<stop offset="0.85" stop-color="#F2F2F2"/>
<stop offset="0.99" stop-color="#E2E2E2"/>
<stop offset="1" stop-color="#E1E1E1"/>
</linearGradient>
</defs>
</svg>
