<svg width="469" height="650" viewBox="0 0 469 650" fill="none" xmlns="http://www.w3.org/2000/svg">
<path d="M439.9 0.610352H30.02C13.95 0.610352 0.919922 12.6703 0.919922 27.5403V622.38C0.919922 637.25 13.95 649.31 30.02 649.31H439.9C455.97 649.31 469 637.25 469 622.38V27.5403C469 12.6703 455.97 0.610352 439.9 0.610352Z" fill="url(#paint0_linear_145_1662)"/>
<path d="M57.3701 107.41L57.2798 107.24L57.1899 107.41C51.4699 119.62 34.5298 126.32 34.5298 139.44C34.5298 150.41 49.0401 154.65 56.1201 145.47C56.2701 145 56.1099 148.39 55.6299 150.29C54.2299 154.94 49.8202 161.35 46.6602 164.87C46.3902 165.17 46.6998 165.6 47.0698 165.47C52.2098 163.55 62.37 163.55 67.5 165.47C67.87 165.61 68.1802 165.17 67.9102 164.87C64.8102 161.4 60.5702 155.16 58.9302 150.28C58.5202 148.64 58.2799 146.99 58.1699 145.33C65.0799 155.29 80.0298 150.63 80.0298 139.43C80.0298 126.31 63.0901 119.61 57.3701 107.4V107.41Z" fill="black"/>
<path d="M413.57 542.66L413.66 542.83L413.75 542.66C419.47 530.45 436.41 523.75 436.41 510.63C436.41 499.66 421.9 495.42 414.82 504.6C414.67 505.07 414.83 501.68 415.31 499.78C416.71 495.13 421.12 488.72 424.28 485.2C424.55 484.9 424.24 484.47 423.87 484.6C418.73 486.52 408.57 486.52 403.44 484.6C403.07 484.46 402.76 484.9 403.03 485.2C406.13 488.67 410.37 494.91 412.01 499.79C412.42 501.43 412.66 503.08 412.77 504.74C405.86 494.78 390.91 499.44 390.91 510.64C390.91 523.76 407.85 530.46 413.57 542.67V542.66Z" fill="black"/>
<path d="M140.3 594.46L140.5 594.861L140.71 594.46C154.16 565.75 193.99 550 193.99 519.15C193.99 493.35 159.87 483.38 143.23 504.97C142.88 506.07 143.26 498.11 144.38 493.63C147.68 482.69 158.04 467.631 165.48 459.341C166.11 458.641 165.38 457.61 164.51 457.94C152.43 462.45 128.54 462.45 116.47 457.94C115.59 457.61 114.87 458.641 115.5 459.341C122.79 467.501 132.75 482.16 136.62 493.64C137.58 497.5 138.16 501.381 138.41 505.271C122.17 481.851 87.0098 492.81 87.0098 519.15C87.0098 549.99 126.85 565.75 140.3 594.46Z" fill="black"/>
<path d="M140.43 55.52L140.23 55.1201L140.02 55.52C126.57 84.23 86.7402 99.9801 86.7402 130.83C86.7402 156.63 120.86 166.6 137.5 145.01C137.85 143.91 137.47 151.87 136.35 156.35C133.05 167.29 122.69 182.35 115.25 190.64C114.62 191.34 115.35 192.37 116.22 192.04C128.3 187.53 152.19 187.53 164.26 192.04C165.14 192.37 165.86 191.34 165.23 190.64C157.94 182.48 147.98 167.82 144.11 156.34C143.15 152.48 142.57 148.6 142.32 144.71C158.56 168.13 193.72 157.17 193.72 130.83C193.72 99.9901 153.88 84.23 140.43 55.52Z" fill="black"/>
<path d="M330.17 594.46L330.37 594.861L330.58 594.46C344.03 565.75 383.86 550 383.86 519.15C383.86 493.35 349.74 483.38 333.1 504.97C332.75 506.07 333.13 498.11 334.25 493.63C337.55 482.69 347.91 467.631 355.35 459.341C355.98 458.641 355.25 457.61 354.38 457.94C342.3 462.45 318.41 462.45 306.34 457.94C305.46 457.61 304.74 458.641 305.37 459.341C312.66 467.501 322.62 482.16 326.49 493.64C327.45 497.5 328.03 501.381 328.28 505.271C312.04 481.851 276.88 492.81 276.88 519.15C276.88 549.99 316.72 565.75 330.17 594.46Z" fill="black"/>
<path d="M140.02 461.7L140.22 462.1L140.43 461.7C153.88 432.99 193.71 417.24 193.71 386.39C193.71 360.59 159.59 350.62 142.95 372.21C142.6 373.31 142.98 365.35 144.1 360.87C147.4 349.93 157.76 334.87 165.2 326.58C165.83 325.88 165.1 324.85 164.23 325.18C152.15 329.69 128.26 329.69 116.19 325.18C115.31 324.85 114.59 325.88 115.22 326.58C122.51 334.74 132.47 349.4 136.34 360.88C137.3 364.74 137.88 368.62 138.13 372.51C121.89 349.09 86.73 360.05 86.73 386.39C86.73 417.23 126.57 432.99 140.02 461.7Z" fill="black"/>
<path d="M329.88 461.7L330.08 462.1L330.29 461.7C343.74 432.99 383.57 417.24 383.57 386.39C383.57 360.59 349.45 350.62 332.81 372.21C332.46 373.31 332.84 365.35 333.96 360.87C337.26 349.93 347.62 334.87 355.06 326.58C355.69 325.88 354.96 324.85 354.09 325.18C342.01 329.69 318.12 329.69 306.05 325.18C305.17 324.85 304.45 325.88 305.08 326.58C312.37 334.74 322.33 349.4 326.2 360.88C327.16 364.74 327.74 368.62 327.99 372.51C311.75 349.09 276.59 360.05 276.59 386.39C276.59 417.23 316.43 432.99 329.88 461.7Z" fill="black"/>
<path d="M330.29 55.52L330.09 55.1201L329.88 55.52C316.43 84.23 276.6 99.9801 276.6 130.83C276.6 156.63 310.72 166.6 327.36 145.01C327.71 143.91 327.33 151.87 326.21 156.35C322.91 167.29 312.55 182.35 305.11 190.64C304.48 191.34 305.21 192.37 306.08 192.04C318.16 187.53 342.05 187.53 354.12 192.04C355 192.37 355.72 191.34 355.09 190.64C347.8 182.48 337.84 167.82 333.97 156.34C333.01 152.48 332.43 148.6 332.18 144.71C348.42 168.13 383.58 157.17 383.58 130.83C383.58 99.9901 343.74 84.23 330.29 55.52Z" fill="black"/>
<path d="M140.43 188.54L140.23 188.14L140.02 188.54C126.57 217.25 86.7402 233 86.7402 263.85C86.7402 289.65 120.86 299.62 137.5 278.03C137.85 276.93 137.47 284.89 136.35 289.37C133.05 300.31 122.69 315.37 115.25 323.66C114.62 324.36 115.35 325.39 116.22 325.06C128.3 320.55 152.19 320.55 164.26 325.06C165.14 325.39 165.86 324.36 165.23 323.66C157.94 315.5 147.98 300.84 144.11 289.36C143.15 285.5 142.57 281.62 142.32 277.73C158.56 301.15 193.72 290.19 193.72 263.85C193.72 233.01 153.88 217.25 140.43 188.54Z" fill="black"/>
<path d="M330.29 188.54L330.09 188.14L329.88 188.54C316.43 217.25 276.6 233 276.6 263.85C276.6 289.65 310.72 299.62 327.36 278.03C327.71 276.93 327.33 284.89 326.21 289.37C322.91 300.31 312.55 315.37 305.11 323.66C304.48 324.36 305.21 325.39 306.08 325.06C318.16 320.55 342.05 320.55 354.12 325.06C355 325.39 355.72 324.36 355.09 323.66C347.8 315.5 337.84 300.84 333.97 289.36C333.01 285.5 332.43 281.62 332.18 277.73C348.42 301.15 383.58 290.19 383.58 263.85C383.58 233.01 343.74 217.25 330.29 188.54Z" fill="black"/>
<path d="M235.36 257.03L235.16 256.63L234.95 257.03C221.5 285.74 181.67 301.49 181.67 332.34C181.67 358.14 215.79 368.11 232.43 346.52C232.78 345.42 232.4 353.38 231.28 357.86C227.98 368.8 217.62 383.86 210.18 392.15C209.55 392.85 210.28 393.88 211.15 393.55C223.23 389.04 247.12 389.04 259.19 393.55C260.07 393.88 260.79 392.85 260.16 392.15C252.87 383.99 242.91 369.33 239.04 357.85C238.08 353.99 237.5 350.11 237.25 346.22C253.49 369.64 288.65 358.68 288.65 332.34C288.65 301.5 248.81 285.74 235.36 257.03Z" fill="black"/>
<path d="M75.0898 32.4695C70.3598 26.5795 64.3602 23.5996 57.2402 23.5996C50.7902 23.5996 45.1698 26.0196 40.5298 30.7896C35.9098 35.5496 33.5698 41.3994 33.5698 48.1694C33.5698 54.9394 35.7498 60.5895 40.0498 64.2795C44.2698 67.8895 49.0302 69.7195 54.2202 69.7195C57.9602 69.7195 61.3799 68.8496 64.4199 67.1196C65.9299 66.2596 67.3499 65.1894 68.6699 63.9094C68.5799 69.6294 67.8402 74.3495 66.4902 77.9795C65.1002 81.7195 63.2999 84.4095 61.1499 85.9695C58.9999 87.5395 56.5602 88.2996 53.7002 88.2996C51.2002 88.2996 50.1598 87.8794 49.7598 87.6394C49.3198 87.3594 49.1499 87.1396 49.1499 87.1096C49.1499 87.1096 49.1999 86.8496 49.6299 86.2896C50.8999 84.6796 51.5601 83.0996 51.5601 81.5896C51.5601 79.5796 50.8101 77.8394 49.3301 76.4194C46.3001 73.4594 41.1698 73.6395 38.2998 76.7195C36.8098 78.2895 36.0698 80.3496 36.0698 82.8196C36.0698 86.4096 37.7102 89.5095 40.9302 92.0295C44.0002 94.4195 48.2102 95.6394 53.4702 95.6394C58.7302 95.6394 63.7298 94.1495 68.0098 91.1995C72.2698 88.2695 75.73 83.7894 78.27 77.8794C80.78 72.0694 82.0498 64.8795 82.0498 56.5295C82.0498 46.3195 79.7101 38.2295 75.1001 32.4795L75.0898 32.4695ZM65.1699 57.1895C63.0899 59.6095 60.5901 60.7795 57.5601 60.7795C54.5301 60.7795 52.1002 59.7095 50.2202 57.4995C48.2902 55.2295 47.2998 51.5895 47.2998 46.6995C47.2998 41.2695 48.2998 37.2094 50.2798 34.6394C52.1598 32.1994 54.4801 31.0095 57.3701 31.0095C60.2601 31.0095 62.8002 32.3095 64.9902 34.9895C67.2402 37.7495 68.3799 41.6095 68.3799 46.4595C68.3799 51.3095 67.2902 54.7094 65.1602 57.1794L65.1699 57.1895Z" fill="black"/>
<path d="M395.58 617.821C400.31 623.711 406.31 626.69 413.43 626.69C419.88 626.69 425.5 624.27 430.14 619.5C434.76 614.74 437.1 608.891 437.1 602.121C437.1 595.351 434.92 589.7 430.62 586.01C426.4 582.4 421.64 580.571 416.45 580.571C412.71 580.571 409.28 581.44 406.25 583.17C404.74 584.03 403.32 585.1 402 586.38C402.09 580.66 402.83 575.941 404.18 572.311C405.57 568.571 407.37 565.881 409.52 564.321C411.67 562.751 414.11 561.99 416.97 561.99C419.47 561.99 420.51 562.41 420.91 562.65C421.35 562.93 421.52 563.15 421.52 563.18C421.52 563.18 421.47 563.44 421.04 564C419.77 565.61 419.11 567.19 419.11 568.7C419.11 570.71 419.86 572.451 421.34 573.871C424.37 576.831 429.5 576.651 432.37 573.571C433.86 572.001 434.6 569.94 434.6 567.47C434.6 563.88 432.96 560.78 429.74 558.26C426.67 555.87 422.46 554.65 417.2 554.65C411.94 554.65 406.94 556.141 402.66 559.091C398.4 562.021 394.94 566.5 392.4 572.41C389.89 578.22 388.62 585.41 388.62 593.76C388.62 603.97 390.96 612.061 395.57 617.811L395.58 617.821ZM405.5 593.101C407.58 590.681 410.08 589.51 413.11 589.51C416.14 589.51 418.57 590.581 420.45 592.791C422.38 595.061 423.37 598.701 423.37 603.591C423.37 609.021 422.37 613.08 420.39 615.65C418.51 618.09 416.19 619.281 413.3 619.281C410.41 619.281 407.87 617.981 405.68 615.301C403.43 612.541 402.29 608.681 402.29 603.831C402.29 598.981 403.38 595.581 405.51 593.111L405.5 593.101Z" fill="black"/>
<defs>
<linearGradient id="paint0_linear_145_1662" x1="380.96" y1="-103.55" x2="110.48" y2="690.32" gradientUnits="userSpaceOnUse">
<stop stop-color="#E1E1E1"/>
<stop offset="0.12" stop-color="#ECECEC"/>
<stop offset="0.32" stop-color="#FAFAFA"/>
<stop offset="0.49" stop-color="white"/>
<stop offset="0.7" stop-color="#FBFBFB"/>
<stop offset="0.85" stop-color="#F2F2F2"/>
<stop offset="0.99" stop-color="#E2E2E2"/>
<stop offset="1" stop-color="#E1E1E1"/>
</linearGradient>
</defs>
</svg>
