<svg width="469" height="650" viewBox="0 0 469 650" fill="none" xmlns="http://www.w3.org/2000/svg">
<path d="M439.03 0.610352H29.1499C13.0799 0.610352 0.0498047 12.6703 0.0498047 27.5403V622.38C0.0498047 637.25 13.0799 649.31 29.1499 649.31H439.03C455.1 649.31 468.13 637.25 468.13 622.38V27.5403C468.13 12.6703 455.1 0.610352 439.03 0.610352Z" fill="url(#paint0_linear_145_1710)"/>
<path d="M56.5 107.41L56.4102 107.24L56.3198 107.41C50.5998 119.62 33.6602 126.32 33.6602 139.44C33.6602 150.41 48.17 154.65 55.25 145.47C55.4 145 55.2398 148.39 54.7598 150.29C53.3598 154.94 48.95 161.35 45.79 164.87C45.52 165.17 45.8302 165.6 46.2002 165.47C51.3402 163.55 61.4999 163.55 66.6299 165.47C66.9999 165.61 67.31 165.17 67.04 164.87C63.94 161.4 59.7001 155.16 58.0601 150.28C57.6501 148.64 57.4098 146.99 57.2998 145.33C64.2098 155.29 79.1602 150.63 79.1602 139.43C79.1602 126.31 62.22 119.61 56.5 107.4V107.41Z" fill="black"/>
<path d="M412.7 542.66L412.79 542.83L412.88 542.66C418.6 530.45 435.54 523.75 435.54 510.63C435.54 499.66 421.03 495.42 413.95 504.6C413.8 505.07 413.96 501.68 414.44 499.78C415.84 495.13 420.25 488.72 423.41 485.2C423.68 484.9 423.37 484.47 423 484.6C417.86 486.52 407.7 486.52 402.57 484.6C402.2 484.46 401.89 484.9 402.16 485.2C405.26 488.67 409.5 494.91 411.14 499.79C411.55 501.43 411.79 503.08 411.9 504.74C404.99 494.78 390.04 499.44 390.04 510.64C390.04 523.76 406.98 530.46 412.7 542.67V542.66Z" fill="black"/>
<path d="M139.43 594.46L139.63 594.861L139.84 594.46C153.29 565.75 193.12 550 193.12 519.15C193.12 493.35 159 483.38 142.36 504.97C142.01 506.07 142.39 498.11 143.51 493.63C146.81 482.69 157.17 467.631 164.61 459.341C165.24 458.641 164.51 457.61 163.64 457.94C151.56 462.45 127.67 462.45 115.6 457.94C114.72 457.61 114 458.641 114.63 459.341C121.92 467.501 131.88 482.16 135.75 493.64C136.71 497.5 137.29 501.381 137.54 505.271C121.3 481.851 86.1401 492.81 86.1401 519.15C86.1401 549.99 125.98 565.75 139.43 594.46Z" fill="black"/>
<path d="M139.56 55.52L139.36 55.1201L139.15 55.52C125.7 84.23 85.8701 99.9801 85.8701 130.83C85.8701 156.63 119.99 166.6 136.63 145.01C136.98 143.91 136.6 151.87 135.48 156.35C132.18 167.29 121.82 182.35 114.38 190.64C113.75 191.34 114.48 192.37 115.35 192.04C127.43 187.53 151.32 187.53 163.39 192.04C164.27 192.37 164.99 191.34 164.36 190.64C157.07 182.48 147.11 167.82 143.24 156.34C142.28 152.48 141.7 148.6 141.45 144.71C157.69 168.13 192.85 157.17 192.85 130.83C192.85 99.9901 153.01 84.23 139.56 55.52Z" fill="black"/>
<path d="M329.29 594.46L329.49 594.861L329.7 594.46C343.15 565.75 382.98 550 382.98 519.15C382.98 493.35 348.86 483.38 332.22 504.97C331.87 506.07 332.25 498.11 333.37 493.63C336.67 482.69 347.03 467.631 354.47 459.341C355.1 458.641 354.37 457.61 353.5 457.94C341.42 462.45 317.53 462.45 305.46 457.94C304.58 457.61 303.86 458.641 304.49 459.341C311.78 467.501 321.74 482.16 325.61 493.64C326.57 497.5 327.15 501.381 327.4 505.271C311.16 481.851 276 492.81 276 519.15C276 549.99 315.84 565.75 329.29 594.46Z" fill="black"/>
<path d="M139.15 461.7L139.35 462.1L139.56 461.7C153.01 432.99 192.84 417.24 192.84 386.39C192.84 360.59 158.72 350.62 142.08 372.21C141.73 373.31 142.11 365.35 143.23 360.87C146.53 349.93 156.89 334.87 164.33 326.58C164.96 325.88 164.23 324.85 163.36 325.18C151.28 329.69 127.39 329.69 115.32 325.18C114.44 324.85 113.72 325.88 114.35 326.58C121.64 334.74 131.6 349.4 135.47 360.88C136.43 364.74 137.01 368.62 137.26 372.51C121.02 349.09 85.8599 360.05 85.8599 386.39C85.8599 417.23 125.7 432.99 139.15 461.7Z" fill="black"/>
<path d="M329.01 461.7L329.21 462.1L329.42 461.7C342.87 432.99 382.7 417.24 382.7 386.39C382.7 360.59 348.58 350.62 331.94 372.21C331.59 373.31 331.97 365.35 333.09 360.87C336.39 349.93 346.75 334.87 354.19 326.58C354.82 325.88 354.09 324.85 353.22 325.18C341.14 329.69 317.25 329.69 305.18 325.18C304.3 324.85 303.58 325.88 304.21 326.58C311.5 334.74 321.46 349.4 325.33 360.88C326.29 364.74 326.87 368.62 327.12 372.51C310.88 349.09 275.72 360.05 275.72 386.39C275.72 417.23 315.56 432.99 329.01 461.7Z" fill="black"/>
<path d="M329.42 55.52L329.22 55.1201L329.01 55.52C315.56 84.23 275.73 99.9801 275.73 130.83C275.73 156.63 309.85 166.6 326.49 145.01C326.84 143.91 326.46 151.87 325.34 156.35C322.04 167.29 311.68 182.35 304.24 190.64C303.61 191.34 304.34 192.37 305.21 192.04C317.29 187.53 341.18 187.53 353.25 192.04C354.13 192.37 354.85 191.34 354.22 190.64C346.93 182.48 336.97 167.82 333.1 156.34C332.14 152.48 331.56 148.6 331.31 144.71C347.55 168.13 382.71 157.17 382.71 130.83C382.71 99.9901 342.87 84.23 329.42 55.52Z" fill="black"/>
<path d="M139.56 188.54L139.36 188.14L139.15 188.54C125.7 217.25 85.8701 233 85.8701 263.85C85.8701 289.65 119.99 299.62 136.63 278.03C136.98 276.93 136.6 284.89 135.48 289.37C132.18 300.31 121.82 315.37 114.38 323.66C113.75 324.36 114.48 325.39 115.35 325.06C127.43 320.55 151.32 320.55 163.39 325.06C164.27 325.39 164.99 324.36 164.36 323.66C157.07 315.5 147.11 300.84 143.24 289.36C142.28 285.5 141.7 281.62 141.45 277.73C157.69 301.15 192.85 290.19 192.85 263.85C192.85 233.01 153.01 217.25 139.56 188.54Z" fill="black"/>
<path d="M329.42 188.54L329.22 188.14L329.01 188.54C315.56 217.25 275.73 233 275.73 263.85C275.73 289.65 309.85 299.62 326.49 278.03C326.84 276.93 326.46 284.89 325.34 289.37C322.04 300.31 311.68 315.37 304.24 323.66C303.61 324.36 304.34 325.39 305.21 325.06C317.29 320.55 341.18 320.55 353.25 325.06C354.13 325.39 354.85 324.36 354.22 323.66C346.93 315.5 336.97 300.84 333.1 289.36C332.14 285.5 331.56 281.62 331.31 277.73C347.55 301.15 382.71 290.19 382.71 263.85C382.71 233.01 342.87 217.25 329.42 188.54Z" fill="black"/>
<path d="M234.49 116.58L234.29 116.18L234.08 116.58C220.63 145.29 180.8 161.04 180.8 191.89C180.8 217.69 214.92 227.66 231.56 206.07C231.91 204.97 231.53 212.93 230.41 217.41C227.11 228.35 216.75 243.41 209.31 251.7C208.68 252.4 209.41 253.43 210.28 253.1C222.36 248.59 246.25 248.59 258.32 253.1C259.2 253.43 259.92 252.4 259.29 251.7C252 243.54 242.04 228.88 238.17 217.4C237.21 213.54 236.63 209.66 236.38 205.77C252.62 229.19 287.78 218.23 287.78 191.89C287.78 161.05 247.94 145.29 234.49 116.58Z" fill="black"/>
<path d="M234.08 533.371L234.28 533.771L234.49 533.371C247.94 504.661 287.77 488.911 287.77 458.061C287.77 432.261 253.65 422.29 237.01 443.88C236.66 444.98 237.04 437.021 238.16 432.541C241.46 421.601 251.82 406.54 259.26 398.25C259.89 397.55 259.16 396.521 258.29 396.851C246.21 401.361 222.32 401.361 210.25 396.851C209.37 396.521 208.65 397.55 209.28 398.25C216.57 406.41 226.53 421.071 230.4 432.551C231.36 436.411 231.94 440.29 232.19 444.18C215.95 420.76 180.79 431.721 180.79 458.061C180.79 488.901 220.63 504.661 234.08 533.371Z" fill="black"/>
<path d="M63.6099 22.96C57.5799 22.96 52.68 25.8701 49.02 31.6201C44.67 38.4501 42.4702 47.7001 42.4702 59.0901C42.4702 71.0901 44.82 80.4599 49.46 86.9399C53.3 92.2799 58.1799 94.99 63.9399 94.99C69.6999 94.99 75.08 91.79 79.25 85.49C83.31 79.35 85.3701 70.4099 85.3701 58.9099C85.3701 46.5099 83.0001 37.0701 78.3301 30.8401C74.4301 25.6101 69.4801 22.96 63.6201 22.96H63.6099ZM70.6499 83.04C69.0499 86.18 66.8599 87.7 63.9399 87.7C61.0199 87.7 58.78 86.0201 57 82.5601C55.07 78.8001 54.0898 70.9101 54.0898 59.0901C54.0898 44.0201 55.6101 37.8601 56.8901 35.3601C58.6001 32.0101 60.8701 30.3899 63.8501 30.3899C66.8301 30.3899 69.0301 32.1199 70.8501 35.6699C72.8201 39.5199 73.8198 47.5099 73.8198 59.4299C73.8198 71.3499 72.7501 78.8801 70.6401 83.05L70.6499 83.04Z" fill="black"/>
<path d="M34.6499 85.0203V24.1104H30.21L29.7202 24.5002C27.7602 26.0702 25.4298 27.3703 22.8198 28.3503C20.1498 29.3503 16.59 30.1703 12.25 30.7803L10.6401 31.0002V38.0403H22.0601C22.8401 38.0403 23.1999 38.3002 23.3999 38.4902C23.6999 38.7802 23.7598 39.0103 23.7598 39.2803V83.7803C23.7598 84.7603 23.4602 85.1902 23.2402 85.4302C22.7902 85.9102 21.89 86.0103 21.21 86.0103H12.21V93.5803H46.9502V86.0103H36.7402C35.9202 86.0103 35.2699 85.8102 34.6499 85.0002V85.0203Z" fill="black"/>
<path d="M405.12 626.81C411.15 626.81 416.05 623.9 419.71 618.15C424.06 611.32 426.26 602.07 426.26 590.68C426.26 578.68 423.91 569.31 419.27 562.83C415.43 557.49 410.55 554.78 404.79 554.78C399.03 554.78 393.65 557.98 389.48 564.28C385.42 570.42 383.36 579.36 383.36 590.86C383.36 603.26 385.73 612.7 390.4 618.93C394.3 624.16 399.25 626.81 405.11 626.81H405.12ZM398.08 566.73C399.68 563.59 401.87 562.07 404.79 562.07C407.71 562.07 409.95 563.75 411.73 567.21C413.66 570.97 414.64 578.86 414.64 590.68C414.64 605.75 413.12 611.91 411.84 614.41C410.13 617.76 407.86 619.38 404.88 619.38C401.9 619.38 399.7 617.65 397.88 614.1C395.91 610.25 394.91 602.26 394.91 590.34C394.91 578.42 395.98 570.89 398.09 566.72L398.08 566.73Z" fill="black"/>
<path d="M434.09 564.75V625.659H438.53L439.02 625.27C440.98 623.7 443.31 622.399 445.92 621.419C448.59 620.419 452.15 619.6 456.49 618.99L458.1 618.77V611.729H446.68C445.9 611.729 445.54 611.47 445.34 611.28C445.04 610.99 444.98 610.76 444.98 610.49V565.99C444.98 565.01 445.28 564.58 445.5 564.34C445.95 563.86 446.85 563.76 447.53 563.76H456.53V556.189H421.79V563.76H432C432.82 563.76 433.47 563.96 434.09 564.77V564.75Z" fill="black"/>
<defs>
<linearGradient id="paint0_linear_145_1710" x1="380.09" y1="-103.55" x2="109.61" y2="690.32" gradientUnits="userSpaceOnUse">
<stop stop-color="#E1E1E1"/>
<stop offset="0.12" stop-color="#ECECEC"/>
<stop offset="0.32" stop-color="#FAFAFA"/>
<stop offset="0.49" stop-color="white"/>
<stop offset="0.7" stop-color="#FBFBFB"/>
<stop offset="0.85" stop-color="#F2F2F2"/>
<stop offset="0.99" stop-color="#E2E2E2"/>
<stop offset="1" stop-color="#E1E1E1"/>
</linearGradient>
</defs>
</svg>
