<svg width="469" height="650" viewBox="0 0 469 650" fill="none" xmlns="http://www.w3.org/2000/svg">
<path d="M439.39 0.609863H29.51C13.44 0.609863 0.409912 12.6699 0.409912 27.5399V622.38C0.409912 637.25 13.44 649.31 29.51 649.31H439.39C455.46 649.31 468.49 637.25 468.49 622.38V27.5399C468.49 12.6699 455.46 0.609863 439.39 0.609863Z" fill="url(#paint0_linear_145_1454)"/>
<path d="M234.64 291.73C219.22 263.33 179.91 274.33 179.91 302.49C179.91 334.04 220.66 345.2 234.43 374.57L234.64 374.98L234.85 374.57C248.61 345.2 289.37 334.05 289.37 302.49C289.37 274.33 250.06 263.32 234.64 291.73Z" fill="#EB3000"/>
<path d="M57.24 114.63C50.68 102.55 33.97 107.23 33.97 119.21C33.97 132.63 51.2999 137.37 57.1499 149.86L57.24 150.04L57.3301 149.86C63.1801 137.37 80.52 132.63 80.52 119.21C80.52 107.23 63.8 102.55 57.24 114.63Z" fill="#EB3000"/>
<path d="M412.96 535.55C419.52 547.63 436.23 542.95 436.23 530.97C436.23 517.55 418.9 512.81 413.05 500.32L412.96 500.14L412.87 500.32C407.02 512.81 389.68 517.55 389.68 530.97C389.68 542.95 406.4 547.63 412.96 535.55Z" fill="#EB3000"/>
<path d="M329.86 578.64C345.28 607.04 384.59 596.04 384.59 567.88C384.59 536.33 343.84 525.17 330.07 495.8L329.86 495.39L329.65 495.8C315.89 525.17 275.13 536.32 275.13 567.88C275.13 596.04 314.44 607.05 329.86 578.64Z" fill="#EB3000"/>
<path d="M329.38 70.7C313.96 42.3 274.65 53.3 274.65 81.46C274.65 113.01 315.4 124.17 329.17 153.54L329.38 153.95L329.59 153.54C343.35 124.17 384.11 113.02 384.11 81.46C384.11 53.3 344.8 42.29 329.38 70.7Z" fill="#EB3000"/>
<path d="M140 578.64C155.42 607.04 194.73 596.04 194.73 567.88C194.73 536.33 153.98 525.17 140.21 495.8L140 495.39L139.79 495.8C126.03 525.17 85.27 536.32 85.27 567.88C85.27 596.04 124.58 607.05 140 578.64Z" fill="#EB3000"/>
<path d="M139.51 70.7C124.09 42.3 84.7803 53.3 84.7803 81.46C84.7803 113.01 125.53 124.17 139.3 153.54L139.51 153.95L139.72 153.54C153.48 124.17 194.24 113.02 194.24 81.46C194.24 53.3 154.93 42.29 139.51 70.7Z" fill="#EB3000"/>
<path d="M55.6699 47.6401C53.5499 47.6401 51.3 47.9701 48.96 48.6101C47.66 48.9701 46.33 49.4301 44.95 49.9901L46 37.6602C54.84 39.4002 61.3801 39.4502 66.5901 37.1602C69.3301 35.9602 71.5299 34.3001 73.1499 32.2401C74.8899 30.0101 75.7 28.2301 75.7 26.6301C75.7 24.8401 74.45 23.9102 73.21 23.9102C72.68 23.9102 72.1399 24.0901 71.1699 24.6001C70.5899 24.9401 69.3901 25.4501 67.0701 25.9601C65.1401 26.3801 63.0501 26.6001 60.8501 26.6001C55.9901 26.6001 49.5901 25.7002 41.8101 23.9102L39.3601 23.3501L39.3401 25.8601C39.3101 30.8701 39.0799 36.1902 38.6599 41.6602L37.6001 55.0502C37.5301 55.1402 37.4301 55.2501 37.3101 55.4001C35.6601 57.1301 34.8201 58.9801 34.8201 60.8901C34.8201 62.1701 35.1701 63.2302 35.8701 64.0402C37.5701 66.0302 40.9499 65.7501 42.6699 63.5101C43.3899 62.5701 43.8699 61.1301 44.1499 59.0001C45.6399 57.9801 47.1401 57.1901 48.6101 56.6501C50.2701 56.0401 51.9401 55.7301 53.5801 55.7301C57.1901 55.7301 60.0601 56.9101 62.3601 59.3501C64.6601 61.7801 65.8201 65.8402 65.8201 71.4102C65.8201 77.6202 64.7 82.0901 62.5 84.6901C60.34 87.2301 57.25 88.4601 53.01 88.4601C50.83 88.4601 48.88 88.1201 47.23 87.4501C45.66 86.8201 44.51 86.0301 43.79 85.1101C43.29 84.4701 42.9701 83.8801 42.8501 83.4001C42.9901 83.3101 43.21 83.2001 43.54 83.0701C45.35 82.4101 46.6001 81.5502 47.3701 80.4302C48.1301 79.3402 48.5 77.8901 48.5 76.1301C48.5 73.8101 47.7801 71.8801 46.3701 70.3801C43.4401 67.2501 37.9201 67.2401 35.0601 70.9501C33.7001 72.7101 33.01 75.1301 33.01 78.1501C33.01 83.0001 34.95 87.2301 38.79 90.7101C42.57 94.1401 47.4999 95.8801 53.4299 95.8801C61.0399 95.8801 67.36 93.5201 72.2 88.8501C77.0499 84.1701 79.51 78.1402 79.51 70.9302C79.51 64.3902 77.1801 58.8001 72.6001 54.3401C68.0401 49.8901 62.3399 47.6301 55.6499 47.6301L55.6699 47.6401Z" fill="#EB3000"/>
<path d="M412.96 602.41C415.08 602.41 417.33 602.08 419.67 601.44C420.97 601.08 422.3 600.62 423.68 600.06L422.63 612.39C413.79 610.65 407.25 610.6 402.04 612.89C399.3 614.09 397.1 615.74 395.48 617.81C393.74 620.04 392.93 621.82 392.93 623.42C392.93 625.21 394.18 626.14 395.42 626.14C395.95 626.14 396.49 625.96 397.46 625.45C398.04 625.11 399.24 624.6 401.56 624.09C403.49 623.67 405.58 623.45 407.78 623.45C412.64 623.45 419.04 624.35 426.82 626.14L429.27 626.7L429.29 624.19C429.32 619.18 429.55 613.86 429.97 608.39L431.03 595C431.1 594.91 431.2 594.8 431.32 594.65C432.97 592.92 433.81 591.07 433.81 589.16C433.81 587.88 433.46 586.82 432.76 586.01C431.06 584.02 427.68 584.3 425.96 586.54C425.24 587.48 424.76 588.92 424.48 591.05C422.99 592.07 421.49 592.86 420.02 593.4C418.36 594.01 416.69 594.32 415.05 594.32C411.44 594.32 408.57 593.14 406.27 590.7C403.97 588.27 402.81 584.21 402.81 578.64C402.81 572.43 403.93 567.96 406.13 565.36C408.28 562.82 411.38 561.59 415.62 561.59C417.8 561.59 419.75 561.93 421.4 562.6C422.97 563.23 424.12 564.02 424.84 564.94C425.34 565.58 425.66 566.17 425.78 566.65C425.64 566.74 425.42 566.85 425.09 566.98C423.28 567.64 422.03 568.5 421.26 569.62C420.5 570.71 420.13 572.16 420.13 573.92C420.13 576.24 420.85 578.17 422.26 579.67C425.19 582.8 430.71 582.81 433.57 579.1C434.93 577.34 435.62 574.92 435.62 571.9C435.62 567.05 433.68 562.82 429.84 559.34C426.06 555.91 421.13 554.17 415.2 554.17C407.59 554.17 401.27 556.53 396.43 561.2C391.58 565.88 389.12 571.91 389.12 579.12C389.12 585.66 391.45 591.25 396.03 595.71C400.59 600.16 406.29 602.42 412.98 602.42L412.96 602.41Z" fill="#EB3000"/>
<defs>
<linearGradient id="paint0_linear_145_1454" x1="380.45" y1="-103.54" x2="109.96" y2="690.32" gradientUnits="userSpaceOnUse">
<stop stop-color="#E1E1E1"/>
<stop offset="0.12" stop-color="#ECECEC"/>
<stop offset="0.32" stop-color="#FAFAFA"/>
<stop offset="0.49" stop-color="white"/>
<stop offset="0.7" stop-color="#FBFBFB"/>
<stop offset="0.85" stop-color="#F2F2F2"/>
<stop offset="0.99" stop-color="#E2E2E2"/>
<stop offset="1" stop-color="#E1E1E1"/>
</linearGradient>
</defs>
</svg>
