<svg width="469" height="650" viewBox="0 0 469 650" fill="none" xmlns="http://www.w3.org/2000/svg">
<path d="M439.36 0.769531H29.48C13.41 0.769531 0.379883 12.8295 0.379883 27.6995V622.54C0.379883 637.41 13.41 649.469 29.48 649.469H439.36C455.43 649.469 468.46 637.41 468.46 622.54V27.6995C468.46 12.8295 455.43 0.769531 439.36 0.769531Z" fill="url(#paint0_linear_145_1959)"/>
<path d="M56.8398 107.571L56.75 107.4L56.6602 107.571C50.9402 119.781 34 126.481 34 139.601C34 150.571 48.5098 154.81 55.5898 145.63C55.7398 145.16 55.5801 148.55 55.1001 150.45C53.7001 155.1 49.2899 161.511 46.1299 165.031C45.8599 165.331 46.17 165.77 46.54 165.63C51.68 163.71 61.8402 163.71 66.9702 165.63C67.3402 165.77 67.6499 165.331 67.3799 165.031C64.2799 161.561 60.0399 155.32 58.3999 150.44C57.9899 148.8 57.7501 147.15 57.6401 145.49C64.5501 155.45 79.5 150.791 79.5 139.591C79.5 126.471 62.5598 119.771 56.8398 107.561V107.571Z" fill="black"/>
<path d="M413.03 542.82L413.12 542.99L413.21 542.82C418.93 530.61 435.87 523.91 435.87 510.79C435.87 499.82 421.36 495.58 414.28 504.76C414.13 505.23 414.29 501.84 414.77 499.94C416.17 495.29 420.58 488.88 423.74 485.36C424.01 485.06 423.7 484.62 423.33 484.76C418.19 486.68 408.03 486.68 402.9 484.76C402.53 484.62 402.22 485.06 402.49 485.36C405.59 488.83 409.83 495.07 411.47 499.95C411.88 501.59 412.12 503.24 412.23 504.9C405.32 494.94 390.37 499.6 390.37 510.8C390.37 523.92 407.31 530.62 413.03 542.83V542.82Z" fill="black"/>
<path d="M49.0601 29.5103H56.25C58.48 29.5103 59.4699 29.9002 59.9199 30.2302C60.2799 30.5002 60.7598 30.9902 60.7598 32.1802V76.8704C60.7598 81.4804 59.7001 85.1004 57.6001 87.6204C55.5201 90.1204 52.7198 91.3403 49.0698 91.3403C45.8598 91.3403 43.1302 90.4402 40.9502 88.6702C38.8002 86.9202 37.7598 85.0703 37.7598 83.0103C37.7598 82.2003 37.9298 81.8304 38.0898 81.6104C38.2198 81.4304 38.3298 81.3704 38.5498 81.3704C38.5798 81.3704 38.8602 81.3802 39.9502 81.7002C41.0702 82.0502 41.9299 82.2202 42.6099 82.2202C44.3799 82.2202 45.94 81.4803 47.27 80.0303C48.57 78.6003 49.23 76.8302 49.23 74.7502C49.23 72.3702 48.4301 70.3803 46.8501 68.8203C45.2801 67.2703 43.2599 66.4802 40.8599 66.4802C37.9499 66.4802 35.4702 67.6602 33.4902 70.0002C31.5402 72.2802 30.5601 75.3503 30.5601 79.1003C30.5601 84.1203 32.46 88.4201 36.21 91.9001C39.94 95.3501 44.7899 97.1003 50.6299 97.1003C54.8899 97.1003 58.7802 96.2303 62.1802 94.5203C65.6102 92.7903 68.25 90.4102 70.04 87.4402C71.83 84.4802 72.73 81.1202 72.73 77.4602V32.2102C72.73 31.3202 72.97 30.6702 73.48 30.2402C73.86 29.9202 74.6898 29.5403 76.5298 29.5403H81.9302V23.9902H49.0498V29.5403L49.0601 29.5103Z" fill="black"/>
<path d="M419.52 621.09H412.33C410.1 621.09 409.11 620.7 408.66 620.37C408.3 620.1 407.82 619.61 407.82 618.42V573.73C407.82 569.12 408.88 565.5 410.98 562.98C413.06 560.47 415.86 559.26 419.51 559.26C422.72 559.26 425.45 560.16 427.63 561.93C429.78 563.68 430.82 565.53 430.82 567.59C430.82 568.4 430.65 568.77 430.49 568.99C430.36 569.17 430.25 569.23 430.03 569.23C430 569.23 429.72 569.22 428.63 568.9C427.51 568.55 426.65 568.38 425.97 568.38C424.2 568.38 422.64 569.12 421.31 570.57C420.01 572 419.35 573.77 419.35 575.85C419.35 578.23 420.15 580.22 421.73 581.78C423.3 583.33 425.32 584.12 427.72 584.12C430.63 584.12 433.11 582.94 435.09 580.6C437.04 578.32 438.02 575.25 438.02 571.5C438.02 566.48 436.12 562.18 432.37 558.7C428.64 555.25 423.79 553.5 417.95 553.5C413.69 553.5 409.8 554.37 406.4 556.08C402.97 557.81 400.33 560.19 398.54 563.16C396.75 566.12 395.85 569.48 395.85 573.14V618.39C395.85 619.28 395.61 619.93 395.09 620.36C394.71 620.68 393.88 621.06 392.04 621.06H386.64V626.61H419.52V621.06V621.09Z" fill="black"/>
<path d="M194.05 64.7002C190.79 70.9702 190.55 78.6803 193.57 85.0803C192 86.8903 191.04 89.4202 193.21 90.5102C193.45 90.6302 193.81 90.7502 194.17 90.7502C192.96 93.0402 191.64 96.6602 191.52 100.52C189.95 104.14 188.39 106.91 186.7 109.08C180.07 117.64 172.72 116.8 170.67 117.04C169.58 117.16 168.38 116.8 167.41 116.32C165.12 115.48 162.95 114.27 161.5 112.34C160.05 110.41 159.57 108.12 158.73 105.83C157.89 103.54 156.56 101.37 154.99 99.4401C153.42 97.3901 151.37 95.5802 149.93 93.2902C146.67 88.1102 147.28 81.1101 150.41 75.9301C151.13 74.8401 151.86 73.7601 152.34 72.6701C153.67 69.2901 152.1 65.3201 153.55 61.9401C154.88 59.0501 158.13 57.4801 161.27 56.6401C164.4 55.8001 167.66 55.1901 170.19 53.1401C171.4 52.1801 172.36 50.8501 173.2 49.6401C174.16 48.3101 175.01 46.9902 175.97 45.7802C176.33 45.3002 176.69 44.6902 177.18 44.4502C177.66 44.0902 178.27 43.9703 178.87 43.8503C185.14 43.0103 191.77 44.5701 196.95 48.1901C199.48 50.0001 201.65 52.1703 203.7 54.5803C199.6 56.9903 196.1 60.4902 194.06 64.7102L194.05 64.7002Z" fill="#B5D1EB"/>
<path d="M291.47 107.14C291.23 109.79 290.75 112.44 289.42 114.74C287.97 116.91 285.32 118.6 282.67 118.12C281.22 117.88 279.9 116.91 278.69 116.07C277.24 114.98 275.68 113.9 274.35 112.94C272.3 111.13 270.37 109.44 268.68 107.39C269.28 107.15 269.76 106.67 270.01 105.94C270.25 105.1 270.01 104.01 269.65 103.17C268.81 100.88 268.08 98.5899 266.76 96.6599C262.9 90.6299 255.67 87.8599 249.04 85.4499C246.39 84.6099 243.74 83.6399 241.08 82.6799C238.31 81.7199 235.53 80.7499 232.76 80.1499C223.6 78.0999 214.19 79.5501 205.03 81.1101C203.58 81.3501 202.14 81.5901 200.69 81.8301C199 82.0701 197.19 82.4299 195.63 83.1599C195.03 83.5199 194.18 84.2501 193.58 85.0901C190.57 78.7001 190.81 70.9799 194.06 64.7099C196.11 60.4899 199.61 56.9901 203.7 54.5801C205.63 53.3701 207.8 52.41 210.09 51.81C214.43 50.72 219.01 50.6001 223.47 50.8501C239.5 51.6901 255.18 55.7899 269.52 62.9099C273.38 64.8399 277.24 67.01 280.49 70.02C285.43 74.48 288.69 80.6299 290.38 87.1399C292.07 93.6499 292.19 100.52 291.46 107.15L291.47 107.14Z" fill="#0086E7"/>
<path d="M270.01 105.94C269.77 106.66 269.29 107.15 268.68 107.39C268.32 107.75 267.84 107.87 267.35 107.87C266.27 107.99 265.06 107.63 264.1 107.15C260.12 105.22 257.23 101.85 254.09 98.7101C252.76 97.5001 251.44 96.1802 249.99 95.0902C243.36 90.1502 234.8 88.8201 226.72 87.9801C218.64 87.1401 210.57 86.5302 202.61 88.1002C200.8 88.4602 196.46 90.7501 194.17 90.7501C193.81 90.7501 193.45 90.6301 193.21 90.5101C191.04 89.4201 192 86.8902 193.57 85.0802C194.17 84.2402 195.02 83.51 195.62 83.15C197.19 82.43 199 82.0702 200.68 81.8202C202.13 81.5802 203.57 81.3402 205.02 81.1002C214.18 79.5302 223.59 78.09 232.75 80.14C235.52 80.74 238.3 81.71 241.07 82.67C243.72 83.63 246.37 84.6001 249.03 85.4401C255.66 87.8501 262.89 90.62 266.75 96.65C268.08 98.58 268.8 100.87 269.64 103.16C270 104 270.24 105.09 270 105.93L270.01 105.94Z" fill="#E1414A"/>
<path d="M261.93 146.45C261.93 146.45 251.68 133.67 257.95 123.3C259.64 119.32 256.02 117.03 256.02 117.03C256.02 117.03 253.85 115.95 256.86 110.16C256.62 107.15 255.53 103.53 253.97 101.84C253.37 100.63 253.61 99.5497 254.09 98.7097C252.76 97.4997 251.44 96.1798 249.99 95.0898C243.36 90.1498 234.8 88.8197 226.72 87.9797C218.64 87.1397 210.57 86.5299 202.61 88.0999C200.8 88.4599 196.46 90.7498 194.17 90.7498C192.96 93.0398 191.64 96.6598 191.52 100.52V101.97C190.92 104.62 190.19 110.65 190.56 114.87C189.48 119.93 188.51 149.11 201.05 164.54C202.74 166.59 204.55 168.4 206.72 169.84C211.78 175.27 215.4 181.66 219.38 185.39L219.5 185.51C220.46 186.35 221.19 187.08 222.27 187.56C222.51 187.8 222.87 187.92 223.11 188.04C226.37 189.49 231.43 187.92 235.77 185.87C236.98 185.27 238.06 184.66 239.03 184.06C240.96 182.85 242.53 181.65 243.13 180.81C245.18 177.92 261.94 156.82 263.39 151.87C262.55 147.41 261.94 146.44 261.94 146.44L261.93 146.45ZM235.77 175.26C228.78 179.12 220.1 178.76 213.47 175.5C217.21 176.1 220.82 176.1 224.44 175.74C227.94 175.38 231.31 174.53 234.33 172.61C237.46 170.92 240.36 168.63 243.13 166.34C246.02 164.05 248.92 161.76 251.69 159.23C247.83 165.74 242.29 171.17 235.78 175.27L235.77 175.26Z" fill="#FFDEB9"/>
<path d="M251.68 159.23C247.82 165.74 242.28 171.171 235.77 175.271C228.78 179.131 220.1 178.77 213.47 175.51C217.21 176.11 220.82 176.11 224.44 175.75C227.94 175.39 231.31 174.541 234.33 172.621C237.46 170.931 240.36 168.641 243.13 166.351C246.02 164.061 248.92 161.77 251.69 159.24L251.68 159.23Z" fill="#FFDEB9"/>
<path d="M312.44 194.55C310.87 198.17 307.26 200.58 303.4 201.42H303.28C303.04 201.54 302.8 201.66 302.56 201.66C298.34 202.38 294 201.66 289.9 200.7C286.4 199.86 282.79 198.65 279.89 196.6C278.32 195.39 277 194.07 275.91 192.38C274.46 189.85 273.86 186.83 271.93 184.54C271.21 183.7 270.12 182.97 269.16 182.25C268.32 181.65 267.35 181.04 266.63 180.32C266.51 180.2 266.27 180.08 266.15 179.96C261.81 176.22 260.6 169.47 263.26 164.41C264.34 162.48 265.79 160.91 266.27 158.74C266.99 156.09 265.55 153.31 263.38 151.87C262.54 147.41 261.93 146.44 261.93 146.44C261.93 146.44 251.68 133.66 257.95 123.29C259.64 119.31 256.02 117.02 256.02 117.02C256.02 117.02 253.85 115.94 256.86 110.15C256.62 107.14 255.53 103.52 253.97 101.83C253.37 100.62 253.61 99.5402 254.09 98.7002C257.22 101.83 260.12 105.21 264.1 107.14C265.06 107.62 266.27 107.98 267.35 107.86C267.83 107.86 268.31 107.74 268.68 107.38C270.37 109.43 272.3 111.12 274.35 112.93C273.02 114.86 273.14 117.51 274.47 119.32C275.55 120.89 277.36 121.73 278.57 123.3C280.14 125.35 280.38 128.12 281.34 130.41C282.79 133.91 286.04 136.44 287.49 139.81C289.9 145.24 287.73 152.23 291.47 156.81C292.68 158.14 294.12 159.1 295.33 160.55C296.29 161.76 296.9 163.2 297.86 164.41C300.99 168.75 307.02 170.2 310.16 174.54C311.73 176.95 312.21 179.72 312.69 182.62C313.41 186.6 314.14 190.82 312.45 194.56L312.44 194.55Z" fill="#080D02"/>
<path d="M201.04 164.53C199.83 170.92 196.7 176.83 192.24 181.53C191.88 181.89 191.52 182.25 191.15 182.49C190.55 183.21 189.94 183.7 189.22 184.3C187.77 185.51 186.09 186.71 185.24 188.4C184.64 189.61 184.52 190.93 184.16 192.14C183.2 195.27 180.9 198.29 177.77 198.89H177.53C174.03 199.49 170.78 197.2 168.01 195.03C165.24 192.74 162.34 190.45 160.29 187.56C159.81 186.96 159.45 186.35 159.08 185.75C157.75 183.22 157.03 180.2 157.75 177.43C158.47 174.54 160.52 172 161.25 169.11C161.73 166.82 161.49 164.05 163.42 162.6C165.71 160.79 169.09 162.6 171.98 162.12C172.1 162.48 172.22 162.84 172.46 163.08C175.59 158.74 178.73 154.04 179.09 148.73C179.33 146.08 178.85 143.43 179.81 141.01C180.41 139.08 181.98 137.51 182.58 135.59C183.42 133.42 182.82 130.89 182.94 128.48C183.18 125.71 184.27 122.93 185.11 120.28C186.32 116.66 186.8 112.93 186.68 109.07C188.37 106.9 189.94 104.13 191.5 100.51V101.96C190.9 104.61 190.17 110.64 190.54 114.86C189.46 119.92 188.49 149.1 201.03 164.53H201.04Z" fill="#080D02"/>
<path d="M251.68 159.23C247.82 165.74 242.28 171.171 235.77 175.271C228.78 179.131 220.1 178.77 213.47 175.51C217.21 176.11 220.82 176.11 224.44 175.75C227.94 175.39 231.31 174.541 234.33 172.621C237.46 170.931 240.36 168.641 243.13 166.351C246.02 164.061 248.92 161.77 251.69 159.24L251.68 159.23Z" fill="#160F05"/>
<path d="M238.24 153.46C233.66 156.09 224.84 156.67 222.32 152.77C219.8 148.87 217.62 146.58 214.42 147.96C211.1 149.45 212.7 152.89 209.38 153.92C206.06 155.07 198.84 155.29 196.55 150.03V149.92C196.55 149.92 198.61 149.23 200.33 149.92C202.16 150.72 206.06 150.84 207.43 147.86C208.69 144.88 210.29 140.76 212.93 142.82C215.56 143.85 217.4 142.25 217.4 142.25C217.4 142.25 222.44 140.3 224.04 143.74C225.76 147.06 231.37 152.79 236.64 149.35C239.73 147.4 240.54 146.49 240.65 146.26C240.99 147.18 242.25 151.07 238.24 153.48V153.46Z" fill="black"/>
<path d="M216.24 158.959C212.57 158.499 211.43 155.18 212.57 152.77C212.57 152.77 216.12 154.26 220.93 152.77C222.76 155.75 219.9 159.299 216.23 158.959H216.24Z" fill="black"/>
<path d="M225.33 135.28C224.98 133.9 223.97 132.01 222.29 132.33C223.94 132.3 224.5 134.09 224.66 135.42C224.81 136.81 224.75 138.46 223.87 139.08C223.05 139.68 221.58 139.5 220.29 139.07L218.13 138.23C216.73 138.04 215.97 138.62 215.18 139.17L215.26 139.11C214.31 139.62 212.69 139.56 211.36 139.11C210.5 138.8 210.29 138.71 210.04 138.3C209.8 137.8 209.56 137.16 209.49 136.4C209.13 133.4 209.64 129.98 210.28 126.84L210.25 126.95C211.08 123.44 211.2 120.23 211.32 116.89C211.26 113.49 211.59 110.48 210.78 106.81C209.85 102.96 205.81 100.81 202.46 100.91C199.03 100.9 195.81 101.78 192.78 102.98C195.94 102.25 199.25 101.9 202.33 102.39C205.48 102.7 208.06 104.52 208.52 107.37C208.83 110.13 208.69 113.69 208.57 116.79C208.39 119.94 208.08 123.28 207.36 126.1L207.33 126.22C206.74 129.71 206.27 133.1 206.79 136.82C206.91 137.74 207.22 138.73 207.78 139.71C208.41 140.81 209.86 141.41 210.61 141.58C212.47 142.09 214.55 142.17 216.54 140.89L216.59 140.86L216.62 140.82C216.96 140.46 217.61 140.16 217.73 140.2C218.05 140.29 219.11 140.68 219.79 140.82C221.27 141.11 223.23 141.51 224.77 140.09C226.13 138.52 225.62 136.7 225.31 135.29L225.33 135.28Z" fill="black"/>
<path d="M242.04 103.45C239.4 102.71 236.86 101.74 234.57 100.3C232.19 98.9204 228.36 97.3604 225.21 99.3304C222.24 101.22 221.29 104.43 221.13 107.28C222.31 104.69 224.13 102.26 226.27 101.38C228.43 100.52 230.75 101.36 233.07 102.9C238.34 105.77 244.79 106.91 250.35 104.82C247.45 104.71 244.68 104.17 242.04 103.45Z" fill="black"/>
<path d="M245.89 114.38C244.68 115.83 234.44 121.61 227.2 117.15C224.91 113.05 223.46 110.041 225.87 108.351C225.87 108.351 226.59 108.47 227.92 108.71H228.04C229.25 108.83 230.93 108.95 232.74 108.95H234.31C235.4 108.83 236.48 108.831 237.44 108.591C237.92 108.591 238.28 108.471 238.65 108.351C243.83 106.901 247.09 113.05 245.88 114.38H245.89Z" fill="#C7B299"/>
<path d="M206.11 117.03C204.54 118.12 202.85 118.96 200.56 118.96H200.44C197.79 119.44 193.21 118.36 193.21 118.36C192.73 117.4 192.73 116.19 192.97 114.98C193.45 112.57 194.06 107.26 195.5 107.26C196.94 107.26 196.22 107.74 197.31 108.1C197.91 108.22 198.52 108.46 199.36 108.58C200.44 108.82 201.77 109.06 203.1 109.06C203.46 109.06 203.82 109.06 204.31 108.94C204.91 108.94 205.52 108.7 206.12 108.46C208.41 108.94 208.65 115.09 206.12 117.02L206.11 117.03Z" fill="#C7B299"/>
<path d="M239.5 112.09C239.5 114.38 237.69 116.189 235.4 116.189C233.11 116.189 231.18 114.38 231.18 112.09C231.18 110.76 231.78 109.679 232.75 108.959H234.32C235.41 108.839 236.49 108.84 237.45 108.6C238.66 109.2 239.5 110.53 239.5 112.1V112.09Z" fill="black"/>
<path d="M205.63 112.09C205.63 114.38 203.82 116.19 201.53 116.19C199.24 116.19 197.31 114.38 197.31 112.09C197.31 110.64 198.15 109.32 199.36 108.59C200.44 108.83 201.77 109.07 203.1 109.07C203.46 109.07 203.82 109.07 204.31 108.95C205.15 109.79 205.64 110.88 205.64 112.08L205.63 112.09Z" fill="black"/>
<path d="M184.9 53.1106C187.93 52.9606 190.88 53.8606 193.83 54.8406C191.3 52.9206 188.08 52.1704 184.91 51.9004C183.3 51.9504 181.63 52.2804 180.21 53.1604C178.79 54.0004 177.74 55.5404 177.77 57.1504C178.8 54.1104 181.95 52.8006 184.89 53.1006L184.9 53.1106Z" fill="#666666"/>
<path d="M156.34 77.31C155.65 74.95 156.23 72.26 157.31 70.06C158.57 67.94 161.01 66.58 163.53 66.09C166.09 65.62 168.78 65.76 171.45 65.81C168.83 65.29 166.13 64.85 163.39 65.3C160.69 65.7 157.93 66.9699 156.29 69.4199C155.13 72.0099 154.64 74.9399 155.62 77.6699C157.12 80.3099 159.96 81 162.05 82.6C160.22 80.65 157.46 79.53 156.33 77.3L156.34 77.31Z" fill="#666666"/>
<path d="M176.51 82.6399C179.03 83.4499 181.38 82.25 183.7 81.99C181.32 81.8 178.88 82.6399 176.76 81.8799C174.54 81.4699 173.65 78.7201 174.22 76.7801C174.73 74.7301 176.31 72.75 178.52 71.98C180.67 71.07 182.65 69.8099 185.04 69.3999C182.61 69.3399 180.35 70.3801 178.12 71.2901C175.8 71.9701 173.81 74 173.05 76.49C172.44 78.98 173.8 82.2299 176.5 82.6399H176.51Z" fill="#666666"/>
<path d="M181.97 105.81C181.19 106.47 180.52 107.33 179.67 107.91C178.75 108.34 177.67 108.46 176.61 108.33C174.47 108.04 172.65 106.54 170.51 105.81C172.43 106.94 174.11 108.74 176.5 109.13C177.66 109.34 178.91 109.3 180.07 108.84C181.12 108.24 181.96 107.35 182.9 106.58C185.7 102.89 187.07 97.98 185.96 93.54C186.04 98.01 184.91 102.57 181.97 105.82V105.81Z" fill="#666666"/>
<path d="M163.58 99.53C161.52 98.14 160.38 95.89 160.45 93.45C160.29 92.21 160.62 91.0401 160.79 89.8601C160.87 88.6201 161.29 87.5001 162.15 86.6201C163.74 84.7101 166.26 84.0301 168.4 82.6201C166.12 83.5801 163.35 84.0301 161.56 86.0801C160.56 87.0001 159.98 88.2701 159.82 89.5901C159.55 90.8901 159.15 92.2 159.25 93.51C159.27 96.19 160.85 98.89 163.13 100.2C165.37 101.63 168.07 101.73 170.49 102.38C168.19 101.28 165.61 100.9 163.57 99.54L163.58 99.53Z" fill="#666666"/>
<path d="M175.65 96.2996C174.41 96.1596 173.35 95.5694 172.23 95.1294C171.05 94.7594 170.05 94.0896 169.4 93.0396C167.92 91.0396 167.85 88.4295 166.98 86.0195C167.38 88.4595 167.16 91.2595 168.73 93.4795C169.39 94.6695 170.49 95.5295 171.73 95.9995C172.93 96.5695 174.11 97.2595 175.41 97.4795C178.02 98.0895 181.01 97.1895 182.83 95.2795C184.75 93.4395 185.47 90.8394 186.68 88.6294C185.07 90.6094 184.09 93.0294 182.29 94.6794C180.45 96.3494 178 96.9396 175.65 96.2896V96.2996Z" fill="#666666"/>
<path d="M222.26 187.56C218.4 191.18 212.25 199.62 209.96 201.3C205.86 199.13 194.77 186.71 191.15 182.49C191.51 182.25 191.87 181.89 192.24 181.53C196.7 176.83 199.84 170.92 201.04 164.53C202.73 166.58 204.54 168.39 206.71 169.83C211.77 175.26 215.39 181.65 219.37 185.38L219.49 185.5C220.45 186.34 221.18 187.07 222.26 187.55V187.56Z" fill="white"/>
<path d="M269.16 182.25C264.58 187.68 253.97 199.61 251.68 197.8C249.03 195.51 239.62 188.64 235.77 185.86C236.98 185.26 238.06 184.65 239.03 184.05C240.96 182.84 242.53 181.64 243.13 180.8C245.18 177.91 261.94 156.81 263.39 151.86C265.56 153.31 267.01 156.08 266.28 158.73C265.8 160.9 264.35 162.47 263.27 164.4C260.62 169.46 261.82 176.22 266.16 179.95C266.28 180.07 266.52 180.19 266.64 180.31C267.36 181.03 268.33 181.64 269.17 182.24L269.16 182.25Z" fill="white"/>
<path d="M154.99 325.12H144.98C143.29 323.67 141.85 322.109 140.52 320.419C137.63 316.799 135.7 312.22 135.46 307.76C137.03 306.8 138.72 306.19 140.52 305.83C140.76 305.71 141 305.59 141.24 305.35C144.25 312.95 148.96 319.7 154.98 325.12H154.99Z" fill="#EADECE"/>
<path d="M144.98 325.12H122.55C125.44 318.61 129.66 311.26 135.45 307.76C135.69 312.22 137.62 316.8 140.51 320.42C141.84 322.11 143.28 323.68 144.97 325.12H144.98Z" fill="#F94457"/>
<path d="M195.74 298.72C194.9 299.56 192.73 299.2 191.04 298.24C190.56 298 190.08 297.52 189.71 297.15C188.99 296.31 187.3 296.79 185.73 297.39C183.8 298.11 182.11 299.2 182.11 299.2C182.11 299.2 180.78 299.68 180.06 301.25C179.58 302.09 179.34 303.42 179.7 305.35C180.66 310.29 174.15 315.24 174.15 315.24C174.15 315.24 167.76 320.3 163.9 319.94C161.13 319.7 160.4 323.2 160.16 325.12H154.98C148.95 319.69 144.25 312.94 141.24 305.35C146.06 301.37 151.73 285.1 151.73 285.1C151.73 285.1 156.07 267.74 165.23 262.92C167.04 262.08 169.81 260.75 172.83 259.91C173.67 259.67 174.52 259.43 175.36 259.31C178.86 258.59 182.11 258.83 183.92 260.88C187.3 264.74 183.92 265.58 183.92 265.58C183.92 265.58 181.03 265.46 177.89 265.82C177.05 265.82 176.2 265.94 175.36 266.06C173.07 266.3 171.26 266.9 170.78 267.87C170.42 269.92 175.96 267.87 175.96 267.87C175.96 267.87 177.04 267.63 178.61 267.51C181.87 267.27 187.05 267.27 188.01 269.68C189.58 273.3 190.06 275.47 184.63 276.07C183.67 276.19 182.82 276.31 182.1 276.31C180.89 276.43 179.93 276.43 179.09 276.55C176.8 276.67 175.23 276.79 174.63 277.39C173.79 278.35 178.13 278.47 178.13 278.47C178.13 278.47 178.73 278.35 179.7 278.23C180.54 278.11 181.63 277.99 182.83 277.87C186.57 277.63 191.39 277.51 191.75 278.71C192.35 280.76 193.32 286.06 188.98 286.06C188.02 286.06 186.93 285.94 185.97 285.82C184.64 285.7 183.32 285.58 182.11 285.46C180.3 285.34 178.86 285.34 177.89 286.06C175.84 287.51 181.75 288.35 181.75 288.35H183.08C184.04 288.35 185.49 288.35 187.06 288.47C190.8 288.59 195.26 289.31 195.74 291.72C196.7 295.82 196.95 297.51 195.74 298.71V298.72Z" fill="#FFDEB9"/>
<path d="M172.83 259.9C169.82 260.74 167.04 262.07 165.23 262.91C156.07 267.73 151.73 285.09 151.73 285.09C151.73 285.09 109.77 267.01 82.29 313.9C83.86 302.09 90.1298 268.57 103.03 236.5C116.29 203.35 133.53 197.68 140.53 194.54C146.92 205.39 160.91 230.35 172.84 259.89L172.83 259.9Z" fill="#F94457"/>
<path opacity="0.34" d="M175.97 267.85C175.97 267.85 170.42 269.9 170.79 267.85C171.27 266.89 173.08 266.28 175.37 266.04C175.49 266.64 175.73 267.25 175.97 267.85Z" fill="#F94457"/>
<path opacity="0.34" d="M179.7 278.22C178.74 278.34 178.13 278.46 178.13 278.46C178.13 278.46 173.79 278.34 174.63 277.38C175.23 276.78 176.8 276.66 179.09 276.54C179.33 277.14 179.57 277.62 179.69 278.23L179.7 278.22Z" fill="#F94457"/>
<path opacity="0.34" d="M183.08 288.35H181.75C181.75 288.35 175.84 287.51 177.89 286.06C178.85 285.34 180.3 285.34 182.11 285.46C182.47 286.42 182.71 287.39 183.07 288.35H183.08Z" fill="#F94457"/>
<path opacity="0.34" d="M191.76 325.12H160.17C160.41 323.19 161.13 319.69 163.91 319.94C167.77 320.3 174.16 315.24 174.16 315.24C174.16 315.24 180.67 310.3 179.71 305.35C178.75 300.29 182.12 299.2 182.12 299.2C182.12 299.2 183.81 298.11 185.74 297.39C188.27 306.67 190.44 315.96 191.77 325.12H191.76Z" fill="#F94457"/>
<path d="M222.99 325.12H191.76C190.43 315.96 188.26 306.67 185.73 297.39C187.3 296.79 188.98 296.3 189.71 297.15C191.04 298.84 194.65 299.8 195.74 298.72C196.95 297.51 196.7 295.83 195.74 291.73C195.02 288.35 186.46 288.23 183.08 288.35C182.72 287.39 182.48 286.42 182.12 285.46C184.17 285.58 186.58 286.06 188.99 286.06C193.33 286.06 192.37 280.76 191.76 278.71C191.28 277.14 183.08 277.87 179.7 278.23C179.58 277.63 179.34 277.15 179.1 276.54C180.55 276.42 182.48 276.3 184.65 276.06C190.08 275.46 189.59 273.29 188.03 269.67C186.58 266.05 175.97 267.86 175.97 267.86C175.73 267.26 175.49 266.65 175.37 266.05C179.11 265.45 183.93 265.57 183.93 265.57C183.93 265.57 187.31 264.73 183.93 260.87C181.64 258.22 177.06 258.7 172.84 259.91C160.9 230.37 146.92 205.42 140.53 194.56C141.49 194.08 142.22 193.72 142.7 193.35C146.2 190.82 155.12 187.32 159.1 185.75C159.46 186.35 159.82 186.96 160.31 187.56C162.36 190.45 165.25 192.74 168.03 195.03C170.8 197.2 174.06 199.49 177.55 198.89C178.15 200.46 178.88 202.51 179.72 204.92C189.12 230.6 214.32 299.56 223 325.12H222.99Z" fill="#0086E7"/>
<path d="M303.28 201.419C300.15 222.639 289.29 291.96 277.48 325.12H256.38C267.71 297.75 276.39 230.36 279.17 204.32C279.53 201.19 279.77 198.65 279.89 196.6C282.78 198.65 286.4 199.849 289.9 200.699C294 201.659 298.34 202.389 302.56 201.659C302.8 201.659 303.04 201.539 303.28 201.419Z" fill="#0086E7"/>
<path d="M279.89 196.6C279.77 198.65 279.53 201.18 279.17 204.32C237.58 221.2 196.46 210.71 179.71 204.92C178.87 202.51 178.14 200.46 177.54 198.89H177.78C180.91 198.29 183.21 195.27 184.17 192.14C184.53 190.93 184.65 189.61 185.25 188.4C186.09 186.71 187.78 185.51 189.23 184.3C189.95 183.7 190.56 183.21 191.16 182.49C194.78 186.71 205.87 199.13 209.97 201.3C212.26 199.61 218.41 191.17 222.27 187.56C222.51 187.8 222.87 187.92 223.11 188.04C226.37 189.49 231.43 187.92 235.77 185.87C239.63 188.64 249.03 195.51 251.68 197.81C253.97 199.62 264.58 187.68 269.16 182.26C270.12 182.98 271.21 183.71 271.93 184.55C273.86 186.84 274.46 189.85 275.91 192.39C276.99 194.08 278.32 195.4 279.89 196.61V196.6Z" fill="#D1E5EC"/>
<path d="M278.45 210.58C275.07 239.88 266.88 299.68 256.39 325.11H222.99C214.91 301.48 192.85 240.84 182.12 211.54C191.16 214.07 238.06 225.77 278.45 210.58Z" fill="#534741"/>
<path d="M354.28 325.12H327.15C327.15 321.5 327.27 317.89 327.75 314.27C328.59 308.24 330.52 302.21 334.14 297.27C334.74 296.43 335.47 295.7 335.71 294.74C339.81 298.12 344.63 300.29 349.45 302.46C350.17 302.82 350.78 303.06 351.5 303.3L354.27 325.12H354.28Z" fill="#E1414A"/>
<path d="M339.09 275.33C339.21 275.69 339.09 276.05 339.09 276.54C338.49 279.31 338.85 281.97 339.09 284.86C334.51 287.03 330.17 290.77 326.79 294.38C318.47 303.42 311.72 313.91 307.14 325.12H277.48C289.29 291.97 300.15 222.64 303.28 201.42H303.4C307.26 200.58 310.88 198.17 312.44 194.55L312.56 194.67C314.25 195.39 327.27 202.02 336.07 227.46C336.07 227.54 336.11 227.62 336.19 227.7C334.98 229.15 333.66 230.47 332.33 231.92C331.85 232.4 331.49 232.88 331.24 233.49C330.88 234.09 330.88 234.82 330.76 235.42C329.92 241.81 328.95 248.32 330.04 254.59C330.4 256.64 331 258.69 331.49 260.74C332.21 262.91 332.82 265.2 333.42 267.37C333.78 268.45 334.02 269.54 334.63 270.5C335.35 271.58 336.32 272.55 337.4 273.27C338.12 273.87 338.97 274.48 339.09 275.32V275.33Z" fill="#E1414A"/>
<path opacity="0.34" d="M339.69 236.51V236.75C339.57 236.75 339.45 236.75 339.45 236.87C339.45 236.75 339.57 236.63 339.69 236.51Z" fill="#E1414A"/>
<path d="M380.92 325.12H362.84L359.34 297.15C360.55 294.14 361.27 290.88 361.63 287.63C361.99 283.89 361.87 280.03 361.75 276.3C362.47 276.42 363.2 276.42 363.92 276.3C366.81 280.88 378.75 301.14 380.92 325.13V325.12Z" fill="#F94457"/>
<path d="M279.17 204.321C279.05 205.891 278.81 207.7 278.57 209.5L278.45 210.581C238.06 225.771 191.16 214.081 182.12 211.541L181.88 211.061C181.16 208.771 180.43 206.72 179.71 204.91C185.01 206.72 192.61 209.01 202.01 210.7C218.29 213.83 239.63 215.28 262.05 209.74C267.72 208.41 273.5 206.611 279.17 204.311V204.321Z" fill="#F94457"/>
<path d="M235.44 226.61L235.34 226.41L235.24 226.61C228.68 240.62 209.24 248.31 209.24 263.36C209.24 275.95 225.89 280.82 234.01 270.28C234.18 269.75 233.99 273.63 233.45 275.81C231.84 281.15 226.78 288.5 223.15 292.55C222.84 292.89 223.2 293.39 223.63 293.23C229.52 291.03 241.18 291.03 247.07 293.23C247.5 293.39 247.85 292.89 247.55 292.55C243.99 288.57 239.13 281.41 237.25 275.81C236.78 273.93 236.5 272.03 236.38 270.13C244.3 281.56 261.46 276.21 261.46 263.36C261.46 248.31 242.02 240.62 235.46 226.61H235.44Z" fill="black"/>
<path d="M151.73 285.09C151.73 285.09 146.06 301.37 141.24 305.34C141 305.58 140.76 305.7 140.52 305.82C138.71 306.18 137.02 306.78 135.46 307.75C129.67 311.25 125.45 318.6 122.56 325.11H81.3301L81.9302 317.88C81.9302 317.28 82.05 315.95 82.29 313.9C109.78 267 151.73 285.09 151.73 285.09Z" fill="#0086E7"/>
<path d="M174.4 257L175.36 259.29C174.52 259.41 173.67 259.65 172.83 259.89C169.82 260.73 167.04 262.06 165.23 262.9L164.63 261.33C163.54 262.54 161.86 263.26 160.17 263.26C156.79 263.26 154.02 260.49 154.02 257.11C154.02 254.34 155.95 251.93 158.48 251.2C157.88 250.36 157.52 249.27 157.52 248.07C157.52 244.69 160.29 241.92 163.67 241.92C166.32 241.92 168.73 243.73 169.46 246.14C170.42 245.18 171.87 244.69 173.32 244.69C176.82 244.69 179.59 247.46 179.59 250.96C179.59 253.97 177.3 256.51 174.41 256.99L174.4 257Z" fill="#534741"/>
<path d="M192.97 317.889C184.29 321.139 176.33 321.63 175.37 318.85C174.53 316.68 178.02 313.43 183.69 310.53L180.07 301.25C180.79 299.68 182.12 299.199 182.12 299.199C182.12 299.199 183.81 298.109 185.74 297.389C187.31 296.789 188.99 296.299 189.72 297.149C190.08 297.509 190.56 297.99 191.05 298.24L194.43 306.56C200.94 304.75 206.24 304.989 206.97 307.159C208.06 309.929 201.79 314.759 192.98 317.889H192.97Z" fill="#534741"/>
<path d="M178.62 267.49C177.05 267.61 175.97 267.85 175.97 267.85C175.97 267.85 170.42 269.9 170.79 267.85C171.27 266.89 173.08 266.28 175.37 266.04C176.21 265.92 177.06 265.8 177.9 265.8L178.62 267.49Z" fill="#534741"/>
<path d="M182.84 277.86C181.63 277.98 180.55 278.1 179.71 278.22C178.75 278.34 178.14 278.46 178.14 278.46C178.14 278.46 173.8 278.34 174.64 277.38C175.24 276.78 176.81 276.66 179.1 276.54C179.94 276.42 180.91 276.42 182.11 276.3L182.83 277.87L182.84 277.86Z" fill="#534741"/>
<path d="M187.06 288.47C185.49 288.35 184.05 288.35 183.08 288.35H181.75C181.75 288.35 175.84 287.51 177.89 286.06C178.85 285.34 180.3 285.34 182.11 285.46C183.32 285.58 184.64 285.7 185.97 285.82L187.06 288.47Z" fill="#534741"/>
<path d="M343.28 233.04C346.13 230.67 348.03 226.39 347.08 222.6L346.6 222.12C346.12 221.64 345.65 221.64 345.65 221.64C344.23 221.64 342.8 222.12 341.38 223.06L331.41 144.27C331.41 144.27 331.41 144.75 331.89 144.75C331.89 144.75 332.37 145.23 332.84 144.75L339.01 144.27C339.01 144.27 339.49 143.79 339.96 143.79L350.88 231.6C348.03 232.55 345.66 233.5 342.81 234.92V233.5L343.29 233.02L343.28 233.04Z" fill="black"/>
<path d="M362.84 325.121H354.28L351.51 303.301L350.91 298.121L347.05 267.98C349.94 270.51 353.08 272.92 356.45 274.49L359.34 297.16L362.84 325.13V325.121Z" fill="black"/>
<path d="M339.09 284.85V290.4C337.52 290.04 335.83 291.24 335.71 292.81C335.71 293.29 335.83 293.77 335.83 294.14C335.83 294.38 335.71 294.62 335.71 294.74C335.47 295.7 334.75 296.43 334.14 297.27C330.52 302.21 328.59 308.24 327.75 314.27C327.27 317.89 327.15 321.5 327.15 325.12H307.14C311.72 313.91 318.47 303.42 326.79 294.38C330.17 290.76 334.51 287.03 339.09 284.86C338.85 284.98 339.33 284.74 339.09 284.86V284.85Z" fill="#0086E7"/>
<path d="M351.51 303.3C350.79 303.06 350.18 302.82 349.46 302.46C344.64 300.29 339.82 298.12 335.72 294.74C335.72 294.62 335.84 294.38 335.84 294.14C335.84 293.78 335.72 293.3 335.72 292.81C335.84 291.24 337.53 290.04 339.1 290.4C343.32 293.53 346.82 295.7 350.91 298.12L351.51 303.3Z" fill="#E5C3B4"/>
<path d="M339.09 290.4V284.85C338.85 281.96 338.49 279.3 339.09 276.53C339.09 276.05 339.21 275.69 339.09 275.32C338.97 274.48 338.13 273.87 337.4 273.27C336.32 272.55 335.35 271.58 334.63 270.5C334.03 269.54 333.79 268.45 333.42 267.37C332.82 265.2 332.21 262.91 331.49 260.74C331.01 258.69 330.41 256.64 330.04 254.59C328.96 248.32 329.92 241.81 330.76 235.42C330.88 234.82 330.88 234.09 331.24 233.49C331.48 232.89 331.84 232.4 332.33 231.92C333.66 230.47 334.98 229.15 336.19 227.7C336.43 227.58 336.55 227.34 336.67 227.22C338.12 225.65 339.56 224.09 341.37 223C342.58 222.16 344.02 221.55 345.47 221.55C345.83 221.55 346.31 221.67 346.55 221.91C346.79 222.03 346.91 222.39 347.03 222.75C347.99 226.49 345.94 230.47 343.05 233L342.69 233.36C341.85 234.08 340.88 234.81 340.16 235.65C339.92 235.89 339.8 236.13 339.68 236.49C339.56 236.61 339.44 236.73 339.44 236.85C337.51 238.18 334.74 239.38 334.5 242.4C334.5 243.73 335.46 245.05 336.67 245.66C337.76 246.02 338.72 246.02 339.8 246.26L338.35 249.15C338.35 249.63 337.99 249.99 338.35 250.96C339.07 251.92 340.16 251.92 340.88 252.04C341.6 252.04 342.45 252.04 342.69 252.16H342.81C342.81 252.28 342.69 252.28 342.69 252.28C342.57 253.24 341.61 253.85 340.76 254.69C340.28 255.05 339.67 255.77 339.8 256.62C339.8 257.34 340.4 257.95 340.89 258.31V258.43C341.73 259.03 342.58 259.51 343.42 260.12C344.38 260.6 344.75 261.21 344.26 262.17C343.78 263.01 343.66 264.46 344.38 265.3C344.62 265.54 344.86 265.78 345.1 266.02C345.22 266.14 345.34 266.26 345.46 266.38C345.82 266.74 346.18 267.1 346.54 267.47C346.66 267.59 346.9 267.71 347.02 267.95L350.88 298.09C346.78 295.68 343.28 293.51 339.07 290.37L339.09 290.4Z" fill="#FFDEB9"/>
<path d="M368.99 259.9C369.71 262.91 365.61 265.57 365.98 268.46C365.98 268.54 366.02 268.62 366.1 268.7C365.98 268.82 366.1 268.94 366.1 269.06C366.46 270.27 367.55 270.99 367.91 272.19C368.27 273.76 367.07 275.45 365.62 276.05C365.02 276.29 364.53 276.41 363.93 276.29C363.21 276.41 362.48 276.41 361.76 276.29C361.4 276.17 361.04 276.05 360.67 276.05C359.22 275.69 357.78 275.09 356.45 274.48C353.07 272.91 349.94 270.5 347.05 267.97C346.93 267.73 346.69 267.61 346.57 267.49C346.21 267.13 345.85 266.77 345.49 266.4C345.25 265.92 345.01 265.56 344.77 265.07C344.17 264.23 344.41 263.38 344.89 262.42C345.01 261.94 345.37 261.34 345.01 260.73C344.77 260.13 344.29 259.89 343.93 259.52C343.09 258.92 342.12 258.31 341.4 257.71C340.56 256.99 340.56 256.02 341.4 255.3C342.24 254.58 343.57 253.97 343.93 252.41V252.29C343.81 252.05 343.69 251.69 343.57 251.45V251.33C342.49 250.73 341.76 250.97 341.04 250.85C340.32 250.73 339.59 250.61 339.35 250.37V250.13C339.35 249.89 339.59 248.92 339.83 248.44L341.04 246.03L341.28 245.55L340.56 245.43C339.35 245.19 338.15 245.19 337.06 244.95C335.97 244.47 335.25 243.5 335.25 242.42C335.25 240.61 336.58 239.16 338.02 237.96C338.5 237.6 338.98 237.24 339.47 236.87C339.47 236.75 339.59 236.75 339.71 236.75C340.43 236.27 341.16 235.79 341.88 235.42C342.24 235.3 342.48 235.06 342.84 234.94C345.49 233.61 348.27 232.41 351.04 231.44C352 230.96 352.97 230.6 353.93 230.23C357.06 229.27 360.92 228.54 363.58 230.59C365.63 232.28 366.23 235.17 366.11 237.82C366.11 238.78 365.99 239.75 366.23 240.59L366.35 240.71C366.35 240.95 366.47 241.19 366.59 241.43C367.19 242.52 368.16 243.36 368.88 244.44C370.69 246.97 370.33 250.83 368.04 253C367.68 253.48 367.2 253.84 366.95 254.33C366.83 254.57 366.71 254.93 366.71 255.17C366.71 255.41 366.71 255.53 366.83 255.77C366.95 256.25 367.19 256.73 367.43 257.22C368.03 258.06 368.76 258.91 369 259.87L368.99 259.9Z" fill="#FFDEB9"/>
<path d="M366.09 268.7C359.58 269.79 352.83 266.41 348.49 261.83C353.79 265.21 359.58 268.1 365.97 268.46C365.97 268.54 366.01 268.62 366.09 268.7Z" fill="#999999"/>
<path d="M366.82 255.8C359.47 256.4 352.11 254.96 345 253.75C352.35 253.75 359.59 255.08 366.7 255.2C366.7 255.44 366.7 255.56 366.82 255.8Z" fill="#999999"/>
<path d="M361.7 303.3C367.54 307.8 372.01 313.82 376.46 319.5C371.02 314.55 366.56 308.7 361.38 303.82C361.54 303.64 361.62 303.55 361.7 303.29V303.3Z" fill="black"/>
<path d="M366.58 241.45C363.93 242.78 361.03 243.74 358.14 244.22C352.84 244.82 347.77 244.821 342.71 245.791C347.53 243.741 352.96 243.981 357.9 243.021C360.91 242.781 363.69 241.94 366.34 240.73C366.34 240.97 366.46 241.21 366.58 241.45Z" fill="#999999"/>
<path d="M342.83 252.18C342.83 252.3 342.71 252.3 342.71 252.3V252.18H342.83Z" fill="#999999"/>
<path d="M345.48 266.41C345.36 266.29 345.24 266.17 345.12 266.05C344.88 265.81 344.64 265.57 344.4 265.33C343.68 264.49 343.8 263.04 344.28 262.2C344.76 261.24 344.4 260.63 343.44 260.15C342.6 259.55 341.75 259.07 340.91 258.46V258.34C340.43 257.98 339.82 257.38 339.82 256.65C339.7 255.81 340.3 255.08 340.78 254.72C341.62 253.88 342.59 253.27 342.71 252.31C342.71 252.31 342.83 252.31 342.83 252.19H342.71C342.47 252.07 341.63 252.07 340.9 252.07C340.18 251.95 339.09 251.95 338.37 250.99C338.01 250.03 338.37 249.66 338.37 249.18L339.82 246.29C338.74 246.05 337.77 246.05 336.69 245.69C335.48 245.09 334.52 243.76 334.52 242.43C334.76 239.42 337.53 238.21 339.46 236.88C338.98 237.24 338.5 237.6 338.01 237.97C336.56 239.18 335.24 240.62 335.24 242.43C335.24 243.51 335.96 244.48 337.05 244.96C338.13 245.2 339.34 245.2 340.55 245.44L341.27 245.56L341.03 246.04L339.82 248.45C339.58 248.93 339.34 249.9 339.34 250.14V250.38C339.58 250.62 340.3 250.74 341.03 250.86C341.75 250.98 342.48 250.74 343.56 251.34V251.46C343.68 251.7 343.8 252.06 343.92 252.3V252.42C343.56 253.99 342.23 254.59 341.39 255.31C340.55 256.03 340.55 257 341.39 257.72C342.11 258.32 343.08 258.93 343.92 259.53C344.28 259.89 344.76 260.13 345 260.74C345.36 261.34 345 261.95 344.88 262.43C344.4 263.39 344.16 264.24 344.76 265.08C345 265.56 345.24 265.92 345.48 266.41Z" fill="#999999"/>
<path d="M361.63 287.62C361.27 290.88 360.55 294.13 359.34 297.14L356.45 274.47C357.78 275.07 359.22 275.68 360.67 276.04C361.03 276.04 361.39 276.16 361.76 276.28C361.88 280.02 362 283.88 361.64 287.61L361.63 287.62Z" fill="#FFDEB9"/>
<path d="M361.38 276.45C359.74 276.72 358.03 275.87 356.94 274.71C358.28 275.56 359.74 276.29 361.35 276.38C361.35 276.38 361.36 276.4 361.38 276.44V276.45Z" fill="#999999"/>
<path d="M268.2 585.53C271.46 579.26 271.7 571.55 268.68 565.15C270.25 563.34 271.21 560.81 269.04 559.72C268.8 559.6 268.44 559.48 268.08 559.48C269.29 557.19 270.61 553.57 270.73 549.71C272.3 546.09 273.86 543.32 275.55 541.15C282.18 532.59 289.53 533.43 291.58 533.19C292.67 533.07 293.87 533.43 294.84 533.91C297.13 534.75 299.3 535.96 300.75 537.89C302.2 539.82 302.68 542.11 303.52 544.4C304.36 546.69 305.69 548.86 307.26 550.79C308.83 552.84 310.88 554.65 312.32 556.94C315.58 562.12 314.97 569.12 311.84 574.3C311.12 575.39 310.39 576.47 309.91 577.56C308.58 580.94 310.15 584.91 308.7 588.29C307.37 591.18 304.12 592.75 300.98 593.59C297.85 594.43 294.59 595.04 292.06 597.09C290.85 598.05 289.89 599.38 289.05 600.59C288.09 601.92 287.24 603.24 286.28 604.45C285.92 604.93 285.56 605.54 285.07 605.78C284.59 606.14 283.98 606.26 283.38 606.38C277.11 607.22 270.48 605.66 265.3 602.04C262.77 600.23 260.6 598.06 258.55 595.65C262.65 593.24 266.15 589.74 268.19 585.52L268.2 585.53Z" fill="#B5D1EB"/>
<path d="M170.78 543.1C171.02 540.45 171.5 537.8 172.83 535.5C174.28 533.33 176.93 531.64 179.58 532.12C181.03 532.36 182.35 533.33 183.56 534.17C185.01 535.26 186.57 536.34 187.9 537.3C189.95 539.11 191.88 540.8 193.57 542.85C192.97 543.09 192.49 543.57 192.24 544.3C192 545.14 192.24 546.23 192.6 547.07C193.44 549.36 194.17 551.65 195.49 553.58C199.35 559.61 206.58 562.38 213.21 564.79C215.86 565.63 218.51 566.6 221.17 567.56C223.94 568.52 226.72 569.49 229.49 570.09C238.65 572.14 248.06 570.69 257.22 569.13C258.67 568.89 260.11 568.65 261.56 568.41C263.25 568.17 265.06 567.81 266.62 567.08C267.22 566.72 268.07 565.99 268.67 565.15C271.68 571.54 271.44 579.26 268.19 585.53C266.14 589.75 262.64 593.25 258.55 595.66C256.62 596.87 254.45 597.83 252.16 598.43C247.82 599.52 243.24 599.64 238.78 599.39C222.75 598.55 207.07 594.45 192.73 587.33C188.87 585.4 185.01 583.23 181.76 580.22C176.82 575.76 173.56 569.61 171.87 563.1C170.18 556.59 170.06 549.72 170.79 543.09L170.78 543.1Z" fill="#0086E7"/>
<path d="M192.24 544.3C192.48 543.58 192.96 543.09 193.57 542.85C193.93 542.49 194.41 542.37 194.9 542.37C195.98 542.25 197.19 542.61 198.15 543.09C202.13 545.02 205.02 548.39 208.16 551.53C209.49 552.74 210.81 554.06 212.26 555.15C218.89 560.09 227.45 561.42 235.53 562.26C243.61 563.1 251.69 563.71 259.64 562.14C261.45 561.78 265.79 559.49 268.08 559.49C268.44 559.49 268.8 559.61 269.04 559.73C271.21 560.82 270.25 563.35 268.68 565.16C268.08 566 267.23 566.73 266.63 567.09C265.06 567.81 263.25 568.17 261.57 568.42C260.12 568.66 258.68 568.9 257.23 569.14C248.07 570.71 238.66 572.15 229.5 570.1C226.73 569.5 223.95 568.53 221.18 567.57C218.53 566.61 215.88 565.64 213.22 564.8C206.59 562.39 199.36 559.62 195.5 553.59C194.17 551.66 193.45 549.37 192.61 547.08C192.25 546.24 192.01 545.15 192.25 544.31L192.24 544.3Z" fill="#E1414A"/>
<path d="M200.32 503.79C200.32 503.79 210.57 516.57 204.3 526.94C202.61 530.92 206.23 533.21 206.23 533.21C206.23 533.21 208.4 534.29 205.39 540.08C205.63 543.09 206.72 546.71 208.28 548.4C208.88 549.61 208.64 550.69 208.16 551.53C209.49 552.74 210.81 554.06 212.26 555.15C218.89 560.09 227.45 561.42 235.53 562.26C243.61 563.1 251.69 563.71 259.64 562.14C261.45 561.78 265.79 559.49 268.08 559.49C269.29 557.2 270.61 553.58 270.73 549.72V548.27C271.33 545.62 272.06 539.59 271.69 535.37C272.77 530.31 273.74 501.13 261.2 485.7C259.51 483.65 257.7 481.84 255.53 480.4C250.47 474.97 246.85 468.58 242.87 464.85L242.75 464.73C241.79 463.89 241.06 463.16 239.98 462.68C239.74 462.44 239.38 462.32 239.14 462.2C235.88 460.75 230.82 462.32 226.48 464.37C225.27 464.97 224.19 465.58 223.22 466.18C221.29 467.39 219.72 468.59 219.12 469.43C217.07 472.32 200.31 493.42 198.86 498.37C199.7 502.83 200.31 503.8 200.31 503.8L200.32 503.79ZM226.48 474.98C233.47 471.12 242.15 471.48 248.78 474.74C245.04 474.14 241.43 474.14 237.81 474.5C234.31 474.86 230.94 475.71 227.92 477.63C224.79 479.32 221.89 481.61 219.12 483.9C216.23 486.19 213.33 488.48 210.56 491.01C214.42 484.5 219.96 479.07 226.47 474.98H226.48Z" fill="#FFDEB9"/>
<path d="M210.57 491.01C214.43 484.5 219.97 479.07 226.48 474.98C233.47 471.12 242.15 471.48 248.78 474.74C245.04 474.14 241.43 474.14 237.81 474.5C234.31 474.86 230.94 475.71 227.92 477.63C224.79 479.32 221.89 481.61 219.12 483.9C216.23 486.19 213.33 488.48 210.56 491.01H210.57Z" fill="#FFDEB9"/>
<path d="M149.81 455.689C151.38 452.069 154.99 449.66 158.85 448.82H158.97C159.21 448.7 159.45 448.58 159.69 448.58C163.91 447.86 168.25 448.58 172.35 449.54C175.85 450.38 179.46 451.589 182.36 453.639C183.93 454.849 185.25 456.17 186.34 457.86C187.79 460.39 188.39 463.409 190.32 465.699C191.04 466.539 192.13 467.27 193.09 467.99C193.93 468.59 194.9 469.199 195.62 469.919C195.74 470.039 195.98 470.16 196.1 470.28C200.44 474.02 201.65 480.77 198.99 485.83C197.91 487.76 196.46 489.33 195.98 491.5C195.26 494.15 196.7 496.93 198.87 498.37C199.71 502.83 200.32 503.8 200.32 503.8C200.32 503.8 210.57 516.579 204.3 526.949C202.61 530.929 206.23 533.22 206.23 533.22C206.23 533.22 208.4 534.3 205.39 540.09C205.63 543.1 206.72 546.719 208.28 548.409C208.88 549.619 208.64 550.7 208.16 551.54C205.03 548.41 202.13 545.03 198.15 543.1C197.19 542.62 195.98 542.259 194.9 542.379C194.42 542.379 193.94 542.5 193.57 542.86C191.88 540.81 189.95 539.12 187.9 537.31C189.23 535.38 189.11 532.729 187.78 530.919C186.7 529.349 184.89 528.509 183.68 526.939C182.11 524.889 181.87 522.12 180.91 519.83C179.46 516.33 176.21 513.799 174.76 510.429C172.35 504.999 174.52 498.009 170.78 493.429C169.57 492.099 168.13 491.139 166.92 489.689C165.96 488.479 165.35 487.04 164.39 485.83C161.26 481.49 155.23 480.039 152.09 475.699C150.52 473.289 150.04 470.52 149.56 467.62C148.84 463.64 148.11 459.419 149.8 455.679L149.81 455.689Z" fill="#080D02"/>
<path d="M261.21 485.71C262.42 479.32 265.55 473.41 270.01 468.71C270.37 468.35 270.73 467.99 271.1 467.75C271.7 467.03 272.31 466.54 273.03 465.94C274.48 464.73 276.16 463.53 277.01 461.84C277.61 460.63 277.73 459.31 278.09 458.1C279.05 454.97 281.35 451.95 284.48 451.35H284.72C288.22 450.75 291.47 453.04 294.24 455.21C297.01 457.5 299.91 459.79 301.96 462.68C302.44 463.28 302.8 463.89 303.17 464.49C304.5 467.02 305.22 470.04 304.5 472.81C303.78 475.7 301.73 478.24 301 481.13C300.52 483.42 300.76 486.19 298.83 487.64C296.54 489.45 293.16 487.64 290.27 488.12C290.15 487.76 290.03 487.4 289.79 487.16C286.66 491.5 283.52 496.2 283.16 501.51C282.92 504.16 283.4 506.81 282.44 509.23C281.84 511.16 280.27 512.73 279.67 514.65C278.83 516.82 279.43 519.35 279.31 521.76C279.07 524.53 277.98 527.31 277.14 529.96C275.93 533.58 275.45 537.31 275.57 541.17C273.88 543.34 272.31 546.11 270.75 549.73V548.28C271.35 545.63 272.08 539.6 271.71 535.38C272.79 530.32 273.76 501.14 261.22 485.71H261.21Z" fill="#080D02"/>
<path d="M210.57 491.01C214.43 484.5 219.97 479.07 226.48 474.98C233.47 471.12 242.15 471.48 248.78 474.74C245.04 474.14 241.43 474.14 237.81 474.5C234.31 474.86 230.94 475.71 227.92 477.63C224.79 479.32 221.89 481.61 219.12 483.9C216.23 486.19 213.33 488.48 210.56 491.01H210.57Z" fill="#160F05"/>
<path d="M224.01 496.78C228.59 494.15 237.41 493.57 239.93 497.47C242.45 501.37 244.63 503.66 247.83 502.28C251.15 500.79 249.55 497.35 252.87 496.32C256.19 495.17 263.41 494.95 265.7 500.21V500.32C265.7 500.32 263.64 501.01 261.92 500.32C260.09 499.52 256.19 499.4 254.82 502.38C253.56 505.36 251.96 509.48 249.32 507.42C246.69 506.39 244.85 507.99 244.85 507.99C244.85 507.99 239.81 509.94 238.21 506.5C236.49 503.18 230.88 497.45 225.61 500.89C222.52 502.84 221.71 503.75 221.6 503.98C221.26 503.06 220 499.17 224.01 496.76V496.78Z" fill="black"/>
<path d="M246.01 491.28C249.68 491.74 250.82 495.06 249.68 497.47C249.68 497.47 246.13 495.98 241.32 497.47C239.49 494.49 242.35 490.94 246.02 491.28H246.01Z" fill="black"/>
<path d="M236.92 514.96C237.27 516.34 238.28 518.23 239.96 517.91C238.31 517.94 237.75 516.15 237.59 514.82C237.44 513.43 237.5 511.78 238.38 511.16C239.2 510.56 240.67 510.74 241.96 511.17L244.12 512.01C245.52 512.2 246.28 511.62 247.07 511.07L246.99 511.13C247.94 510.62 249.56 510.68 250.89 511.13C251.75 511.44 251.96 511.53 252.21 511.94C252.45 512.44 252.69 513.08 252.76 513.84C253.12 516.84 252.61 520.26 251.97 523.4L252 523.29C251.17 526.8 251.05 530.01 250.93 533.35C250.99 536.75 250.66 539.76 251.47 543.43C252.4 547.28 256.44 549.43 259.79 549.33C263.22 549.34 266.44 548.46 269.47 547.26C266.31 547.99 263 548.34 259.92 547.85C256.77 547.54 254.19 545.72 253.73 542.87C253.42 540.11 253.56 536.55 253.68 533.45C253.86 530.3 254.17 526.96 254.89 524.14L254.92 524.02C255.51 520.53 255.98 517.14 255.46 513.42C255.34 512.5 255.03 511.51 254.47 510.53C253.84 509.43 252.39 508.83 251.64 508.66C249.78 508.15 247.7 508.07 245.71 509.35L245.66 509.38L245.63 509.42C245.29 509.78 244.64 510.08 244.52 510.04C244.2 509.95 243.14 509.56 242.46 509.42C240.98 509.13 239.02 508.73 237.48 510.15C236.12 511.72 236.63 513.53 236.94 514.95L236.92 514.96Z" fill="black"/>
<path d="M220.21 546.79C222.85 547.53 225.39 548.5 227.68 549.94C230.06 551.32 233.89 552.88 237.04 550.91C240.01 549.02 240.96 545.81 241.12 542.96C239.94 545.55 238.12 547.98 235.98 548.86C233.82 549.72 231.5 548.88 229.18 547.34C223.91 544.47 217.46 543.33 211.9 545.42C214.8 545.53 217.57 546.07 220.21 546.79Z" fill="black"/>
<path d="M216.36 535.86C217.57 534.41 227.81 528.63 235.05 533.09C237.34 537.19 238.79 540.199 236.38 541.889C236.38 541.889 235.66 541.77 234.33 541.53H234.21C233 541.41 231.32 541.29 229.51 541.29H227.94C226.85 541.41 225.77 541.409 224.81 541.649C224.33 541.649 223.97 541.769 223.6 541.889C218.42 543.339 215.16 537.19 216.37 535.86H216.36Z" fill="#C7B299"/>
<path d="M256.14 533.21C257.71 532.12 259.4 531.28 261.69 531.28H261.81C264.46 530.8 269.04 531.88 269.04 531.88C269.52 532.84 269.52 534.05 269.28 535.26C268.8 537.67 268.19 542.98 266.75 542.98C265.31 542.98 266.03 542.5 264.94 542.14C264.34 542.02 263.73 541.78 262.89 541.66C261.81 541.42 260.48 541.18 259.15 541.18C258.79 541.18 258.43 541.18 257.94 541.3C257.34 541.3 256.73 541.54 256.13 541.78C253.84 541.3 253.6 535.15 256.13 533.22L256.14 533.21Z" fill="#C7B299"/>
<path d="M222.75 538.15C222.75 535.86 224.56 534.05 226.85 534.05C229.14 534.05 231.07 535.86 231.07 538.15C231.07 539.48 230.47 540.56 229.5 541.28H227.93C226.84 541.4 225.76 541.4 224.8 541.64C223.59 541.04 222.75 539.71 222.75 538.14V538.15Z" fill="black"/>
<path d="M256.62 538.15C256.62 535.86 258.43 534.05 260.72 534.05C263.01 534.05 264.94 535.86 264.94 538.15C264.94 539.6 264.1 540.92 262.89 541.65C261.81 541.41 260.48 541.17 259.15 541.17C258.79 541.17 258.43 541.17 257.94 541.29C257.1 540.45 256.61 539.36 256.61 538.16L256.62 538.15Z" fill="black"/>
<path d="M277.35 597.12C274.32 597.27 271.37 596.37 268.42 595.39C270.95 597.31 274.17 598.06 277.34 598.33C278.95 598.28 280.62 597.95 282.04 597.07C283.46 596.23 284.51 594.69 284.48 593.08C283.45 596.12 280.3 597.43 277.36 597.13L277.35 597.12Z" fill="#666666"/>
<path d="M305.91 572.93C306.6 575.29 306.02 577.98 304.94 580.18C303.68 582.3 301.24 583.66 298.72 584.15C296.16 584.62 293.47 584.48 290.8 584.43C293.42 584.95 296.12 585.39 298.86 584.94C301.56 584.54 304.32 583.27 305.96 580.82C307.12 578.23 307.61 575.3 306.63 572.57C305.13 569.93 302.29 569.24 300.2 567.64C302.03 569.59 304.79 570.71 305.92 572.94L305.91 572.93Z" fill="#666666"/>
<path d="M285.74 567.59C283.22 566.78 280.87 567.98 278.55 568.24C280.93 568.43 283.37 567.59 285.49 568.35C287.71 568.76 288.6 571.51 288.03 573.45C287.52 575.5 285.94 577.48 283.73 578.25C281.58 579.16 279.6 580.42 277.21 580.83C279.64 580.89 281.9 579.85 284.13 578.94C286.45 578.26 288.44 576.23 289.2 573.74C289.81 571.25 288.45 568 285.75 567.59H285.74Z" fill="#666666"/>
<path d="M280.28 544.43C281.06 543.77 281.73 542.91 282.58 542.33C283.5 541.9 284.58 541.78 285.64 541.91C287.78 542.2 289.6 543.7 291.74 544.43C289.82 543.3 288.14 541.5 285.75 541.11C284.59 540.9 283.34 540.94 282.18 541.4C281.13 542 280.29 542.89 279.35 543.66C276.55 547.35 275.18 552.26 276.29 556.7C276.21 552.23 277.34 547.67 280.28 544.42V544.43Z" fill="#666666"/>
<path d="M298.66 550.71C300.72 552.1 301.86 554.35 301.79 556.79C301.95 558.03 301.62 559.2 301.45 560.38C301.37 561.62 300.95 562.74 300.09 563.62C298.5 565.53 295.98 566.21 293.84 567.62C296.12 566.66 298.89 566.21 300.68 564.16C301.68 563.24 302.26 561.96 302.42 560.65C302.69 559.35 303.09 558.04 302.99 556.73C302.97 554.05 301.39 551.35 299.11 550.04C296.87 548.61 294.17 548.51 291.75 547.86C294.05 548.96 296.63 549.34 298.67 550.7L298.66 550.71Z" fill="#666666"/>
<path d="M286.6 553.939C287.84 554.079 288.9 554.67 290.02 555.11C291.2 555.48 292.2 556.149 292.85 557.199C294.33 559.199 294.4 561.809 295.27 564.219C294.87 561.779 295.09 558.979 293.52 556.759C292.86 555.569 291.76 554.709 290.52 554.239C289.32 553.669 288.14 552.979 286.84 552.759C284.23 552.149 281.24 553.049 279.42 554.959C277.5 556.799 276.78 559.4 275.57 561.61C277.18 559.63 278.16 557.21 279.96 555.56C281.8 553.89 284.25 553.299 286.6 553.949V553.939Z" fill="#666666"/>
<path d="M239.99 462.679C243.85 459.059 250 450.619 252.29 448.939C256.39 451.109 267.48 463.53 271.1 467.75C270.74 467.99 270.38 468.349 270.01 468.709C265.55 473.409 262.41 479.319 261.21 485.709C259.52 483.659 257.71 481.849 255.54 480.409C250.48 474.979 246.86 468.59 242.88 464.86L242.76 464.74C241.8 463.9 241.07 463.169 239.99 462.689V462.679Z" fill="white"/>
<path d="M193.09 467.99C197.67 462.56 208.28 450.63 210.57 452.44C213.22 454.73 222.63 461.6 226.48 464.38C225.27 464.98 224.19 465.59 223.22 466.19C221.29 467.4 219.72 468.6 219.12 469.44C217.07 472.33 200.31 493.43 198.86 498.38C196.69 496.93 195.24 494.16 195.97 491.51C196.45 489.34 197.9 487.77 198.98 485.84C201.63 480.78 200.43 474.02 196.09 470.29C195.97 470.17 195.73 470.05 195.61 469.93C194.89 469.21 193.92 468.6 193.08 468L193.09 467.99Z" fill="white"/>
<path d="M307.26 325.12H317.27C318.96 326.57 320.4 328.13 321.73 329.82C324.62 333.44 326.55 338.02 326.79 342.48C325.22 343.44 323.53 344.05 321.73 344.41C321.49 344.53 321.25 344.65 321.01 344.89C318 337.29 313.29 330.54 307.27 325.12H307.26Z" fill="#EADECE"/>
<path d="M317.27 325.12H339.7C336.81 331.63 332.59 338.98 326.8 342.48C326.56 338.02 324.63 333.44 321.74 329.82C320.41 328.13 318.97 326.56 317.28 325.12H317.27Z" fill="#F94457"/>
<path d="M266.51 351.52C267.35 350.68 269.52 351.04 271.21 352C271.69 352.24 272.17 352.72 272.54 353.09C273.26 353.93 274.95 353.45 276.52 352.85C278.45 352.13 280.14 351.04 280.14 351.04C280.14 351.04 281.47 350.56 282.19 348.99C282.67 348.15 282.91 346.82 282.55 344.89C281.59 339.95 288.1 335 288.1 335C288.1 335 294.49 329.94 298.35 330.3C301.12 330.54 301.85 327.04 302.09 325.12H307.27C313.3 330.55 318 337.3 321.01 344.89C316.19 348.87 310.52 365.14 310.52 365.14C310.52 365.14 306.18 382.5 297.02 387.32C295.21 388.16 292.44 389.49 289.42 390.33C288.58 390.57 287.73 390.81 286.89 390.93C283.39 391.65 280.14 391.41 278.33 389.36C274.95 385.5 278.33 384.66 278.33 384.66C278.33 384.66 281.22 384.78 284.36 384.42C285.2 384.42 286.05 384.3 286.89 384.18C289.18 383.94 290.99 383.34 291.47 382.37C291.83 380.32 286.29 382.37 286.29 382.37C286.29 382.37 285.21 382.61 283.64 382.73C280.38 382.97 275.2 382.97 274.24 380.56C272.67 376.94 272.19 374.77 277.62 374.17C278.58 374.05 279.43 373.93 280.15 373.93C281.36 373.81 282.32 373.81 283.16 373.69C285.45 373.57 287.02 373.45 287.62 372.85C288.46 371.89 284.12 371.77 284.12 371.77C284.12 371.77 283.52 371.89 282.55 372.01C281.71 372.13 280.62 372.25 279.42 372.37C275.68 372.61 270.86 372.73 270.5 371.53C269.9 369.48 268.93 364.18 273.27 364.18C274.23 364.18 275.32 364.3 276.28 364.42C277.61 364.54 278.93 364.66 280.14 364.78C281.95 364.9 283.39 364.9 284.36 364.18C286.41 362.73 280.5 361.89 280.5 361.89H279.17C278.21 361.89 276.76 361.89 275.19 361.77C271.45 361.65 266.99 360.93 266.51 358.52C265.55 354.42 265.3 352.73 266.51 351.53V351.52Z" fill="#FFDEB9"/>
<path d="M289.42 390.34C292.43 389.5 295.21 388.17 297.02 387.33C306.18 382.51 310.52 365.15 310.52 365.15C310.52 365.15 352.48 383.23 379.96 336.34C378.39 348.15 372.12 381.67 359.22 413.74C345.96 446.89 328.72 452.56 321.72 455.7C315.33 444.85 301.34 419.89 289.41 390.35L289.42 390.34Z" fill="#F94457"/>
<path opacity="0.34" d="M286.28 382.39C286.28 382.39 291.83 380.34 291.46 382.39C290.98 383.35 289.17 383.96 286.88 384.2C286.76 383.6 286.52 382.99 286.28 382.39Z" fill="#F94457"/>
<path opacity="0.34" d="M282.54 372.02C283.5 371.9 284.11 371.78 284.11 371.78C284.11 371.78 288.45 371.9 287.61 372.86C287.01 373.46 285.44 373.58 283.15 373.7C282.91 373.1 282.67 372.62 282.55 372.01L282.54 372.02Z" fill="#F94457"/>
<path opacity="0.34" d="M279.17 361.89H280.5C280.5 361.89 286.41 362.73 284.36 364.18C283.4 364.9 281.95 364.9 280.14 364.78C279.78 363.82 279.54 362.85 279.18 361.89H279.17Z" fill="#F94457"/>
<path opacity="0.34" d="M270.49 325.12H302.08C301.84 327.05 301.12 330.55 298.34 330.3C294.48 329.94 288.09 335 288.09 335C288.09 335 281.58 339.94 282.54 344.89C283.5 349.95 280.13 351.04 280.13 351.04C280.13 351.04 278.44 352.13 276.51 352.85C273.98 343.57 271.81 334.28 270.48 325.12H270.49Z" fill="#F94457"/>
<path d="M239.26 325.12H270.49C271.82 334.28 273.99 343.57 276.52 352.85C274.95 353.45 273.27 353.94 272.54 353.09C271.21 351.4 267.6 350.44 266.51 351.52C265.3 352.73 265.55 354.41 266.51 358.51C267.23 361.89 275.79 362.01 279.17 361.89C279.53 362.85 279.77 363.82 280.13 364.78C278.08 364.66 275.67 364.18 273.26 364.18C268.92 364.18 269.88 369.48 270.49 371.53C270.97 373.1 279.17 372.37 282.55 372.01C282.67 372.61 282.91 373.09 283.15 373.7C281.7 373.82 279.77 373.94 277.6 374.18C272.17 374.78 272.66 376.95 274.22 380.57C275.67 384.19 286.28 382.38 286.28 382.38C286.52 382.98 286.76 383.59 286.88 384.19C283.14 384.79 278.32 384.67 278.32 384.67C278.32 384.67 274.94 385.51 278.32 389.37C280.61 392.02 285.19 391.54 289.41 390.33C301.35 419.87 315.33 444.82 321.72 455.68C320.76 456.16 320.03 456.52 319.55 456.89C316.05 459.42 307.13 462.92 303.15 464.49C302.79 463.89 302.43 463.28 301.94 462.68C299.89 459.79 297 457.5 294.22 455.21C291.45 453.04 288.19 450.75 284.7 451.35C284.1 449.78 283.37 447.73 282.53 445.32C273.13 419.64 247.93 350.68 239.25 325.12H239.26Z" fill="#0086E7"/>
<path d="M158.97 448.82C162.1 427.6 172.96 358.28 184.77 325.12H205.87C194.54 352.49 185.86 419.88 183.08 445.92C182.72 449.05 182.48 451.59 182.36 453.64C179.47 451.59 175.85 450.39 172.35 449.54C168.25 448.58 163.91 447.85 159.69 448.58C159.45 448.58 159.21 448.7 158.97 448.82Z" fill="#0086E7"/>
<path d="M182.36 453.64C182.48 451.59 182.72 449.06 183.08 445.92C224.67 429.04 265.79 439.53 282.54 445.32C283.38 447.73 284.11 449.78 284.71 451.35H284.47C281.34 451.95 279.04 454.97 278.08 458.1C277.72 459.31 277.6 460.63 277 461.84C276.16 463.53 274.47 464.73 273.02 465.94C272.3 466.54 271.69 467.03 271.09 467.75C267.47 463.53 256.38 451.11 252.28 448.94C249.99 450.63 243.84 459.07 239.98 462.68C239.74 462.44 239.38 462.32 239.14 462.2C235.88 460.75 230.82 462.32 226.48 464.37C222.62 461.6 213.22 454.73 210.57 452.43C208.28 450.62 197.67 462.56 193.09 467.98C192.13 467.26 191.04 466.53 190.32 465.69C188.39 463.4 187.79 460.39 186.34 457.85C185.26 456.16 183.93 454.84 182.36 453.63V453.64Z" fill="#D1E5EC"/>
<path d="M183.8 439.65C187.18 410.35 195.37 350.55 205.86 325.12H239.26C247.34 348.75 269.4 409.39 280.13 438.69C271.09 436.16 224.19 424.46 183.8 439.65Z" fill="#534741"/>
<path d="M107.97 325.12H135.1C135.1 328.74 134.98 332.35 134.5 335.97C133.66 342 131.73 348.03 128.11 352.97C127.51 353.81 126.78 354.54 126.54 355.5C122.44 352.12 117.62 349.95 112.8 347.78C112.08 347.42 111.47 347.18 110.75 346.94L107.98 325.12H107.97Z" fill="#E1414A"/>
<path d="M123.16 374.91C123.04 374.55 123.16 374.19 123.16 373.7C123.76 370.93 123.4 368.27 123.16 365.38C127.74 363.21 132.08 359.47 135.46 355.86C143.78 346.82 150.53 336.33 155.11 325.12H184.77C172.95 358.27 162.1 427.6 158.97 448.82H158.85C154.99 449.66 151.37 452.07 149.81 455.69L149.69 455.57C148 454.85 134.98 448.22 126.18 422.78C126.18 422.7 126.14 422.62 126.06 422.54C127.27 421.09 128.59 419.77 129.92 418.32C130.4 417.84 130.76 417.36 131.01 416.75C131.37 416.15 131.37 415.42 131.49 414.82C132.33 408.43 133.3 401.92 132.21 395.65C131.85 393.6 131.25 391.55 130.76 389.5C130.04 387.33 129.43 385.04 128.83 382.87C128.47 381.79 128.23 380.7 127.62 379.74C126.9 378.66 125.93 377.69 124.85 376.97C124.13 376.37 123.28 375.76 123.16 374.92V374.91Z" fill="#E1414A"/>
<path opacity="0.34" d="M122.56 413.73V413.49C122.68 413.49 122.8 413.49 122.8 413.37C122.8 413.49 122.68 413.61 122.56 413.73Z" fill="#E1414A"/>
<path d="M81.3198 325.12H99.3999L102.9 353.09C101.69 356.1 100.97 359.36 100.61 362.61C100.25 366.35 100.37 370.21 100.49 373.94C99.7702 373.82 99.0398 373.82 98.3198 373.94C95.4298 369.36 83.4898 349.1 81.3198 325.11V325.12Z" fill="#F94457"/>
<path d="M183.08 445.92C183.2 444.35 183.44 442.54 183.68 440.74L183.8 439.66C224.19 424.47 271.09 436.16 280.13 438.7L280.37 439.18C281.09 441.47 281.82 443.52 282.54 445.33C277.24 443.52 269.64 441.23 260.24 439.54C243.96 436.41 222.62 434.96 200.2 440.5C194.53 441.83 188.75 443.63 183.08 445.93V445.92Z" fill="#F94457"/>
<path d="M226.81 423.63L226.91 423.83L227.01 423.63C233.57 409.62 253.01 401.93 253.01 386.88C253.01 374.29 236.36 369.42 228.24 379.96C228.07 380.49 228.26 376.61 228.8 374.43C230.41 369.09 235.47 361.74 239.1 357.7C239.41 357.36 239.05 356.86 238.62 357.02C232.73 359.22 221.07 359.22 215.18 357.02C214.75 356.86 214.4 357.36 214.7 357.7C218.26 361.68 223.12 368.84 225 374.44C225.47 376.32 225.75 378.22 225.87 380.12C217.95 368.69 200.79 374.04 200.79 386.89C200.79 401.94 220.23 409.63 226.79 423.64L226.81 423.63Z" fill="black"/>
<path d="M310.51 365.15C310.51 365.15 316.18 348.87 321 344.9C321.24 344.66 321.48 344.54 321.72 344.42C323.53 344.06 325.22 343.46 326.78 342.49C332.57 338.99 336.79 331.64 339.68 325.13H380.91L380.31 332.36C380.31 332.96 380.19 334.29 379.95 336.34C352.46 383.24 310.51 365.15 310.51 365.15Z" fill="#0086E7"/>
<path d="M287.85 393.24L286.89 390.95C287.73 390.83 288.58 390.591 289.42 390.351C292.43 389.511 295.21 388.181 297.02 387.341L297.62 388.91C298.71 387.7 300.39 386.98 302.08 386.98C305.46 386.98 308.23 389.75 308.23 393.13C308.23 395.9 306.3 398.311 303.77 399.041C304.37 399.881 304.73 400.97 304.73 402.17C304.73 405.55 301.96 408.321 298.58 408.321C295.93 408.321 293.52 406.511 292.79 404.101C291.83 405.061 290.38 405.551 288.93 405.551C285.43 405.551 282.66 402.781 282.66 399.281C282.66 396.271 284.95 393.73 287.84 393.25L287.85 393.24Z" fill="#534741"/>
<path d="M269.28 332.35C277.96 329.1 285.92 328.61 286.88 331.39C287.72 333.56 284.23 336.81 278.56 339.71L282.18 348.99C281.46 350.56 280.13 351.04 280.13 351.04C280.13 351.04 278.44 352.13 276.51 352.85C274.94 353.45 273.26 353.94 272.53 353.09C272.17 352.73 271.69 352.25 271.2 352L267.82 343.68C261.31 345.49 256.01 345.25 255.28 343.08C254.19 340.31 260.46 335.48 269.27 332.35H269.28Z" fill="#534741"/>
<path d="M283.63 382.75C285.2 382.63 286.28 382.39 286.28 382.39C286.28 382.39 291.83 380.34 291.46 382.39C290.98 383.35 289.17 383.96 286.88 384.2C286.04 384.32 285.19 384.44 284.35 384.44L283.63 382.75Z" fill="#534741"/>
<path d="M279.41 372.38C280.62 372.26 281.7 372.14 282.54 372.02C283.5 371.9 284.11 371.78 284.11 371.78C284.11 371.78 288.45 371.9 287.61 372.86C287.01 373.46 285.44 373.58 283.15 373.7C282.31 373.82 281.34 373.82 280.14 373.94L279.42 372.37L279.41 372.38Z" fill="#534741"/>
<path d="M275.19 361.77C276.76 361.89 278.2 361.889 279.17 361.889H280.5C280.5 361.889 286.41 362.729 284.36 364.179C283.4 364.899 281.95 364.9 280.14 364.78C278.93 364.66 277.61 364.539 276.28 364.419L275.19 361.77Z" fill="#534741"/>
<path d="M131.1 506.92H130.15L123.98 507.4C123.98 507.4 123.5 507.87 123.03 507.87C122.56 507.87 122.55 508.35 122.55 508.35L111.16 418.64C114.01 417.69 116.86 416.74 119.23 415.32L119.71 416.74L119.23 417.22C116.38 419.59 114.01 423.87 115.43 427.66C115.43 427.66 115.43 428.13 115.91 428.13C115.91 428.61 116.38 428.61 116.86 428.61C118.29 428.61 119.71 428.13 120.66 427.19L131.1 506.93V506.92Z" fill="black"/>
<path d="M99.4102 325.12H107.97L110.74 346.94L111.34 352.12L115.2 382.26C112.31 379.73 109.17 377.32 105.8 375.75L102.91 353.08L99.4102 325.11V325.12Z" fill="black"/>
<path d="M123.16 365.39V359.84C124.73 360.2 126.42 359 126.54 357.43C126.54 356.95 126.42 356.47 126.42 356.1C126.42 355.86 126.54 355.62 126.54 355.5C126.78 354.54 127.5 353.81 128.11 352.97C131.73 348.03 133.66 342 134.5 335.97C134.98 332.35 135.1 328.74 135.1 325.12H155.11C150.53 336.33 143.78 346.82 135.46 355.86C132.08 359.48 127.74 363.21 123.16 365.38C122.92 365.5 123.4 365.26 123.16 365.38V365.39Z" fill="#0086E7"/>
<path d="M110.74 346.939C111.46 347.179 112.07 347.42 112.79 347.78C117.61 349.95 122.43 352.12 126.53 355.5C126.53 355.62 126.41 355.86 126.41 356.1C126.41 356.46 126.53 356.939 126.53 357.429C126.41 358.999 124.72 360.2 123.15 359.84C118.93 356.71 115.43 354.54 111.34 352.12L110.74 346.939Z" fill="#E5C3B4"/>
<path d="M123.16 359.841V365.39C123.4 368.28 123.76 370.94 123.16 373.71C123.16 374.19 123.04 374.55 123.16 374.92C123.28 375.76 124.12 376.37 124.85 376.97C125.93 377.69 126.9 378.66 127.62 379.74C128.22 380.7 128.46 381.791 128.83 382.871C129.43 385.041 130.04 387.33 130.76 389.5C131.24 391.55 131.84 393.6 132.21 395.65C133.29 401.92 132.33 408.431 131.49 414.821C131.37 415.421 131.37 416.15 131.01 416.75C130.77 417.35 130.41 417.841 129.92 418.321C128.59 419.771 127.27 421.091 126.06 422.541C125.82 422.661 125.7 422.901 125.58 423.021C124.13 424.591 122.69 426.15 120.88 427.24C119.67 428.08 118.23 428.69 116.78 428.69C116.42 428.69 115.94 428.571 115.7 428.331C115.46 428.211 115.34 427.85 115.22 427.49C114.26 423.75 116.31 419.77 119.2 417.24L119.56 416.88C120.4 416.16 121.37 415.431 122.09 414.591C122.33 414.351 122.45 414.11 122.57 413.75C122.69 413.63 122.81 413.51 122.81 413.39C124.74 412.06 127.51 410.861 127.75 407.841C127.75 406.511 126.79 405.191 125.58 404.581C124.49 404.221 123.53 404.22 122.45 403.98L123.9 401.091C123.9 400.611 124.26 400.251 123.9 399.281C123.18 398.321 122.09 398.32 121.37 398.2C120.65 398.2 119.8 398.201 119.56 398.081H119.44C119.44 397.961 119.56 397.96 119.56 397.96C119.68 397 120.64 396.391 121.49 395.551C121.97 395.191 122.58 394.471 122.45 393.621C122.45 392.901 121.85 392.29 121.36 391.93V391.811C120.52 391.211 119.67 390.731 118.83 390.121C117.87 389.641 117.5 389.031 117.99 388.071C118.47 387.231 118.59 385.78 117.87 384.94C117.63 384.7 117.39 384.46 117.15 384.22C117.03 384.1 116.91 383.981 116.79 383.861C116.43 383.501 116.07 383.141 115.71 382.771C115.59 382.651 115.35 382.531 115.23 382.291L111.37 352.15C115.47 354.56 118.97 356.731 123.18 359.871L123.16 359.841Z" fill="#FFDEB9"/>
<path d="M93.2598 390.34C92.5398 387.33 96.64 384.669 96.27 381.779C96.27 381.699 96.2299 381.619 96.1499 381.539C96.2699 381.419 96.1499 381.299 96.1499 381.179C95.7899 379.969 94.6998 379.249 94.3398 378.049C93.9798 376.479 95.1799 374.789 96.6299 374.189C97.2299 373.949 97.7198 373.829 98.3198 373.949C99.0398 373.829 99.7702 373.829 100.49 373.949C100.85 374.069 101.21 374.189 101.58 374.189C103.03 374.549 104.47 375.149 105.8 375.759C109.18 377.329 112.31 379.739 115.2 382.269C115.32 382.509 115.56 382.629 115.68 382.749C116.04 383.109 116.4 383.47 116.76 383.84C117 384.32 117.24 384.679 117.48 385.169C118.08 386.009 117.84 386.859 117.36 387.819C117.24 388.299 116.88 388.899 117.24 389.509C117.48 390.109 117.96 390.349 118.32 390.719C119.16 391.319 120.13 391.929 120.85 392.529C121.69 393.249 121.69 394.219 120.85 394.939C120.01 395.659 118.68 396.27 118.32 397.83V397.949C118.44 398.189 118.56 398.549 118.68 398.789V398.909C119.76 399.509 120.49 399.269 121.21 399.389C121.93 399.509 122.66 399.63 122.9 399.87V400.11C122.9 400.35 122.66 401.319 122.42 401.799L121.21 404.209L120.97 404.689L121.69 404.809C122.9 405.049 124.1 405.049 125.19 405.289C126.28 405.769 127 406.739 127 407.819C127 409.629 125.67 411.079 124.23 412.279C123.75 412.639 123.27 413 122.78 413.37C122.78 413.49 122.66 413.489 122.54 413.489C121.82 413.969 121.09 414.449 120.37 414.819C120.01 414.939 119.77 415.179 119.41 415.299C116.76 416.629 113.98 417.829 111.21 418.799C110.25 419.279 109.28 419.639 108.32 420.009C105.19 420.969 101.33 421.699 98.6699 419.649C96.6199 417.959 96.0201 415.069 96.1401 412.419C96.1401 411.459 96.26 410.489 96.02 409.649L95.8999 409.529C95.8999 409.289 95.7802 409.049 95.6602 408.809C95.0602 407.719 94.0901 406.879 93.3701 405.799C91.5601 403.269 91.92 399.409 94.21 397.239C94.57 396.759 95.0498 396.399 95.2998 395.909C95.4198 395.669 95.54 395.309 95.54 395.069C95.54 394.829 95.5399 394.709 95.4199 394.469C95.2999 393.989 95.0598 393.509 94.8198 393.019C94.2198 392.179 93.49 391.33 93.25 390.37L93.2598 390.34Z" fill="#FFDEB9"/>
<path d="M96.1499 381.54C102.66 380.45 109.41 383.83 113.75 388.41C108.45 385.03 102.66 382.14 96.27 381.78C96.27 381.7 96.2299 381.62 96.1499 381.54Z" fill="#999999"/>
<path d="M95.4302 394.439C102.78 393.839 110.14 395.28 117.25 396.49C109.9 396.49 102.66 395.16 95.5498 395.04C95.5498 394.8 95.5502 394.679 95.4302 394.439Z" fill="#999999"/>
<path d="M100.55 346.94C94.7098 342.44 90.24 336.42 85.79 330.74C91.23 335.69 95.6901 341.54 100.87 346.42C100.71 346.6 100.63 346.69 100.55 346.95V346.94Z" fill="black"/>
<path d="M95.6699 408.79C98.3199 407.46 101.22 406.5 104.11 406.02C109.41 405.42 114.48 405.42 119.54 404.45C114.72 406.5 109.29 406.26 104.35 407.22C101.34 407.46 98.5602 408.3 95.9102 409.51C95.9102 409.27 95.7899 409.03 95.6699 408.79Z" fill="#999999"/>
<path d="M119.42 398.06C119.42 397.94 119.54 397.939 119.54 397.939V398.06H119.42Z" fill="#999999"/>
<path d="M116.77 383.83C116.89 383.95 117.01 384.07 117.13 384.19C117.37 384.43 117.61 384.67 117.85 384.91C118.57 385.75 118.45 387.2 117.97 388.04C117.49 389 117.85 389.61 118.81 390.09C119.65 390.69 120.5 391.17 121.34 391.78V391.9C121.82 392.26 122.43 392.86 122.43 393.59C122.55 394.43 121.95 395.16 121.47 395.52C120.63 396.36 119.66 396.97 119.54 397.93C119.54 397.93 119.42 397.93 119.42 398.05H119.54C119.78 398.17 120.62 398.17 121.35 398.17C122.07 398.29 123.16 398.29 123.88 399.25C124.24 400.21 123.88 400.58 123.88 401.06L122.43 403.95C123.51 404.19 124.48 404.19 125.56 404.55C126.77 405.15 127.73 406.48 127.73 407.81C127.49 410.82 124.72 412.03 122.79 413.36C123.27 413 123.75 412.64 124.24 412.27C125.69 411.06 127.01 409.62 127.01 407.81C127.01 406.73 126.29 405.76 125.2 405.28C124.12 405.04 122.91 405.04 121.7 404.8L120.98 404.68L121.22 404.2L122.43 401.79C122.67 401.31 122.91 400.34 122.91 400.1V399.86C122.67 399.62 121.95 399.5 121.22 399.38C120.5 399.26 119.77 399.5 118.69 398.9V398.78C118.57 398.54 118.45 398.18 118.33 397.94V397.82C118.69 396.25 120.02 395.65 120.86 394.93C121.7 394.21 121.7 393.24 120.86 392.52C120.14 391.92 119.17 391.31 118.33 390.71C117.97 390.35 117.49 390.11 117.25 389.5C116.89 388.9 117.25 388.29 117.37 387.81C117.85 386.85 118.09 386 117.49 385.16C117.25 384.68 117.01 384.32 116.77 383.83Z" fill="#999999"/>
<path d="M100.62 362.61C100.98 359.35 101.7 356.1 102.91 353.09L105.8 375.76C104.47 375.16 103.03 374.55 101.58 374.19C101.22 374.19 100.86 374.07 100.49 373.95C100.37 370.21 100.25 366.35 100.61 362.62L100.62 362.61Z" fill="#FFDEB9"/>
<path d="M100.86 373.791C102.5 373.521 104.21 374.371 105.3 375.531C103.96 374.681 102.5 373.951 100.89 373.861C100.89 373.861 100.88 373.841 100.86 373.801V373.791Z" fill="#999999"/>
<path d="M113.43 50.0405L113.29 49.7305L113.15 50.0405C104.11 72.3005 77.3398 84.5204 77.3398 108.43C77.3398 128.44 100.27 136.17 111.45 119.42C111.69 118.57 111.43 124.74 110.67 128.21C108.45 136.7 101.49 148.371 96.4902 154.801C96.0702 155.341 96.5601 156.14 97.1401 155.89C105.26 152.39 121.31 152.39 129.43 155.89C130.02 156.14 130.5 155.351 130.09 154.801C125.19 148.471 118.5 137.1 115.9 128.2C115.25 125.21 114.87 122.2 114.7 119.18C125.61 137.34 149.24 128.84 149.24 108.42C149.24 84.5004 122.47 72.2905 113.43 50.0305V50.0405Z" fill="black"/>
<path d="M354.14 605.37L354.28 605.68L354.42 605.37C363.46 583.11 390.23 570.89 390.23 546.98C390.23 526.97 367.3 519.24 356.12 535.99C355.88 536.84 356.14 530.67 356.9 527.2C359.12 518.71 366.08 507.04 371.08 500.61C371.5 500.07 371.01 499.27 370.43 499.52C362.31 503.02 346.26 503.02 338.14 499.52C337.55 499.27 337.07 500.06 337.48 500.61C342.38 506.94 349.07 518.31 351.67 527.21C352.32 530.2 352.7 533.21 352.87 536.23C341.96 518.07 318.33 526.57 318.33 546.99C318.33 570.91 345.1 583.12 354.14 605.38V605.37Z" fill="black"/>
<path d="M386 123.87C389.32 150.93 377.45 176.56 357.04 191.75C358.47 186.53 359.41 180.83 358.47 174.66C357.99 170.86 357.04 167.06 355.15 163.74C358.47 160.89 359.9 156.62 359.42 152.35C358.47 145.23 351.83 139.54 344.71 140.48C343.29 140.96 341.86 140.96 340.44 141.43L337.59 117.22C339.49 117.7 341.39 118.17 343.76 117.7C350.88 116.75 356.57 110.58 355.63 102.99C354.68 97.7702 351.36 93.9703 347.09 92.0703C347.56 89.2203 347.56 85.9003 347.09 82.5803C346.14 76.4103 343.77 70.2402 340.44 65.4902C364.17 74.9802 382.69 96.8204 386.01 123.87H386Z" fill="#BACBE4"/>
<path d="M330.93 143.33V143.81C330.45 143.33 329.51 143.33 329.03 143.33C325.71 147.6 321.43 150.93 316.69 153.3C317.17 149.98 317.64 146.18 317.64 142.86C317.64 139.54 317.16 136.21 317.16 132.89C316.68 129.57 315.73 126.72 315.26 123.87C314.31 120.07 312.89 116.27 311.46 112.95C317.16 114.37 322.38 116.75 326.65 120.07C327.12 120.07 327.6 119.59 327.6 119.59L330.92 143.32L330.93 143.33Z" fill="#BACBE4"/>
<path d="M334.26 101.56L336.16 115.8H335.21L329.51 116.27C329.03 116.27 328.56 116.75 328.08 117.22L326.18 102.51L319.53 103.46L322.38 83.0503L325.23 63.1104L333.3 82.1003L340.9 100.61L334.25 101.56H334.26Z" fill="black"/>
<path d="M340.43 141.43V141.91C340.43 142.86 340.43 143.33 339.95 143.81C339.47 143.81 339 144.29 339 144.29L332.83 144.77C332.36 145.25 331.88 144.77 331.88 144.77C331.4 144.77 331.4 144.29 331.4 144.29C330.92 144.29 330.92 143.81 330.92 143.81V143.33L327.6 119.6V118.65C327.6 118.17 327.6 117.7 328.08 117.22C328.56 116.74 329.03 116.27 329.51 116.27L335.21 115.8H336.16C337.11 116.27 337.11 116.75 337.59 117.22L340.44 141.43H340.43Z" fill="url(#paint1_linear_145_1959)"/>
<path d="M364.42 102.94L364.34 102.83L364.3 102.96C361.68 111.88 350.84 118.22 352.22 127.16C353.37 134.64 363.7 136.01 367.56 129C367.61 128.67 367.86 130.99 367.73 132.34C367.26 135.66 364.93 140.49 363.14 143.22C362.99 143.45 363.25 143.72 363.48 143.58C366.78 141.73 373.7 140.67 377.4 141.44C377.67 141.5 377.83 141.17 377.62 140.99C375.14 138.95 371.6 135.15 369.97 131.99C369.52 130.92 369.18 129.81 368.93 128.7C374.68 134.76 384.38 130.02 383.21 122.39C381.83 113.45 369.59 110.66 364.41 102.94H364.42Z" fill="black"/>
<path d="M77.11 528C73.61 500.97 85.3103 475.26 105.62 459.93C104.23 465.16 103.32 470.86 104.31 477.03C104.81 480.82 105.79 484.62 107.7 487.93C104.4 490.8 103 495.08 103.5 499.35C104.49 506.46 111.18 512.11 118.29 511.12C119.71 510.64 121.13 510.63 122.55 510.14L125.56 534.33C123.66 533.87 121.76 533.4 119.39 533.9C112.28 534.9 106.62 541.11 107.62 548.69C108.6 553.9 111.95 557.68 116.24 559.55C115.79 562.4 115.81 565.72 116.3 569.04C117.29 575.2 119.7 581.36 123.06 586.08C99.2602 576.75 80.61 555.03 77.11 528Z" fill="#BACBE4"/>
<path d="M132.04 508.18V507.7C132.52 508.17 133.46 508.17 133.94 508.16C137.23 503.86 141.49 500.51 146.22 498.11C145.77 501.44 145.32 505.24 145.34 508.56C145.36 511.88 145.86 515.2 145.88 518.53C146.38 521.85 147.35 524.69 147.84 527.54C148.81 531.33 150.26 535.12 151.71 538.43C146.01 537.05 140.77 534.71 136.47 531.41C136 531.41 135.53 531.89 135.53 531.89L132.05 508.18H132.04Z" fill="#BACBE4"/>
<path d="M128.99 549.969L127 535.74C127 535.74 127.48 535.74 127.95 535.74L133.64 535.229C134.12 535.229 134.59 534.75 135.06 534.27L137.05 548.969L143.69 547.979L140.98 568.409L138.26 588.37L130.07 569.439L122.35 550.979L128.99 549.99V549.969Z" fill="black"/>
<path d="M135.37 532.08V533.03C135.37 533.51 135.37 533.98 134.89 534.46C134.41 534.93 133.94 535.41 133.47 535.41L127.77 535.89H126.82C125.87 535.41 125.87 534.94 125.39 534.47L122.54 510.26V509.78C122.54 508.83 122.54 508.35 123.02 507.88C123.5 507.88 123.97 507.41 123.97 507.41L130.14 506.93H131.09C131.57 506.93 131.57 507.41 131.57 507.41C132.05 507.41 132.05 507.88 132.05 507.88V508.36L135.37 532.09V532.08Z" fill="url(#paint2_linear_145_1959)"/>
<path d="M98.8196 548.78L98.8997 548.89L98.9397 548.76C101.5 539.82 112.3 533.41 110.86 524.48C109.66 517.01 99.3196 515.71 95.5096 522.74C95.4596 523.07 95.1996 520.75 95.3196 519.4C95.7696 516.08 98.0699 511.24 99.8299 508.49C99.9799 508.26 99.7198 507.99 99.4798 508.13C96.1898 510 89.2796 511.11 85.5696 510.36C85.2996 510.31 85.1399 510.64 85.3499 510.81C87.8399 512.83 91.4099 516.62 93.0599 519.76C93.5199 520.83 93.8699 521.93 94.1199 523.04C88.3299 517.02 78.6597 521.82 79.8797 529.45C81.3097 538.38 93.5799 541.09 98.8099 548.77L98.8196 548.78Z" fill="black"/>
<defs>
<linearGradient id="paint0_linear_145_1959" x1="380.43" y1="-103.39" x2="109.94" y2="690.48" gradientUnits="userSpaceOnUse">
<stop stop-color="#E1E1E1"/>
<stop offset="0.12" stop-color="#ECECEC"/>
<stop offset="0.32" stop-color="#FAFAFA"/>
<stop offset="0.49" stop-color="white"/>
<stop offset="0.7" stop-color="#FBFBFB"/>
<stop offset="0.85" stop-color="#F2F2F2"/>
<stop offset="0.99" stop-color="#E2E2E2"/>
<stop offset="1" stop-color="#E1E1E1"/>
</linearGradient>
<linearGradient id="paint1_linear_145_1959" x1="338.73" y1="116.68" x2="329.42" y2="143.99" gradientUnits="userSpaceOnUse">
<stop stop-color="#E1E1E1"/>
<stop offset="0.12" stop-color="#ECECEC"/>
<stop offset="0.32" stop-color="#FAFAFA"/>
<stop offset="0.49" stop-color="white"/>
<stop offset="0.7" stop-color="#FBFBFB"/>
<stop offset="0.85" stop-color="#F2F2F2"/>
<stop offset="0.99" stop-color="#E2E2E2"/>
<stop offset="1" stop-color="#E1E1E1"/>
</linearGradient>
<linearGradient id="paint2_linear_145_1959" x1="133.55" y1="507.72" x2="124.25" y2="535" gradientUnits="userSpaceOnUse">
<stop stop-color="#E1E1E1"/>
<stop offset="0.12" stop-color="#ECECEC"/>
<stop offset="0.32" stop-color="#FAFAFA"/>
<stop offset="0.49" stop-color="white"/>
<stop offset="0.7" stop-color="#FBFBFB"/>
<stop offset="0.85" stop-color="#F2F2F2"/>
<stop offset="0.99" stop-color="#E2E2E2"/>
<stop offset="1" stop-color="#E1E1E1"/>
</linearGradient>
</defs>
</svg>
