<svg width="469" height="650" viewBox="0 0 469 650" fill="none" xmlns="http://www.w3.org/2000/svg">
<path d="M439.89 0.610352H30.0098C13.9398 0.610352 0.910156 12.6703 0.910156 27.5403V622.38C0.910156 637.25 13.9398 649.31 30.0098 649.31H439.89C455.96 649.31 468.99 637.25 468.99 622.38V27.5403C468.99 12.6703 455.96 0.610352 439.89 0.610352Z" fill="url(#paint0_linear_145_2210)"/>
<path d="M57.3599 107.41L57.27 107.24L57.1802 107.41C51.4602 119.62 34.52 126.32 34.52 139.44C34.52 150.41 49.0299 154.65 56.1099 145.47C56.2599 145 56.1001 148.39 55.6201 150.29C54.2201 154.94 49.8099 161.35 46.6499 164.87C46.3799 165.17 46.6901 165.6 47.0601 165.47C52.2001 163.55 62.3602 163.55 67.4902 165.47C67.8602 165.61 68.1699 165.17 67.8999 164.87C64.7999 161.4 60.5599 155.16 58.9199 150.28C58.5099 148.64 58.2702 146.99 58.1602 145.33C65.0702 155.29 80.02 150.63 80.02 139.43C80.02 126.31 63.0799 119.61 57.3599 107.4V107.41Z" fill="black"/>
<path d="M413.56 542.66L413.65 542.83L413.74 542.66C419.46 530.45 436.4 523.75 436.4 510.63C436.4 499.66 421.89 495.42 414.81 504.6C414.66 505.07 414.82 501.68 415.3 499.78C416.7 495.13 421.11 488.72 424.27 485.2C424.54 484.9 424.23 484.47 423.86 484.6C418.72 486.52 408.56 486.52 403.43 484.6C403.06 484.46 402.75 484.9 403.02 485.2C406.12 488.67 410.36 494.91 412 499.79C412.41 501.43 412.65 503.08 412.76 504.74C405.85 494.78 390.9 499.44 390.9 510.64C390.9 523.76 407.84 530.46 413.56 542.67V542.66Z" fill="black"/>
<path d="M85.8701 98.0996C85.8101 101.03 85.4001 103.11 84.6401 104.29C83.1901 106.57 81.2402 106.22 79.7402 104.34C79.1102 103.56 78.0898 101.57 76.7598 96.5396C76.2298 94.6096 75.7601 93.0496 75.3101 91.8296C80.0801 87.7396 83.6499 83.1996 85.9199 78.3096C88.2899 73.2296 89.4902 67.3794 89.4902 60.8994C89.4902 53.8094 87.9599 47.3096 84.9399 41.5796C81.9099 35.8296 77.8198 31.3395 72.7798 28.2595C67.7298 25.1695 62.0802 23.5996 55.9702 23.5996C46.8502 23.5996 39.1 26.9995 32.96 33.6895C26.24 41.0195 22.8301 49.9796 22.8301 60.3196C22.8301 67.5896 24.3301 74.2095 27.3101 80.0095C30.2901 85.8295 34.39 90.3595 39.48 93.4795C44.58 96.5995 50.2102 98.1794 56.2202 98.1794C57.7402 98.1794 59.3498 98.0696 61.0298 97.8396C62.3398 97.6596 63.7001 97.4196 65.1001 97.0996C65.8201 104.09 67.17 108.779 69.23 111.409C71.45 114.249 74.3802 115.689 77.9302 115.689C81.7202 115.689 84.8402 114.21 87.2002 111.29C89.5102 108.44 90.7 104.01 90.73 98.1196V97.1096H85.9102L85.8901 98.0996H85.8701ZM60.98 92.0996C57.45 93.0996 53.16 93.0195 49.5 91.4795C47.45 89.0895 46.4102 86.5394 46.4102 83.9094C46.4102 81.2794 47.2402 79.0096 48.9502 77.3096C50.6602 75.5996 52.8 74.7695 55.5 74.7695C58.84 74.7695 61.2599 76.2094 62.8799 79.1594C64.1599 81.4594 64.86 85.2494 64.96 90.4194C63.7 91.1394 62.37 91.6996 60.98 92.0996ZM71.8999 82.4695C70.2599 78.3395 68.5301 75.3995 66.6401 73.5195C63.6901 70.6095 59.9901 69.1394 55.6401 69.1394C51.2901 69.1394 47.7798 70.4995 45.0898 73.1995C42.5498 75.7595 41.2001 78.9996 41.0601 82.8696C39.8801 80.3996 38.94 77.8295 38.27 75.1895C37.26 71.2395 36.7402 66.4196 36.7402 60.8696C36.7402 53.0096 37.5998 46.7295 39.2998 42.1995C40.9698 37.7395 43.29 34.4396 46.21 32.3596C49.12 30.2896 52.4599 29.2495 56.1299 29.2495C59.7999 29.2495 63.2602 30.2996 66.2202 32.3696C69.1802 34.4396 71.5202 37.7196 73.1602 42.1096C74.8402 46.5796 75.6899 52.7796 75.6899 60.5496C75.6899 66.0796 75.2998 70.7394 74.5298 74.3894C73.9298 77.2394 73.0499 79.9495 71.8999 82.4895V82.4695Z" fill="black"/>
<path d="M383.76 552.189C383.82 549.259 384.23 547.18 384.99 546C386.44 543.72 388.39 544.069 389.89 545.949C390.52 546.729 391.54 548.72 392.87 553.75C393.4 555.68 393.87 557.239 394.32 558.459C389.55 562.549 385.98 567.089 383.71 571.979C381.34 577.059 380.14 582.909 380.14 589.389C380.14 596.479 381.67 602.979 384.69 608.709C387.72 614.459 391.81 618.95 396.85 622.03C401.9 625.12 407.55 626.689 413.66 626.689C422.78 626.689 430.53 623.29 436.67 616.6C443.39 609.27 446.8 600.309 446.8 589.969C446.8 582.699 445.3 576.08 442.32 570.28C439.34 564.46 435.24 559.93 430.15 556.81C425.05 553.69 419.42 552.11 413.41 552.11C411.89 552.11 410.28 552.219 408.6 552.449C407.29 552.629 405.93 552.869 404.53 553.189C403.81 546.199 402.46 541.509 400.4 538.879C398.18 536.039 395.25 534.6 391.7 534.6C387.91 534.6 384.79 536.08 382.43 539C380.12 541.85 378.93 546.279 378.9 552.169V553.179H383.72L383.74 552.189H383.76ZM408.65 558.189C412.18 557.189 416.47 557.27 420.13 558.81C422.18 561.2 423.22 563.749 423.22 566.379C423.22 569.009 422.39 571.279 420.68 572.979C418.97 574.689 416.83 575.52 414.13 575.52C410.79 575.52 408.37 574.079 406.75 571.129C405.47 568.829 404.77 565.04 404.67 559.87C405.93 559.15 407.26 558.589 408.65 558.189ZM397.73 567.82C399.37 571.95 401.1 574.89 402.99 576.77C405.94 579.68 409.64 581.149 413.99 581.149C418.34 581.149 421.85 579.79 424.54 577.09C427.08 574.53 428.43 571.289 428.57 567.419C429.75 569.889 430.69 572.46 431.36 575.1C432.37 579.05 432.89 583.869 432.89 589.419C432.89 597.279 432.03 603.56 430.33 608.09C428.66 612.55 426.34 615.849 423.42 617.929C420.51 619.999 417.17 621.04 413.5 621.04C409.83 621.04 406.37 619.989 403.41 617.919C400.45 615.849 398.11 612.569 396.47 608.179C394.79 603.709 393.94 597.51 393.94 589.74C393.94 584.21 394.33 579.549 395.1 575.899C395.7 573.049 396.58 570.34 397.73 567.8V567.82Z" fill="black"/>
<path d="M136.15 48.3801L136.01 48.0703L135.87 48.3801C126.83 70.6401 100.06 82.8603 100.06 106.77C100.06 126.78 122.99 134.51 134.17 117.76C134.41 116.91 134.15 123.08 133.39 126.55C131.17 135.04 124.21 146.71 119.21 153.14C118.79 153.68 119.28 154.48 119.87 154.23C127.99 150.73 144.04 150.73 152.16 154.23C152.75 154.48 153.23 153.69 152.82 153.14C147.92 146.81 141.23 135.44 138.63 126.54C137.98 123.55 137.6 120.54 137.43 117.52C148.34 135.68 171.97 127.18 171.97 106.76C171.97 82.8403 145.2 70.6304 136.16 48.3704L136.15 48.3801Z" fill="black"/>
<path d="M329.08 605.2L329.22 605.51L329.36 605.2C338.4 582.94 365.17 570.72 365.17 546.81C365.17 526.8 342.24 519.07 331.06 535.82C330.82 536.67 331.08 530.5 331.84 527.03C334.06 518.54 341.02 506.87 346.02 500.44C346.44 499.9 345.95 499.1 345.37 499.35C337.25 502.85 321.2 502.85 313.08 499.35C312.49 499.1 312.01 499.89 312.42 500.44C317.32 506.77 324.01 518.14 326.61 527.04C327.26 530.03 327.64 533.04 327.81 536.06C316.9 517.9 293.27 526.4 293.27 546.82C293.27 570.74 320.04 582.95 329.08 605.21V605.2Z" fill="black"/>
<path d="M252.06 84.1904C215.19 94.7504 205.5 111.88 204.46 113.96L204.29 114.13L202.04 112.4L190.1 103.92C190.62 103.23 191.31 102.361 191.49 101.321C195.99 101.491 200.84 100.45 204.82 97.6804C209.67 94.5604 213.13 89.8906 214.51 84.8706C216.24 85.7406 218.49 85.7405 220.22 84.5205C221.95 83.6505 222.82 81.7506 222.82 79.8506C228.01 80.3706 233.2 79.3304 238.05 76.2104C242.2 73.6104 245.32 69.8105 247.05 65.3105C248.09 65.6605 249.13 65.6605 249.99 65.3105L252.07 84.1804L252.06 84.1904Z" fill="#BCA827"/>
<path d="M190.85 97.2097C190.95 97.4297 191.21 97.7199 191.24 98.1099C191.57 99.1699 191.89 100.23 191.45 101.36C191.23 102.39 190.69 103.29 190.05 103.97C189.76 104.23 189.47 104.49 189.18 104.74C186.68 106.36 183.27 105.57 181.65 103.07C180.84 101.82 180.55 100.21 180.96 98.6997C181.25 97.5097 182.08 96.3498 183.33 95.5398C185.83 93.9198 189.24 94.7097 190.86 97.2097H190.85Z" fill="#C9CA54"/>
<path d="M221.88 77.0807C222.14 77.3707 222.4 77.6606 222.43 78.0406C222.56 78.6506 222.76 79.1007 222.82 79.8707C222.82 81.7307 221.9 83.6007 220.2 84.6107C218.44 85.7707 216.19 85.8206 214.54 84.7906C214.06 84.6006 213.64 84.2505 213.22 83.9005C213.12 83.6805 212.86 83.3907 212.61 83.1007C211.41 80.9507 211.66 78.4407 213.13 76.6107C213.48 76.1907 213.83 75.7707 214.28 75.5807C214.73 75.3807 215.02 75.1305 215.47 74.9305C217.81 74.1805 220.52 74.8807 221.88 77.0907V77.0807Z" fill="#C9CA54"/>
<path d="M252.85 57.1205C254.47 59.6205 253.84 63.0903 251.34 64.7103C250.89 64.9003 250.44 65.1004 249.99 65.2904C249.09 65.6804 248 65.6203 246.97 65.4003C245.94 65.1803 245.04 64.6404 244.42 63.8404C244.1 63.7104 243.84 63.4204 243.81 63.0404C242.19 60.5404 242.82 57.0603 245.32 55.4503C246.51 54.8003 247.5 54.6404 248.76 54.7604C250.4 54.8504 251.95 55.6505 252.85 57.1205Z" fill="#C9CA54"/>
<path d="M286.85 169.87C286.16 178.01 285.46 186.14 284.77 194.28C284.6 197.74 284.08 201.72 281.48 203.97C280.1 205.18 278.19 205.7 276.46 206.22C274.56 206.74 272.65 207.26 270.58 207.61C269.02 207.96 267.46 208.13 265.91 207.96C265.22 207.96 264.52 207.79 263.83 207.61C262.79 206.92 262.1 206.22 261.23 205.71H261.06C257.6 203.46 254.14 201.38 250.67 199.13C249.46 198.44 248.25 197.57 247.03 196.53V196.36C245.65 195.15 244.43 193.76 244.09 191.86C244.44 191.69 244.78 191.69 245.13 191.69C247.55 191.17 250.32 191.34 252.57 190.13C254.13 189.26 255.51 187.71 256.55 186.32C263.65 177.32 269.01 166.93 270.92 155.86C271.61 150.84 271.79 145.82 271.79 140.8V119.68C271.79 116.04 271.1 111.54 267.81 110.33C266.25 109.81 264.35 110.16 262.79 110.33C257.77 110.5 252.58 108.08 247.73 109.64C245.48 110.33 243.58 111.89 241.67 113.1C237.17 115.87 232.15 117.77 226.96 118.64C225.4 118.81 223.84 118.99 222.63 120.03C221.24 121.24 221.24 123.32 221.24 125.22V140.28C221.24 140.97 221.24 141.84 221.59 142.53C221.94 143.22 222.63 143.57 223.15 144.26C224.19 145.65 224.19 147.72 224.19 149.63C223.84 155.69 223.67 161.57 223.32 167.63C223.15 171.09 222.97 174.38 221.94 177.67C220.9 181.13 218.65 184.42 217.96 188.06C217.44 191 217.96 193.94 218.13 196.89C218.3 199.83 217.78 203.12 215.71 205.37C215.19 205.89 214.33 206.41 213.81 207.27C213.64 207.44 213.64 207.79 213.46 207.96C212.59 209.69 212.77 212.11 211.04 213.33C210.87 213.5 210.69 213.5 210.52 213.68C210 214.03 209.31 214.2 208.79 214.55C208.27 214.9 207.92 215.42 207.58 215.94C205.85 214.73 204.64 213.17 203.77 211.44C202.39 208.15 202.56 204.34 202.9 200.71C203.25 196.73 203.59 192.75 203.94 188.77C204.11 184.96 204.46 181.15 203.77 177.52C203.42 174.58 202.39 171.81 201.87 169.04C201 164.71 201.52 160.39 200.66 156.06C199.97 151.73 198.24 147.75 197.54 143.42C195.81 133.38 199.96 123.34 204.29 114.17L204.46 114C205.5 111.92 215.19 94.7897 252.06 84.2297C255.18 83.7097 258.64 84.3997 261.58 85.9597C265.73 88.0397 269.02 91.6698 271.79 95.3098C273.69 98.0798 275.6 100.85 276.64 103.96C278.72 109.67 278.2 115.9 279.06 121.96C280.27 132 285.46 141.35 286.85 151.39C287.89 157.45 287.37 163.68 286.85 169.91V169.87Z" fill="black"/>
<path d="M213.46 207.95C213.63 207.78 213.63 207.43 213.81 207.26C214.33 206.39 215.2 205.87 215.71 205.36C217.79 203.11 218.31 199.82 218.13 196.88C217.96 193.94 217.44 191 217.96 188.05C218.65 184.41 220.9 181.13 221.94 177.66C222.98 174.37 223.15 171.08 223.32 167.62C223.67 161.56 223.84 155.68 224.19 149.62C224.19 147.72 224.19 145.64 223.15 144.25C222.63 143.56 221.94 143.21 221.59 142.52C221.24 141.83 221.24 140.96 221.24 140.27V125.21C221.24 123.31 221.24 121.23 222.63 120.02C223.84 118.98 225.4 118.81 226.96 118.63C232.15 117.76 237.17 115.86 241.67 113.09C243.57 111.88 245.48 110.32 247.73 109.63C252.58 108.07 257.77 110.5 262.79 110.32C264.35 110.15 266.25 109.8 267.81 110.32C271.1 111.53 271.79 116.03 271.79 119.67V135.42C268.16 129.36 259.5 135.42 259.5 135.42C261.75 145.81 271.79 140.79 271.79 140.79C271.79 145.81 271.62 150.83 270.92 155.85C269.02 166.93 263.65 177.31 256.55 186.31C255.51 187.69 254.13 189.25 252.57 190.12C250.32 191.33 247.55 191.16 245.13 191.68C244.78 191.68 244.44 191.68 244.09 191.85C244.44 193.75 245.65 195.14 247.03 196.35V196.52C248.24 197.56 249.45 198.42 250.67 199.12C254.13 201.37 257.59 203.45 261.06 205.7H261.23C241.67 219.55 221.77 212.1 213.46 207.95Z" fill="#FFAAA9"/>
<path d="M287.71 225.6C287.54 225.77 287.36 225.95 287.02 226.12H286.85C284.95 227.51 282.69 228.37 280.27 228.72C278.19 229.07 275.94 228.72 273.69 229.07C272.31 229.42 270.75 229.94 269.36 230.28C265.9 230.97 262.26 230.63 258.8 230.45C248.07 229.58 237.16 228.55 226.43 229.58C220.72 230.1 215.01 231.14 209.47 230.27C208.95 230.27 208.43 230.1 208.09 229.92C207.92 229.92 207.92 229.75 207.74 229.75C207.22 229.06 207.22 228.19 207.22 227.5C207.05 225.08 207.05 222.65 207.05 220.23C207.05 218.84 207.05 217.11 207.57 215.9C207.92 215.38 208.26 214.86 208.78 214.51C209.3 214.16 209.99 213.99 210.51 213.64C219.86 216.58 246.69 223.16 267.63 209.66C268.15 210.01 268.5 210.35 269.01 210.53C270.91 211.57 272.82 212.61 274.55 213.82C276.45 215.03 278.01 216.59 279.57 217.97C282.34 220.57 284.94 223.16 287.71 225.59V225.6Z" fill="#FFAAA9"/>
<path d="M229.55 324.96H108.39C109.43 323.23 110.64 321.84 111.85 320.29C112.54 319.42 113.24 318.56 114.1 317.87H116.87C119.81 317.87 122.93 317.52 125.87 317.35C127.77 317.18 129.85 316.83 131.76 316.66C139.2 315.62 146.47 314.06 153.74 312.16C158.41 310.95 163.09 309.56 167.59 308.01C170.19 307.14 172.61 306.28 175.03 305.41C180.4 303.51 185.76 301.43 190.61 298.66C198.75 294.16 205.5 287.76 211.9 281.01C212.25 282.74 212.77 284.3 213.29 285.86C217.44 299.36 222.46 312.69 229.56 324.98L229.55 324.96Z" fill="#6BC2F5"/>
<path d="M211.9 280.99C205.5 287.74 198.75 294.15 190.61 298.64C185.76 301.41 180.4 303.49 175.03 305.39C172.61 306.26 170.18 307.12 167.59 307.99C163.09 309.55 158.42 310.93 153.74 312.14C146.47 314.04 139.2 315.6 131.76 316.64C129.86 316.81 127.78 317.16 125.87 317.33C122.93 317.5 119.81 317.85 116.87 317.85H114.1C114.97 316.81 115.83 315.95 116.7 315.08C119.99 311.45 123.62 307.98 127.26 304.35C128.3 303.31 129.16 302.27 130.03 301.23C136.26 300.88 142.49 300.02 148.38 298.11C154.09 296.38 159.46 293.61 164.65 290.32C180.23 280.8 193.04 267.13 203.42 251.89C204.8 249.99 206.19 247.04 207.57 244.62C207.57 252.76 207.92 260.72 209.13 268.68C209.82 272.83 210.86 276.99 211.9 280.97V280.99Z" fill="#0064B1"/>
<path d="M208.09 229.93C207.92 234.78 207.57 239.8 207.57 244.64C206.18 247.06 204.8 250.01 203.42 251.91C193.03 267.14 180.23 280.82 164.65 290.34C159.46 293.63 154.09 296.4 148.38 298.13C142.49 300.03 136.26 300.9 130.03 301.25C134.36 296.4 138.34 291.38 141.97 285.84C150.97 272.51 157.89 257.45 163.26 242.22C167.41 230.1 170.7 217.81 173.99 205.52C176.59 194.44 179.18 183.19 181.95 172.11C185.24 158.26 189.05 144.59 193.2 130.91C195.28 124.51 197.35 117.41 202.03 112.39L204.28 114.12C199.95 123.29 195.8 133.33 197.53 143.37C198.22 147.7 199.95 151.68 200.65 156.01C201.52 160.34 201 164.66 201.86 168.99C202.38 171.76 203.42 174.53 203.76 177.47C204.45 181.11 204.11 184.91 203.93 188.72C203.58 192.7 203.24 196.68 202.89 200.66C202.54 204.3 202.37 208.1 203.76 211.39C204.63 213.12 205.84 214.68 207.57 215.89C207.05 217.1 207.05 218.83 207.05 220.22C207.05 222.64 207.05 225.07 207.22 227.49C207.22 228.18 207.22 229.05 207.74 229.74C207.91 229.74 207.91 229.91 208.09 229.91V229.93Z" fill="#6BC2F5"/>
<path d="M293.42 261.95C290.48 270.26 285.98 277.87 281.65 285.49C279.57 289.12 277.67 292.93 275.94 296.91C272.13 305.74 270.23 315.26 269.02 324.95H229.56C222.46 312.66 217.44 299.33 213.29 285.83C212.77 284.27 212.25 282.71 211.9 280.98C210.86 277 209.82 272.84 209.13 268.69C207.92 260.73 207.57 252.77 207.57 244.63C208.61 242.9 209.65 241.34 210.86 240.3C213.8 238.05 219.34 239.95 222.98 240.3C233.88 241.51 244.79 242.03 255.69 242.72C269.36 243.41 283.56 243.76 296.02 238.39C297.41 246.18 296.02 254.31 293.42 261.93V261.95Z" fill="#FEDD00"/>
<path d="M337.91 299.86C337.74 300.9 337.39 302.109 336.87 303.149C336.18 305.919 334.79 308.69 333.41 311.29C332.2 314.06 330.81 316.999 330.12 319.939C329.77 321.499 329.43 323.229 329.25 324.959H285.8C294.11 314.399 302.07 303.67 309.86 292.77C315.92 284.12 322.32 274.249 320.76 263.689C321.11 264.379 321.45 265.07 321.8 265.77C325.44 272 330.97 277.02 334.61 283.08V283.25C334.44 283.94 334.26 284.81 334.44 285.5C334.79 287.4 336 288.789 337.56 289.649C338.43 292.939 338.6 296.57 337.91 299.86Z" fill="#0064B1"/>
<path d="M320.77 263.68C322.33 274.24 315.92 284.1 309.87 292.76C302.08 303.66 294.12 314.4 285.81 324.95H269.02C270.23 315.26 272.14 305.74 275.94 296.91C277.67 292.93 279.57 289.12 281.65 285.49C285.98 277.87 290.48 270.26 293.42 261.95C296.02 254.33 297.4 246.2 296.02 238.41C295.85 237.54 295.67 236.85 295.5 235.99C294.81 233.57 293.94 231.32 293.08 229.07C295.16 229.94 297.23 230.97 299.31 232.01C302.43 233.4 305.71 235.13 308.31 237.38C315.58 243.96 316.44 254.86 320.77 263.69V263.68Z" fill="#6BC2F5"/>
<path d="M296.02 238.41C283.56 243.78 269.36 243.43 255.69 242.74C244.79 242.05 233.88 241.53 222.98 240.32C219.34 239.97 213.81 238.07 210.86 240.32C209.65 241.36 208.61 242.92 207.57 244.65C207.57 239.8 207.92 234.78 208.09 229.94C208.44 230.11 208.96 230.29 209.47 230.29C215.01 231.16 220.72 230.12 226.43 229.6C237.16 228.56 248.07 229.6 258.8 230.47C262.26 230.64 265.9 230.99 269.36 230.3C270.74 229.95 272.3 229.43 273.69 229.09C275.94 228.74 278.19 229.09 280.27 228.74C282.69 228.39 284.94 227.53 286.85 226.14H287.02C289.1 227.01 291 228.04 293.08 229.08C293.95 231.33 294.81 233.58 295.5 236C295.67 236.87 295.85 237.56 296.02 238.42V238.41Z" fill="#E6990A"/>
<path d="M249.38 245.07L249.29 244.86L249.19 245.07C243.04 260.21 224.83 268.53 224.83 284.79C224.83 298.4 240.43 303.66 248.04 292.27C248.2 291.69 248.02 295.89 247.51 298.25C246 304.02 241.26 311.97 237.86 316.34C237.57 316.71 237.9 317.25 238.31 317.08C243.83 314.7 254.75 314.7 260.27 317.08C260.67 317.25 261 316.71 260.72 316.34C257.39 312.04 252.83 304.3 251.07 298.24C250.63 296.21 250.37 294.16 250.25 292.1C257.67 304.45 273.75 298.67 273.75 284.78C273.75 268.51 255.54 260.2 249.39 245.06L249.38 245.07Z" fill="black"/>
<path d="M359.03 280.3C358.86 281.34 358.68 282.2 358.51 283.24C357.99 285.14 357.3 286.87 356.26 288.26C354.53 290.34 351.76 291.38 349.16 291.55C346.56 291.9 343.97 291.55 341.37 290.86C339.98 290.69 338.6 290.169 337.56 289.649C336 288.779 334.79 287.4 334.44 285.5C334.27 284.81 334.44 283.94 334.61 283.25V283.08C335.48 281 337.38 279.269 339.63 281.179C340.32 281.699 340.67 282.389 341.19 282.909C342.06 283.949 343.44 284.469 344.83 284.469C347.08 284.299 348.81 282.74 350.2 280.83C351.59 279.1 352.62 277.37 354.35 275.81V275.639C354.87 275.119 355.56 274.77 356.25 274.6C357.46 274.6 358.5 275.469 358.85 276.679C359.37 277.889 359.2 279.1 359.02 280.31L359.03 280.3Z" fill="#E1C4DE"/>
<path d="M361.62 301.94C357.99 304.71 353.49 306.27 348.98 306.27C344.83 306.44 340.5 305.23 336.86 303.15C337.38 302.11 337.73 300.9 337.9 299.86C338.59 296.57 338.42 292.94 337.55 289.65C338.59 290.17 339.97 290.69 341.36 290.86C343.96 291.55 346.55 291.9 349.15 291.55C351.75 291.38 354.52 290.34 356.25 288.26C357.29 286.87 357.98 285.14 358.5 283.24C360.4 289.3 361.44 295.7 361.62 301.93V301.94Z" fill="#FD3E38"/>
<path d="M361.62 301.94C361.97 304.54 361.79 307.31 361.62 309.9C361.62 310.59 361.45 311.11 361.27 311.8V311.97C352.44 315.26 342.23 315.09 333.4 311.28C334.79 308.68 336.17 305.91 336.86 303.14C340.5 305.22 344.82 306.43 348.98 306.26C353.48 306.26 357.98 304.7 361.62 301.93V301.94Z" fill="#E6990A"/>
<path d="M361.28 311.98C360.93 316.48 359.89 320.81 358.34 324.96H329.26C329.43 323.23 329.78 321.5 330.13 319.94C330.82 317 332.21 314.05 333.42 311.29C342.25 315.1 352.46 315.27 361.29 311.98H361.28Z" fill="#FD3E38"/>
<path d="M164.99 212.8C162.05 214.88 159.11 217.13 156.16 219.2C154.08 220.76 152.01 222.32 149.58 223.35C146.64 224.39 143.35 224.56 141.45 226.99C140.06 228.89 140.06 231.32 139.2 233.39C137.99 236.16 135.56 237.89 132.97 239.27C129.85 241.17 126.57 242.73 123.1 243.94C121.37 244.63 119.64 245.15 118.25 246.36C116.87 247.57 116.17 249.82 117.04 251.38C118.25 253.28 121.54 254.15 121.37 256.4C121.37 257.27 120.68 257.96 120.16 258.82C116.35 263.67 117.04 270.59 117.04 276.82C117.04 277.34 116.87 277.69 116.69 278.2C116.34 278.89 115.3 279.07 114.61 279.41C111.49 280.45 110.46 284.26 109.94 287.37C109.77 288.58 109.59 289.97 110.11 290.83C110.63 291.52 111.32 291.87 112.01 292.21C113.05 292.56 113.91 292.73 115.13 292.56C116.86 292.73 118.59 292.56 120.15 292.39C127.59 291 135.04 288.93 141.96 285.81C150.96 272.48 157.88 257.42 163.25 242.19C167.4 230.07 170.69 217.78 173.98 205.49C171.21 208.09 168.09 210.51 164.98 212.76L164.99 212.8ZM125.18 274.25C124.83 273.38 124.66 272.52 124.49 271.65C124.32 270.61 124.32 270.09 124.14 270.44C122.06 270.44 119.47 269.23 119.64 266.98C120.85 268.54 122.41 269.06 123.97 268.71C126.05 268.71 125.87 270.96 125.7 271.48C125.7 272.52 125.53 273.38 125.18 274.25ZM123.97 257.63C122.59 256.94 121.55 256.25 121.37 254.86C123.97 255.9 124.83 256.76 127.26 255.73C127.09 257.12 125.36 257.81 123.97 257.63ZM149.07 252.09C148.38 252.61 147.51 252.61 146.82 252.61C145.61 252.61 143.7 252.78 142.49 252.61C142.14 252.61 141.97 252.44 141.8 252.44C140.24 251.57 140.59 250.88 140.76 249.15C140.93 247.42 141.11 245.69 141.8 244.13C142.67 241.53 144.4 239.46 146.3 237.55C146.47 237.38 146.65 237.03 146.99 237.03C147.34 236.86 147.86 237.2 148.03 237.55C148.38 237.9 148.38 238.24 148.55 238.76C149.24 242.22 149.59 245.86 149.76 249.32C149.93 250.36 149.76 251.57 149.07 252.09ZM158.07 237.72C157.72 234.78 158.59 231.32 155.65 230.28C154.61 229.41 153.05 229.07 151.67 228.38C150.29 227.86 149.07 227 147.69 226.3C149.25 226.47 150.63 226.82 152.19 227.17C153.58 227.86 155.13 227.86 156.52 228.9C158.08 229.77 158.94 231.5 159.12 233.23C159.12 234.79 158.6 236.35 158.08 237.73L158.07 237.72Z" fill="#FEDD00"/>
<path d="M141.97 285.84C138.34 291.38 134.35 296.4 130.03 301.25C129.16 302.29 128.3 303.33 127.26 304.37C123.62 308.01 119.99 311.47 116.7 315.1C116.01 307.48 113.93 299.87 115.14 292.6C116.87 292.77 118.6 292.6 120.16 292.43C127.6 291.04 135.05 288.97 141.97 285.85V285.84Z" fill="#E9BE00"/>
<path d="M149.76 249.32C149.93 250.36 149.76 251.57 149.07 252.09C148.38 252.61 147.51 252.61 146.82 252.61C145.61 252.61 143.7 252.78 142.49 252.61C142.14 252.61 141.97 252.439 141.8 252.439C140.24 251.569 140.59 250.879 140.76 249.149C140.93 247.419 141.11 245.689 141.8 244.129C142.67 241.529 144.4 239.46 146.3 237.55C146.47 237.38 146.65 237.03 146.99 237.03C147.34 236.86 147.86 237.2 148.03 237.55C148.38 237.9 148.38 238.24 148.55 238.76C149.24 242.22 149.59 245.86 149.76 249.32Z" fill="#E9BE00"/>
<path d="M127.26 255.719C127.09 257.109 125.36 257.8 123.97 257.62C122.59 256.93 121.55 256.24 121.37 254.85C123.97 255.89 124.83 256.749 127.26 255.719Z" fill="#E9BE00"/>
<path d="M125.7 271.47C125.7 272.51 125.53 273.37 125.18 274.24C124.83 273.37 124.66 272.51 124.49 271.64C124.32 270.6 124.32 270.08 124.14 270.43C122.06 270.43 119.47 269.22 119.64 266.97C120.85 268.53 122.41 269.05 123.97 268.7C126.05 268.7 125.87 270.95 125.7 271.47Z" fill="#E9BE00"/>
<path d="M159.11 233.22C159.11 234.78 158.59 236.34 158.07 237.72C157.72 234.78 158.59 231.32 155.65 230.28C154.61 229.41 153.05 229.07 151.67 228.38C150.29 227.86 149.07 227 147.69 226.3C149.25 226.47 150.63 226.82 152.19 227.17C153.58 227.86 155.13 227.86 156.52 228.9C158.08 229.77 158.94 231.5 159.12 233.23L159.11 233.22Z" fill="#E9BE00"/>
<path d="M355.22 249.84C355.22 258.49 354.87 266.98 354.35 275.63V275.8C352.62 277.36 351.58 279.09 350.2 280.82C348.81 282.72 347.08 284.28 344.83 284.46C343.44 284.46 342.06 283.94 341.19 282.9C340.67 282.38 340.32 281.69 339.63 281.17C339.63 277.88 338.42 274.59 337.03 271.48C336.34 269.75 335.47 268.19 334.61 266.46C333.57 264.38 332.53 262.13 332.01 259.88C331.49 258.15 331.14 256.25 330.45 254.69V254.52C330.28 254 330.1 253.65 329.93 253.31C329.24 252.1 328.37 250.54 329.41 249.85C329.93 249.33 330.62 249.5 331.31 249.68C331.424 249.68 331.54 249.737 331.66 249.85C333.22 250.37 334.78 251.41 335.99 252.62C334.95 250.72 333.74 249.16 332.18 247.77C331.83 247.42 331.49 247.08 331.14 246.73C329.75 245.69 328.37 244.83 327.33 243.44C326.46 242.06 325.95 239.98 326.98 238.59C328.37 236.69 331.65 237.2 333.56 238.76C333.73 238.93 334.08 239.11 334.25 239.28C335.98 240.67 337.54 242.4 339.62 243.09C340.31 241.36 338.41 239.97 336.85 239.11C336.16 238.76 335.29 238.24 334.6 237.73C333.73 237.38 333.04 237.04 332.35 236.52C330.79 235.65 329.06 234.44 329.23 232.71C329.23 231.15 330.79 230.29 332.17 230.11C333.55 229.94 334.77 230.46 335.98 230.98H336.15C338.23 231.85 340.48 232.71 342.55 233.58C343.07 230.12 341.86 226.66 339.61 224.06C337.36 221.46 334.07 219.91 330.61 219.91C329.74 219.91 328.71 219.91 327.84 219.74H327.67C327.15 219.57 326.46 219.39 326.11 218.87C325.07 217.31 326.28 215.24 328.01 214.72C328.7 214.55 329.22 214.37 329.91 214.37C330.95 214.54 332.16 214.89 333.2 215.24C337.7 216.8 342.37 218.87 345.14 222.85C346.35 224.58 347.22 226.31 347.91 228.39V228.56C348.6 230.46 349.29 232.37 350.16 234.1C351.37 236.52 353.1 238.77 354.14 241.37C355.01 244.14 355.18 246.91 355.18 249.85L355.22 249.84Z" fill="#F7AAB7"/>
<path d="M336 252.61C334.79 251.4 333.23 250.36 331.67 249.84C331.84 249.15 332.02 248.45 332.19 247.76C333.75 249.15 334.96 250.7 336 252.61Z" fill="#5DAF86"/>
<path d="M334.62 266.45C334.62 267.49 334.62 268.35 334.45 269.22C333.76 273.89 329.26 275.28 328.22 270.09C327.35 264.9 329.09 259.53 330.47 254.68C331.16 256.24 331.51 258.14 332.03 259.87C332.55 262.12 333.59 264.37 334.63 266.45H334.62Z" fill="#5DAF86"/>
<path d="M339.64 243.09C337.56 242.4 336 240.67 334.27 239.28C334.44 238.76 334.44 238.24 334.62 237.72C335.31 238.24 336.18 238.76 336.87 239.1C338.43 239.97 340.33 241.35 339.64 243.08V243.09Z" fill="#5DAF86"/>
<path d="M342.58 233.57C340.5 232.7 338.25 231.84 336.18 230.97H336.01C336.01 230.45 336.01 229.76 335.66 229.41C335.14 228.37 333.76 228.37 332.72 228.37C328.39 228.2 324.24 228.54 319.91 229.24C316.27 229.93 312.12 230.8 309.35 228.55C308.66 228.03 308.14 227.16 307.96 226.3C307.96 225.26 309 224.22 310.04 223.7C314.02 221.62 319.04 222.31 323.37 221.45C324.93 221.1 326.31 220.58 327.7 219.72H327.87C328.74 219.89 329.77 219.89 330.64 219.89C334.1 219.89 337.39 221.45 339.64 224.04C341.89 226.64 343.1 230.1 342.58 233.56V233.57Z" fill="#5DAF86"/>
<path d="M356.78 212.97C356.09 216.6 351.41 222.49 347.95 228.37C347.26 226.29 346.39 224.56 345.18 222.83C342.41 218.85 337.74 216.77 333.24 215.22C332.2 214.87 330.99 214.53 329.95 214.35C328.22 212.62 325.45 211.75 323.03 211.41C314.2 210.2 305.37 213.49 296.55 215.74C295.34 216.09 294.13 216.26 292.91 216.09C291.7 215.74 290.66 214.88 290.49 213.67C290.32 212.11 291.88 210.9 293.26 210.55C294.82 210.03 296.55 210.2 297.93 209.86C301.39 208.99 305.2 206.23 305.2 206.23C305.2 206.23 309.87 203.11 312.12 202.59C317.14 201.72 319.91 205.19 324.93 203.63C325.8 202.94 325.97 201.55 325.28 200.34C325.63 200.34 325.8 200.34 326.15 200.17C327.19 199.65 328.23 198.96 329.09 198.27C331.17 198.27 332.73 196.54 334.11 194.98C336.88 192.04 339.65 189.1 343.11 187.02C346.4 184.77 354.71 178.37 354.53 184.08C354.18 189.62 338.43 200.35 336.53 211.26C340.51 210.39 343.28 206.76 345.7 203.64C348.3 200.52 354.35 193.26 355.91 197.93C357.47 202.6 354.52 204.51 352.45 207.1C349.51 210.56 344.83 213.16 343.97 217.66V218.7C344.14 219.05 344.66 219.22 345.18 219.39C349.68 220.43 357.99 207.79 356.78 212.99V212.97Z" fill="#5DAF86"/>
<path d="M337.56 180.95C337.39 181.99 337.21 183.03 336.87 184.07C335.66 186.67 333.41 188.57 331.5 190.65C329.6 192.73 328.21 195.67 329.08 198.27C328.21 198.96 327.18 199.66 326.14 200.17C325.79 200.34 325.62 200.34 325.27 200.34C325.27 199.65 324.75 198.96 324.23 198.61C322.85 197.4 320.94 197.05 319.04 196.88C316.27 196.53 313.5 196.19 310.73 196.19C308.48 196.36 306.23 196.54 303.98 196.02C301.9 195.5 299.83 193.77 299.65 191.52C299.48 189.27 302.25 187.19 303.98 188.4C303.46 187.19 302.94 185.98 303.29 184.59C303.64 183.55 304.85 182.51 305.89 183.03C306.06 182.86 306.06 183.03 306.06 183.03H306.23C305.36 181.47 304.5 179.57 305.02 177.66C305.37 175.76 307.27 174.2 309.17 174.54C308.13 172.46 309 169.69 310.9 168.31C312.98 166.92 315.75 167.1 317.48 168.83C318.69 167.79 319.9 166.58 321.63 166.41C323.19 166.24 324.92 167.28 324.92 168.83C326.31 168.31 327.86 167.79 329.42 167.96C330.46 168.13 331.32 169 331.84 169.86C331.953 169.973 331.953 170.09 331.84 170.21C331.953 170.323 331.953 170.44 331.84 170.56C332.01 170.73 332.01 170.91 332.01 171.08C334.09 170.21 336.68 171.95 337.55 174.02C338.42 176.27 338.07 178.69 337.55 180.94L337.56 180.95Z" fill="#FF3C5B"/>
<path d="M309.18 174.54C309.79 175.08 310.17 175.65 310.73 175.93L310.78 175.97C312.8 178.19 314.13 180.73 315.76 183.54C315.92 180.32 314.31 176.96 311.43 175.22C310.72 174.81 309.84 174.69 309.18 174.54Z" fill="#915E56"/>
<path d="M311.39 175.189C311.39 175.189 311.41 175.219 311.42 175.229L311.38 175.189H311.39Z" fill="#915E56"/>
<path d="M320.34 173.25C320.34 173.25 320.34 173.28 320.35 173.29L320.33 173.25H320.34Z" fill="#915E56"/>
<path d="M317.48 168.83C317.83 170.6 318.47 172.15 319.1 173.71L319.12 173.76C320.12 177.18 321.28 180.39 321.8 184.06C322.66 180.5 322.13 176.51 320.34 173.29C319.48 171.73 318.62 170.17 317.47 168.83H317.48Z" fill="#915E56"/>
<path d="M324.93 168.83C323.2 173.09 322.6 177.07 323.03 181.64C324.72 177.67 325.39 173.11 324.93 168.83Z" fill="#915E56"/>
<path d="M331.85 170.561C330.55 175.361 329.25 179.641 327 184.061C331.06 180.991 332.8 175.451 331.85 170.561Z" fill="#915E56"/>
<path d="M306.06 183.02C307.76 186.31 307.67 189.569 308.83 193.229C309.57 191.409 309.36 189.569 309.29 187.649C308.66 185.889 307.93 183.82 306.06 183.02Z" fill="#915E56"/>
<path d="M306.58 194.62C307.33 192.21 306.31 189.53 303.98 188.39C304.49 190.83 305.13 192.55 306.58 194.62Z" fill="#915E56"/>
<path d="M261.59 125.17C258.89 126.74 257.95 129.93 257.59 132.66C256.81 138.24 257.05 144.11 259.45 149.44L259.42 149.36C260.09 151.39 260.61 153.58 260.63 155.69C260.77 157.9 259.49 159.67 257.24 159.12L257.36 159.16C256 158.5 254.59 158.04 253.13 157.71C251.75 157.47 249.95 157.05 248.87 158.22C250.05 157.22 251.68 157.84 252.98 158.22C254.34 158.7 255.65 159.35 256.93 159.99L256.99 160.02H257.05C258.19 160.24 259.67 160.23 260.64 159.19C261.57 158.18 261.76 156.88 261.84 155.72C261.92 153.35 261.47 151.11 260.84 148.88L260.81 148.79C259.03 143.8 258.25 138.22 258.85 132.8C259.1 130.14 259.84 127.37 262.08 125.93C264.27 124.52 267.28 124.57 269.91 125.35C267.41 124.31 264.3 123.65 261.6 125.15L261.59 125.17Z" fill="black"/>
<path d="M230.12 134.11C230.12 134.11 240.17 125.5 246.82 135.37C238.4 144.4 231.75 138.52 230.12 134.11Z" fill="#CCCCCC"/>
<path d="M244.7 123.95C243.19 122.7 241.22 122.24 239.38 122.16C235.71 122.5 232.16 123.34 229.17 125.37C232.65 124.73 235.99 123.61 239.36 123.89C242.83 123.44 245.7 125.4 246.81 128.9C246.84 127.14 246.28 125.16 244.69 123.95H244.7Z" fill="black"/>
<path d="M240.55 131.72C238.6 131.72 237.02 133.3 237.02 135.25C237.02 137.2 238.6 138.78 240.55 138.78C242.5 138.78 244.08 137.2 244.08 135.25C244.08 133.3 242.5 131.72 240.55 131.72Z" fill="black"/>
<path d="M271.79 135.42V140.79C271.79 140.79 261.69 145.75 259.44 135.36C259.44 135.36 268.16 129.36 271.79 135.42Z" fill="#CCCCCC"/>
<path d="M268.26 133.27C266.31 133.27 264.73 134.85 264.73 136.8C264.73 138.75 266.31 140.33 268.26 140.33C270.21 140.33 271.79 138.75 271.79 136.8C271.79 134.85 270.21 133.27 268.26 133.27Z" fill="black"/>
<path d="M244.91 166.8C244.91 166.8 248.17 167.61 252.38 166.8C254.96 166.26 255.5 166.98 255.5 166.98C255.5 166.98 256.31 167.23 257.81 166.88C259.3 166.53 261.07 167.91 261.07 167.91C261.07 167.91 261.88 168.43 262.83 168.57C262.42 169.52 252.92 172.51 244.91 166.81V166.8Z" fill="#FF3142"/>
<path d="M249.66 170.2C249.66 170.2 254.82 171.46 259.43 170.35C257.8 173.18 253.32 175.09 249.66 170.2Z" fill="#FF3142"/>
<path d="M267.63 209.679C246.69 223.179 219.86 216.599 210.51 213.659C210.68 213.489 210.86 213.49 211.03 213.31C212.76 212.1 212.59 209.679 213.45 207.939C221.76 212.089 241.66 219.539 261.22 205.689C262.09 206.209 262.78 206.9 263.82 207.59C265.03 208.28 266.42 209.149 267.63 209.669V209.679Z" fill="#FF3142"/>
<path d="M214.62 565.72C251.49 555.16 261.18 538.03 262.22 535.95L262.39 535.78L264.64 537.51L276.58 545.99C276.06 546.68 275.37 547.55 275.2 548.59C270.7 548.42 265.85 549.46 261.87 552.23C257.02 555.35 253.56 560.02 252.18 565.04C250.45 564.17 248.2 564.17 246.47 565.39C244.74 566.26 243.87 568.16 243.87 570.06C238.68 569.54 233.48 570.58 228.64 573.7C224.49 576.3 221.37 580.1 219.64 584.6C218.6 584.25 217.56 584.25 216.7 584.6L214.62 565.73V565.72Z" fill="#BCA827"/>
<path d="M275.82 552.709C275.72 552.489 275.46 552.2 275.43 551.81C275.1 550.75 274.78 549.69 275.22 548.56C275.44 547.53 275.98 546.629 276.62 545.949C276.91 545.689 277.2 545.429 277.49 545.179C279.99 543.559 283.4 544.35 285.02 546.85C285.83 548.1 286.12 549.709 285.71 551.219C285.42 552.409 284.59 553.569 283.34 554.379C280.84 555.999 277.43 555.209 275.81 552.709H275.82Z" fill="#C9CA54"/>
<path d="M244.79 572.83C244.53 572.54 244.27 572.25 244.24 571.87C244.11 571.26 243.91 570.81 243.85 570.04C243.85 568.18 244.77 566.31 246.47 565.3C248.23 564.14 250.48 564.09 252.13 565.12C252.61 565.31 253.03 565.66 253.45 566.01C253.55 566.23 253.81 566.52 254.06 566.81C255.26 568.96 255.01 571.47 253.54 573.3C253.19 573.72 252.84 574.14 252.39 574.33C251.94 574.53 251.65 574.78 251.2 574.98C248.86 575.73 246.15 575.03 244.79 572.82V572.83Z" fill="#C9CA54"/>
<path d="M213.83 592.79C212.21 590.29 212.84 586.82 215.34 585.2C215.79 585.01 216.24 584.81 216.69 584.62C217.59 584.23 218.68 584.29 219.71 584.51C220.74 584.73 221.64 585.27 222.26 586.07C222.58 586.2 222.84 586.49 222.87 586.87C224.49 589.37 223.86 592.85 221.36 594.46C220.17 595.11 219.18 595.27 217.92 595.15C216.28 595.06 214.73 594.26 213.83 592.79Z" fill="#C9CA54"/>
<path d="M179.83 480.05C180.52 471.91 181.22 463.78 181.91 455.64C182.08 452.18 182.6 448.2 185.2 445.95C186.58 444.74 188.49 444.22 190.22 443.7C192.12 443.18 194.03 442.66 196.1 442.31C197.66 441.96 199.22 441.79 200.77 441.96C201.46 441.96 202.16 442.13 202.85 442.31C203.89 443 204.58 443.7 205.45 444.21H205.62C209.08 446.46 212.54 448.54 216 450.79C217.21 451.48 218.42 452.35 219.64 453.39V453.56C221.02 454.77 222.24 456.16 222.58 458.06C222.23 458.23 221.89 458.23 221.54 458.23C219.12 458.75 216.35 458.58 214.1 459.79C212.54 460.66 211.16 462.21 210.12 463.6C203.02 472.6 197.66 482.99 195.75 494.06C195.06 499.08 194.88 504.1 194.88 509.12V530.24C194.88 533.88 195.57 538.38 198.86 539.59C200.42 540.11 202.32 539.76 203.88 539.59C208.9 539.42 214.09 541.84 218.94 540.28C221.19 539.59 223.09 538.03 225 536.82C229.5 534.05 234.52 532.15 239.71 531.28C241.27 531.11 242.83 530.93 244.04 529.9C245.43 528.69 245.43 526.61 245.43 524.71V509.65C245.43 508.96 245.43 508.09 245.08 507.4C244.73 506.71 244.04 506.36 243.52 505.67C242.48 504.28 242.48 502.21 242.48 500.3C242.83 494.24 243 488.36 243.35 482.3C243.52 478.84 243.7 475.55 244.73 472.26C245.77 468.8 248.02 465.51 248.71 461.87C249.23 458.93 248.71 455.99 248.54 453.04C248.37 450.1 248.89 446.81 250.96 444.56C251.48 444.04 252.34 443.52 252.86 442.66C253.03 442.49 253.03 442.14 253.21 441.97C254.08 440.24 253.9 437.82 255.63 436.6C255.8 436.43 255.98 436.43 256.15 436.25C256.67 435.9 257.36 435.73 257.88 435.38C258.4 435.03 258.75 434.51 259.09 433.99C260.82 435.2 262.03 436.76 262.9 438.49C264.28 441.78 264.11 445.59 263.77 449.22C263.42 453.2 263.08 457.18 262.73 461.16C262.56 464.97 262.21 468.78 262.9 472.41C263.25 475.35 264.28 478.12 264.8 480.89C265.67 485.22 265.15 489.54 266.01 493.87C266.7 498.2 268.43 502.18 269.13 506.51C270.86 516.55 266.71 526.59 262.38 535.76L262.21 535.93C261.17 538.01 251.48 555.14 214.61 565.7C211.49 566.22 208.03 565.53 205.09 563.97C200.94 561.89 197.65 558.26 194.88 554.62C192.98 551.85 191.07 549.08 190.03 545.97C187.95 540.26 188.47 534.03 187.61 527.97C186.4 517.93 181.21 508.58 179.82 498.54C178.78 492.48 179.3 486.25 179.82 480.02L179.83 480.05Z" fill="black"/>
<path d="M253.22 441.97C253.05 442.14 253.05 442.49 252.87 442.66C252.35 443.53 251.48 444.05 250.97 444.56C248.89 446.81 248.37 450.1 248.55 453.04C248.72 455.98 249.24 458.92 248.72 461.87C248.03 465.51 245.78 468.79 244.74 472.26C243.7 475.55 243.53 478.84 243.36 482.3C243.01 488.36 242.84 494.24 242.49 500.3C242.49 502.2 242.49 504.28 243.53 505.67C244.05 506.36 244.74 506.71 245.09 507.4C245.44 508.09 245.44 508.96 245.44 509.65V524.71C245.44 526.61 245.44 528.69 244.05 529.9C242.84 530.94 241.28 531.11 239.72 531.28C234.53 532.15 229.51 534.05 225.01 536.82C223.11 538.03 221.2 539.59 218.95 540.28C214.1 541.84 208.91 539.41 203.89 539.59C202.33 539.76 200.43 540.11 198.87 539.59C195.58 538.38 194.89 533.88 194.89 530.24V514.49C198.52 520.55 207.18 514.49 207.18 514.49C204.93 504.1 194.89 509.12 194.89 509.12C194.89 504.1 195.06 499.08 195.76 494.06C197.66 482.98 203.03 472.6 210.13 463.6C211.17 462.21 212.55 460.66 214.11 459.79C216.36 458.58 219.13 458.75 221.55 458.23C221.9 458.23 222.24 458.23 222.59 458.06C222.24 456.16 221.03 454.77 219.65 453.56V453.39C218.44 452.35 217.23 451.49 216.01 450.79C212.55 448.54 209.09 446.46 205.63 444.21H205.46C225.02 430.36 244.92 437.81 253.23 441.96L253.22 441.97Z" fill="#FFAAA9"/>
<path d="M178.96 424.31C179.13 424.14 179.31 423.96 179.65 423.79H179.82C181.72 422.41 183.98 421.54 186.4 421.19C188.48 420.84 190.73 421.19 192.98 420.84C194.37 420.49 195.92 419.97 197.31 419.63C200.77 418.94 204.41 419.28 207.87 419.46C218.6 420.33 229.51 421.36 240.24 420.33C245.95 419.81 251.66 418.77 257.2 419.64C257.72 419.64 258.24 419.81 258.59 419.99C258.76 419.99 258.76 420.16 258.94 420.16C259.46 420.85 259.46 421.72 259.46 422.41C259.63 424.83 259.63 427.26 259.63 429.68C259.63 431.07 259.63 432.8 259.11 434.01C258.76 434.53 258.42 435.05 257.9 435.4C257.38 435.75 256.69 435.92 256.17 436.27C246.82 433.33 219.99 426.75 199.05 440.25C198.53 439.9 198.18 439.56 197.66 439.38C195.76 438.34 193.85 437.3 192.12 436.09C190.22 434.88 188.66 433.32 187.1 431.94C184.33 429.34 181.73 426.75 178.96 424.32V424.31Z" fill="#FFAAA9"/>
<path d="M237.12 324.959H358.28C357.24 326.689 356.03 328.079 354.82 329.629C354.13 330.499 353.43 331.36 352.57 332.05H349.8C346.86 332.05 343.74 332.4 340.8 332.57C338.9 332.74 336.82 333.09 334.91 333.26C327.47 334.3 320.2 335.86 312.93 337.76C308.26 338.97 303.58 340.359 299.08 341.909C296.48 342.779 294.06 343.64 291.64 344.51C286.27 346.41 280.91 348.49 276.06 351.26C267.92 355.76 261.17 362.159 254.77 368.909C254.42 367.179 253.9 365.62 253.38 364.06C249.23 350.56 244.21 337.229 237.11 324.939L237.12 324.959Z" fill="#6BC2F5"/>
<path d="M254.77 368.92C261.17 362.17 267.92 355.771 276.06 351.271C280.91 348.501 286.27 346.421 291.64 344.521C294.06 343.651 296.49 342.79 299.08 341.92C303.58 340.36 308.25 338.981 312.93 337.771C320.2 335.871 327.47 334.311 334.91 333.271C336.81 333.101 338.89 332.751 340.8 332.581C343.74 332.411 346.86 332.061 349.8 332.061H352.57C351.7 333.101 350.84 333.961 349.97 334.831C346.68 338.461 343.05 341.931 339.41 345.561C338.37 346.601 337.51 347.64 336.64 348.68C330.41 349.03 324.18 349.891 318.29 351.801C312.58 353.531 307.21 356.301 302.02 359.591C286.44 369.111 273.63 382.781 263.25 398.021C261.87 399.921 260.48 402.871 259.1 405.291C259.1 397.151 258.75 389.19 257.54 381.23C256.85 377.08 255.81 372.92 254.77 368.94V368.92Z" fill="#0064B1"/>
<path d="M258.58 419.98C258.75 415.13 259.1 410.11 259.1 405.27C260.48 402.85 261.87 399.9 263.25 398C273.64 382.77 286.44 369.09 302.02 359.57C307.21 356.28 312.58 353.51 318.29 351.78C324.18 349.88 330.41 349.01 336.64 348.66C332.31 353.51 328.33 358.53 324.7 364.07C315.7 377.4 308.77 392.46 303.41 407.69C299.26 419.81 295.97 432.1 292.68 444.39C290.08 455.47 287.49 466.72 284.72 477.8C281.43 491.65 277.62 505.32 273.47 519C271.39 525.4 269.32 532.5 264.64 537.52L262.39 535.79C266.72 526.62 270.87 516.58 269.14 506.54C268.45 502.21 266.72 498.23 266.02 493.9C265.15 489.57 265.67 485.25 264.81 480.92C264.29 478.15 263.25 475.38 262.91 472.44C262.22 468.8 262.56 465 262.74 461.19C263.09 457.21 263.43 453.23 263.78 449.25C264.13 445.61 264.3 441.81 262.91 438.52C262.04 436.79 260.83 435.23 259.1 434.02C259.62 432.81 259.62 431.08 259.62 429.69C259.62 427.27 259.62 424.84 259.45 422.42C259.45 421.73 259.45 420.86 258.93 420.17C258.76 420.17 258.76 420 258.58 420V419.98Z" fill="#6BC2F5"/>
<path d="M173.25 387.96C176.19 379.65 180.69 372.03 185.02 364.42C187.1 360.79 189 356.98 190.73 353C194.54 344.17 196.44 334.65 197.65 324.96H237.11C244.21 337.25 249.23 350.58 253.38 364.08C253.9 365.64 254.42 367.2 254.77 368.93C255.81 372.91 256.85 377.07 257.54 381.22C258.75 389.18 259.1 397.14 259.1 405.28C258.06 407.01 257.02 408.57 255.81 409.61C252.87 411.86 247.33 409.96 243.69 409.61C232.79 408.4 221.88 407.88 210.98 407.19C197.31 406.5 183.11 406.15 170.65 411.52C169.26 403.73 170.65 395.6 173.25 387.98V387.96Z" fill="#FEDD00"/>
<path d="M128.77 350.06C128.94 349.02 129.29 347.81 129.81 346.77C130.5 344 131.89 341.23 133.27 338.63C134.48 335.86 135.87 332.92 136.56 329.98C136.91 328.42 137.25 326.69 137.43 324.96H180.88C172.57 335.52 164.61 346.25 156.82 357.15C150.76 365.8 144.36 375.67 145.92 386.23C145.57 385.54 145.23 384.85 144.88 384.15C141.24 377.92 135.71 372.9 132.07 366.84V366.67C132.24 365.98 132.42 365.11 132.24 364.42C131.89 362.52 130.68 361.13 129.12 360.27C128.25 356.98 128.08 353.35 128.77 350.06Z" fill="#0064B1"/>
<path d="M145.9 386.23C144.34 375.67 150.75 365.81 156.8 357.15C164.59 346.25 172.55 335.51 180.86 324.96H197.65C196.44 334.65 194.53 344.17 190.73 353C189 356.98 187.1 360.79 185.02 364.42C180.69 372.04 176.19 379.65 173.25 387.96C170.65 395.58 169.27 403.71 170.65 411.5C170.82 412.37 171 413.06 171.17 413.92C171.86 416.34 172.73 418.59 173.59 420.84C171.51 419.97 169.44 418.94 167.36 417.9C164.24 416.51 160.96 414.78 158.36 412.53C151.09 405.95 150.23 395.05 145.9 386.22V386.23Z" fill="#6BC2F5"/>
<path d="M170.65 411.5C183.11 406.13 197.31 406.48 210.98 407.17C221.88 407.86 232.79 408.38 243.69 409.59C247.33 409.94 252.86 411.84 255.81 409.59C257.02 408.55 258.06 406.99 259.1 405.26C259.1 410.11 258.75 415.13 258.58 419.97C258.23 419.8 257.71 419.62 257.19 419.62C251.65 418.75 245.94 419.79 240.23 420.31C229.5 421.35 218.59 420.31 207.86 419.44C204.4 419.27 200.76 418.92 197.3 419.61C195.92 419.96 194.36 420.48 192.97 420.82C190.72 421.17 188.47 420.82 186.39 421.17C183.97 421.52 181.72 422.38 179.81 423.77H179.64C177.56 422.9 175.66 421.87 173.58 420.83C172.71 418.58 171.85 416.33 171.16 413.91C170.99 413.04 170.81 412.35 170.64 411.49L170.65 411.5Z" fill="#E6990A"/>
<path d="M217.29 404.84L217.38 405.05L217.48 404.84C223.63 389.7 241.84 381.38 241.84 365.12C241.84 351.51 226.24 346.25 218.63 357.64C218.47 358.22 218.65 354.02 219.16 351.66C220.67 345.89 225.41 337.94 228.81 333.57C229.1 333.2 228.77 332.66 228.36 332.83C222.84 335.21 211.92 335.21 206.4 332.83C206 332.66 205.67 333.2 205.95 333.57C209.28 337.87 213.84 345.61 215.6 351.67C216.04 353.7 216.3 355.75 216.42 357.81C209 345.46 192.92 351.24 192.92 365.13C192.92 381.4 211.13 389.71 217.28 404.85L217.29 404.84Z" fill="black"/>
<path d="M107.65 369.61C107.82 368.57 108 367.71 108.17 366.67C108.69 364.77 109.38 363.04 110.42 361.65C112.15 359.57 114.92 358.53 117.52 358.36C120.12 358.01 122.71 358.36 125.31 359.05C126.7 359.22 128.08 359.74 129.12 360.26C130.68 361.13 131.89 362.51 132.24 364.41C132.41 365.1 132.24 365.97 132.07 366.66V366.83C131.2 368.91 129.3 370.64 127.05 368.73C126.36 368.21 126.01 367.52 125.49 367C124.62 365.96 123.24 365.44 121.85 365.44C119.6 365.61 117.87 367.17 116.48 369.08C115.09 370.81 114.06 372.54 112.33 374.1V374.27C111.81 374.79 111.12 375.14 110.43 375.31C109.22 375.31 108.18 374.44 107.83 373.23C107.31 372.02 107.48 370.81 107.66 369.6L107.65 369.61Z" fill="#E1C4DE"/>
<path d="M105.05 347.98C108.68 345.21 113.18 343.65 117.69 343.65C121.84 343.48 126.17 344.69 129.81 346.77C129.29 347.81 128.94 349.02 128.77 350.06C128.08 353.35 128.25 356.98 129.12 360.27C128.08 359.75 126.7 359.23 125.31 359.06C122.71 358.37 120.12 358.02 117.52 358.37C114.92 358.54 112.15 359.58 110.42 361.66C109.38 363.04 108.69 364.78 108.17 366.68C106.27 360.62 105.23 354.22 105.05 347.99V347.98Z" fill="#FD3E38"/>
<path d="M105.05 347.98C104.7 345.38 104.88 342.61 105.05 340.02C105.05 339.33 105.22 338.811 105.4 338.121V337.95C114.23 334.66 124.44 334.83 133.27 338.64C131.88 341.24 130.5 344.01 129.81 346.78C126.17 344.7 121.85 343.49 117.69 343.66C113.19 343.66 108.69 345.22 105.05 347.99V347.98Z" fill="#E6990A"/>
<path d="M105.4 337.94C105.75 333.44 106.78 329.11 108.34 324.96H137.42C137.25 326.69 136.9 328.42 136.55 329.98C135.86 332.92 134.47 335.87 133.26 338.63C124.43 334.82 114.22 334.65 105.39 337.94H105.4Z" fill="#FD3E38"/>
<path d="M301.68 437.12C304.62 435.04 307.56 432.79 310.51 430.72C312.59 429.16 314.66 427.6 317.09 426.57C320.03 425.53 323.32 425.36 325.22 422.93C326.61 421.03 326.61 418.6 327.47 416.53C328.68 413.76 331.11 412.03 333.7 410.65C336.82 408.75 340.1 407.19 343.57 405.98C345.3 405.29 347.03 404.77 348.42 403.56C349.8 402.35 350.5 400.1 349.63 398.54C348.42 396.64 345.13 395.77 345.3 393.52C345.3 392.65 345.99 391.96 346.51 391.1C350.32 386.25 349.63 379.33 349.63 373.1C349.63 372.58 349.8 372.23 349.98 371.72C350.33 371.03 351.37 370.85 352.06 370.51C355.18 369.47 356.21 365.66 356.73 362.55C356.9 361.34 357.08 359.95 356.56 359.09C356.04 358.4 355.35 358.05 354.66 357.71C353.62 357.36 352.76 357.19 351.54 357.36C349.81 357.19 348.08 357.36 346.52 357.53C339.08 358.92 331.63 360.99 324.71 364.11C315.71 377.44 308.78 392.5 303.42 407.73C299.27 419.85 295.98 432.14 292.69 444.43C295.46 441.83 298.58 439.41 301.69 437.16L301.68 437.12ZM341.49 375.67C341.84 376.54 342.01 377.4 342.18 378.27C342.35 379.31 342.35 379.83 342.53 379.48C344.61 379.48 347.2 380.69 347.03 382.94C345.82 381.38 344.26 380.86 342.7 381.21C340.62 381.21 340.8 378.96 340.97 378.44C340.97 377.4 341.14 376.54 341.49 375.67ZM342.7 392.29C344.09 392.98 345.12 393.67 345.3 395.06C342.7 394.02 341.84 393.16 339.41 394.19C339.58 392.8 341.31 392.11 342.7 392.29ZM317.6 397.83C318.29 397.31 319.16 397.31 319.85 397.31C321.06 397.31 322.97 397.14 324.18 397.31C324.53 397.31 324.7 397.48 324.87 397.48C326.43 398.35 326.08 399.04 325.91 400.77C325.74 402.5 325.56 404.23 324.87 405.79C324 408.39 322.27 410.46 320.37 412.37C320.2 412.54 320.02 412.89 319.68 412.89C319.33 413.06 318.81 412.72 318.64 412.37C318.29 412.02 318.29 411.68 318.12 411.16C317.43 407.7 317.08 404.06 316.91 400.6C316.74 399.56 316.91 398.35 317.6 397.83ZM308.6 412.2C308.95 415.14 308.08 418.6 311.02 419.64C312.06 420.51 313.62 420.85 315 421.54C316.38 422.06 317.6 422.92 318.98 423.62C317.42 423.45 316.04 423.1 314.48 422.75C313.09 422.06 311.54 422.06 310.15 421.02C308.59 420.15 307.73 418.42 307.55 416.69C307.55 415.13 308.07 413.57 308.59 412.19L308.6 412.2Z" fill="#FEDD00"/>
<path d="M324.7 364.08C328.33 358.54 332.32 353.52 336.64 348.67C337.51 347.63 338.37 346.59 339.41 345.55C343.05 341.91 346.68 338.45 349.97 334.82C350.66 342.44 352.74 350.05 351.53 357.32C349.8 357.15 348.07 357.32 346.51 357.49C339.07 358.88 331.62 360.95 324.7 364.07V364.08Z" fill="#E9BE00"/>
<path d="M316.91 400.6C316.74 399.56 316.91 398.35 317.6 397.83C318.29 397.31 319.16 397.31 319.85 397.31C321.06 397.31 322.97 397.14 324.18 397.31C324.53 397.31 324.7 397.48 324.87 397.48C326.43 398.35 326.08 399.04 325.91 400.77C325.74 402.5 325.56 404.23 324.87 405.79C324 408.39 322.27 410.46 320.37 412.37C320.2 412.54 320.02 412.89 319.68 412.89C319.33 413.06 318.81 412.72 318.64 412.37C318.29 412.02 318.29 411.68 318.12 411.16C317.43 407.7 317.08 404.06 316.91 400.6Z" fill="#E9BE00"/>
<path d="M339.42 394.19C339.59 392.8 341.32 392.11 342.71 392.29C344.1 392.98 345.13 393.67 345.31 395.06C342.71 394.02 341.85 393.16 339.42 394.19Z" fill="#E9BE00"/>
<path d="M340.97 378.44C340.97 377.4 341.14 376.54 341.49 375.67C341.84 376.54 342.01 377.4 342.18 378.27C342.35 379.31 342.35 379.83 342.53 379.48C344.61 379.48 347.2 380.69 347.03 382.94C345.82 381.38 344.26 380.86 342.7 381.21C340.62 381.21 340.8 378.96 340.97 378.44Z" fill="#E9BE00"/>
<path d="M307.57 416.689C307.57 415.129 308.09 413.569 308.61 412.189C308.96 415.129 308.09 418.589 311.03 419.629C312.07 420.499 313.63 420.84 315.01 421.53C316.39 422.05 317.61 422.91 318.99 423.61C317.43 423.44 316.05 423.09 314.49 422.74C313.1 422.05 311.55 422.05 310.16 421.01C308.6 420.14 307.74 418.409 307.56 416.679L307.57 416.689Z" fill="#E9BE00"/>
<path d="M111.46 400.08C111.46 391.43 111.81 382.94 112.33 374.29V374.12C114.06 372.56 115.1 370.83 116.48 369.1C117.86 367.2 119.6 365.64 121.85 365.46C123.23 365.46 124.62 365.98 125.49 367.02C126.01 367.54 126.36 368.23 127.05 368.75C127.05 372.04 128.26 375.33 129.65 378.44C130.34 380.17 131.21 381.73 132.07 383.46C133.11 385.54 134.15 387.79 134.67 390.04C135.19 391.77 135.54 393.67 136.23 395.23V395.4C136.4 395.92 136.58 396.27 136.75 396.61C137.44 397.82 138.31 399.38 137.27 400.07C136.75 400.59 136.06 400.42 135.37 400.24C135.257 400.24 135.14 400.183 135.02 400.07C133.46 399.55 131.9 398.51 130.69 397.3C131.73 399.2 132.94 400.76 134.5 402.15C134.85 402.5 135.19 402.84 135.54 403.19C136.93 404.23 138.31 405.09 139.35 406.48C140.22 407.86 140.74 409.94 139.7 411.33C138.32 413.23 135.03 412.72 133.12 411.16C132.95 410.99 132.6 410.81 132.43 410.64C130.7 409.25 129.14 407.52 127.06 406.83C126.37 408.56 128.27 409.95 129.83 410.81C130.52 411.16 131.39 411.68 132.08 412.19C132.95 412.54 133.64 412.88 134.33 413.4C135.89 414.27 137.62 415.48 137.45 417.21C137.45 418.77 135.89 419.63 134.51 419.81C133.13 419.98 131.91 419.46 130.7 418.94H130.53C128.45 418.07 126.2 417.21 124.13 416.34C123.61 419.8 124.82 423.26 127.07 425.86C129.32 428.46 132.61 430.01 136.07 430.01C136.94 430.01 137.97 430.01 138.84 430.18H139.01C139.53 430.35 140.22 430.53 140.57 431.05C141.61 432.61 140.4 434.68 138.67 435.2C137.98 435.37 137.46 435.55 136.77 435.55C135.73 435.38 134.52 435.03 133.48 434.68C128.98 433.12 124.31 431.05 121.54 427.07C120.33 425.34 119.46 423.61 118.77 421.53V421.36C118.08 419.46 117.38 417.55 116.52 415.82C115.31 413.4 113.58 411.15 112.54 408.55C111.67 405.78 111.5 403.01 111.5 400.07L111.46 400.08Z" fill="#F7AAB7"/>
<path d="M130.67 397.311C131.88 398.521 133.44 399.561 135 400.081C134.83 400.771 134.65 401.47 134.48 402.16C132.92 400.77 131.71 399.221 130.67 397.311Z" fill="#5DAF86"/>
<path d="M132.05 383.46C132.05 382.42 132.05 381.56 132.22 380.69C132.91 376.02 137.41 374.63 138.45 379.82C139.32 385.01 137.58 390.38 136.2 395.23C135.51 393.67 135.16 391.77 134.64 390.04C134.12 387.79 133.08 385.54 132.04 383.46H132.05Z" fill="#5DAF86"/>
<path d="M127.03 406.83C129.11 407.52 130.67 409.25 132.4 410.64C132.23 411.16 132.23 411.68 132.05 412.2C131.36 411.68 130.49 411.16 129.8 410.82C128.24 409.95 126.34 408.57 127.03 406.84V406.83Z" fill="#5DAF86"/>
<path d="M124.09 416.35C126.17 417.22 128.42 418.079 130.49 418.949H130.66C130.66 419.469 130.66 420.16 131.01 420.51C131.53 421.55 132.91 421.55 133.95 421.55C138.28 421.72 142.43 421.379 146.76 420.679C150.4 419.989 154.55 419.12 157.32 421.37C158.01 421.89 158.53 422.76 158.71 423.62C158.71 424.66 157.67 425.699 156.63 426.219C152.65 428.299 147.63 427.609 143.3 428.469C141.74 428.819 140.36 429.339 138.97 430.199H138.8C137.93 430.029 136.9 430.03 136.03 430.03C132.57 430.03 129.28 428.469 127.03 425.879C124.78 423.279 123.57 419.82 124.09 416.36V416.35Z" fill="#5DAF86"/>
<path d="M109.9 436.95C110.59 433.32 115.27 427.43 118.73 421.55C119.42 423.63 120.29 425.36 121.5 427.09C124.27 431.07 128.94 433.15 133.44 434.7C134.48 435.05 135.69 435.39 136.73 435.57C138.46 437.3 141.23 438.17 143.65 438.51C152.48 439.72 161.31 436.43 170.13 434.18C171.34 433.83 172.55 433.66 173.77 433.83C174.98 434.18 176.02 435.04 176.19 436.25C176.36 437.81 174.81 439.02 173.42 439.37C171.86 439.89 170.13 439.72 168.75 440.06C165.29 440.93 161.48 443.69 161.48 443.69C161.48 443.69 156.81 446.81 154.56 447.33C149.54 448.2 146.77 444.73 141.75 446.29C140.88 446.98 140.71 448.37 141.4 449.58C141.05 449.58 140.88 449.58 140.53 449.75C139.49 450.27 138.45 450.96 137.59 451.65C135.51 451.65 133.95 453.38 132.57 454.94C129.8 457.88 127.03 460.82 123.57 462.9C120.28 465.15 111.97 471.55 112.15 465.84C112.5 460.3 128.25 449.57 130.15 438.66C126.17 439.53 123.4 443.16 120.98 446.28C118.38 449.4 112.33 456.67 110.77 451.99C109.21 447.32 112.16 445.41 114.23 442.82C117.17 439.36 121.85 436.76 122.71 432.26V431.22C122.54 430.87 122.02 430.7 121.5 430.53C117 429.49 108.69 442.13 109.9 436.93V436.95Z" fill="#5DAF86"/>
<path d="M129.11 468.97C129.28 467.93 129.46 466.89 129.8 465.85C131.01 463.25 133.26 461.35 135.17 459.27C137.08 457.19 138.46 454.25 137.59 451.65C138.46 450.96 139.49 450.26 140.53 449.75C140.88 449.58 141.05 449.58 141.4 449.58C141.4 450.27 141.92 450.96 142.44 451.31C143.83 452.52 145.73 452.87 147.63 453.04C150.4 453.39 153.17 453.73 155.94 453.73C158.19 453.56 160.44 453.38 162.69 453.9C164.77 454.42 166.84 456.15 167.02 458.4C167.19 460.65 164.42 462.73 162.69 461.52C163.21 462.73 163.73 463.94 163.38 465.33C163.03 466.37 161.82 467.41 160.78 466.89C160.61 467.06 160.61 466.89 160.61 466.89H160.44C161.31 468.45 162.17 470.35 161.65 472.26C161.3 474.16 159.4 475.72 157.5 475.38C158.54 477.46 157.67 480.23 155.77 481.61C153.69 483 150.92 482.82 149.19 481.09C147.98 482.13 146.77 483.34 145.04 483.51C143.48 483.68 141.75 482.64 141.75 481.09C140.36 481.61 138.81 482.13 137.25 481.96C136.21 481.79 135.35 480.92 134.83 480.06C134.717 479.947 134.717 479.83 134.83 479.71C134.717 479.597 134.717 479.48 134.83 479.36C134.66 479.19 134.66 479.01 134.66 478.84C132.58 479.71 129.99 477.97 129.12 475.9C128.25 473.65 128.6 471.23 129.12 468.98L129.11 468.97Z" fill="#FF3C5B"/>
<path d="M157.5 475.37C156.89 474.83 156.51 474.26 155.95 473.98L155.9 473.94C153.88 471.72 152.55 469.18 150.92 466.37C150.76 469.59 152.37 472.95 155.25 474.69C155.96 475.1 156.84 475.22 157.5 475.37Z" fill="#915E56"/>
<path d="M155.28 474.729C155.28 474.729 155.26 474.699 155.25 474.689L155.29 474.729H155.28Z" fill="#915E56"/>
<path d="M146.33 476.66C146.33 476.66 146.33 476.63 146.32 476.62L146.34 476.66H146.33Z" fill="#915E56"/>
<path d="M149.19 481.08C148.84 479.31 148.2 477.759 147.57 476.199L147.55 476.149C146.55 472.729 145.39 469.52 144.87 465.85C144.01 469.41 144.54 473.4 146.33 476.62C147.19 478.18 148.05 479.74 149.2 481.08H149.19Z" fill="#915E56"/>
<path d="M141.75 481.08C143.48 476.82 144.08 472.84 143.65 468.27C141.96 472.24 141.29 476.8 141.75 481.08Z" fill="#915E56"/>
<path d="M134.82 479.35C136.12 474.55 137.42 470.27 139.67 465.85C135.61 468.92 133.87 474.46 134.82 479.35Z" fill="#915E56"/>
<path d="M160.61 466.89C158.91 463.6 159 460.34 157.84 456.68C157.1 458.49 157.31 460.34 157.38 462.26C158.01 464.02 158.74 466.09 160.61 466.89Z" fill="#915E56"/>
<path d="M160.1 455.29C159.35 457.7 160.37 460.38 162.7 461.52C162.19 459.08 161.55 457.36 160.1 455.29Z" fill="#915E56"/>
<path d="M205.08 524.75C207.78 523.18 208.72 519.99 209.08 517.26C209.86 511.68 209.62 505.81 207.22 500.47L207.25 500.55C206.58 498.52 206.06 496.33 206.04 494.22C205.9 492.01 207.18 490.24 209.43 490.79L209.31 490.75C210.67 491.41 212.08 491.87 213.54 492.2C214.92 492.44 216.72 492.86 217.8 491.69C216.62 492.69 214.99 492.07 213.69 491.69C212.33 491.21 211.02 490.56 209.74 489.92L209.68 489.89H209.62C208.48 489.67 207 489.68 206.03 490.72C205.1 491.73 204.91 493.03 204.83 494.19C204.75 496.56 205.2 498.8 205.83 501.03L205.86 501.12C207.64 506.11 208.42 511.69 207.82 517.11C207.57 519.77 206.83 522.54 204.59 523.98C202.4 525.39 199.39 525.34 196.76 524.56C199.26 525.6 202.37 526.26 205.07 524.76L205.08 524.75Z" fill="black"/>
<path d="M236.55 515.81C236.55 515.81 226.5 524.42 219.85 514.55C228.27 505.52 234.92 511.4 236.55 515.81Z" fill="#CCCCCC"/>
<path d="M221.97 525.969C223.48 527.219 225.45 527.68 227.29 527.76C230.96 527.42 234.51 526.58 237.5 524.55C234.02 525.19 230.68 526.31 227.31 526.03C223.84 526.48 220.97 524.52 219.86 521.02C219.83 522.78 220.39 524.759 221.98 525.969H221.97Z" fill="black"/>
<path d="M226.13 518.2C228.08 518.2 229.66 516.62 229.66 514.67C229.66 512.72 228.08 511.14 226.13 511.14C224.18 511.14 222.6 512.72 222.6 514.67C222.6 516.62 224.18 518.2 226.13 518.2Z" fill="black"/>
<path d="M194.89 514.49V509.12C194.89 509.12 204.99 504.16 207.24 514.55C207.24 514.55 198.52 520.55 194.89 514.49Z" fill="#CCCCCC"/>
<path d="M198.41 516.64C200.36 516.64 201.94 515.06 201.94 513.11C201.94 511.16 200.36 509.58 198.41 509.58C196.46 509.58 194.88 511.16 194.88 513.11C194.88 515.06 196.46 516.64 198.41 516.64Z" fill="black"/>
<path d="M221.76 483.12C221.76 483.12 218.5 482.31 214.29 483.12C211.71 483.66 211.17 482.94 211.17 482.94C211.17 482.94 210.36 482.69 208.86 483.04C207.37 483.39 205.6 482.01 205.6 482.01C205.6 482.01 204.79 481.49 203.84 481.35C204.25 480.4 213.75 477.41 221.76 483.11V483.12Z" fill="#FF3142"/>
<path d="M217.01 479.719C217.01 479.719 211.85 478.46 207.24 479.57C208.87 476.74 213.35 474.829 217.01 479.719Z" fill="#FF3142"/>
<path d="M199.04 440.23C219.98 426.73 246.81 433.31 256.16 436.25C255.99 436.42 255.81 436.42 255.64 436.6C253.91 437.81 254.08 440.23 253.22 441.97C244.91 437.82 225.01 430.37 205.45 444.22C204.58 443.7 203.89 443.01 202.85 442.32C201.64 441.63 200.25 440.76 199.04 440.24V440.23Z" fill="#FF3142"/>
<defs>
<linearGradient id="paint0_linear_145_2210" x1="380.95" y1="-103.55" x2="110.47" y2="690.32" gradientUnits="userSpaceOnUse">
<stop stop-color="#E1E1E1"/>
<stop offset="0.12" stop-color="#ECECEC"/>
<stop offset="0.32" stop-color="#FAFAFA"/>
<stop offset="0.49" stop-color="white"/>
<stop offset="0.7" stop-color="#FBFBFB"/>
<stop offset="0.85" stop-color="#F2F2F2"/>
<stop offset="0.99" stop-color="#E2E2E2"/>
<stop offset="1" stop-color="#E1E1E1"/>
</linearGradient>
</defs>
</svg>
