<svg width="469" height="650" viewBox="0 0 469 650" fill="none" xmlns="http://www.w3.org/2000/svg">
<path d="M439.41 0.610352H29.5293C13.4593 0.610352 0.429688 12.6703 0.429688 27.5403V622.38C0.429688 637.25 13.4593 649.31 29.5293 649.31H439.41C455.48 649.31 468.509 637.25 468.509 622.38V27.5403C468.509 12.6703 455.48 0.610352 439.41 0.610352Z" fill="url(#paint0_linear_145_2726)"/>
<path d="M56.8901 107.41L56.7998 107.24L56.71 107.41C50.99 119.62 34.0498 126.32 34.0498 139.44C34.0498 150.41 48.5601 154.65 55.6401 145.47C55.7901 145 55.6299 148.39 55.1499 150.29C53.7499 154.94 49.3402 161.35 46.1802 164.87C45.9102 165.17 46.2198 165.6 46.5898 165.47C51.7298 163.55 61.89 163.55 67.02 165.47C67.39 165.61 67.7002 165.17 67.4302 164.87C64.3302 161.4 60.0902 155.16 58.4502 150.28C58.0402 148.64 57.7999 146.99 57.6899 145.33C64.5999 155.29 79.5498 150.63 79.5498 139.43C79.5498 126.31 62.6101 119.61 56.8901 107.4V107.41Z" fill="black"/>
<path d="M413.08 542.66L413.17 542.83L413.26 542.66C418.98 530.45 435.92 523.75 435.92 510.63C435.92 499.66 421.41 495.42 414.33 504.6C414.18 505.07 414.34 501.68 414.82 499.78C416.22 495.13 420.63 488.72 423.79 485.2C424.06 484.9 423.75 484.47 423.38 484.6C418.24 486.52 408.08 486.52 402.95 484.6C402.58 484.46 402.27 484.9 402.54 485.2C405.64 488.67 409.88 494.91 411.52 499.79C411.93 501.43 412.17 503.08 412.28 504.74C405.37 494.78 390.42 499.44 390.42 510.64C390.42 523.76 407.36 530.46 413.08 542.67V542.66Z" fill="black"/>
<path d="M85.7095 88.7795C84.4695 88.0595 83.2293 86.7895 82.0293 84.9995L59.3394 51.5496L74.9395 35.2595C76.7995 33.3395 78.8496 31.8195 81.0396 30.7495C83.1796 29.6895 85.1594 29.1494 86.9194 29.1494H90.1396V23.5996H59.4795V29.1494H62.4194C65.0894 29.1494 66.3595 29.6195 66.9595 30.0195C67.7095 30.5195 68.0693 31.1096 68.0693 31.8696C68.0693 33.0496 67.3996 34.3696 66.0796 35.8096L41.5293 62.0195V32.1594C41.5293 31.2794 41.8094 30.5695 42.3994 30.0095C42.9994 29.4395 43.8593 29.1594 45.0493 29.1594H52.8496V23.6096H18.9395V29.1594H25.1396C27.3696 29.1594 28.3794 29.5594 28.8394 29.8894C29.4194 30.3094 29.6997 30.8694 29.6997 31.6394V87.3696C29.6997 88.1196 29.4594 88.6794 28.9194 89.1294C28.3494 89.6094 27.3996 89.8596 26.0796 89.8596H18.9395V95.4094H52.8496V89.8596H45.0493C43.8793 89.8596 42.8994 89.5595 42.0894 88.9495C41.9494 88.8395 41.5195 88.4994 41.5195 87.3794V70.5996L51.3496 60.0796L69.8594 87.2996C70.1394 87.7396 70.2695 88.1496 70.2695 88.5496C70.2695 88.8596 69.8595 89.1296 69.5195 89.2996C69.1195 89.4996 67.9593 89.8496 64.7593 89.8496H60.1694V95.3994H93.6597V89.8496H90.0996C88.3996 89.8496 86.9197 89.4895 85.6997 88.7795H85.7095Z" fill="black"/>
<path d="M382.979 561.5C384.219 562.22 385.46 563.49 386.66 565.28L409.35 598.73L393.75 615.02C391.89 616.94 389.839 618.46 387.649 619.53C385.509 620.59 383.53 621.13 381.77 621.13H378.549V626.68H409.209V621.13H406.27C403.6 621.13 402.329 620.66 401.729 620.26C400.969 619.76 400.62 619.17 400.62 618.41C400.62 617.23 401.289 615.9 402.609 614.47L427.16 588.26V618.12C427.16 619 426.88 619.71 426.29 620.27C425.69 620.84 424.83 621.12 423.64 621.12H415.839V626.67H449.75V621.12H443.549C441.319 621.12 440.31 620.72 439.85 620.39C439.27 619.97 438.99 619.41 438.99 618.64V562.91C438.99 562.16 439.23 561.6 439.77 561.15C440.34 560.67 441.289 560.42 442.609 560.42H449.75V554.87H415.839V560.42H423.64C424.81 560.42 425.79 560.72 426.6 561.33C426.74 561.44 427.169 561.78 427.169 562.9V579.68L417.339 590.2L398.83 562.98C398.55 562.54 398.419 562.13 398.419 561.73C398.419 561.42 398.829 561.15 399.169 560.98C399.569 560.78 400.73 560.43 403.93 560.43H408.52V554.88H375.029V560.43H378.589C380.289 560.43 381.77 560.79 382.99 561.5H382.979Z" fill="black"/>
<path d="M295.661 94.9304H295.701L296.73 91.7205L295.271 90.4004L291.221 86.8706L291.331 86.8206L299.661 82.7205L302.081 75.6804L304.09 69.4705L308.63 55.7805L293.38 65.9905L298.13 71.1804C297.82 73.8904 295.711 78.2204 286.101 83.3904C280.081 76.2504 280.48 71.7105 281.71 69.2405L289.21 65.3804L280.561 52.4504L266.291 62.6804L271.411 67.9604C271.341 70.5005 269.77 74.2705 262.17 79.2705C254.59 70.5605 254.65 65.0005 255.82 62.0505L265.01 57.0005L252.791 39.6504L235.84 53.3706L242.891 60.3105C243.021 63.6005 241.421 68.9905 231.601 75.7305C225.651 69.0705 225.38 64.8205 226.19 62.4805L232.71 58.6006L222.161 45.4004L209.84 55.6704L215.831 61.4104C216.191 63.8304 215.181 68.4405 207.101 73.7805C199.551 66.4705 198.78 61.8605 199.46 59.2505L205.61 55.2705L194.141 41.8306V56.2305L194.271 62.5405L194.3 69.8804L201.291 75.9705L195.34 78.8606L194.44 79.3105L194.331 82.7705L229.641 87.0105L295.65 94.9304H295.661ZM273.76 79.2405L281.13 85.6504L272.041 90.0706L264.67 83.6604L273.76 79.2405ZM254.42 82.4204L245.331 86.8406L237.96 80.4204L247.05 76.0005L254.42 82.4104V82.4204ZM218.331 83.5706L210.96 77.1504L220.061 72.7305L227.431 79.1504L218.331 83.5706Z" fill="#FFA500"/>
<path d="M203.37 94.4302C211.66 93.9302 219.77 93.9302 227.56 94.4302C239.66 94.9302 251.259 96.2502 262.529 98.7402C267.999 99.7302 273.3 101.06 278.6 102.55C278.77 102.55 278.6 102.88 278.6 102.88C283.74 104.04 288.38 105.53 293.18 107.35L295.33 97.0803H295.319L295.31 97.1602L193.95 84.9902H193.919L192.1 95.2703H192.27C196.08 94.9403 199.73 94.6102 203.37 94.4402V94.4302Z" fill="#FFA500"/>
<path d="M295.31 97.1497L295.33 97.0798L295.7 94.9297H295.66L229.65 86.9998L194.34 82.7598L193.96 84.9797V84.9897L295.31 97.1497Z" fill="#862D26"/>
<path d="M220.05 72.7197L210.95 77.1396L218.32 83.5498L227.42 79.1396L220.05 72.7197Z" fill="#862D26"/>
<path d="M237.95 80.4102L245.32 86.8303L254.41 82.4102L247.04 75.9902L237.95 80.4102Z" fill="#862D26"/>
<path d="M264.66 83.6504L272.03 90.0605L281.12 85.6504L273.75 79.2305L264.66 83.6504Z" fill="#862D26"/>
<path d="M194.31 69.8799L194.3 69.8701L194.33 76.3899L194.36 79.3401L195.35 78.8601L201.31 75.96L194.31 69.8799Z" fill="#862D26"/>
<path d="M295.27 90.3904L296.74 91.6704L297.67 88.9204L299.73 82.7305L291.32 86.8105L291.21 86.8706L295.27 90.3904Z" fill="#862D26"/>
<path d="M339.92 291.621C338.1 294.931 339.59 299.41 342.24 302.23C342.57 302.73 343.07 303.22 343.56 303.55C346.05 306.04 348.86 308.03 351.18 310.68C353.83 313.99 355.16 318.301 355.82 322.611H377.53C377.2 321.281 377.03 319.96 376.7 318.63C373.88 307.36 365.6 297.921 355.82 291.621C353.33 289.961 350.85 288.64 348.03 288.14C345.54 287.81 342.89 288.47 341.07 290.29C340.74 290.29 340.41 290.62 340.24 290.95C340.07 291.12 339.91 291.451 339.91 291.611L339.92 291.621Z" fill="#F6F3F6"/>
<path d="M291.029 303.39C292.359 302.06 294.18 301.23 296 300.74L297.66 296.1L297.83 295.77C297.33 295.77 296.669 295.77 296.169 295.94C295.339 294.61 293.02 289.48 296.83 286C298.16 284.68 299.98 284.84 301.64 285.67L302.299 283.84C300.969 283.18 299.15 282.68 297.16 282.68C295 283.01 296 276.38 299.81 277.21C301.47 277.54 302.96 277.71 304.45 278.2L305.609 274.89C302.789 272.9 300.14 271.08 300.14 271.08C300.14 271.08 295.829 266.44 303.779 264.95C305.769 265.28 307.259 265.78 308.919 266.27L309.91 263.78C307.26 262.12 304.28 260.63 302.62 260.63C298.64 260.3 302.79 253.17 305.93 253.34C307.09 253.34 309.91 254.17 313.06 255.33L338.08 188.55C334.93 187.06 331.78 185.4 328.47 183.74C328.3 183.74 328.3 183.57 328.14 183.57C320.02 200.31 301.129 242.56 292.009 296.75C291.679 298.91 291.18 301.06 291.02 303.38L291.029 303.39Z" fill="#444891"/>
<path d="M343.56 303.55C342.24 307.03 340.74 310.34 339.25 313.66C337.59 317.47 335.269 321.62 331.129 322.28C326.819 322.94 323.179 319.3 320.189 315.98C316.549 311.67 312.899 307.2 309.089 302.89L308.1 305.38C310.25 308.53 311.079 312.51 309.589 316.48C308.589 319.13 306.939 321.12 304.779 322.61H355.819C355.159 318.3 353.83 313.99 351.18 310.68C348.86 308.03 346.04 306.04 343.56 303.55Z" fill="#DF0401"/>
<path d="M206.69 322.61H220.8C220.14 327.42 219.641 332.05 219.141 336.86H271.17C268.85 331.72 266.36 326.92 263.55 322.61H249.44C250.1 317.8 250.601 313.17 251.101 308.36H199.07C201.39 313.5 203.881 318.3 206.701 322.61H206.69Z" fill="#505300"/>
<path d="M203.371 94.4297C201.881 96.7497 200.721 99.2396 200.061 101.89H200.231C200.231 101.89 209.671 99.8996 211.661 101.89C213.481 103.71 211.661 104.71 211.661 104.71C211.661 104.71 201.721 104.21 199.731 104.21C199.561 104.71 199.561 105.21 199.401 105.7C199.071 107.19 198.57 108.52 198.07 110.01C197.41 112.49 197.081 115.15 196.911 117.8C196.411 123.77 195.921 129.73 195.751 135.53C195.581 140.17 195.581 144.98 197.081 149.45C197.581 150.44 198.241 151.6 199.241 151.6C199.741 151.6 200.231 151.27 200.561 150.94C203.381 149.12 205.701 146.3 208.851 145.31C210.011 144.81 211.171 144.81 212.331 144.65C214.981 144.32 217.801 144.15 220.451 143.82C221.451 143.65 222.611 143.49 223.601 143.99C224.431 144.16 225.091 144.65 225.751 145.15C228.401 146.97 231.221 148.46 234.201 149.46C235.521 149.96 236.69 150.29 238.01 150.12C240.83 149.79 242.981 147.47 244.311 144.98C245.801 142.66 246.96 139.84 249.28 138.18C250.44 137.35 251.77 136.86 252.76 135.86C255.08 133.54 254.921 129.56 257.231 127.24C257.891 126.58 258.721 126.08 259.391 125.42C260.721 124.09 261.381 121.94 261.381 119.95C261.381 117.96 260.881 115.98 260.721 113.98C260.221 108.84 261.551 103.71 262.541 98.7397C251.271 96.2497 239.67 94.9297 227.57 94.4297C219.78 93.9297 211.661 93.9297 203.381 94.4297H203.371ZM197.941 115.38C197.941 115.38 198.8 111.47 203.55 111.3H204.411C206.141 111.47 207.291 111.47 208.151 111.47C210.311 111.47 210.741 111.3 210.741 111.3C210.741 111.3 211.891 119.46 205.851 118.95C199.661 118.61 197.931 115.38 197.931 115.38H197.941ZM225.34 139.13L225.251 139.2L225.07 139.23C222.66 139.6 220.181 140.21 218.041 141.37C216.311 142.71 212.31 144.63 210.03 141.16C208.16 138.18 208.041 135.05 208.211 131.71C209.031 127.71 211.791 126.67 213.061 124.33L213.101 124.27C213.541 123.59 213.671 121.87 213.641 120.46C213.641 118.97 213.5 117.46 213.34 115.95C213.11 112.91 212.781 109.85 212.331 106.82C213.161 109.75 213.931 112.7 214.501 115.74C214.731 117.27 214.941 118.81 215.021 120.4C215.021 122 215.3 123.58 214.28 125.52C214.29 125.5 214.31 125.49 214.32 125.46L214.28 125.52C212.85 128.07 210.311 129.92 210.231 132.05C210.201 134.53 210.661 137.71 211.711 139.61C212.821 141.58 215.031 140.94 217.371 139.53C219.821 138.42 222.28 138.02 224.8 137.79C225.93 136.94 227.141 135.8 227.421 134.28C227.701 132.67 226.571 131.04 225.371 129.97C226.661 130.82 228.171 132.16 228.151 134.36C228.031 136.51 226.731 138.08 225.351 139.14L225.34 139.13ZM235.671 119.56C231.861 120.23 226.721 115.43 226.381 114.36C226.041 113.29 226.271 110.63 227.981 111.43C228.571 111.71 230.52 111.79 232.78 111.78L237.101 111.64C237.101 111.64 237.1 111.68 237.11 111.69C240.03 111.58 242.521 111.43 242.521 111.43C243.651 114.63 239.471 118.9 235.661 119.56H235.671ZM244.561 104.76C238.671 103.18 220.401 105.7 220.401 105.7C220.401 105.7 217.911 105.17 218.141 102.63C224.801 96.6296 246.03 102.63 246.03 102.63C246.03 102.63 247.831 105.03 244.561 104.76Z" fill="#FB898C"/>
<path d="M174.871 167.84C171.721 170 173.041 174.8 174.701 178.28C177.191 179.61 178.01 181.93 178.51 184.91V185.08C179.34 189.22 179.34 194.03 182.32 196.68C185.63 199.83 190.941 198.5 195.411 199.66C199.391 200.65 202.87 203.47 207.01 203.47C209 203.47 210.991 202.81 212.981 202.97C218.781 203.14 223.921 210.1 229.391 207.94C230.881 207.44 232.041 206.28 233.201 205.29C236.521 201.81 239.83 197.83 244.3 196.01C246.29 195.18 248.611 194.85 250.601 193.69C253.581 192.03 255.411 188.88 257.561 186.23C260.541 182.09 264.191 178.61 268.331 175.62C270.321 174.3 272.801 173.14 274.791 174.13C278.931 176.28 275.781 183.08 278.431 186.89C279.261 187.88 280.251 188.55 281.411 188.71C282.731 189.21 284.06 189.21 285.38 188.88C287.87 188.22 289.86 186.56 291.84 184.9C294.66 182.75 297.641 180.43 300.461 178.11C301.951 176.95 303.441 175.79 304.771 174.47C306.091 172.98 307.421 171.49 308.411 169.83C310.401 166.52 310.731 162.04 308.411 158.89C307.581 157.73 306.261 156.74 305.431 155.58C303.441 152.6 303.771 148.29 301.621 145.47C300.291 143.81 298.311 142.82 297.481 140.83C295.991 137.68 298.47 133.7 296.65 130.88C295.99 129.72 294.661 129.06 293.831 128.23C290.681 125.08 291.511 119.94 292.671 115.8C293.661 111.83 294.161 109.5 293.171 107.35C288.361 105.53 283.72 104.04 278.59 102.88C278.59 102.88 278.76 102.55 278.59 102.55C273.29 101.06 267.991 99.7297 262.521 98.7397C261.531 103.71 260.201 108.85 260.701 113.98C260.871 115.97 261.36 117.96 261.36 119.95C261.36 121.94 260.701 124.09 259.371 125.42C258.711 126.08 257.881 126.58 257.211 127.24C254.891 129.56 255.061 133.54 252.741 135.86C251.751 136.85 250.42 137.35 249.26 138.18C246.94 139.84 245.781 142.66 244.291 144.98C242.961 147.46 240.811 149.78 237.991 150.12C236.671 150.29 235.501 149.95 234.181 149.46C231.201 148.47 228.381 146.97 225.731 145.15C225.071 144.65 224.411 144.16 223.581 143.99C222.591 143.49 221.431 143.66 220.431 143.82C217.781 144.15 214.961 144.32 212.311 144.65C211.151 144.82 209.991 144.82 208.831 145.31C205.681 146.3 203.361 149.12 200.541 150.94C200.211 151.27 199.711 151.6 199.221 151.6C198.221 151.6 197.561 150.44 197.061 149.45C195.571 144.98 195.571 140.17 195.731 135.53C195.901 129.73 196.391 123.76 196.891 117.8C197.061 115.15 197.39 112.5 198.05 110.01C198.55 108.52 199.04 107.19 199.38 105.7C199.55 105.2 199.551 104.71 199.711 104.21C201.701 104.21 211.641 104.71 211.641 104.71C211.641 104.71 213.461 103.72 211.641 101.89C209.651 99.8996 200.211 101.89 200.211 101.89H200.041C200.701 99.2396 201.861 96.7497 203.351 94.4297C199.701 94.5997 196.061 94.9298 192.251 95.2598H192.081C186.941 100.89 188.271 110.67 183.461 117.13C182.631 118.29 181.641 119.29 181.141 120.61C179.981 123.43 181.471 126.58 180.811 129.56C179.981 132.54 177 134.53 175.34 137.18C171.36 142.81 173.351 150.6 176.501 156.9C177.161 158.39 178.161 160.05 178.491 161.87V165.18C178.321 165.18 177.991 165.35 177.661 165.51C177.491 166.01 177.161 166.34 176.831 166.67C176.171 167.17 175.5 167.33 174.84 167.83L174.871 167.84ZM210.3 152.71C211.68 152.2 213.14 151.68 214.55 152.08C215.11 152.24 215.631 152.54 216.191 152.7C217.301 153.03 217.331 152.98 218.461 152.81C219.541 152.64 221.151 152.27 222.231 152.46C223.311 152.65 223.861 153.63 224.581 154.6C224.891 155.23 224.991 156.93 224.421 157.19C221.001 158.75 217.71 157.96 214.09 158.59C212.27 158.9 210.441 159.22 208.601 159.1C208.221 159.07 207.791 159 207.581 158.62C207.471 158.43 207.441 158.18 207.421 157.95C207.111 154.97 207.92 153.61 210.32 152.71H210.3Z" fill="black"/>
<path d="M108.46 258.04L108.34 257.08L107.96 253.929C107.84 252.969 108.421 251.93 109.521 251.24L109.09 247.689L105.4 248.139C105 249.509 104.571 250.839 104.101 252.199C102.541 256.589 100.131 260.66 97.9707 264.83C101.151 262 104.821 259.95 108.911 258.6C108.801 258.39 108.49 258.3 108.44 258.06L108.46 258.04Z" fill="#444891"/>
<path d="M108.161 240C108.051 240.26 107.86 240.48 107.76 240.75C107.74 240.79 107.731 240.85 107.721 240.89L108.26 240.82L108.161 240Z" fill="#DF0401"/>
<path d="M305.95 253.351C302.8 253.181 298.66 260.31 302.64 260.64C304.3 260.64 307.28 262.131 309.93 263.791C313.41 265.951 316.39 268.6 315.73 269.42C312.75 267.93 310.76 266.931 308.94 266.271C307.28 265.771 305.789 265.281 303.799 264.951C295.849 266.441 300.16 271.081 300.16 271.081C300.16 271.081 302.81 272.9 305.63 274.89C309.77 277.87 314.41 281.351 311.6 280.861C308.95 279.531 306.79 278.701 304.47 278.211C302.98 277.711 301.49 277.551 299.83 277.221C296.02 276.391 295.02 283.02 297.18 282.69C299.17 282.69 300.989 283.191 302.319 283.851C305.629 285.181 307.46 287.661 308.45 289.481C308.78 289.811 308.95 290.141 308.95 290.471C309.28 291.131 309.45 291.631 309.45 291.801L308.13 290.471C307.63 289.971 306.97 289.311 306.31 288.821C305.81 288.161 305.15 287.821 304.65 287.331C304.48 287.161 304.32 287.161 304.15 287.001C303.32 286.501 302.49 286.01 301.66 285.68C300 284.85 298.18 284.691 296.85 286.011C293.04 289.491 295.36 294.631 296.19 295.951C296.69 295.781 297.35 295.781 297.85 295.781C298.51 295.781 299.179 295.781 299.839 295.951H300.17C301 296.12 301.66 296.451 302.49 296.781C304.98 297.941 306.8 299.931 308.46 302.081C308.63 302.411 308.96 302.58 309.12 302.91C312.93 307.22 316.58 311.691 320.22 316.001C323.2 319.311 326.85 322.961 331.16 322.301C335.3 321.641 337.619 317.49 339.279 313.68C340.769 310.37 342.259 307.051 343.589 303.571C343.089 303.241 342.6 302.741 342.27 302.251C339.62 299.431 338.13 294.96 339.95 291.64C339.95 291.47 340.119 291.141 340.279 290.981C340.449 290.651 340.779 290.321 341.11 290.321C337.63 286.681 334.81 280.211 334.81 280.211C334.81 280.211 331.16 268.281 327.35 263.311C326.69 262.481 325.86 261.651 324.7 260.991C321.72 258.831 317.07 256.681 313.1 255.361C309.95 254.201 307.13 253.371 305.97 253.371L305.95 253.351Z" fill="#FFA8B8"/>
<path d="M274.799 174.14C272.809 173.15 270.319 174.31 268.339 175.63C264.199 178.61 260.549 182.09 257.569 186.24C255.409 188.89 253.589 192.04 250.609 193.7C248.619 194.86 246.3 195.19 244.31 196.02C239.84 197.84 236.519 201.82 233.209 205.3C232.049 206.29 230.889 207.45 229.399 207.95C223.929 210.11 218.79 203.14 212.99 202.98C211 202.81 209.02 203.48 207.02 203.48C202.88 203.48 199.399 200.66 195.419 199.67C190.949 198.51 185.64 199.84 182.33 196.69C179.35 194.04 179.35 189.23 178.52 185.09C178.69 198.01 179.51 215.41 181.5 233.81H266.839C272.469 213.59 278.109 197.52 281.419 188.74C280.259 188.57 279.259 187.91 278.439 186.92C275.789 183.11 278.939 176.31 274.799 174.16V174.14Z" fill="#D8D0E9"/>
<path d="M183.82 250.36H262.37C263.86 244.56 265.35 238.93 266.84 233.79H181.5C182.16 239.26 182.99 244.89 183.82 250.36Z" fill="#505300"/>
<path d="M199.061 308.36H251.09C253.91 287.81 258.05 267.93 262.36 250.36H183.811C186.791 270.91 191.6 291.62 199.05 308.36H199.061ZM223.991 253.44L224.061 253.29L224.121 253.44C228.401 263.99 241.09 269.77 241.09 281.1C241.09 290.77 229.9 294.8 224.73 286.2C224.81 287.63 224.99 289.06 225.3 290.48C226.53 294.7 229.701 300.08 232.021 303.08C232.221 303.33 231.99 303.71 231.71 303.59C227.87 301.93 220.26 301.93 216.42 303.59C216.14 303.71 215.91 303.33 216.11 303.07C218.48 300.03 221.781 294.49 222.831 290.47C223.191 288.83 223.311 285.9 223.201 286.3C217.901 294.24 207.041 290.57 207.041 281.09C207.041 269.76 219.72 263.97 224 253.43L223.991 253.44Z" fill="#7FFFE4"/>
<path d="M208.589 159.09C210.429 159.21 212.26 158.89 214.08 158.58C217.7 157.95 221 158.75 224.41 157.18C224.98 156.92 224.879 155.22 224.569 154.59C223.849 153.62 223.3 152.64 222.22 152.45C221.14 152.26 219.53 152.63 218.45 152.8C217.32 152.98 217.29 153.02 216.18 152.69C215.62 152.52 215.1 152.23 214.54 152.07C213.13 151.67 211.67 152.19 210.29 152.7C207.9 153.6 207.09 154.95 207.39 157.94C207.42 158.17 207.439 158.42 207.549 158.61C207.759 158.99 208.189 159.06 208.569 159.09H208.589Z" fill="#9C5F59"/>
<path d="M347.86 163.49L353.53 165.61L357.23 167L359.64 167.84L359.62 167.89C360.65 168.28 361.8 167.75 362.18 166.72L363.07 164.35C363.44 163.35 362.9 162.28 361.94 161.86L355.83 159.55L349.71 157.23C348.68 156.85 347.54 157.36 347.16 158.39L346.27 160.76C345.88 161.79 346.41 162.94 347.44 163.32H347.47L347.54 163.36L347.86 163.48V163.49Z" fill="#FFA724"/>
<path d="M361.939 161.86H361.959V161.7H362.129L392.779 126.4L380.35 93.7598L349.529 110.33V157.06L349.7 157.23H349.709L355.83 159.55L361.939 161.86ZM356.33 116.3H356.339V116.27L362.39 113.02L375.879 105.7L378.109 111.67L383.72 126.51L383.66 126.57L364.27 148.94L360.299 147.45L356.319 145.96V116.3H356.33Z" fill="#D44100"/>
<path d="M304.62 287.32C305.12 287.82 305.78 288.15 306.28 288.81C306.94 289.31 307.6 289.97 308.1 290.46L309.42 291.79C309.42 291.62 309.25 291.13 308.92 290.46C308.92 290.13 308.75 289.8 308.42 289.47C307.43 287.65 305.6 285.16 302.29 283.84L301.63 285.67C302.46 286 303.29 286.5 304.12 286.99C304.29 287.16 304.45 287.16 304.62 287.32Z" fill="#150E00"/>
<path d="M308.1 305.38L309.09 302.89C308.92 302.56 308.59 302.39 308.43 302.06C306.77 299.91 304.95 297.92 302.46 296.76C301.63 296.43 300.97 296.1 300.14 295.93H299.81C299.15 295.76 298.48 295.76 297.82 295.76L297.65 296.09L295.99 300.73C298.31 300.23 300.63 300.07 302.95 300.9C305.27 301.73 306.93 303.39 308.09 305.37L308.1 305.38Z" fill="#150E00"/>
<path d="M305.62 274.89L304.46 278.2C306.78 278.7 308.94 279.52 311.59 280.85C314.41 281.35 309.76 277.87 305.62 274.88V274.89Z" fill="#150E00"/>
<path d="M309.93 263.78L308.939 266.27C310.759 266.93 312.749 267.93 315.729 269.42C316.389 268.59 313.41 265.94 309.93 263.79V263.78Z" fill="#150E00"/>
<path d="M324.68 260.97L349.53 194.68L359.62 167.88L359.64 167.83L357.23 166.99L353.5 165.68L347.86 163.48L347.54 163.36L338.1 188.55L313.08 255.33C317.05 256.66 321.7 258.81 324.68 260.96V260.97Z" fill="#582A1A"/>
<path d="M308.1 305.38C306.94 303.39 305.28 301.74 302.96 300.91C300.64 300.08 298.32 300.25 296 300.74C294.18 301.24 292.36 302.06 291.03 303.39C289.54 304.71 288.38 306.37 287.55 308.36C286.06 312.34 286.72 316.48 288.88 319.63C289.71 320.95 290.7 321.95 292.03 322.61H304.79C306.94 321.12 308.6 319.13 309.6 316.48C311.09 312.5 310.26 308.52 308.11 305.38H308.1ZM295.84 319.8C292.03 318.31 290.04 313.83 291.53 309.69C293.02 305.71 297.5 303.56 301.47 305.05C305.28 306.38 307.27 311.02 305.78 314.99C304.12 319.13 299.81 321.29 295.84 319.8Z" fill="#FFA724"/>
<path d="M301.48 305.05C297.5 303.56 293.03 305.71 291.54 309.69C290.05 313.83 292.04 318.31 295.85 319.8C299.83 321.29 304.14 319.14 305.79 314.99C307.28 311.01 305.29 306.37 301.48 305.05Z" fill="#D43131"/>
<path d="M360.3 147.4L364.24 148.87L383.67 126.57L383.72 126.51L378.11 111.67L375.87 105.76L362.38 113.01L356.34 116.27V116.29L356.36 145.92L360.3 147.4Z" fill="#150E00"/>
<path d="M120.549 291.93C117.069 292.26 113.749 292.59 110.279 292.76C109.609 292.93 108.95 292.93 108.29 292.93C101.5 293.42 94.4095 293.4 87.4395 293.4C87.9195 297.47 88.9597 301.25 90.7397 304.72C95.2297 304.72 99.8294 304.681 104.149 304.361C119.349 303.381 134.19 301.29 148.27 297.74C148.96 295.04 149.87 292.42 149.87 289.5C149.87 288.43 149.379 287.52 149.279 286.48C140.789 288.74 131.839 290.621 122.879 291.601L120.56 291.93H120.549ZM95.3696 302.621C93.3996 302.861 91.5696 301.161 91.2896 298.841C91.0096 296.511 92.3796 294.43 94.3496 294.19C96.3196 293.95 98.1497 295.64 98.4297 297.97C98.7097 300.3 97.3396 302.381 95.3696 302.621ZM104.259 300.271C103.359 300.381 102.529 299.611 102.399 298.551C102.269 297.491 102.9 296.54 103.79 296.43C104.69 296.32 105.519 297.09 105.649 298.15C105.779 299.21 105.149 300.16 104.259 300.26V300.271ZM114.229 302.041C112.259 302.281 110.429 300.59 110.149 298.26C109.869 295.93 111.239 293.851 113.209 293.611C115.179 293.371 117.01 295.06 117.29 297.39C117.57 299.72 116.199 301.801 114.229 302.041ZM143.129 291.051C143.959 290.951 144.73 291.66 144.85 292.65C144.97 293.64 144.39 294.511 143.56 294.611C142.73 294.711 141.959 294.001 141.839 293.021C141.719 292.041 142.299 291.161 143.129 291.061V291.051ZM132.709 291.071C134.709 290.831 136.56 292.54 136.85 294.9C137.14 297.26 135.75 299.371 133.75 299.611C131.75 299.851 129.899 298.131 129.609 295.771C129.319 293.411 130.709 291.301 132.709 291.061V291.071ZM125.049 296.521C125.169 297.541 124.569 298.451 123.709 298.551C122.849 298.651 122.05 297.91 121.93 296.9C121.81 295.88 122.41 294.981 123.27 294.871C124.13 294.771 124.929 295.501 125.049 296.521Z" fill="#FFE500"/>
<path d="M104.14 287.79C119.35 286.81 134.17 284.77 148.25 281.23C144.65 267.18 132.89 256.62 118.27 256.62C118.16 256.62 118.07 256.68 117.96 256.68V256.75C118.19 258.53 116.14 260.17 113.59 260.48C111.38 260.75 109.64 259.92 108.93 258.58C104.84 259.92 101.17 261.98 97.9902 264.81C91.5502 270.54 87.37 278.69 86.96 288.09C92.68 288.09 98.5899 288.11 104.15 287.79H104.14Z" fill="#FFE500"/>
<path d="M120.55 308.51C117.07 308.84 113.75 309.17 110.28 309.34C109.61 309.51 108.95 309.51 108.29 309.51C103.69 309.83 98.77 309.91 94 309.77C99.79 317.28 108.3 322.399 118.27 322.399C130.75 322.399 141.3 314.7 146.44 303.77C138.74 305.72 130.89 307.209 122.87 308.189L120.55 308.52V308.51Z" fill="#FFE500"/>
<path d="M147.56 301.35C147.36 301.83 147.29 302.37 147.04 302.82C147.25 302.34 147.37 301.85 147.56 301.35Z" fill="#FFE500"/>
<path d="M109.52 251.24L109.75 253.16C110.13 253.39 110.5 253.491 110.86 253.581C111.94 253.731 113.12 253.72 114.23 253.17C114.68 252.98 115.01 252.8 115.44 252.47L115.21 250.551L114.78 247L123.15 245.99L122.32 239.13L113.95 240.14L112.87 231.23L112.77 230.4L107.08 231.091L108.16 240.01L108.26 240.831L107.72 240.9L100.01 241.831L100.84 248.69L105.41 248.14L109.1 247.69L109.53 251.24H109.52Z" fill="#FFA500"/>
<path d="M115.81 255.49C115.6 255.66 115.48 255.67 115.26 255.83C114.6 256.19 113.92 256.41 113.1 256.51C112.4 256.59 111.69 256.54 111.08 256.34C110.71 256.24 110.35 256.15 110.1 256.04C109.87 256.07 109.62 255.96 109.49 255.84C108.63 255.53 108.06 254.76 107.96 253.94L108.34 257.09L108.46 258.05C108.5 258.29 108.82 258.38 108.93 258.59C109.64 259.93 111.38 260.76 113.59 260.49C116.15 260.18 118.19 258.54 117.97 256.76V256.69L117.85 255.8L117.49 252.78C117.59 253.6 117.22 254.48 116.46 254.99C116.25 255.16 116.03 255.32 115.81 255.49Z" fill="#FFA500"/>
<path d="M114.241 253.17C113.131 253.72 111.951 253.73 110.871 253.58C110.501 253.48 110.14 253.39 109.76 253.16L109.53 251.24C108.43 251.93 107.851 252.98 107.971 253.93C108.071 254.75 108.63 255.52 109.5 255.83C109.63 255.95 109.88 256.06 110.11 256.03C110.36 256.14 110.72 256.24 111.09 256.33C111.7 256.53 112.42 256.58 113.11 256.5C113.92 256.4 114.6 256.18 115.27 255.82C115.48 255.65 115.6 255.64 115.82 255.48C116.04 255.31 116.251 255.15 116.471 254.98C117.231 254.47 117.6 253.59 117.5 252.77C117.38 251.81 116.45 250.95 115.23 250.54L115.46 252.46C115.03 252.79 114.7 252.97 114.25 253.16L114.241 253.17Z" fill="#AA8100"/>
<path d="M86.9101 293.41C87.0801 293.41 87.2601 293.4 87.4301 293.4C94.3901 293.4 101.49 293.41 108.28 292.93C108.94 292.93 109.6 292.93 110.27 292.76C113.75 292.59 117.06 292.26 120.54 291.93L122.86 291.6C131.82 290.62 140.78 288.74 149.26 286.48C149.4 286.44 149.57 286.43 149.71 286.39C149.61 284.6 149.33 282.79 148.83 281.13C148.64 281.18 148.42 281.17 148.24 281.22C134.15 284.77 119.34 286.81 104.13 287.78C98.5698 288.11 92.6698 288.08 86.9398 288.08C86.8598 288.08 86.7698 288.08 86.6898 288.08C86.5898 288.25 86.64 289 86.62 289.5C86.55 291.15 86.6998 293.59 86.8998 293.39L86.9101 293.41Z" fill="#E9B100"/>
<path d="M90.73 304.72C90.57 304.72 90.4102 304.73 90.2402 304.73C90.9002 306.55 91.8799 308.27 93.3599 309.77C93.5699 309.77 93.7802 309.75 93.9902 309.76C98.7602 309.9 103.68 309.82 108.28 309.5C108.94 309.5 109.6 309.5 110.27 309.33C113.75 309.16 117.06 308.83 120.54 308.5L122.86 308.17C130.88 307.19 138.73 305.7 146.43 303.75C146.53 303.73 146.63 303.72 146.73 303.7C146.89 303.44 146.9 303.09 147.04 302.82C147.29 302.37 147.36 301.83 147.56 301.35C148.06 300.14 148.72 299 148.86 297.66C148.67 297.71 148.45 297.7 148.25 297.75C134.18 301.3 119.34 303.39 104.13 304.37C99.8099 304.69 95.2102 304.72 90.7202 304.73L90.73 304.72Z" fill="#E9B100"/>
<path d="M94.3503 294.19C92.3803 294.43 91.0102 296.51 91.2902 298.84C91.5702 301.17 93.4003 302.86 95.3703 302.62C97.3403 302.38 98.7103 300.3 98.4303 297.97C98.1503 295.64 96.3203 293.95 94.3503 294.19Z" fill="#E9B100"/>
<path d="M113.22 293.611C111.25 293.851 109.88 295.93 110.16 298.26C110.44 300.59 112.27 302.281 114.24 302.041C116.21 301.801 117.58 299.72 117.3 297.39C117.02 295.06 115.19 293.371 113.22 293.611Z" fill="#E9B100"/>
<path d="M133.751 299.62C135.751 299.38 137.141 297.27 136.851 294.91C136.561 292.55 134.711 290.83 132.711 291.08C130.711 291.32 129.321 293.43 129.611 295.79C129.891 298.15 131.751 299.87 133.751 299.63V299.62Z" fill="#E9B100"/>
<path d="M102.41 298.55C102.54 299.61 103.37 300.38 104.27 300.27C105.17 300.16 105.79 299.22 105.66 298.16C105.53 297.1 104.699 296.33 103.799 296.44C102.899 296.55 102.28 297.5 102.41 298.56V298.55Z" fill="#E9B100"/>
<path d="M144.859 292.65C144.739 291.67 143.97 290.95 143.14 291.05C142.31 291.15 141.73 292.03 141.85 293.01C141.97 293.99 142.739 294.7 143.569 294.6C144.399 294.5 144.979 293.62 144.859 292.64V292.65Z" fill="#E9B100"/>
<path d="M123.72 298.55C124.58 298.45 125.18 297.54 125.06 296.52C124.94 295.51 124.14 294.77 123.28 294.87C122.42 294.97 121.82 295.88 121.94 296.9C122.06 297.91 122.86 298.66 123.72 298.55Z" fill="#E9B100"/>
<path d="M218.13 102.63C217.9 105.16 220.39 105.7 220.39 105.7C220.39 105.7 238.66 103.18 244.55 104.76C247.82 105.03 246.02 102.63 246.02 102.63C246.02 102.63 224.79 96.6296 218.13 102.63Z" fill="black"/>
<path d="M237.96 114.35C237.96 116.56 236.38 118.43 234.5 118.43C232.62 118.43 231.05 116.56 231.05 114.35C231.05 113.33 231.34 112.48 231.91 111.8L232.77 111.77C230.51 111.77 228.56 111.7 227.97 111.42C226.26 110.62 226.03 113.29 226.37 114.35C226.71 115.42 231.85 120.22 235.66 119.55C239.47 118.88 243.65 114.62 242.52 111.42C242.52 111.42 240.03 111.57 237.11 111.68C237.67 112.36 237.96 113.35 237.96 114.35Z" fill="#CCCCCC"/>
<path d="M231.05 114.35C231.05 116.56 232.63 118.43 234.5 118.43C236.37 118.43 237.96 116.56 237.96 114.35C237.96 113.35 237.67 112.36 237.11 111.68C237.11 111.67 237.11 111.64 237.1 111.63L232.78 111.77L231.92 111.8C231.34 112.48 231.06 113.33 231.06 114.35H231.05Z" fill="black"/>
<path d="M210.75 111.3C210.75 111.3 210.32 111.47 208.16 111.47C208.88 112.32 209.169 113.34 209.169 114.36C209.169 116.57 207.729 118.44 205.859 118.44C203.989 118.44 202.399 116.57 202.399 114.36C202.399 113.17 202.829 112.15 203.549 111.3C198.799 111.47 197.939 115.38 197.939 115.38C197.939 115.38 199.669 118.61 205.859 118.95C211.909 119.46 210.75 111.3 210.75 111.3Z" fill="#CCCCCC"/>
<path d="M205.86 118.43C207.73 118.43 209.17 116.56 209.17 114.35C209.17 113.33 208.88 112.31 208.16 111.46C207.3 111.46 206.14 111.46 204.42 111.29H203.56C202.84 112.14 202.41 113.16 202.41 114.35C202.41 116.56 203.99 118.43 205.87 118.43H205.86Z" fill="black"/>
<path d="M227.41 134.26C227.13 135.78 225.92 136.92 224.79 137.77C222.28 138 219.81 138.4 217.36 139.51C215.02 140.92 212.82 141.56 211.7 139.59C210.65 137.69 210.19 134.51 210.22 132.03C210.3 129.9 212.84 128.05 214.27 125.5C215.3 123.56 215.01 121.98 215.01 120.38C214.93 118.79 214.72 117.25 214.49 115.72C213.92 112.68 213.15 109.72 212.32 106.8C212.77 109.83 213.1 112.9 213.33 115.93C213.49 117.44 213.62 118.95 213.63 120.44C213.66 121.85 213.53 123.57 213.09 124.25L213.05 124.31C211.78 126.65 209.02 127.69 208.2 131.69C208.03 135.03 208.14 138.16 210.02 141.14C212.3 144.61 216.3 142.7 218.03 141.35C220.17 140.19 222.65 139.59 225.06 139.21L225.24 139.18L225.33 139.11C226.71 138.05 228.02 136.48 228.13 134.33C228.14 132.13 226.64 130.78 225.35 129.94C226.55 131.01 227.68 132.64 227.4 134.25L227.41 134.26Z" fill="black"/>
<path d="M214.319 125.439C214.319 125.439 214.289 125.47 214.279 125.5L214.319 125.439Z" fill="black"/>
<path d="M223.18 286.31C223.29 285.91 223.18 288.83 222.81 290.48C221.76 294.5 218.46 300.03 216.09 303.08C215.89 303.34 216.12 303.72 216.4 303.6C220.24 301.94 227.85 301.94 231.69 303.6C231.97 303.72 232.2 303.34 232 303.09C229.68 300.09 226.51 294.71 225.28 290.49C224.97 289.07 224.79 287.65 224.71 286.21C229.88 294.81 241.07 290.79 241.07 281.11C241.07 269.78 228.39 263.99 224.1 253.45L224.04 253.3L223.97 253.45C219.69 264 207.01 269.78 207.01 281.11C207.01 290.59 217.87 294.25 223.17 286.32L223.18 286.31Z" fill="black"/>
<path d="M174.59 550.3H174.55L173.52 553.51L174.94 554.79L179.03 558.35L178.94 558.4L170.59 562.5L168.17 569.54L166.16 575.75L161.62 589.44L176.87 579.23L172.12 574.04C172.43 571.33 174.54 567 184.15 561.83C190.17 568.97 189.78 573.51 188.54 575.98L181.04 579.84L189.69 592.78L203.96 582.55L198.84 577.27C198.91 574.73 200.48 570.96 208.08 565.96C215.66 574.67 215.59 580.23 214.43 583.18L205.25 588.23L217.47 605.58L234.42 591.86L227.37 584.92C227.24 581.63 228.84 576.24 238.66 569.5C244.61 576.16 244.88 580.41 244.07 582.76L237.55 586.64L248.1 599.84L260.42 589.57L254.43 583.83C254.07 581.41 255.08 576.8 263.16 571.46C270.71 578.77 271.48 583.38 270.8 585.99L264.65 589.97L276.12 603.41V589.01L275.99 582.7L275.96 575.36L268.97 569.27L274.78 566.45L275.83 565.93L275.94 562.47L240.63 558.23L174.62 550.3H174.59ZM196.5 565.99L189.13 559.58L198.23 555.16L205.6 561.57L196.51 565.99H196.5ZM215.84 562.81L224.94 558.39L232.31 564.8L223.22 569.22L215.85 562.81H215.84ZM251.93 561.66L259.3 568.08L250.21 572.5L242.84 566.08L251.93 561.66Z" fill="#FFA500"/>
<path d="M266.871 550.8C258.581 551.3 250.461 551.3 242.681 550.8C230.581 550.3 218.98 548.98 207.71 546.49C202.24 545.5 196.941 544.17 191.641 542.68C191.471 542.68 191.641 542.35 191.641 542.35C186.501 541.19 181.861 539.7 177.061 537.88L174.9 548.15H174.911L174.92 548.07L276.28 560.24H276.311L278.13 549.96H277.96C274.15 550.29 270.5 550.62 266.86 550.79L266.871 550.8Z" fill="#FFA500"/>
<path d="M174.93 548.07L174.91 548.15L174.54 550.29L174.59 550.3L240.6 558.23L275.91 562.46L276.29 560.24L174.93 548.07Z" fill="#862D26"/>
<path d="M250.19 572.5L259.29 568.09L251.92 561.67L242.83 566.09L250.19 572.5Z" fill="#862D26"/>
<path d="M232.3 564.811L224.93 558.4L215.83 562.821L223.2 569.23L232.3 564.811Z" fill="#862D26"/>
<path d="M205.58 561.57L198.22 555.16L189.12 559.58L196.49 565.99L205.58 561.57Z" fill="#862D26"/>
<path d="M275.93 575.35L275.939 575.36L275.91 568.83L275.89 565.88L274.74 566.44L268.939 569.26L275.93 575.35Z" fill="#862D26"/>
<path d="M174.939 554.79L173.5 553.55L172.569 556.3L170.52 562.49L178.93 558.4L179.029 558.36L174.939 554.79Z" fill="#862D26"/>
<path d="M130.32 353.6C132.14 350.29 130.65 345.81 128 342.99C127.67 342.49 127.17 342 126.67 341.67C124.18 339.18 121.37 337.2 119.05 334.54C116.4 331.23 115.07 326.92 114.41 322.61H92.7002C93.0302 323.94 93.1998 325.26 93.5298 326.59C96.3498 337.86 104.63 347.3 114.41 353.6C116.9 355.26 119.38 356.58 122.2 357.08C124.69 357.41 127.34 356.75 129.16 354.92C129.49 354.92 129.82 354.59 129.99 354.26C130.16 354.09 130.32 353.76 130.32 353.6Z" fill="#F6F3F6"/>
<path d="M179.21 341.83C177.88 343.16 176.06 343.99 174.24 344.48L172.58 349.12L172.41 349.45C172.91 349.45 173.57 349.45 174.07 349.28C174.9 350.61 177.22 355.74 173.41 359.22C172.09 360.55 170.26 360.38 168.61 359.55L167.95 361.38C169.27 362.04 171.1 362.54 173.09 362.54C175.25 362.21 174.25 368.84 170.44 368.01C168.78 367.68 167.29 367.51 165.8 367.01L164.64 370.32C167.46 372.31 170.11 374.13 170.11 374.13C170.11 374.13 174.42 378.77 166.47 380.26C164.48 379.93 162.99 379.43 161.33 378.94L160.34 381.43C162.99 383.09 165.97 384.58 167.63 384.58C171.6 384.91 167.46 392.04 164.32 391.87C163.16 391.87 160.34 391.04 157.19 389.88L132.17 456.66C135.32 458.15 138.47 459.81 141.78 461.47C141.95 461.47 141.95 461.64 142.11 461.64C150.23 444.9 169.12 402.65 178.23 348.46C178.56 346.31 179.06 344.15 179.23 341.83H179.21Z" fill="#444891"/>
<path d="M126.68 341.67C128.01 338.19 129.5 334.88 130.99 331.56C132.65 327.75 134.97 323.6 139.11 322.94C143.42 322.28 147.07 325.92 150.05 329.24C153.7 333.55 157.34 338.02 161.15 342.33L162.14 339.84C159.98 336.69 159.16 332.71 160.65 328.74C161.64 326.09 163.3 324.1 165.46 322.61H114.42C115.08 326.92 116.41 331.23 119.06 334.54C121.38 337.19 124.2 339.18 126.68 341.67Z" fill="#DF0401"/>
<path d="M266.87 550.8C268.36 548.48 269.52 546 270.18 543.35H270.009C270.009 543.35 260.56 545.34 258.58 543.35C256.76 541.52 258.58 540.53 258.58 540.53C258.58 540.53 268.519 541.03 270.509 541.03C270.679 540.53 270.679 540.04 270.839 539.54C271.169 538.05 271.67 536.72 272.16 535.23C272.82 532.75 273.149 530.09 273.319 527.44C273.819 521.47 274.309 515.51 274.479 509.71C274.649 505.07 274.649 500.27 273.149 495.79C272.649 494.8 271.99 493.64 271 493.64C270.5 493.64 270.009 493.97 269.669 494.3C266.849 496.13 264.529 498.94 261.379 499.93C260.219 500.43 259.059 500.43 257.899 500.59C255.249 500.92 252.429 501.09 249.779 501.42C248.789 501.59 247.629 501.75 246.629 501.25C245.799 501.08 245.139 500.59 244.479 500.09C241.829 498.27 239.009 496.78 236.029 495.78C234.699 495.28 233.54 494.95 232.22 495.12C229.4 495.45 227.249 497.77 225.919 500.26C224.429 502.58 223.27 505.4 220.95 507.05C219.79 507.88 218.46 508.37 217.47 509.37C215.15 511.69 215.31 515.67 212.99 517.99C212.33 518.65 211.499 519.15 210.839 519.81C209.509 521.14 208.85 523.29 208.85 525.28C208.85 527.27 209.349 529.25 209.509 531.25C210.009 536.39 208.679 541.52 207.689 546.49C218.959 548.98 230.56 550.3 242.66 550.8C250.45 551.3 258.57 551.3 266.85 550.8H266.87ZM272.299 529.85C272.299 529.85 271.439 533.76 266.689 533.93H265.83C264.1 533.76 262.949 533.76 262.089 533.76C259.929 533.76 259.5 533.93 259.5 533.93C259.5 533.93 258.349 525.77 264.399 526.28C270.589 526.62 272.319 529.85 272.319 529.85H272.299ZM244.899 506.1L244.99 506.03L245.169 506C247.579 505.63 250.07 505.02 252.2 503.86C253.93 502.52 257.929 500.6 260.209 504.07C262.079 507.05 262.199 510.19 262.029 513.52C261.209 517.52 258.45 518.56 257.18 520.9L257.14 520.96C256.7 521.64 256.569 523.36 256.589 524.77C256.589 526.26 256.73 527.77 256.89 529.28C257.12 532.32 257.449 535.38 257.899 538.41C257.069 535.49 256.299 532.53 255.729 529.49C255.499 527.96 255.299 526.42 255.209 524.83C255.209 523.23 254.93 521.65 255.95 519.71C255.94 519.73 255.92 519.74 255.91 519.77L255.95 519.71C257.38 517.16 259.92 515.31 260 513.18C260.03 510.7 259.57 507.52 258.52 505.62C257.41 503.65 255.21 504.29 252.87 505.7C250.42 506.81 247.949 507.21 245.439 507.44C244.309 508.29 243.09 509.43 242.81 510.95C242.53 512.56 243.659 514.19 244.859 515.26C243.569 514.41 242.07 513.07 242.08 510.87C242.2 508.72 243.499 507.16 244.879 506.09L244.899 506.1ZM234.569 525.67C238.379 525.01 243.519 529.8 243.859 530.87C244.199 531.94 243.969 534.6 242.259 533.8C241.669 533.52 239.719 533.44 237.459 533.45L233.14 533.59C233.14 533.59 233.14 533.56 233.12 533.54C230.21 533.65 227.709 533.8 227.709 533.8C226.579 530.6 230.759 526.34 234.569 525.67ZM225.68 540.47C231.57 542.05 249.839 539.54 249.839 539.54C249.839 539.54 252.32 540.07 252.1 542.61C245.44 548.61 224.209 542.61 224.209 542.61C224.209 542.61 222.4 540.21 225.68 540.48V540.47Z" fill="#FB898C"/>
<path d="M295.37 477.39C298.52 475.23 297.19 470.43 295.54 466.95C293.05 465.62 292.23 463.3 291.73 460.32V460.15C290.9 456.01 290.9 451.2 287.92 448.55C284.61 445.4 279.3 446.73 274.83 445.57C270.86 444.58 267.37 441.76 263.23 441.76C261.24 441.76 259.26 442.42 257.26 442.26C251.46 442.09 246.32 435.13 240.86 437.29C239.37 437.79 238.21 438.95 237.05 439.94C233.74 443.42 230.42 447.4 225.95 449.22C223.96 450.05 221.64 450.38 219.65 451.54C216.67 453.2 214.84 456.35 212.69 459C209.71 463.14 206.06 466.62 201.92 469.61C199.93 470.93 197.44 472.1 195.46 471.1C191.32 468.95 194.47 462.15 191.81 458.34C190.98 457.35 189.99 456.68 188.83 456.52C187.51 456.02 186.18 456.02 184.85 456.35C182.36 457.01 180.38 458.67 178.39 460.33C175.57 462.48 172.59 464.8 169.77 467.12C168.28 468.28 166.79 469.44 165.46 470.76C164.13 472.25 162.81 473.74 161.81 475.4C159.82 478.71 159.49 483.19 161.81 486.34C162.64 487.5 163.97 488.5 164.79 489.65C166.78 492.63 166.45 496.94 168.6 499.76C169.92 501.42 171.91 502.41 172.74 504.4C174.23 507.55 171.75 511.52 173.57 514.34C174.23 515.5 175.56 516.16 176.39 516.99C179.54 520.14 178.71 525.28 177.55 529.42C176.56 533.39 176.06 535.72 177.05 537.87C181.86 539.69 186.49 541.18 191.63 542.34C191.63 542.34 191.46 542.67 191.63 542.67C196.93 544.16 202.23 545.49 207.7 546.48C208.69 541.51 210.02 536.37 209.52 531.24C209.35 529.25 208.86 527.26 208.86 525.27C208.86 523.28 209.52 521.13 210.85 519.8C211.51 519.14 212.34 518.64 213 517.98C215.32 515.66 215.16 511.68 217.48 509.36C218.47 508.37 219.8 507.87 220.96 507.04C223.28 505.38 224.44 502.56 225.93 500.25C227.26 497.76 229.41 495.44 232.23 495.11C233.56 494.94 234.72 495.28 236.04 495.77C239.02 496.77 241.84 498.26 244.49 500.08C245.15 500.58 245.81 501.07 246.64 501.24C247.64 501.74 248.8 501.57 249.79 501.41C252.44 501.08 255.26 500.91 257.91 500.58C259.07 500.41 260.23 500.41 261.39 499.92C264.54 498.93 266.86 496.11 269.68 494.29C270.01 493.96 270.51 493.63 271.01 493.63C272 493.63 272.67 494.79 273.16 495.78C274.65 500.26 274.65 505.06 274.49 509.7C274.32 515.5 273.83 521.47 273.33 527.43C273.16 530.08 272.83 532.73 272.17 535.22C271.67 536.71 271.18 538.04 270.85 539.53C270.68 540.03 270.68 540.52 270.52 541.02C268.53 541.02 258.59 540.52 258.59 540.52C258.59 540.52 256.77 541.51 258.59 543.34C260.58 545.33 270.02 543.34 270.02 543.34H270.19C269.53 545.99 268.36 548.48 266.88 550.79C270.52 550.62 274.17 550.29 277.98 549.96H278.15C283.29 544.33 281.96 534.55 286.77 528.09C287.6 526.93 288.59 525.93 289.09 524.61C290.25 521.79 288.76 518.64 289.42 515.66C290.25 512.68 293.23 510.69 294.89 508.04C298.86 502.41 296.88 494.62 293.73 488.32C293.07 486.83 292.07 485.17 291.74 483.35V480.04C291.91 480.04 292.24 479.87 292.57 479.71C292.74 479.21 293.07 478.88 293.4 478.55C294.06 478.05 294.72 477.89 295.39 477.39H295.37ZM259.94 492.52C258.56 493.03 257.1 493.55 255.69 493.15C255.13 492.99 254.61 492.69 254.06 492.53C252.95 492.2 252.92 492.25 251.79 492.43C250.71 492.6 249.1 492.97 248.02 492.78C246.94 492.59 246.39 491.61 245.67 490.64C245.36 490.01 245.26 488.31 245.83 488.05C249.24 486.49 252.54 487.28 256.16 486.65C257.98 486.34 259.81 486.02 261.65 486.14C262.03 486.16 262.46 486.24 262.68 486.62C262.79 486.82 262.82 487.06 262.84 487.29C263.15 490.27 262.34 491.63 259.94 492.53V492.52Z" fill="black"/>
<path d="M288.549 322.61C288.719 321.62 288.719 320.62 288.879 319.63C286.719 316.48 286.059 312.34 287.549 308.36C288.379 306.37 289.539 304.71 291.029 303.39C291.199 301.07 291.69 298.92 292.02 296.76C301.13 242.57 320.029 200.32 328.149 183.58C320.689 179.77 313.069 175.96 304.779 174.47C303.449 175.8 301.96 176.96 300.47 178.11C297.65 180.43 294.67 182.75 291.85 184.9C289.86 186.56 287.87 188.22 285.39 188.88C284.07 189.21 282.739 189.21 281.419 188.71C278.109 197.49 272.469 213.57 266.839 233.78C265.349 238.92 263.86 244.55 262.37 250.35C258.06 267.92 253.92 287.8 251.1 308.35C250.6 313.16 250.109 317.79 249.439 322.6H263.549C266.369 326.91 268.849 331.71 271.169 336.85C278.629 353.59 283.43 374.3 286.41 394.85C287.24 400.32 288.069 405.95 288.729 411.42C290.719 429.81 291.549 447.21 291.709 460.14V460.31C292.209 463.29 293.03 465.61 295.52 466.94C297.18 470.42 298.5 475.22 295.35 477.38C294.69 477.88 294.029 478.04 293.359 478.54C293.029 478.87 292.699 479.2 292.529 479.7C295.679 478.04 298.83 476.06 301.81 474.07C307.61 470.26 313.409 466.28 318.879 461.81H319.049C317.389 433.31 310.93 357.24 289.72 322.61H288.529H288.549Z" fill="#F6F3F6"/>
<path d="M361.78 387.18L361.9 388.14L362.28 391.29C362.4 392.25 361.821 393.29 360.721 393.98L361.15 397.53L364.84 397.08C365.24 395.71 365.66 394.37 366.13 393.02C367.69 388.63 370.1 384.56 372.26 380.39C369.08 383.22 365.41 385.28 361.32 386.62C361.43 386.83 361.74 386.92 361.78 387.16V387.18Z" fill="#DF0401"/>
<path d="M362.081 405.23C362.191 404.97 362.38 404.75 362.48 404.48C362.5 404.43 362.51 404.38 362.53 404.34L361.98 404.41L362.081 405.24V405.23Z" fill="#DF0401"/>
<path d="M347.92 406.1L347.09 399.24L355.46 398.23L355.03 394.68C353.8 394.27 352.87 393.41 352.76 392.45L352.4 389.43L352.29 388.54C352.18 388.54 352.09 388.6 351.98 388.6C337.35 388.6 325.59 378.04 322 363.99C321.81 364.04 321.59 364.03 321.4 364.08C320.9 362.42 320.62 360.61 320.52 358.82C320.67 358.78 320.83 358.77 320.98 358.73C320.88 357.68 320.39 356.78 320.39 355.71C320.39 352.79 321.3 350.16 321.99 347.46C321.8 347.51 321.58 347.5 321.38 347.55C321.52 346.2 322.18 345.05 322.69 343.84C322.87 343.36 323 342.87 323.2 342.4C323.35 342.12 323.35 341.77 323.52 341.51C323.62 341.48 323.72 341.48 323.82 341.45C328.95 330.52 339.51 322.82 351.98 322.82C361.95 322.82 370.46 327.93 376.25 335.44C376.46 335.44 376.67 335.42 376.88 335.43C378.36 336.93 379.34 338.65 380 340.47C379.84 340.47 379.68 340.48 379.52 340.48C381.3 343.95 382.33 347.73 382.82 351.81C382.99 351.81 383.17 351.8 383.34 351.8C383.54 351.6 383.69 354.03 383.62 355.68C388.13 344.97 391.91 333.99 393.16 322.6H393.13C391.8 299.23 385.67 276.2 378.55 253.83C376.4 247.53 374.24 241.24 371.76 235.11C366.62 222.68 359.99 211.08 353.37 199.48C352.71 198.32 352.05 196.99 351.21 196C350.71 195.5 350.22 195.17 349.55 194.67L324.7 260.96C325.86 261.62 326.69 262.45 327.35 263.28C331.16 268.25 334.81 280.18 334.81 280.18C334.81 280.18 337.63 286.64 341.11 290.29C342.93 288.47 345.59 287.8 348.07 288.14C350.89 288.64 353.37 289.96 355.86 291.62C365.64 297.92 373.92 307.36 376.74 318.63C377.07 319.96 377.24 321.28 377.57 322.61H292.06C290.74 321.95 289.74 320.95 288.91 319.63C288.74 320.62 288.74 321.62 288.58 322.61H289.77C310.98 357.24 317.45 433.31 319.1 461.81C334.51 449.05 346.11 432.48 356.55 415.58C356.88 415.06 357.07 414.52 357.4 414.01L356.32 405.1L347.95 406.11L347.92 406.1Z" fill="#444891"/>
<path d="M170.09 349.289C169.26 349.119 168.6 348.789 167.77 348.459C165.28 347.299 163.46 345.309 161.8 343.159C161.63 342.829 161.3 342.659 161.14 342.329C157.33 338.019 153.68 333.549 150.04 329.239C147.06 325.929 143.41 322.279 139.1 322.939C134.96 323.599 132.64 327.739 130.98 331.559C129.49 334.869 128 338.189 126.67 341.669C127.17 341.999 127.66 342.499 128 342.989C130.65 345.809 132.14 350.28 130.32 353.6C130.32 353.77 130.15 354.099 129.99 354.259C129.82 354.589 129.49 354.919 129.16 354.919C132.64 358.559 135.46 365.029 135.46 365.029C135.46 365.029 139.1 376.959 142.92 381.929C143.58 382.759 144.41 383.579 145.57 384.249C148.55 386.409 153.19 388.559 157.17 389.879C160.32 391.039 163.14 391.87 164.3 391.87C167.45 392.04 171.59 384.909 167.61 384.579C165.95 384.579 162.97 383.089 160.32 381.429C156.84 379.269 153.86 376.619 154.52 375.799C157.5 377.289 159.49 378.289 161.31 378.949C162.97 379.449 164.46 379.939 166.45 380.269C174.41 378.779 170.09 374.139 170.09 374.139C170.09 374.139 167.44 372.319 164.62 370.329C160.48 367.349 155.84 363.87 158.65 364.36C161.3 365.69 163.46 366.519 165.77 367.009C167.26 367.509 168.75 367.669 170.41 368.009C174.22 368.839 175.22 362.209 173.06 362.539C171.07 362.539 169.25 362.039 167.92 361.379C164.61 360.049 162.78 357.569 161.79 355.749C161.46 355.419 161.29 355.089 161.29 354.759C160.96 354.099 160.79 353.599 160.79 353.429L162.12 354.759C162.62 355.259 163.28 355.919 163.94 356.419C164.44 357.079 165.1 357.409 165.6 357.909C165.77 358.079 165.93 358.079 166.1 358.239C166.93 358.739 167.76 359.229 168.59 359.559C170.25 360.389 172.07 360.559 173.39 359.229C177.2 355.749 174.88 350.609 174.05 349.289C173.55 349.459 172.89 349.459 172.39 349.459C171.73 349.459 171.07 349.459 170.4 349.289H170.07H170.09Z" fill="#FFA8B8"/>
<path d="M142.92 381.94C139.11 376.97 135.46 365.04 135.46 365.04C135.46 365.04 132.64 358.58 129.16 354.93C127.34 356.75 124.69 357.42 122.2 357.09C119.38 356.59 116.9 355.26 114.41 353.61C104.64 347.31 96.3498 337.87 93.5298 326.6C93.1998 325.27 93.0302 323.95 92.7002 322.62H178.21C179.54 323.28 180.53 324.28 181.36 325.6C181.53 324.6 181.53 323.61 181.69 322.62H180.5C159.29 287.99 152.83 211.92 151.17 183.42C135.76 196.18 124.16 212.75 113.72 229.65C113.39 230.17 113.2 230.71 112.87 231.23L113.95 240.14L122.32 239.13L123.15 245.99L114.78 247L115.21 250.55C116.44 250.96 117.37 251.82 117.48 252.78L117.84 255.8L117.95 256.69C118.06 256.69 118.15 256.63 118.26 256.63C132.89 256.63 144.65 267.19 148.24 281.24C148.43 281.19 148.65 281.2 148.83 281.15C149.33 282.81 149.61 284.62 149.71 286.41C149.57 286.45 149.4 286.46 149.26 286.5C149.36 287.54 149.85 288.45 149.85 289.52C149.85 292.44 148.94 295.06 148.25 297.76C148.44 297.71 148.66 297.72 148.86 297.67C148.72 299.01 148.06 300.16 147.56 301.36C147.37 301.86 147.25 302.35 147.04 302.83C146.89 303.1 146.89 303.46 146.73 303.71C146.63 303.74 146.53 303.74 146.43 303.76C141.3 314.69 130.74 322.39 118.26 322.39C108.29 322.39 99.7702 317.28 93.9902 309.76C93.7802 309.76 93.5699 309.78 93.3599 309.77C91.8799 308.27 90.9002 306.55 90.2402 304.73C90.4002 304.73 90.56 304.72 90.73 304.72C88.95 301.25 87.9202 297.47 87.4302 293.4C87.2602 293.4 87.0802 293.41 86.9102 293.41C86.7102 293.61 86.5599 291.17 86.6299 289.52C82.1199 300.22 78.3398 311.21 77.0898 322.61H77.1201C78.4401 345.98 84.5802 369.01 91.7002 391.38C93.8602 397.68 96.0102 403.97 98.4902 410.1C103.63 422.53 110.26 434.13 116.89 445.73C117.55 446.89 118.21 448.22 119.04 449.21C119.54 449.71 120.03 450.04 120.7 450.54L145.56 384.25C144.4 383.59 143.57 382.76 142.91 381.93L142.92 381.94Z" fill="#444891"/>
<path d="M178.379 460.32C180.369 458.66 182.359 457.01 184.839 456.34C186.169 456.01 187.489 456.01 188.819 456.51C192.129 447.73 197.769 431.649 203.399 411.439C204.889 406.299 206.379 400.67 207.879 394.87C212.189 377.3 216.329 357.42 219.149 336.87C219.649 332.06 220.15 327.43 220.81 322.62H206.7C203.88 318.31 201.399 313.51 199.069 308.37C191.609 291.63 186.81 270.92 183.83 250.37C183 244.9 182.169 239.27 181.509 233.8C179.519 215.41 178.689 198.01 178.529 185.08V184.909C178.029 181.929 177.2 179.61 174.72 178.28C173.06 174.8 171.74 170 174.89 167.84C175.55 167.34 176.209 167.179 176.879 166.679C177.209 166.349 177.539 166.02 177.709 165.52C174.559 167.18 171.41 169.159 168.43 171.149C162.63 174.959 156.829 178.939 151.359 183.409H151.189C152.849 211.909 159.31 287.97 180.52 322.61H181.709C181.539 323.6 181.539 324.6 181.379 325.59C183.529 328.74 184.199 332.88 182.709 336.86C181.879 338.85 180.719 340.51 179.229 341.83C179.059 344.15 178.569 346.309 178.229 348.459C169.119 402.649 150.229 444.899 142.109 461.639C149.569 465.449 157.189 469.26 165.479 470.75C166.809 469.43 168.3 468.26 169.79 467.11C172.61 464.79 175.59 462.47 178.41 460.32H178.379Z" fill="#F6F3F6"/>
<path d="M188.82 456.51C189.98 456.68 190.98 457.34 191.8 458.33C194.45 462.14 191.301 468.94 195.451 471.09C197.441 472.09 199.931 470.92 201.911 469.6C206.051 466.62 209.701 463.14 212.681 458.99C214.831 456.34 216.651 453.19 219.641 451.53C221.631 450.37 223.95 450.04 225.94 449.21C230.42 447.39 233.731 443.41 237.041 439.93C238.201 438.94 239.361 437.78 240.851 437.28C246.321 435.12 251.45 442.09 257.25 442.25C259.24 442.42 261.231 441.75 263.221 441.75C267.361 441.75 270.85 444.57 274.82 445.56C279.3 446.72 284.601 445.39 287.911 448.54C290.891 451.19 290.891 456 291.721 460.14C291.551 447.22 290.731 429.82 288.741 411.42H203.4C197.77 431.64 192.13 447.71 188.82 456.49V456.51Z" fill="#D8D0E9"/>
<path d="M203.4 411.43H288.741C288.081 405.96 287.25 400.33 286.42 394.86H207.871C206.381 400.66 204.891 406.29 203.391 411.43H203.4Z" fill="#505300"/>
<path d="M207.88 394.86H286.43C283.45 374.31 278.64 353.6 271.19 336.86H219.16C216.34 357.41 212.2 377.29 207.89 394.86H207.88ZM245.53 359.02C245.45 357.59 245.26 356.16 244.96 354.75C243.73 350.53 240.56 345.15 238.24 342.15C238.04 341.89 238.27 341.52 238.55 341.64C242.39 343.3 250 343.3 253.85 341.64C254.13 341.52 254.36 341.9 254.16 342.16C251.79 345.2 248.49 350.74 247.44 354.76C247.08 356.41 246.96 359.33 247.07 358.93C252.37 350.99 263.23 354.66 263.23 364.14C263.23 375.47 250.55 381.26 246.26 391.8L246.2 391.95L246.13 391.8C241.85 381.25 229.16 375.47 229.16 364.14C229.16 354.47 240.35 350.44 245.53 359.04V359.02Z" fill="#7FFFE4"/>
<path d="M261.65 486.129C259.82 486.009 257.98 486.329 256.16 486.639C252.54 487.269 249.24 486.469 245.83 488.039C245.26 488.299 245.36 489.999 245.67 490.629C246.39 491.599 246.94 492.579 248.02 492.769C249.1 492.959 250.71 492.589 251.79 492.419C252.92 492.239 252.95 492.199 254.06 492.519C254.62 492.689 255.14 492.989 255.69 493.139C257.1 493.539 258.56 493.019 259.94 492.509C262.33 491.609 263.15 490.259 262.84 487.269C262.82 487.039 262.79 486.8 262.68 486.6C262.47 486.23 262.04 486.15 261.65 486.12V486.129Z" fill="#9C5F59"/>
<path d="M122.55 481.8L116.71 479.62L113.06 478.25L110.61 477.39L110.63 477.34C109.6 476.96 108.45 477.48 108.07 478.51L107.18 480.88C106.8 481.88 107.35 482.95 108.31 483.37L114.42 485.68L120.54 488C121.56 488.37 122.71 487.86 123.09 486.84L123.98 484.47C124.37 483.44 123.84 482.29 122.81 481.91H122.78L122.7 481.87L122.56 481.81L122.55 481.8Z" fill="#FFA724"/>
<path d="M108.3 483.36H108.28V483.52H108.11L77.4502 518.82L89.8799 551.46L120.7 534.89V488.16L120.53 487.99L114.41 485.67L108.3 483.36ZM113.91 528.92H113.9V528.95L107.85 532.2L94.3599 539.52L92.1299 533.55L86.52 518.71L86.5698 518.65L105.96 496.27L109.94 497.76L113.92 499.25V528.91L113.91 528.92Z" fill="#D44100"/>
<path d="M165.621 357.91C165.121 357.41 164.46 357.08 163.96 356.42C163.3 355.92 162.641 355.26 162.141 354.76L160.811 353.43C160.811 353.6 160.981 354.09 161.311 354.76C161.311 355.09 161.481 355.42 161.811 355.75C162.811 357.57 164.63 360.06 167.94 361.38L168.601 359.55C167.771 359.22 166.94 358.72 166.11 358.23C165.94 358.06 165.78 358.06 165.61 357.9L165.621 357.91Z" fill="#150E00"/>
<path d="M162.141 339.85L161.15 342.34C161.32 342.67 161.651 342.839 161.811 343.169C163.471 345.319 165.29 347.309 167.78 348.469C168.61 348.799 169.271 349.13 170.101 349.3H170.431C171.091 349.47 171.76 349.469 172.42 349.469L172.59 349.139L174.25 344.5C171.93 345 169.611 345.16 167.291 344.33C164.971 343.5 163.31 341.84 162.15 339.86L162.141 339.85Z" fill="#150E00"/>
<path d="M164.63 370.341L165.79 367.03C163.47 366.53 161.32 365.71 158.67 364.38C155.85 363.88 160.49 367.361 164.64 370.351L164.63 370.341Z" fill="#150E00"/>
<path d="M160.32 381.44L161.31 378.95C159.49 378.29 157.5 377.29 154.52 375.8C153.86 376.63 156.84 379.28 160.32 381.43V381.44Z" fill="#150E00"/>
<path d="M145.569 384.26L120.709 450.55L110.62 477.35L110.6 477.4L113.049 478.26L116.729 479.55L122.549 481.81L122.689 481.87L132.14 456.68L157.16 389.9C153.18 388.57 148.54 386.42 145.56 384.27L145.569 384.26Z" fill="#582A1A"/>
<path d="M165.45 322.61C163.29 324.1 161.64 326.09 160.64 328.74C159.15 332.72 159.979 336.7 162.129 339.84C163.289 341.83 164.95 343.48 167.27 344.31C169.59 345.14 171.91 344.97 174.23 344.48C176.06 343.98 177.88 343.16 179.2 341.83C180.69 340.51 181.85 338.85 182.68 336.86C184.17 332.88 183.51 328.74 181.35 325.59C180.52 324.26 179.53 323.27 178.2 322.61H165.439H165.45ZM178.709 335.53C177.219 339.51 172.74 341.66 168.77 340.17C164.96 338.84 162.969 334.2 164.459 330.23C166.119 326.09 170.429 323.93 174.399 325.42C178.209 326.91 180.199 331.39 178.709 335.53Z" fill="#FFA724"/>
<path d="M164.46 330.23C162.97 334.21 164.96 338.85 168.77 340.17C172.75 341.66 177.22 339.51 178.71 335.53C180.2 331.39 178.21 326.91 174.4 325.42C170.42 323.93 166.11 326.08 164.46 330.23Z" fill="#D43131"/>
<path d="M109.939 497.83L106 496.35L86.5796 518.659L86.5195 518.719L92.1294 533.56L94.3696 539.459L107.859 532.209L113.91 528.959V528.929L113.879 499.3L109.939 497.83Z" fill="#150E00"/>
<path d="M349.701 336.72C353.181 336.39 356.491 336.06 359.971 335.89C360.631 335.72 361.3 335.72 361.96 335.72C366.56 335.4 371.47 335.32 376.25 335.46C370.46 327.95 361.95 322.84 351.98 322.84C339.5 322.84 328.95 330.53 323.82 341.47C331.51 339.52 339.371 338.03 347.391 337.05L349.71 336.72H349.701Z" fill="#FFE500"/>
<path d="M322.689 343.86C322.889 343.39 322.96 342.86 323.2 342.42C323 342.9 322.869 343.38 322.689 343.86Z" fill="#FFE500"/>
<path d="M366.1 357.43C350.9 358.41 336.07 360.45 321.99 363.99C325.59 378.04 337.34 388.6 351.97 388.6C352.08 388.6 352.17 388.54 352.28 388.54V388.46C352.06 386.68 354.1 385.04 356.65 384.73C358.87 384.46 360.61 385.29 361.32 386.64C365.41 385.3 369.08 383.24 372.26 380.41C378.7 374.68 382.89 366.53 383.29 357.13C377.57 357.13 371.66 357.11 366.1 357.43Z" fill="#FFE500"/>
<path d="M366.101 340.86C350.901 341.84 336.071 343.92 321.991 347.48C321.301 350.18 320.391 352.8 320.391 355.73C320.391 356.8 320.88 357.7 320.98 358.75C329.47 356.49 338.43 354.61 347.38 353.63L349.701 353.3C353.181 352.97 356.491 352.64 359.971 352.47C360.631 352.3 361.3 352.3 361.96 352.3C368.75 351.81 375.851 351.83 382.811 351.83C382.331 347.76 381.29 343.98 379.51 340.5C375.03 340.5 370.421 340.54 366.101 340.86ZM327.11 354.17C326.28 354.27 325.511 353.56 325.391 352.57C325.271 351.59 325.851 350.71 326.681 350.61C327.511 350.51 328.28 351.22 328.4 352.21C328.52 353.19 327.94 354.07 327.11 354.17ZM337.53 354.15C335.53 354.39 333.681 352.67 333.391 350.31C333.101 347.95 334.491 345.84 336.491 345.6C338.491 345.36 340.34 347.07 340.63 349.43C340.91 351.79 339.53 353.9 337.53 354.14V354.15ZM346.971 350.35C346.111 350.45 345.31 349.71 345.19 348.7C345.07 347.68 345.67 346.77 346.53 346.67C347.39 346.57 348.191 347.31 348.311 348.32C348.431 349.33 347.831 350.24 346.971 350.35ZM357.03 351.61C355.06 351.85 353.231 350.15 352.951 347.83C352.671 345.5 354.04 343.42 356.01 343.18C357.98 342.94 359.81 344.63 360.09 346.96C360.37 349.29 359 351.37 357.03 351.61ZM366.451 348.79C365.551 348.9 364.72 348.13 364.59 347.07C364.46 346.01 365.09 345.06 365.98 344.96C366.88 344.85 367.71 345.62 367.84 346.68C367.97 347.74 367.341 348.69 366.451 348.8V348.79ZM375.9 351.03C373.93 351.27 372.1 349.58 371.82 347.25C371.54 344.92 372.91 342.84 374.88 342.6C376.85 342.36 378.68 344.05 378.96 346.38C379.24 348.71 377.87 350.79 375.9 351.03Z" fill="#FFE500"/>
<path d="M360.72 393.99L360.49 392.07C360.11 391.84 359.74 391.74 359.38 391.65C358.3 391.5 357.12 391.51 356.01 392.06C355.56 392.25 355.23 392.43 354.8 392.76L355.03 394.68L355.46 398.23L347.09 399.24L347.92 406.1L356.29 405.09L357.37 414L357.47 414.83L363.17 414.14L362.09 405.23L361.99 404.4L362.54 404.33L370.24 403.4L369.41 396.54L364.84 397.09L361.15 397.54L360.72 393.99Z" fill="#FFA500"/>
<path d="M352.75 392.45C352.65 391.63 353.01 390.75 353.78 390.24C353.99 390.07 354.21 389.91 354.43 389.74C354.64 389.57 354.76 389.56 354.98 389.4C355.64 389.04 356.32 388.82 357.14 388.72C357.84 388.64 358.55 388.69 359.17 388.89C359.54 388.99 359.9 389.08 360.15 389.19C360.38 389.16 360.63 389.27 360.76 389.39C361.62 389.7 362.19 390.47 362.29 391.29L361.91 388.14L361.79 387.18C361.75 386.94 361.44 386.85 361.33 386.64C360.62 385.3 358.88 384.46 356.66 384.73C354.1 385.04 352.06 386.68 352.28 388.46V388.54L352.4 389.43L352.76 392.45H352.75Z" fill="#FFA500"/>
<path d="M360.141 389.19C359.891 389.08 359.531 388.98 359.161 388.89C358.551 388.69 357.83 388.64 357.13 388.72C356.32 388.82 355.641 389.04 354.971 389.4C354.751 389.57 354.64 389.58 354.42 389.74C354.2 389.91 353.99 390.07 353.77 390.24C353.01 390.75 352.641 391.63 352.741 392.45C352.861 393.41 353.79 394.27 355.01 394.68L354.78 392.76C355.21 392.43 355.541 392.25 355.991 392.06C357.101 391.51 358.28 391.5 359.36 391.65C359.72 391.75 360.091 391.84 360.471 392.07L360.701 393.99C361.801 393.3 362.38 392.26 362.26 391.3C362.16 390.48 361.6 389.71 360.73 389.4C360.6 389.28 360.351 389.17 360.121 389.2L360.141 389.19Z" fill="#AA8100"/>
<path d="M383.609 355.69C383.679 354.04 383.53 351.61 383.33 351.81C383.16 351.81 382.98 351.82 382.81 351.82C375.85 351.82 368.749 351.8 361.959 352.29C361.299 352.29 360.64 352.29 359.97 352.46C356.49 352.63 353.18 352.96 349.7 353.29L347.379 353.62C338.419 354.6 329.459 356.48 320.979 358.74C320.829 358.78 320.67 358.79 320.52 358.83C320.62 360.61 320.909 362.43 321.399 364.09C321.589 364.04 321.81 364.05 322 364C336.08 360.45 350.899 358.41 366.109 357.44C371.669 357.12 377.579 357.14 383.299 357.14C383.379 357.14 383.469 357.14 383.549 357.14C383.649 356.97 383.6 356.22 383.62 355.71L383.609 355.69Z" fill="#E9B100"/>
<path d="M379.509 340.5C379.669 340.5 379.83 340.49 379.99 340.49C379.34 338.67 378.35 336.95 376.87 335.45C376.66 335.45 376.45 335.47 376.24 335.46C371.46 335.32 366.55 335.4 361.95 335.72C361.29 335.72 360.629 335.72 359.959 335.89C356.479 336.06 353.169 336.39 349.689 336.72L347.37 337.05C339.35 338.03 331.499 339.52 323.799 341.47C323.699 341.5 323.6 341.5 323.5 341.53C323.34 341.79 323.33 342.15 323.18 342.42C322.94 342.86 322.869 343.39 322.669 343.86C322.159 345.07 321.509 346.22 321.359 347.57C321.549 347.52 321.77 347.53 321.97 347.48C336.05 343.93 350.88 341.84 366.08 340.86C370.4 340.54 375.01 340.5 379.49 340.5H379.509Z" fill="#E9B100"/>
<path d="M374.87 342.6C372.9 342.84 371.53 344.92 371.81 347.25C372.09 349.58 373.92 351.27 375.89 351.03C377.86 350.79 379.23 348.71 378.95 346.38C378.67 344.05 376.84 342.36 374.87 342.6Z" fill="#E9B100"/>
<path d="M356.01 343.18C354.04 343.42 352.67 345.5 352.95 347.83C353.23 350.16 355.06 351.85 357.03 351.61C359 351.37 360.37 349.29 360.09 346.96C359.81 344.63 357.98 342.94 356.01 343.18Z" fill="#E9B100"/>
<path d="M336.49 345.6C334.49 345.84 333.1 347.95 333.39 350.31C333.67 352.67 335.529 354.39 337.529 354.15C339.529 353.91 340.92 351.8 340.63 349.44C340.34 347.08 338.49 345.36 336.49 345.61V345.6Z" fill="#E9B100"/>
<path d="M364.58 347.06C364.71 348.12 365.54 348.89 366.44 348.78C367.34 348.67 367.96 347.72 367.83 346.66C367.7 345.6 366.87 344.83 365.97 344.94C365.07 345.05 364.45 345.99 364.58 347.05V347.06Z" fill="#E9B100"/>
<path d="M325.391 352.57C325.511 353.55 326.28 354.27 327.11 354.17C327.94 354.07 328.52 353.19 328.4 352.21C328.28 351.23 327.511 350.51 326.681 350.61C325.851 350.71 325.271 351.59 325.391 352.57Z" fill="#E9B100"/>
<path d="M345.19 348.7C345.31 349.71 346.11 350.45 346.97 350.35C347.83 350.25 348.43 349.34 348.31 348.32C348.19 347.3 347.39 346.56 346.53 346.67C345.67 346.77 345.07 347.68 345.19 348.7Z" fill="#E9B100"/>
<path d="M252.11 542.59C252.34 540.06 249.85 539.52 249.85 539.52C249.85 539.52 231.58 542.029 225.69 540.449C222.42 540.179 224.22 542.58 224.22 542.58C224.22 542.58 245.45 548.58 252.11 542.58V542.59Z" fill="black"/>
<path d="M232.279 530.87C232.279 528.66 233.859 526.79 235.729 526.79C237.599 526.79 239.189 528.66 239.189 530.87C239.189 531.89 238.899 532.74 238.319 533.42L237.459 533.45C239.719 533.45 241.669 533.52 242.259 533.8C243.969 534.6 244.199 531.93 243.859 530.87C243.519 529.8 238.389 525.01 234.569 525.67C230.759 526.34 226.579 530.6 227.709 533.8C227.709 533.8 230.2 533.65 233.12 533.54C232.57 532.86 232.269 531.87 232.269 530.87H232.279Z" fill="#CCCCCC"/>
<path d="M239.189 530.87C239.189 528.66 237.609 526.79 235.729 526.79C233.849 526.79 232.279 528.66 232.279 530.87C232.279 531.87 232.569 532.86 233.129 533.54C233.139 533.55 233.129 533.58 233.149 533.59L237.47 533.45L238.33 533.42C238.91 532.74 239.2 531.89 239.2 530.87H239.189Z" fill="black"/>
<path d="M259.49 533.93C259.49 533.93 259.92 533.76 262.08 533.76C261.36 532.91 261.07 531.89 261.07 530.87C261.07 528.66 262.51 526.79 264.38 526.79C266.25 526.79 267.83 528.66 267.83 530.87C267.83 532.06 267.4 533.08 266.68 533.93C271.43 533.76 272.29 529.85 272.29 529.85C272.29 529.85 270.56 526.62 264.37 526.28C258.32 525.77 259.47 533.93 259.47 533.93H259.49Z" fill="#CCCCCC"/>
<path d="M264.39 526.79C262.52 526.79 261.08 528.66 261.08 530.87C261.08 531.89 261.37 532.91 262.09 533.76C262.95 533.76 264.1 533.76 265.83 533.93H266.69C267.41 533.08 267.84 532.06 267.84 530.87C267.84 528.66 266.26 526.79 264.39 526.79Z" fill="black"/>
<path d="M255.92 519.78C255.92 519.78 255.95 519.75 255.96 519.72L255.92 519.78Z" fill="black"/>
<path d="M242.83 510.96C243.11 509.44 244.33 508.3 245.46 507.45C247.97 507.22 250.44 506.82 252.89 505.71C255.23 504.3 257.43 503.66 258.54 505.63C259.59 507.53 260.05 510.71 260.02 513.19C259.94 515.32 257.4 517.17 255.97 519.72C254.94 521.66 255.23 523.24 255.23 524.84C255.31 526.43 255.52 527.97 255.75 529.5C256.32 532.54 257.09 535.5 257.92 538.42C257.47 535.39 257.13 532.33 256.91 529.29C256.75 527.78 256.62 526.27 256.61 524.78C256.59 523.37 256.71 521.65 257.16 520.97L257.2 520.91C258.47 518.57 261.23 517.53 262.05 513.53C262.22 510.19 262.1 507.06 260.23 504.08C257.95 500.61 253.95 502.52 252.22 503.87C250.08 505.03 247.6 505.63 245.19 506.01L245.01 506.04L244.92 506.11C243.54 507.18 242.23 508.74 242.12 510.89C242.11 513.09 243.61 514.44 244.9 515.28C243.7 514.21 242.57 512.58 242.85 510.97L242.83 510.96Z" fill="black"/>
<path d="M246.19 391.93L246.25 391.78C250.53 381.23 263.221 375.451 263.221 364.121C263.221 354.641 252.361 350.98 247.061 358.91C246.951 359.31 247.071 356.39 247.431 354.74C248.481 350.72 251.78 345.19 254.15 342.14C254.35 341.88 254.12 341.511 253.84 341.621C249.99 343.281 242.391 343.281 238.541 341.621C238.261 341.501 238.03 341.88 238.23 342.13C240.55 345.13 243.721 350.51 244.951 354.73C245.251 356.14 245.441 357.57 245.521 359C240.351 350.4 229.15 354.42 229.15 364.1C229.15 375.43 241.831 381.22 246.121 391.76L246.19 391.91V391.93Z" fill="black"/>
<path d="M131.26 50.0405L131.12 49.7305L130.98 50.0405C121.94 72.3005 95.1699 84.5204 95.1699 108.43C95.1699 128.44 118.1 136.17 129.28 119.42C129.52 118.57 129.26 124.74 128.5 128.21C126.28 136.7 119.32 148.371 114.32 154.801C113.9 155.341 114.39 156.14 114.97 155.89C123.09 152.39 139.14 152.39 147.26 155.89C147.85 156.14 148.33 155.351 147.92 154.801C143.02 148.471 136.33 137.1 133.73 128.2C133.08 125.21 132.7 122.2 132.53 119.18C143.44 137.34 167.07 128.84 167.07 108.42C167.07 84.5004 140.3 72.2905 131.26 50.0305V50.0405Z" fill="black"/>
<path d="M334.47 608.07L334.61 608.379L334.75 608.07C343.79 585.81 370.56 573.589 370.56 549.679C370.56 529.669 347.63 521.939 336.45 538.689C336.21 539.539 336.47 533.369 337.23 529.899C339.45 521.409 346.41 509.74 351.41 503.31C351.83 502.77 351.34 501.969 350.75 502.219C342.63 505.719 326.58 505.719 318.46 502.219C317.87 501.969 317.39 502.76 317.81 503.31C322.71 509.64 329.4 521.009 332 529.909C332.65 532.899 333.03 535.909 333.2 538.929C322.29 520.769 298.66 529.269 298.66 549.689C298.66 573.609 325.43 585.82 334.47 608.08V608.07Z" fill="black"/>
<defs>
<linearGradient id="paint0_linear_145_2726" x1="380.479" y1="-103.55" x2="109.989" y2="690.32" gradientUnits="userSpaceOnUse">
<stop stop-color="#E1E1E1"/>
<stop offset="0.12" stop-color="#ECECEC"/>
<stop offset="0.32" stop-color="#FAFAFA"/>
<stop offset="0.49" stop-color="white"/>
<stop offset="0.7" stop-color="#FBFBFB"/>
<stop offset="0.85" stop-color="#F2F2F2"/>
<stop offset="0.99" stop-color="#E2E2E2"/>
<stop offset="1" stop-color="#E1E1E1"/>
</linearGradient>
</defs>
</svg>
