<svg width="469" height="650" viewBox="0 0 469 650" fill="none" xmlns="http://www.w3.org/2000/svg">
<path d="M439.52 0.609863H29.6399C13.5699 0.609863 0.540039 12.6699 0.540039 27.5399V622.38C0.540039 637.25 13.5699 649.31 29.6399 649.31H439.52C455.59 649.31 468.62 637.25 468.62 622.38V27.5399C468.62 12.6699 455.59 0.609863 439.52 0.609863Z" fill="url(#paint0_linear_145_1512)"/>
<path d="M57.3701 114.63C50.8101 102.55 34.1001 107.23 34.1001 119.21C34.1001 132.63 51.43 137.37 57.28 149.86L57.3701 150.04L57.46 149.86C63.31 137.37 80.6499 132.63 80.6499 119.21C80.6499 107.23 63.9301 102.55 57.3701 114.63Z" fill="#EB3000"/>
<path d="M413.09 535.55C419.65 547.63 436.36 542.95 436.36 530.97C436.36 517.55 419.03 512.81 413.18 500.32L413.09 500.14L413 500.32C407.15 512.81 389.81 517.55 389.81 530.97C389.81 542.95 406.53 547.63 413.09 535.55Z" fill="#EB3000"/>
<path d="M329.99 578.64C345.41 607.04 384.72 596.04 384.72 567.88C384.72 536.33 343.97 525.17 330.2 495.8L329.99 495.39L329.78 495.8C316.02 525.17 275.26 536.32 275.26 567.88C275.26 596.04 314.57 607.05 329.99 578.64Z" fill="#EB3000"/>
<path d="M329.51 70.7C314.09 42.3 274.78 53.3 274.78 81.46C274.78 113.01 315.53 124.17 329.3 153.54L329.51 153.95L329.72 153.54C343.48 124.17 384.24 113.02 384.24 81.46C384.24 53.3 344.93 42.29 329.51 70.7Z" fill="#EB3000"/>
<path d="M140.12 578.64C155.54 607.04 194.85 596.04 194.85 567.88C194.85 536.33 154.1 525.17 140.33 495.8L140.12 495.39L139.91 495.8C126.15 525.17 85.3896 536.32 85.3896 567.88C85.3896 596.04 124.7 607.05 140.12 578.64Z" fill="#EB3000"/>
<path d="M139.64 70.7C124.22 42.3 84.9102 53.3 84.9102 81.46C84.9102 113.01 125.66 124.17 139.43 153.54L139.64 153.95L139.85 153.54C153.61 124.17 194.37 113.02 194.37 81.46C194.37 53.3 155.06 42.29 139.64 70.7Z" fill="#EB3000"/>
<path d="M139.83 291.73C124.41 263.33 85.1001 274.33 85.1001 302.49C85.1001 334.04 125.85 345.2 139.62 374.57L139.83 374.98L140.04 374.57C153.8 345.2 194.56 334.05 194.56 302.49C194.56 274.33 155.25 263.32 139.83 291.73Z" fill="#EB3000"/>
<path d="M329.7 291.73C314.28 263.33 274.97 274.33 274.97 302.49C274.97 334.04 315.72 345.2 329.49 374.57L329.7 374.98L329.91 374.57C343.67 345.2 384.43 334.05 384.43 302.49C384.43 274.33 345.12 263.32 329.7 291.73Z" fill="#EB3000"/>
<path d="M60.4397 50.1502C56.8897 50.1502 53.5698 50.9402 50.5898 52.5002C48.9098 53.3802 47.2597 54.5902 45.6697 56.1202C45.7997 51.1102 46.6297 46.5201 48.1497 42.4601C49.7497 38.1701 51.6796 35.1501 53.8796 33.4701C56.0596 31.8101 58.3898 31.0002 61.0098 31.0002C62.5898 31.0002 63.7998 31.2602 64.5698 31.7502C64.9498 32.0002 64.9497 32.1402 64.9497 32.2302C64.9497 32.2502 64.9097 32.6702 64.2297 33.7602C63.2497 35.3002 62.7798 36.7002 62.7798 38.0402C62.7798 40.0002 63.5799 41.7901 65.0999 43.2001C68.2099 46.0901 73.2498 45.9801 76.2798 42.8401C77.8198 41.2301 78.6099 39.1702 78.6099 36.7302C78.6099 33.2202 76.9998 30.2102 73.8298 27.7802C66.8398 22.2902 55.8699 21.9402 46.8699 28.2602C42.4899 31.3302 38.8598 35.9602 36.0698 42.0202C33.3198 48.0202 31.9297 54.7802 31.9297 62.1102C31.9297 68.9102 33.0798 74.9501 35.3398 80.1001C37.6398 85.3301 40.6796 89.2702 44.3796 91.7802C48.0996 94.3102 52.3899 95.6002 57.1199 95.6002C63.8199 95.6002 69.5298 93.2202 74.0898 88.5302C78.6298 83.8502 80.9297 77.9202 80.9297 70.8902C80.9297 64.9502 78.9498 59.9502 75.0298 56.0402C71.1098 52.1302 66.2097 50.1402 60.4597 50.1402L60.4397 50.1502ZM64.7297 84.8702C62.8497 87.1902 60.4298 88.3201 57.3298 88.3201C54.2298 88.3201 51.6796 87.1102 49.6396 84.6202C47.5296 82.0402 46.4597 78.1602 46.4597 73.0602C46.4597 68.4302 47.5497 64.8302 49.7097 62.3802C51.8297 59.9702 54.4899 58.7902 57.8499 58.7902C60.9399 58.7902 63.2797 59.8402 64.9797 61.9902C66.7697 64.2602 67.6897 68.1501 67.6897 73.5701C67.6897 78.6401 66.6997 82.4402 64.7397 84.8602L64.7297 84.8702Z" fill="#EB3000"/>
<path d="M408.45 600.15C412 600.15 415.32 599.36 418.3 597.8C419.98 596.92 421.63 595.71 423.22 594.18C423.09 599.19 422.26 603.78 420.74 607.84C419.14 612.13 417.21 615.15 415.01 616.83C412.83 618.49 410.5 619.3 407.88 619.3C406.3 619.3 405.09 619.04 404.33 618.55C403.95 618.3 403.95 618.16 403.95 618.07C403.95 618.05 403.99 617.63 404.67 616.54C405.65 615 406.12 613.6 406.12 612.26C406.12 610.3 405.32 608.51 403.8 607.1C400.69 604.21 395.65 604.32 392.62 607.46C391.08 609.07 390.29 611.13 390.29 613.57C390.29 617.08 391.9 620.09 395.07 622.52C402.06 628.01 413.03 628.36 422.03 622.04C426.41 618.97 430.04 614.34 432.83 608.28C435.58 602.28 436.97 595.52 436.97 588.19C436.97 581.39 435.82 575.35 433.56 570.2C431.26 564.97 428.22 561.03 424.52 558.52C420.8 555.99 416.51 554.7 411.78 554.7C405.08 554.7 399.37 557.08 394.81 561.77C390.27 566.45 387.97 572.38 387.97 579.41C387.97 585.35 389.95 590.35 393.87 594.26C397.79 598.17 402.69 600.16 408.44 600.16L408.45 600.15ZM404.16 565.43C406.04 563.11 408.46 561.98 411.56 561.98C414.66 561.98 417.21 563.19 419.25 565.68C421.36 568.26 422.43 572.15 422.43 577.24C422.43 581.87 421.34 585.47 419.18 587.92C417.06 590.33 414.4 591.51 411.04 591.51C407.95 591.51 405.61 590.46 403.91 588.31C402.12 586.04 401.2 582.15 401.2 576.72C401.2 571.65 402.19 567.85 404.15 565.43H404.16Z" fill="#EB3000"/>
<defs>
<linearGradient id="paint0_linear_145_1512" x1="380.58" y1="-103.54" x2="110.09" y2="690.32" gradientUnits="userSpaceOnUse">
<stop stop-color="#E1E1E1"/>
<stop offset="0.12" stop-color="#ECECEC"/>
<stop offset="0.32" stop-color="#FAFAFA"/>
<stop offset="0.49" stop-color="white"/>
<stop offset="0.7" stop-color="#FBFBFB"/>
<stop offset="0.85" stop-color="#F2F2F2"/>
<stop offset="0.99" stop-color="#E2E2E2"/>
<stop offset="1" stop-color="#E1E1E1"/>
</linearGradient>
</defs>
</svg>
