<svg width="469" height="650" viewBox="0 0 469 650" fill="none" xmlns="http://www.w3.org/2000/svg">
<path d="M439.64 0.609863H29.7603C13.6903 0.609863 0.660156 12.6699 0.660156 27.5399V622.38C0.660156 637.25 13.6903 649.31 29.7603 649.31H439.64C455.71 649.31 468.74 637.25 468.74 622.38V27.5399C468.74 12.6699 455.71 0.609863 439.64 0.609863Z" fill="url(#paint0_linear_145_1550)"/>
<path d="M57.5 114.63C50.94 102.55 34.23 107.23 34.23 119.21C34.23 132.63 51.5599 137.37 57.4099 149.86L57.5 150.04L57.5901 149.86C63.4401 137.37 80.78 132.63 80.78 119.21C80.78 107.23 64.06 102.55 57.5 114.63Z" fill="#EB3000"/>
<path d="M413.22 535.55C419.78 547.63 436.49 542.95 436.49 530.97C436.49 517.55 419.16 512.81 413.31 500.32L413.22 500.14L413.13 500.32C407.28 512.81 389.94 517.55 389.94 530.97C389.94 542.95 406.66 547.63 413.22 535.55Z" fill="#EB3000"/>
<path d="M330.12 578.64C345.54 607.04 384.85 596.04 384.85 567.88C384.85 536.33 344.1 525.17 330.33 495.8L330.12 495.39L329.91 495.8C316.15 525.17 275.39 536.32 275.39 567.88C275.39 596.04 314.7 607.05 330.12 578.64Z" fill="#EB3000"/>
<path d="M329.64 70.7C314.22 42.3 274.91 53.3 274.91 81.46C274.91 113.01 315.66 124.17 329.43 153.54L329.64 153.95L329.85 153.54C343.61 124.17 384.37 113.02 384.37 81.46C384.37 53.3 345.06 42.29 329.64 70.7Z" fill="#EB3000"/>
<path d="M140.25 578.64C155.67 607.04 194.98 596.04 194.98 567.88C194.98 536.33 154.23 525.17 140.46 495.8L140.25 495.39L140.04 495.8C126.28 525.17 85.52 536.32 85.52 567.88C85.52 596.04 124.83 607.05 140.25 578.64Z" fill="#EB3000"/>
<path d="M139.77 70.7C124.35 42.3 85.04 53.3 85.04 81.46C85.04 113.01 125.79 124.17 139.56 153.54L139.77 153.95L139.98 153.54C153.74 124.17 194.5 113.02 194.5 81.46C194.5 53.3 155.19 42.29 139.77 70.7Z" fill="#EB3000"/>
<path d="M139.96 291.73C124.54 263.33 85.23 274.33 85.23 302.49C85.23 334.04 125.98 345.2 139.75 374.57L139.96 374.98L140.17 374.57C153.93 345.2 194.69 334.05 194.69 302.49C194.69 274.33 155.38 263.32 139.96 291.73Z" fill="#EB3000"/>
<path d="M329.83 291.73C314.41 263.33 275.1 274.33 275.1 302.49C275.1 334.04 315.85 345.2 329.62 374.57L329.83 374.98L330.04 374.57C343.8 345.2 384.56 334.05 384.56 302.49C384.56 274.33 345.25 263.32 329.83 291.73Z" fill="#EB3000"/>
<path d="M234.9 177.02C219.48 148.62 180.17 159.62 180.17 187.78C180.17 219.33 220.92 230.49 234.69 259.86L234.9 260.27L235.11 259.86C248.87 230.49 289.63 219.34 289.63 187.78C289.63 159.62 250.32 148.61 234.9 177.02Z" fill="#EB3000"/>
<path d="M39.21 23.5802L37.0601 23.0303L32.98 49.9602H40.3799L40.6899 48.3402C42.3699 39.8102 43.3499 37.7503 43.6899 37.2603C44.0599 36.7403 44.69 36.1403 46.27 36.1403H68.46L63.55 45.1603C61.02 49.8803 57.99 56.4302 54.55 64.6302C51.9 70.8903 50.25 75.5002 49.49 78.7002C48.72 81.9502 48.3501 84.6102 48.3501 86.8302C48.3501 89.6302 48.9299 91.7103 50.1299 93.1603C51.3999 94.6903 53.2101 95.5002 55.3701 95.5002C57.2101 95.5002 58.76 95.0203 59.99 94.0603C61.22 93.1003 62.0399 91.7403 62.4399 90.0403C62.6399 89.1703 62.9499 87.1802 63.3799 79.9602C63.7199 73.7502 64.43 68.2502 65.5 63.6002C66.58 58.9402 68.17 53.9902 70.27 48.8802C72.37 43.7402 75.5901 37.3502 79.8301 29.8802L80.0901 29.4203V24.7002H48.72C45.31 24.7002 42.12 24.3202 39.21 23.5802Z" fill="#EB3000"/>
<path d="M429.93 625.61L432.08 626.159L436.16 599.229H428.76L428.45 600.85C426.77 609.38 425.79 611.439 425.45 611.929C425.08 612.449 424.45 613.05 422.87 613.05H400.68L405.59 604.03C408.12 599.31 411.15 592.76 414.59 584.56C417.24 578.3 418.89 573.69 419.65 570.49C420.42 567.24 420.79 564.58 420.79 562.36C420.79 559.56 420.21 557.48 419.01 556.03C417.74 554.5 415.93 553.689 413.77 553.689C411.93 553.689 410.38 554.169 409.15 555.129C407.92 556.089 407.1 557.449 406.7 559.149C406.5 560.019 406.19 562.009 405.76 569.229C405.42 575.439 404.71 580.94 403.64 585.59C402.56 590.25 400.97 595.2 398.87 600.31C396.77 605.45 393.55 611.84 389.31 619.31L389.05 619.77V624.49H420.42C423.83 624.49 427.02 624.87 429.93 625.61Z" fill="#EB3000"/>
<defs>
<linearGradient id="paint0_linear_145_1550" x1="380.71" y1="-103.54" x2="110.221" y2="690.32" gradientUnits="userSpaceOnUse">
<stop stop-color="#E1E1E1"/>
<stop offset="0.12" stop-color="#ECECEC"/>
<stop offset="0.32" stop-color="#FAFAFA"/>
<stop offset="0.49" stop-color="white"/>
<stop offset="0.7" stop-color="#FBFBFB"/>
<stop offset="0.85" stop-color="#F2F2F2"/>
<stop offset="0.99" stop-color="#E2E2E2"/>
<stop offset="1" stop-color="#E1E1E1"/>
</linearGradient>
</defs>
</svg>
