<svg width="469" height="650" viewBox="0 0 469 650" fill="none" xmlns="http://www.w3.org/2000/svg">
<path d="M439.77 0.609863H29.8901C13.8201 0.609863 0.790039 12.6699 0.790039 27.5399V622.38C0.790039 637.25 13.8201 649.31 29.8901 649.31H439.77C455.84 649.31 468.87 637.25 468.87 622.38V27.5399C468.87 12.6699 455.84 0.609863 439.77 0.609863Z" fill="url(#paint0_linear_145_1604)"/>
<path d="M57.6299 114.63C51.0699 102.55 34.3599 107.23 34.3599 119.21C34.3599 132.63 51.69 137.37 57.54 149.86L57.6299 150.04L57.7202 149.86C63.5702 137.37 80.9102 132.63 80.9102 119.21C80.9102 107.23 64.1899 102.55 57.6299 114.63Z" fill="#EB3000"/>
<path d="M413.35 535.55C419.91 547.63 436.62 542.95 436.62 530.97C436.62 517.55 419.29 512.81 413.44 500.32L413.35 500.14L413.26 500.32C407.41 512.81 390.07 517.55 390.07 530.97C390.07 542.95 406.79 547.63 413.35 535.55Z" fill="#EB3000"/>
<path d="M330.24 578.64C345.66 607.04 384.97 596.04 384.97 567.88C384.97 536.33 344.22 525.17 330.45 495.8L330.24 495.39L330.03 495.8C316.27 525.17 275.51 536.32 275.51 567.88C275.51 596.04 314.82 607.05 330.24 578.64Z" fill="#EB3000"/>
<path d="M329.76 70.7C314.34 42.3 275.03 53.3 275.03 81.46C275.03 113.01 315.78 124.17 329.55 153.54L329.76 153.95L329.97 153.54C343.73 124.17 384.49 113.02 384.49 81.46C384.49 53.3 345.18 42.29 329.76 70.7Z" fill="#EB3000"/>
<path d="M140.38 578.64C155.8 607.04 195.11 596.04 195.11 567.88C195.11 536.33 154.36 525.17 140.59 495.8L140.38 495.39L140.17 495.8C126.41 525.17 85.6499 536.32 85.6499 567.88C85.6499 596.04 124.96 607.05 140.38 578.64Z" fill="#EB3000"/>
<path d="M139.9 70.7C124.48 42.3 85.1699 53.3 85.1699 81.46C85.1699 113.01 125.92 124.17 139.69 153.54L139.9 153.95L140.11 153.54C153.87 124.17 194.63 113.02 194.63 81.46C194.63 53.3 155.32 42.29 139.9 70.7Z" fill="#EB3000"/>
<path d="M140.09 291.73C124.67 263.33 85.3599 274.33 85.3599 302.49C85.3599 334.04 126.11 345.2 139.88 374.57L140.09 374.98L140.3 374.57C154.06 345.2 194.82 334.05 194.82 302.49C194.82 274.33 155.51 263.32 140.09 291.73Z" fill="#EB3000"/>
<path d="M329.96 291.73C314.54 263.33 275.23 274.33 275.23 302.49C275.23 334.04 315.98 345.2 329.75 374.57L329.96 374.98L330.17 374.57C343.93 345.2 384.69 334.05 384.69 302.49C384.69 274.33 345.38 263.32 329.96 291.73Z" fill="#EB3000"/>
<path d="M235.02 177.02C219.6 148.62 180.29 159.62 180.29 187.78C180.29 219.33 221.04 230.49 234.81 259.86L235.02 260.27L235.23 259.86C248.99 230.49 289.75 219.34 289.75 187.78C289.75 159.62 250.44 148.61 235.02 177.02Z" fill="#EB3000"/>
<path d="M235.03 458.23C250.45 486.63 289.76 475.63 289.76 447.47C289.76 415.92 249.01 404.761 235.24 375.391L235.03 374.98L234.82 375.391C221.06 404.761 180.3 415.91 180.3 447.47C180.3 475.63 219.61 486.64 235.03 458.23Z" fill="#EB3000"/>
<path d="M69.29 54.59C75.1 50.63 78.04 45.79 78.04 40.13C78.04 37.19 77.1599 34.36 75.4199 31.71C73.6899 29.07 71.1702 26.97 67.9302 25.47C64.7702 24 61.0198 23.25 56.8198 23.25C50.5898 23.25 45.3598 25.18 41.2598 29.01C37.1298 32.86 35.0298 37.54 35.0298 42.92C35.0298 49.83 38.2298 55.28 44.5698 59.15C40.7798 60.86 37.9801 62.83 36.0801 65.12C33.5001 68.23 32.1899 71.9 32.1899 76.05C32.1899 81.5601 34.4401 86.22 38.8701 89.89C43.1801 93.47 49.0598 95.29 56.3398 95.29C64.6498 95.29 71.19 92.59 75.75 87.27C79.3 83.14 81.1001 78.24 81.1001 72.7C81.1001 68.1199 79.8298 64.13 77.3398 60.84C75.4898 58.41 72.7898 56.32 69.2798 54.61L69.29 54.59ZM48.1899 33.03C50.0999 31.37 52.89 30.53 56.5 30.53C60.11 30.53 63.0001 31.4201 64.8301 33.1801C66.6601 34.9401 67.5601 37.44 67.5601 40.84C67.5601 43.44 67.0902 45.52 66.1602 47.03C65.2902 48.44 63.5602 49.93 60.9902 51.48C52.2402 48.53 48.9798 46.59 47.7998 45.47C46.2098 43.96 45.4399 41.95 45.4399 39.33C45.4399 36.71 46.3399 34.64 48.1899 33.03ZM67.27 84.62C64.76 86.76 61.0999 87.84 56.3999 87.84C52.0099 87.84 48.6602 86.7801 46.4302 84.6801C44.2002 82.5901 43.1299 79.67 43.1299 75.75C43.1299 72.73 43.8501 70.28 45.3301 68.26C46.7501 66.33 49.3498 64.52 53.0698 62.87C60.6898 65.64 65.69 67.91 67.96 69.62C69.94 71.12 70.9102 73.32 70.9102 76.36C70.9102 79.83 69.7198 82.53 67.2798 84.62H67.27Z" fill="#EB3000"/>
<path d="M400.28 595.351C394.47 599.311 391.53 604.151 391.53 609.811C391.53 612.751 392.41 615.58 394.15 618.23C395.88 620.87 398.4 622.97 401.64 624.47C404.8 625.94 408.55 626.69 412.75 626.69C418.98 626.69 424.21 624.76 428.31 620.93C432.44 617.08 434.54 612.401 434.54 607.021C434.54 600.111 431.34 594.661 425 590.791C428.79 589.081 431.59 587.111 433.49 584.821C436.07 581.711 437.38 578.04 437.38 573.89C437.38 568.38 435.13 563.721 430.7 560.051C426.39 556.471 420.51 554.65 413.23 554.65C404.92 554.65 398.38 557.35 393.82 562.67C390.27 566.8 388.47 571.7 388.47 577.24C388.47 581.82 389.74 585.811 392.23 589.101C394.08 591.531 396.78 593.621 400.29 595.331L400.28 595.351ZM421.38 616.91C419.47 618.57 416.68 619.41 413.07 619.41C409.46 619.41 406.57 618.52 404.74 616.76C402.91 615 402.01 612.501 402.01 609.101C402.01 606.501 402.48 604.42 403.41 602.91C404.28 601.5 406.01 600.01 408.58 598.46C417.33 601.41 420.59 603.35 421.77 604.47C423.36 605.98 424.13 607.991 424.13 610.611C424.13 613.231 423.23 615.3 421.38 616.91ZM402.3 565.321C404.81 563.181 408.47 562.101 413.17 562.101C417.56 562.101 420.91 563.16 423.14 565.26C425.37 567.35 426.44 570.27 426.44 574.19C426.44 577.21 425.72 579.66 424.24 581.68C422.82 583.61 420.22 585.421 416.5 587.071C408.88 584.301 403.88 582.031 401.61 580.321C399.63 578.821 398.66 576.621 398.66 573.581C398.66 570.111 399.85 567.411 402.29 565.321H402.3Z" fill="#EB3000"/>
<defs>
<linearGradient id="paint0_linear_145_1604" x1="380.83" y1="-103.54" x2="110.35" y2="690.32" gradientUnits="userSpaceOnUse">
<stop stop-color="#E1E1E1"/>
<stop offset="0.12" stop-color="#ECECEC"/>
<stop offset="0.32" stop-color="#FAFAFA"/>
<stop offset="0.49" stop-color="white"/>
<stop offset="0.7" stop-color="#FBFBFB"/>
<stop offset="0.85" stop-color="#F2F2F2"/>
<stop offset="0.99" stop-color="#E2E2E2"/>
<stop offset="1" stop-color="#E1E1E1"/>
</linearGradient>
</defs>
</svg>
