<svg width="469" height="650" viewBox="0 0 469 650" fill="none" xmlns="http://www.w3.org/2000/svg">
<path d="M439.9 0.609863H30.02C13.95 0.609863 0.919922 12.6699 0.919922 27.5399V622.38C0.919922 637.25 13.95 649.31 30.02 649.31H439.9C455.97 649.31 469 637.25 469 622.38V27.5399C469 12.6699 455.97 0.609863 439.9 0.609863Z" fill="url(#paint0_linear_145_1677)"/>
<path d="M57.7598 114.63C51.1998 102.55 34.4902 107.23 34.4902 119.21C34.4902 132.63 51.8199 137.37 57.6699 149.86L57.7598 150.04L57.8501 149.86C63.7001 137.37 81.04 132.63 81.04 119.21C81.04 107.23 64.3198 102.55 57.7598 114.63Z" fill="#EB3000"/>
<path d="M413.47 535.55C420.03 547.63 436.74 542.95 436.74 530.97C436.74 517.55 419.41 512.81 413.56 500.32L413.47 500.14L413.38 500.32C407.53 512.81 390.19 517.55 390.19 530.97C390.19 542.95 406.91 547.63 413.47 535.55Z" fill="#EB3000"/>
<path d="M330.37 578.64C345.79 607.04 385.1 596.04 385.1 567.88C385.1 536.33 344.35 525.17 330.58 495.8L330.37 495.39L330.16 495.8C316.4 525.17 275.64 536.32 275.64 567.88C275.64 596.04 314.95 607.05 330.37 578.64Z" fill="#EB3000"/>
<path d="M329.89 70.7C314.47 42.3 275.16 53.3 275.16 81.46C275.16 113.01 315.91 124.17 329.68 153.54L329.89 153.95L330.1 153.54C343.86 124.17 384.62 113.02 384.62 81.46C384.62 53.3 345.31 42.29 329.89 70.7Z" fill="#EB3000"/>
<path d="M140.51 578.64C155.93 607.04 195.24 596.04 195.24 567.88C195.24 536.33 154.49 525.17 140.72 495.8L140.51 495.39L140.3 495.8C126.54 525.17 85.7798 536.32 85.7798 567.88C85.7798 596.04 125.09 607.05 140.51 578.64Z" fill="#EB3000"/>
<path d="M330.37 436.25C345.79 464.65 385.1 453.65 385.1 425.49C385.1 393.94 344.35 382.78 330.58 353.41L330.37 353L330.16 353.41C316.4 382.78 275.64 393.93 275.64 425.49C275.64 453.65 314.95 464.66 330.37 436.25Z" fill="#EB3000"/>
<path d="M140.51 436.25C155.93 464.65 195.24 453.65 195.24 425.49C195.24 393.94 154.49 382.78 140.72 353.41L140.51 353L140.3 353.41C126.54 382.78 85.7798 393.93 85.7798 425.49C85.7798 453.65 125.09 464.66 140.51 436.25Z" fill="#EB3000"/>
<path d="M140.03 70.7C124.61 42.3 85.2998 53.3 85.2998 81.46C85.2998 113.01 126.05 124.17 139.82 153.54L140.03 153.95L140.24 153.54C154 124.17 194.76 113.02 194.76 81.46C194.76 53.3 155.45 42.29 140.03 70.7Z" fill="#EB3000"/>
<path d="M329.89 213.1C314.47 184.7 275.16 195.7 275.16 223.86C275.16 255.41 315.91 266.57 329.68 295.94L329.89 296.35L330.1 295.94C343.86 266.57 384.62 255.42 384.62 223.86C384.62 195.7 345.31 184.69 329.89 213.1Z" fill="#EB3000"/>
<path d="M140.03 213.1C124.61 184.7 85.2998 195.7 85.2998 223.86C85.2998 255.41 126.05 266.57 139.82 295.94L140.03 296.35L140.24 295.94C154 266.57 194.76 255.42 194.76 223.86C194.76 195.7 155.45 184.69 140.03 213.1Z" fill="#EB3000"/>
<path d="M235.15 291.73C219.73 263.33 180.42 274.33 180.42 302.49C180.42 334.04 221.17 345.2 234.94 374.57L235.15 374.98L235.36 374.57C249.12 345.2 289.88 334.05 289.88 302.49C289.88 274.33 250.57 263.32 235.15 291.73Z" fill="#EB3000"/>
<path d="M75.0898 32.4701C70.3598 26.5801 64.3602 23.6001 57.2402 23.6001C50.7902 23.6001 45.1698 26.0202 40.5298 30.7902C35.9098 35.5502 33.5698 41.4002 33.5698 48.1702C33.5698 54.9402 35.7498 60.5902 40.0498 64.2802C44.2698 67.8902 49.0302 69.7201 54.2202 69.7201C57.9602 69.7201 61.3799 68.8501 64.4199 67.1201C65.9299 66.2601 67.3499 65.1902 68.6699 63.9102C68.5799 69.6302 67.8402 74.3501 66.4902 77.9801C65.1002 81.7201 63.2999 84.4101 61.1499 85.9701C58.9999 87.5401 56.5602 88.3002 53.7002 88.3002C51.2002 88.3002 50.1598 87.8801 49.7598 87.6401C49.3198 87.3601 49.1499 87.1401 49.1499 87.1101C49.1499 87.1101 49.1999 86.8502 49.6299 86.2902C50.8999 84.6802 51.5601 83.1001 51.5601 81.5901C51.5601 79.5801 50.8101 77.8402 49.3301 76.4202C46.3001 73.4602 41.1698 73.6401 38.2998 76.7201C36.8098 78.2901 36.0698 80.3501 36.0698 82.8201C36.0698 86.4101 37.7102 89.5102 40.9302 92.0302C44.0002 94.4202 48.2102 95.6401 53.4702 95.6401C58.7302 95.6401 63.7298 94.1501 68.0098 91.2001C72.2698 88.2701 75.73 83.7901 78.27 77.8801C80.78 72.0701 82.0498 64.8801 82.0498 56.5302C82.0498 46.3202 79.7101 38.2301 75.1001 32.4801L75.0898 32.4701ZM65.1699 57.1901C63.0899 59.6101 60.5901 60.7802 57.5601 60.7802C54.5301 60.7802 52.1002 59.7101 50.2202 57.5001C48.2902 55.2301 47.2998 51.5901 47.2998 46.7001C47.2998 41.2701 48.2998 37.2101 50.2798 34.6401C52.1598 32.2001 54.4801 31.0101 57.3701 31.0101C60.2601 31.0101 62.8002 32.3101 64.9902 34.9901C67.2402 37.7501 68.3799 41.6101 68.3799 46.4601C68.3799 51.3101 67.2902 54.7102 65.1602 57.1802L65.1699 57.1901Z" fill="#EB3000"/>
<path d="M395.58 617.83C400.31 623.72 406.31 626.7 413.43 626.7C419.88 626.7 425.5 624.28 430.14 619.51C434.76 614.75 437.1 608.9 437.1 602.13C437.1 595.36 434.92 589.71 430.62 586.02C426.4 582.41 421.64 580.58 416.45 580.58C412.71 580.58 409.28 581.45 406.25 583.18C404.74 584.04 403.32 585.11 402 586.39C402.09 580.67 402.83 575.95 404.18 572.32C405.57 568.58 407.37 565.89 409.52 564.33C411.67 562.76 414.11 562 416.97 562C419.47 562 420.51 562.42 420.91 562.66C421.35 562.94 421.52 563.16 421.52 563.19C421.52 563.19 421.47 563.45 421.04 564.01C419.77 565.62 419.11 567.2 419.11 568.71C419.11 570.72 419.86 572.46 421.34 573.88C424.37 576.84 429.5 576.66 432.37 573.58C433.86 572.01 434.6 569.95 434.6 567.48C434.6 563.89 432.96 560.79 429.74 558.27C426.67 555.88 422.46 554.66 417.2 554.66C411.94 554.66 406.94 556.15 402.66 559.1C398.4 562.03 394.94 566.51 392.4 572.42C389.89 578.23 388.62 585.42 388.62 593.77C388.62 603.98 390.96 612.07 395.57 617.82L395.58 617.83ZM405.5 593.11C407.58 590.69 410.08 589.52 413.11 589.52C416.14 589.52 418.57 590.59 420.45 592.8C422.38 595.07 423.37 598.71 423.37 603.6C423.37 609.03 422.37 613.09 420.39 615.66C418.51 618.1 416.19 619.29 413.3 619.29C410.41 619.29 407.87 617.99 405.68 615.31C403.43 612.55 402.29 608.69 402.29 603.84C402.29 598.99 403.38 595.59 405.51 593.12L405.5 593.11Z" fill="#EB3000"/>
<defs>
<linearGradient id="paint0_linear_145_1677" x1="380.96" y1="-103.54" x2="110.48" y2="690.32" gradientUnits="userSpaceOnUse">
<stop stop-color="#E1E1E1"/>
<stop offset="0.12" stop-color="#ECECEC"/>
<stop offset="0.32" stop-color="#FAFAFA"/>
<stop offset="0.49" stop-color="white"/>
<stop offset="0.7" stop-color="#FBFBFB"/>
<stop offset="0.85" stop-color="#F2F2F2"/>
<stop offset="0.99" stop-color="#E2E2E2"/>
<stop offset="1" stop-color="#E1E1E1"/>
</linearGradient>
</defs>
</svg>
