<svg width="469" height="650" viewBox="0 0 469 650" fill="none" xmlns="http://www.w3.org/2000/svg">
<path d="M439.75 0.609863H29.87C13.8 0.609863 0.77002 12.6699 0.77002 27.5399V622.38C0.77002 637.25 13.8 649.31 29.87 649.31H439.75C455.82 649.31 468.85 637.25 468.85 622.38V27.5399C468.85 12.6699 455.82 0.609863 439.75 0.609863Z" fill="url(#paint0_linear_145_3219)"/>
<path d="M36.8297 85.1567C26.0699 85.1567 18 93.2766 18 103.289V103.389C18 113.401 25.9713 121.42 36.7297 121.42C47.4881 121.42 55.558 113.3 55.558 103.288V103.189C55.558 93.1766 47.5881 85.1567 36.8297 85.1567ZM43.4088 110.857C41.2263 110.921 39.0809 110.398 37.8831 109.206C37.7502 109.075 37.5315 109.212 37.5887 109.391C38.3734 111.806 39.5754 113.243 40.5931 114.196C40.7375 114.333 40.5845 114.569 40.4001 114.49C39.2967 114.017 38.0804 113.754 36.804 113.754C35.5276 113.754 34.3113 114.017 33.2079 114.49C33.0235 114.569 32.8705 114.333 33.0163 114.196C34.0326 113.243 35.2346 111.805 36.0193 109.391C36.0765 109.213 35.8578 109.075 35.7249 109.206C34.5271 110.398 32.3817 110.921 30.1992 110.857C27.7222 110.783 24.3204 107.694 24.5648 103.681C24.8078 99.6671 29.3473 97.2358 30.5636 96.4669C31.6485 95.7794 35.7635 92.8021 36.6396 90.7854C36.7025 90.641 36.9055 90.641 36.9669 90.7854C37.8431 92.8021 41.9581 95.7794 43.0429 96.4669C44.2593 97.2358 48.7988 99.6671 49.0417 103.681C49.2862 107.694 45.8844 110.781 43.4074 110.857H43.4088Z" fill="black"/>
<path d="M57.363 131.313H45.9071L33.9023 145.459V131.313H24.2373V166.18H33.9023V157.165L37.4384 153.229L46.2044 166.18H57.8118L44.1633 146.306L57.363 131.313Z" fill="black"/>
<path d="M50.4933 243.846C54.8284 242.003 57.667 238.466 57.667 233.137V233.037C57.667 229.599 56.6207 226.911 54.5796 224.917C52.2384 222.525 48.5508 221.132 43.2209 221.132H26.7324V229.35H40.8011H42.8322C46.0696 229.35 47.9519 230.894 47.9519 233.634V233.734C47.9519 236.274 46.0595 237.868 42.7721 237.868H26.7324V256H36.396V245.44H40.6296L47.6532 256H58.8104L50.4918 243.846H50.4933Z" fill="black"/>
<g clip-path="url(#clip0_145_3219)" filter="url(#filter0_d_145_3219)">
<path d="M33.3729 67.2639L56.2702 42.2563L41.5431 46.2607L18.0317 71.4344L33.3729 67.2639Z" fill="black"/>
<g style="mix-blend-mode:multiply" opacity="0.1">
<path d="M28.4502 68.5986L33.3731 67.2639L56.2704 42.2563L28.4502 68.5986Z" fill="black"/>
</g>
<path d="M18.292 49.2263V39H56.2702L18.292 49.2263Z" fill="black"/>
<path opacity="0.1" d="M18.292 43.3627V39H35.8136L18.292 43.3627Z" fill="black"/>
<path d="M56.2754 64.4956V74.7219H18.292L56.2754 64.4956Z" fill="black"/>
<path opacity="0.1" d="M56.2755 70.3594L56.2703 74.7221H38.374L56.2755 70.3594Z" fill="black"/>
</g>
<path d="M33.8008 199.084H52.2804V190.868H50.5366H24.2373V199.084V210.541H52.5305V201.625H33.8008V199.084Z" fill="black"/>
<rect x="24.2373" y="178.718" width="28.692" height="8.12162" fill="black"/>
<path d="M431.981 582.843C442.741 582.843 450.811 574.723 450.811 564.711L450.811 564.611C450.811 554.599 442.839 546.58 432.081 546.58C421.322 546.58 413.253 554.7 413.253 564.712L413.253 564.811C413.253 574.823 421.222 582.843 431.981 582.843ZM425.402 557.143C427.584 557.079 429.73 557.602 430.927 558.794C431.06 558.925 431.279 558.788 431.222 558.609C430.437 556.194 429.235 554.757 428.217 553.804C428.073 553.667 428.226 553.431 428.41 553.51C429.514 553.983 430.73 554.246 432.007 554.246C433.283 554.246 434.499 553.983 435.603 553.51C435.787 553.431 435.94 553.667 435.794 553.804C434.778 554.757 433.576 556.195 432.791 558.609C432.734 558.787 432.953 558.925 433.086 558.794C434.283 557.602 436.429 557.079 438.611 557.143C441.088 557.217 444.49 560.306 444.246 564.319C444.003 568.333 439.463 570.764 438.247 571.533C437.162 572.221 433.047 575.198 432.171 577.215C432.108 577.359 431.905 577.359 431.844 577.215C430.967 575.198 426.852 572.221 425.768 571.533C424.551 570.764 420.012 568.333 419.769 564.319C419.524 560.306 422.926 557.219 425.403 557.143L425.402 557.143Z" fill="black"/>
<path d="M411.448 536.687L422.903 536.687L434.908 522.541L434.908 536.687L444.573 536.687L444.573 501.82L434.908 501.82L434.908 510.835L431.372 514.771L422.606 501.82L410.999 501.82L424.647 521.694L411.448 536.687Z" fill="black"/>
<path d="M418.317 424.154C413.982 425.997 411.144 429.533 411.144 434.863L411.144 434.963C411.144 438.401 412.19 441.089 414.231 443.083C416.572 445.475 420.26 446.868 425.59 446.868L442.078 446.868L442.078 438.65L428.009 438.65L425.978 438.65C422.741 438.65 420.859 437.106 420.859 434.366L420.859 434.266C420.859 431.726 422.751 430.132 426.038 430.132L442.078 430.132L442.078 412L432.415 412L432.415 422.56L428.181 422.56L421.157 412L410 412L418.319 424.154L418.317 424.154Z" fill="black"/>
<g clip-path="url(#clip1_145_3219)" filter="url(#filter1_d_145_3219)">
<path d="M435.438 600.736L412.54 625.744L427.267 621.739L450.779 596.566L435.438 600.736Z" fill="black"/>
<g style="mix-blend-mode:multiply" opacity="0.1">
<path d="M440.36 599.401L435.437 600.736L412.54 625.744L440.36 599.401Z" fill="black"/>
</g>
<path d="M450.519 618.774L450.519 629L412.54 629L450.519 618.774Z" fill="black"/>
<path opacity="0.1" d="M450.519 624.637L450.519 629L432.997 629L450.519 624.637Z" fill="black"/>
<path d="M412.535 603.504L412.535 593.278L450.519 593.278L412.535 603.504Z" fill="black"/>
<path opacity="0.1" d="M412.535 597.641L412.54 593.278L430.437 593.278L412.535 597.641Z" fill="black"/>
</g>
<path d="M435.01 468.916L416.53 468.916L416.53 477.132L418.274 477.132L444.573 477.132L444.573 468.916L444.573 457.459L416.28 457.459L416.28 466.375L435.01 466.375L435.01 468.916Z" fill="black"/>
<rect x="444.573" y="489.282" width="28.692" height="8.12162" transform="rotate(-180 444.573 489.282)" fill="black"/>
<path d="M256.08 385.25C242.37 376.98 226.42 373.69 216.23 372.39C212.63 371.93 209.75 371.71 207.94 371.62C206.57 371.54 205.8 371.54 205.8 371.54C205.4 371.04 205 370.53 204.62 370C214.93 370.15 244.5 371.78 256.08 385.26V385.25Z" fill="#0B0055"/>
<path d="M206.01 371.77C205.94 371.69 205.87 371.6 205.81 371.52L206.01 371.77Z" fill="#4A5500"/>
<path d="M206.64 372.54C206.54 372.42 206.45 372.309 206.35 372.189C206.24 372.049 206.12 371.91 206.01 371.77L206.35 372.189L206.64 372.54Z" fill="#4A5500"/>
<path d="M224.01 375.65C224.01 375.65 223.92 375.67 223.88 375.68C223.88 375.66 223.89 375.64 223.9 375.62C223.94 375.63 223.98 375.64 224.02 375.65H224.01Z" fill="#4A5500"/>
<path d="M403.22 214.1L395.19 198C394.88 197.37 394.15 197.09 393.56 197.38L370.19 209.03C369.61 209.32 369.39 210.07 369.7 210.7L377.73 226.8C378.04 227.43 378.77 227.71 379.36 227.42L402.73 215.77C403.31 215.48 403.53 214.73 403.22 214.1Z" fill="url(#paint1_linear_145_3219)"/>
<path d="M374.01 167.7L361.86 154.43C361.38 153.91 360.61 153.85 360.13 154.29L340.87 171.92C340.39 172.36 340.38 173.14 340.87 173.66L353.02 186.93C353.5 187.45 354.27 187.52 354.75 187.07L374.01 169.44C374.49 169 374.5 168.22 374.01 167.7Z" fill="#0B0055"/>
<path d="M334.28 130.88L319.42 120.73C318.84 120.33 318.07 120.45 317.7 120.99L302.97 142.55C302.6 143.09 302.78 143.85 303.36 144.25L318.22 154.4C318.8 154.8 319.57 154.68 319.94 154.14L334.67 132.58C335.04 132.04 334.86 131.28 334.28 130.88Z" fill="url(#paint2_linear_145_3219)"/>
<path d="M288.21 103.88L271.64 96.8702C270.99 96.6002 270.26 96.8602 270 97.4602L259.82 121.51C259.57 122.11 259.89 122.82 260.54 123.1L277.11 130.11C277.76 130.38 278.49 130.12 278.75 129.52L288.93 105.47C289.18 104.87 288.86 104.16 288.21 103.88Z" fill="#0B0055"/>
<path d="M239.59 86.8201L221.99 83.0901C221.3 82.9401 220.63 83.3401 220.5 83.9801L215.08 109.52C214.94 110.16 215.39 110.8 216.08 110.94L233.68 114.67C234.37 114.82 235.04 114.42 235.17 113.78L240.59 88.2401C240.73 87.6001 240.28 86.9601 239.59 86.8201Z" fill="url(#paint3_linear_145_3219)"/>
<path d="M191.84 79.86L173.85 79.98C173.14 79.98 172.58 80.5201 172.58 81.1701L172.75 107.28C172.75 107.93 173.33 108.46 174.03 108.45L192.02 108.33C192.73 108.33 193.29 107.79 193.29 107.14L193.12 81.03C193.12 80.38 192.54 79.85 191.84 79.86Z" fill="#0B0055"/>
<path d="M149.47 84.27C149.28 83.65 148.58 83.31 147.9 83.51L130.69 88.7399C130.02 88.9499 129.62 89.6199 129.81 90.2399L137.4 115.22C137.59 115.84 138.29 116.18 138.97 115.98L156.18 110.75C156.85 110.54 157.25 109.87 157.06 109.25L149.47 84.27Z" fill="url(#paint4_linear_145_3219)"/>
<path d="M112.11 99.4897C111.68 98.9997 110.9 98.9797 110.37 99.4497L96.9001 111.38C96.3701 111.85 96.2901 112.62 96.7301 113.11L114.04 132.66C114.47 133.15 115.25 133.17 115.78 132.7L129.25 120.77C129.78 120.3 129.86 119.53 129.42 119.04L112.11 99.4897Z" fill="#0B0055"/>
<path d="M111.03 137.43L85.9998 129.99C85.3698 129.8 84.6998 130.2 84.4998 130.88L79.3698 148.13C79.1698 148.81 79.5098 149.51 80.1398 149.69L105.17 157.13C105.8 157.32 106.47 156.92 106.67 156.24L111.8 138.99C112 138.31 111.66 137.61 111.03 137.43Z" fill="url(#paint5_linear_145_3219)"/>
<path d="M107.02 171.12C106.89 170.43 106.26 169.96 105.62 170.09L79.9699 174.99C79.3299 175.11 78.9199 175.77 79.0499 176.47L82.4299 194.14C82.5599 194.83 83.1899 195.3 83.8299 195.17L109.48 190.27C110.12 190.15 110.53 189.49 110.4 188.79L107.02 171.12Z" fill="#0B0055"/>
<path d="M191.97 466.171C206.18 482.301 210.83 506.34 215.12 527.63C212.86 530.01 210.91 532.8 209.91 534.94C206.4 528.87 197.29 523.141 190.9 520.271C190 519.871 189.07 519.51 188.11 519.2C179.45 503.98 171.09 489.161 162.17 473.561C160.58 470.801 155.37 462.821 155.15 459.661C154.79 454.571 158.02 450.001 161.23 446.031C169.79 435.411 177.28 422.54 185.03 410.98H185.05C185.49 411.22 185.93 411.46 186.36 411.69C186.79 411.92 187.23 412.161 187.66 412.401C189.07 413.161 190.45 413.921 191.82 414.661C192.5 415.031 193.18 415.4 193.86 415.76C194.54 416.13 195.21 416.49 195.88 416.85C195.15 421.66 194.71 426.771 194.67 432.141C191.54 432.141 189.01 434.681 189.01 437.801C189.01 440.921 191.54 443.46 194.67 443.46C197.8 443.46 200.33 440.931 200.33 437.801C200.33 434.671 198.04 432.391 195.13 432.161C196.14 427.251 197.42 422.681 198.87 418.431C198.89 418.441 198.91 418.45 198.93 418.46C199.99 419.02 201.05 419.57 202.11 420.11C203.72 420.94 205.32 421.74 206.92 422.51C207.32 422.7 207.72 422.9 208.12 423.08C208.41 423.22 208.71 423.36 209 423.5C209.08 423.54 209.17 423.58 209.25 423.62C209.28 423.63 209.31 423.651 209.34 423.661C209.68 423.821 210.03 423.981 210.38 424.141C210.45 424.171 210.51 424.2 210.58 424.23C210.95 424.4 211.32 424.57 211.7 424.73C212.02 424.87 212.33 425.011 212.65 425.151C213.04 425.321 213.43 425.491 213.82 425.661C214.15 425.801 214.47 425.94 214.8 426.08C214.8 426.08 214.82 426.08 214.83 426.09C214.89 426.12 214.95 426.141 215.01 426.171C215.32 426.301 215.63 426.431 215.95 426.561C215.85 432.951 216.11 439.601 216.91 446.301C209.06 451.381 200.7 455.99 192.99 460.86C191.19 462 190.58 464.571 192 466.171H191.97Z" fill="#0B0055"/>
<path d="M234.2 432.07C232.9 433.83 231.5 435.38 230.07 436.61C226.45 439.73 222.5 442.59 218.39 445.31C219.06 439.38 219.93 433.76 220.94 428.47C221.26 428.59 221.59 428.7 221.92 428.81C222.31 428.95 222.69 429.08 223.08 429.21C223.43 429.33 223.78 429.44 224.13 429.55C227.71 430.7 230.88 431.71 234.2 432.07Z" fill="#0B0055"/>
<path d="M295.67 305.73L295.5 305.64H295.07C292.96 304.37 290.42 303.52 287.88 303.52C279.85 303.52 273.08 309.86 273.08 317.9C273.08 323.4 276.46 328.47 280.69 330.59L281.96 331.43L287.24 333.9C287.31 333.94 287.39 333.99 287.47 334.03C287.53 334.07 287.6 334.1 287.66 334.13C287.69 334.15 287.72 334.16 287.76 334.18C287.79 334.19 287.82 334.21 287.86 334.22C287.93 334.25 288 334.28 288.07 334.31C288.07 334.31 288.15 334.34 288.18 334.35C288.22 334.36 288.26 334.38 288.3 334.39C288.3 334.39 290.14 335.39 293.24 336.89C291.47 339.71 287.97 342.7 280.48 345.71C267.79 350.8 261.34 356.28 259.61 365.76C258.57 371.53 257.03 377.85 256.08 385.25C244.5 371.77 214.93 370.15 204.62 369.99C200.38 364.19 197.29 356.53 197.29 334.07C197.29 328.13 200.34 317.73 200.61 312.61C203.59 309.97 205.47 306.1 205.47 301.8C205.47 293.96 199.24 287.57 191.48 287.32C199.22 282.47 208.4 279.91 217.53 280.19L228 279.49C228 279.57 228 279.64 228 279.71C225.56 280.81 218.97 283.22 208.87 282.77C208.55 281.91 207.73 281.3 206.76 281.3C205.52 281.3 204.51 282.31 204.51 283.55C204.51 284.79 205.51 285.8 206.76 285.8C208.01 285.8 209.01 284.79 209.01 283.55C209.01 283.46 209.01 283.37 208.99 283.28C214.63 285.6 223.51 284.61 229.03 283.64C229.68 284.74 230.61 285.51 231.69 286.04C228.51 290.21 222.17 296.7 213.49 296.72C213.49 296.69 213.49 296.65 213.49 296.62C213.49 295.38 212.48 294.37 211.24 294.37C210 294.37 208.99 295.38 208.99 296.62C208.99 297.86 209.99 298.87 211.24 298.87C212.49 298.87 213.4 297.95 213.48 296.78C224.79 297.46 232.48 291.1 236.2 287.03C236.53 287.04 236.86 287.04 237.18 287.03C234.12 293.07 227.23 305.84 221.4 310.59C221.01 310.26 220.5 310.05 219.95 310.05C218.71 310.05 217.7 311.06 217.7 312.3C217.7 313.54 218.7 314.55 219.95 314.55C221.2 314.55 222.2 313.55 222.2 312.3C222.2 311.66 221.93 311.09 221.5 310.67C233.92 302.92 241.07 289.34 242.62 286.15C242.8 286.09 242.96 286.04 243.1 285.99C243.72 288.31 245.71 298.29 239.45 314.68C239.21 314.59 238.94 314.54 238.67 314.54C237.43 314.54 236.42 315.55 236.42 316.79C236.42 318.03 237.42 319.04 238.67 319.04C239.92 319.04 240.92 318.04 240.92 316.79C240.92 315.87 240.37 315.08 239.57 314.73C246.56 303.35 248.56 291.54 248.6 284.82C250.92 294.04 255.83 292.69 255.59 310.05C255.57 310.05 255.54 310.05 255.52 310.05C254.28 310.05 253.27 311.06 253.27 312.3C253.27 313.54 254.27 314.55 255.52 314.55C256.77 314.55 257.77 313.55 257.77 312.3C257.77 311.14 256.89 310.19 255.77 310.07C258.45 295.29 252.93 284.06 252.93 284.06C252.93 284.06 260.39 285.74 264.76 296.16C263.65 296.3 262.8 297.24 262.8 298.39C262.8 299.63 263.8 300.64 265.05 300.64C266.3 300.64 267.3 299.63 267.3 298.39C267.3 297.15 266.29 296.14 265.05 296.14C265.03 296.14 265.01 296.14 264.98 296.14C264.9 295.4 264.82 294.68 264.73 294C266.53 294.4 268.14 297.3 270.32 297.69C272.8 298.13 273.79 299.26 274.21 300.95C274.63 302.22 275.4 302.01 277.09 302.44C278.78 302.44 280.05 300.75 281.32 300.32C284.7 299.47 287.24 303.28 290.2 303.28C292.2 303.28 293.92 305.01 295.62 305.66C295.62 305.66 295.65 305.71 295.66 305.74L295.67 305.73Z" fill="url(#paint6_linear_145_3219)"/>
<path d="M284.22 331C284.43 331.27 284.65 331.53 284.87 331.78C284.64 331.53 284.42 331.27 284.22 331Z" fill="url(#paint7_linear_145_3219)"/>
<path d="M285.34 332.27C285.76 332.69 286.19 333.12 286.66 333.49C286.18 333.12 285.76 332.7 285.34 332.28C285.18 332.12 285.03 331.96 284.88 331.79C285.03 331.96 285.19 332.12 285.34 332.27Z" fill="url(#paint8_linear_145_3219)"/>
<path d="M287.31 310.37C287.69 310.1 288.08 309.86 288.48 309.63C288.08 309.86 287.69 310.11 287.31 310.37Z" fill="url(#paint9_linear_145_3219)"/>
<path d="M288.3 334.39C288.3 334.39 288.22 334.36 288.18 334.35C288.14 334.34 288.1 334.32 288.07 334.31C288 334.28 287.93 334.25 287.86 334.22C287.83 334.21 287.8 334.19 287.76 334.18C287.73 334.16 287.69 334.15 287.66 334.13C287.59 334.1 287.53 334.07 287.47 334.03C287.39 333.99 287.32 333.95 287.24 333.9C287.17 333.86 287.1 333.81 287.03 333.76C287.11 333.81 287.2 333.86 287.28 333.91L288.29 334.38L288.3 334.39Z" fill="url(#paint10_linear_145_3219)"/>
<path d="M289.68 309.02C289.96 308.89 290.23 308.78 290.52 308.67C290.24 308.78 289.96 308.9 289.68 309.02Z" fill="url(#paint11_linear_145_3219)"/>
<path d="M293.38 307.91C293.06 307.96 292.73 308.03 292.41 308.1C292.73 308.03 293.05 307.97 293.38 307.91Z" fill="url(#paint12_linear_145_3219)"/>
<path d="M208.45 380.57C203.95 388.15 198.31 400.79 195.87 416.85C195.2 416.49 194.53 416.13 193.85 415.76C193.17 415.4 192.49 415.03 191.81 414.66C190.44 413.92 189.06 413.16 187.65 412.4C187.22 412.17 186.79 411.93 186.35 411.69C185.92 411.45 185.48 411.21 185.04 410.98H185.02C184.28 410.59 183.55 410.19 182.79 409.78C180.52 408.55 176.46 406.28 173.75 405.51C184.18 392.57 197.75 384.93 208.44 380.57H208.45Z" fill="#2E3192"/>
<path d="M199.71 375.22C190.81 379.91 178.54 389.02 170.85 405.69C169.79 407.99 168.81 410.44 167.95 413.04C167.33 412.8 166.65 412.67 165.95 412.67C165.73 412.67 165.52 412.68 165.3 412.71C162.47 413.03 160.29 415.42 160.29 418.33C160.29 419.06 160.43 419.77 160.68 420.41C160.17 421.23 159.67 421.99 159.18 422.68C151.4 433.63 137.46 441.55 129.48 449.49C127.19 449.56 124.93 449.97 122.79 450.81C123.86 445.2 121.52 438.79 118.21 433.01C127.23 414.57 136.92 396.27 147.78 379.09C149.99 375.63 152.92 373.54 156.48 371.49C160.54 369.18 165.15 370.09 169.79 370.57C175.15 371.12 180.12 371.66 184.78 372.21C170.55 374.49 153.86 381.72 147.62 402.23C147.43 402.21 147.24 402.2 147.05 402.2C143.92 402.2 141.39 404.74 141.39 407.86C141.39 410.98 143.92 413.52 147.05 413.52C150.18 413.52 152.71 410.99 152.71 407.86C152.71 405.05 150.65 402.71 147.95 402.27C158.32 380.79 184.41 376.33 199.73 375.21L199.71 375.22Z" fill="#2E3192"/>
<path d="M108.34 454.14C108.21 454.21 108.19 454.11 108.32 453.77C108.34 453.89 108.35 454.02 108.34 454.14Z" fill="#0500D4"/>
<path d="M222.68 379.78C220.42 388.06 216.26 405.94 215.93 426.55C215.62 426.42 215.3 426.29 214.99 426.16C214.93 426.14 214.87 426.109 214.81 426.079C214.81 426.079 214.79 426.079 214.78 426.069C214.45 425.929 214.13 425.79 213.8 425.65C213.41 425.48 213.02 425.31 212.63 425.14C212.31 425 212 424.859 211.68 424.719C211.31 424.549 210.94 424.389 210.56 424.219C210.49 424.189 210.43 424.16 210.36 424.13C210.02 423.97 209.67 423.81 209.32 423.65C209.29 423.64 209.26 423.619 209.23 423.609C209.15 423.569 209.06 423.53 208.98 423.49C208.68 423.35 208.39 423.209 208.1 423.069C207.7 422.879 207.3 422.69 206.9 422.5C205.3 421.73 203.7 420.929 202.09 420.099C201.04 419.559 199.98 419.009 198.91 418.449C198.89 418.439 198.87 418.43 198.85 418.42C205.73 398.23 216.59 385.41 222.68 379.77V379.78Z" fill="#2E3192"/>
<path d="M241.36 431.8C241.1 431.86 240.84 431.91 240.58 431.95C238.3 432.31 236.21 432.31 234.19 432.07C230.87 431.71 227.7 430.7 224.12 429.55C223.77 429.44 223.42 429.32 223.07 429.21C222.68 429.08 222.3 428.95 221.91 428.81C221.58 428.7 221.26 428.58 220.93 428.47C224.57 409.32 229.91 394.61 233.52 386.07C236.78 396.37 241.15 413.51 241.36 431.79V431.8Z" fill="#2E3192"/>
<path d="M257.24 410.86C255.8 418.41 251.43 426.16 245.78 429.86C248.01 414.03 246.83 398.01 245.68 388.47C249.14 393.54 253.52 401.05 257.24 410.86Z" fill="#2E3192"/>
<path d="M108.32 453.77C108.34 453.89 108.35 454.02 108.34 454.14C108.21 454.21 108.19 454.11 108.32 453.77Z" fill="url(#paint13_linear_145_3219)"/>
<path d="M115.67 483.03C120.35 487.71 123.49 500.59 116.75 502.6C110.01 504.61 105.86 502.69 100.42 503.89C90.3203 506.12 81.0403 513.15 71.4203 513.95C61.8003 514.75 52.1903 512.71 44.5403 510.04C37.5303 507.59 38.1203 504.75 35.3203 500.2C35.4703 500.22 35.6203 500.23 35.7703 500.23C35.9503 500.23 36.1303 500.22 36.3103 500.19C41.0303 503.19 45.0003 503.63 48.2603 503.72C52.0303 503.83 66.0803 501.69 71.7303 499.08C80.6103 494.98 86.4503 492.63 90.1503 484.41C92.4603 479.28 92.9803 473.83 95.9403 470C98.8903 466.17 101.68 464.69 103.73 460.92C104.66 459.2 105.4 457.6 106.11 456.01C106.22 456.03 106.34 456.04 106.46 456.04C107.27 456.04 107.82 455.63 108.1 455.09C109.15 455.45 110.31 455.86 111.51 456.3C110.68 458.07 111.55 460.69 114.1 460.69C115.73 460.69 116.68 459.61 116.93 458.38C118.22 458.83 119.65 459.23 120.98 459.51C120.98 459.51 121.07 459.57 121.11 459.6C120.4 460.87 120.88 462.81 122.54 463.16C116.78 467.91 117.49 475.79 115.66 483.05L115.67 483.03Z" fill="#FC0000"/>
<path d="M226.91 564.629C226.34 567.489 223.19 569.18 220.27 569.32C217.36 569.46 214.51 568.5 211.63 568.03C206.82 567.26 205.53 567.92 200.68 568.37C192.16 569.16 182.96 570.419 174.42 569.949C166.75 569.529 159.43 567.4 152.95 563.28C146.59 559.24 142.04 551.469 143.78 544.169C144.03 544.429 144.31 544.65 144.63 544.82C149.03 551.04 152.44 553.469 160.65 556.169C163.74 557.189 171.77 557.52 175.02 557.37C180.66 557.1 188.58 554.28 191.75 549.6C193.28 547.34 194.35 544.809 195.03 542.169C195.51 542.779 196.25 543.199 197.26 543.199C198.94 543.199 199.89 542.06 200.09 540.77C201.8 541.25 203.55 541.59 205.32 541.78C205.17 543.48 206.2 545.31 208.4 545.31C210.14 545.31 211.14 544.18 211.42 542.86C211.49 542.53 211.51 542.19 211.49 541.85C213.33 541.69 215.15 541.379 216.93 540.909C217.16 541.499 217.6 541.989 218.25 542.229C218.53 542.329 218.84 542.389 219.19 542.389C219.46 542.389 219.71 542.36 219.93 542.29C220.61 547.72 221.82 552.94 224.73 557.82C225.98 559.92 227.4 562.23 226.91 564.62V564.629Z" fill="#FC0000"/>
<path d="M142.54 453.35C142.54 453.35 142.54 453.43 142.54 453.47C139.12 453.72 136.04 454.28 132.8 455.45C129.96 456.48 126.11 459.55 125.62 459.79C125.51 459.85 125.37 459.89 125.19 459.91C124.89 459.11 124.18 458.48 123.07 458.48C122.14 458.48 121.49 458.92 121.13 459.53C121.08 459.53 121.02 459.51 120.97 459.5C119.64 459.22 118.2 458.82 116.92 458.37C117.03 457.8 117 457.21 116.83 456.66C116.49 455.6 115.61 454.74 114.18 454.7H114.09C112.79 454.7 111.92 455.39 111.5 456.29C110.3 455.85 109.14 455.44 108.09 455.08C108.24 454.79 108.32 454.47 108.32 454.14C108.32 454.02 108.32 453.89 108.3 453.77C108.23 453.29 108.01 452.85 107.63 452.55C107.38 452.34 107.05 452.21 106.65 452.17C108.55 445.16 109.14 437.69 107.05 430.59C104.93 423.38 99.44 417.32 92.23 416.13C92.23 416.11 92.23 416.09 92.23 416.07C92.23 415.72 92.15 415.38 92 415.08C95.22 413.85 99.01 414.2 102.2 415.61C105.99 417.29 109.04 420.27 111.63 423.51C113.81 426.22 116.18 429.49 118.19 433C121.5 438.77 123.84 445.18 122.77 450.8C124.91 449.96 127.17 449.54 129.46 449.48C133.95 449.34 138.58 450.52 142.75 452.37C142.61 452.67 142.53 453 142.53 453.34L142.54 453.35Z" fill="#AA2B2B"/>
<path d="M108.34 454.14C108.21 454.21 108.19 454.11 108.32 453.77C108.34 453.89 108.35 454.02 108.34 454.14Z" fill="#0B0055"/>
<path d="M219.28 535.6C219.33 536.19 219.38 536.77 219.43 537.36C219.38 537.36 219.33 537.36 219.29 537.36C219.26 537.36 219.23 537.36 219.2 537.36C218.36 537.36 217.74 537.689 217.33 538.189C216.72 538.929 216.6 540.029 216.95 540.929C215.17 541.409 213.35 541.72 211.51 541.87C211.41 540.36 210.38 538.929 208.42 538.929C208.35 538.929 208.28 538.929 208.2 538.929C207.64 538.959 207.17 539.11 206.77 539.35C206.34 539.61 206.01 539.959 205.77 540.379C205.52 540.809 205.38 541.299 205.33 541.799C203.56 541.609 201.81 541.269 200.1 540.789C200.36 539.149 199.42 537.279 197.27 537.279C196.69 537.279 196.21 537.409 195.8 537.639C195.7 537.699 195.61 537.76 195.52 537.83C195.04 536.13 194.17 533.349 191.89 531.269C180.76 521.119 170.08 520.709 163.18 519.699C163 519.399 162.75 519.149 162.44 518.959C167.36 517.469 178.89 516.239 188.11 519.199C189.07 519.509 190 519.859 190.9 520.269C197.29 523.139 206.4 528.869 209.91 534.939C210.91 532.799 212.86 529.999 215.12 527.629C216.77 525.889 218.59 524.379 220.32 523.519C220.51 523.909 220.82 524.239 221.2 524.459C219.93 528.329 219.36 532.44 219.28 535.61V535.6Z" fill="#AA2B2B"/>
<path d="M39.2298 496.79C39.2298 498.51 37.9699 499.94 36.3199 500.19C36.1499 500.22 35.9698 500.23 35.7798 500.23C35.6298 500.23 35.4798 500.23 35.3298 500.2C33.6398 499.98 32.3398 498.53 32.3398 496.79C32.3398 494.89 33.8798 493.35 35.7798 493.35C37.6798 493.35 39.2298 494.89 39.2298 496.79Z" fill="#0B0055"/>
<path d="M149.73 541.82C149.73 543.72 148.19 545.26 146.28 545.26C145.68 545.26 145.12 545.11 144.63 544.84C144.31 544.67 144.03 544.45 143.78 544.19C143.19 543.57 142.84 542.74 142.84 541.82C142.84 539.92 144.38 538.38 146.28 538.38C148.18 538.38 149.73 539.92 149.73 541.82Z" fill="#0B0055"/>
<path d="M163.5 520.87C163.5 522.11 162.49 523.12 161.25 523.12C160.01 523.12 159 522.11 159 520.87C159 519.63 160 518.62 161.25 518.62C161.68 518.62 162.09 518.74 162.43 518.96C162.73 519.14 162.98 519.39 163.17 519.7C163.38 520.04 163.5 520.44 163.5 520.87Z" fill="#FC0000"/>
<path d="M92.2498 416.08C92.2498 416.08 92.2498 416.12 92.2498 416.14C92.2198 417.35 91.2298 418.32 90.0098 418.32C88.7898 418.32 87.7598 417.31 87.7598 416.07C87.7598 414.83 88.7698 413.82 90.0098 413.82C90.8998 413.82 91.6598 414.33 92.0298 415.08C92.1798 415.38 92.2598 415.71 92.2598 416.07L92.2498 416.08Z" fill="#FC0000"/>
<path d="M224.57 522.51C224.57 523.75 223.56 524.75 222.32 524.75C221.91 524.75 221.52 524.64 221.19 524.44C220.81 524.22 220.51 523.9 220.31 523.5C220.16 523.2 220.07 522.86 220.07 522.5C220.07 521.26 221.07 520.25 222.31 520.25C223.55 520.25 224.56 521.25 224.56 522.5L224.57 522.51Z" fill="#FC0000"/>
<path d="M147.04 453.35C147.04 454.59 146.03 455.6 144.79 455.6C143.55 455.6 142.61 454.66 142.55 453.47C142.55 453.43 142.55 453.39 142.55 453.35C142.55 453 142.63 452.67 142.77 452.38C143.13 451.63 143.9 451.11 144.79 451.11C146.03 451.11 147.04 452.12 147.04 453.36V453.35Z" fill="#FC0000"/>
<path d="M299.7 466.5C299.7 469.63 297.16 472.16 294.04 472.16C290.92 472.16 288.38 469.63 288.38 466.5C288.38 463.37 290.91 460.84 294.04 460.84C294.28 460.84 294.52 460.85 294.75 460.89C294.84 460.89 294.93 460.91 295.02 460.93C297.67 461.39 299.69 463.71 299.69 466.5H299.7Z" fill="#FC0000"/>
<path d="M269.95 457.99C269.95 461.12 267.41 463.65 264.29 463.65C261.17 463.65 258.63 461.12 258.63 457.99C258.63 454.86 261.16 452.33 264.29 452.33C264.54 452.33 264.79 452.35 265.03 452.38C265.12 452.38 265.22 452.4 265.31 452.42C267.95 452.9 269.95 455.21 269.95 457.98V457.99Z" fill="#0B0055"/>
<path d="M244.18 455.599C244.18 458.729 241.64 461.26 238.52 461.26C235.4 461.26 232.86 458.729 232.86 455.599C232.86 452.469 235.39 449.939 238.52 449.939C239.04 449.939 239.53 450.01 240.01 450.14C240.16 450.18 240.31 450.23 240.46 450.28C242.63 451.07 244.18 453.149 244.18 455.599Z" fill="#FC0000"/>
<path d="M223.37 455.599C223.37 458.729 220.83 461.26 217.71 461.26C214.59 461.26 212.05 458.729 212.05 455.599C212.05 452.469 214.4 450.129 217.37 449.949C217.48 449.949 217.6 449.939 217.71 449.939C217.78 449.939 217.85 449.939 217.91 449.939C220.94 450.039 223.37 452.539 223.37 455.589V455.599Z" fill="#0B0055"/>
<path d="M200.31 437.8C200.31 440.93 197.77 443.46 194.65 443.46C191.53 443.46 188.99 440.93 188.99 437.8C188.99 434.67 191.52 432.14 194.65 432.14C194.8 432.14 194.95 432.14 195.1 432.16C198.01 432.39 200.3 434.83 200.3 437.8H200.31Z" fill="#FC0000"/>
<path d="M171.6 418.33C171.6 421.46 169.06 423.99 165.94 423.99C163.54 423.99 161.5 422.51 160.68 420.41C160.42 419.77 160.29 419.06 160.29 418.33C160.29 415.42 162.47 413.03 165.3 412.71C165.51 412.68 165.73 412.67 165.95 412.67C166.66 412.67 167.33 412.8 167.95 413.04C168.09 413.09 168.23 413.15 168.36 413.21C170.28 414.11 171.61 416.07 171.61 418.33H171.6Z" fill="#0B0055"/>
<path d="M152.69 407.86C152.69 410.99 150.15 413.52 147.03 413.52C143.91 413.52 141.37 410.99 141.37 407.86C141.37 404.73 143.9 402.2 147.03 402.2C147.22 402.2 147.42 402.2 147.6 402.23C147.71 402.24 147.82 402.26 147.92 402.27C150.62 402.7 152.68 405.04 152.68 407.86H152.69Z" fill="#FC0000"/>
<path d="M209.01 283.53C209.01 284.77 208 285.78 206.76 285.78C205.52 285.78 204.51 284.77 204.51 283.53C204.51 282.29 205.51 281.28 206.76 281.28C207.73 281.28 208.55 281.89 208.87 282.75C208.93 282.91 208.97 283.08 208.99 283.26C209 283.35 209.01 283.44 209.01 283.53Z" fill="#0B0055"/>
<path d="M213.5 296.6C213.5 296.6 213.5 296.67 213.5 296.7C213.5 296.72 213.5 296.74 213.5 296.76C213.42 297.93 212.45 298.85 211.26 298.85C210.07 298.85 209.01 297.85 209.01 296.6C209.01 295.35 210.01 294.35 211.26 294.35C212.51 294.35 213.51 295.36 213.51 296.6H213.5Z" fill="#0B0055"/>
<path d="M222.21 312.28C222.21 313.52 221.2 314.53 219.96 314.53C218.72 314.53 217.71 313.53 217.71 312.28C217.71 311.03 218.71 310.03 219.96 310.03C220.52 310.03 221.02 310.23 221.41 310.57C221.44 310.6 221.47 310.63 221.51 310.65C221.94 311.06 222.21 311.64 222.21 312.28Z" fill="#0B0055"/>
<path d="M240.92 316.77C240.92 318.01 239.91 319.02 238.67 319.02C237.43 319.02 236.42 318.02 236.42 316.77C236.42 315.52 237.42 314.52 238.67 314.52C238.94 314.52 239.21 314.57 239.45 314.66C239.49 314.67 239.53 314.689 239.57 314.709C240.36 315.049 240.92 315.85 240.92 316.77Z" fill="#0B0055"/>
<path d="M257.78 312.28C257.78 313.52 256.77 314.53 255.53 314.53C254.29 314.53 253.28 313.53 253.28 312.28C253.28 311.03 254.28 310.03 255.53 310.03C255.55 310.03 255.58 310.03 255.6 310.03C255.66 310.03 255.72 310.03 255.77 310.04C256.89 310.16 257.77 311.12 257.77 312.27L257.78 312.28Z" fill="#0B0055"/>
<path d="M267.3 298.37C267.3 299.61 266.29 300.62 265.05 300.62C263.81 300.62 262.8 299.61 262.8 298.37C262.8 297.23 263.65 296.28 264.76 296.14C264.83 296.14 264.9 296.13 264.98 296.13C265 296.13 265.02 296.13 265.05 296.13C266.29 296.13 267.3 297.14 267.3 298.38V298.37Z" fill="#0B0055"/>
<path d="M108.34 454.14C108.34 454.47 108.26 454.79 108.11 455.08C107.83 455.63 107.28 456.03 106.47 456.03C106.35 456.03 106.23 456.03 106.12 456C103.98 455.66 104.1 452.16 106.47 452.16C106.54 452.16 106.61 452.16 106.67 452.17C107.07 452.2 107.39 452.34 107.65 452.54C108.03 452.84 108.25 453.29 108.32 453.76C108.2 454.1 108.22 454.2 108.34 454.13V454.14Z" fill="#0B0055"/>
<path d="M108.34 454.14C108.21 454.21 108.19 454.11 108.32 453.77C108.34 453.89 108.35 454.02 108.34 454.14Z" fill="#141247"/>
<path d="M116.93 458.37C116.68 459.61 115.74 460.68 114.1 460.68C111.55 460.68 110.69 458.06 111.51 456.29C111.93 455.38 112.79 454.7 114.1 454.7H114.19C115.62 454.73 116.5 455.6 116.84 456.66C117.02 457.2 117.05 457.8 116.93 458.37Z" fill="#0B0055"/>
<path d="M123.08 463.2C122.89 463.2 122.71 463.18 122.55 463.15C120.89 462.81 120.41 460.86 121.12 459.59C121.12 459.57 121.14 459.55 121.15 459.54C121.51 458.93 122.16 458.49 123.09 458.49C124.2 458.49 124.91 459.12 125.21 459.92C125.72 461.31 125.02 463.2 123.09 463.2H123.08Z" fill="#0B0055"/>
<path d="M200.1 540.78C199.89 542.06 198.95 543.209 197.27 543.209C196.26 543.209 195.51 542.799 195.04 542.179C194.05 540.909 194.21 538.81 195.52 537.82C195.61 537.75 195.7 537.689 195.8 537.629C196.2 537.399 196.69 537.27 197.27 537.27C199.42 537.27 200.36 539.14 200.1 540.78Z" fill="#0B0055"/>
<path d="M211.43 542.87C211.16 544.19 210.15 545.32 208.41 545.32C206.21 545.32 205.18 543.49 205.33 541.79C205.37 541.29 205.52 540.8 205.77 540.37C206.01 539.96 206.34 539.6 206.77 539.34C207.16 539.1 207.64 538.95 208.2 538.92C208.27 538.92 208.34 538.92 208.42 538.92C210.37 538.92 211.4 540.35 211.51 541.86C211.53 542.2 211.51 542.54 211.44 542.87H211.43Z" fill="#0B0055"/>
<path d="M219.93 542.31C219.71 542.37 219.46 542.41 219.19 542.41C218.84 542.41 218.53 542.35 218.25 542.25C217.6 542.01 217.17 541.51 216.93 540.93C216.58 540.04 216.7 538.94 217.31 538.19C217.72 537.69 218.34 537.36 219.18 537.36C219.21 537.36 219.24 537.36 219.27 537.36C219.32 537.36 219.37 537.36 219.41 537.36C222.17 537.58 222.34 541.62 219.91 542.31H219.93Z" fill="#0B0055"/>
<path d="M405.73 308.57C404.59 310.68 403.64 313.32 402.99 316.23L393.36 325.68C381.8 334.7 363.55 343.19 345.82 350.45C329.73 353.41 303.97 342.1 293.24 336.89C290.15 335.39 288.3 334.39 288.3 334.39H288.29L287.28 333.91C287.2 333.86 287.11 333.81 287.03 333.76C286.9 333.68 286.78 333.59 286.66 333.49C286.18 333.12 285.76 332.7 285.34 332.27C285.18 332.11 285.03 331.95 284.88 331.79C284.65 331.54 284.44 331.28 284.23 331.01C283.88 330.56 283.55 330.07 283.24 329.57C283.12 329.37 283.01 329.17 282.9 328.96C282.84 328.86 282.79 328.75 282.73 328.64C282.68 328.54 282.62 328.43 282.57 328.32C282.47 328.11 282.37 327.89 282.28 327.68C282.23 327.57 282.19 327.46 282.15 327.35C282.11 327.24 282.06 327.13 282.02 327.02C281.94 326.8 281.86 326.57 281.79 326.34C281.36 324.98 281.12 323.55 281.12 322.13C281.12 318.24 282.71 314.74 285.21 312.18C285.29 312.1 285.38 312.01 285.46 311.93C285.58 311.81 285.71 311.69 285.84 311.57C286.23 311.22 286.63 310.89 287.05 310.58C287.14 310.51 287.24 310.44 287.33 310.38C287.71 310.12 288.1 309.87 288.5 309.64C288.8 309.47 289.11 309.31 289.42 309.16C289.51 309.12 289.6 309.07 289.7 309.03C289.98 308.91 290.25 308.79 290.54 308.68C290.82 308.57 291.11 308.47 291.4 308.38C291.5 308.35 291.59 308.32 291.69 308.29C291.81 308.26 291.92 308.23 292.03 308.2C292.16 308.17 292.29 308.13 292.43 308.1C292.75 308.03 293.07 307.97 293.4 307.91C294.1 307.8 294.8 307.75 295.52 307.75H298.06C298.27 307.75 298.51 307.78 298.76 307.82C298.88 307.84 299.01 307.87 299.14 307.9C299.21 307.91 299.27 307.93 299.34 307.95C299.49 307.99 299.64 308.04 299.79 308.09C300.23 308.24 300.67 308.42 301.03 308.6C301.03 308.6 324.28 316.2 343.31 324.66C356.3 315.01 377.23 309.07 385.55 306.98C390.84 307.55 396.63 306.98 402.62 304.58H402.63C394.44 313.24 393.16 317.72 383.43 321.64C383.06 320.27 381.82 319.27 380.33 319.27C378.56 319.27 377.12 320.71 377.12 322.48C377.12 324.25 378.56 325.69 380.33 325.69C382.1 325.69 383.54 324.25 383.54 322.48C383.54 322.41 383.54 322.34 383.54 322.26C392.6 322.09 401.43 315.77 405.76 308.57H405.73Z" fill="#FFD6A1"/>
<path d="M284.22 331C284.43 331.27 284.65 331.53 284.87 331.78C284.64 331.53 284.42 331.27 284.22 331Z" fill="#FFD6A1"/>
<path d="M285.34 332.27C285.76 332.69 286.19 333.12 286.66 333.49C286.18 333.12 285.76 332.7 285.34 332.28C285.18 332.12 285.03 331.96 284.88 331.79C285.03 331.96 285.19 332.12 285.34 332.27Z" fill="#FFD6A1"/>
<path d="M288.3 334.38C288.3 334.38 288.23 334.36 288.19 334.35C288.15 334.34 288.11 334.32 288.08 334.31C288.01 334.28 287.94 334.25 287.87 334.22C287.84 334.21 287.81 334.19 287.77 334.18C287.74 334.16 287.7 334.15 287.67 334.13C287.6 334.1 287.54 334.07 287.48 334.03C287.42 334 287.35 333.96 287.29 333.92L288.3 334.39V334.38Z" fill="#FFD6A1"/>
<path d="M205.48 301.79C205.48 306.09 203.6 309.96 200.62 312.6C199.8 313.33 198.9 313.96 197.94 314.48L196.66 315.12L190.64 318.16C190.64 318.16 190.67 318.14 190.69 318.13C191.65 317.56 192.51 316.86 193.29 316.08H193.3C195.41 313.99 196.87 311.26 197.38 308.21C197.51 307.43 197.58 306.62 197.58 305.8C197.58 298.72 192.49 292.83 185.76 291.57C184.89 291.41 184 291.32 183.09 291.32C182.32 291.32 181.55 291.38 180.82 291.51C179.7 291.68 178.62 291.99 177.62 292.41L177.68 292.38L183.44 289.43L183.52 289.39C185.72 288.07 188.28 287.3 191.03 287.3C191.19 287.3 191.35 287.3 191.5 287.3C199.26 287.55 205.49 293.94 205.49 301.78L205.48 301.79Z" fill="#0B0055"/>
<path d="M190.67 318.13C190.67 318.13 190.64 318.15 190.62 318.16L190.59 318.18C190.59 318.18 190.65 318.15 190.68 318.13H190.67Z" fill="#0500D4"/>
<path d="M288.3 334.39C288.3 334.39 288.22 334.36 288.18 334.35C288.14 334.34 288.1 334.32 288.07 334.31C288 334.28 287.93 334.25 287.86 334.22C287.83 334.21 287.8 334.19 287.76 334.18C287.73 334.16 287.69 334.15 287.66 334.13C287.59 334.1 287.53 334.07 287.47 334.03C287.39 333.99 287.32 333.95 287.24 333.9L287.28 333.92L288.29 334.39H288.3Z" fill="#0500D4"/>
<path d="M300.99 308.589C300.63 308.409 300.2 308.229 299.76 308.089C299.61 308.039 299.46 307.989 299.31 307.949C299.24 307.929 299.18 307.91 299.11 307.9C298.98 307.87 298.85 307.839 298.73 307.819C298.48 307.769 298.24 307.75 298.03 307.75H295.49C294.78 307.75 294.07 307.81 293.37 307.91C293.05 307.96 292.72 308.019 292.4 308.099C292.27 308.129 292.13 308.159 292 308.199C291.89 308.229 291.77 308.26 291.66 308.29C291.56 308.32 291.47 308.35 291.37 308.38C291.08 308.47 290.79 308.57 290.51 308.68C290.23 308.79 289.95 308.9 289.67 309.03C289.58 309.07 289.48 309.11 289.39 309.16C289.08 309.31 288.77 309.47 288.47 309.64C288.07 309.87 287.68 310.12 287.3 310.38C287.2 310.45 287.11 310.509 287.02 310.579C286.6 310.889 286.2 311.219 285.81 311.569C285.68 311.689 285.56 311.81 285.43 311.93C285.35 312.01 285.26 312.09 285.18 312.18C282.68 314.75 281.09 318.24 281.09 322.13C281.09 323.56 281.33 324.979 281.76 326.339C281.83 326.569 281.91 326.79 281.99 327.02C282.03 327.13 282.07 327.239 282.12 327.349C282.16 327.459 282.21 327.57 282.25 327.68C282.34 327.9 282.44 328.109 282.54 328.319C282.59 328.429 282.64 328.53 282.7 328.64C282.76 328.75 282.81 328.849 282.87 328.959C282.98 329.169 283.1 329.369 283.21 329.569C283.51 330.069 283.84 330.56 284.2 331.01C284.41 331.28 284.63 331.54 284.85 331.79C285 331.96 285.15 332.12 285.31 332.28C285.73 332.7 286.15 333.12 286.63 333.49C286.75 333.58 286.87 333.67 287 333.76C287.07 333.81 287.14 333.85 287.21 333.9L281.93 331.43L280.66 330.589C276.43 328.469 273.05 323.4 273.05 317.9C273.05 309.87 279.82 303.52 287.85 303.52C290.39 303.52 292.92 304.37 295.04 305.64H295.47L295.64 305.729L300.96 308.599L300.99 308.589Z" fill="#0B0055"/>
<path d="M284.88 331.78C284.65 331.53 284.43 331.27 284.23 331C284.44 331.27 284.66 331.53 284.88 331.78Z" fill="#0500D4"/>
<path d="M286.66 333.49C286.18 333.12 285.76 332.7 285.34 332.28C285.18 332.12 285.03 331.96 284.88 331.79C285.03 331.96 285.19 332.12 285.34 332.27C285.76 332.69 286.19 333.12 286.66 333.49Z" fill="#0500D4"/>
<path d="M229.04 283.62C223.52 284.59 214.64 285.58 209 283.26C208.98 283.08 208.94 282.92 208.88 282.75C218.99 283.21 225.58 280.789 228.01 279.689C228.06 281.319 228.43 282.599 229.04 283.609V283.62Z" fill="#0B0055"/>
<path d="M236.22 287.01C232.5 291.08 224.81 297.43 213.5 296.76C213.5 296.74 213.5 296.719 213.5 296.699C222.18 296.679 228.52 290.19 231.7 286.02C233.06 286.69 234.65 286.96 236.22 287.01Z" fill="#0B0055"/>
<path d="M242.63 286.14C241.07 289.33 233.93 302.9 221.51 310.66C221.48 310.63 221.45 310.6 221.41 310.58C227.25 305.83 234.14 293.06 237.19 287.02C239.39 286.96 241.44 286.52 242.63 286.14Z" fill="#0B0055"/>
<path d="M264.99 296.13C264.92 296.13 264.85 296.13 264.77 296.14C260.4 285.71 252.94 284.04 252.94 284.04C252.94 284.04 258.46 295.27 255.78 310.05C255.72 310.05 255.66 310.04 255.61 310.04C255.85 292.67 250.94 294.02 248.62 284.81C248.58 291.53 246.58 303.34 239.59 314.72C239.55 314.7 239.51 314.69 239.47 314.67C245.73 298.28 243.74 288.29 243.12 285.98C243.15 285.97 243.19 285.95 243.22 285.94C246.4 284.68 258.49 281.67 263.06 286.21C263.24 286.39 263.41 286.58 263.57 286.79C263.51 286.98 263.45 287.16 263.39 287.34C262.67 289.69 262.42 292.01 263.99 293.98C264.25 293.93 264.49 293.94 264.74 293.99C264.84 294.67 264.92 295.39 264.99 296.13Z" fill="#0B0055"/>
<path d="M273.28 253.37C272.86 252.52 272.01 251.26 271.59 249.99C271 248.82 270.83 246.23 270.91 243.76C268.32 243.11 265.59 242.3 262.8 241.33C257.85 239.68 251.75 238.5 248.1 236.56C247.2 236.08 246.39 235.59 245.66 235.09C245.56 235.12 245.45 235.14 245.35 235.17C245.25 235.2 245.14 235.23 245.04 235.26C244.94 235.29 244.83 235.33 244.73 235.36C244.63 235.39 244.52 235.43 244.42 235.47C244.34 235.5 244.27 235.53 244.19 235.56C244.11 235.59 244.04 235.62 243.96 235.66C243.81 235.73 243.65 235.8 243.5 235.87C243.4 235.92 243.29 235.97 243.19 236.03C243.04 236.11 242.88 236.19 242.73 236.29C242.68 236.32 242.63 236.35 242.57 236.38C242.48 236.43 242.4 236.48 242.31 236.54C242.19 236.62 242.07 236.7 241.94 236.78C241.84 236.85 241.73 236.92 241.62 237C241.54 237.06 241.45 237.11 241.37 237.17C241.35 237.18 241.33 237.2 241.3 237.22C241.2 237.3 241.09 237.38 240.98 237.46C240.8 237.6 240.63 237.74 240.44 237.89C240.39 237.93 240.34 237.97 240.3 238.01C240.27 238.04 240.23 238.07 240.2 238.09C240.12 238.16 240.04 238.22 239.96 238.3C239.73 238.5 239.5 238.7 239.26 238.92C238.9 239.24 238.54 239.6 238.16 239.97C238.04 240.09 237.91 240.22 237.79 240.34C237.66 240.48 237.52 240.61 237.39 240.75C237.26 240.89 237.12 241.03 236.99 241.17C236.78 241.39 236.56 241.63 236.34 241.87C236.22 242.01 236.09 242.14 235.96 242.28C235.45 242.83 234.93 243.43 234.37 244.06C234.32 244.16 234.26 244.28 234.19 244.4C233.74 245.23 233.01 246.4 232.25 247.87C226.28 259.51 235.73 262.25 230.94 268.45C228.8 273.2 227.96 276.79 227.98 279.47C227.98 279.55 227.98 279.62 227.98 279.69C228.03 281.32 228.4 282.6 229.01 283.61C229.66 284.71 230.59 285.48 231.67 286.01C233.03 286.68 234.62 286.95 236.19 287C236.52 287.01 236.85 287.01 237.17 287C239.37 286.94 241.42 286.5 242.61 286.12C242.79 286.06 242.95 286.01 243.09 285.96C243.12 285.95 243.16 285.93 243.19 285.92C246.37 284.66 258.46 281.65 263.03 286.19C263.21 286.37 263.38 286.56 263.54 286.77C264.24 285.59 265.2 284.74 266.46 284.35C267.32 284.08 268.32 284.03 269.46 284.23C269.04 283.81 268.61 283.38 268.61 282.96C267.76 281.69 267.76 280.42 267.34 279.58C266.92 273.66 268.18 268.16 271.14 263.09C271.56 262.24 272.41 261.4 272.83 260.55C274.1 258.44 274.1 255.9 273.25 253.36L273.28 253.37ZM235.01 245.25C235.01 245.25 235.24 245.4 235.65 245.63C236.37 246.09 237.64 246.8 239.12 247.44C240.85 248.15 242.87 248.76 244.53 248.54C242.24 251.83 239.53 252.47 235.01 250.63C230.52 248.82 235.01 245.25 235.01 245.25ZM233.51 266.23C233.51 266.23 233.77 272.86 248.23 270.38C235.5 276.02 233.18 273.03 233.51 266.23ZM247.2 249.92C242.88 253.43 240.32 258.39 237.06 262.75C236.96 264.73 240.28 265.83 242.69 266L242.67 266.46C240.31 266.31 236.23 266.56 235.64 262.48V262.36L235.76 262.19L235.79 262.14C239.36 257.86 242.19 252.91 246.72 249.61C249.15 247.2 247.18 244.9 244.45 244.77C241.9 244.09 239.08 243.96 236.34 244.02L236.29 243.57C239.06 243.14 241.86 242.85 244.78 243.22C248.27 242.99 250.22 248.23 247.2 249.92ZM252.75 258.09C246.95 257.22 251.24 251.74 251.24 251.74C251.24 251.74 251.74 251.94 252.57 252.17C253.51 252.45 254.88 252.82 256.41 253.11C258.73 253.5 261.38 253.68 263.35 252.94C261.56 257.48 258.55 258.96 252.75 258.09ZM251.89 247.18C250.15 244.67 253.29 245.62 253.29 245.62C253.29 245.62 256.34 249.88 267.45 248.44C260.88 251.2 255.66 251.42 251.9 247.18H251.89Z" fill="#FFD6A1"/>
<path d="M248.23 270.38C235.5 276.02 233.18 273.03 233.51 266.23C233.51 266.23 233.77 272.86 248.23 270.38Z" fill="#FFD6A1"/>
<path d="M244.53 248.55C242.24 251.84 239.53 252.48 235.01 250.64C230.52 248.83 235.01 245.26 235.01 245.26C235.01 245.26 235.24 245.41 235.65 245.64C236.37 246.1 237.64 246.81 239.12 247.45C240.85 248.16 242.87 248.77 244.53 248.55Z" fill="#FFD6A1"/>
<path d="M247.2 249.93C242.88 253.44 240.32 258.4 237.06 262.76C236.96 264.74 240.28 265.84 242.69 266.01L242.67 266.47C240.31 266.32 236.23 266.57 235.64 262.49V262.37L235.76 262.2L235.79 262.15C239.36 257.87 242.19 252.92 246.72 249.62C249.15 247.21 247.18 244.91 244.45 244.78C241.9 244.1 239.08 243.97 236.34 244.03L236.29 243.58C239.06 243.15 241.86 242.86 244.78 243.23C248.27 243 250.22 248.24 247.2 249.93Z" fill="#FFD6A1"/>
<path d="M263.36 252.95C261.57 257.49 258.56 258.97 252.76 258.1C246.96 257.23 251.25 251.75 251.25 251.75C251.25 251.75 251.75 251.95 252.58 252.18C253.52 252.46 254.89 252.83 256.42 253.12C258.74 253.51 261.39 253.69 263.36 252.95Z" fill="#FFD6A1"/>
<path d="M245.66 235.08C245.56 235.11 245.45 235.13 245.35 235.16C245.25 235.19 245.14 235.22 245.04 235.25C244.94 235.28 244.83 235.32 244.73 235.35C244.63 235.38 244.52 235.42 244.42 235.46C244.34 235.49 244.27 235.52 244.19 235.55C244.11 235.58 244.04 235.61 243.96 235.65C243.81 235.71 243.65 235.79 243.5 235.86C243.4 235.91 243.29 235.96 243.19 236.02C243.04 236.1 242.88 236.18 242.73 236.28C242.68 236.31 242.63 236.34 242.57 236.37C242.48 236.42 242.4 236.47 242.31 236.53C242.19 236.61 242.07 236.69 241.94 236.77C241.84 236.84 241.73 236.91 241.62 236.99C241.54 237.05 241.45 237.1 241.37 237.16C241.35 237.17 241.33 237.19 241.3 237.21C241.2 237.29 241.09 237.37 240.98 237.45C240.8 237.59 240.63 237.73 240.44 237.88C240.39 237.92 240.34 237.96 240.3 238C240.27 238.03 240.23 238.06 240.2 238.08C240.12 238.15 240.04 238.21 239.96 238.29C239.73 238.48 239.5 238.69 239.26 238.91C238.9 239.23 238.54 239.59 238.16 239.96C238.04 240.08 237.91 240.2 237.79 240.33C237.66 240.47 237.52 240.6 237.39 240.74C237.26 240.88 237.12 241.02 236.99 241.16C236.78 241.38 236.56 241.62 236.34 241.86C236.22 241.99 236.09 242.13 235.96 242.27C235.45 242.82 234.93 243.42 234.37 244.05C234.32 244.15 234.26 244.27 234.19 244.39C233.73 245.22 232.99 246.38 232.25 247.86C231.4 246.17 230.56 244.48 230.56 243.21C230.14 241.09 230.14 239.4 230.56 237.29C230.56 236.44 230.56 236.02 230.98 235.18C231.4 234.33 232.25 233.91 233.09 233.06C234.36 231.79 235.21 230.52 236.9 229.26C237.77 228.39 239.04 227.72 240.3 227.66C240.4 229.92 242.09 232.63 245.64 235.08H245.66Z" fill="black"/>
<path d="M298.08 305.53C297.25 306.02 296.44 305.96 295.63 305.65C293.93 305 292.21 303.27 290.21 303.27C287.25 303.27 284.71 299.46 281.33 300.31C280.06 300.73 278.79 302.43 277.1 302.43C275.41 302.01 274.65 302.219 274.22 300.939C273.8 299.249 272.81 298.12 270.33 297.68C268.15 297.29 266.53 294.39 264.74 293.99C264.5 293.93 264.25 293.919 263.99 293.979C262.42 292.019 262.67 289.689 263.39 287.339C263.45 287.149 263.51 286.97 263.57 286.79C264.27 285.61 265.23 284.76 266.49 284.37C267.35 284.1 268.35 284.05 269.49 284.25C269.07 283.83 268.64 283.399 268.64 282.979C267.79 281.709 267.79 280.439 267.37 279.599C266.95 273.679 268.21 268.179 271.17 263.109C271.59 262.259 272.44 261.419 272.86 260.569C274.13 258.459 274.13 255.92 273.28 253.38C272.86 252.53 272.01 251.27 271.59 250C271 248.83 270.83 246.24 270.91 243.77C279.85 246.01 287.12 246.26 289.71 243.93C291.69 243.74 293.31 243.729 294 244.079C296.12 245.349 297.81 247.89 296.54 250.43C295.7 252.12 293.58 253.81 294.85 255.5C295.27 256.35 296.54 256.349 297.39 257.189C298.66 258.459 297.81 260.569 296.54 261.839C295.7 263.529 294.43 265.22 294.85 266.92C295.7 267.76 296.54 268.19 297.39 269.03C299.93 271.99 296.54 276.64 297.39 280.03C297.39 281.72 298.66 282.99 298.66 284.26C298.66 286.38 297.39 287.639 296.54 289.329C298.7 291.829 302.44 302.96 298.08 305.54V305.53Z" fill="black"/>
<path d="M248.23 270.38C235.5 276.02 233.18 273.03 233.51 266.23C233.51 266.23 233.77 272.86 248.23 270.38Z" fill="black"/>
<path d="M247.2 249.93C242.88 253.44 240.32 258.4 237.06 262.76C236.96 264.74 240.28 265.84 242.69 266.01L242.67 266.47C240.31 266.32 236.23 266.57 235.64 262.49V262.37L235.76 262.2L235.79 262.15C239.36 257.87 242.19 252.92 246.72 249.62C249.15 247.21 247.18 244.91 244.45 244.78C241.9 244.1 239.08 243.97 236.34 244.03L236.29 243.58C239.06 243.15 241.86 242.86 244.78 243.23C248.27 243 250.22 248.24 247.2 249.93Z" fill="black"/>
<path d="M244.53 248.55C242.24 251.84 239.53 252.48 235.01 250.64C230.52 248.83 235.01 245.26 235.01 245.26C235.01 245.26 235.24 245.41 235.65 245.64C236.37 246.1 237.64 246.81 239.12 247.45C240.85 248.16 242.87 248.77 244.53 248.55Z" fill="#E6E6E6"/>
<path d="M239.12 247.45V247.47C239.12 248.7 238.12 249.69 236.9 249.69C235.68 249.69 234.68 248.7 234.68 247.47C234.68 246.71 235.07 246.04 235.65 245.63C236.37 246.09 237.64 246.8 239.12 247.44V247.45Z" fill="black"/>
<path d="M263.36 252.95C261.57 257.49 258.56 258.97 252.76 258.1C246.96 257.23 251.25 251.75 251.25 251.75C251.25 251.75 251.75 251.95 252.58 252.18C253.52 252.46 254.89 252.83 256.42 253.12C258.74 253.51 261.39 253.69 263.36 252.95Z" fill="#E6E6E6"/>
<path d="M254.74 256.089C253.5 256.369 252.25 255.61 251.95 254.37C251.78 253.56 252.02 252.729 252.58 252.189C253.52 252.469 254.89 252.84 256.42 253.13C256.44 253.17 256.44 253.24 256.46 253.28C256.77 254.55 256 255.789 254.74 256.089Z" fill="black"/>
<path d="M294.63 230.71L294.57 230.88C294.57 230.88 294.57 230.9 294.56 230.91C294.54 230.96 294.51 231.01 294.49 231.06C294.47 231.09 294.46 231.13 294.44 231.17C294.41 231.22 294.38 231.27 294.36 231.32C294.33 231.38 294.29 231.43 294.26 231.49C294.01 231.86 293.69 232.19 293.28 232.49C293.23 232.53 293.18 232.57 293.12 232.6C293.04 232.65 292.96 232.7 292.88 232.75C292.71 232.86 292.52 232.96 292.33 233.05C292.26 233.08 292.19 233.12 292.12 233.15C292.05 233.18 291.97 233.22 291.9 233.25C291.75 233.31 291.59 233.37 291.43 233.43C291.36 233.46 291.28 233.48 291.21 233.51C291.07 233.56 290.92 233.6 290.76 233.65C290.66 233.68 290.55 233.71 290.44 233.74C290.33 233.77 290.22 233.79 290.11 233.82C290.02 233.84 289.92 233.86 289.82 233.88C289.73 233.9 289.64 233.92 289.55 233.93C289.36 233.97 289.16 234 288.96 234.03C288.84 234.05 288.72 234.06 288.59 234.08C288.48 234.09 288.38 234.11 288.27 234.12C288.18 234.13 288.1 234.14 288.01 234.15C287.85 234.16 287.68 234.18 287.51 234.19C287.22 234.21 286.92 234.23 286.62 234.24C286.46 234.24 286.3 234.25 286.14 234.25C286.05 234.25 285.96 234.25 285.86 234.25C285.74 234.25 285.62 234.25 285.49 234.25C285.39 234.25 285.3 234.25 285.21 234.25C285.09 234.25 284.97 234.25 284.85 234.23C284.59 234.22 284.33 234.19 284.06 234.16C283.96 234.15 283.86 234.14 283.76 234.12C282.34 233.93 280.79 233.52 279.16 232.98C279.02 232.94 278.88 232.89 278.75 232.84C277.42 232.39 276.03 231.86 274.61 231.3C272.29 230.38 269.87 229.37 267.46 228.46C267 228.29 266.54 228.12 266.09 227.96C265.38 227.72 264.68 227.51 264.01 227.31C260.94 226.4 258.23 225.82 255.82 225.08C253.81 224.46 252 223.73 250.38 222.6C250.25 222.51 250.12 222.42 250 222.32C249.78 222.16 249.56 222 249.35 221.84C249.21 221.74 249.08 221.63 248.94 221.53C248.85 221.47 248.77 221.4 248.69 221.33C248.52 221.2 248.36 221.07 248.21 220.94C248.13 220.88 248.05 220.81 247.98 220.74C247.48 220.32 247.02 219.89 246.6 219.47C246.52 219.39 246.45 219.31 246.37 219.24C246.35 219.22 246.34 219.21 246.32 219.19C246.24 219.09 246.16 219 246.08 218.92C246 218.83 245.92 218.74 245.85 218.64C245.79 218.57 245.73 218.5 245.68 218.43C245.52 218.23 245.38 218.04 245.24 217.84C245.19 217.77 245.14 217.7 245.1 217.63C245.04 217.54 244.99 217.46 244.94 217.37C244.91 217.31 244.87 217.26 244.84 217.2C244.66 216.88 244.52 216.57 244.41 216.26C244.4 216.22 244.38 216.17 244.37 216.13C244.36 216.08 244.34 216.04 244.33 215.99C244.33 215.98 244.33 215.96 244.32 215.94C244.3 215.87 244.29 215.81 244.27 215.74C244.27 215.72 244.27 215.71 244.26 215.69C244.24 215.61 244.23 215.53 244.22 215.46C244.21 215.38 244.2 215.31 244.19 215.24C244.19 215.23 244.19 215.21 244.19 215.2C244.19 215.12 244.19 215.04 244.19 214.96L244.45 213.95C245.04 212.06 248.62 208.54 252.03 208.12C252.48 208.06 252.95 208.04 253.42 208.04C252.4 210.18 251.24 212.2 250.09 213.99C250.79 215.62 252.89 218.95 258.89 221.23C260.06 221.68 261.38 222.08 262.86 222.43C264.01 222.7 265.07 222.96 266.07 223.22C266.95 223.45 267.76 223.67 268.53 223.89C273.18 225.21 275.81 226.31 277.13 226.94C277.91 227.31 278.22 227.53 278.22 227.53C278.22 227.53 282.49 229.86 287.36 228.62C286.97 225.54 286.77 221.91 287.17 218.37C288.39 218.96 289.48 219.65 290.45 220.51C293.35 223.11 295.32 228.66 294.67 230.7L294.63 230.71Z" fill="url(#paint14_linear_145_3219)"/>
<path d="M329.29 218.98C328.64 219.06 328.02 219.28 327.46 219.63C322.93 212.95 312.34 200.31 298.69 203.5C290.81 205.34 287.9 211.71 287.13 218.38C286.72 221.92 286.92 225.55 287.32 228.63C282.45 229.87 278.18 227.54 278.18 227.54C278.18 227.54 277.86 227.33 277.09 226.95C278.69 224.04 280.55 220.52 282.44 216.64C286.04 209.27 289.76 200.62 291.98 192.52C294.54 191.85 297.34 191.59 300.41 191.87C321.91 193.8 327.73 210.7 329.29 218.98Z" fill="#0B0055"/>
<path d="M333.75 225.94C332.41 228.09 329.59 228.74 327.45 227.41C325.3 226.08 324.64 223.26 325.98 221.11C326.37 220.49 326.88 219.99 327.47 219.63C328.03 219.28 328.66 219.06 329.3 218.98C330.31 218.86 331.36 219.06 332.28 219.63C334.43 220.97 335.08 223.78 333.75 225.93V225.94Z" fill="url(#paint15_linear_145_3219)"/>
<path d="M272.02 202.11C270.08 205.36 268.01 208.53 266 211.44C263.35 215.29 260.8 218.7 258.84 221.24C252.84 218.95 250.74 215.63 250.04 214C251.19 212.21 252.35 210.2 253.37 208.05C256.84 200.74 258.55 191.95 252.05 185.45C242.38 175.77 229.32 180.67 222.89 184.08C222.66 183.69 222.37 183.34 222.03 183.04C227.66 177.62 240.85 168.56 259.76 178.09C270.25 183.38 272.74 192.81 272.01 202.11H272.02Z" fill="#0B0055"/>
<path d="M291.97 192.52C289.75 200.62 286.04 209.26 282.43 216.64C280.54 220.52 278.67 224.04 277.08 226.95C275.76 226.31 273.13 225.21 268.48 223.9C267.71 223.68 266.9 223.46 266.02 223.23C265.03 222.98 263.96 222.71 262.81 222.44C261.33 222.1 260.01 221.69 258.84 221.24C260.8 218.7 263.34 215.29 266 211.44C268.01 208.53 270.08 205.36 272.02 202.11C278.66 190.97 283.71 178.93 279.02 173.21C272.41 165.14 263.7 166.88 258.61 168.95C258.53 168.65 258.41 168.36 258.27 168.1C264.31 164.03 276.56 158.29 289.01 167.35C295.22 171.86 294.93 181.7 291.96 192.52H291.97Z" fill="url(#paint16_linear_145_3219)"/>
<path d="M258.78 170.13C258.78 172.55 256.82 174.51 254.4 174.51C251.98 174.51 250.02 172.55 250.02 170.13C250.02 167.71 251.98 165.75 254.4 165.75C256.08 165.75 257.55 166.7 258.28 168.09C258.42 168.36 258.54 168.65 258.62 168.94C258.73 169.32 258.78 169.71 258.78 170.12V170.13Z" fill="#0B0055"/>
<path d="M223.56 186.45C223.56 188.98 221.51 191.03 218.98 191.03C216.45 191.03 214.4 188.98 214.4 186.45C214.4 183.92 216.45 181.87 218.98 181.87C220.15 181.87 221.22 182.31 222.03 183.04C222.37 183.34 222.66 183.69 222.89 184.08C223.31 184.77 223.55 185.58 223.55 186.45H223.56Z" fill="url(#paint17_linear_145_3219)"/>
<path d="M294.56 230.91C294.54 230.96 294.51 231.01 294.49 231.06C294.47 231.09 294.46 231.13 294.44 231.17C294.41 231.22 294.38 231.27 294.36 231.32C294.33 231.38 294.29 231.43 294.26 231.49C294.01 231.86 293.69 232.19 293.28 232.49C293.23 232.53 293.18 232.57 293.12 232.6C293.04 232.65 292.96 232.7 292.88 232.75C292.71 232.86 292.52 232.96 292.33 233.05C292.26 233.09 292.19 233.12 292.12 233.15C292.05 233.18 291.97 233.22 291.9 233.25C291.75 233.31 291.59 233.37 291.43 233.43C291.36 233.46 291.29 233.48 291.21 233.51C291.07 233.56 290.92 233.6 290.76 233.65C290.66 233.68 290.55 233.71 290.44 233.74C290.33 233.77 290.22 233.79 290.11 233.82C290.02 233.84 289.92 233.86 289.82 233.88C289.73 233.9 289.64 233.92 289.55 233.93C289.36 233.97 289.16 234 288.96 234.03C288.84 234.05 288.72 234.06 288.59 234.08C288.48 234.09 288.38 234.11 288.27 234.12C288.18 234.13 288.1 234.14 288.01 234.15C287.85 234.16 287.68 234.18 287.51 234.19C287.22 234.21 286.92 234.23 286.62 234.24C286.46 234.24 286.3 234.25 286.14 234.25C286.05 234.25 285.96 234.25 285.86 234.25C285.74 234.25 285.62 234.25 285.49 234.25C285.39 234.25 285.3 234.25 285.21 234.25C285.09 234.25 284.97 234.25 284.85 234.23C284.59 234.22 284.33 234.19 284.06 234.16C283.96 234.15 283.86 234.14 283.76 234.12C282.34 233.93 280.79 233.52 279.16 232.98C279.02 232.94 278.88 232.89 278.75 232.84C277.42 232.39 276.03 231.86 274.61 231.3C272.29 230.38 269.87 229.37 267.46 228.46C267 228.29 266.54 228.12 266.09 227.96C265.38 227.72 264.68 227.51 264.01 227.31C260.94 226.4 258.23 225.82 255.82 225.08C253.81 224.46 252 223.73 250.38 222.6C250.25 222.51 250.12 222.42 250 222.32C249.78 222.16 249.56 222 249.35 221.84C249.21 221.74 249.08 221.63 248.94 221.53C248.85 221.47 248.77 221.4 248.69 221.33C248.52 221.2 248.36 221.07 248.21 220.94C248.13 220.88 248.05 220.81 247.98 220.74C247.48 220.32 247.02 219.89 246.6 219.47C246.52 219.39 246.45 219.31 246.37 219.24C246.35 219.22 246.34 219.21 246.32 219.19C246.24 219.09 246.16 219 246.08 218.92C246 218.83 245.92 218.74 245.85 218.64C245.79 218.57 245.73 218.5 245.68 218.43C245.52 218.23 245.38 218.04 245.24 217.84C245.19 217.77 245.14 217.7 245.1 217.63C245.04 217.54 244.99 217.46 244.94 217.37C244.91 217.31 244.87 217.26 244.84 217.2C244.66 216.88 244.52 216.57 244.41 216.26C244.4 216.22 244.38 216.17 244.37 216.13C244.36 216.08 244.34 216.04 244.33 215.99C244.33 215.98 244.33 215.96 244.32 215.94C244.3 215.87 244.29 215.81 244.27 215.74C244.27 215.72 244.27 215.71 244.26 215.69C244.24 215.61 244.23 215.53 244.22 215.46C244.21 215.38 244.2 215.31 244.19 215.24C244.19 215.23 244.19 215.21 244.19 215.2C244.19 215.12 244.19 215.04 244.19 214.96L240.64 225.87C240.43 226.42 240.33 227.01 240.36 227.65C240.46 229.91 242.15 232.62 245.7 235.07C246.43 235.57 247.25 236.07 248.14 236.54C251.79 238.48 257.88 239.66 262.84 241.31C265.63 242.27 268.36 243.09 270.95 243.74C279.89 245.98 287.16 246.23 289.75 243.9C290.16 243.54 290.45 243.11 290.61 242.61L290.86 241.6L294.61 230.86C294.61 230.86 294.61 230.88 294.6 230.89L294.56 230.91ZM249.82 228.4C249.26 229.29 248.46 229.93 247.54 230.27C246.26 230.75 244.77 230.66 243.52 229.88C242.73 229.39 242.14 228.69 241.78 227.9C241.16 226.55 241.21 224.93 242.05 223.57C242.57 222.73 243.32 222.12 244.17 221.77C245.49 221.22 247.05 221.29 248.35 222.1C249.09 222.56 249.65 223.2 250.02 223.93C250.72 225.31 250.7 227 249.82 228.41V228.4ZM258.97 234.95C258.58 235.58 258.05 236.09 257.46 236.45C256.03 237.32 254.19 237.37 252.67 236.42C252.04 236.03 251.54 235.51 251.18 234.92C250.31 233.49 250.26 231.64 251.2 230.12C252.53 227.98 255.35 227.32 257.5 228.65C259.65 229.98 260.3 232.8 258.97 234.95ZM269.64 238.11C269.25 238.74 268.74 239.23 268.15 239.59C266.72 240.47 264.86 240.52 263.34 239.58C262.53 239.08 261.94 238.37 261.58 237.56C260.98 236.22 261.04 234.62 261.87 233.28C262.58 232.14 263.7 231.42 264.92 231.2C265.59 231.08 266.3 231.1 266.97 231.29C267.38 231.4 267.78 231.57 268.17 231.81C268.7 232.14 269.14 232.56 269.48 233.04C269.67 233.3 269.83 233.58 269.95 233.87C270.53 235.2 270.47 236.78 269.64 238.11ZM279.9 242.09C279.43 242.84 278.78 243.41 278.03 243.78C276.66 244.46 274.98 244.43 273.59 243.56C272.55 242.91 271.86 241.92 271.58 240.82C271.28 239.65 271.44 238.36 272.12 237.26C273.46 235.12 276.28 234.46 278.42 235.79C280.57 237.12 281.23 239.94 279.89 242.09H279.9ZM290.42 241.64C289.08 243.79 286.27 244.44 284.12 243.11C281.97 241.77 281.32 238.96 282.65 236.81C282.93 236.37 283.26 235.99 283.64 235.68C284.99 234.58 286.88 234.32 288.5 235.1C288.65 235.17 288.8 235.25 288.95 235.34C291.1 236.68 291.75 239.49 290.42 241.64Z" fill="#0B0055"/>
<path d="M249.82 228.41C249.26 229.3 248.46 229.94 247.54 230.28C246.26 230.76 244.77 230.67 243.52 229.89C242.73 229.4 242.14 228.7 241.78 227.91C241.16 226.56 241.21 224.94 242.05 223.58C242.57 222.74 243.32 222.13 244.17 221.78C245.49 221.23 247.05 221.3 248.35 222.11C249.09 222.57 249.65 223.21 250.02 223.94C250.72 225.32 250.7 227.01 249.82 228.42V228.41Z" fill="url(#paint18_linear_145_3219)"/>
<path d="M258.97 234.96C258.58 235.59 258.05 236.1 257.46 236.46C256.03 237.33 254.19 237.38 252.67 236.43C252.04 236.04 251.54 235.52 251.18 234.93C250.31 233.5 250.26 231.65 251.2 230.13C252.53 227.99 255.35 227.33 257.5 228.66C259.65 229.99 260.3 232.81 258.97 234.96Z" fill="url(#paint19_linear_145_3219)"/>
<path d="M269.64 238.12C269.25 238.75 268.74 239.24 268.15 239.6C266.72 240.48 264.86 240.53 263.34 239.59C262.53 239.09 261.94 238.38 261.58 237.57C260.98 236.23 261.04 234.63 261.87 233.29C262.58 232.15 263.7 231.43 264.92 231.21C265.59 231.09 266.3 231.11 266.97 231.3C267.38 231.41 267.78 231.58 268.17 231.82C268.7 232.15 269.14 232.57 269.48 233.05C269.67 233.31 269.83 233.59 269.95 233.88C270.53 235.21 270.47 236.79 269.64 238.12Z" fill="url(#paint20_linear_145_3219)"/>
<path d="M279.9 242.09C279.43 242.84 278.78 243.411 278.03 243.781C276.66 244.461 274.98 244.431 273.59 243.561C272.55 242.911 271.86 241.92 271.58 240.82C271.28 239.65 271.44 238.361 272.12 237.261C273.46 235.121 276.28 234.461 278.42 235.791C280.57 237.121 281.23 239.94 279.89 242.09H279.9Z" fill="url(#paint21_linear_145_3219)"/>
<path d="M290.42 241.64C289.08 243.79 286.27 244.44 284.12 243.11C281.97 241.77 281.32 238.96 282.65 236.81C282.93 236.37 283.26 235.99 283.64 235.68C284.99 234.58 286.88 234.32 288.5 235.1C288.65 235.17 288.8 235.25 288.95 235.34C291.1 236.68 291.75 239.49 290.42 241.64Z" fill="url(#paint22_linear_145_3219)"/>
<path d="M295.02 460.93C294.93 460.91 294.84 460.9 294.75 460.89C294.46 432.39 283.41 410.97 260.15 395.74C258.54 391.77 256.95 389.03 255.82 387.35C254.86 385.91 254.23 385.25 254.23 385.25C255.15 385.36 255.8 385.37 256.08 385.25C268.65 391.67 300.27 412.65 295.02 460.93Z" fill="#FC0000"/>
<path d="M260.16 395.74C258.55 391.77 256.96 389.03 255.83 387.35C254.87 385.91 254.24 385.25 254.24 385.25C253.52 385.16 252.63 385.01 251.64 384.8C249.69 384.4 247.33 383.8 244.97 383.09C243.41 382.63 241.86 382.12 240.44 381.59C241.04 382.28 241.97 383.38 243.11 384.88C243.88 385.89 244.76 387.09 245.7 388.47C249.16 393.54 253.54 401.05 257.26 410.86C261.43 421.86 264.76 435.77 265.05 452.38C265.14 452.38 265.24 452.4 265.33 452.42C268.4 423.72 264.24 405.78 260.18 395.73L260.16 395.74Z" fill="#AA2B2B"/>
<path d="M245.78 429.86C244.78 436.91 243.11 443.91 240.46 450.28C240.31 450.22 240.16 450.18 240.01 450.14C241.05 444.04 241.43 437.85 241.36 431.8C241.15 413.51 236.78 396.38 233.52 386.08C232.87 384.03 232.26 382.24 231.74 380.78C231.28 379.47 230.88 378.41 230.58 377.64C232.74 378.4 234.6 379.17 236.3 379.89C236.97 380.18 237.62 380.46 238.25 380.73C238.92 381.02 239.65 381.31 240.42 381.59C241.02 382.28 241.95 383.38 243.09 384.88C243.86 385.89 244.74 387.09 245.68 388.47C246.83 398.01 248.01 414.04 245.78 429.86Z" fill="#FC0000"/>
<path d="M224.01 375.65C224.01 375.65 223.92 375.67 223.88 375.68C223.88 375.66 223.89 375.64 223.9 375.62C223.94 375.63 223.98 375.64 224.02 375.65H224.01Z" fill="#FC0000"/>
<path d="M206.35 372.19C204.91 372.75 203.17 373.49 201.23 374.44C200.74 374.68 200.23 374.94 199.72 375.21C184.4 376.33 158.31 380.79 147.94 402.27C147.83 402.25 147.73 402.24 147.62 402.23C153.86 381.72 170.55 374.49 184.78 372.21C194.17 370.71 202.48 371.36 206.02 371.77C206.13 371.91 206.24 372.05 206.36 372.19H206.35Z" fill="#FC0000"/>
<path d="M206.64 372.54C206.54 372.42 206.45 372.309 206.35 372.189C206.24 372.049 206.12 371.91 206.01 371.77L206.35 372.189L206.64 372.54Z" fill="#FC0000"/>
<path d="M233.52 386.08C229.92 394.62 224.57 409.32 220.93 428.48C219.93 433.76 219.05 439.39 218.38 445.32C218.21 446.84 218.05 448.39 217.9 449.96C217.83 449.96 217.77 449.96 217.7 449.96C217.59 449.96 217.47 449.96 217.36 449.97C217.18 448.75 217.02 447.53 216.87 446.32C216.07 439.61 215.81 432.96 215.91 426.58C216.25 405.96 220.4 388.09 222.66 379.81C222.78 379.39 222.89 379 222.99 378.63C223.36 377.32 223.66 376.34 223.85 375.71C223.9 375.7 223.94 375.69 223.98 375.68C225.03 375.95 226.02 376.22 226.96 376.5C228.25 376.88 229.44 377.27 230.56 377.67C230.86 378.44 231.25 379.5 231.72 380.81C232.24 382.28 232.84 384.06 233.5 386.11L233.52 386.08Z" fill="#AA2B2B"/>
<path d="M224.01 375.65C224.01 375.65 223.92 375.67 223.88 375.68C223.88 375.66 223.89 375.64 223.9 375.62C223.94 375.63 223.98 375.64 224.02 375.65H224.01Z" fill="#FC0000"/>
<path d="M223.89 375.62C223.89 375.62 223.88 375.66 223.87 375.68C223.67 376.31 223.37 377.3 223.01 378.6C222.91 378.97 222.8 379.36 222.68 379.78C216.6 385.42 205.74 398.24 198.85 418.43C197.4 422.68 196.12 427.26 195.11 432.16C194.96 432.15 194.81 432.14 194.66 432.14C194.7 426.77 195.14 421.65 195.87 416.85C198.31 400.78 203.95 388.15 208.45 380.57C209.49 378.83 210.46 377.35 211.32 376.16C212.12 375.06 212.82 374.21 213.38 373.62C217.45 374.18 220.9 374.87 223.88 375.62H223.89Z" fill="#FC0000"/>
<path d="M213.38 373.62C212.82 374.21 212.12 375.07 211.32 376.16C210.46 377.35 209.48 378.82 208.45 380.57C197.76 384.93 184.19 392.57 173.76 405.51C171.84 407.89 170.03 410.45 168.36 413.21C168.23 413.15 168.09 413.09 167.95 413.04C168.82 410.44 169.79 408 170.85 405.7C178.54 389.02 190.81 379.92 199.71 375.22C200.23 374.95 200.73 374.69 201.22 374.45C203.16 373.49 204.9 372.75 206.34 372.2C206.44 372.32 206.53 372.43 206.63 372.55L206.7 372.64C206.7 372.64 207.07 372.81 208.28 373.03C208.62 373.06 208.95 373.1 209.28 373.13C210.71 373.28 212.07 373.45 213.37 373.63L213.38 373.62Z" fill="#AA2B2B"/>
<path d="M206.64 372.54C206.54 372.42 206.45 372.309 206.35 372.189L206.64 372.54Z" fill="#FC0000"/>
<path d="M224.01 375.65C224.01 375.65 223.92 375.67 223.88 375.68C223.88 375.66 223.89 375.64 223.9 375.62C223.94 375.63 223.98 375.64 224.02 375.65H224.01Z" fill="#FC0000"/>
<path d="M256.08 385.25C255.8 385.37 255.15 385.36 254.23 385.25C253.51 385.16 252.62 385.01 251.63 384.8C249.68 384.4 247.32 383.799 244.96 383.089C243.4 382.629 241.85 382.119 240.43 381.589C239.66 381.309 238.93 381.019 238.26 380.729C237.63 380.459 236.99 380.18 236.31 379.89C234.62 379.17 232.75 378.4 230.59 377.64C229.47 377.25 228.28 376.849 226.99 376.469C226.05 376.189 225.06 375.91 224.01 375.65C223.97 375.65 223.93 375.63 223.89 375.62C220.91 374.87 217.45 374.18 213.39 373.62C212.09 373.44 210.73 373.27 209.3 373.12C208.97 373.09 208.64 373.05 208.3 373.02C207.09 372.81 206.72 372.63 206.72 372.63L206.65 372.54L206.36 372.189L206.02 371.77L205.82 371.52C205.82 371.52 206.58 371.519 207.96 371.599C209.77 371.699 212.65 371.91 216.25 372.37C226.45 373.68 242.39 376.969 256.1 385.229L256.08 385.25Z" fill="#FBB03B"/>
<path d="M407.49 337.92C407.49 339.69 406.05 341.13 404.28 341.13C402.51 341.13 401.07 339.69 401.07 337.92C401.07 336.48 402.02 335.27 403.32 334.86C403.47 334.81 403.62 334.78 403.77 334.75C403.94 334.72 404.11 334.71 404.28 334.71C406.05 334.71 407.49 336.15 407.49 337.92Z" fill="url(#paint23_linear_145_3219)"/>
<path d="M375.67 302.93C375.67 303.37 375.58 303.79 375.42 304.17C375.39 304.25 375.35 304.33 375.31 304.4C374.77 305.43 373.7 306.14 372.46 306.14C370.69 306.14 369.25 304.7 369.25 302.93C369.25 301.16 370.69 299.72 372.46 299.72C374.23 299.72 375.67 301.16 375.67 302.93Z" fill="url(#paint24_linear_145_3219)"/>
<path d="M130.53 249.85C130.53 251.62 129.09 253.06 127.32 253.06C126.68 253.06 126.08 252.87 125.58 252.55C125.52 252.51 125.45 252.46 125.39 252.42C124.61 251.83 124.11 250.9 124.11 249.85C124.11 248.08 125.55 246.64 127.32 246.64C129.09 246.64 130.53 248.08 130.53 249.85Z" fill="url(#paint25_linear_145_3219)"/>
<path d="M99.7799 286.479C99.7799 288.249 98.3399 289.689 96.5699 289.689C94.7999 289.689 93.3599 288.249 93.3599 286.479C93.3599 284.709 94.7999 283.27 96.5699 283.27C96.6199 283.27 96.6699 283.27 96.7099 283.27C96.8499 283.27 96.9899 283.289 97.1299 283.319C98.6399 283.579 99.7799 284.899 99.7799 286.479Z" fill="url(#paint26_linear_145_3219)"/>
<path d="M197.56 305.8C197.56 306.62 197.49 307.42 197.36 308.21C196.85 311.27 195.39 313.99 193.28 316.07H193.27C192.49 316.86 191.62 317.56 190.67 318.13C190.64 318.15 190.61 318.17 190.58 318.18L190.61 318.16C190.61 318.16 190.59 318.18 190.58 318.19C173.66 328.75 131.68 318.43 127.6 315.37C123.52 312.29 106.25 281.52 100.34 273.5C100.15 273.13 99.4201 272.01 98.4201 270.55C98.0701 265.37 96.7501 260.53 94.8701 257.07C99.2901 264.46 108.37 270.74 117.68 270.58V270.66C117.68 272.43 119.12 273.87 120.89 273.87C122.66 273.87 124.1 272.43 124.1 270.66C124.1 270.63 124.1 270.59 124.1 270.56C134.11 277.51 146.64 286.53 148.24 294.87C157.01 294.87 163.05 293.91 177.59 292.42C177.61 292.42 177.63 292.4 177.65 292.39L177.59 292.42C178.6 292 179.68 291.69 180.79 291.52C181.52 291.39 182.29 291.33 183.06 291.33C183.97 291.33 184.87 291.41 185.73 291.58C192.46 292.83 197.55 298.73 197.55 305.81L197.56 305.8Z" fill="#FFD6A1"/>
<path d="M90.6398 259.44L90.5898 259.37C90.5898 259.37 90.5999 259.39 90.6299 259.44H90.6398Z" fill="#FFD6A1"/>
<path d="M119.87 267.6C118.74 267.98 117.89 268.98 117.72 270.2C107.41 266.23 106.43 261.911 98.04 253.061C100.7 254.131 103.31 254.83 105.85 255.22C110.26 259.68 115.72 264.6 115.72 264.6C116.93 265.52 118.33 266.52 119.87 267.59V267.6Z" fill="#FFD6A1"/>
<path d="M190.67 318.13C190.67 318.13 190.64 318.15 190.62 318.16L190.59 318.18C190.59 318.18 190.65 318.15 190.68 318.13H190.67Z" fill="#FFD6A1"/>
<path d="M117.72 270.2C117.7 270.32 117.69 270.45 117.69 270.57C108.38 270.74 99.3001 264.451 94.8801 257.061C96.7501 260.521 98.0801 265.361 98.4301 270.541C98.7201 274.761 98.3601 279.2 97.1301 283.32C96.9901 283.29 96.8501 283.281 96.7101 283.271C97.3001 271.871 91.1801 260.44 90.6401 259.44C90.6101 259.39 90.6001 259.37 90.6001 259.37C93.0301 257.46 95.5501 255.191 98.0401 253.061C106.43 261.911 107.4 266.22 117.72 270.2Z" fill="#0B0055"/>
<path d="M125.58 252.55C119.9 254.92 113.18 256.35 105.86 255.23C103.32 254.84 100.71 254.14 98.0498 253.07C99.1698 252.11 100.29 251.17 101.39 250.31C101.39 250.31 101.36 250.27 101.35 250.26C104.73 251.41 115.2 254.48 125.41 252.42C125.47 252.46 125.53 252.51 125.6 252.55H125.58Z" fill="#0B0055"/>
<path d="M101.37 250.3C100.28 251.17 99.16 252.1 98.03 253.06C95.54 255.19 93.01 257.46 90.59 259.37C79.58 255.39 63.33 236.05 63.41 218.76C63.42 214.99 63.73 207.74 66.84 208.31C69.12 208.73 67.72 216.38 68.02 220.44C68.32 224.5 68.16 229.45 71 228.8C72.79 228.4 68.53 208.91 73.91 205.35C77.16 203.2 76.14 212.2 75.42 216.03C74.7 219.85 75.06 226.75 77.08 226.37C80.03 225.81 78.25 218.5 78.39 215.51C78.66 209.79 79.26 199.36 84.42 201.84C86.88 203.02 79.96 226.78 84.31 225.34C86.02 224.77 87.85 202.65 93.1 205.16C95.5 206.31 94.35 207.53 92.86 211.1C91.37 214.68 90.38 222.89 90.17 226.76C90.02 229.65 89.23 233.06 92.11 232.78C94.12 232.59 95.1 221.63 100.53 220.99C102.62 220.74 101.57 225.64 99.47 231.64C98.81 233.52 96.53 236.93 95.95 238.83C94.61 243.26 98.17 246.85 101.31 250.25C101.31 250.25 101.34 250.28 101.35 250.3H101.37Z" fill="url(#paint27_linear_145_3219)"/>
<path d="M124.11 270.64C124.11 272.41 122.67 273.85 120.9 273.85C119.13 273.85 117.69 272.41 117.69 270.64V270.56C117.69 270.44 117.7 270.31 117.72 270.19C117.89 268.97 118.74 267.98 119.87 267.59C120.19 267.48 120.54 267.42 120.9 267.42C122.64 267.42 124.06 268.81 124.11 270.53C124.11 270.56 124.11 270.6 124.11 270.63V270.64Z" fill="url(#paint28_linear_145_3219)"/>
<path d="M402.59 304.58C396.6 306.99 390.81 307.56 385.52 306.98C381.85 306.59 378.42 305.64 375.32 304.4C375.36 304.33 375.39 304.25 375.43 304.17C387.66 306.54 399.32 301.82 399.32 301.82L399.55 302.01L402.6 304.57L402.59 304.58Z" fill="#0B0055"/>
<path d="M403.77 334.75C403.62 334.77 403.47 334.81 403.32 334.86C401.56 328.79 401.71 321.97 402.99 316.24C403.64 313.33 404.59 310.69 405.73 308.58C401.4 315.78 392.57 322.1 383.51 322.27C383.5 322.06 383.46 321.85 383.41 321.65C393.14 317.74 394.42 313.25 402.61 304.6L404.71 306.36C404.71 306.36 404.78 306.42 404.81 306.44C406.28 307.72 407.75 308.99 409.18 310.15C409.49 310.4 409.79 310.65 410.1 310.89C410.1 310.89 403.27 322.87 403.77 334.75Z" fill="#0B0055"/>
<path d="M383.51 322.47C383.51 324.24 382.07 325.68 380.3 325.68C378.53 325.68 377.09 324.24 377.09 322.47C377.09 320.7 378.53 319.26 380.3 319.26C381.78 319.26 383.03 320.27 383.4 321.63C383.46 321.83 383.49 322.04 383.5 322.25C383.5 322.32 383.5 322.39 383.5 322.47H383.51Z" fill="#0B0055"/>
<path d="M437.28 270.28C437.36 287.58 421.1 306.91 410.1 310.89C409.8 310.65 409.49 310.41 409.18 310.15C407.74 308.98 406.27 307.71 404.81 306.44C404.78 306.41 404.74 306.38 404.71 306.36L402.61 304.6H402.6L399.55 302.02L399.32 301.83C402.47 298.41 406.08 294.8 404.73 290.35C404.15 288.45 401.86 285.04 401.21 283.16C399.12 277.16 398.07 272.26 400.15 272.51C405.58 273.15 406.56 284.11 408.57 284.3C411.45 284.58 410.67 281.17 410.51 278.28C410.3 274.41 409.3 266.2 407.82 262.62C406.33 259.05 405.18 257.83 407.58 256.68C412.82 254.17 414.65 276.29 416.37 276.86C420.72 278.3 413.8 254.54 416.26 253.36C421.42 250.88 422.02 261.31 422.29 267.03C422.43 270.03 420.65 277.33 423.6 277.89C425.63 278.27 425.98 271.38 425.27 267.55C424.55 263.72 423.53 254.73 426.78 256.87C432.16 260.43 427.9 279.91 429.69 280.32C432.53 280.97 432.36 276.02 432.66 271.96C432.96 267.89 431.56 260.25 433.84 259.83C436.95 259.26 437.26 266.51 437.27 270.28H437.28Z" fill="url(#paint29_linear_145_3219)"/>
<path d="M267.45 248.449C260.88 251.209 255.66 251.429 251.9 247.189C250.16 244.679 253.3 245.629 253.3 245.629C253.3 245.629 256.35 249.889 267.46 248.449H267.45Z" fill="black"/>
<defs>
<filter id="filter0_d_145_3219" x="17.1849" y="39" width="39.9373" height="37.4158" filterUnits="userSpaceOnUse" color-interpolation-filters="sRGB">
<feFlood flood-opacity="0" result="BackgroundImageFix"/>
<feColorMatrix in="SourceAlpha" type="matrix" values="0 0 0 0 0 0 0 0 0 0 0 0 0 0 0 0 0 0 127 0" result="hardAlpha"/>
<feOffset dy="0.846808"/>
<feGaussianBlur stdDeviation="0.423404"/>
<feComposite in2="hardAlpha" operator="out"/>
<feColorMatrix type="matrix" values="0 0 0 0 0 0 0 0 0 0 0 0 0 0 0 0 0 0 0.25 0"/>
<feBlend mode="normal" in2="BackgroundImageFix" result="effect1_dropShadow_145_3219"/>
<feBlend mode="normal" in="SourceGraphic" in2="effect1_dropShadow_145_3219" result="shape"/>
</filter>
<filter id="filter1_d_145_3219" x="411.688" y="593.278" width="39.9373" height="37.4158" filterUnits="userSpaceOnUse" color-interpolation-filters="sRGB">
<feFlood flood-opacity="0" result="BackgroundImageFix"/>
<feColorMatrix in="SourceAlpha" type="matrix" values="0 0 0 0 0 0 0 0 0 0 0 0 0 0 0 0 0 0 127 0" result="hardAlpha"/>
<feOffset dy="0.846808"/>
<feGaussianBlur stdDeviation="0.423404"/>
<feComposite in2="hardAlpha" operator="out"/>
<feColorMatrix type="matrix" values="0 0 0 0 0 0 0 0 0 0 0 0 0 0 0 0 0 0 0.25 0"/>
<feBlend mode="normal" in2="BackgroundImageFix" result="effect1_dropShadow_145_3219"/>
<feBlend mode="normal" in="SourceGraphic" in2="effect1_dropShadow_145_3219" result="shape"/>
</filter>
<linearGradient id="paint0_linear_145_3219" x1="380.81" y1="-103.54" x2="110.32" y2="690.32" gradientUnits="userSpaceOnUse">
<stop stop-color="#E1E1E1"/>
<stop offset="0.12" stop-color="#ECECEC"/>
<stop offset="0.32" stop-color="#FAFAFA"/>
<stop offset="0.49" stop-color="white"/>
<stop offset="0.7" stop-color="#FBFBFB"/>
<stop offset="0.85" stop-color="#F2F2F2"/>
<stop offset="0.99" stop-color="#E2E2E2"/>
<stop offset="1" stop-color="#E1E1E1"/>
</linearGradient>
<linearGradient id="paint1_linear_145_3219" x1="386.46" y1="197.266" x2="386.46" y2="227.535" gradientUnits="userSpaceOnUse">
<stop stop-color="#F83248"/>
<stop offset="0.9999" stop-color="#F96C2B"/>
<stop offset="1" stop-color="#F70032" stop-opacity="0"/>
</linearGradient>
<linearGradient id="paint2_linear_145_3219" x1="318.82" y1="120.493" x2="318.82" y2="154.637" gradientUnits="userSpaceOnUse">
<stop stop-color="#F83248"/>
<stop offset="0.9999" stop-color="#F96C2B"/>
<stop offset="1" stop-color="#F70032" stop-opacity="0"/>
</linearGradient>
<linearGradient id="paint3_linear_145_3219" x1="227.835" y1="83.0586" x2="227.835" y2="114.702" gradientUnits="userSpaceOnUse">
<stop stop-color="#F83248"/>
<stop offset="0.9999" stop-color="#F96C2B"/>
<stop offset="1" stop-color="#F70032" stop-opacity="0"/>
</linearGradient>
<linearGradient id="paint4_linear_145_3219" x1="143.435" y1="83.4526" x2="143.435" y2="116.037" gradientUnits="userSpaceOnUse">
<stop stop-color="#F83248"/>
<stop offset="0.9999" stop-color="#F96C2B"/>
<stop offset="1" stop-color="#F70032" stop-opacity="0"/>
</linearGradient>
<linearGradient id="paint5_linear_145_3219" x1="95.5848" y1="129.943" x2="95.5848" y2="157.177" gradientUnits="userSpaceOnUse">
<stop stop-color="#F83248"/>
<stop offset="0.9999" stop-color="#F96C2B"/>
<stop offset="1" stop-color="#F70032" stop-opacity="0"/>
</linearGradient>
<linearGradient id="paint6_linear_145_3219" x1="243.575" y1="279.49" x2="243.575" y2="385.25" gradientUnits="userSpaceOnUse">
<stop stop-color="#F83248"/>
<stop offset="0.9999" stop-color="#F96C2B"/>
<stop offset="1" stop-color="#F70032" stop-opacity="0"/>
</linearGradient>
<linearGradient id="paint7_linear_145_3219" x1="284.545" y1="331" x2="284.545" y2="331.78" gradientUnits="userSpaceOnUse">
<stop stop-color="#F83248"/>
<stop offset="0.9999" stop-color="#F96C2B"/>
<stop offset="1" stop-color="#F70032" stop-opacity="0"/>
</linearGradient>
<linearGradient id="paint8_linear_145_3219" x1="285.77" y1="331.79" x2="285.77" y2="333.49" gradientUnits="userSpaceOnUse">
<stop stop-color="#F83248"/>
<stop offset="0.9999" stop-color="#F96C2B"/>
<stop offset="1" stop-color="#F70032" stop-opacity="0"/>
</linearGradient>
<linearGradient id="paint9_linear_145_3219" x1="287.895" y1="309.63" x2="287.895" y2="310.37" gradientUnits="userSpaceOnUse">
<stop stop-color="#F83248"/>
<stop offset="0.9999" stop-color="#F96C2B"/>
<stop offset="1" stop-color="#F70032" stop-opacity="0"/>
</linearGradient>
<linearGradient id="paint10_linear_145_3219" x1="287.665" y1="333.76" x2="287.665" y2="334.39" gradientUnits="userSpaceOnUse">
<stop stop-color="#F83248"/>
<stop offset="0.9999" stop-color="#F96C2B"/>
<stop offset="1" stop-color="#F70032" stop-opacity="0"/>
</linearGradient>
<linearGradient id="paint11_linear_145_3219" x1="290.1" y1="308.67" x2="290.1" y2="309.02" gradientUnits="userSpaceOnUse">
<stop stop-color="#F83248"/>
<stop offset="0.9999" stop-color="#F96C2B"/>
<stop offset="1" stop-color="#F70032" stop-opacity="0"/>
</linearGradient>
<linearGradient id="paint12_linear_145_3219" x1="292.895" y1="307.91" x2="292.895" y2="308.1" gradientUnits="userSpaceOnUse">
<stop stop-color="#F83248"/>
<stop offset="0.9999" stop-color="#F96C2B"/>
<stop offset="1" stop-color="#F70032" stop-opacity="0"/>
</linearGradient>
<linearGradient id="paint13_linear_145_3219" x1="108.288" y1="453.77" x2="108.288" y2="454.161" gradientUnits="userSpaceOnUse">
<stop stop-color="#F83248"/>
<stop offset="0.9999" stop-color="#F96C2B"/>
<stop offset="1" stop-color="#F70032" stop-opacity="0"/>
</linearGradient>
<linearGradient id="paint14_linear_145_3219" x1="269.492" y1="208.04" x2="269.492" y2="234.25" gradientUnits="userSpaceOnUse">
<stop stop-color="#F83248"/>
<stop offset="0.9999" stop-color="#F96C2B"/>
<stop offset="1" stop-color="#F70032" stop-opacity="0"/>
</linearGradient>
<linearGradient id="paint15_linear_145_3219" x1="329.863" y1="218.946" x2="329.863" y2="228.099" gradientUnits="userSpaceOnUse">
<stop stop-color="#F83248"/>
<stop offset="0.9999" stop-color="#F96C2B"/>
<stop offset="1" stop-color="#F70032" stop-opacity="0"/>
</linearGradient>
<linearGradient id="paint16_linear_145_3219" x1="276.136" y1="162.526" x2="276.136" y2="226.95" gradientUnits="userSpaceOnUse">
<stop stop-color="#F83248"/>
<stop offset="0.9999" stop-color="#F96C2B"/>
<stop offset="1" stop-color="#F70032" stop-opacity="0"/>
</linearGradient>
<linearGradient id="paint17_linear_145_3219" x1="218.98" y1="181.87" x2="218.98" y2="191.03" gradientUnits="userSpaceOnUse">
<stop stop-color="#F83248"/>
<stop offset="0.9999" stop-color="#F96C2B"/>
<stop offset="1" stop-color="#F70032" stop-opacity="0"/>
</linearGradient>
<linearGradient id="paint18_linear_145_3219" x1="245.938" y1="221.424" x2="245.938" y2="230.575" gradientUnits="userSpaceOnUse">
<stop stop-color="#F83248"/>
<stop offset="0.9999" stop-color="#F96C2B"/>
<stop offset="1" stop-color="#F70032" stop-opacity="0"/>
</linearGradient>
<linearGradient id="paint19_linear_145_3219" x1="255.085" y1="227.973" x2="255.085" y2="237.127" gradientUnits="userSpaceOnUse">
<stop stop-color="#F83248"/>
<stop offset="0.9999" stop-color="#F96C2B"/>
<stop offset="1" stop-color="#F70032" stop-opacity="0"/>
</linearGradient>
<linearGradient id="paint20_linear_145_3219" x1="265.757" y1="231.135" x2="265.757" y2="240.277" gradientUnits="userSpaceOnUse">
<stop stop-color="#F83248"/>
<stop offset="0.9999" stop-color="#F96C2B"/>
<stop offset="1" stop-color="#F70032" stop-opacity="0"/>
</linearGradient>
<linearGradient id="paint21_linear_145_3219" x1="276.01" y1="235.104" x2="276.01" y2="244.256" gradientUnits="userSpaceOnUse">
<stop stop-color="#F83248"/>
<stop offset="0.9999" stop-color="#F96C2B"/>
<stop offset="1" stop-color="#F70032" stop-opacity="0"/>
</linearGradient>
<linearGradient id="paint22_linear_145_3219" x1="286.535" y1="234.65" x2="286.535" y2="243.8" gradientUnits="userSpaceOnUse">
<stop stop-color="#F83248"/>
<stop offset="0.9999" stop-color="#F96C2B"/>
<stop offset="1" stop-color="#F70032" stop-opacity="0"/>
</linearGradient>
<linearGradient id="paint23_linear_145_3219" x1="404.28" y1="334.71" x2="404.28" y2="341.13" gradientUnits="userSpaceOnUse">
<stop stop-color="#F83248"/>
<stop offset="0.9999" stop-color="#F96C2B"/>
<stop offset="1" stop-color="#F70032" stop-opacity="0"/>
</linearGradient>
<linearGradient id="paint24_linear_145_3219" x1="372.46" y1="299.72" x2="372.46" y2="306.14" gradientUnits="userSpaceOnUse">
<stop stop-color="#F83248"/>
<stop offset="0.9999" stop-color="#F96C2B"/>
<stop offset="1" stop-color="#F70032" stop-opacity="0"/>
</linearGradient>
<linearGradient id="paint25_linear_145_3219" x1="127.32" y1="246.64" x2="127.32" y2="253.06" gradientUnits="userSpaceOnUse">
<stop stop-color="#F83248"/>
<stop offset="0.9999" stop-color="#F96C2B"/>
<stop offset="1" stop-color="#F70032" stop-opacity="0"/>
</linearGradient>
<linearGradient id="paint26_linear_145_3219" x1="96.5699" y1="283.27" x2="96.5699" y2="289.689" gradientUnits="userSpaceOnUse">
<stop stop-color="#F83248"/>
<stop offset="0.9999" stop-color="#F96C2B"/>
<stop offset="1" stop-color="#F70032" stop-opacity="0"/>
</linearGradient>
<linearGradient id="paint27_linear_145_3219" x1="82.5383" y1="201.465" x2="82.5383" y2="259.37" gradientUnits="userSpaceOnUse">
<stop stop-color="#F83248"/>
<stop offset="0.9999" stop-color="#F96C2B"/>
<stop offset="1" stop-color="#F70032" stop-opacity="0"/>
</linearGradient>
<linearGradient id="paint28_linear_145_3219" x1="120.9" y1="267.42" x2="120.9" y2="273.85" gradientUnits="userSpaceOnUse">
<stop stop-color="#F83248"/>
<stop offset="0.9999" stop-color="#F96C2B"/>
<stop offset="1" stop-color="#F70032" stop-opacity="0"/>
</linearGradient>
<linearGradient id="paint29_linear_145_3219" x1="418.15" y1="252.985" x2="418.15" y2="310.89" gradientUnits="userSpaceOnUse">
<stop stop-color="#F83248"/>
<stop offset="0.9999" stop-color="#F96C2B"/>
<stop offset="1" stop-color="#F70032" stop-opacity="0"/>
</linearGradient>
<clipPath id="clip0_145_3219">
<rect width="38.2436" height="35.7221" fill="white" transform="translate(18.0317 39)"/>
</clipPath>
<clipPath id="clip1_145_3219">
<rect width="38.2436" height="35.7221" fill="white" transform="translate(450.779 629) rotate(-180)"/>
</clipPath>
</defs>
</svg>
