<svg width="469" height="650" viewBox="0 0 469 650" fill="none" xmlns="http://www.w3.org/2000/svg">
<path d="M439.75 0.620117H29.87C13.8 0.620117 0.77002 12.6801 0.77002 27.5501V622.39C0.77002 637.26 13.8 649.32 29.87 649.32H439.75C455.82 649.32 468.85 637.26 468.85 622.39V27.5501C468.85 12.6801 455.82 0.620117 439.75 0.620117Z" fill="url(#paint0_linear_145_3416)"/>
<path d="M256.08 385.25C242.37 376.98 226.42 373.69 216.23 372.39C212.63 371.93 209.75 371.71 207.94 371.62C206.57 371.54 205.8 371.54 205.8 371.54C205.4 371.04 205 370.53 204.62 370C214.93 370.15 244.5 371.78 256.08 385.26V385.25Z" fill="#B3B3B3"/>
<path d="M206.01 371.78C205.94 371.7 205.87 371.61 205.81 371.53L206.01 371.78Z" fill="#4A5500"/>
<path d="M206.64 372.55C206.54 372.43 206.45 372.32 206.35 372.2C206.24 372.06 206.12 371.92 206.01 371.78L206.35 372.2L206.64 372.55Z" fill="#4A5500"/>
<path d="M224.01 375.65C224.01 375.65 223.92 375.67 223.88 375.68C223.88 375.66 223.89 375.64 223.9 375.62C223.94 375.63 223.98 375.64 224.02 375.65H224.01Z" fill="#4A5500"/>
<path d="M403.22 214.11L395.19 198.01C394.88 197.38 394.15 197.1 393.56 197.39L370.19 209.04C369.61 209.33 369.39 210.08 369.7 210.71L377.73 226.81C378.04 227.44 378.77 227.72 379.36 227.43L402.73 215.78C403.31 215.49 403.53 214.74 403.22 214.11Z" fill="#B3B3B3"/>
<path d="M374.01 167.71L361.86 154.44C361.38 153.92 360.61 153.86 360.13 154.3L340.87 171.93C340.39 172.37 340.38 173.15 340.87 173.67L353.02 186.94C353.5 187.46 354.27 187.52 354.75 187.08L374.01 169.45C374.49 169.01 374.5 168.23 374.01 167.71Z" fill="#333333"/>
<path d="M334.28 130.88L319.42 120.73C318.84 120.33 318.07 120.45 317.7 120.99L302.97 142.55C302.6 143.09 302.78 143.85 303.36 144.25L318.22 154.4C318.8 154.8 319.57 154.68 319.94 154.14L334.67 132.58C335.04 132.04 334.86 131.28 334.28 130.88Z" fill="#B3B3B3"/>
<path d="M288.21 103.89L271.64 96.88C270.99 96.61 270.26 96.8699 270 97.4699L259.82 121.51C259.57 122.11 259.89 122.82 260.54 123.1L277.11 130.11C277.76 130.38 278.49 130.12 278.75 129.52L288.93 105.47C289.18 104.87 288.86 104.16 288.21 103.88V103.89Z" fill="#333333"/>
<path d="M239.59 86.8299L221.99 83.0999C221.3 82.9499 220.63 83.3499 220.5 83.9899L215.08 109.53C214.94 110.17 215.39 110.81 216.08 110.95L233.68 114.68C234.37 114.83 235.04 114.43 235.17 113.79L240.59 88.2499C240.73 87.6099 240.28 86.9699 239.59 86.8299Z" fill="#B3B3B3"/>
<path d="M191.84 79.8703L173.85 79.9903C173.14 79.9903 172.58 80.5303 172.58 81.1803L172.75 107.29C172.75 107.94 173.33 108.47 174.03 108.46L192.02 108.34C192.73 108.34 193.29 107.8 193.29 107.15L193.12 81.0402C193.12 80.3902 192.54 79.8603 191.84 79.8703Z" fill="#333333"/>
<path d="M149.47 84.2802C149.28 83.6602 148.58 83.3202 147.9 83.5202L130.69 88.7502C130.02 88.9602 129.62 89.6302 129.81 90.2502L137.4 115.23C137.59 115.85 138.29 116.19 138.97 115.99L156.18 110.76C156.85 110.55 157.25 109.88 157.06 109.26L149.47 84.2802Z" fill="#B3B3B3"/>
<path d="M112.11 99.5C111.68 99.01 110.9 98.99 110.37 99.46L96.9001 111.39C96.3701 111.86 96.2901 112.63 96.7301 113.12L114.04 132.67C114.47 133.16 115.25 133.18 115.78 132.71L129.25 120.78C129.78 120.31 129.86 119.54 129.42 119.05L112.11 99.5Z" fill="#333333"/>
<path d="M111.03 137.44L85.9998 130C85.3698 129.81 84.6998 130.21 84.4998 130.89L79.3698 148.14C79.1698 148.82 79.5098 149.51 80.1398 149.7L105.17 157.14C105.8 157.33 106.47 156.93 106.67 156.25L111.8 139C112 138.32 111.66 137.63 111.03 137.44Z" fill="#B3B3B3"/>
<path d="M107.02 171.13C106.89 170.44 106.26 169.97 105.62 170.1L79.9699 175C79.3299 175.12 78.9199 175.78 79.0499 176.48L82.4299 194.15C82.5599 194.84 83.1899 195.31 83.8299 195.18L109.48 190.28C110.12 190.16 110.53 189.5 110.4 188.8L107.02 171.13Z" fill="#333333"/>
<path d="M191.97 466.18C206.18 482.31 210.83 506.35 215.12 527.64C212.86 530.02 210.91 532.81 209.91 534.95C206.4 528.88 197.29 523.15 190.9 520.28C190 519.88 189.07 519.52 188.11 519.21C179.45 503.99 171.09 489.17 162.17 473.57C160.58 470.81 155.37 462.83 155.15 459.67C154.79 454.58 158.02 450.01 161.23 446.04C169.79 435.42 177.28 422.55 185.03 410.99H185.05C185.49 411.23 185.93 411.47 186.36 411.7C186.79 411.93 187.23 412.17 187.66 412.41C189.07 413.17 190.45 413.93 191.82 414.67C192.5 415.04 193.18 415.41 193.86 415.77C194.54 416.13 195.21 416.5 195.88 416.86C195.15 421.67 194.71 426.78 194.67 432.15C191.54 432.15 189.01 434.69 189.01 437.81C189.01 440.93 191.54 443.47 194.67 443.47C197.8 443.47 200.33 440.94 200.33 437.81C200.33 434.68 198.04 432.4 195.13 432.17C196.14 427.26 197.42 422.69 198.87 418.44C198.89 418.45 198.91 418.46 198.93 418.47C199.99 419.03 201.05 419.58 202.11 420.12C203.72 420.95 205.32 421.75 206.92 422.52C207.32 422.71 207.72 422.91 208.12 423.09C208.41 423.23 208.71 423.37 209 423.51C209.08 423.55 209.17 423.59 209.25 423.63C209.28 423.64 209.31 423.66 209.34 423.67C209.68 423.83 210.03 423.99 210.38 424.15C210.45 424.18 210.51 424.21 210.58 424.24C210.95 424.41 211.32 424.58 211.7 424.74C212.02 424.88 212.33 425.02 212.65 425.16C213.04 425.33 213.43 425.5 213.82 425.67C214.15 425.81 214.47 425.95 214.8 426.09C214.8 426.09 214.82 426.09 214.83 426.1C214.89 426.13 214.95 426.15 215.01 426.18C215.32 426.31 215.63 426.44 215.95 426.57C215.85 432.96 216.11 439.61 216.91 446.31C209.06 451.39 200.7 456 192.99 460.87C191.19 462.01 190.58 464.58 192 466.18H191.97Z" fill="#4D4D4D"/>
<path d="M234.2 432.08C232.9 433.84 231.5 435.39 230.07 436.62C226.45 439.74 222.5 442.6 218.39 445.32C219.06 439.39 219.93 433.77 220.94 428.48C221.26 428.6 221.59 428.71 221.92 428.82C222.31 428.96 222.69 429.09 223.08 429.22C223.43 429.34 223.78 429.45 224.13 429.56C227.71 430.71 230.88 431.72 234.2 432.07V432.08Z" fill="#4D4D4D"/>
<path d="M295.67 305.73L295.5 305.64H295.07C292.96 304.37 290.42 303.52 287.88 303.52C279.85 303.52 273.08 309.86 273.08 317.9C273.08 323.4 276.46 328.47 280.69 330.59L281.96 331.43L287.24 333.9C287.31 333.94 287.39 333.99 287.47 334.03C287.53 334.07 287.6 334.1 287.66 334.13C287.69 334.15 287.72 334.16 287.76 334.18C287.79 334.19 287.82 334.21 287.86 334.22C287.93 334.25 288 334.28 288.07 334.31C288.07 334.31 288.15 334.34 288.18 334.35C288.22 334.36 288.26 334.38 288.3 334.39C288.3 334.39 290.14 335.39 293.24 336.89C291.47 339.71 287.97 342.7 280.48 345.71C267.79 350.8 261.34 356.28 259.61 365.76C258.57 371.53 257.03 377.85 256.08 385.25C244.5 371.77 214.93 370.15 204.62 369.99C200.38 364.19 197.29 356.53 197.29 334.07C197.29 328.13 200.34 317.73 200.61 312.61C203.59 309.97 205.47 306.1 205.47 301.8C205.47 293.96 199.24 287.57 191.48 287.32C199.22 282.47 208.4 279.91 217.53 280.19L228 279.49C228 279.57 228 279.64 228 279.71C225.56 280.81 218.97 283.22 208.87 282.77C208.55 281.91 207.73 281.3 206.76 281.3C205.52 281.3 204.51 282.31 204.51 283.55C204.51 284.79 205.51 285.8 206.76 285.8C208.01 285.8 209.01 284.79 209.01 283.55C209.01 283.46 209.01 283.37 208.99 283.28C214.63 285.6 223.51 284.61 229.03 283.64C229.68 284.74 230.61 285.51 231.69 286.04C228.51 290.21 222.17 296.7 213.49 296.72C213.49 296.69 213.49 296.65 213.49 296.62C213.49 295.38 212.48 294.37 211.24 294.37C210 294.37 208.99 295.38 208.99 296.62C208.99 297.86 209.99 298.87 211.24 298.87C212.49 298.87 213.4 297.95 213.48 296.78C224.79 297.46 232.48 291.1 236.2 287.03C236.53 287.04 236.86 287.04 237.18 287.03C234.12 293.07 227.23 305.84 221.4 310.59C221.01 310.26 220.5 310.05 219.95 310.05C218.71 310.05 217.7 311.06 217.7 312.3C217.7 313.54 218.7 314.55 219.95 314.55C221.2 314.55 222.2 313.55 222.2 312.3C222.2 311.66 221.93 311.09 221.5 310.67C233.92 302.92 241.07 289.34 242.62 286.15C242.8 286.09 242.96 286.04 243.1 285.99C243.72 288.3 245.71 298.29 239.45 314.68C239.21 314.59 238.94 314.54 238.67 314.54C237.43 314.54 236.42 315.55 236.42 316.79C236.42 318.03 237.42 319.04 238.67 319.04C239.92 319.04 240.92 318.04 240.92 316.79C240.92 315.87 240.37 315.08 239.57 314.73C246.56 303.35 248.56 291.54 248.6 284.82C250.92 294.04 255.83 292.69 255.59 310.05C255.57 310.05 255.54 310.05 255.52 310.05C254.28 310.05 253.27 311.06 253.27 312.3C253.27 313.54 254.27 314.55 255.52 314.55C256.77 314.55 257.77 313.55 257.77 312.3C257.77 311.14 256.89 310.19 255.77 310.07C258.45 295.29 252.93 284.06 252.93 284.06C252.93 284.06 260.39 285.74 264.76 296.16C263.65 296.3 262.8 297.24 262.8 298.39C262.8 299.63 263.8 300.64 265.05 300.64C266.3 300.64 267.3 299.63 267.3 298.39C267.3 297.15 266.29 296.14 265.05 296.14C265.03 296.14 265.01 296.14 264.98 296.14C264.9 295.4 264.82 294.68 264.73 294C266.53 294.4 268.14 297.3 270.32 297.69C272.8 298.13 273.79 299.26 274.21 300.95C274.63 302.22 275.4 302.01 277.09 302.44C278.78 302.44 280.05 300.75 281.32 300.32C284.7 299.47 287.24 303.28 290.2 303.28C292.2 303.28 293.92 305.01 295.62 305.66C295.62 305.66 295.65 305.71 295.66 305.74L295.67 305.73Z" fill="#4D4D4D"/>
<path d="M284.22 331.01C284.43 331.28 284.65 331.54 284.87 331.79C284.64 331.54 284.42 331.28 284.22 331.01Z" fill="#F70032"/>
<path d="M285.34 332.28C285.76 332.7 286.19 333.13 286.66 333.5C286.18 333.13 285.76 332.71 285.34 332.29C285.18 332.13 285.03 331.97 284.88 331.8C285.03 331.97 285.19 332.13 285.34 332.28Z" fill="#F70032"/>
<path d="M287.31 310.38C287.69 310.11 288.08 309.87 288.48 309.64C288.08 309.87 287.69 310.12 287.31 310.38Z" fill="#F70032"/>
<path d="M288.3 334.4C288.3 334.4 288.22 334.37 288.18 334.36C288.14 334.35 288.1 334.33 288.07 334.32C288 334.29 287.93 334.27 287.86 334.23C287.83 334.22 287.8 334.2 287.76 334.19C287.73 334.17 287.69 334.16 287.66 334.14C287.59 334.11 287.53 334.08 287.47 334.04C287.39 334 287.32 333.96 287.24 333.91C287.17 333.87 287.1 333.82 287.03 333.77C287.11 333.82 287.2 333.87 287.28 333.92L288.29 334.39L288.3 334.4Z" fill="#F70032"/>
<path d="M289.68 309.03C289.96 308.9 290.23 308.79 290.52 308.68C290.24 308.79 289.96 308.91 289.68 309.03Z" fill="#F70032"/>
<path d="M293.38 307.92C293.06 307.97 292.73 308.04 292.41 308.11C292.73 308.04 293.05 307.98 293.38 307.92Z" fill="#F70032"/>
<path d="M208.45 380.58C203.95 388.16 198.31 400.8 195.87 416.86C195.2 416.5 194.53 416.14 193.85 415.77C193.17 415.4 192.49 415.04 191.81 414.67C190.44 413.93 189.06 413.17 187.65 412.41C187.22 412.18 186.79 411.94 186.35 411.7C185.92 411.46 185.48 411.22 185.04 410.99H185.02C184.28 410.6 183.55 410.2 182.79 409.79C180.52 408.56 176.46 406.29 173.75 405.52C184.18 392.58 197.75 384.94 208.44 380.58H208.45Z" fill="#999999"/>
<path d="M199.71 375.22C190.81 379.91 178.54 389.02 170.85 405.69C169.79 407.99 168.81 410.44 167.95 413.04C167.33 412.8 166.65 412.67 165.95 412.67C165.73 412.67 165.52 412.68 165.3 412.71C162.47 413.03 160.29 415.42 160.29 418.33C160.29 419.06 160.43 419.77 160.68 420.41C160.17 421.23 159.67 421.99 159.18 422.68C151.4 433.63 137.46 441.55 129.48 449.49C127.19 449.56 124.93 449.97 122.79 450.81C123.86 445.2 121.52 438.79 118.21 433.01C127.23 414.57 136.92 396.27 147.78 379.09C149.99 375.63 152.92 373.54 156.48 371.49C160.54 369.18 165.15 370.09 169.79 370.57C175.15 371.12 180.12 371.66 184.78 372.21C170.55 374.49 153.86 381.72 147.62 402.23C147.43 402.21 147.24 402.2 147.05 402.2C143.92 402.2 141.39 404.74 141.39 407.86C141.39 410.98 143.92 413.52 147.05 413.52C150.18 413.52 152.71 410.99 152.71 407.86C152.71 405.05 150.65 402.71 147.95 402.27C158.32 380.79 184.41 376.33 199.73 375.21L199.71 375.22Z" fill="#999999"/>
<path d="M108.34 454.15C108.21 454.22 108.19 454.12 108.32 453.78C108.34 453.9 108.35 454.03 108.34 454.15Z" fill="#0500D4"/>
<path d="M222.68 379.79C220.42 388.07 216.26 405.95 215.93 426.56C215.62 426.43 215.3 426.3 214.99 426.17C214.93 426.15 214.87 426.12 214.81 426.09C214.81 426.09 214.79 426.09 214.78 426.08C214.45 425.94 214.13 425.8 213.8 425.66C213.41 425.49 213.02 425.32 212.63 425.15C212.31 425.01 212 424.87 211.68 424.73C211.31 424.56 210.94 424.4 210.56 424.23C210.49 424.2 210.43 424.17 210.36 424.14C210.02 423.98 209.67 423.82 209.32 423.66C209.29 423.65 209.26 423.63 209.23 423.62C209.15 423.58 209.06 423.54 208.98 423.5C208.68 423.36 208.39 423.22 208.1 423.08C207.7 422.89 207.3 422.7 206.9 422.51C205.3 421.74 203.7 420.94 202.09 420.11C201.04 419.57 199.98 419.02 198.91 418.46C198.89 418.45 198.87 418.44 198.85 418.43C205.73 398.24 216.59 385.42 222.68 379.78V379.79Z" fill="#999999"/>
<path d="M241.36 431.81C241.1 431.87 240.84 431.92 240.58 431.96C238.3 432.32 236.21 432.32 234.19 432.08C230.87 431.72 227.7 430.71 224.12 429.57C223.77 429.46 223.42 429.34 223.07 429.23C222.68 429.1 222.3 428.97 221.91 428.83C221.58 428.72 221.26 428.6 220.93 428.49C224.57 409.34 229.91 394.63 233.52 386.09C236.78 396.39 241.15 413.53 241.36 431.81Z" fill="#999999"/>
<path d="M257.24 410.87C255.8 418.42 251.43 426.17 245.78 429.87C248.01 414.04 246.83 398.02 245.68 388.48C249.14 393.55 253.52 401.05 257.24 410.87Z" fill="#999999"/>
<path d="M108.32 453.78C108.34 453.9 108.35 454.03 108.34 454.15C108.21 454.22 108.19 454.12 108.32 453.78Z" fill="#F70032"/>
<path d="M115.67 483.04C120.35 487.72 123.49 500.6 116.75 502.61C110.01 504.62 105.86 502.7 100.42 503.9C90.3203 506.13 81.0403 513.16 71.4203 513.96C61.8003 514.76 52.1903 512.72 44.5403 510.05C37.5303 507.6 38.1203 504.76 35.3203 500.21C35.4703 500.23 35.6203 500.24 35.7703 500.24C35.9503 500.24 36.1303 500.23 36.3103 500.2C41.0303 503.2 45.0003 503.64 48.2603 503.73C52.0303 503.84 66.0803 501.7 71.7303 499.09C80.6103 494.99 86.4503 492.64 90.1503 484.42C92.4603 479.29 92.9803 473.84 95.9403 470.01C98.8903 466.18 101.68 464.7 103.73 460.93C104.66 459.21 105.4 457.61 106.11 456.02C106.22 456.04 106.34 456.05 106.46 456.05C107.27 456.05 107.82 455.64 108.1 455.1C109.15 455.46 110.31 455.87 111.51 456.31C110.68 458.08 111.55 460.7 114.1 460.7C115.73 460.7 116.68 459.63 116.93 458.39C118.22 458.84 119.65 459.24 120.98 459.52C120.98 459.52 121.07 459.58 121.11 459.61C120.4 460.88 120.88 462.82 122.54 463.17C116.78 467.92 117.49 475.8 115.66 483.06L115.67 483.04Z" fill="#B3B3B3"/>
<path d="M226.91 564.64C226.34 567.5 223.19 569.19 220.27 569.33C217.36 569.47 214.51 568.51 211.63 568.04C206.82 567.27 205.53 567.93 200.68 568.38C192.16 569.17 182.96 570.43 174.42 569.96C166.75 569.54 159.43 567.41 152.95 563.29C146.59 559.25 142.04 551.48 143.78 544.18C144.03 544.44 144.31 544.66 144.63 544.83C149.03 551.05 152.44 553.48 160.65 556.18C163.74 557.2 171.77 557.53 175.02 557.38C180.66 557.11 188.58 554.29 191.75 549.61C193.28 547.35 194.35 544.82 195.03 542.18C195.51 542.79 196.25 543.21 197.26 543.21C198.94 543.21 199.89 542.07 200.09 540.78C201.8 541.26 203.55 541.6 205.32 541.79C205.17 543.49 206.2 545.32 208.4 545.32C210.14 545.32 211.14 544.19 211.42 542.87C211.49 542.54 211.51 542.2 211.49 541.86C213.33 541.7 215.15 541.39 216.93 540.92C217.16 541.51 217.6 542 218.25 542.24C218.53 542.34 218.84 542.4 219.19 542.4C219.46 542.4 219.71 542.37 219.93 542.3C220.61 547.73 221.82 552.95 224.73 557.83C225.98 559.93 227.4 562.24 226.91 564.63V564.64Z" fill="#B3B3B3"/>
<path d="M142.54 453.36C142.54 453.36 142.54 453.44 142.54 453.48C139.12 453.73 136.04 454.29 132.8 455.46C129.96 456.49 126.11 459.56 125.62 459.8C125.51 459.86 125.37 459.9 125.19 459.92C124.89 459.12 124.18 458.49 123.07 458.49C122.14 458.49 121.49 458.93 121.13 459.54C121.08 459.54 121.02 459.52 120.97 459.51C119.64 459.23 118.2 458.83 116.92 458.38C117.03 457.82 117 457.22 116.83 456.67C116.49 455.61 115.61 454.75 114.18 454.71H114.09C112.79 454.71 111.92 455.4 111.5 456.3C110.3 455.86 109.14 455.45 108.09 455.09C108.24 454.8 108.32 454.48 108.32 454.15C108.32 454.03 108.32 453.9 108.3 453.78C108.23 453.3 108.01 452.86 107.63 452.56C107.38 452.35 107.05 452.22 106.65 452.18C108.55 445.17 109.14 437.7 107.05 430.6C104.93 423.39 99.44 417.33 92.23 416.14C92.23 416.12 92.23 416.1 92.23 416.08C92.23 415.73 92.15 415.39 92 415.09C95.22 413.86 99.01 414.21 102.2 415.62C105.99 417.3 109.04 420.28 111.63 423.52C113.81 426.23 116.18 429.5 118.19 433.01C121.5 438.78 123.84 445.19 122.77 450.81C124.91 449.97 127.17 449.55 129.46 449.49C133.95 449.35 138.58 450.53 142.75 452.38C142.61 452.68 142.53 453.01 142.53 453.35L142.54 453.36Z" fill="#333333"/>
<path d="M108.34 454.15C108.21 454.22 108.19 454.12 108.32 453.78C108.34 453.9 108.35 454.03 108.34 454.15Z" fill="#0B0055"/>
<path d="M219.28 535.61C219.33 536.2 219.38 536.78 219.43 537.37C219.38 537.37 219.33 537.37 219.29 537.37C219.26 537.37 219.23 537.37 219.2 537.37C218.36 537.37 217.74 537.7 217.33 538.2C216.72 538.94 216.6 540.04 216.95 540.94C215.17 541.42 213.35 541.73 211.51 541.88C211.41 540.37 210.38 538.94 208.42 538.94C208.35 538.94 208.28 538.94 208.2 538.94C207.64 538.97 207.17 539.12 206.77 539.36C206.34 539.62 206.01 539.97 205.77 540.39C205.52 540.82 205.38 541.31 205.33 541.81C203.56 541.62 201.81 541.28 200.1 540.8C200.36 539.16 199.42 537.29 197.27 537.29C196.69 537.29 196.21 537.42 195.8 537.65C195.7 537.71 195.61 537.77 195.52 537.84C195.04 536.14 194.17 533.36 191.89 531.28C180.76 521.13 170.08 520.72 163.18 519.71C163 519.41 162.75 519.16 162.44 518.97C167.36 517.48 178.89 516.25 188.11 519.21C189.07 519.52 190 519.87 190.9 520.28C197.29 523.15 206.4 528.88 209.91 534.95C210.91 532.81 212.86 530.01 215.12 527.64C216.77 525.9 218.59 524.39 220.32 523.53C220.51 523.92 220.82 524.25 221.2 524.47C219.93 528.34 219.36 532.45 219.28 535.62V535.61Z" fill="#333333"/>
<path d="M39.2298 496.8C39.2298 498.52 37.9699 499.95 36.3199 500.2C36.1499 500.23 35.9698 500.24 35.7798 500.24C35.6298 500.24 35.4798 500.24 35.3298 500.21C33.6398 499.99 32.3398 498.54 32.3398 496.8C32.3398 494.9 33.8798 493.36 35.7798 493.36C37.6798 493.36 39.2298 494.9 39.2298 496.8Z" fill="black"/>
<path d="M149.73 541.83C149.73 543.73 148.19 545.27 146.28 545.27C145.68 545.27 145.12 545.12 144.63 544.85C144.31 544.68 144.03 544.46 143.78 544.2C143.19 543.58 142.84 542.75 142.84 541.83C142.84 539.93 144.38 538.39 146.28 538.39C148.18 538.39 149.73 539.93 149.73 541.83Z" fill="black"/>
<path d="M163.5 520.87C163.5 522.11 162.49 523.12 161.25 523.12C160.01 523.12 159 522.11 159 520.87C159 519.63 160 518.62 161.25 518.62C161.68 518.62 162.09 518.74 162.43 518.96C162.73 519.14 162.98 519.39 163.17 519.7C163.38 520.04 163.5 520.44 163.5 520.87Z" fill="black"/>
<path d="M92.2498 416.09C92.2498 416.09 92.2498 416.13 92.2498 416.15C92.2198 417.36 91.2298 418.33 90.0098 418.33C88.7898 418.33 87.7598 417.32 87.7598 416.08C87.7598 414.84 88.7698 413.83 90.0098 413.83C90.8998 413.83 91.6598 414.34 92.0298 415.09C92.1798 415.39 92.2598 415.72 92.2598 416.08L92.2498 416.09Z" fill="black"/>
<path d="M224.57 522.52C224.57 523.76 223.56 524.76 222.32 524.76C221.91 524.76 221.52 524.65 221.19 524.45C220.81 524.23 220.51 523.91 220.31 523.51C220.16 523.21 220.07 522.87 220.07 522.51C220.07 521.27 221.07 520.26 222.31 520.26C223.55 520.26 224.56 521.26 224.56 522.51L224.57 522.52Z" fill="black"/>
<path d="M147.04 453.36C147.04 454.6 146.03 455.61 144.79 455.61C143.55 455.61 142.61 454.67 142.55 453.48C142.55 453.44 142.55 453.4 142.55 453.36C142.55 453.01 142.63 452.68 142.77 452.39C143.13 451.64 143.9 451.12 144.79 451.12C146.03 451.12 147.04 452.13 147.04 453.37V453.36Z" fill="black"/>
<path d="M299.7 466.5C299.7 469.63 297.16 472.16 294.04 472.16C290.92 472.16 288.38 469.63 288.38 466.5C288.38 463.37 290.91 460.84 294.04 460.84C294.28 460.84 294.52 460.85 294.75 460.89C294.84 460.89 294.93 460.91 295.02 460.93C297.67 461.39 299.69 463.71 299.69 466.5H299.7Z" fill="#333333"/>
<path d="M269.95 457.99C269.95 461.12 267.41 463.65 264.29 463.65C261.17 463.65 258.63 461.12 258.63 457.99C258.63 454.86 261.16 452.33 264.29 452.33C264.54 452.33 264.79 452.35 265.03 452.38C265.12 452.38 265.22 452.4 265.31 452.42C267.95 452.9 269.95 455.21 269.95 457.98V457.99Z" fill="#B3B3B3"/>
<path d="M244.18 455.61C244.18 458.74 241.64 461.27 238.52 461.27C235.4 461.27 232.86 458.74 232.86 455.61C232.86 452.48 235.39 449.95 238.52 449.95C239.04 449.95 239.53 450.02 240.01 450.15C240.16 450.19 240.31 450.24 240.46 450.29C242.63 451.08 244.18 453.16 244.18 455.61Z" fill="#333333"/>
<path d="M223.37 455.61C223.37 458.74 220.83 461.27 217.71 461.27C214.59 461.27 212.05 458.74 212.05 455.61C212.05 452.48 214.4 450.14 217.37 449.96C217.48 449.96 217.6 449.95 217.71 449.95C217.78 449.95 217.85 449.95 217.91 449.95C220.94 450.05 223.37 452.55 223.37 455.6V455.61Z" fill="#B3B3B3"/>
<path d="M200.31 437.81C200.31 440.94 197.77 443.47 194.65 443.47C191.53 443.47 188.99 440.94 188.99 437.81C188.99 434.68 191.52 432.15 194.65 432.15C194.8 432.15 194.95 432.15 195.1 432.17C198.01 432.4 200.3 434.84 200.3 437.81H200.31Z" fill="#333333"/>
<path d="M171.6 418.33C171.6 421.46 169.06 423.99 165.94 423.99C163.54 423.99 161.5 422.51 160.68 420.41C160.42 419.77 160.29 419.06 160.29 418.33C160.29 415.42 162.47 413.03 165.3 412.71C165.51 412.68 165.73 412.67 165.95 412.67C166.66 412.67 167.33 412.8 167.95 413.04C168.09 413.09 168.23 413.15 168.36 413.21C170.28 414.11 171.61 416.07 171.61 418.33H171.6Z" fill="#B3B3B3"/>
<path d="M152.69 407.87C152.69 411 150.15 413.53 147.03 413.53C143.91 413.53 141.37 411 141.37 407.87C141.37 404.74 143.9 402.21 147.03 402.21C147.22 402.21 147.42 402.21 147.6 402.24C147.71 402.25 147.82 402.27 147.92 402.28C150.62 402.71 152.68 405.05 152.68 407.87H152.69Z" fill="#333333"/>
<path d="M209.01 283.54C209.01 284.78 208 285.79 206.76 285.79C205.52 285.79 204.51 284.78 204.51 283.54C204.51 282.3 205.51 281.29 206.76 281.29C207.73 281.29 208.55 281.9 208.87 282.76C208.93 282.92 208.97 283.09 208.99 283.27C209 283.36 209.01 283.45 209.01 283.54Z" fill="#B3B3B3"/>
<path d="M213.5 296.61C213.5 296.61 213.5 296.68 213.5 296.71C213.5 296.73 213.5 296.75 213.5 296.77C213.42 297.94 212.45 298.86 211.26 298.86C210.07 298.86 209.01 297.86 209.01 296.61C209.01 295.36 210.01 294.36 211.26 294.36C212.51 294.36 213.51 295.37 213.51 296.61H213.5Z" fill="#B3B3B3"/>
<path d="M222.21 312.29C222.21 313.53 221.2 314.54 219.96 314.54C218.72 314.54 217.71 313.54 217.71 312.29C217.71 311.04 218.71 310.04 219.96 310.04C220.52 310.04 221.02 310.24 221.41 310.58C221.44 310.61 221.47 310.63 221.51 310.66C221.94 311.07 222.21 311.65 222.21 312.29Z" fill="#B3B3B3"/>
<path d="M240.92 316.78C240.92 318.02 239.91 319.03 238.67 319.03C237.43 319.03 236.42 318.03 236.42 316.78C236.42 315.53 237.42 314.53 238.67 314.53C238.94 314.53 239.21 314.58 239.45 314.67C239.49 314.68 239.53 314.7 239.57 314.72C240.36 315.06 240.92 315.86 240.92 316.78Z" fill="#B3B3B3"/>
<path d="M257.78 312.29C257.78 313.53 256.77 314.54 255.53 314.54C254.29 314.54 253.28 313.54 253.28 312.29C253.28 311.04 254.28 310.04 255.53 310.04C255.55 310.04 255.58 310.04 255.6 310.04C255.66 310.04 255.72 310.04 255.77 310.05C256.89 310.17 257.77 311.12 257.77 312.28L257.78 312.29Z" fill="#B3B3B3"/>
<path d="M267.3 298.38C267.3 299.62 266.29 300.63 265.05 300.63C263.81 300.63 262.8 299.62 262.8 298.38C262.8 297.24 263.65 296.29 264.76 296.15C264.83 296.15 264.9 296.14 264.98 296.14C265 296.14 265.02 296.14 265.05 296.14C266.29 296.14 267.3 297.15 267.3 298.39V298.38Z" fill="#B3B3B3"/>
<path d="M108.34 454.15C108.34 454.48 108.26 454.8 108.11 455.09C107.83 455.64 107.28 456.04 106.47 456.04C106.35 456.04 106.23 456.04 106.12 456.01C103.98 455.67 104.1 452.17 106.47 452.17C106.54 452.17 106.61 452.17 106.67 452.18C107.07 452.21 107.39 452.35 107.65 452.55C108.03 452.85 108.25 453.3 108.32 453.77C108.2 454.11 108.22 454.21 108.34 454.14V454.15Z" fill="black"/>
<path d="M108.34 454.15C108.21 454.22 108.19 454.12 108.32 453.78C108.34 453.9 108.35 454.03 108.34 454.15Z" fill="#141247"/>
<path d="M116.93 458.38C116.68 459.62 115.74 460.69 114.1 460.69C111.55 460.69 110.69 458.07 111.51 456.3C111.93 455.39 112.79 454.71 114.1 454.71H114.19C115.62 454.74 116.5 455.61 116.84 456.67C117.02 457.21 117.05 457.81 116.93 458.38Z" fill="black"/>
<path d="M123.08 463.2C122.89 463.2 122.71 463.18 122.55 463.15C120.89 462.81 120.41 460.86 121.12 459.59C121.12 459.57 121.14 459.55 121.15 459.54C121.51 458.93 122.16 458.49 123.09 458.49C124.2 458.49 124.91 459.12 125.21 459.92C125.72 461.31 125.02 463.2 123.09 463.2H123.08Z" fill="black"/>
<path d="M200.1 540.79C199.89 542.07 198.95 543.22 197.27 543.22C196.26 543.22 195.51 542.81 195.04 542.19C194.05 540.92 194.21 538.82 195.52 537.83C195.61 537.76 195.7 537.7 195.8 537.64C196.2 537.41 196.69 537.28 197.27 537.28C199.42 537.28 200.36 539.15 200.1 540.79Z" fill="black"/>
<path d="M211.43 542.88C211.16 544.2 210.15 545.33 208.41 545.33C206.21 545.33 205.18 543.5 205.33 541.8C205.37 541.3 205.52 540.81 205.77 540.38C206.01 539.97 206.34 539.61 206.77 539.35C207.16 539.11 207.64 538.96 208.2 538.93C208.27 538.93 208.34 538.93 208.42 538.93C210.37 538.93 211.4 540.36 211.51 541.87C211.53 542.21 211.51 542.55 211.44 542.88H211.43Z" fill="black"/>
<path d="M219.93 542.31C219.71 542.37 219.46 542.41 219.19 542.41C218.84 542.41 218.53 542.35 218.25 542.25C217.6 542.01 217.17 541.51 216.93 540.93C216.58 540.04 216.7 538.94 217.31 538.19C217.72 537.69 218.34 537.36 219.18 537.36C219.21 537.36 219.24 537.36 219.27 537.36C219.32 537.36 219.37 537.36 219.41 537.36C222.17 537.58 222.34 541.62 219.91 542.31H219.93Z" fill="black"/>
<path d="M405.73 308.57C404.59 310.68 403.64 313.32 402.99 316.23L393.36 325.68C381.8 334.7 363.55 343.19 345.82 350.45C329.73 353.41 303.97 342.1 293.24 336.89C290.15 335.39 288.3 334.39 288.3 334.39H288.29L287.28 333.91C287.2 333.86 287.11 333.81 287.03 333.76C286.9 333.68 286.78 333.59 286.66 333.49C286.18 333.12 285.76 332.7 285.34 332.27C285.18 332.11 285.03 331.95 284.88 331.79C284.65 331.54 284.44 331.28 284.23 331.01C283.88 330.56 283.55 330.07 283.24 329.57C283.12 329.37 283.01 329.17 282.9 328.96C282.84 328.86 282.79 328.75 282.73 328.64C282.68 328.54 282.62 328.43 282.57 328.32C282.47 328.11 282.37 327.89 282.28 327.68C282.23 327.57 282.19 327.46 282.15 327.35C282.11 327.24 282.06 327.13 282.02 327.02C281.94 326.8 281.86 326.57 281.79 326.34C281.36 324.98 281.12 323.55 281.12 322.13C281.12 318.24 282.71 314.74 285.21 312.18C285.29 312.1 285.38 312.01 285.46 311.93C285.58 311.81 285.71 311.69 285.84 311.57C286.23 311.22 286.63 310.89 287.05 310.58C287.14 310.51 287.24 310.44 287.33 310.38C287.71 310.12 288.1 309.87 288.5 309.64C288.8 309.47 289.11 309.31 289.42 309.16C289.51 309.12 289.6 309.07 289.7 309.03C289.98 308.91 290.25 308.79 290.54 308.68C290.82 308.57 291.11 308.47 291.4 308.38C291.5 308.35 291.59 308.32 291.69 308.29C291.81 308.26 291.92 308.23 292.03 308.2C292.16 308.17 292.29 308.13 292.43 308.1C292.75 308.03 293.07 307.97 293.4 307.91C294.1 307.8 294.8 307.75 295.52 307.75H298.06C298.27 307.75 298.51 307.78 298.76 307.82C298.88 307.84 299.01 307.87 299.14 307.9C299.21 307.91 299.27 307.93 299.34 307.95C299.49 307.99 299.64 308.04 299.79 308.09C300.23 308.24 300.67 308.42 301.03 308.6C301.03 308.6 324.28 316.2 343.31 324.66C356.3 315.01 377.23 309.07 385.55 306.98C390.84 307.55 396.63 306.98 402.62 304.58H402.63C394.44 313.24 393.16 317.72 383.43 321.64C383.06 320.27 381.82 319.27 380.33 319.27C378.56 319.27 377.12 320.71 377.12 322.48C377.12 324.25 378.56 325.69 380.33 325.69C382.1 325.69 383.54 324.25 383.54 322.48C383.54 322.41 383.54 322.34 383.54 322.26C392.6 322.09 401.43 315.77 405.76 308.57H405.73Z" fill="#E6E6E6"/>
<path d="M284.22 331.01C284.43 331.28 284.65 331.54 284.87 331.79C284.64 331.54 284.42 331.28 284.22 331.01Z" fill="#FFD6A1"/>
<path d="M285.34 332.28C285.76 332.7 286.19 333.13 286.66 333.5C286.18 333.13 285.76 332.71 285.34 332.29C285.18 332.13 285.03 331.97 284.88 331.8C285.03 331.97 285.19 332.13 285.34 332.28Z" fill="#FFD6A1"/>
<path d="M288.3 334.39C288.3 334.39 288.23 334.37 288.19 334.36C288.15 334.35 288.11 334.33 288.08 334.32C288.01 334.29 287.94 334.27 287.87 334.23C287.84 334.22 287.81 334.2 287.77 334.19C287.74 334.17 287.7 334.16 287.67 334.14C287.6 334.11 287.54 334.08 287.48 334.04C287.42 334.01 287.35 333.97 287.29 333.93L288.3 334.4V334.39Z" fill="#FFD6A1"/>
<path d="M205.48 301.8C205.48 306.1 203.6 309.97 200.62 312.61C199.8 313.34 198.9 313.97 197.94 314.49L196.66 315.13L190.64 318.17C190.64 318.17 190.67 318.15 190.69 318.14C191.65 317.57 192.51 316.87 193.29 316.09H193.3C195.41 314 196.87 311.27 197.38 308.22C197.51 307.44 197.58 306.64 197.58 305.82C197.58 298.74 192.49 292.85 185.76 291.59C184.89 291.43 184 291.34 183.09 291.34C182.32 291.34 181.55 291.39 180.82 291.53C179.7 291.7 178.62 292.01 177.62 292.43L177.68 292.4L183.44 289.45L183.52 289.41C185.72 288.09 188.28 287.32 191.03 287.32C191.19 287.32 191.35 287.32 191.5 287.32C199.26 287.57 205.49 293.96 205.49 301.8H205.48Z" fill="#B3B3B3"/>
<path d="M190.67 318.14C190.67 318.14 190.64 318.16 190.62 318.17L190.59 318.19C190.59 318.19 190.65 318.16 190.68 318.14H190.67Z" fill="#0500D4"/>
<path d="M288.3 334.4C288.3 334.4 288.22 334.37 288.18 334.36C288.14 334.35 288.1 334.33 288.07 334.32C288 334.29 287.93 334.27 287.86 334.23C287.83 334.22 287.8 334.2 287.76 334.19C287.73 334.17 287.69 334.16 287.66 334.14C287.59 334.11 287.53 334.08 287.47 334.04C287.39 334 287.32 333.96 287.24 333.91L287.28 333.93L288.29 334.4H288.3Z" fill="#0500D4"/>
<path d="M300.99 308.6C300.63 308.42 300.2 308.24 299.76 308.1C299.61 308.05 299.46 308 299.31 307.96C299.24 307.94 299.18 307.92 299.11 307.91C298.98 307.88 298.85 307.85 298.73 307.83C298.48 307.78 298.24 307.76 298.03 307.76H295.49C294.78 307.76 294.07 307.82 293.37 307.92C293.05 307.97 292.72 308.03 292.4 308.11C292.27 308.14 292.13 308.17 292 308.21C291.89 308.24 291.77 308.27 291.66 308.3C291.56 308.33 291.47 308.36 291.37 308.39C291.08 308.48 290.79 308.58 290.51 308.69C290.23 308.8 289.95 308.91 289.67 309.04C289.58 309.08 289.48 309.12 289.39 309.17C289.08 309.32 288.77 309.48 288.47 309.65C288.07 309.88 287.68 310.13 287.3 310.39C287.2 310.46 287.11 310.52 287.02 310.59C286.6 310.9 286.2 311.23 285.81 311.58C285.68 311.7 285.56 311.82 285.43 311.94C285.35 312.02 285.26 312.1 285.18 312.19C282.68 314.76 281.09 318.25 281.09 322.14C281.09 323.57 281.33 324.99 281.76 326.35C281.83 326.58 281.91 326.8 281.99 327.03C282.03 327.14 282.07 327.25 282.12 327.36C282.16 327.47 282.21 327.58 282.25 327.69C282.34 327.91 282.44 328.12 282.54 328.33C282.59 328.44 282.64 328.54 282.7 328.65C282.76 328.76 282.81 328.86 282.87 328.97C282.98 329.18 283.1 329.38 283.21 329.58C283.51 330.08 283.84 330.57 284.2 331.02C284.41 331.29 284.63 331.55 284.85 331.8C285 331.97 285.15 332.13 285.31 332.29C285.73 332.71 286.15 333.13 286.63 333.5C286.75 333.59 286.87 333.68 287 333.77C287.07 333.82 287.14 333.86 287.21 333.91L281.93 331.44L280.66 330.6C276.43 328.48 273.05 323.41 273.05 317.91C273.05 309.88 279.82 303.53 287.85 303.53C290.39 303.53 292.92 304.38 295.04 305.65H295.47L295.64 305.74L300.96 308.61L300.99 308.6Z" fill="#B3B3B3"/>
<path d="M284.88 331.79C284.65 331.54 284.43 331.28 284.23 331.01C284.44 331.28 284.66 331.54 284.88 331.79Z" fill="#0500D4"/>
<path d="M286.66 333.5C286.18 333.13 285.76 332.71 285.34 332.29C285.18 332.13 285.03 331.97 284.88 331.8C285.03 331.97 285.19 332.13 285.34 332.28C285.76 332.7 286.19 333.13 286.66 333.5Z" fill="#0500D4"/>
<path d="M229.04 283.63C223.52 284.6 214.64 285.59 209 283.27C208.98 283.09 208.94 282.93 208.88 282.76C218.99 283.22 225.58 280.8 228.01 279.7C228.06 281.33 228.43 282.61 229.04 283.62V283.63Z" fill="#B3B3B3"/>
<path d="M236.22 287.02C232.5 291.09 224.81 297.44 213.5 296.77C213.5 296.75 213.5 296.73 213.5 296.71C222.18 296.69 228.52 290.2 231.7 286.03C233.06 286.7 234.65 286.97 236.22 287.02Z" fill="#B3B3B3"/>
<path d="M242.63 286.14C241.07 289.33 233.93 302.9 221.51 310.66C221.48 310.63 221.45 310.6 221.41 310.58C227.25 305.83 234.14 293.06 237.19 287.02C239.39 286.96 241.44 286.52 242.63 286.14Z" fill="#B3B3B3"/>
<path d="M264.99 296.14C264.92 296.14 264.85 296.14 264.77 296.15C260.4 285.72 252.94 284.05 252.94 284.05C252.94 284.05 258.46 295.28 255.78 310.06C255.72 310.06 255.66 310.05 255.61 310.05C255.85 292.68 250.94 294.03 248.62 284.82C248.58 291.54 246.58 303.35 239.59 314.73C239.55 314.71 239.51 314.7 239.47 314.68C245.73 298.29 243.74 288.3 243.12 285.99C243.15 285.98 243.19 285.96 243.22 285.95C246.4 284.69 258.49 281.68 263.06 286.22C263.24 286.4 263.41 286.59 263.57 286.8C263.51 286.99 263.45 287.17 263.39 287.35C262.67 289.7 262.42 292.02 263.99 293.99C264.25 293.94 264.49 293.95 264.74 294C264.84 294.68 264.92 295.4 264.99 296.14Z" fill="#B3B3B3"/>
<path d="M273.28 253.38C272.86 252.53 272.01 251.27 271.59 250C271 248.83 270.83 246.24 270.91 243.77C268.32 243.12 265.59 242.31 262.8 241.34C257.85 239.69 251.75 238.51 248.1 236.57C247.2 236.09 246.39 235.6 245.66 235.1C245.56 235.13 245.45 235.15 245.35 235.18C245.25 235.21 245.14 235.24 245.04 235.27C244.94 235.3 244.83 235.34 244.73 235.37C244.63 235.4 244.52 235.44 244.42 235.48C244.34 235.51 244.27 235.54 244.19 235.57C244.11 235.6 244.04 235.63 243.96 235.67C243.81 235.74 243.65 235.81 243.5 235.88C243.4 235.93 243.29 235.98 243.19 236.04C243.04 236.12 242.88 236.2 242.73 236.29C242.68 236.32 242.63 236.35 242.57 236.38C242.48 236.43 242.4 236.48 242.31 236.54C242.19 236.62 242.07 236.7 241.94 236.78C241.84 236.85 241.73 236.92 241.62 237C241.54 237.05 241.45 237.11 241.37 237.17C241.35 237.18 241.33 237.2 241.3 237.22C241.2 237.3 241.09 237.38 240.98 237.46C240.8 237.6 240.63 237.74 240.44 237.89C240.39 237.93 240.34 237.97 240.3 238.01C240.27 238.04 240.23 238.06 240.2 238.09C240.12 238.16 240.04 238.22 239.96 238.3C239.73 238.5 239.5 238.7 239.26 238.92C238.9 239.24 238.54 239.6 238.16 239.97C238.04 240.09 237.91 240.22 237.79 240.34C237.66 240.48 237.52 240.61 237.39 240.75C237.26 240.89 237.12 241.03 236.99 241.17C236.78 241.39 236.56 241.63 236.34 241.87C236.22 242.01 236.09 242.14 235.96 242.28C235.45 242.83 234.93 243.43 234.37 244.06C234.32 244.16 234.26 244.28 234.19 244.4C233.74 245.23 233.01 246.4 232.25 247.87C226.28 259.51 235.73 262.25 230.94 268.45C228.8 273.2 227.96 276.79 227.98 279.47C227.98 279.55 227.98 279.62 227.98 279.69C228.03 281.32 228.4 282.6 229.01 283.61C229.66 284.71 230.59 285.48 231.67 286.01C233.03 286.68 234.62 286.95 236.19 287C236.52 287.01 236.85 287.01 237.17 287C239.37 286.94 241.42 286.5 242.61 286.12C242.79 286.06 242.95 286.01 243.09 285.96C243.12 285.95 243.16 285.93 243.19 285.92C246.37 284.66 258.46 281.65 263.03 286.19C263.21 286.37 263.38 286.56 263.54 286.77C264.24 285.59 265.2 284.74 266.46 284.35C267.32 284.08 268.32 284.03 269.46 284.23C269.04 283.81 268.61 283.38 268.61 282.96C267.76 281.69 267.76 280.42 267.34 279.58C266.92 273.66 268.18 268.16 271.14 263.09C271.56 262.24 272.41 261.4 272.83 260.55C274.1 258.44 274.1 255.9 273.25 253.36L273.28 253.38ZM235.01 245.26C235.01 245.26 235.24 245.41 235.65 245.64C236.37 246.1 237.64 246.81 239.12 247.45C240.85 248.16 242.87 248.77 244.53 248.55C242.24 251.84 239.53 252.48 235.01 250.64C230.52 248.83 235.01 245.26 235.01 245.26ZM233.51 266.24C233.51 266.24 233.77 272.87 248.23 270.39C235.5 276.03 233.18 273.04 233.51 266.24ZM247.2 249.93C242.88 253.44 240.32 258.4 237.06 262.76C236.96 264.74 240.28 265.84 242.69 266.01L242.67 266.47C240.31 266.32 236.23 266.57 235.64 262.49V262.37L235.76 262.2L235.79 262.15C239.36 257.87 242.19 252.92 246.72 249.62C249.15 247.21 247.18 244.91 244.45 244.78C241.9 244.1 239.08 243.97 236.34 244.03L236.29 243.58C239.06 243.15 241.86 242.86 244.78 243.23C248.27 243 250.22 248.24 247.2 249.93ZM252.75 258.1C246.95 257.23 251.24 251.75 251.24 251.75C251.24 251.75 251.74 251.95 252.57 252.18C253.51 252.46 254.88 252.83 256.41 253.12C258.73 253.51 261.38 253.69 263.35 252.95C261.56 257.49 258.55 258.97 252.75 258.1ZM251.89 247.19C250.15 244.68 253.29 245.63 253.29 245.63C253.29 245.63 256.34 249.89 267.45 248.45C260.88 251.21 255.66 251.43 251.9 247.19H251.89Z" fill="#E6E6E6"/>
<path d="M248.23 270.39C235.5 276.03 233.18 273.04 233.51 266.24C233.51 266.24 233.77 272.87 248.23 270.39Z" fill="#FFD6A1"/>
<path d="M244.53 248.55C242.24 251.84 239.53 252.48 235.01 250.64C230.52 248.83 235.01 245.26 235.01 245.26C235.01 245.26 235.24 245.41 235.65 245.64C236.37 246.1 237.64 246.81 239.12 247.45C240.85 248.16 242.87 248.77 244.53 248.55Z" fill="#FFD6A1"/>
<path d="M247.2 249.93C242.88 253.44 240.32 258.4 237.06 262.76C236.96 264.74 240.28 265.84 242.69 266.01L242.67 266.47C240.31 266.32 236.23 266.57 235.64 262.49V262.37L235.76 262.2L235.79 262.15C239.36 257.87 242.19 252.92 246.72 249.62C249.15 247.21 247.18 244.91 244.45 244.78C241.9 244.1 239.08 243.97 236.34 244.03L236.29 243.58C239.06 243.15 241.86 242.86 244.78 243.23C248.27 243 250.22 248.24 247.2 249.93Z" fill="#FFD6A1"/>
<path d="M263.36 252.96C261.57 257.5 258.56 258.98 252.76 258.11C246.96 257.24 251.25 251.76 251.25 251.76C251.25 251.76 251.75 251.96 252.58 252.19C253.52 252.47 254.89 252.84 256.42 253.13C258.74 253.52 261.39 253.7 263.36 252.96Z" fill="#FFD6A1"/>
<path d="M245.66 235.09C245.56 235.12 245.45 235.14 245.35 235.17C245.25 235.2 245.14 235.23 245.04 235.26C244.94 235.29 244.83 235.33 244.73 235.36C244.63 235.39 244.52 235.43 244.42 235.47C244.34 235.5 244.27 235.53 244.19 235.56C244.11 235.59 244.04 235.62 243.96 235.66C243.81 235.72 243.65 235.8 243.5 235.87C243.4 235.92 243.29 235.97 243.19 236.03C243.04 236.11 242.88 236.19 242.73 236.28C242.68 236.31 242.63 236.34 242.57 236.37C242.48 236.42 242.4 236.47 242.31 236.53C242.19 236.61 242.07 236.69 241.94 236.77C241.84 236.84 241.73 236.91 241.62 236.99C241.54 237.04 241.45 237.1 241.37 237.16C241.35 237.17 241.33 237.19 241.3 237.21C241.2 237.29 241.09 237.37 240.98 237.45C240.8 237.59 240.63 237.73 240.44 237.88C240.39 237.92 240.34 237.96 240.3 238C240.27 238.03 240.23 238.05 240.2 238.08C240.12 238.15 240.04 238.21 239.96 238.29C239.73 238.48 239.5 238.69 239.26 238.91C238.9 239.23 238.54 239.59 238.16 239.96C238.04 240.08 237.91 240.2 237.79 240.33C237.66 240.47 237.52 240.6 237.39 240.74C237.26 240.88 237.12 241.02 236.99 241.16C236.78 241.38 236.56 241.62 236.34 241.86C236.22 241.99 236.09 242.13 235.96 242.27C235.45 242.82 234.93 243.42 234.37 244.05C234.32 244.15 234.26 244.27 234.19 244.39C233.73 245.22 232.99 246.38 232.25 247.86C231.4 246.17 230.56 244.48 230.56 243.21C230.14 241.09 230.14 239.4 230.56 237.29C230.56 236.44 230.56 236.02 230.98 235.18C231.4 234.33 232.25 233.91 233.09 233.06C234.36 231.79 235.21 230.52 236.9 229.26C237.77 228.39 239.04 227.72 240.3 227.66C240.4 229.92 242.09 232.63 245.64 235.08L245.66 235.09Z" fill="#333333"/>
<path d="M298.08 305.54C297.25 306.03 296.44 305.97 295.63 305.66C293.93 305.01 292.21 303.28 290.21 303.28C287.25 303.28 284.71 299.47 281.33 300.32C280.06 300.74 278.79 302.44 277.1 302.44C275.41 302.02 274.65 302.23 274.22 300.95C273.8 299.26 272.81 298.13 270.33 297.69C268.15 297.3 266.53 294.4 264.74 294C264.5 293.94 264.25 293.93 263.99 293.99C262.42 292.03 262.67 289.7 263.39 287.35C263.45 287.16 263.51 286.98 263.57 286.8C264.27 285.62 265.23 284.77 266.49 284.38C267.35 284.11 268.35 284.06 269.49 284.26C269.07 283.84 268.64 283.41 268.64 282.99C267.79 281.72 267.79 280.45 267.37 279.61C266.95 273.69 268.21 268.19 271.17 263.12C271.59 262.27 272.44 261.43 272.86 260.58C274.13 258.47 274.13 255.93 273.28 253.39C272.86 252.54 272.01 251.28 271.59 250.01C271 248.84 270.83 246.25 270.91 243.78C279.85 246.02 287.12 246.27 289.71 243.94C291.69 243.75 293.31 243.74 294 244.09C296.12 245.36 297.81 247.9 296.54 250.44C295.7 252.13 293.58 253.82 294.85 255.51C295.27 256.36 296.54 256.36 297.39 257.2C298.66 258.47 297.81 260.58 296.54 261.85C295.7 263.54 294.43 265.23 294.85 266.93C295.7 267.77 296.54 268.2 297.39 269.04C299.93 272 296.54 276.65 297.39 280.04C297.39 281.73 298.66 283 298.66 284.27C298.66 286.39 297.39 287.65 296.54 289.34C298.7 291.84 302.44 302.97 298.08 305.55V305.54Z" fill="#333333"/>
<path d="M248.23 270.39C235.5 276.03 233.18 273.04 233.51 266.24C233.51 266.24 233.77 272.87 248.23 270.39Z" fill="black"/>
<path d="M247.2 249.93C242.88 253.44 240.32 258.4 237.06 262.76C236.96 264.74 240.28 265.84 242.69 266.01L242.67 266.47C240.31 266.32 236.23 266.57 235.64 262.49V262.37L235.76 262.2L235.79 262.15C239.36 257.87 242.19 252.92 246.72 249.62C249.15 247.21 247.18 244.91 244.45 244.78C241.9 244.1 239.08 243.97 236.34 244.03L236.29 243.58C239.06 243.15 241.86 242.86 244.78 243.23C248.27 243 250.22 248.24 247.2 249.93Z" fill="black"/>
<path d="M244.53 248.55C242.24 251.84 239.53 252.48 235.01 250.64C230.52 248.83 235.01 245.26 235.01 245.26C235.01 245.26 235.24 245.41 235.65 245.64C236.37 246.1 237.64 246.81 239.12 247.45C240.85 248.16 242.87 248.77 244.53 248.55Z" fill="#E6E6E6"/>
<path d="M239.12 247.46V247.48C239.12 248.71 238.12 249.7 236.9 249.7C235.68 249.7 234.68 248.71 234.68 247.48C234.68 246.72 235.07 246.05 235.65 245.64C236.37 246.1 237.64 246.81 239.12 247.45V247.46Z" fill="black"/>
<path d="M263.36 252.96C261.57 257.5 258.56 258.98 252.76 258.11C246.96 257.24 251.25 251.76 251.25 251.76C251.25 251.76 251.75 251.96 252.58 252.19C253.52 252.47 254.89 252.84 256.42 253.13C258.74 253.52 261.39 253.7 263.36 252.96Z" fill="#E6E6E6"/>
<path d="M254.74 256.1C253.5 256.38 252.25 255.62 251.95 254.38C251.78 253.57 252.02 252.74 252.58 252.2C253.52 252.48 254.89 252.85 256.42 253.14C256.44 253.18 256.44 253.25 256.46 253.29C256.77 254.56 256 255.8 254.74 256.1Z" fill="black"/>
<path d="M294.63 230.72L294.57 230.89C294.57 230.89 294.57 230.91 294.56 230.92C294.54 230.97 294.51 231.02 294.49 231.07C294.47 231.1 294.46 231.14 294.44 231.18C294.41 231.23 294.38 231.28 294.36 231.33C294.33 231.39 294.29 231.44 294.26 231.5C294.01 231.87 293.69 232.2 293.28 232.5C293.23 232.54 293.18 232.58 293.12 232.61C293.04 232.66 292.96 232.71 292.88 232.76C292.71 232.87 292.52 232.97 292.33 233.06C292.26 233.09 292.19 233.13 292.12 233.16C292.05 233.19 291.97 233.23 291.9 233.26C291.75 233.32 291.59 233.38 291.43 233.44C291.36 233.47 291.28 233.49 291.21 233.52C291.07 233.57 290.92 233.61 290.76 233.66C290.66 233.69 290.55 233.72 290.44 233.75C290.33 233.78 290.22 233.8 290.11 233.83C290.02 233.85 289.92 233.87 289.82 233.89C289.73 233.91 289.64 233.93 289.55 233.94C289.36 233.98 289.16 234.01 288.96 234.04C288.84 234.06 288.72 234.07 288.59 234.09C288.48 234.1 288.38 234.12 288.27 234.13C288.18 234.14 288.1 234.15 288.01 234.16C287.85 234.17 287.68 234.19 287.51 234.2C287.22 234.22 286.92 234.24 286.62 234.25C286.46 234.25 286.3 234.26 286.14 234.26C286.05 234.26 285.96 234.26 285.86 234.26C285.74 234.26 285.62 234.26 285.49 234.26C285.39 234.26 285.3 234.26 285.21 234.26C285.09 234.26 284.97 234.26 284.85 234.24C284.59 234.23 284.33 234.2 284.06 234.17C283.96 234.16 283.86 234.15 283.76 234.13C282.34 233.94 280.79 233.53 279.16 232.99C279.02 232.95 278.88 232.9 278.75 232.85C277.42 232.4 276.03 231.87 274.61 231.31C272.29 230.39 269.87 229.38 267.46 228.47C267 228.3 266.54 228.13 266.09 227.97C265.38 227.73 264.68 227.52 264.01 227.32C260.94 226.41 258.23 225.83 255.82 225.09C253.81 224.47 252 223.74 250.38 222.61C250.25 222.52 250.12 222.43 250 222.33C249.78 222.17 249.56 222.01 249.35 221.85C249.21 221.75 249.08 221.64 248.94 221.54C248.85 221.48 248.77 221.41 248.69 221.34C248.52 221.21 248.36 221.08 248.21 220.95C248.13 220.89 248.05 220.82 247.98 220.75C247.48 220.33 247.02 219.9 246.6 219.48C246.52 219.4 246.45 219.32 246.37 219.25C246.35 219.23 246.34 219.22 246.32 219.2C246.24 219.1 246.16 219.01 246.08 218.93C246 218.84 245.92 218.75 245.85 218.65C245.79 218.58 245.73 218.51 245.68 218.44C245.52 218.24 245.38 218.05 245.24 217.85C245.19 217.78 245.14 217.71 245.1 217.64C245.04 217.55 244.99 217.47 244.94 217.38C244.91 217.32 244.87 217.27 244.84 217.21C244.66 216.89 244.52 216.58 244.41 216.27C244.4 216.23 244.38 216.18 244.37 216.14C244.36 216.09 244.34 216.05 244.33 216C244.33 215.99 244.33 215.97 244.32 215.95C244.3 215.88 244.29 215.82 244.27 215.75C244.27 215.73 244.27 215.72 244.26 215.7C244.24 215.62 244.23 215.54 244.22 215.47C244.21 215.39 244.2 215.32 244.19 215.25C244.19 215.24 244.19 215.22 244.19 215.21C244.19 215.13 244.19 215.05 244.19 214.97L244.45 213.96C245.04 212.07 248.62 208.55 252.03 208.13C252.48 208.07 252.95 208.05 253.42 208.05C252.4 210.19 251.24 212.21 250.09 214C250.79 215.63 252.89 218.96 258.89 221.24C260.06 221.69 261.38 222.09 262.86 222.44C264.01 222.71 265.07 222.97 266.07 223.23C266.95 223.46 267.76 223.68 268.53 223.9C273.18 225.22 275.81 226.32 277.13 226.95C277.91 227.32 278.22 227.54 278.22 227.54C278.22 227.54 282.49 229.87 287.36 228.63C286.97 225.55 286.77 221.92 287.17 218.38C288.39 218.97 289.48 219.66 290.45 220.52C293.35 223.12 295.32 228.67 294.67 230.71L294.63 230.72Z" fill="black"/>
<path d="M329.29 218.99C328.64 219.07 328.02 219.29 327.46 219.64C322.93 212.96 312.34 200.32 298.69 203.51C290.81 205.35 287.9 211.72 287.13 218.39C286.72 221.93 286.92 225.56 287.32 228.64C282.45 229.88 278.18 227.55 278.18 227.55C278.18 227.55 277.86 227.34 277.09 226.96C278.69 224.05 280.55 220.53 282.44 216.65C286.04 209.28 289.76 200.63 291.98 192.53C294.54 191.86 297.34 191.6 300.41 191.88C321.91 193.81 327.73 210.71 329.29 218.99Z" fill="#333333"/>
<path d="M333.75 225.94C332.41 228.09 329.59 228.74 327.45 227.41C325.3 226.08 324.64 223.26 325.98 221.11C326.37 220.49 326.88 219.99 327.47 219.63C328.03 219.28 328.66 219.06 329.3 218.98C330.31 218.86 331.36 219.06 332.28 219.63C334.43 220.97 335.08 223.78 333.75 225.93V225.94Z" fill="#333333"/>
<path d="M272.02 202.12C270.08 205.37 268.01 208.54 266 211.45C263.35 215.3 260.8 218.71 258.84 221.25C252.84 218.96 250.74 215.64 250.04 214.01C251.19 212.22 252.35 210.21 253.37 208.06C256.84 200.75 258.55 191.96 252.05 185.46C242.38 175.78 229.32 180.68 222.89 184.09C222.66 183.7 222.37 183.35 222.03 183.05C227.66 177.63 240.85 168.57 259.76 178.1C270.25 183.39 272.74 192.82 272.01 202.12H272.02Z" fill="#333333"/>
<path d="M291.97 192.53C289.75 200.63 286.04 209.27 282.43 216.65C280.54 220.53 278.67 224.05 277.08 226.96C275.76 226.32 273.13 225.22 268.48 223.91C267.71 223.69 266.9 223.47 266.02 223.24C265.03 222.99 263.96 222.72 262.81 222.45C261.33 222.11 260.01 221.7 258.84 221.25C260.8 218.71 263.34 215.3 266 211.45C268.01 208.54 270.08 205.37 272.02 202.12C278.66 190.98 283.71 178.94 279.02 173.22C272.41 165.15 263.7 166.89 258.61 168.96C258.53 168.66 258.41 168.37 258.27 168.11C264.31 164.04 276.56 158.3 289.01 167.36C295.22 171.87 294.93 181.71 291.96 192.53H291.97Z" fill="#B3B3B3"/>
<path d="M258.78 170.14C258.78 172.56 256.82 174.52 254.4 174.52C251.98 174.52 250.02 172.56 250.02 170.14C250.02 167.72 251.98 165.76 254.4 165.76C256.08 165.76 257.55 166.71 258.28 168.1C258.42 168.37 258.54 168.66 258.62 168.95C258.73 169.33 258.78 169.72 258.78 170.13V170.14Z" fill="#B3B3B3"/>
<path d="M223.56 186.45C223.56 188.98 221.51 191.03 218.98 191.03C216.45 191.03 214.4 188.98 214.4 186.45C214.4 183.92 216.45 181.88 218.98 181.88C220.15 181.88 221.22 182.32 222.03 183.05C222.37 183.35 222.66 183.7 222.89 184.09C223.31 184.78 223.55 185.59 223.55 186.46L223.56 186.45Z" fill="#333333"/>
<path d="M294.56 230.92C294.54 230.97 294.51 231.02 294.49 231.07C294.47 231.1 294.46 231.14 294.44 231.18C294.41 231.23 294.38 231.28 294.36 231.33C294.33 231.39 294.29 231.44 294.26 231.5C294.01 231.87 293.69 232.2 293.28 232.5C293.23 232.54 293.18 232.58 293.12 232.61C293.04 232.66 292.96 232.71 292.88 232.76C292.71 232.87 292.52 232.97 292.33 233.06C292.26 233.1 292.19 233.13 292.12 233.16C292.05 233.19 291.97 233.23 291.9 233.26C291.75 233.32 291.59 233.38 291.43 233.44C291.36 233.47 291.29 233.49 291.21 233.52C291.07 233.57 290.92 233.61 290.76 233.66C290.66 233.69 290.55 233.72 290.44 233.75C290.33 233.78 290.22 233.8 290.11 233.83C290.02 233.85 289.92 233.87 289.82 233.89C289.73 233.91 289.64 233.93 289.55 233.94C289.36 233.98 289.16 234.01 288.96 234.04C288.84 234.06 288.72 234.07 288.59 234.09C288.48 234.1 288.38 234.12 288.27 234.13C288.18 234.14 288.1 234.15 288.01 234.16C287.85 234.17 287.68 234.19 287.51 234.2C287.22 234.22 286.92 234.24 286.62 234.25C286.46 234.25 286.3 234.26 286.14 234.26C286.05 234.26 285.96 234.26 285.86 234.26C285.74 234.26 285.62 234.26 285.49 234.26C285.39 234.26 285.3 234.26 285.21 234.26C285.09 234.26 284.97 234.26 284.85 234.24C284.59 234.23 284.33 234.2 284.06 234.17C283.96 234.16 283.86 234.15 283.76 234.13C282.34 233.94 280.79 233.53 279.16 232.99C279.02 232.95 278.88 232.9 278.75 232.85C277.42 232.4 276.03 231.87 274.61 231.31C272.29 230.39 269.87 229.38 267.46 228.47C267 228.3 266.54 228.13 266.09 227.97C265.38 227.73 264.68 227.52 264.01 227.32C260.94 226.41 258.23 225.83 255.82 225.09C253.81 224.47 252 223.74 250.38 222.61C250.25 222.52 250.12 222.43 250 222.33C249.78 222.17 249.56 222.01 249.35 221.85C249.21 221.75 249.08 221.64 248.94 221.54C248.85 221.48 248.77 221.41 248.69 221.34C248.52 221.21 248.36 221.08 248.21 220.95C248.13 220.89 248.05 220.82 247.98 220.75C247.48 220.33 247.02 219.9 246.6 219.48C246.52 219.4 246.45 219.32 246.37 219.25C246.35 219.23 246.34 219.22 246.32 219.2C246.24 219.1 246.16 219.01 246.08 218.93C246 218.84 245.92 218.75 245.85 218.65C245.79 218.58 245.73 218.51 245.68 218.44C245.52 218.24 245.38 218.05 245.24 217.85C245.19 217.78 245.14 217.71 245.1 217.64C245.04 217.55 244.99 217.47 244.94 217.38C244.91 217.32 244.87 217.27 244.84 217.21C244.66 216.89 244.52 216.58 244.41 216.27C244.4 216.23 244.38 216.18 244.37 216.14C244.36 216.09 244.34 216.05 244.33 216C244.33 215.99 244.33 215.97 244.32 215.95C244.3 215.88 244.29 215.82 244.27 215.75C244.27 215.73 244.27 215.72 244.26 215.7C244.24 215.62 244.23 215.54 244.22 215.47C244.21 215.39 244.2 215.32 244.19 215.25C244.19 215.24 244.19 215.22 244.19 215.21C244.19 215.13 244.19 215.05 244.19 214.97L240.64 225.88C240.43 226.43 240.33 227.02 240.36 227.66C240.46 229.92 242.15 232.63 245.7 235.08C246.43 235.58 247.25 236.08 248.14 236.55C251.79 238.49 257.88 239.67 262.84 241.32C265.63 242.28 268.36 243.1 270.95 243.75C279.89 245.99 287.16 246.24 289.75 243.91C290.16 243.54 290.45 243.12 290.61 242.62L290.86 241.61L294.61 230.87C294.61 230.87 294.61 230.89 294.6 230.9L294.56 230.92ZM249.82 228.41C249.26 229.3 248.46 229.94 247.54 230.28C246.26 230.76 244.77 230.67 243.52 229.89C242.73 229.4 242.14 228.7 241.78 227.91C241.16 226.56 241.21 224.94 242.05 223.58C242.57 222.74 243.32 222.13 244.17 221.78C245.49 221.23 247.05 221.3 248.35 222.11C249.09 222.57 249.65 223.21 250.02 223.94C250.72 225.32 250.7 227.01 249.82 228.42V228.41ZM258.97 234.96C258.58 235.59 258.05 236.1 257.46 236.46C256.03 237.33 254.19 237.38 252.67 236.43C252.04 236.04 251.54 235.52 251.18 234.93C250.31 233.5 250.26 231.65 251.2 230.13C252.53 227.99 255.35 227.33 257.5 228.66C259.65 229.99 260.3 232.81 258.97 234.96ZM269.64 238.12C269.25 238.75 268.74 239.24 268.15 239.6C266.72 240.48 264.86 240.53 263.34 239.59C262.53 239.09 261.94 238.38 261.58 237.57C260.98 236.23 261.04 234.63 261.87 233.29C262.58 232.15 263.7 231.43 264.92 231.21C265.59 231.09 266.3 231.11 266.97 231.3C267.38 231.41 267.78 231.58 268.17 231.82C268.7 232.15 269.14 232.57 269.48 233.05C269.67 233.31 269.83 233.59 269.95 233.88C270.53 235.21 270.47 236.79 269.64 238.12ZM279.9 242.1C279.43 242.85 278.78 243.42 278.03 243.79C276.66 244.47 274.98 244.44 273.59 243.57C272.55 242.92 271.86 241.93 271.58 240.83C271.28 239.66 271.44 238.37 272.12 237.27C273.46 235.13 276.28 234.47 278.42 235.8C280.57 237.13 281.23 239.95 279.89 242.1H279.9ZM290.42 241.65C289.08 243.8 286.27 244.45 284.12 243.12C281.97 241.78 281.32 238.97 282.65 236.82C282.93 236.38 283.26 236 283.64 235.69C284.99 234.59 286.88 234.33 288.5 235.11C288.65 235.18 288.8 235.26 288.95 235.35C291.1 236.69 291.75 239.5 290.42 241.65Z" fill="#B3B3B3"/>
<path d="M249.82 228.41C249.26 229.3 248.46 229.94 247.54 230.28C246.26 230.76 244.77 230.67 243.52 229.89C242.73 229.4 242.14 228.7 241.78 227.91C241.16 226.56 241.21 224.94 242.05 223.58C242.57 222.74 243.32 222.13 244.17 221.78C245.49 221.23 247.05 221.3 248.35 222.11C249.09 222.57 249.65 223.21 250.02 223.94C250.72 225.32 250.7 227.01 249.82 228.42V228.41Z" fill="#333333"/>
<path d="M258.97 234.97C258.58 235.6 258.05 236.11 257.46 236.47C256.03 237.34 254.19 237.39 252.67 236.44C252.04 236.05 251.54 235.53 251.18 234.94C250.31 233.51 250.26 231.66 251.2 230.14C252.53 228 255.35 227.34 257.5 228.67C259.65 230 260.3 232.82 258.97 234.97Z" fill="#333333"/>
<path d="M269.64 238.12C269.25 238.75 268.74 239.24 268.15 239.6C266.72 240.48 264.86 240.53 263.34 239.59C262.53 239.09 261.94 238.38 261.58 237.57C260.98 236.23 261.04 234.63 261.87 233.29C262.58 232.15 263.7 231.43 264.92 231.21C265.59 231.09 266.3 231.11 266.97 231.3C267.38 231.41 267.78 231.58 268.17 231.82C268.7 232.15 269.14 232.57 269.48 233.05C269.67 233.31 269.83 233.59 269.95 233.88C270.53 235.21 270.47 236.79 269.64 238.12Z" fill="#333333"/>
<path d="M279.9 242.1C279.43 242.85 278.78 243.42 278.03 243.79C276.66 244.47 274.98 244.44 273.59 243.57C272.55 242.92 271.86 241.93 271.58 240.83C271.28 239.66 271.44 238.37 272.12 237.27C273.46 235.13 276.28 234.47 278.42 235.8C280.57 237.13 281.23 239.95 279.89 242.1H279.9Z" fill="#333333"/>
<path d="M290.42 241.65C289.08 243.8 286.27 244.45 284.12 243.12C281.97 241.78 281.32 238.97 282.65 236.82C282.93 236.38 283.26 236 283.64 235.69C284.99 234.59 286.88 234.33 288.5 235.11C288.65 235.18 288.8 235.26 288.95 235.35C291.1 236.69 291.75 239.5 290.42 241.65Z" fill="#333333"/>
<path d="M295.02 460.93C294.93 460.91 294.84 460.9 294.75 460.89C294.46 432.39 283.41 410.97 260.15 395.74C258.54 391.77 256.95 389.03 255.82 387.35C254.86 385.91 254.23 385.25 254.23 385.25C255.15 385.36 255.8 385.37 256.08 385.25C268.65 391.67 300.27 412.65 295.02 460.93Z" fill="#B3B3B3"/>
<path d="M260.16 395.74C258.55 391.77 256.96 389.03 255.83 387.35C254.87 385.91 254.24 385.25 254.24 385.25C253.52 385.16 252.63 385.01 251.64 384.8C249.69 384.4 247.33 383.8 244.97 383.09C243.41 382.63 241.86 382.12 240.44 381.59C241.04 382.28 241.97 383.38 243.11 384.88C243.88 385.89 244.76 387.09 245.7 388.47C249.16 393.54 253.54 401.04 257.26 410.86C261.43 421.86 264.76 435.77 265.05 452.38C265.14 452.38 265.24 452.4 265.33 452.42C268.4 423.72 264.24 405.78 260.18 395.73L260.16 395.74Z" fill="#333333"/>
<path d="M245.78 429.87C244.78 436.92 243.11 443.92 240.46 450.29C240.31 450.23 240.16 450.19 240.01 450.15C241.05 444.05 241.43 437.86 241.36 431.81C241.15 413.52 236.78 396.39 233.52 386.09C232.87 384.04 232.26 382.25 231.74 380.79C231.28 379.48 230.88 378.42 230.58 377.65C232.74 378.41 234.6 379.18 236.3 379.9C236.97 380.19 237.62 380.47 238.25 380.74C238.92 381.03 239.65 381.32 240.42 381.6C241.02 382.29 241.95 383.39 243.09 384.89C243.86 385.9 244.74 387.1 245.68 388.48C246.83 398.02 248.01 414.05 245.78 429.87Z" fill="#B3B3B3"/>
<path d="M224.01 375.65C224.01 375.65 223.92 375.67 223.88 375.68C223.88 375.66 223.89 375.64 223.9 375.62C223.94 375.63 223.98 375.64 224.02 375.65H224.01Z" fill="#FC0000"/>
<path d="M206.35 372.2C204.91 372.76 203.17 373.5 201.23 374.45C200.74 374.69 200.23 374.95 199.72 375.22C184.4 376.34 158.31 380.8 147.94 402.28C147.83 402.26 147.73 402.25 147.62 402.24C153.86 381.73 170.55 374.5 184.78 372.22C194.17 370.72 202.48 371.37 206.02 371.78C206.13 371.92 206.24 372.06 206.36 372.2H206.35Z" fill="#B3B3B3"/>
<path d="M206.64 372.55C206.54 372.43 206.45 372.32 206.35 372.2C206.24 372.06 206.12 371.92 206.01 371.78L206.35 372.2L206.64 372.55Z" fill="#FC0000"/>
<path d="M233.52 386.08C229.92 394.62 224.57 409.32 220.93 428.48C219.93 433.76 219.05 439.39 218.38 445.32C218.21 446.84 218.05 448.39 217.9 449.96C217.83 449.96 217.77 449.96 217.7 449.96C217.59 449.96 217.47 449.96 217.36 449.97C217.18 448.75 217.02 447.53 216.87 446.32C216.07 439.61 215.81 432.96 215.91 426.58C216.25 405.96 220.4 388.09 222.66 379.81C222.78 379.39 222.89 379 222.99 378.63C223.36 377.32 223.66 376.34 223.85 375.71C223.9 375.7 223.94 375.69 223.98 375.68C225.03 375.95 226.02 376.22 226.96 376.5C228.25 376.88 229.44 377.27 230.56 377.67C230.86 378.44 231.25 379.5 231.72 380.81C232.24 382.28 232.84 384.06 233.5 386.11L233.52 386.08Z" fill="#333333"/>
<path d="M224.01 375.65C224.01 375.65 223.92 375.67 223.88 375.68C223.88 375.66 223.89 375.64 223.9 375.62C223.94 375.63 223.98 375.64 224.02 375.65H224.01Z" fill="#FC0000"/>
<path d="M223.89 375.62C223.89 375.62 223.88 375.66 223.87 375.68C223.67 376.31 223.37 377.3 223.01 378.6C222.91 378.97 222.8 379.36 222.68 379.78C216.6 385.42 205.74 398.24 198.85 418.43C197.4 422.68 196.12 427.26 195.11 432.16C194.96 432.15 194.81 432.14 194.66 432.14C194.7 426.77 195.14 421.65 195.87 416.85C198.31 400.78 203.95 388.15 208.45 380.57C209.49 378.83 210.46 377.35 211.32 376.16C212.12 375.06 212.82 374.21 213.38 373.62C217.45 374.18 220.9 374.87 223.88 375.62H223.89Z" fill="#B3B3B3"/>
<path d="M213.38 373.62C212.82 374.21 212.12 375.07 211.32 376.16C210.46 377.35 209.48 378.82 208.45 380.57C197.76 384.93 184.19 392.57 173.76 405.51C171.84 407.89 170.03 410.45 168.36 413.21C168.23 413.15 168.09 413.09 167.95 413.04C168.82 410.44 169.79 408 170.85 405.7C178.54 389.02 190.81 379.92 199.71 375.22C200.23 374.95 200.73 374.69 201.22 374.45C203.16 373.49 204.9 372.75 206.34 372.2C206.44 372.32 206.53 372.43 206.63 372.55L206.7 372.64C206.7 372.64 207.07 372.81 208.28 373.03C208.62 373.06 208.95 373.1 209.28 373.13C210.71 373.28 212.07 373.45 213.37 373.63L213.38 373.62Z" fill="#333333"/>
<path d="M206.64 372.55C206.54 372.43 206.45 372.32 206.35 372.2L206.64 372.55Z" fill="#FC0000"/>
<path d="M224.01 375.65C224.01 375.65 223.92 375.67 223.88 375.68C223.88 375.66 223.89 375.64 223.9 375.62C223.94 375.63 223.98 375.64 224.02 375.65H224.01Z" fill="#FC0000"/>
<path d="M256.08 385.25C255.8 385.37 255.15 385.36 254.23 385.25C253.51 385.16 252.62 385.01 251.63 384.8C249.68 384.4 247.32 383.8 244.96 383.09C243.4 382.63 241.85 382.12 240.43 381.59C239.66 381.31 238.93 381.02 238.26 380.73C237.63 380.46 236.99 380.18 236.31 379.89C234.62 379.17 232.75 378.4 230.59 377.64C229.47 377.25 228.28 376.85 226.99 376.47C226.05 376.19 225.06 375.91 224.01 375.65C223.97 375.65 223.93 375.63 223.89 375.62C220.91 374.87 217.45 374.18 213.39 373.62C212.09 373.44 210.73 373.27 209.3 373.12C208.97 373.09 208.64 373.05 208.3 373.02C207.09 372.81 206.72 372.63 206.72 372.63L206.65 372.54L206.36 372.19L206.02 371.77L205.82 371.52C205.82 371.52 206.58 371.52 207.96 371.6C209.77 371.7 212.65 371.91 216.25 372.37C226.45 373.68 242.39 376.97 256.1 385.23L256.08 385.25Z" fill="#666666"/>
<path d="M407.49 337.92C407.49 339.69 406.05 341.13 404.28 341.13C402.51 341.13 401.07 339.69 401.07 337.92C401.07 336.48 402.02 335.27 403.32 334.86C403.47 334.81 403.62 334.78 403.77 334.75C403.94 334.72 404.11 334.71 404.28 334.71C406.05 334.71 407.49 336.15 407.49 337.92Z" fill="#333333"/>
<path d="M375.67 302.93C375.67 303.37 375.58 303.79 375.42 304.17C375.39 304.25 375.35 304.33 375.31 304.4C374.77 305.43 373.7 306.14 372.46 306.14C370.69 306.14 369.25 304.7 369.25 302.93C369.25 301.16 370.69 299.72 372.46 299.72C374.23 299.72 375.67 301.16 375.67 302.93Z" fill="#333333"/>
<path d="M130.53 249.86C130.53 251.63 129.09 253.07 127.32 253.07C126.68 253.07 126.08 252.88 125.58 252.56C125.52 252.52 125.45 252.47 125.39 252.43C124.61 251.84 124.11 250.91 124.11 249.86C124.11 248.09 125.55 246.65 127.32 246.65C129.09 246.65 130.53 248.09 130.53 249.86Z" fill="#333333"/>
<path d="M99.7799 286.49C99.7799 288.26 98.3399 289.7 96.5699 289.7C94.7999 289.7 93.3599 288.26 93.3599 286.49C93.3599 284.72 94.7999 283.28 96.5699 283.28C96.6199 283.28 96.6699 283.28 96.7099 283.28C96.8499 283.28 96.9899 283.3 97.1299 283.33C98.6399 283.59 99.7799 284.91 99.7799 286.49Z" fill="#333333"/>
<path d="M197.56 305.81C197.56 306.63 197.49 307.43 197.36 308.21C196.85 311.27 195.39 313.99 193.28 316.07H193.27C192.49 316.86 191.62 317.56 190.67 318.13C190.64 318.15 190.61 318.17 190.58 318.18L190.61 318.16L190.58 318.19C173.66 328.75 131.68 318.43 127.6 315.37C123.52 312.29 106.25 281.52 100.34 273.5C100.15 273.13 99.4201 272.01 98.4201 270.55C98.0701 265.37 96.7501 260.53 94.8701 257.07C99.2901 264.46 108.37 270.74 117.68 270.58V270.66C117.68 272.43 119.12 273.87 120.89 273.87C122.66 273.87 124.1 272.43 124.1 270.66C124.1 270.63 124.1 270.59 124.1 270.56C134.11 277.51 146.64 286.53 148.24 294.87C157.01 294.87 163.05 293.91 177.59 292.42C177.61 292.42 177.63 292.4 177.65 292.39L177.59 292.42C178.6 292 179.68 291.69 180.79 291.52C181.52 291.39 182.29 291.33 183.06 291.33C183.97 291.33 184.87 291.41 185.73 291.58C192.46 292.83 197.55 298.73 197.55 305.81H197.56Z" fill="#E6E6E6"/>
<path d="M90.6398 259.45L90.5898 259.38C90.5898 259.38 90.5999 259.4 90.6299 259.45H90.6398Z" fill="#FFD6A1"/>
<path d="M119.87 267.61C118.74 267.99 117.89 268.99 117.72 270.21C107.41 266.24 106.43 261.92 98.04 253.07C100.7 254.14 103.31 254.84 105.85 255.23C110.26 259.69 115.72 264.61 115.72 264.61C116.93 265.53 118.33 266.53 119.87 267.6V267.61Z" fill="#E6E6E6"/>
<path d="M190.67 318.14C190.67 318.14 190.64 318.16 190.62 318.17L190.59 318.19C190.59 318.19 190.65 318.16 190.68 318.14H190.67Z" fill="#FFD6A1"/>
<path d="M117.72 270.21C117.7 270.33 117.69 270.46 117.69 270.58C108.38 270.75 99.3001 264.46 94.8801 257.07C96.7501 260.53 98.0801 265.37 98.4301 270.55C98.7201 274.77 98.3601 279.21 97.1301 283.33C96.9901 283.3 96.8501 283.29 96.7101 283.28C97.3001 271.88 91.1801 260.45 90.6401 259.45C90.6101 259.4 90.6001 259.38 90.6001 259.38C93.0301 257.47 95.5501 255.2 98.0401 253.07C106.43 261.92 107.4 266.23 117.72 270.21Z" fill="#B3B3B3"/>
<path d="M125.58 252.55C119.9 254.92 113.18 256.35 105.86 255.23C103.32 254.84 100.71 254.14 98.0498 253.07C99.1698 252.11 100.29 251.17 101.39 250.31C101.39 250.31 101.36 250.28 101.35 250.26C104.73 251.41 115.2 254.48 125.41 252.42C125.47 252.46 125.53 252.51 125.6 252.55H125.58Z" fill="#B3B3B3"/>
<path d="M101.37 250.31C100.28 251.17 99.16 252.11 98.03 253.07C95.54 255.2 93.01 257.47 90.59 259.38C79.58 255.4 63.33 236.06 63.41 218.77C63.42 215 63.73 207.75 66.84 208.32C69.12 208.74 67.72 216.39 68.02 220.45C68.32 224.51 68.16 229.46 71 228.81C72.79 228.41 68.53 208.92 73.91 205.36C77.16 203.21 76.14 212.21 75.42 216.04C74.7 219.86 75.06 226.76 77.08 226.38C80.03 225.82 78.25 218.51 78.39 215.52C78.66 209.8 79.26 199.37 84.42 201.85C86.88 203.03 79.96 226.79 84.31 225.35C86.02 224.79 87.85 202.66 93.1 205.17C95.5 206.32 94.35 207.54 92.86 211.11C91.37 214.69 90.38 222.9 90.17 226.77C90.02 229.66 89.23 233.07 92.11 232.79C94.12 232.6 95.1 221.64 100.53 221C102.62 220.75 101.57 225.65 99.47 231.65C98.81 233.53 96.53 236.93 95.95 238.84C94.61 243.27 98.17 246.86 101.31 250.26C101.31 250.26 101.34 250.29 101.35 250.31H101.37Z" fill="#333333"/>
<path d="M124.11 270.65C124.11 272.42 122.67 273.86 120.9 273.86C119.13 273.86 117.69 272.42 117.69 270.65V270.57C117.69 270.45 117.7 270.32 117.72 270.2C117.89 268.98 118.74 267.99 119.87 267.6C120.19 267.49 120.54 267.43 120.9 267.43C122.64 267.43 124.06 268.81 124.11 270.54C124.11 270.57 124.11 270.61 124.11 270.64V270.65Z" fill="#333333"/>
<path d="M402.59 304.58C396.6 306.99 390.81 307.56 385.52 306.98C381.85 306.59 378.42 305.64 375.32 304.4C375.36 304.33 375.39 304.25 375.43 304.17C387.66 306.54 399.32 301.82 399.32 301.82L399.55 302.01L402.6 304.57L402.59 304.58Z" fill="#B3B3B3"/>
<path d="M403.77 334.75C403.62 334.77 403.47 334.81 403.32 334.86C401.56 328.79 401.71 321.97 402.99 316.24C403.64 313.33 404.59 310.69 405.73 308.58C401.4 315.78 392.57 322.1 383.51 322.27C383.5 322.06 383.46 321.85 383.41 321.65C393.14 317.74 394.42 313.25 402.61 304.6L404.71 306.36C404.71 306.36 404.78 306.42 404.81 306.44C406.28 307.72 407.75 308.99 409.18 310.15C409.49 310.4 409.79 310.65 410.1 310.89C410.1 310.89 403.27 322.87 403.77 334.75Z" fill="#B3B3B3"/>
<path d="M383.51 322.48C383.51 324.25 382.07 325.69 380.3 325.69C378.53 325.69 377.09 324.25 377.09 322.48C377.09 320.71 378.53 319.27 380.3 319.27C381.78 319.27 383.03 320.28 383.4 321.64C383.46 321.84 383.49 322.05 383.5 322.26C383.5 322.33 383.5 322.4 383.5 322.48H383.51Z" fill="#333333"/>
<path d="M437.28 270.28C437.36 287.57 421.1 306.91 410.1 310.89C409.8 310.65 409.49 310.41 409.18 310.15C407.74 308.98 406.27 307.71 404.81 306.44C404.78 306.41 404.74 306.38 404.71 306.36L402.61 304.6H402.6L399.55 302.02L399.32 301.83C402.47 298.41 406.08 294.8 404.73 290.35C404.15 288.45 401.86 285.04 401.21 283.16C399.12 277.16 398.07 272.26 400.15 272.51C405.58 273.15 406.56 284.11 408.57 284.3C411.45 284.58 410.67 281.17 410.51 278.28C410.3 274.41 409.3 266.2 407.82 262.62C406.33 259.05 405.18 257.83 407.58 256.68C412.82 254.17 414.65 276.29 416.37 276.86C420.72 278.3 413.8 254.54 416.26 253.36C421.42 250.88 422.02 261.31 422.29 267.03C422.43 270.03 420.65 277.33 423.6 277.89C425.63 278.27 425.98 271.38 425.27 267.55C424.55 263.72 423.53 254.73 426.78 256.87C432.16 260.43 427.9 279.91 429.69 280.32C432.53 280.97 432.36 276.02 432.66 271.96C432.96 267.89 431.56 260.25 433.84 259.83C436.95 259.26 437.26 266.51 437.27 270.28H437.28Z" fill="#333333"/>
<path d="M267.45 248.46C260.88 251.22 255.66 251.44 251.9 247.2C250.16 244.69 253.3 245.64 253.3 245.64C253.3 245.64 256.35 249.9 267.46 248.46H267.45Z" fill="black"/>
<path d="M36.756 79.1567C25.9961 79.1567 17.9263 87.2766 17.9263 97.289V97.389C17.9263 107.401 25.8975 115.42 36.6559 115.42C47.4144 115.42 55.4842 107.3 55.4842 97.2875V97.1889C55.4842 87.1766 47.5144 79.1567 36.756 79.1567ZM43.3351 104.857C41.1525 104.921 39.0072 104.398 37.8094 103.206C37.6765 103.075 37.4578 103.212 37.515 103.391C38.2996 105.806 39.5017 107.243 40.5194 108.196C40.6637 108.333 40.5108 108.569 40.3264 108.49C39.223 108.017 38.0066 107.754 36.7303 107.754C35.4539 107.754 34.2375 108.017 33.1341 108.49C32.9497 108.569 32.7968 108.333 32.9426 108.196C33.9588 107.243 35.1609 105.805 35.9456 103.391C36.0027 103.213 35.7841 103.075 35.6511 103.206C34.4534 104.398 32.308 104.921 30.1254 104.857C27.6484 104.783 24.2467 101.694 24.4911 97.6806C24.7341 93.6671 29.2736 91.2358 30.4899 90.4669C31.5747 89.7794 35.6897 86.8021 36.5659 84.7854C36.6288 84.641 36.8317 84.641 36.8932 84.7854C37.7694 86.8021 41.8843 89.7794 42.9692 90.4669C44.1855 91.2358 48.725 93.6671 48.968 97.6806C49.2124 101.694 45.8107 104.781 43.3337 104.857H43.3351Z" fill="black"/>
<path d="M57.2892 125.313H45.8333L33.8286 139.459V125.313H24.1636V160.18H33.8286V151.165L37.3647 147.229L46.1306 160.18H57.7381L44.0896 140.306L57.2892 125.313Z" fill="black"/>
<path d="M50.4195 237.846C54.7546 236.003 57.5932 232.466 57.5932 227.137V227.037C57.5932 223.599 56.547 220.911 54.5059 218.917C52.1647 216.525 48.4771 215.132 43.1472 215.132H26.6587V223.35H40.7274H42.7584C45.9958 223.35 47.8782 224.894 47.8782 227.634V227.734C47.8782 230.274 45.9858 231.868 42.6984 231.868H26.6587V250H36.3223V239.44H40.5559L47.5795 250H58.7367L50.4181 237.846H50.4195Z" fill="black"/>
<g clip-path="url(#clip0_145_3416)" filter="url(#filter0_d_145_3416)">
<path d="M33.2992 61.2639L56.1964 36.2563L41.4693 40.2607L17.958 65.4344L33.2992 61.2639Z" fill="black"/>
<g style="mix-blend-mode:multiply" opacity="0.1">
<path d="M28.3765 62.5986L33.2994 61.2639L56.1966 36.2563L28.3765 62.5986Z" fill="black"/>
</g>
<path d="M18.2183 43.2263V33H56.1965L18.2183 43.2263Z" fill="black"/>
<path opacity="0.1" d="M18.2183 37.3627V33H35.7399L18.2183 37.3627Z" fill="black"/>
<path d="M56.2017 58.4956V68.7219H18.2183L56.2017 58.4956Z" fill="black"/>
<path opacity="0.1" d="M56.2018 64.3594L56.1966 68.7221H38.3003L56.2018 64.3594Z" fill="black"/>
</g>
<path d="M33.7271 193.084H52.2066V184.868H50.4629H24.1636V193.084V204.541H52.4568V195.625H33.7271V193.084Z" fill="black"/>
<rect x="24.1636" y="172.718" width="28.692" height="8.12162" fill="black"/>
<path d="M422.981 583.843C433.741 583.843 441.811 575.723 441.811 565.711L441.811 565.611C441.811 555.599 433.839 547.58 423.081 547.58C412.322 547.58 404.253 555.7 404.253 565.712L404.253 565.811C404.253 575.823 412.222 583.843 422.981 583.843ZM416.402 558.143C418.584 558.079 420.73 558.602 421.927 559.794C422.06 559.925 422.279 559.788 422.222 559.609C421.437 557.194 420.235 555.757 419.217 554.804C419.073 554.667 419.226 554.431 419.41 554.51C420.514 554.983 421.73 555.246 423.007 555.246C424.283 555.246 425.499 554.983 426.603 554.51C426.787 554.431 426.94 554.667 426.794 554.804C425.778 555.757 424.576 557.195 423.791 559.609C423.734 559.787 423.953 559.925 424.086 559.794C425.283 558.602 427.429 558.079 429.611 558.143C432.088 558.217 435.49 561.306 435.246 565.319C435.003 569.333 430.463 571.764 429.247 572.533C428.162 573.221 424.047 576.198 423.171 578.215C423.108 578.359 422.905 578.359 422.844 578.215C421.967 576.198 417.852 573.221 416.768 572.533C415.551 571.764 411.012 569.333 410.769 565.319C410.524 561.306 413.926 558.219 416.403 558.143L416.402 558.143Z" fill="black"/>
<path d="M402.448 537.687L413.903 537.687L425.908 523.541L425.908 537.687L435.573 537.687L435.573 502.82L425.908 502.82L425.908 511.835L422.372 515.771L413.606 502.82L401.999 502.82L415.647 522.694L402.448 537.687Z" fill="black"/>
<path d="M409.317 425.154C404.982 426.997 402.144 430.533 402.144 435.863L402.144 435.963C402.144 439.401 403.19 442.089 405.231 444.083C407.572 446.475 411.26 447.868 416.59 447.868L433.078 447.868L433.078 439.65L419.009 439.65L416.978 439.65C413.741 439.65 411.859 438.106 411.859 435.366L411.859 435.266C411.859 432.726 413.751 431.132 417.038 431.132L433.078 431.132L433.078 413L423.415 413L423.415 423.56L419.181 423.56L412.157 413L401 413L409.319 425.154L409.317 425.154Z" fill="black"/>
<g clip-path="url(#clip1_145_3416)" filter="url(#filter1_d_145_3416)">
<path d="M426.438 601.736L403.54 626.744L418.267 622.739L441.779 597.566L426.438 601.736Z" fill="black"/>
<g style="mix-blend-mode:multiply" opacity="0.1">
<path d="M431.36 600.401L426.437 601.736L403.54 626.744L431.36 600.401Z" fill="black"/>
</g>
<path d="M441.519 619.774L441.519 630L403.54 630L441.519 619.774Z" fill="black"/>
<path opacity="0.1" d="M441.519 625.637L441.519 630L423.997 630L441.519 625.637Z" fill="black"/>
<path d="M403.535 604.504L403.535 594.278L441.519 594.278L403.535 604.504Z" fill="black"/>
<path opacity="0.1" d="M403.535 598.641L403.54 594.278L421.437 594.278L403.535 598.641Z" fill="black"/>
</g>
<path d="M426.01 469.916L407.53 469.916L407.53 478.132L409.274 478.132L435.573 478.132L435.573 469.916L435.573 458.459L407.28 458.459L407.28 467.375L426.01 467.375L426.01 469.916Z" fill="black"/>
<rect x="435.573" y="490.282" width="28.692" height="8.12162" transform="rotate(-180 435.573 490.282)" fill="black"/>
<defs>
<filter id="filter0_d_145_3416" x="17.1112" y="33" width="39.9373" height="37.4158" filterUnits="userSpaceOnUse" color-interpolation-filters="sRGB">
<feFlood flood-opacity="0" result="BackgroundImageFix"/>
<feColorMatrix in="SourceAlpha" type="matrix" values="0 0 0 0 0 0 0 0 0 0 0 0 0 0 0 0 0 0 127 0" result="hardAlpha"/>
<feOffset dy="0.846808"/>
<feGaussianBlur stdDeviation="0.423404"/>
<feComposite in2="hardAlpha" operator="out"/>
<feColorMatrix type="matrix" values="0 0 0 0 0 0 0 0 0 0 0 0 0 0 0 0 0 0 0.25 0"/>
<feBlend mode="normal" in2="BackgroundImageFix" result="effect1_dropShadow_145_3416"/>
<feBlend mode="normal" in="SourceGraphic" in2="effect1_dropShadow_145_3416" result="shape"/>
</filter>
<filter id="filter1_d_145_3416" x="402.688" y="594.278" width="39.9373" height="37.4158" filterUnits="userSpaceOnUse" color-interpolation-filters="sRGB">
<feFlood flood-opacity="0" result="BackgroundImageFix"/>
<feColorMatrix in="SourceAlpha" type="matrix" values="0 0 0 0 0 0 0 0 0 0 0 0 0 0 0 0 0 0 127 0" result="hardAlpha"/>
<feOffset dy="0.846808"/>
<feGaussianBlur stdDeviation="0.423404"/>
<feComposite in2="hardAlpha" operator="out"/>
<feColorMatrix type="matrix" values="0 0 0 0 0 0 0 0 0 0 0 0 0 0 0 0 0 0 0.25 0"/>
<feBlend mode="normal" in2="BackgroundImageFix" result="effect1_dropShadow_145_3416"/>
<feBlend mode="normal" in="SourceGraphic" in2="effect1_dropShadow_145_3416" result="shape"/>
</filter>
<linearGradient id="paint0_linear_145_3416" x1="380.81" y1="-103.53" x2="110.32" y2="690.33" gradientUnits="userSpaceOnUse">
<stop stop-color="#E1E1E1"/>
<stop offset="0.12" stop-color="#ECECEC"/>
<stop offset="0.32" stop-color="#FAFAFA"/>
<stop offset="0.49" stop-color="white"/>
<stop offset="0.7" stop-color="#FBFBFB"/>
<stop offset="0.85" stop-color="#F2F2F2"/>
<stop offset="0.99" stop-color="#E2E2E2"/>
<stop offset="1" stop-color="#E1E1E1"/>
</linearGradient>
<clipPath id="clip0_145_3416">
<rect width="38.2436" height="35.7221" fill="white" transform="translate(17.958 33)"/>
</clipPath>
<clipPath id="clip1_145_3416">
<rect width="38.2436" height="35.7221" fill="white" transform="translate(441.779 630) rotate(-180)"/>
</clipPath>
</defs>
</svg>
