<svg width="204" height="285" viewBox="0 0 204 285" fill="none" xmlns="http://www.w3.org/2000/svg">
<path d="M188 0.770004H15.83C7.37454 0.770004 0.52002 7.62452 0.52002 16.08V268.73C0.52002 277.186 7.37454 284.04 15.83 284.04H188C196.455 284.04 203.31 277.186 203.31 268.73V16.08C203.31 7.62452 196.455 0.770004 188 0.770004Z" fill="white"/>
<path d="M193.31 268.74L193.31 16.09C193.31 13.1574 190.933 10.78 188 10.78L15.8301 10.78C12.8974 10.78 10.5201 13.1574 10.5201 16.09L10.5201 268.74C10.5201 271.673 12.8974 274.05 15.8301 274.05H188C190.933 274.05 193.31 271.673 193.31 268.74Z" fill="black"/>
<path d="M109.57 101.42C106.2 103.59 104.44 105.35 102.27 108.72C100.1 105.35 98.3401 103.59 94.9701 101.42C98.3401 99.25 100.1 97.49 102.27 94.12C104.44 97.49 106.2 99.25 109.57 101.42Z" fill="white"/>
<path d="M150.03 133.78C153.4 135.95 155.16 137.71 157.33 141.08C159.5 137.71 161.26 135.95 164.63 133.78C161.26 131.61 159.5 129.85 157.33 126.48C155.16 129.85 153.4 131.61 150.03 133.78Z" fill="white"/>
<path d="M155.12 132.74C155.12 132.74 104.26 124.39 104.26 174.84H128.72C128.72 174.84 120.88 147.56 155.11 132.74H155.12Z" fill="white"/>
<path d="M53.7901 133.78C50.4201 135.95 48.6601 137.71 46.4901 141.08C44.3201 137.71 42.5601 135.95 39.1901 133.78C42.5601 131.61 44.3201 129.85 46.4901 126.48C48.6601 129.85 50.4201 131.61 53.7901 133.78Z" fill="white"/>
<path d="M48.7001 132.74C48.7001 132.74 99.5601 124.39 99.5601 174.84H75.1001C75.1001 174.84 82.9401 147.56 48.7101 132.74H48.7001Z" fill="white"/>
<path d="M87.7301 174.84L102.27 101.42L115.86 174.84H87.7301Z" fill="white"/>
<path d="M126.82 173.94H77.04C75.6427 173.94 74.51 175.073 74.51 176.47C74.51 177.867 75.6427 179 77.04 179H126.82C128.217 179 129.35 177.867 129.35 176.47C129.35 175.073 128.217 173.94 126.82 173.94Z" fill="white"/>
</svg>
