<svg width="57" height="62" viewBox="0 0 57 62" fill="none" xmlns="http://www.w3.org/2000/svg">
<path d="M28.8401 14.0403C27.6301 7.08029 19.9599 2.12034 15.3999 1.15034C11.9599 0.420337 7.9601 1.9003 5.3101 4.2403C1.1801 7.8803 0.930108 13.0003 0.820108 15.1503C0.500108 21.7803 3.66999 28.2003 5.44999 30.9903C14.18 44.6803 23.8601 55.2503 28.8401 61.5303C33.8201 55.2603 43.5 44.6803 52.23 30.9903C54.01 28.2003 57.1801 21.7803 56.8601 15.1503C56.7601 13.0103 56.5102 7.8803 52.3702 4.2403C49.7102 1.9003 45.7201 0.420337 42.2801 1.15034C37.7201 2.12034 30.0501 7.08029 28.8401 14.0403Z" fill="#FF6B00"/>
</svg>
