<svg width="71" height="71" viewBox="0 0 71 71" fill="none" xmlns="http://www.w3.org/2000/svg">
<path d="M70.8501 43.7901C70.8501 52.2301 64.0101 59.0701 55.5701 59.0701C49.0901 59.0701 43.5601 55.0401 41.3401 49.3601L41.21 49.0501L39.72 45.4801C39.26 44.3801 37.6101 44.7001 37.6201 45.9001C37.6501 49.8801 38.1899 54.8001 39.9299 60.1401C41.3099 64.3301 43.08 67.7501 44.73 70.3701H26.9399C28.5799 67.7501 30.36 64.3301 31.74 60.1401C33.48 54.8001 34.0201 49.8801 34.05 45.9001C34.05 44.7101 32.41 44.3801 31.95 45.4801L30.46 49.0501L30.3301 49.3601C28.1101 55.0401 22.5801 59.0701 16.1001 59.0701C7.6601 59.0701 0.820068 52.2301 0.820068 43.7901C0.820068 35.3501 7.6601 28.5101 16.1001 28.5101C18.1201 28.5101 20.0501 28.9001 21.8201 29.6201L24.3701 30.9501L25.71 31.6401C26.4 32.0001 27.07 31.1301 26.55 30.5501L24.0801 27.8201L23.3601 27.0301C23.3001 26.9601 23.2499 26.8901 23.1799 26.8201C23.0499 26.6601 22.9301 26.5001 22.8101 26.3401C22.7001 26.2001 22.59 26.0501 22.49 25.9001C22.36 25.7301 22.2499 25.5601 22.1399 25.3801C22.0599 25.2501 21.9599 25.1001 21.8799 24.9601C21.7699 24.7801 21.6601 24.5901 21.5601 24.4101C21.1601 23.6801 20.81 22.9101 20.53 22.1101C20.37 21.6701 20.2301 21.2101 20.1001 20.7501C20.0801 20.6701 20.07 20.5901 20.04 20.5201C20 20.3301 19.9499 20.1401 19.9099 19.9401C19.8699 19.7401 19.83 19.5301 19.79 19.3301C19.76 19.2001 19.75 19.0801 19.73 18.9501C19.7 18.7901 19.6899 18.6301 19.6699 18.4701C19.6299 18.1401 19.6001 17.7901 19.5901 17.4501C19.5701 17.1701 19.5601 16.9001 19.5601 16.6201C19.5601 7.65012 26.8401 0.370117 35.8101 0.370117C44.7801 0.370117 52.0601 7.65012 52.0601 16.6201C52.0601 16.9001 52.06 17.1801 52.03 17.4501C52.01 17.8001 51.99 18.1301 51.95 18.4701C51.93 18.6401 51.9199 18.8001 51.8899 18.9501C51.8699 19.0801 51.8601 19.2001 51.8301 19.3301C51.8001 19.5401 51.75 19.7401 51.71 19.9401C51.68 20.1301 51.6301 20.3201 51.5801 20.5201C51.5601 20.6001 51.54 20.6801 51.52 20.7501C51.39 21.2101 51.2501 21.6701 51.0901 22.1101C50.8101 22.9101 50.4601 23.6801 50.0601 24.4101C49.9601 24.5901 49.85 24.7801 49.74 24.9601C49.66 25.1001 49.57 25.2401 49.48 25.3801C49.37 25.5601 49.2499 25.7301 49.1299 25.9001C49.0299 26.0501 48.9301 26.1901 48.8101 26.3401C48.6901 26.5101 48.5699 26.6701 48.4399 26.8201C48.3799 26.8901 48.32 26.9601 48.26 27.0301L47.54 27.8201L45.0701 30.5501C44.5501 31.1301 45.2199 32.0001 45.9099 31.6401L47.25 30.9501L49.8 29.6201C51.57 28.9001 53.5 28.5101 55.52 28.5101C63.96 28.5101 70.8 35.3501 70.8 43.7901H70.8501Z" fill="black"/>
</svg>
