<svg width="57" height="71" viewBox="0 0 57 71" fill="none" xmlns="http://www.w3.org/2000/svg">
<path d="M28.8401 70.3396H36.94C35.66 68.0896 34.3899 65.3896 33.3899 62.2396C31.7199 56.9996 31.2799 52.0796 31.3899 47.8996C31.4099 47.2396 32.36 47.1796 32.48 47.8296C33.69 54.7896 37.7201 59.7496 42.2801 60.7196C45.7201 61.4496 49.7202 59.9696 52.3702 57.6296C56.5002 53.9896 56.7501 48.8696 56.8601 46.7296C57.1801 40.0996 54.01 33.6796 52.23 30.8896C43.5 17.1996 33.8201 6.62961 28.8401 0.349609C23.8601 6.61961 14.18 17.1996 5.44999 30.8896C3.66999 33.6796 0.500108 40.0996 0.820108 46.7296C0.920108 48.8696 1.1701 53.9996 5.3101 57.6296C7.9701 59.9696 11.9599 61.4496 15.3999 60.7196C19.9599 59.7496 23.99 54.7896 25.2 47.8296C25.31 47.1796 26.2701 47.2396 26.2901 47.8996C26.4001 52.0796 25.9601 56.9996 24.2901 62.2396C23.2901 65.3896 22.02 68.0896 20.74 70.3396H28.8401Z" fill="black"/>
</svg>
