<svg width="125" height="125" viewBox="0 0 125 125" fill="none" xmlns="http://www.w3.org/2000/svg">
<circle cx="62.0364" cy="62.0364" r="62.0364" fill="#149828"/>
<path d="M16.255 81.9129C14.9843 78.9004 13.9852 75.7304 13.3062 72.4422C13.0249 71.0836 12.8018 69.7053 12.6272 68.3074L0 69.8038C0.2134 71.5266 0.485 73.2298 0.8342 74.9132C1.6781 78.9792 2.9003 82.8974 4.4814 86.6286C4.7724 87.3177 5.0828 87.997 5.4029 88.6763L16.9922 83.5471C16.74 82.9958 16.4878 82.4544 16.2453 81.8932L16.255 81.9129Z" fill="white"/>
<path d="M113.575 96.3259L103.671 89.7397C101.799 92.6341 99.6454 95.3316 97.2398 97.7633C95.94 99.0825 94.5723 100.313 93.1367 101.475L100.528 110.857C102.303 109.41 104.001 107.884 105.611 106.259C108.589 103.237 111.256 99.9094 113.575 96.3259Z" fill="white"/>
<path d="M43.5213 108.947C41.2515 108.021 39.0593 106.938 36.9738 105.698L31.0083 116.084C33.5982 117.62 36.3045 118.969 39.1175 120.111C42.3088 121.41 45.6456 122.444 49.0794 123.192L51.5723 111.438C48.7981 110.837 46.1015 110.01 43.5213 108.957V108.947Z" fill="white"/>
<path d="M107.814 42.1496C109.085 45.1621 110.084 48.3322 110.763 51.6203C111.044 52.9789 111.267 54.3572 111.442 55.7552L124.069 54.2587C123.855 52.5359 123.584 50.8327 123.235 49.1493C122.391 45.0834 121.169 41.1651 119.587 37.434C119.296 36.7448 118.986 36.0655 118.666 35.3862L107.077 40.5055C107.329 41.0568 107.591 41.6082 107.824 42.1595L107.814 42.1496Z" fill="white"/>
<path d="M80.5564 15.1258C82.8262 16.0512 85.0087 17.144 87.1039 18.3746L93.0694 7.98833C90.4795 6.45254 87.7732 5.1038 84.9602 3.9618C81.7689 2.66228 78.4321 1.62858 74.9983 0.880371L72.5054 12.6351C75.2796 13.2356 77.9762 14.0626 80.5564 15.116V15.1258Z" fill="white"/>
<path d="M26.8368 26.3092C28.1365 24.99 29.514 23.7594 30.9398 22.5977L23.5485 13.2156C21.7734 14.6529 20.0759 16.1887 18.4657 17.8131C15.4878 20.8355 12.8203 24.163 10.502 27.7465L20.4057 34.3327C22.2778 31.4383 24.4312 28.7408 26.8368 26.3092Z" fill="white"/>
<path d="M72.6216 114.745C72.6216 113.338 73.7468 112.196 75.1339 112.196C76.521 112.196 77.6462 113.338 77.6462 114.745C77.6462 116.153 76.521 117.295 75.1339 117.295C73.7468 117.295 72.6216 116.153 72.6216 114.745Z" fill="white"/>
<path d="M47.1494 9.32691C47.1494 7.9191 48.2746 6.7771 49.6617 6.7771C51.0488 6.7771 52.174 7.9191 52.174 9.32691C52.174 10.7347 51.0488 11.8767 49.6617 11.8767C48.2746 11.8767 47.1494 10.7347 47.1494 9.32691Z" fill="white"/>
<path d="M6.96191 52.4768C6.96191 51.069 8.08711 49.927 9.47421 49.927C10.8613 49.927 11.9865 51.069 11.9865 52.4768C11.9865 53.8846 10.8613 55.0266 9.47421 55.0266C8.08711 55.0266 6.96191 53.8846 6.96191 52.4768Z" fill="white"/>
<path d="M20.9492 99.6333C20.9492 98.2255 22.0744 97.0835 23.4615 97.0835C24.8486 97.0835 25.9738 98.2255 25.9738 99.6333C25.9738 101.041 24.8486 102.183 23.4615 102.183C22.0744 102.183 20.9492 101.041 20.9492 99.6333Z" fill="white"/>
<path d="M111.363 74.5095C111.363 73.1017 112.488 71.9597 113.875 71.9597C115.262 71.9597 116.387 73.1017 116.387 74.5095C116.387 75.9173 115.262 77.0593 113.875 77.0593C112.488 77.0593 111.363 75.9173 111.363 74.5095Z" fill="white"/>
<path d="M98.9858 25.8958C98.9858 24.4879 100.111 23.3459 101.498 23.3459C102.885 23.3459 104.01 24.4879 104.01 25.8958C104.01 27.3036 102.885 28.4456 101.498 28.4456C100.111 28.4456 98.9858 27.3036 98.9858 25.8958Z" fill="white"/>
<path d="M95.9377 40L98.8896 38.0321C97.2858 35.6312 95.4556 33.3976 93.4188 31.3706L90.9097 33.8797C92.7792 35.7493 94.4618 37.8057 95.9377 40Z" fill="white"/>
<path d="M99.4803 46.5138L102.737 45.1166C101.665 42.6272 100.376 40.2558 98.8801 38.0222L95.9282 39.9901C97.2959 42.0368 98.4865 44.2212 99.4705 46.5138H99.4803Z" fill="#0F651A"/>
<path d="M101.882 54.0708L105.355 53.3427C104.755 50.4892 103.879 47.734 102.748 45.1167L99.4907 46.5139C100.524 48.9246 101.331 51.4534 101.882 54.0708Z" fill="white"/>
<path d="M90.9097 90.9104L93.4188 93.4195C95.5638 91.2745 97.4727 88.9031 99.1455 86.3547L96.1739 84.4163C94.6389 86.7581 92.8776 88.9327 90.9097 90.9104Z" fill="#0F651A"/>
<path d="M24.945 47.3898L21.6487 46.0713C20.6549 48.5509 19.8678 51.1387 19.3364 53.8151L22.8197 54.5137C23.3116 52.0538 24.0299 49.6824 24.945 47.3996V47.3898Z" fill="#0F651A"/>
<path d="M22.908 70.7097L19.4346 71.4378C20.0348 74.2914 20.9105 77.0465 22.0322 79.6638L25.299 78.2666C24.2658 75.8559 23.459 73.3271 22.908 70.7097Z" fill="white"/>
<path d="M22.8202 54.5038L19.3369 53.8052C18.7859 56.58 18.4907 59.4531 18.4907 62.3854H22.0428C22.0428 59.6893 22.3183 57.0523 22.8202 54.494V54.5038Z" fill="white"/>
<path d="M22.0428 62.3953H18.4907C18.4907 65.4948 18.8154 68.5254 19.4353 71.4478L22.9087 70.7196C22.3479 68.0334 22.0428 65.2586 22.0428 62.4051V62.3953Z" fill="#0F651A"/>
<path d="M25.299 78.2666L22.0322 79.6638C23.1047 82.1533 24.3937 84.5246 25.8894 86.7582L28.8413 84.7903C27.4736 82.7436 26.283 80.5592 25.299 78.2764V78.2666Z" fill="#0F651A"/>
<path d="M33.87 90.9106L31.3608 93.4198C33.5059 95.5648 35.8772 97.4737 38.4257 99.1464L40.3641 96.1749C38.0223 94.6399 35.8477 92.8786 33.87 90.9106Z" fill="#0F651A"/>
<path d="M28.8411 84.7904L25.8892 86.7583C27.493 89.1592 29.3232 91.3928 31.36 93.4197L33.8691 90.9106C31.9996 89.0411 30.317 86.9846 28.8411 84.7805V84.7904Z" fill="white"/>
<path d="M40.3637 96.1746L38.4253 99.1462C40.8262 100.711 43.3845 102.059 46.0707 103.131L47.3892 99.835C44.9195 98.8412 42.5678 97.6112 40.3637 96.1648V96.1746Z" fill="white"/>
<path d="M28.6056 40.3642L25.634 38.4258C24.0695 40.8267 22.7313 43.385 21.6489 46.0712L24.9452 47.3897C25.939 44.92 27.169 42.5683 28.6056 40.3642Z" fill="white"/>
<path d="M62.3953 22.0428V18.4907C59.2958 18.4907 56.2652 18.8154 53.3428 19.4353L54.0709 22.9087C56.7571 22.3479 59.5319 22.0428 62.3854 22.0428H62.3953Z" fill="#0F651A"/>
<path d="M46.5131 25.2997L45.1159 22.0427C42.6264 23.1152 40.2551 24.4042 38.0215 25.8999L39.9894 28.8518C42.0361 27.4841 44.2205 26.2935 46.5131 25.3095V25.2997Z" fill="#0F651A"/>
<path d="M54.0708 22.9087L53.3427 19.4353C50.4892 20.0355 47.7439 20.9113 45.1167 22.0428L46.5139 25.2997C48.9246 24.2666 51.4534 23.4597 54.0708 22.9087Z" fill="white"/>
<path d="M33.8696 33.87L31.3605 31.3608C29.2154 33.5059 27.3065 35.8772 25.6338 38.4257L28.6054 40.3641C30.1404 38.0223 31.9017 35.8477 33.8696 33.87Z" fill="#0F651A"/>
<path d="M39.9995 28.842L38.0316 25.8901C35.6307 27.494 33.3971 29.3242 31.3701 31.361L33.8792 33.8701C35.7488 32.0006 37.7954 30.318 39.9995 28.842Z" fill="white"/>
<path d="M101.882 54.0707C102.443 56.7569 102.748 59.5317 102.748 62.3852H106.3C106.3 59.2857 105.975 56.2551 105.355 53.3425L101.882 54.0707Z" fill="#0F651A"/>
<path d="M101.96 70.2768L105.444 70.9754C105.995 68.2007 106.29 65.3275 106.29 62.3953H102.738C102.738 65.0913 102.462 67.7284 101.96 70.2867V70.2768Z" fill="white"/>
<path d="M90.9107 33.8701L93.4198 31.361C91.2747 29.2159 88.9034 27.307 86.3549 25.6343L84.4165 28.6059C86.7583 30.1408 88.9329 31.9021 90.9107 33.8701Z" fill="#0F651A"/>
<path d="M99.8442 77.3909L103.141 78.7094C104.134 76.2298 104.922 73.6519 105.453 70.9755L101.97 70.2769C101.478 72.7368 100.759 75.1081 99.8442 77.3909Z" fill="#0F651A"/>
<path d="M47.3893 99.8447L46.0708 103.141C48.5504 104.135 51.1382 104.922 53.8146 105.453L54.5034 101.97C52.0435 101.478 49.6721 100.76 47.3893 99.8447Z" fill="#0F651A"/>
<path d="M84.4157 28.6058L86.3541 25.6342C83.9532 24.0697 81.3949 22.7315 78.7087 21.6492L77.3901 24.9455C79.8599 25.9393 82.2116 27.1692 84.4157 28.6058Z" fill="white"/>
<path d="M77.3899 24.9453L78.7085 21.649C76.2289 20.6552 73.6509 19.868 70.9745 19.3367L70.2759 22.8199C72.7358 23.3119 75.1071 24.0302 77.3899 24.9453Z" fill="#0F651A"/>
<path d="M96.1744 84.4161L99.146 86.3546C100.71 83.9537 102.049 81.3954 103.131 78.7091L99.8347 77.3906C98.8409 79.8604 97.611 82.2121 96.1646 84.4161H96.1744Z" fill="white"/>
<path d="M62.394 102.747V106.3C65.4935 106.3 68.5242 105.975 71.4465 105.355L70.7184 101.882C68.0322 102.442 65.2574 102.747 62.4039 102.747H62.394Z" fill="#0F651A"/>
<path d="M70.2756 22.8202L70.9742 19.3369C68.1994 18.7859 65.3263 18.4907 62.394 18.4907V22.0428C65.0901 22.0428 67.7271 22.3183 70.2855 22.8202H70.2756Z" fill="white"/>
<path d="M54.5032 101.96L53.8145 105.444C56.5892 105.995 59.4624 106.29 62.3946 106.29V102.738C59.6986 102.738 57.0615 102.462 54.5032 101.96Z" fill="white"/>
<path d="M70.7085 101.882L71.4366 105.355C74.2901 104.755 77.0354 103.879 79.6626 102.748L78.2654 99.4907C75.8546 100.524 73.3258 101.331 70.7085 101.882Z" fill="white"/>
<path d="M78.2661 99.4808L79.6633 102.738C82.1528 101.665 84.5241 100.376 86.7577 98.8806L84.7898 95.9287C82.7432 97.2964 80.5588 98.487 78.2661 99.471V99.4808Z" fill="#0F651A"/>
<path d="M84.7896 95.9387L86.7576 98.8906C89.1584 97.2867 91.392 95.4566 93.419 93.4198L90.9099 90.9106C89.0404 92.7802 86.9839 94.4628 84.7798 95.9387H84.7896Z" fill="white"/>
</svg>
