<svg width="125" height="125" viewBox="0 0 125 125" fill="none" xmlns="http://www.w3.org/2000/svg">
<circle cx="62.0364" cy="62.0364" r="62.0364" fill="#E41E3F"/>
<path d="M16.255 81.913C14.9843 78.9005 13.9852 75.7305 13.3062 72.4423C13.0249 71.0837 12.8018 69.7055 12.6272 68.3075L0 69.8039C0.2134 71.5267 0.485 73.2299 0.8342 74.9134C1.6781 78.9793 2.9003 82.8975 4.4814 86.6287C4.7724 87.3178 5.0828 87.9971 5.4029 88.6764L16.9922 83.5473C16.74 82.996 16.4878 82.4545 16.2453 81.8933L16.255 81.913Z" fill="white"/>
<path d="M113.575 96.3262L103.671 89.74C101.799 92.6344 99.6454 95.3318 97.2398 97.7635C95.94 99.0827 94.5723 100.313 93.1367 101.475L100.528 110.857C102.303 109.41 104.001 107.884 105.611 106.26C108.589 103.237 111.256 99.9097 113.575 96.3262Z" fill="white"/>
<path d="M43.5213 108.947C41.2515 108.021 39.0593 106.939 36.9738 105.698L31.0083 116.084C33.5982 117.62 36.3045 118.969 39.1175 120.111C42.3088 121.41 45.6456 122.444 49.0794 123.192L51.5723 111.438C48.7981 110.837 46.1015 110.01 43.5213 108.957V108.947Z" fill="white"/>
<path d="M107.814 42.1497C109.085 45.1623 110.084 48.3323 110.763 51.6205C111.044 52.979 111.267 54.3573 111.442 55.7553L124.069 54.2589C123.855 52.536 123.584 50.8329 123.235 49.1494C122.391 45.0835 121.169 41.1653 119.587 37.4341C119.296 36.7449 118.986 36.0656 118.666 35.3864L107.077 40.5057C107.329 41.057 107.591 41.6083 107.824 42.1596L107.814 42.1497Z" fill="white"/>
<path d="M80.5564 15.1259C82.8262 16.0513 85.0087 17.1441 87.1039 18.3747L93.0694 7.98845C90.4795 6.45266 87.7732 5.10392 84.9602 3.96192C81.7689 2.6624 78.4321 1.6287 74.9983 0.880493L72.5054 12.6352C75.2796 13.2357 77.9762 14.0627 80.5564 15.1161V15.1259Z" fill="white"/>
<path d="M26.8368 26.3094C28.1365 24.9902 29.514 23.7596 30.9398 22.5979L23.5485 13.2158C21.7734 14.6532 20.0759 16.189 18.4657 17.8133C15.4878 20.8357 12.8203 24.1633 10.502 27.7468L20.4057 34.3329C22.2778 31.4386 24.4312 28.7411 26.8368 26.3094Z" fill="white"/>
<path d="M72.6216 114.746C72.6216 113.338 73.7468 112.196 75.1339 112.196C76.521 112.196 77.6462 113.338 77.6462 114.746C77.6462 116.153 76.521 117.295 75.1339 117.295C73.7468 117.295 72.6216 116.153 72.6216 114.746Z" fill="white"/>
<path d="M47.1494 9.32703C47.1494 7.91922 48.2746 6.77722 49.6617 6.77722C51.0488 6.77722 52.174 7.91922 52.174 9.32703C52.174 10.7348 51.0488 11.8768 49.6617 11.8768C48.2746 11.8768 47.1494 10.7348 47.1494 9.32703Z" fill="white"/>
<path d="M6.96191 52.4768C6.96191 51.069 8.08711 49.927 9.47421 49.927C10.8613 49.927 11.9865 51.069 11.9865 52.4768C11.9865 53.8846 10.8613 55.0266 9.47421 55.0266C8.08711 55.0266 6.96191 53.8846 6.96191 52.4768Z" fill="white"/>
<path d="M20.9495 99.6336C20.9495 98.2257 22.0747 97.0837 23.4618 97.0837C24.8489 97.0837 25.9741 98.2257 25.9741 99.6336C25.9741 101.041 24.8489 102.183 23.4618 102.183C22.0747 102.183 20.9495 101.041 20.9495 99.6336Z" fill="white"/>
<path d="M111.363 74.5096C111.363 73.1018 112.488 71.9598 113.875 71.9598C115.262 71.9598 116.387 73.1018 116.387 74.5096C116.387 75.9175 115.262 77.0595 113.875 77.0595C112.488 77.0595 111.363 75.9175 111.363 74.5096Z" fill="white"/>
<path d="M98.9861 25.8959C98.9861 24.4881 100.111 23.3461 101.498 23.3461C102.885 23.3461 104.011 24.4881 104.011 25.8959C104.011 27.3037 102.885 28.4457 101.498 28.4457C100.111 28.4457 98.9861 27.3037 98.9861 25.8959Z" fill="white"/>
<path d="M95.9377 40L98.8896 38.0321C97.2858 35.6312 95.4556 33.3976 93.4188 31.3706L90.9097 33.8797C92.7792 35.7493 94.4618 37.8057 95.9377 40Z" fill="white"/>
<path d="M99.4806 46.5138L102.738 45.1166C101.665 42.6272 100.376 40.2558 98.8804 38.0222L95.9285 39.9901C97.2962 42.0368 98.4868 44.2212 99.4707 46.5138H99.4806Z" fill="#C80E2D"/>
<path d="M101.882 54.0708L105.355 53.3427C104.755 50.4892 103.879 47.734 102.748 45.1167L99.4907 46.5139C100.524 48.9246 101.331 51.4534 101.882 54.0708Z" fill="white"/>
<path d="M90.9097 90.9106L93.4188 93.4197C95.5638 91.2746 97.4727 88.9033 99.1455 86.3548L96.1739 84.4164C94.6389 86.7582 92.8776 88.9328 90.9097 90.9106Z" fill="#C80E2D"/>
<path d="M24.945 47.3898L21.6487 46.0713C20.6549 48.5509 19.8678 51.1387 19.3364 53.8151L22.8197 54.5137C23.3116 52.0538 24.0299 49.6824 24.945 47.3996V47.3898Z" fill="#C80E2D"/>
<path d="M22.9082 70.7097L19.4348 71.4378C20.035 74.2914 20.9108 77.0465 22.0325 79.6638L25.2992 78.2666C24.2661 75.8559 23.4592 73.3271 22.9082 70.7097Z" fill="white"/>
<path d="M22.8202 54.5038L19.3369 53.8052C18.7859 56.58 18.4907 59.4531 18.4907 62.3854H22.0428C22.0428 59.6893 22.3183 57.0523 22.8202 54.494V54.5038Z" fill="white"/>
<path d="M22.0428 62.3951H18.4907C18.4907 65.4946 18.8154 68.5253 19.4353 71.4476L22.9087 70.7195C22.3479 68.0333 22.0428 65.2585 22.0428 62.405V62.3951Z" fill="#C80E2D"/>
<path d="M25.299 78.2665L22.0322 79.6637C23.1047 82.1531 24.3937 84.5245 25.8894 86.7581L28.8413 84.7902C27.4736 82.7435 26.283 80.5591 25.299 78.2763V78.2665Z" fill="#C80E2D"/>
<path d="M33.87 90.9105L31.3608 93.4196C33.5059 95.5647 35.8772 97.4736 38.4257 99.1463L40.3641 96.1747C38.0223 94.6398 35.8477 92.8785 33.87 90.9105Z" fill="#C80E2D"/>
<path d="M28.8413 84.7904L25.8894 86.7583C27.4933 89.1592 29.3234 91.3928 31.3603 93.4197L33.8694 90.9106C31.9998 89.0411 30.3173 86.9846 28.8413 84.7805V84.7904Z" fill="white"/>
<path d="M40.364 96.1746L38.4255 99.1462C40.8264 100.711 43.3847 102.059 46.071 103.131L47.3895 99.835C44.9197 98.8412 42.568 97.6112 40.364 96.1648V96.1746Z" fill="white"/>
<path d="M28.6056 40.3642L25.634 38.4258C24.0695 40.8267 22.7313 43.385 21.6489 46.0712L24.9452 47.3897C25.939 44.92 27.169 42.5683 28.6056 40.3642Z" fill="white"/>
<path d="M62.3953 22.0428V18.4907C59.2958 18.4907 56.2652 18.8154 53.3428 19.4353L54.0709 22.9087C56.7571 22.3479 59.5319 22.0428 62.3854 22.0428H62.3953Z" fill="#C80E2D"/>
<path d="M46.5131 25.2997L45.1159 22.0427C42.6264 23.1152 40.2551 24.4042 38.0215 25.8999L39.9894 28.8518C42.0361 27.4841 44.2205 26.2935 46.5131 25.3095V25.2997Z" fill="#C80E2D"/>
<path d="M54.0708 22.9087L53.3427 19.4353C50.4892 20.0355 47.7439 20.9113 45.1167 22.0428L46.5139 25.2997C48.9246 24.2666 51.4534 23.4597 54.0708 22.9087Z" fill="white"/>
<path d="M33.8696 33.87L31.3605 31.3608C29.2154 33.5059 27.3065 35.8772 25.6338 38.4257L28.6054 40.3641C30.1404 38.0223 31.9017 35.8477 33.8696 33.87Z" fill="#C80E2D"/>
<path d="M39.9997 28.8422L38.0318 25.8903C35.6309 27.4941 33.3973 29.3243 31.3704 31.3611L33.8795 33.8702C35.749 32.0007 37.7957 30.3181 39.9997 28.8422Z" fill="white"/>
<path d="M101.882 54.0708C102.443 56.757 102.748 59.5318 102.748 62.3853H106.3C106.3 59.2858 105.975 56.2552 105.355 53.3427L101.882 54.0708Z" fill="#C80E2D"/>
<path d="M101.96 70.2767L105.444 70.9753C105.995 68.2005 106.29 65.3274 106.29 62.3951H102.738C102.738 65.0912 102.462 67.7282 101.96 70.2866V70.2767Z" fill="white"/>
<path d="M90.9107 33.8701L93.4198 31.361C91.2747 29.2159 88.9034 27.307 86.3549 25.6343L84.4165 28.6059C86.7583 30.1408 88.9329 31.9021 90.9107 33.8701Z" fill="#C80E2D"/>
<path d="M99.8442 77.3908L103.141 78.7093C104.134 76.2297 104.922 73.6517 105.453 70.9753L101.97 70.2767C101.478 72.7366 100.759 75.108 99.8442 77.3908Z" fill="#C80E2D"/>
<path d="M47.3893 99.8448L46.0708 103.141C48.5504 104.135 51.1382 104.922 53.8146 105.453L54.5034 101.97C52.0435 101.478 49.6721 100.76 47.3893 99.8448Z" fill="#C80E2D"/>
<path d="M84.4159 28.6057L86.3543 25.6341C83.9534 24.0696 81.3951 22.7314 78.7089 21.649L77.3904 24.9453C79.8601 25.9391 82.2118 27.1691 84.4159 28.6057Z" fill="white"/>
<path d="M77.3902 24.9454L78.7087 21.6491C76.2291 20.6553 73.6511 19.8681 70.9747 19.3368L70.2761 22.82C72.736 23.312 75.1074 24.0303 77.3902 24.9454Z" fill="#C80E2D"/>
<path d="M96.1746 84.4163L99.1462 86.3547C100.711 83.9538 102.049 81.3955 103.131 78.7093L99.835 77.3907C98.8412 79.8605 97.6112 82.2122 96.1648 84.4163H96.1746Z" fill="white"/>
<path d="M62.394 102.748V106.3C65.4935 106.3 68.5242 105.975 71.4465 105.355L70.7184 101.882C68.0322 102.443 65.2574 102.748 62.4039 102.748H62.394Z" fill="#C80E2D"/>
<path d="M70.2756 22.8202L70.9742 19.3369C68.1994 18.7859 65.3263 18.4907 62.394 18.4907V22.0428C65.0901 22.0428 67.7271 22.3183 70.2855 22.8202H70.2756Z" fill="white"/>
<path d="M54.5035 101.96L53.8147 105.444C56.5895 105.995 59.4627 106.29 62.3949 106.29V102.738C59.6988 102.738 57.0618 102.462 54.5035 101.96Z" fill="white"/>
<path d="M70.7087 101.882L71.4369 105.355C74.2904 104.755 77.0356 103.879 79.6628 102.748L78.2656 99.4908C75.8549 100.524 73.3261 101.331 70.7087 101.882Z" fill="white"/>
<path d="M78.2661 99.4808L79.6633 102.738C82.1528 101.665 84.5241 100.376 86.7577 98.8806L84.7898 95.9287C82.7432 97.2964 80.5588 98.487 78.2661 99.471V99.4808Z" fill="#C80E2D"/>
<path d="M84.7896 95.9386L86.7576 98.8905C89.1584 97.2866 91.392 95.4564 93.419 93.4196L90.9099 90.9105C89.0404 92.7801 86.9839 94.4626 84.7798 95.9386H84.7896Z" fill="white"/>
</svg>
