<svg width="134" height="133" viewBox="0 0 134 133" fill="none" xmlns="http://www.w3.org/2000/svg">
<circle cx="71.3596" cy="62.0364" r="62.0364" fill="#3E75BB"/>
<path d="M25.5783 81.913C24.3076 78.9005 23.3085 75.7305 22.6295 72.4423C22.3482 71.0837 22.1251 69.7055 21.9505 68.3075L9.32324 69.8039C9.53664 71.5267 9.80824 73.2299 10.1574 74.9134C11.0013 78.9793 12.2235 82.8975 13.8046 86.6287C14.0956 87.3178 14.406 87.9971 14.7261 88.6764L26.3155 83.5473C26.0633 82.996 25.8111 82.4545 25.5686 81.8933L25.5783 81.913Z" fill="white"/>
<path d="M122.897 96.3262L112.993 89.74C111.121 92.6344 108.968 95.3318 106.562 97.7635C105.262 99.0827 103.895 100.313 102.459 101.475L109.85 110.857C111.625 109.41 113.323 107.884 114.933 106.26C117.911 103.237 120.579 99.9097 122.897 96.3262Z" fill="white"/>
<path d="M52.845 108.947C50.5752 108.021 48.383 106.939 46.2975 105.698L40.332 116.084C42.9219 117.62 45.6282 118.969 48.4412 120.111C51.6325 121.41 54.9693 122.444 58.4031 123.192L60.896 111.438C58.1218 110.837 55.4252 110.01 52.845 108.957V108.947Z" fill="white"/>
<path d="M117.136 42.1497C118.407 45.1623 119.406 48.3323 120.085 51.6205C120.366 52.979 120.589 54.3573 120.764 55.7553L133.391 54.2589C133.178 52.536 132.906 50.8329 132.557 49.1494C131.713 45.0835 130.491 41.1653 128.91 37.4341C128.619 36.7449 128.308 36.0656 127.988 35.3864L116.399 40.5057C116.651 41.057 116.913 41.6083 117.146 42.1596L117.136 42.1497Z" fill="white"/>
<path d="M89.8786 15.1259C92.1484 16.0513 94.3309 17.1441 96.4261 18.3747L102.392 7.98845C99.8017 6.45266 97.0954 5.10392 94.2824 3.96192C91.0911 2.6624 87.7543 1.6287 84.3205 0.880493L81.8276 12.6352C84.6018 13.2357 87.2984 14.0627 89.8786 15.1161V15.1259Z" fill="white"/>
<path d="M36.1605 26.3094C37.4603 24.9902 38.8377 23.7596 40.2636 22.5979L32.8722 13.2158C31.0971 14.6532 29.3996 16.189 27.7894 17.8133C24.8115 20.8357 22.144 24.1633 19.8257 27.7468L29.7294 34.3329C31.6015 31.4386 33.7549 28.7411 36.1605 26.3094Z" fill="white"/>
<path d="M81.9438 114.746C81.9438 113.338 83.069 112.196 84.4561 112.196C85.8432 112.196 86.9684 113.338 86.9684 114.746C86.9684 116.153 85.8432 117.295 84.4561 117.295C83.069 117.295 81.9438 116.153 81.9438 114.746Z" fill="white"/>
<path d="M56.4731 9.32703C56.4731 7.91922 57.5983 6.77722 58.9854 6.77722C60.3725 6.77722 61.4977 7.91922 61.4977 9.32703C61.4977 10.7348 60.3725 11.8768 58.9854 11.8768C57.5983 11.8768 56.4731 10.7348 56.4731 9.32703Z" fill="white"/>
<path d="M16.2856 52.4768C16.2856 51.069 17.4108 49.927 18.7979 49.927C20.185 49.927 21.3102 51.069 21.3102 52.4768C21.3102 53.8846 20.185 55.0266 18.7979 55.0266C17.4108 55.0266 16.2856 53.8846 16.2856 52.4768Z" fill="white"/>
<path d="M30.2729 99.6336C30.2729 98.2257 31.3981 97.0837 32.7852 97.0837C34.1723 97.0837 35.2975 98.2257 35.2975 99.6336C35.2975 101.041 34.1723 102.183 32.7852 102.183C31.3981 102.183 30.2729 101.041 30.2729 99.6336Z" fill="white"/>
<path d="M120.685 74.5098C120.685 73.102 121.81 71.96 123.197 71.96C124.584 71.96 125.71 73.102 125.71 74.5098C125.71 75.9176 124.584 77.0596 123.197 77.0596C121.81 77.0596 120.685 75.9176 120.685 74.5098Z" fill="white"/>
<path d="M108.309 25.8959C108.309 24.4881 109.434 23.3461 110.821 23.3461C112.208 23.3461 113.333 24.4881 113.333 25.8959C113.333 27.3037 112.208 28.4457 110.821 28.4457C109.434 28.4457 108.309 27.3037 108.309 25.8959Z" fill="white"/>
<path d="M105.262 40L108.214 38.0321C106.61 35.6312 104.78 33.3976 102.743 31.3706L100.234 33.8797C102.104 35.7493 103.786 37.8057 105.262 40Z" fill="white"/>
<path d="M108.805 46.5138L112.062 45.1166C110.989 42.6272 109.7 40.2558 108.205 38.0222L105.253 39.9901C106.621 42.0368 107.811 44.2212 108.795 46.5138H108.805Z" fill="#254D81"/>
<path d="M111.206 54.0708L114.68 53.3427C114.08 50.4892 113.204 47.734 112.072 45.1167L108.815 46.5139C109.849 48.9246 110.655 51.4534 111.206 54.0708Z" fill="white"/>
<path d="M100.234 90.9106L102.743 93.4197C104.889 91.2746 106.797 88.9033 108.47 86.3548L105.499 84.4164C103.964 86.7582 102.202 88.9328 100.234 90.9106Z" fill="#254D81"/>
<path d="M34.2683 47.3898L30.972 46.0713C29.9782 48.5509 29.191 51.1387 28.6597 53.8151L32.1429 54.5137C32.6349 52.0538 33.3532 49.6824 34.2683 47.3996V47.3898Z" fill="#254D81"/>
<path d="M32.2317 70.7097L28.7583 71.4378C29.3585 74.2914 30.2342 77.0465 31.356 79.6638L34.6227 78.2666C33.5896 75.8559 32.7827 73.3271 32.2317 70.7097Z" fill="white"/>
<path d="M32.1439 54.5038L28.6607 53.8052C28.1096 56.58 27.8145 59.4531 27.8145 62.3854H31.3666C31.3666 59.6893 31.6421 57.0523 32.1439 54.494V54.5038Z" fill="white"/>
<path d="M31.3666 62.3951H27.8145C27.8145 65.4946 28.1392 68.5253 28.7591 71.4476L32.2325 70.7195C31.6716 68.0333 31.3666 65.2585 31.3666 62.405V62.3951Z" fill="#254D81"/>
<path d="M34.6222 78.2665L31.3555 79.6637C32.428 82.1531 33.717 84.5245 35.2126 86.7581L38.1645 84.7902C36.7968 82.7435 35.6062 80.5591 34.6222 78.2763V78.2665Z" fill="#254D81"/>
<path d="M43.1937 90.9105L40.6846 93.4196C42.8296 95.5647 45.201 97.4736 47.7494 99.1463L49.6879 96.1747C47.346 94.6398 45.1715 92.8785 43.1937 90.9105Z" fill="#254D81"/>
<path d="M38.1648 84.7904L35.2129 86.7583C36.8168 89.1592 38.6469 91.3928 40.6837 93.4197L43.1929 90.9106C41.3233 89.0411 39.6407 86.9846 38.1648 84.7805V84.7904Z" fill="white"/>
<path d="M49.6874 96.1746L47.749 99.1462C50.1499 100.711 52.7082 102.059 55.3944 103.131L56.713 99.835C54.2432 98.8412 51.8915 97.6112 49.6874 96.1648V96.1746Z" fill="white"/>
<path d="M37.9293 40.3642L34.9577 38.4258C33.3932 40.8267 32.055 43.385 30.9727 46.0712L34.2689 47.3897C35.2627 44.92 36.4927 42.5683 37.9293 40.3642Z" fill="white"/>
<path d="M71.72 22.0428V18.4907C68.6205 18.4907 65.5899 18.8154 62.6675 19.4353L63.3956 22.9087C66.0818 22.3479 68.8566 22.0428 71.7101 22.0428H71.72Z" fill="#254D81"/>
<path d="M55.8364 25.2997L54.4391 22.0427C51.9497 23.1152 49.5783 24.4042 47.3447 25.8999L49.3127 28.8518C51.3593 27.4841 53.5437 26.2935 55.8364 25.3095V25.2997Z" fill="#254D81"/>
<path d="M63.3945 22.9087L62.6664 19.4353C59.8129 20.0355 57.0676 20.9113 54.4404 22.0428L55.8377 25.2997C58.2484 24.2666 60.7772 23.4597 63.3945 22.9087Z" fill="white"/>
<path d="M43.1928 33.87L40.6837 31.3608C38.5387 33.5059 36.6298 35.8772 34.957 38.4257L37.9286 40.3641C39.4636 38.0223 41.2249 35.8477 43.1928 33.87Z" fill="#254D81"/>
<path d="M49.3232 28.8422L47.3553 25.8903C44.9544 27.4941 42.7208 29.3243 40.6938 31.3611L43.203 33.8702C45.0725 32.0007 47.1191 30.3181 49.3232 28.8422Z" fill="white"/>
<path d="M111.207 54.0708C111.767 56.757 112.072 59.5318 112.072 62.3853H115.625C115.625 59.2858 115.3 56.2552 114.68 53.3427L111.207 54.0708Z" fill="#254D81"/>
<path d="M111.285 70.2768L114.768 70.9754C115.319 68.2007 115.615 65.3275 115.615 62.3953H112.062C112.062 65.0913 111.787 67.7284 111.285 70.2867V70.2768Z" fill="white"/>
<path d="M100.235 33.8702L102.744 31.3611C100.599 29.216 98.2281 27.3071 95.6796 25.6344L93.7412 28.606C96.083 30.141 98.2576 31.9023 100.235 33.8702Z" fill="#254D81"/>
<path d="M109.169 77.3909L112.465 78.7094C113.459 76.2298 114.246 73.6519 114.778 70.9755L111.294 70.2769C110.802 72.7368 110.084 75.1081 109.169 77.3909Z" fill="#254D81"/>
<path d="M56.7126 99.8448L55.394 103.141C57.8736 104.135 60.4615 104.922 63.1379 105.453L63.8266 101.97C61.3667 101.478 58.9954 100.76 56.7126 99.8448Z" fill="#254D81"/>
<path d="M93.7404 28.6058L95.6788 25.6342C93.2779 24.0697 90.7196 22.7315 88.0334 21.6492L86.7148 24.9455C89.1846 25.9393 91.5363 27.1692 93.7404 28.6058Z" fill="white"/>
<path d="M86.7151 24.9454L88.0337 21.6491C85.5541 20.6553 82.9761 19.8681 80.2997 19.3368L79.6011 22.82C82.061 23.312 84.4323 24.0303 86.7151 24.9454Z" fill="#254D81"/>
<path d="M105.5 84.4163L108.471 86.3547C110.036 83.9538 111.374 81.3955 112.456 78.7093L109.16 77.3907C108.166 79.8605 106.936 82.2122 105.49 84.4163H105.5Z" fill="white"/>
<path d="M71.7188 102.748V106.3C74.8182 106.3 77.8489 105.975 80.7712 105.355L80.0431 101.882C77.3569 102.443 74.5821 102.748 71.7286 102.748H71.7188Z" fill="#254D81"/>
<path d="M79.6003 22.8202L80.2989 19.3369C77.5241 18.7859 74.651 18.4907 71.7188 18.4907V22.0428C74.4148 22.0428 77.0518 22.3183 79.6102 22.8202H79.6003Z" fill="white"/>
<path d="M63.8284 101.96L63.1396 105.444C65.9144 105.995 68.7876 106.29 71.7198 106.29V102.738C69.0238 102.738 66.3867 102.462 63.8284 101.96Z" fill="white"/>
<path d="M80.0332 101.882L80.7613 105.355C83.6148 104.755 86.3601 103.879 88.9873 102.748L87.5901 99.4908C85.1793 100.524 82.6506 101.331 80.0332 101.882Z" fill="white"/>
<path d="M87.5908 99.4809L88.9881 102.738C91.4775 101.665 93.8488 100.376 96.0824 98.8807L94.1145 95.9288C92.0679 97.2965 89.8835 98.4871 87.5908 99.4711V99.4809Z" fill="#254D81"/>
<path d="M94.1143 95.9387L96.0823 98.8906C98.4831 97.2867 100.717 95.4566 102.744 93.4198L100.235 90.9106C98.3651 92.7802 96.3086 94.4628 94.1045 95.9387H94.1143Z" fill="white"/>
<path d="M65.2544 55.6891H78.1684V59.0771H66.5964L68.4224 58.2851L67.4984 64.2031L66.3764 64.2251C66.6991 63.6678 67.1391 63.1618 67.6964 62.7071C68.2537 62.2524 68.9431 61.8931 69.7644 61.6291C70.5857 61.3504 71.5391 61.2111 72.6244 61.2111C74.0324 61.2111 75.2424 61.4458 76.2544 61.9151C77.2811 62.3698 78.0731 63.0078 78.6304 63.8291C79.1877 64.6358 79.4664 65.5744 79.4664 66.6451C79.4664 67.7891 79.1437 68.8084 78.4984 69.7031C77.8677 70.5831 76.9511 71.2798 75.7484 71.7931C74.5604 72.2918 73.1231 72.5411 71.4364 72.5411C69.8084 72.5411 68.3857 72.3064 67.1684 71.8371C65.9657 71.3531 65.0197 70.7078 64.3304 69.9011C63.6557 69.0798 63.2671 68.1631 63.1644 67.1511H67.6964C67.8431 67.7231 68.2391 68.1851 68.8844 68.5371C69.5297 68.8744 70.3804 69.0431 71.4364 69.0431C72.1697 69.0431 72.7931 68.9478 73.3064 68.7571C73.8197 68.5518 74.2157 68.2731 74.4944 67.9211C74.7731 67.5544 74.9124 67.1218 74.9124 66.6231C74.9124 66.1538 74.7877 65.7358 74.5384 65.3691C74.2891 65.0024 73.9151 64.7238 73.4164 64.5331C72.9177 64.3278 72.3017 64.2251 71.5684 64.2251C70.9524 64.2251 70.4024 64.2911 69.9184 64.4231C69.4344 64.5551 69.0091 64.7238 68.6424 64.9291C68.2904 65.1344 67.9897 65.3544 67.7404 65.5891H63.8024L65.2544 55.6891ZM71.4126 99.5411C69.5353 99.5411 67.8999 99.1891 66.5066 98.4851C65.1133 97.7664 64.0353 96.7618 63.2726 95.4711C62.5246 94.1804 62.1506 92.6698 62.1506 90.9391C62.1506 89.2084 62.5246 87.6978 63.2726 86.4071C64.0353 85.1164 65.1133 84.1191 66.5066 83.4151C67.8999 82.6964 69.5353 82.3371 71.4126 82.3371C73.2753 82.3371 74.8959 82.6964 76.2746 83.4151C77.6679 84.1191 78.7459 85.1164 79.5086 86.4071C80.2713 87.6978 80.6526 89.2084 80.6526 90.9391C80.6526 92.6698 80.2713 94.1804 79.5086 95.4711C78.7459 96.7618 77.6679 97.7664 76.2746 98.4851C74.8959 99.1891 73.2753 99.5411 71.4126 99.5411ZM71.4126 95.8451C72.8939 95.8451 74.0453 95.4198 74.8666 94.5691C75.6879 93.7038 76.0986 92.4938 76.0986 90.9391C76.0986 89.3698 75.6879 88.1598 74.8666 87.3091C74.0453 86.4584 72.8939 86.0331 71.4126 86.0331C69.9313 86.0331 68.7726 86.4584 67.9366 87.3091C67.1006 88.1598 66.6826 89.3698 66.6826 90.9391C66.6826 92.4938 67.1006 93.7038 67.9366 94.5691C68.7726 95.4198 69.9313 95.8451 71.4126 95.8451Z" fill="white"/>
<g filter="url(#filter0_d_49_8576)">
<circle cx="62.0364" cy="62.0364" r="62.0364" fill="#3E75BB"/>
<path d="M16.255 81.913C14.9843 78.9005 13.9852 75.7305 13.3062 72.4423C13.0249 71.0837 12.8018 69.7055 12.6272 68.3075L0 69.8039C0.2134 71.5267 0.485 73.2299 0.8342 74.9134C1.6781 78.9793 2.9003 82.8975 4.4814 86.6287C4.7724 87.3178 5.0828 87.9971 5.4029 88.6764L16.9922 83.5473C16.74 82.996 16.4878 82.4545 16.2453 81.8933L16.255 81.913Z" fill="white"/>
<path d="M113.575 96.3262L103.671 89.74C101.799 92.6344 99.6454 95.3318 97.2398 97.7635C95.94 99.0827 94.5723 100.313 93.1367 101.475L100.528 110.857C102.303 109.41 104.001 107.884 105.611 106.26C108.589 103.237 111.256 99.9097 113.575 96.3262Z" fill="white"/>
<path d="M43.5213 108.947C41.2515 108.021 39.0593 106.939 36.9738 105.698L31.0083 116.084C33.5982 117.62 36.3045 118.969 39.1175 120.111C42.3088 121.41 45.6456 122.444 49.0794 123.192L51.5723 111.438C48.7981 110.837 46.1015 110.01 43.5213 108.957V108.947Z" fill="white"/>
<path d="M107.814 42.1497C109.085 45.1623 110.084 48.3323 110.763 51.6205C111.044 52.979 111.267 54.3573 111.442 55.7553L124.069 54.2589C123.855 52.536 123.584 50.8329 123.235 49.1494C122.391 45.0835 121.169 41.1653 119.587 37.4341C119.296 36.7449 118.986 36.0656 118.666 35.3864L107.077 40.5057C107.329 41.057 107.591 41.6083 107.824 42.1596L107.814 42.1497Z" fill="white"/>
<path d="M80.5564 15.1259C82.8262 16.0513 85.0087 17.1441 87.1039 18.3747L93.0694 7.98845C90.4795 6.45266 87.7732 5.10392 84.9602 3.96192C81.7689 2.6624 78.4321 1.6287 74.9983 0.880493L72.5054 12.6352C75.2796 13.2357 77.9762 14.0627 80.5564 15.1161V15.1259Z" fill="white"/>
<path d="M26.8368 26.3094C28.1365 24.9902 29.514 23.7596 30.9398 22.5979L23.5485 13.2158C21.7734 14.6532 20.0759 16.189 18.4657 17.8133C15.4878 20.8357 12.8203 24.1633 10.502 27.7468L20.4057 34.3329C22.2778 31.4386 24.4312 28.7411 26.8368 26.3094Z" fill="white"/>
<path d="M72.6216 114.746C72.6216 113.338 73.7468 112.196 75.1339 112.196C76.521 112.196 77.6462 113.338 77.6462 114.746C77.6462 116.153 76.521 117.295 75.1339 117.295C73.7468 117.295 72.6216 116.153 72.6216 114.746Z" fill="white"/>
<path d="M47.1494 9.32703C47.1494 7.91922 48.2746 6.77722 49.6617 6.77722C51.0488 6.77722 52.174 7.91922 52.174 9.32703C52.174 10.7348 51.0488 11.8768 49.6617 11.8768C48.2746 11.8768 47.1494 10.7348 47.1494 9.32703Z" fill="white"/>
<path d="M6.96191 52.4768C6.96191 51.069 8.08711 49.927 9.47421 49.927C10.8613 49.927 11.9865 51.069 11.9865 52.4768C11.9865 53.8846 10.8613 55.0266 9.47421 55.0266C8.08711 55.0266 6.96191 53.8846 6.96191 52.4768Z" fill="white"/>
<path d="M20.9497 99.6336C20.9497 98.2257 22.0749 97.0837 23.462 97.0837C24.8491 97.0837 25.9743 98.2257 25.9743 99.6336C25.9743 101.041 24.8491 102.183 23.462 102.183C22.0749 102.183 20.9497 101.041 20.9497 99.6336Z" fill="white"/>
<path d="M111.363 74.5096C111.363 73.1018 112.488 71.9598 113.875 71.9598C115.262 71.9598 116.387 73.1018 116.387 74.5096C116.387 75.9175 115.262 77.0595 113.875 77.0595C112.488 77.0595 111.363 75.9175 111.363 74.5096Z" fill="white"/>
<path d="M98.9863 25.8959C98.9863 24.4881 100.112 23.3461 101.499 23.3461C102.886 23.3461 104.011 24.4881 104.011 25.8959C104.011 27.3037 102.886 28.4457 101.499 28.4457C100.112 28.4457 98.9863 27.3037 98.9863 25.8959Z" fill="white"/>
<path d="M95.9377 40L98.8896 38.0321C97.2858 35.6312 95.4556 33.3976 93.4188 31.3706L90.9097 33.8797C92.7792 35.7493 94.4618 37.8057 95.9377 40Z" fill="white"/>
<path d="M99.4803 46.5138L102.737 45.1166C101.665 42.6272 100.376 40.2558 98.8801 38.0222L95.9282 39.9901C97.2959 42.0368 98.4865 44.2212 99.4705 46.5138H99.4803Z" fill="#254D81"/>
<path d="M101.882 54.0708L105.355 53.3427C104.755 50.4892 103.879 47.734 102.748 45.1167L99.4907 46.5139C100.524 48.9246 101.331 51.4534 101.882 54.0708Z" fill="white"/>
<path d="M90.9097 90.9106L93.4188 93.4197C95.5638 91.2746 97.4727 88.9033 99.1455 86.3548L96.1739 84.4164C94.6389 86.7582 92.8776 88.9328 90.9097 90.9106Z" fill="#254D81"/>
<path d="M24.945 47.3898L21.6487 46.0713C20.6549 48.5509 19.8678 51.1387 19.3364 53.8151L22.8197 54.5137C23.3116 52.0538 24.0299 49.6824 24.945 47.3996V47.3898Z" fill="#254D81"/>
<path d="M22.9085 70.7097L19.4351 71.4378C20.0353 74.2914 20.911 77.0465 22.0327 79.6638L25.2995 78.2666C24.2663 75.8559 23.4595 73.3271 22.9085 70.7097Z" fill="white"/>
<path d="M22.8202 54.5038L19.3369 53.8052C18.7859 56.58 18.4907 59.4531 18.4907 62.3854H22.0428C22.0428 59.6893 22.3183 57.0523 22.8202 54.494V54.5038Z" fill="white"/>
<path d="M22.0428 62.3951H18.4907C18.4907 65.4946 18.8154 68.5253 19.4353 71.4476L22.9087 70.7195C22.3479 68.0333 22.0428 65.2585 22.0428 62.405V62.3951Z" fill="#254D81"/>
<path d="M25.299 78.2665L22.0322 79.6637C23.1047 82.1531 24.3937 84.5245 25.8894 86.7581L28.8413 84.7902C27.4736 82.7435 26.283 80.5591 25.299 78.2763V78.2665Z" fill="#254D81"/>
<path d="M33.87 90.9105L31.3608 93.4196C33.5059 95.5647 35.8772 97.4736 38.4257 99.1463L40.3641 96.1747C38.0223 94.6398 35.8477 92.8785 33.87 90.9105Z" fill="#254D81"/>
<path d="M28.8415 84.7904L25.8896 86.7583C27.4935 89.1592 29.3237 91.3928 31.3605 93.4197L33.8696 90.9106C32.0001 89.0411 30.3175 86.9846 28.8415 84.7805V84.7904Z" fill="white"/>
<path d="M40.3642 96.1746L38.4258 99.1462C40.8267 100.711 43.385 102.059 46.0712 103.131L47.3897 99.835C44.92 98.8412 42.5683 97.6112 40.3642 96.1648V96.1746Z" fill="white"/>
<path d="M28.6056 40.3642L25.634 38.4258C24.0695 40.8267 22.7313 43.385 21.6489 46.0712L24.9452 47.3897C25.939 44.92 27.169 42.5683 28.6056 40.3642Z" fill="white"/>
<path d="M62.3953 22.0428V18.4907C59.2958 18.4907 56.2652 18.8154 53.3428 19.4353L54.0709 22.9087C56.7571 22.3479 59.5319 22.0428 62.3854 22.0428H62.3953Z" fill="#254D81"/>
<path d="M46.5131 25.2997L45.1159 22.0427C42.6264 23.1152 40.2551 24.4042 38.0215 25.8999L39.9894 28.8518C42.0361 27.4841 44.2205 26.2935 46.5131 25.3095V25.2997Z" fill="#254D81"/>
<path d="M54.0708 22.9087L53.3427 19.4353C50.4892 20.0355 47.7439 20.9113 45.1167 22.0428L46.5139 25.2997C48.9246 24.2666 51.4534 23.4597 54.0708 22.9087Z" fill="white"/>
<path d="M33.8696 33.87L31.3605 31.3608C29.2154 33.5059 27.3065 35.8772 25.6338 38.4257L28.6054 40.3641C30.1404 38.0223 31.9017 35.8477 33.8696 33.87Z" fill="#254D81"/>
<path d="M40 28.8422L38.0321 25.8903C35.6312 27.4941 33.3976 29.3243 31.3706 31.3611L33.8797 33.8702C35.7493 32.0007 37.7959 30.3181 40 28.8422Z" fill="white"/>
<path d="M101.882 54.0708C102.443 56.757 102.748 59.5318 102.748 62.3853H106.3C106.3 59.2858 105.975 56.2552 105.355 53.3427L101.882 54.0708Z" fill="#254D81"/>
<path d="M101.96 70.2767L105.444 70.9753C105.995 68.2005 106.29 65.3274 106.29 62.3951H102.738C102.738 65.0912 102.462 67.7282 101.96 70.2866V70.2767Z" fill="white"/>
<path d="M90.9107 33.8701L93.4198 31.361C91.2747 29.2159 88.9034 27.307 86.3549 25.6343L84.4165 28.6059C86.7583 30.1408 88.9329 31.9021 90.9107 33.8701Z" fill="#254D81"/>
<path d="M99.8442 77.3908L103.141 78.7093C104.134 76.2297 104.922 73.6517 105.453 70.9753L101.97 70.2767C101.478 72.7366 100.759 75.108 99.8442 77.3908Z" fill="#254D81"/>
<path d="M47.3893 99.8448L46.0708 103.141C48.5504 104.135 51.1382 104.922 53.8146 105.453L54.5034 101.97C52.0435 101.478 49.6721 100.76 47.3893 99.8448Z" fill="#254D81"/>
<path d="M84.4161 28.6057L86.3546 25.6341C83.9537 24.0696 81.3954 22.7314 78.7091 21.649L77.3906 24.9453C79.8604 25.9391 82.2121 27.1691 84.4161 28.6057Z" fill="white"/>
<path d="M77.3904 24.9454L78.709 21.6491C76.2294 20.6553 73.6514 19.8681 70.975 19.3368L70.2764 22.82C72.7363 23.312 75.1076 24.0303 77.3904 24.9454Z" fill="#254D81"/>
<path d="M96.1749 84.4163L99.1465 86.3547C100.711 83.9538 102.049 81.3955 103.132 78.7093L99.8352 77.3907C98.8414 79.8605 97.6115 82.2122 96.165 84.4163H96.1749Z" fill="white"/>
<path d="M62.394 102.748V106.3C65.4935 106.3 68.5242 105.975 71.4465 105.355L70.7184 101.882C68.0322 102.443 65.2574 102.748 62.4039 102.748H62.394Z" fill="#254D81"/>
<path d="M70.2756 22.8202L70.9742 19.3369C68.1994 18.7859 65.3263 18.4907 62.394 18.4907V22.0428C65.0901 22.0428 67.7271 22.3183 70.2855 22.8202H70.2756Z" fill="white"/>
<path d="M54.5037 101.96L53.8149 105.444C56.5897 105.995 59.4629 106.29 62.3951 106.29V102.738C59.6991 102.738 57.062 102.462 54.5037 101.96Z" fill="white"/>
<path d="M70.709 101.882L71.4371 105.355C74.2906 104.755 77.0359 103.879 79.6631 102.748L78.2658 99.4908C75.8551 100.524 73.3263 101.331 70.709 101.882Z" fill="white"/>
<path d="M78.2661 99.4808L79.6633 102.738C82.1528 101.665 84.5241 100.376 86.7577 98.8806L84.7898 95.9287C82.7432 97.2964 80.5588 98.487 78.2661 99.471V99.4808Z" fill="#254D81"/>
<path d="M84.7896 95.9386L86.7576 98.8905C89.1584 97.2866 91.392 95.4564 93.419 93.4196L90.9099 90.9105C89.0404 92.7801 86.9839 94.4626 84.7798 95.9386H84.7896Z" fill="white"/>
</g>
<defs>
<filter id="filter0_d_49_8576" x="0" y="0" width="133.073" height="132.073" filterUnits="userSpaceOnUse" color-interpolation-filters="sRGB">
<feFlood flood-opacity="0" result="BackgroundImageFix"/>
<feColorMatrix in="SourceAlpha" type="matrix" values="0 0 0 0 0 0 0 0 0 0 0 0 0 0 0 0 0 0 127 0" result="hardAlpha"/>
<feOffset dx="5" dy="4"/>
<feGaussianBlur stdDeviation="2"/>
<feComposite in2="hardAlpha" operator="out"/>
<feColorMatrix type="matrix" values="0 0 0 0 0 0 0 0 0 0 0 0 0 0 0 0 0 0 0.45 0"/>
<feBlend mode="normal" in2="BackgroundImageFix" result="effect1_dropShadow_49_8576"/>
<feBlend mode="normal" in="SourceGraphic" in2="effect1_dropShadow_49_8576" result="shape"/>
</filter>
</defs>
</svg>
