<svg width="50" height="50" viewBox="0 0 46 31" fill="none" xmlns="http://www.w3.org/2000/svg">
<path d="M25.7514 2.65127C24.5179 3.43971 23.8743 4.0793 23.0799 5.30254C22.2854 4.07839 21.6409 3.43971 20.4083 2.65127C21.6418 1.86284 22.2854 1.22325 23.0799 0C23.8743 1.22415 24.5188 1.86284 25.7514 2.65127Z" fill="#FF6B00"/>
<path d="M40.5574 14.4022C41.791 15.1907 42.4345 15.8303 43.229 17.0535C44.0235 15.8294 44.668 15.1907 45.9006 14.4022C44.6671 13.6138 44.0235 12.9742 43.229 11.751C42.4345 12.9751 41.7901 13.6138 40.5574 14.4022Z" fill="#FF6B00"/>
<path d="M42.4201 14.0241C42.4201 14.0241 23.8116 10.9912 23.8116 29.312H32.7627C32.7627 29.312 29.8948 19.406 42.4201 14.0241Z" fill="#FF6B00"/>
<path d="M5.34318 14.4022C4.10965 15.1907 3.46607 15.8303 2.67159 17.0535C1.87711 15.8294 1.23262 15.1907 0 14.4022C1.23353 13.6138 1.87711 12.9742 2.67159 11.751C3.46607 12.9751 4.11056 13.6138 5.34318 14.4022Z" fill="#FF6B00"/>
<path d="M3.47974 14.0241C3.47974 14.0241 22.0882 10.9912 22.0882 29.312H13.1371C13.1371 29.312 16.005 19.406 3.47974 14.0241Z" fill="#FF6B00"/>
<path d="M17.7612 29.3111L23.0799 2.65137L28.0531 29.3111H17.7612Z" fill="#FF6B00"/>
<path d="M32.6118 28.9844H13.3016C13.0928 28.9844 12.9235 29.1524 12.9235 29.3596V30.4485C12.9235 30.6557 13.0928 30.8238 13.3016 30.8238H32.6118C32.8206 30.8238 32.9899 30.6557 32.9899 30.4485V29.3596C32.9899 29.1524 32.8206 28.9844 32.6118 28.9844Z" fill="#FF6B00"/>
</svg>
