<svg width="14" height="14" viewBox="0 0 14 14" fill="none" xmlns="http://www.w3.org/2000/svg">
<path d="M12.5 0.75H4.5C4.30109 0.75 4.11032 0.829018 3.96967 0.96967C3.82902 1.11032 3.75 1.30109 3.75 1.5V3.75H1.5C1.30109 3.75 1.11032 3.82902 0.96967 3.96967C0.829018 4.11032 0.75 4.30109 0.75 4.5V12.5C0.75 12.6989 0.829018 12.8897 0.96967 13.0303C1.11032 13.171 1.30109 13.25 1.5 13.25H9.5C9.69891 13.25 9.88968 13.171 10.0303 13.0303C10.171 12.8897 10.25 12.6989 10.25 12.5V10.25H12.5C12.6989 10.25 12.8897 10.171 13.0303 10.0303C13.171 9.88968 13.25 9.69891 13.25 9.5V1.5C13.25 1.30109 13.171 1.11032 13.0303 0.96967C12.8897 0.829018 12.6989 0.75 12.5 0.75ZM8.75 11.75H2.25V5.25H8.75V11.75ZM11.75 8.75H10.25V4.5C10.25 4.30109 10.171 4.11032 10.0303 3.96967C9.88968 3.82902 9.69891 3.75 9.5 3.75H5.25V2.25H11.75V8.75Z" fill="white"/>
</svg>
