<svg width="27" height="27" viewBox="0 0 27 27" fill="none" xmlns="http://www.w3.org/2000/svg">
<g clip-path="url(#clip0_37_879)">
<path d="M24.5858 7.72048C21.0196 1.8614 15.6473 5.93763 15.6473 5.93763C15.2989 6.20096 14.6565 6.41746 14.22 6.41846L12.781 6.41947C12.3445 6.41997 11.702 6.20347 11.3541 5.94015C11.3541 5.94015 5.9814 1.86291 2.4147 7.72199C-1.151 13.5791 0.285956 19.9577 0.285956 19.9577C0.537699 21.5195 1.36745 22.5618 2.93329 22.4309C4.4946 22.3005 7.88358 18.2247 7.88358 18.2247C8.16351 17.8889 8.75008 17.6145 9.18559 17.6145L17.8123 17.613C18.2484 17.613 18.8344 17.8874 19.1139 18.2232C19.1139 18.2232 22.5033 22.2989 24.0672 22.4294C25.631 22.5603 26.4628 21.517 26.713 19.9562C26.713 19.9562 28.152 13.5786 24.5858 7.72048ZM10.258 12.4895H8.40821V14.2724C8.40821 14.2724 8.0165 14.5714 7.4103 14.5639C6.80511 14.5548 6.53121 14.2376 6.53121 14.2376V12.49H4.78411C4.78411 12.49 4.5661 12.2665 4.50769 11.6779C4.4503 11.0893 4.74887 10.6135 4.74887 10.6135H6.59918V8.76371C6.59918 8.76371 6.97982 8.55979 7.52711 8.5754C8.0749 8.59252 8.47618 8.79845 8.47618 8.79845L8.46863 10.613H10.2157C10.2157 10.613 10.5208 11.0047 10.546 11.478C10.5712 11.9518 10.258 12.4895 10.258 12.4895ZM18.7428 14.5216C17.9327 14.5216 17.2797 13.8665 17.2797 13.0574C17.2797 12.2468 17.9327 11.5933 18.7428 11.5933C19.5494 11.5933 20.2074 12.2468 20.2074 13.0574C20.2074 13.8671 19.5494 14.5216 18.7428 14.5216ZM18.7428 10.4932C17.9327 10.4932 17.2797 9.83865 17.2797 9.02955C17.2797 8.21893 17.9327 7.56541 18.7428 7.56541C19.5494 7.56541 20.2074 8.21893 20.2074 9.02955C20.2074 9.83915 19.5494 10.4932 18.7428 10.4932ZM22.389 12.6557C21.5789 12.6557 20.9259 12.0011 20.9259 11.1915C20.9259 10.3814 21.5789 9.72738 22.389 9.72738C23.1956 9.72738 23.8537 10.3814 23.8537 11.1915C23.8537 12.0011 23.1956 12.6557 22.389 12.6557Z" fill="#888888"/>
</g>
<defs>
<clipPath id="clip0_37_879">
<rect width="27" height="27" fill="#888888"/>
</clipPath>
</defs>
</svg>
