<svg width="18" height="18" viewBox="0 0 18 18" fill="none" xmlns="http://www.w3.org/2000/svg">
<path d="M9 0.875C7.39303 0.875 5.82214 1.35152 4.486 2.24431C3.14985 3.1371 2.10844 4.40605 1.49348 5.8907C0.87852 7.37535 0.717618 9.00901 1.03112 10.5851C1.34463 12.1612 2.11846 13.6089 3.25476 14.7452C4.39106 15.8815 5.8388 16.6554 7.41489 16.9689C8.99099 17.2824 10.6247 17.1215 12.1093 16.5065C13.594 15.8916 14.8629 14.8502 15.7557 13.514C16.6485 12.1779 17.125 10.607 17.125 9C17.1227 6.84581 16.266 4.78051 14.7427 3.25727C13.2195 1.73403 11.1542 0.877275 9 0.875ZM9 14C8.81458 14 8.63333 13.945 8.47916 13.842C8.32499 13.739 8.20482 13.5926 8.13387 13.4213C8.06291 13.25 8.04434 13.0615 8.08052 12.8796C8.11669 12.6977 8.20598 12.5307 8.33709 12.3996C8.4682 12.2685 8.63525 12.1792 8.81711 12.143C8.99896 12.1068 9.18746 12.1254 9.35877 12.1964C9.53007 12.2673 9.67649 12.3875 9.7795 12.5417C9.88252 12.6958 9.9375 12.8771 9.9375 13.0625C9.9375 13.3111 9.83873 13.5496 9.66292 13.7254C9.4871 13.9012 9.24864 14 9 14ZM9.625 10.1937V10.25C9.625 10.4158 9.55916 10.5747 9.44195 10.6919C9.32473 10.8092 9.16576 10.875 9 10.875C8.83424 10.875 8.67527 10.8092 8.55806 10.6919C8.44085 10.5747 8.375 10.4158 8.375 10.25V9.625C8.375 9.45924 8.44085 9.30027 8.55806 9.18306C8.67527 9.06585 8.83424 9 9 9C10.0336 9 10.875 8.29687 10.875 7.4375C10.875 6.57812 10.0336 5.875 9 5.875C7.96641 5.875 7.125 6.57812 7.125 7.4375V7.75C7.125 7.91576 7.05915 8.07473 6.94194 8.19194C6.82473 8.30915 6.66576 8.375 6.5 8.375C6.33424 8.375 6.17527 8.30915 6.05806 8.19194C5.94085 8.07473 5.875 7.91576 5.875 7.75V7.4375C5.875 5.88672 7.27657 4.625 9 4.625C10.7234 4.625 12.125 5.88672 12.125 7.4375C12.125 8.79531 11.05 9.93203 9.625 10.1937Z" fill="#FF6B00"/>
</svg>
