<svg width="18" height="18" viewBox="0 0 18 18" fill="none" xmlns="http://www.w3.org/2000/svg">
<path d="M9.58849 13.1861C9.66715 13.2645 9.72957 13.3577 9.77215 13.4602C9.81474 13.5628 9.83666 13.6727 9.83666 13.7838C9.83666 13.8948 9.81474 14.0048 9.77215 14.1074C9.72957 14.2099 9.66715 14.3031 9.58849 14.3814L9.17084 14.7991C8.37941 15.5905 7.30602 16.0351 6.18678 16.0351C5.06754 16.0351 3.99414 15.5905 3.20271 14.7991C2.41129 14.0077 1.96667 12.9343 1.96667 11.815C1.96667 10.6958 2.41129 9.6224 3.20271 8.83097L4.89865 7.13574C5.65907 6.37344 6.68218 5.93074 7.75842 5.89832C8.83465 5.8659 9.88255 6.24622 10.6875 6.96136C10.7706 7.03523 10.8383 7.12475 10.8868 7.22479C10.9353 7.32484 10.9637 7.43346 10.9702 7.54446C10.9767 7.65545 10.9613 7.76665 10.9249 7.87169C10.8884 7.97674 10.8317 8.07357 10.7578 8.15668C10.6839 8.23978 10.5944 8.30752 10.4944 8.35603C10.3943 8.40453 10.2857 8.43286 10.1747 8.43939C10.0637 8.44592 9.95251 8.43052 9.84746 8.39408C9.74242 8.35763 9.64558 8.30086 9.56248 8.22699C9.0798 7.79831 8.45157 7.57026 7.80629 7.58947C7.16102 7.60868 6.54747 7.87371 6.09115 8.33035L4.39662 10.0235C3.92184 10.4983 3.65511 11.1422 3.65511 11.8136C3.65511 12.4851 3.92184 13.129 4.39662 13.6038C4.8714 14.0786 5.51534 14.3453 6.18678 14.3453C6.85821 14.3453 7.50215 14.0786 7.97693 13.6038L8.39459 13.1861C8.47295 13.1077 8.566 13.0454 8.66843 13.003C8.77086 12.9605 8.88066 12.9387 8.99154 12.9387C9.10242 12.9387 9.21222 12.9605 9.31465 13.003C9.41708 13.0454 9.51013 13.1077 9.58849 13.1861ZM14.7972 3.20176C14.0052 2.41155 12.932 1.96777 11.8132 1.96777C10.6943 1.96777 9.62119 2.41155 8.82912 3.20176L8.41146 3.61941C8.25295 3.77792 8.16391 3.9929 8.16391 4.21707C8.16391 4.44123 8.25295 4.65622 8.41146 4.81472C8.56997 4.97323 8.78495 5.06228 9.00912 5.06228C9.23328 5.06228 9.44827 4.97323 9.60677 4.81472L10.0244 4.39707C10.4992 3.92229 11.1431 3.65556 11.8146 3.65556C12.486 3.65556 13.13 3.92229 13.6047 4.39707C14.0795 4.87185 14.3462 5.51578 14.3462 6.18722C14.3462 6.85866 14.0795 7.5026 13.6047 7.97738L11.9095 9.67332C11.4528 10.1298 10.8389 10.3944 10.1935 10.4131C9.54803 10.4318 8.91985 10.2031 8.43748 9.77386C8.35438 9.69999 8.25754 9.64322 8.15249 9.60677C8.04745 9.57033 7.93625 9.55493 7.82526 9.56146C7.71426 9.56799 7.60564 9.59632 7.5056 9.64483C7.40555 9.69333 7.31603 9.76107 7.24217 9.84418C7.1683 9.92728 7.11152 10.0241 7.07508 10.1292C7.03863 10.2342 7.02324 10.3454 7.02976 10.4564C7.03629 10.5674 7.06462 10.676 7.11313 10.7761C7.16164 10.8761 7.22938 10.9656 7.31248 11.0395C8.11684 11.7545 9.16404 12.135 10.2398 12.1033C11.3155 12.0715 12.3384 11.6298 13.0992 10.8686L14.7951 9.1734C15.5863 8.38152 16.0308 7.30807 16.0312 6.18871C16.0316 5.06936 15.5878 3.9956 14.7972 3.20316V3.20176Z" fill="#ffffff"/>
</svg>
