<svg width="18" height="18" viewBox="0 0 18 18" fill="none" xmlns="http://www.w3.org/2000/svg">
<path d="M8.15625 9V3.375C8.15625 3.15122 8.24514 2.93661 8.40338 2.77838C8.56161 2.62014 8.77622 2.53125 9 2.53125C9.22378 2.53125 9.43839 2.62014 9.59662 2.77838C9.75485 2.93661 9.84375 3.15122 9.84375 3.375V9C9.84375 9.22378 9.75485 9.43839 9.59662 9.59662C9.43839 9.75485 9.22378 9.84375 9 9.84375C8.77622 9.84375 8.56161 9.75485 8.40338 9.59662C8.24514 9.43839 8.15625 9.22378 8.15625 9ZM12.8355 3.23438C12.6482 3.11901 12.4232 3.0814 12.2085 3.12955C11.9938 3.17771 11.8064 3.30782 11.6863 3.49215C11.5661 3.67648 11.5228 3.90045 11.5654 4.1163C11.608 4.33216 11.7333 4.52283 11.9145 4.64766C13.4585 5.65102 14.3438 7.24219 14.3438 9C14.3438 10.4173 13.7807 11.7765 12.7786 12.7786C11.7765 13.7807 10.4173 14.3437 9 14.3438C7.58275 14.3437 6.22355 13.7807 5.2214 12.7786C4.21925 11.7765 3.65625 10.4173 3.65625 9C3.65625 7.24219 4.54148 5.65102 6.08555 4.64414C6.25709 4.51557 6.37326 4.32653 6.41047 4.11541C6.44768 3.9043 6.40313 3.68693 6.28587 3.50747C6.16862 3.328 5.98745 3.1999 5.77916 3.14918C5.57088 3.09846 5.35109 3.12892 5.16445 3.23438C3.13312 4.55484 1.96875 6.65789 1.96875 9C1.96875 10.8648 2.70954 12.6532 4.02816 13.9718C5.34677 15.2905 7.1352 16.0312 9 16.0312C10.8648 16.0312 12.6532 15.2905 13.9718 13.9718C15.2905 12.6532 16.0312 10.8648 16.0312 9C16.0312 6.65789 14.8669 4.55484 12.8355 3.23438Z" fill="#FF6B00"/>
</svg>
