<svg width="24" height="24" viewBox="0 0 24 24" fill="none" xmlns="http://www.w3.org/2000/svg">
<g clip-path="url(#clip0_37_885)">
<path d="M23.508 0.00299492C18.823 -0.0810051 13.48 2.36799 10.098 6.16699C6.86601 6.22799 3.71901 7.55299 1.40201 9.86999C1.26701 10.003 1.21901 10.202 1.27801 10.382C1.33801 10.563 1.49401 10.694 1.68201 10.721L5.53601 11.273L5.06001 11.806C4.88301 12.004 4.89201 12.305 5.08001 12.493L11.507 18.92C11.604 19.017 11.732 19.066 11.861 19.066C11.98 19.066 12.099 19.024 12.194 18.939L12.727 18.463L13.279 22.317C13.306 22.505 13.454 22.643 13.633 22.703C13.679 22.718 13.727 22.725 13.776 22.725C13.918 22.725 14.063 22.663 14.163 22.564C16.448 20.279 17.773 17.132 17.834 13.9C21.637 10.511 24.106 5.16999 23.997 0.490995C23.99 0.224995 23.775 0.00999491 23.508 0.00299492ZM18.9 8.63499C18.413 9.12199 17.773 9.36599 17.132 9.36599C16.491 9.36599 15.851 9.12199 15.364 8.63499C14.39 7.66 14.39 6.07399 15.364 5.09899C16.339 4.12399 17.925 4.12399 18.9 5.09899C19.875 6.07399 19.875 7.661 18.9 8.63499Z" fill="#888888"/>
<path d="M2.724 16.905C1.654 17.975 0.184996 22.809 0.0209964 23.356C-0.0320036 23.532 0.0169964 23.723 0.145996 23.853C0.241996 23.949 0.368996 24 0.499996 24C0.547996 24 0.595996 23.993 0.643996 23.979C1.191 23.815 6.025 22.346 7.095 21.276C8.3 20.071 8.3 18.11 7.095 16.905C5.889 15.7 3.929 15.701 2.724 16.905Z" fill="#888888"/>
</g>
<defs>
<clipPath id="clip0_37_885">
<rect width="24" height="24" fill="white"/>
</clipPath>
</defs>
</svg>
