<svg width="24" height="23" viewBox="0 0 24 23" fill="none" xmlns="http://www.w3.org/2000/svg">
<path d="M23.3027 9.17188L18.2416 14.1054L19.4368 21.0734C19.4888 21.3781 19.3637 21.686 19.1134 21.868C18.9721 21.9712 18.8039 22.0232 18.6357 22.0232C18.5065 22.0232 18.3765 21.9923 18.2579 21.9298L12 18.6399L5.74294 21.9289C5.46994 22.0736 5.13763 22.05 4.88738 21.8672C4.63713 21.6852 4.51201 21.3773 4.56401 21.0726L5.75919 14.1046L0.697318 9.17188C0.476318 8.95576 0.39588 8.63238 0.491755 8.33907C0.58763 8.04576 0.841943 7.83044 1.14826 7.78576L8.14307 6.77013L11.2712 0.431004C11.545 -0.123933 12.455 -0.123933 12.7288 0.431004L15.8569 6.77013L22.8518 7.78576C23.1581 7.83044 23.4124 8.04494 23.5083 8.33907C23.6041 8.63319 23.5237 8.95494 23.3027 9.17188Z" fill="white"/>
</svg>
