<svg width="18" height="18" viewBox="0 0 18 18" fill="none" xmlns="http://www.w3.org/2000/svg">
<path fill-rule="evenodd" clip-rule="evenodd" d="M10.4856 9.60083C10.3866 9.60824 9.87503 9.63867 8.73389 9.63867C7.82626 9.63867 7.18184 9.61153 6.95576 9.60083C3.44818 9.44703 0.83007 8.83838 0.83007 8.10965C0.83007 7.38092 3.44818 6.77309 6.95576 6.61682V8.99465C7.18514 9.0111 7.84194 9.04976 8.74957 9.04976C9.83873 9.04976 10.3841 9.00452 10.4823 8.99548V6.61846C13.9825 6.77392 16.5948 7.38256 16.5948 8.10965C16.5948 8.83673 13.9833 9.44538 10.4823 9.60001L10.4856 9.60083ZM10.4856 6.37254V4.24474H15.3703V1H2.07105V4.24474H6.95493V6.37172C2.98528 6.55349 0 7.33733 0 8.27662C0 9.21591 2.98528 9.99892 6.95493 10.1815V17H10.4848V10.179C14.4454 9.99728 17.4257 9.21426 17.4257 8.27579C17.4257 7.33733 14.4478 6.55431 10.4848 6.37172L10.4856 6.37254Z" fill="#FFDE33"/>
</svg>
