<svg width="24" height="18" viewBox="0 0 24 18" fill="none" xmlns="http://www.w3.org/2000/svg">
<path d="M20.3161 1.49285C18.7862 0.802897 17.1464 0.292931 15.4315 0.00294997C15.4162 1.80807e-05 15.4004 0.0019075 15.3862 0.00835695C15.3721 0.0148064 15.3603 0.0254968 15.3525 0.0389476C15.1425 0.407923 14.9085 0.888892 14.7445 1.26887C12.9257 0.997121 11.0767 0.997121 9.25787 1.26887C9.07522 0.847755 8.86925 0.437146 8.64091 0.0389476C8.63317 0.0253312 8.62147 0.014399 8.60735 0.0076098C8.59324 0.000820611 8.57739 -0.00150272 8.56192 0.000950011C6.84803 0.290931 5.20814 0.800898 3.67724 1.49185C3.66407 1.49738 3.6529 1.5068 3.64524 1.51885C0.533446 6.09355 -0.319498 10.5553 0.0994741 14.961C0.10064 14.9718 0.103989 14.9822 0.109318 14.9917C0.114647 15.0011 0.121845 15.0094 0.130472 15.016C1.94675 16.3383 3.97256 17.3456 6.12308 17.9958C6.13807 18.0004 6.15411 18.0004 6.16909 17.9957C6.18407 17.9911 6.19731 17.982 6.20707 17.9698C6.66984 17.3509 7.07991 16.6943 7.43299 16.0069C7.43789 15.9975 7.44072 15.9872 7.44128 15.9766C7.44183 15.966 7.44011 15.9554 7.43622 15.9455C7.43233 15.9357 7.42637 15.9268 7.41874 15.9194C7.41111 15.9121 7.40199 15.9064 7.392 15.9029C6.74604 15.6596 6.12016 15.3661 5.52012 15.025C5.50934 15.0188 5.50025 15.0101 5.49368 14.9995C5.4871 14.989 5.48325 14.977 5.48245 14.9646C5.48166 14.9522 5.48396 14.9398 5.48913 14.9286C5.49431 14.9173 5.50221 14.9074 5.51212 14.9C5.63811 14.807 5.7641 14.71 5.88409 14.613C5.8949 14.6043 5.90791 14.5987 5.92168 14.5969C5.93545 14.5952 5.94944 14.5973 5.96209 14.603C9.88883 16.3669 14.1416 16.3669 18.0223 14.603C18.035 14.5969 18.0491 14.5946 18.0631 14.5962C18.0771 14.5978 18.0903 14.6032 18.1013 14.612C18.2213 14.71 18.3463 14.807 18.4733 14.9C18.4833 14.9073 18.4913 14.917 18.4966 14.9282C18.502 14.9394 18.5045 14.9517 18.5039 14.9641C18.5033 14.9765 18.4996 14.9885 18.4932 14.9991C18.4869 15.0098 18.4779 15.0186 18.4673 15.025C17.8693 15.3689 17.2473 15.6599 16.5944 15.9019C16.5844 15.9055 16.5752 15.9113 16.5676 15.9187C16.56 15.9262 16.554 15.9352 16.5501 15.9451C16.5462 15.9551 16.5445 15.9657 16.5451 15.9764C16.5457 15.987 16.5485 15.9974 16.5534 16.0069C16.9134 16.6939 17.3253 17.3478 17.7783 17.9688C17.7877 17.9815 17.8009 17.991 17.8159 17.996C17.8309 18.0011 17.8471 18.0013 17.8623 17.9968C20.0165 17.3484 22.0456 16.3407 23.8639 15.016C23.8728 15.0098 23.8802 15.0017 23.8857 14.9924C23.8913 14.9831 23.8947 14.9727 23.8959 14.962C24.3959 9.8683 23.058 5.44259 20.3471 1.52085C20.3405 1.50811 20.3295 1.49817 20.3161 1.49285ZM8.01996 12.2781C6.83803 12.2781 5.8631 11.2092 5.8631 9.8983C5.8631 8.58639 6.81903 7.51846 8.01996 7.51846C9.22988 7.51846 10.1958 8.59538 10.1768 9.8983C10.1768 11.2102 9.22088 12.2781 8.01996 12.2781ZM15.9944 12.2781C14.8115 12.2781 13.8376 11.2092 13.8376 9.8983C13.8376 8.58639 14.7925 7.51846 15.9944 7.51846C17.2044 7.51846 18.1703 8.59538 18.1513 9.8983C18.1513 11.2102 17.2054 12.2781 15.9944 12.2781Z" fill="white"/>
</svg>
