<svg width="74" height="65" viewBox="0 0 74 65" fill="none" xmlns="http://www.w3.org/2000/svg">
<g clip-path="url(#clip0_4_321)">
<path d="M0 57.8508V54.6424H13.1832V57.8508L6.2233 61.5494H13.1832V64.765H0V61.5494L6.71731 57.8508H0Z" fill="white"/>
<path d="M21.653 54.3784C17.8135 54.3857 14.6697 55.4851 14.6857 59.3186V60.0554C14.6697 63.8817 17.8135 64.9898 21.653 64.9985C25.4866 64.9898 28.6275 63.8817 28.6129 60.0554V59.3186C28.6129 55.4924 25.4925 54.3784 21.653 54.3784ZM21.6486 62.9433C20.3639 61.4406 19.3189 60.6559 17.3209 59.687C19.3189 58.721 20.3639 57.9363 21.6486 56.4337C22.9362 57.9363 23.9812 58.721 25.9792 59.687C23.9812 60.6559 22.9362 61.4406 21.6486 62.9433Z" fill="white"/>
<path d="M34.3875 61.2927V64.7505H30.4106V54.6279H34.3875V58.0858H36.1253L39.8668 54.6279H45.089L39.7996 59.69L45.089 64.752H39.8668L36.1253 61.2941H34.3875V61.2927Z" fill="white"/>
<path d="M46.264 54.641H58.2035V57.2315H50.2424V58.5267H58.2035V60.8692H50.2424V62.1644H58.2035V64.7636H46.264V54.641Z" fill="white"/>
<path d="M70.1444 54.6337C72.2461 54.6105 74.0307 56.3655 74 58.46C74 59.22 73.7954 59.9133 73.3847 60.5312C72.9827 61.1418 72.4434 61.6089 71.7755 61.9164L74 64.7563H69.7644L67.8439 62.2862H64.2923V64.7563H60.3154V54.6337H70.1444ZM64.2923 57.5941V59.3186H69.1418C69.3844 59.3186 69.589 59.236 69.7571 59.0706C69.931 58.898 70.0158 58.6935 70.0158 58.46C70.0158 57.9784 69.6285 57.5941 69.1432 57.5941H64.2938H64.2923Z" fill="white"/>
<path d="M41.5038 4.26284C39.5205 5.53053 38.4857 6.55889 37.2083 8.52568C35.9309 6.55744 34.8946 5.53053 32.9128 4.26284C34.8961 2.99516 35.9309 1.9668 37.2083 0C38.4857 1.96825 39.5219 2.99516 41.5038 4.26284Z" fill="#FF6B00"/>
<path d="M65.3096 23.1563C67.2929 24.424 68.3277 25.4523 69.6051 27.4191C70.8825 25.4509 71.9187 24.424 73.9006 23.1563C71.9173 21.8886 70.8825 20.8602 69.6051 18.8934C68.3277 20.8617 67.2914 21.8886 65.3096 23.1563Z" fill="#FF6B00"/>
<path d="M68.3043 22.5485C68.3043 22.5485 38.3848 17.6721 38.3848 47.1291H52.7768C52.7768 47.1291 48.1656 31.2018 68.3043 22.5485Z" fill="#FF6B00"/>
<path d="M8.69039 23.1563C6.70706 24.424 5.67228 25.4523 4.39488 27.4191C3.11748 25.4509 2.08123 24.424 0.0993652 23.1563C2.0827 21.8886 3.11748 20.8602 4.39488 18.8934C5.67228 20.8617 6.70852 21.8886 8.69039 23.1563Z" fill="#FF6B00"/>
<path d="M5.69421 22.5485C5.69421 22.5485 35.6137 17.6721 35.6137 47.1291H21.2218C21.2218 47.1291 25.833 31.2018 5.69421 22.5485Z" fill="#FF6B00"/>
<path d="M28.6567 47.1277L37.2083 4.26282L45.2045 47.1277H28.6567Z" fill="#FF6B00"/>
<path d="M52.5341 46.6026H21.4863C21.1505 46.6026 20.8783 46.8727 20.8783 47.206V48.9567C20.8783 49.2899 21.1505 49.56 21.4863 49.56H52.5341C52.8699 49.56 53.1421 49.2899 53.1421 48.9567V47.206C53.1421 46.8727 52.8699 46.6026 52.5341 46.6026Z" fill="#FF6B00"/>
</g>
<defs>
<clipPath id="clip0_4_321">
<rect width="74" height="65" fill="white"/>
</clipPath>
</defs>
</svg>
