<svg width="26" height="18" viewBox="0 0 26 18" fill="none" xmlns="http://www.w3.org/2000/svg">
<path d="M13.0498 0H13.1924C14.5089 0.0048047 21.1794 0.0528519 22.978 0.536525C23.5217 0.684139 24.0171 0.971866 24.4148 1.37095C24.8125 1.77004 25.0985 2.26651 25.2442 2.81075C25.4059 3.41934 25.5196 4.22493 25.5965 5.05614L25.6125 5.22271L25.6478 5.63911L25.6606 5.80568C25.7647 7.26951 25.7775 8.64045 25.7791 8.93994V9.06006C25.7775 9.37076 25.7631 10.8346 25.6478 12.3593L25.6349 12.5274L25.6205 12.694C25.5405 13.6101 25.4219 14.5198 25.2442 15.1893C25.0989 15.7337 24.8131 16.2304 24.4153 16.6296C24.0176 17.0287 23.5219 17.3163 22.978 17.4635C21.1201 17.9632 14.0588 17.9984 13.0803 18H12.8529C12.358 18 10.3112 17.9904 8.16507 17.9167L7.8928 17.9071L7.75347 17.9007L7.4796 17.8895L7.20573 17.8783C5.42799 17.7998 3.73514 17.6733 2.95518 17.4619C2.41143 17.3148 1.91586 17.0275 1.51813 16.6286C1.1204 16.2298 0.834458 15.7334 0.688961 15.1893C0.511187 14.5214 0.392671 13.6101 0.312593 12.694L0.299781 12.5258L0.286968 12.3593C0.207927 11.2741 0.164128 10.1866 0.15564 9.0985L0.15564 8.9015C0.158843 8.55717 0.171655 7.3672 0.25814 6.05392L0.269351 5.88896L0.274156 5.80568L0.286968 5.63911L0.322202 5.22271L0.338218 5.05614C0.415093 4.22493 0.528804 3.41774 0.690563 2.81075C0.835814 2.26629 1.12164 1.76959 1.51939 1.37043C1.91714 0.971276 2.41284 0.683696 2.95678 0.536525C3.73674 0.328321 5.4296 0.200196 7.20733 0.120117L7.4796 0.108906L7.75507 0.0992973L7.8928 0.0944926L8.16667 0.0832817C9.69089 0.034233 11.2157 0.00700343 12.7407 0.00160164H13.0498V0ZM10.4057 5.14103V12.8574L17.0634 9.0008L10.4057 5.14103Z" fill="white"/>
</svg>
