<svg width="23" height="18" viewBox="0 0 23 18" fill="none" xmlns="http://www.w3.org/2000/svg">
<path d="M22.1556 2.13818C21.3408 2.48965 20.4542 2.74261 19.5408 2.84113C20.4891 2.2778 21.1992 1.38782 21.5379 0.338176C20.6481 0.867496 19.6733 1.23866 18.6568 1.43522C18.232 0.981027 17.7181 0.6192 17.1473 0.372279C16.5765 0.125359 15.961 -0.00136274 15.3391 1.10514e-05C12.8228 1.10514e-05 10.7991 2.03965 10.7991 4.54261C10.7991 4.89409 10.8417 5.24557 10.911 5.58374C7.14322 5.38669 3.78287 3.5867 1.54885 0.83078C1.14179 1.52606 0.928471 2.31771 0.931097 3.12338C0.931097 4.69971 1.73258 6.08965 2.95476 6.90711C2.23451 6.87874 1.53112 6.68077 0.901808 6.3293V6.38521C0.901808 8.59261 2.46216 10.4219 4.54175 10.8426C4.15128 10.944 3.7496 10.9959 3.34618 10.997C3.05062 10.997 2.77104 10.9678 2.48879 10.9278C3.06394 12.7278 4.73879 14.0352 6.73316 14.0778C5.17281 15.3 3.21837 16.0189 1.09619 16.0189C0.715417 16.0189 0.363938 16.0056 -0.000854492 15.963C2.01216 17.2544 4.40062 18 6.97281 18C15.3231 18 19.8923 11.0823 19.8923 5.07782C19.8923 4.88078 19.8923 4.68374 19.879 4.48669C20.763 3.83965 21.5379 3.03817 22.1556 2.13818Z" fill="white"/>
</svg>
